<?xml version="1.0" standalone="no"?>
<!DOCTYPE svg PUBLIC "-//W3C//DTD SVG 1.1//EN" "http://www.w3.org/Graphics/SVG/1.1/DTD/svg11.dtd" >
<svg xmlns="http://www.w3.org/2000/svg" xmlns:xlink="http://www.w3.org/1999/xlink" version="1.1">
<metadata>
Created by FontForge 20201107 at Sun Jan 21 23:28:51 2024
 By 
Copyright (c) 2017 by Klim Type Foundry. All rights reserved. |DCNT
</metadata>
<defs>
<font id="PitchSans-Regular" horiz-adv-x="1257" >
  <font-face 
    font-family="Pitch Sans"
    font-weight="400"
    font-stretch="normal"
    units-per-em="2048"
    panose-1="2 11 5 9 3 2 2 6 2 3"
    ascent="1255"
    descent="-793"
    x-height="868"
    cap-height="1167"
    bbox="0 -586 1468 1974"
    underline-thickness="98"
    underline-position="-376"
    unicode-range="U+000D-F6C3"
  />
<missing-glyph 
 />
    <glyph glyph-name=".notdef" 
 />
    <glyph glyph-name=".null" horiz-adv-x="0" 
 />
    <glyph glyph-name="nonmarkingreturn" horiz-adv-x="682" 
 />
    <glyph glyph-name="NULL" horiz-adv-x="0" 
 />
    <glyph glyph-name="NULL" horiz-adv-x="0" 
 />
    <glyph glyph-name="CR" unicode="&#xd;" 
 />
    <glyph glyph-name="space" unicode=" " 
 />
    <glyph glyph-name="exclam" unicode="!" 
d="M715 1167v-125l-58 -647h-59l-55 647v125h172zM758 109q0 -55 -37.5 -93.5t-91.5 -38.5t-91.5 38.5t-37.5 93.5q0 54 37.5 91.5t91.5 37.5t91.5 -37.5t37.5 -91.5z" />
    <glyph glyph-name="quotedbl" unicode="&#x22;" 
d="M924 1255v-118l-72 -480h-45l-72 480v118h189zM522 1255v-118l-71 -480h-45l-72 480v118h188z" />
    <glyph glyph-name="numbersign" unicode="#" 
d="M825 375l-96 -375h-94l96 375h-313l-96 -375h-93l88 342l-30 33h-197l23 84h233l66 250h-240l18 84h242l96 374h95l-97 -374h314l96 374h92l-88 -342l31 -32h196l-22 -84h-234l-65 -250h239l-18 -84h-242zM504 709l-55 -215l30 -35h275l55 215l-31 35h-274z" />
    <glyph glyph-name="dollar" unicode="$" 
d="M1110 317q0 -144 -121 -239q-125 -98 -311 -107v-303h-92v305q-136 7 -262.5 54.5t-212.5 122.5l65 92q163 -142 373 -166l37 41v454l-90 21q-171 41 -241.5 106.5t-70.5 178.5q0 133 113 221q115 89 289 98v272h92v-274q238 -21 414 -188l-68 -86q-80 77 -154 119
t-157 55l-35 -39v-404l149 -35q283 -65 283 -299zM289 881q0 -74 49.5 -118t169.5 -73l78 -18v383l-41 43q-116 -12 -186 -71.5t-70 -145.5zM809 518l-131 31v-432l39 -43q131 14 210 78.5t79 160.5q0 158 -197 205z" />
    <glyph glyph-name="percent" unicode="%" 
d="M63 948q0 102 72 174q71 74 174 74t174 -74q74 -71 74 -174t-74 -174q-72 -72 -174 -72q-99 0 -174 72q-72 75 -72 174zM160 -20l-62 53l1002 1159l61 -53zM467 948q0 66 -46 112t-112 46t-110.5 -46t-44.5 -112t44.5 -109.5t110.5 -43.5t112 45t46 108zM946 -25
q-99 0 -174 72q-72 75 -72 174q0 102 72 174q71 74 174 74t174 -74q74 -71 74 -174t-74 -174q-72 -72 -174 -72zM946 377q-64 0 -109.5 -45.5t-45.5 -110.5q0 -66 44.5 -110.5t110.5 -44.5t112 44.5t46 110.5q0 63 -46 109.5t-112 46.5z" />
    <glyph glyph-name="ampersand" unicode="&#x26;" 
d="M1176 240l92 -21q-19 -118 -81.5 -182t-156.5 -64q-59 0 -117.5 37.5t-140.5 132.5l-37 43l-20 -22q-93 -103 -175.5 -147t-177.5 -44q-137 0 -231 88t-94 226q0 106 61.5 184.5t214.5 163.5v47q-62 73 -89 131t-27 119q0 113 80 188.5t198 75.5q124 0 199.5 -74.5
t75.5 -193.5q0 -154 -230 -287v-49l221 -258l297 328l70 -68l-281 -309v-52l21 -24q83 -99 115 -119q35 -18 71 -18q120 0 142 168zM301 932q0 -46 22 -90t87 -121l20 -25q117 61 167 114.5t50 117.5q0 76 -47.5 126t-124.5 50q-75 0 -124.5 -49t-49.5 -123zM141 287
q0 -91 64.5 -153t156.5 -62q76 0 142 37t145 124v56l-248 291q-147 -77 -203.5 -141.5t-56.5 -151.5z" />
    <glyph glyph-name="quotesingle" unicode="'" 
d="M723 1255v-118l-72 -480h-45l-71 480v118h188z" />
    <glyph glyph-name="parenleft" unicode="(" 
d="M860 1352l58 -80q-226 -135 -346.5 -328.5t-120.5 -419.5t119.5 -418t344.5 -327l-55 -82q-252 152 -383 363t-131 464q0 254 131 465t383 363z" />
    <glyph glyph-name="parenright" unicode=")" 
d="M807 524q0 226 -120.5 419.5t-346.5 328.5l57 80q252 -152 383 -363t131 -465q0 -253 -131 -464t-383 -363l-55 82q226 135 345.5 327t119.5 418z" />
    <glyph glyph-name="asterisk" unicode="*" 
d="M299 1157l289 -166v330h82v-330l288 166l43 -72l-256 -147v-37l256 -149l-43 -72l-288 168v-332h-82v332l-289 -168l-43 72l258 149v37l-258 147z" />
    <glyph glyph-name="plus" unicode="+" 
d="M1092 549h-379l-37 -41v-375h-94v375l-37 41h-379v94h416v416h94v-416h416v-94z" />
    <glyph glyph-name="comma" unicode="," 
d="M489 119q0 59 41 99t99 40q57 0 98 -41t41 -100q0 -51 -43 -107l-256 -366l-63 41l188 309q-48 11 -76.5 44.5t-28.5 80.5z" />
    <glyph glyph-name="hyphen" unicode="-" 
d="M879 621v-119h-500v119h500z" />
    <glyph glyph-name="period" unicode="." 
d="M629 -23q-57 0 -98.5 41.5t-41.5 98.5q0 59 41 100t99 41q57 0 98 -41t41 -100q0 -57 -41 -98.5t-98 -41.5z" />
    <glyph glyph-name="slash" unicode="/" 
d="M1112 1251l-876 -1525l-91 47l877 1525z" />
    <glyph glyph-name="zero" unicode="0" 
d="M629 -29q-215 0 -353 172q-135 175 -135 441t135 438q137 174 353 174t350 -174q137 -171 137 -438t-137 -441q-135 -172 -350 -172zM629 74q172 0 274 141q103 142 103 369q0 226 -103 368t-274 142q-172 0 -275 -142q-102 -141 -102 -368q0 -228 102 -369t275 -141z
" />
    <glyph glyph-name="one" unicode="1" 
d="M631 1040l-395 -272l-58 84l457 315h139v-1167h-106v1012z" />
    <glyph glyph-name="two" unicode="2" 
d="M616 1096q-216 0 -374 -242l-80 61q87 136 203.5 208.5t250.5 72.5q172 0 276.5 -94.5t104.5 -249.5q0 -150 -139 -277q-42 -36 -94 -71q-41 -29 -170 -107q-192 -112 -254 -174q-64 -61 -76 -129h795v-94h-901v70q9 105 84 192q82 95 303 223q208 121 274 199t66 166
q0 112 -73 179t-196 67z" />
    <glyph glyph-name="three" unicode="3" 
d="M1020 319q0 -219 -221 -360q-221 -144 -580 -168l-20 94q343 32 529.5 145.5t186.5 291.5q0 104 -70.5 164.5t-193.5 60.5q-87 0 -188 -41l-33 90q208 54 304.5 126.5t96.5 172.5q0 97 -62 150t-175 53q-102 0 -197 -56.5t-164 -156.5l-73 59q75 117 191 184.5t245 67.5
q158 0 248 -79t90 -218q0 -160 -172 -256v-29q123 -23 190.5 -100t67.5 -195z" />
    <glyph glyph-name="four" unicode="4" 
d="M856 444h309v-92h-270l-39 -39v-313h-106v313l-39 39h-605v115l537 823l92 -51l-491 -754v-41h506v361h106v-361z" />
    <glyph glyph-name="five" unicode="5" 
d="M1038 367q0 -227 -207 -377t-587 -201l-21 98q365 60 538 177.5t173 302.5q0 102 -73.5 170.5t-190.5 68.5q-171 0 -287 -125h-135l28 686h713v-100h-618l-21 -446l29 -19q121 100 295 100q163 0 264 -96q100 -93 100 -239z" />
    <glyph glyph-name="six" unicode="6" 
d="M635 782q180 0 299 -116q121 -118 121 -289q0 -170 -125 -289q-123 -117 -301 -117q-115 0 -211 49.5t-152 137.5q-71 112 -71 278q0 296 204 525q207 233 559 327l31 -98q-494 -126 -645 -520l27 -17q100 129 264 129zM629 70q137 0 225 88q92 89 92 219t-92 219
q-93 90 -225 90q-133 0 -226 -90q-92 -89 -92 -219q0 -129 90 -219q91 -88 228 -88z" />
    <glyph glyph-name="seven" unicode="7" 
d="M997 1034l-26 35h-838v98h985v-116l-620 -1266l-92 41z" />
    <glyph glyph-name="eight" unicode="8" 
d="M1067 324q0 -157 -123 -256q-126 -97 -315 -97q-190 0 -316 97q-123 99 -123 256q0 103 62.5 180.5t169.5 113.5v29q-87 33 -140 108.5t-53 172.5q0 156 111 250q113 96 289 96t289 -96q110 -94 110 -250q0 -97 -52.5 -172.5t-139.5 -108.5v-29q107 -36 169 -113.5
t62 -180.5zM336 928q0 -112 79.5 -179t213.5 -67t213.5 67t79.5 179q0 116 -78.5 182t-214.5 66t-214.5 -66t-78.5 -182zM299 324q0 -116 90 -185t240 -69t239.5 68.5t89.5 185.5q0 122 -87 190t-242 68t-242.5 -68t-87.5 -190z" />
    <glyph glyph-name="nine" unicode="9" 
d="M195 791q0 170 122 286q125 119 304 119q116 0 211 -49t149 -137q72 -113 72 -279q0 -326 -217 -586q-215 -261 -572 -356l-31 98q248 61 429 224q178 161 253 389l-26 16q-114 -129 -268 -129q-180 0 -304 115q-122 116 -122 289zM621 1098q-135 0 -228 -90
q-92 -89 -92 -217q0 -133 92 -222q94 -88 228 -88q132 0 225 90q92 89 92 220q0 128 -92 217q-93 90 -225 90z" />
    <glyph glyph-name="colon" unicode=":" 
d="M629 -23q-57 0 -98.5 41.5t-41.5 98.5q0 59 41 100t99 41q57 0 98 -41t41 -100q0 -57 -41 -98.5t-98 -41.5zM629 567q-57 0 -98.5 41.5t-41.5 98.5q0 59 41 100t99 41q57 0 98 -41t41 -100q0 -57 -41 -98.5t-98 -41.5z" />
    <glyph glyph-name="semicolon" unicode=";" 
d="M489 119q0 59 41 99t99 40q57 0 98 -41t41 -100q0 -51 -43 -107l-256 -366l-63 41l188 309q-48 11 -76.5 44.5t-28.5 80.5zM629 567q-57 0 -98.5 41.5t-41.5 98.5q0 59 41 100t99 41q57 0 98 -41t41 -100q0 -57 -41 -98.5t-98 -41.5z" />
    <glyph glyph-name="less" unicode="&#x3c;" 
d="M1004 236v-109l-779 369v106l779 369v-107l-625 -293v-43z" />
    <glyph glyph-name="equal" unicode="=" 
d="M1079 754v-95h-901v95h901zM1079 451v-93h-901v93h901z" />
    <glyph glyph-name="greater" unicode="&#x3e;" 
d="M254 121v108l625 293v43l-625 293v107l778 -369v-107z" />
    <glyph glyph-name="question" unicode="?" 
d="M926 872q0 102 -79 164t-208 62q-121 0 -224 -65t-169 -183l-86 53q72 134 202 213.5t277 79.5q180 0 288.5 -88t108.5 -236q0 -134 -95 -219.5t-298 -132.5v-145h-115v211q230 50 312 114q86 65 86 172zM586 -23q-55 0 -92 38t-37 94q0 55 36.5 92t92.5 37
q54 0 91.5 -37.5t37.5 -91.5q0 -55 -37.5 -93.5t-91.5 -38.5z" />
    <glyph glyph-name="at" unicode="@" 
d="M1079 281q-43 0 -77.5 21t-51.5 58l-37 7q-78 -84 -200 -84q-124 0 -205 75q-82 76 -82 187q0 112 82 186t205 74q119 0 188 -66l31 13q-2 205 -85 313.5t-241 108.5q-170 0 -266 -124t-96 -345v-289q0 -215 99 -340t269 -125q171 0 322 117l47 -80q-67 -61 -166.5 -97
t-202.5 -36q-217 0 -342 149.5t-125 411.5v289q0 264 122 413.5t339 149.5q207 0 314.5 -138.5t107.5 -402.5v-272q0 -38 19 -61t51 -23q36 0 82 51l39 -70q-59 -71 -140 -71zM725 371q133 0 205 125v96q-66 125 -205 125q-86 0 -140.5 -48.5t-54.5 -123.5t54.5 -124.5
t140.5 -49.5z" />
    <glyph glyph-name="A" unicode="A" 
d="M696 1167l471 -1167h-116l-154 387h-539l-153 -387h-115l471 1167h135zM608 1018l-202 -510l26 -27h391l27 27l-201 510h-41z" />
    <glyph glyph-name="B" unicode="B" 
d="M1051 864q0 -79 -40.5 -139t-115.5 -92v-33q97 -26 154 -100t57 -172q0 -162 -116 -245t-343 -83h-405v1167h383q209 0 317.5 -77t108.5 -226zM618 1073h-229l-41 -41v-379h270q328 0 328 211q0 209 -328 209zM643 561h-295v-426l41 -41h254q358 0 358 234
q0 233 -358 233z" />
    <glyph glyph-name="C" unicode="C" 
d="M682 1092q-184 0 -299 -142q-111 -141 -111 -366q0 -226 111 -367q114 -141 299 -141q103 0 183.5 51.5t152.5 161.5l82 -70q-155 -248 -416 -248q-231 0 -375 172q-145 174 -145 441q0 266 145 440q144 172 375 172q261 0 416 -248l-82 -69q-72 110 -152.5 161.5
t-183.5 51.5z" />
    <glyph glyph-name="D" unicode="D" 
d="M1118 584q0 -268 -168 -426q-169 -158 -456 -158h-293v1167h293q290 0 456 -159q168 -155 168 -424zM494 1071h-144l-43 -41v-893l43 -41h144q241 0 377.5 130.5t136.5 357.5q0 226 -136.5 356.5t-377.5 130.5z" />
    <glyph glyph-name="E" unicode="E" 
d="M961 557h-613v-416l41 -41h682v-100h-829v1167h809v-100h-662l-41 -41v-369h613v-100z" />
    <glyph glyph-name="F" unicode="F" 
d="M993 557h-626v-557h-107v1167h823v-100h-675l-41 -41v-369h626v-100z" />
    <glyph glyph-name="G" unicode="G" 
d="M1094 598v-598h-105v100l-26 17q-143 -146 -318 -146q-221 0 -362 172q-140 178 -140 441q0 264 148 438q149 174 379 174q131 0 232 -60.5t183 -187.5l-81 -69q-72 110 -153 161.5t-181 51.5q-188 0 -303 -142q-113 -140 -113 -366q0 -225 111 -369q111 -141 290 -141
q92 0 172 48t162 152v226h-352v98h457z" />
    <glyph glyph-name="H" unicode="H" 
d="M924 557h-590l-41 -41v-516h-107v1167h107v-469l41 -41h590l41 41v469h106v-1167h-106v516z" />
    <glyph glyph-name="I" unicode="I" 
d="M723 1069l-41 -41v-889l41 -41h319v-98h-825v98h318l43 41v889l-43 41h-318v98h825v-98h-319z" />
    <glyph glyph-name="J" unicode="J" 
d="M539 72q165 0 252 109.5t86 316.5v669h106v-682q0 -238 -119.5 -375t-324.5 -137q-149 0 -265 82q-112 81 -153 221l92 56q43 -125 127 -192.5t199 -67.5z" />
    <glyph glyph-name="K" unicode="K" 
d="M643 643l483 -643h-131l-450 594l-217 -221v-373h-107v1167h107v-630h32l609 630h143l-469 -475v-49z" />
    <glyph glyph-name="L" unicode="L" 
d="M256 1167h106v-1026l41 -41h658v-100h-805v1167z" />
    <glyph glyph-name="M" unicode="M" 
d="M979 1036h-31l-254 -680h-131l-254 680h-30v-1036h-105v1167h199l239 -657h37l246 657h188v-1167h-104v1036z" />
    <glyph glyph-name="N" unicode="N" 
d="M969 1167h102v-1167h-127l-618 1008h-37v-1008h-103v1167h158l586 -956h39v956z" />
    <glyph glyph-name="O" unicode="O" 
d="M629 1196q222 0 360 -172q139 -174 139 -440q0 -267 -139 -441q-138 -172 -360 -172q-223 0 -361 172q-139 174 -139 441q0 266 139 440q138 172 361 172zM629 74q177 0 282 141q107 140 107 369q0 228 -107 368q-106 142 -282 142q-174 0 -283 -142q-106 -138 -106 -368
q0 -231 106 -369q108 -141 283 -141z" />
    <glyph glyph-name="P" unicode="P" 
d="M1100 831q0 -166 -115.5 -250.5t-341.5 -84.5h-311v-496h-107v1167h418q226 0 341.5 -85t115.5 -251zM373 1069l-41 -41v-434h307q352 0 352 237q0 238 -352 238h-266z" />
    <glyph glyph-name="Q" unicode="Q" 
d="M971 123l147 -191l-82 -63l-143 184q-110 -82 -264 -82q-223 0 -361 172q-139 174 -139 441q0 266 139 440q138 172 361 172q222 0 360 -172q139 -174 139 -440q0 -139 -40.5 -257.5t-116.5 -203.5zM629 1094q-174 0 -283 -142q-106 -138 -106 -368q0 -231 106 -369
q108 -141 283 -141q90 0 166 39l10 53l-127 160l82 63l127 -160h35q96 137 96 355q0 228 -107 368q-106 142 -282 142z" />
    <glyph glyph-name="R" unicode="R" 
d="M623 496h-7h-297v-496h-108v1167h405q223 0 339 -86t116 -250q0 -270 -305 -323v-39l332 -469h-127zM963 831q0 238 -351 238h-252l-41 -41v-434h293q351 0 351 237z" />
    <glyph glyph-name="S" unicode="S" 
d="M653 74q154 0 249 65.5t95 173.5q0 157 -194 203l-301 74q-165 38 -237 106.5t-72 184.5q0 139 114 227q113 88 295 88q137 0 260.5 -49t220.5 -141l-69 -86q-181 178 -416 178q-134 0 -216.5 -58.5t-82.5 -154.5q0 -74 49.5 -118.5t171.5 -74.5l305 -74
q279 -70 279 -301q0 -155 -125 -249q-129 -97 -326 -97q-149 0 -287.5 47t-236.5 132l64 96q93 -84 211.5 -128t248.5 -44z" />
    <glyph glyph-name="T" unicode="T" 
d="M1145 1167v-100h-420l-41 -41v-1026h-109v1026l-40 41h-420v100h1030z" />
    <glyph glyph-name="U" unicode="U" 
d="M629 74q154 0 247 97t93 261v735h108v-749q0 -202 -125 -324q-126 -123 -323 -123q-198 0 -324 123q-125 122 -125 324v749h109v-735q0 -164 93 -261t247 -97z" />
    <glyph glyph-name="V" unicode="V" 
d="M1047 1167h120l-471 -1167h-135l-471 1167h121l397 -1013h41z" />
    <glyph glyph-name="W" unicode="W" 
d="M971 0h-148l-180 760h-27l-182 -760h-147l-226 1167h109l188 -995h27l182 766h125l185 -766h26l187 995h106z" />
    <glyph glyph-name="X" unicode="X" 
d="M651 494h-47l-362 -494h-127l448 606l-411 561h129l323 -444h51l326 444h127l-414 -557l449 -610h-131z" />
    <glyph glyph-name="Y" unicode="Y" 
d="M1014 1167h129l-461 -655v-512h-107v512l-462 655h131l356 -505h59z" />
    <glyph glyph-name="Z" unicode="Z" 
d="M1081 1059l-764 -922v-37h795v-100h-950v111l762 919v37h-736v100h893v-108z" />
    <glyph glyph-name="bracketleft" unicode="[" 
d="M952 1331v-94h-446v-1427h446v-95h-542v1616h542z" />
    <glyph glyph-name="backslash" unicode="\" 
d="M1022 -274l-877 1525l91 47l876 -1525z" />
    <glyph glyph-name="bracketright" unicode="]" 
d="M305 -190h447v1427h-447v94h543v-1616h-543v95z" />
    <glyph glyph-name="asciicircum" unicode="^" 
d="M369 700h-119l348 496h90l348 -496h-118l-246 355h-58z" />
    <glyph glyph-name="underscore" unicode="_" 
d="M961 -156v-100h-664v100h664z" />
    <glyph glyph-name="grave" unicode="`" 
d="M444 1409h166l174 -338l-45 -27l-295 322v43z" />
    <glyph glyph-name="a" unicode="a" 
d="M231 651l-55 86q86 78 195 119t227 41q160 0 243 -81t83 -236v-369q0 -66 27.5 -104.5t74.5 -38.5q72 0 135 75l53 -67q-91 -105 -200 -105q-70 0 -122.5 46.5t-62.5 119.5h-38q-161 -166 -361 -166q-127 0 -201.5 63t-74.5 169q0 103 82 168.5t270 107.5l315 74v29
q0 112 -56 165.5t-173 53.5q-95 0 -181.5 -35.5t-179.5 -114.5zM438 63q99 0 190 49t193 158v162l-35 25l-254 -60q-152 -36 -211 -78.5t-59 -109.5t48.5 -106.5t127.5 -39.5z" />
    <glyph glyph-name="b" unicode="b" 
d="M236 1255h104v-520h33q55 78 140 120t185 42q186 0 310 -133q125 -131 125 -330t-125 -330q-124 -133 -310 -133q-100 0 -185 42t-140 120h-33v-133h-104v1255zM690 70q146 0 240 102q94 104 94 262q0 159 -94 260q-94 105 -240 105q-117 0 -206.5 -64t-143.5 -186v-230
q54 -122 143.5 -185.5t206.5 -63.5z" />
    <glyph glyph-name="c" unicode="c" 
d="M657 801q-164 0 -272 -105q-106 -103 -106 -262t106 -262q107 -104 272 -104q203 0 334 174l72 -76q-148 -195 -406 -195q-213 0 -350 131t-137 332q0 199 137 330q139 133 350 133q261 0 406 -195l-74 -73q-132 172 -332 172z" />
    <glyph glyph-name="d" unicode="d" 
d="M885 735h33v520h104v-1255h-104v133h-33q-55 -78 -140.5 -120t-185.5 -42q-184 0 -311 133q-123 132 -123 330t123 330q127 133 311 133q100 0 185.5 -42t140.5 -120zM567 799q-145 0 -239 -105q-95 -103 -95 -260q0 -156 95 -262q94 -102 239 -102q117 0 207 64t144 185
v230q-54 122 -144 186t-207 64z" />
    <glyph glyph-name="e" unicode="e" 
d="M987 207l55 -74q-162 -162 -401 -162q-205 0 -342 131q-135 132 -135 332q0 198 135 330q136 133 336 133q203 0 326 -135q122 -134 122 -348h-782l-31 -25q15 -138 119 -231q104 -90 252 -90q207 0 346 139zM279 522l26 -20h629l24 35q-29 123 -114.5 193.5t-208.5 70.5
q-130 0 -228.5 -77t-127.5 -202z" />
    <glyph glyph-name="f" unicode="f" 
d="M874 1284q122 0 214 -52.5t143 -150.5l-84 -63q-38 82 -108.5 125t-164.5 43q-140 0 -226 -84.5t-93 -233.5h434v-92h-399l-35 -35v-741h-106v741l-35 35h-221v92h256q9 187 126 301q121 115 299 115z" />
    <glyph glyph-name="g" unicode="g" 
d="M918 49v111h-35q-54 -75 -140 -117.5t-186 -42.5q-186 0 -313 127q-125 128 -125 322q0 191 125 319q126 129 313 129q99 0 185.5 -42t140.5 -116h35v129h106v-823q0 -210 -133 -334q-131 -125 -350 -125q-142 0 -259.5 58.5t-177.5 158.5l74 72q54 -91 150.5 -142.5
t212.5 -51.5q178 0 277.5 96t99.5 272zM229 449q0 -149 95 -252q94 -99 241 -99q117 0 208 62.5t147 181.5v213q-56 119 -147 181.5t-208 62.5q-147 0 -241 -101q-95 -100 -95 -249z" />
    <glyph glyph-name="h" unicode="h" 
d="M696 799q-99 0 -187.5 -69t-150.5 -193v-537h-106v1255h106v-534h31q56 80 141.5 128t176.5 48q160 0 246.5 -93t86.5 -263v-541h-106v524q0 134 -60.5 204.5t-177.5 70.5z" />
    <glyph glyph-name="i" unicode="i" 
d="M754 1217q0 -50 -34 -83.5t-85 -33.5q-49 0 -83 34t-34 83q0 51 33.5 84.5t83.5 33.5q51 0 85 -33.5t34 -84.5zM219 868h496v-737l39 -39h340v-92h-875v92h359l38 39v606l-38 39h-359v92z" />
    <glyph glyph-name="j" unicode="j" 
d="M854 1100q-50 0 -83.5 34t-33.5 83q0 51 33.5 84.5t83.5 33.5q51 0 85 -33.5t34 -84.5q0 -50 -34 -83.5t-85 -33.5zM834 68v671l-39 37h-465v92h608v-817q0 -214 -108 -336.5t-295 -122.5q-129 0 -232.5 61.5t-146.5 164.5l88 61q95 -188 291 -188q146 0 222.5 96.5
t76.5 280.5z" />
    <glyph glyph-name="k" unicode="k" 
d="M664 471l450 -471h-135l-416 428l-207 -170v-258h-106v1255h106v-849h33l557 462h152l-434 -356v-41z" />
    <glyph glyph-name="l" unicode="l" 
d="M219 1255h496v-1124l39 -39h340v-92h-875v92h359l38 39v993l-38 39h-359v92z" />
    <glyph glyph-name="m" unicode="m" 
d="M1112 653v-653h-104v629q0 80 -31.5 124t-91.5 44q-58 0 -107 -49t-96 -156v-592h-102v629q0 80 -31.5 124t-91.5 44q-58 0 -107 -49t-96 -156v-592h-102v868h102v-96h29q78 125 196 125q139 0 189 -133h28q38 63 93.5 98t115.5 35q98 0 152.5 -63.5t54.5 -180.5z" />
    <glyph glyph-name="n" unicode="n" 
d="M696 799q-99 0 -187.5 -69t-150.5 -193v-537h-106v868h106v-147h31q56 80 141.5 128t176.5 48q160 0 246.5 -93t86.5 -263v-541h-106v524q0 134 -60.5 204.5t-177.5 70.5z" />
    <glyph glyph-name="o" unicode="o" 
d="M629 -29q-202 0 -336 131q-135 132 -135 332q0 198 135 330q136 133 336 133t336 -133q135 -132 135 -330q0 -200 -135 -332q-134 -131 -336 -131zM629 68q157 0 258 104q104 104 104 262t-104 262q-102 105 -258 105q-155 0 -260 -105q-103 -106 -103 -262t103 -262
q104 -104 260 -104z" />
    <glyph glyph-name="p" unicode="p" 
d="M373 133h-33v-518h-104v1253h104v-133h33q55 78 140 120t185 42q186 0 310 -133q125 -131 125 -330t-125 -330q-124 -133 -310 -133q-100 0 -185 42t-140 120zM690 70q146 0 240 102q94 104 94 262q0 159 -94 260q-94 105 -240 105q-117 0 -206.5 -64t-143.5 -186v-230
q54 -122 143.5 -185.5t206.5 -63.5z" />
    <glyph glyph-name="q" unicode="q" 
d="M1022 -385h-104v518h-33q-55 -78 -140.5 -120t-185.5 -42q-184 0 -311 133q-123 132 -123 330t123 330q127 133 311 133q100 0 185.5 -42t140.5 -120h33v133h104v-1253zM567 799q-145 0 -239 -105q-95 -103 -95 -260q0 -156 95 -262q94 -102 239 -102q117 0 207 64
t144 185v230q-54 122 -144 186t-207 64z" />
    <glyph glyph-name="r" unicode="r" 
d="M823 897q261 0 314 -303l-97 -35q-23 122 -79 180t-150 58q-88 0 -185 -71t-218 -224v-502h-107v868h107v-196h34q196 225 381 225z" />
    <glyph glyph-name="s" unicode="s" 
d="M932 231q0 54 -37.5 85.5t-124.5 48.5l-278 53q-147 29 -210 83t-63 148q0 110 103.5 179t267.5 69q132 0 243 -45t185 -131l-62 -86q-154 168 -368 168q-117 0 -190.5 -41.5t-73.5 -108.5q0 -55 41 -85.5t141 -49.5l297 -57q124 -26 178.5 -79t54.5 -146
q0 -118 -110 -191q-112 -74 -281 -74q-290 0 -473 174l66 93q87 -88 185 -130t222 -42q125 0 206 46t81 119z" />
    <glyph glyph-name="t" unicode="t" 
d="M346 399v338l-39 39h-217v92h256v312h109v-312h532v-92h-498l-36 -39v-321q0 -170 74.5 -258t217.5 -88q182 0 312 190l69 -72q-69 -105 -167.5 -161t-213.5 -56q-192 0 -295.5 110t-103.5 318z" />
    <glyph glyph-name="u" unicode="u" 
d="M561 70q99 0 187.5 69t150.5 193v536h107v-868h-107v147h-31q-56 -81 -141 -128.5t-176 -47.5q-160 0 -247 93.5t-87 263.5v540h107v-524q0 -134 60 -204t177 -70z" />
    <glyph glyph-name="v" unicode="v" 
d="M1014 868h119l-441 -868h-125l-440 868h121l362 -729h41z" />
    <glyph glyph-name="w" unicode="w" 
d="M938 0h-129l-166 557h-27l-167 -557h-130l-225 868h101l184 -714h29l165 565h113l166 -565h29l186 714h96z" />
    <glyph glyph-name="x" unicode="x" 
d="M696 438l420 -438h-141l-322 342h-51l-321 -342h-136l416 438l-411 430h139l315 -333h51l314 333h137z" />
    <glyph glyph-name="y" unicode="y" 
d="M297 -309q76 0 133 57q54 51 145 232l-448 888h121l362 -735h41l363 735h119l-467 -921q-106 -208 -185 -281q-80 -74 -184 -74q-85 0 -152 47t-96 128l92 55q29 -69 65.5 -100t90.5 -31z" />
    <glyph glyph-name="z" unicode="z" 
d="M1042 756l-710 -625v-35h741v-96h-905v113l706 624v35h-679v96h847v-112z" />
    <glyph glyph-name="braceleft" unicode="{" 
d="M532 379v-479q0 -90 86 -90h334v-95h-327q-82 0 -135.5 54.5t-53.5 138.5v469q0 44 -28.5 70t-75.5 26h-142v98h142q47 0 75.5 26.5t28.5 70.5v471q0 84 53.5 138t135.5 54h327v-94h-334q-86 0 -86 -90v-481q0 -74 -53 -121v-45q53 -47 53 -121z" />
    <glyph glyph-name="bar" unicode="|" 
d="M575 -268v1550h107v-1550h-107z" />
    <glyph glyph-name="braceright" unicode="}" 
d="M725 -100v479q0 74 53 121v45q-53 47 -53 121v481q0 90 -86 90h-334v94h328q82 0 135 -54t53 -138v-471q0 -44 29 -70.5t76 -26.5h141v-98h-141q-48 0 -76.5 -26t-28.5 -70v-469q0 -85 -53 -139t-135 -54h-328v95h334q86 0 86 90z" />
    <glyph glyph-name="asciitilde" unicode="~" 
d="M795 553q50 0 81 39.5t31 105.5h101q0 -111 -55.5 -178t-147.5 -67q-42 0 -85 17.5t-114 68.5q-59 39 -87.5 52t-53.5 13q-51 0 -83 -40t-32 -103h-100q0 110 56.5 177t148.5 67q38 0 80 -17.5t114 -66.5q59 -41 89.5 -54.5t56.5 -13.5z" />
    <glyph glyph-name="uni00A0" unicode="&#xa0;" 
 />
    <glyph glyph-name="exclamdown" unicode="&#xa1;" 
d="M543 -74l55 647h59l58 -647v-125h-172v125zM500 860q0 55 37.5 93t91.5 38t91.5 -38t37.5 -93q0 -54 -37.5 -91.5t-91.5 -37.5t-91.5 37.5t-37.5 91.5z" />
    <glyph glyph-name="cent" unicode="&#xa2;" 
d="M999 242l74 -76q-136 -183 -375 -195v-286h-94v290q-184 21 -305 148q-119 128 -119 311q0 184 119 309q120 129 305 150v303h94v-299q239 -12 375 -195l-74 -73q-108 144 -262 168l-39 -43v-637l41 -43q156 27 260 168zM289 434q0 -131 76.5 -228t203.5 -128l35 39v637
l-33 39q-128 -31 -205 -129.5t-77 -229.5z" />
    <glyph glyph-name="sterling" unicode="&#xa3;" 
d="M1073 209h101q0 -123 -66.5 -195.5t-179.5 -72.5q-49 0 -113 22q-49 17 -184 94q-121 69 -166 84q-53 21 -94 21q-66 0 -106 -45t-40 -117h-102q0 104 51.5 173.5t142.5 86.5v232l-34 40h-144v93h178v86q0 221 119 352q121 133 316 133q121 0 218 -58t140 -155l-94 -59
q-35 82 -105.5 128t-162.5 46q-149 0 -237.5 -104t-88.5 -283v-86h348v-93h-313l-35 -40v-234q36 -7 96 -31q44 -17 154 -84q106 -60 157 -82q49 -18 89 -18q72 0 113.5 45t41.5 121z" />
    <glyph glyph-name="yen" unicode="&#xa5;" 
d="M717 422h379v-84h-414v-338h-107v338h-411v84h379l32 37v110l-38 49h-373v84h309l-360 465h129l358 -465h59l357 465h127l-359 -465h312v-84h-377l-37 -49v-108z" />
    <glyph glyph-name="section" unicode="&#xa7;" 
d="M938 -33q12 -37 12 -88q0 -125 -95.5 -207t-244.5 -82q-133 0 -234 65t-151 181l88 55q51 -106 123.5 -156t175.5 -50q105 0 171.5 55t66.5 143q0 68 -41 109q-11 11 -96 76l-293 208q-134 92 -180 160q-41 65 -41 146q0 60 32 125t86 112q-14 35 -14 92q0 125 94.5 205
t243.5 80q133 0 235.5 -63.5t149.5 -174.5l-88 -55q-88 199 -299 199q-104 0 -170 -54.5t-66 -140.5q0 -67 43 -110l21 -21l78 -57l293 -207q133 -93 176 -162q43 -64 43 -145q0 -60 -32.5 -125.5t-86.5 -112.5zM449 379l294 -211q53 -38 123 -94h45q50 62 50 125
q0 56 -32 102t-120 107l-295 210q-70 48 -121 95h-47q-49 -61 -49 -125q0 -56 32 -102t120 -107z" />
    <glyph glyph-name="dieresis" unicode="&#xa8;" 
d="M950 1210q0 -47 -33.5 -79.5t-80.5 -32.5t-80 32.5t-33 79.5t33 80t80 33t80.5 -33t33.5 -80zM535 1210q0 -47 -32.5 -78.5t-80.5 -31.5q-47 0 -81 33t-34 77q0 47 34 81t81 34t80 -34t33 -81z" />
    <glyph glyph-name="copyright" unicode="&#xa9;" 
d="M1202 582q0 -236 -168 -404q-169 -166 -405 -166q-237 0 -406 166q-168 168 -168 404t168 401q168 168 406 168q237 0 405 -168q168 -165 168 -401zM629 82q206 0 356 147t150 353q0 204 -150 354q-149 149 -356 149q-206 0 -355 -149q-149 -146 -149 -354
q0 -206 147 -353q150 -147 357 -147zM637 823q-92 0 -146.5 -67t-54.5 -178t54.5 -178.5t146.5 -67.5q54 0 94.5 26t75.5 86l63 -47q-91 -139 -233 -139q-122 0 -203 90q-80 89 -80 230q0 140 80 229q81 90 203 90q149 0 233 -137l-63 -49q-63 112 -170 112z" />
    <glyph glyph-name="ordfeminine" unicode="&#xaa;" 
d="M342 1087l-47 78q129 117 315 117q117 0 178.5 -57.5t61.5 -167.5v-260q0 -39 16 -61.5t45 -22.5q42 0 93 51l45 -62q-66 -77 -152 -77q-48 0 -85.5 30.5t-47.5 79.5h-33q-113 -110 -252 -110q-92 0 -145 44t-53 122q0 72 55.5 118.5t177.5 75.5l244 59v17
q0 135 -154 135q-132 0 -262 -109zM489 707q127 0 269 139v94l-27 18l-188 -43q-90 -23 -127 -50t-37 -68q0 -43 29.5 -66.5t80.5 -23.5zM629 -23q-60 0 -102 42t-42 102t42 102.5t102 42.5t101.5 -42.5t41.5 -102.5t-41.5 -102t-101.5 -42z" />
    <glyph glyph-name="guillemotleft" unicode="&#xab;" 
d="M915 809l82 -66l-233 -288l233 -289l-82 -66l-286 355zM487 809l82 -66l-233 -288l233 -289l-82 -66l-286 355z" />
    <glyph glyph-name="registered" unicode="&#xae;" 
d="M629 12q-237 0 -406 166q-168 168 -168 404t168 401q168 168 406 168q237 0 405 -168q168 -165 168 -401t-168 -404q-169 -166 -405 -166zM1135 582q0 204 -150 354q-149 149 -356 149q-206 0 -355 -149q-149 -146 -149 -354q0 -206 147 -353q150 -147 357 -147
q206 0 356 147t150 353zM797 266l-162 256h-146v-256h-77v621h227q118 0 181 -47t63 -135q0 -140 -154 -175v-20l160 -244h-92zM801 702q0 111 -166 111h-121l-25 -22v-201h146q166 0 166 112z" />
    <glyph glyph-name="overscore" unicode="&#xaf;" 
d="M936 1200v-98h-614v98h614z" />
    <glyph glyph-name="degree" unicode="&#xb0;" 
d="M629 1286q118 0 202 -84t84 -207q0 -120 -84 -204t-202 -84q-119 0 -203 84t-84 204q0 121 84 205q83 86 203 86zM629 799q80 0 136 57t56 139t-56.5 140.5t-135.5 58.5t-136 -58.5t-57 -140.5t56.5 -139t136.5 -57z" />
    <glyph glyph-name="plusminus" unicode="&#xb1;" 
d="M1073 649h-360l-37 -41v-297h-94v297l-37 41h-361v94h398v336h94v-336h397v-94zM1075 182v-94h-893v94h893z" />
    <glyph glyph-name="twosuperior" unicode="&#xb2;" 
d="M627 1182q-138 0 -252 -164l-76 57q62 95 147 147t181 52q123 0 196.5 -66t73.5 -176q0 -80 -55 -147t-226 -158q-126 -69 -163 -106q-44 -40 -52 -78h533v-86h-633v51q3 77 57 143q60 70 215 156q139 77 179 123q41 47 41 102q0 67 -46 108.5t-120 41.5z" />
    <glyph glyph-name="threesuperior" unicode="&#xb3;" 
d="M899 674q0 -146 -154 -246q-154 -97 -397 -115l-18 86q223 19 349 92t126 185q0 63 -42 99t-116 36q-15 0 -47 -4q-3 0 -104 -27l-29 78q152 42 217.5 88.5t65.5 110.5q0 61 -39 94t-109 33q-68 0 -130.5 -37.5t-106.5 -104.5l-68 54q51 82 133.5 130t173.5 48
q110 0 175 -57.5t65 -155.5q0 -103 -107 -168v-23q77 -17 119.5 -68.5t42.5 -127.5z" />
    <glyph glyph-name="acute" unicode="&#xb4;" 
d="M809 1366l-295 -322l-45 27l174 338h166v-43z" />
    <glyph glyph-name="paragraph" unicode="&#xb6;" 
d="M514 -311q131 0 198.5 92t67.5 270v473q-211 0 -350 86q-135 88 -135 236t137 233q137 88 350 88h310v-94h-168l-45 -45v-991q0 -205 -97.5 -324t-267.5 -119q-115 0 -209.5 61.5t-142.5 164.5l86 59q90 -190 266 -190z" />
    <glyph glyph-name="middot" unicode="&#xb7;" 
d="M629 449q-57 0 -98.5 41t-41.5 98q0 59 41 100t99 41q57 0 98 -40.5t41 -100.5q0 -57 -41 -98t-98 -41z" />
    <glyph glyph-name="cedilla" unicode="&#xb8;" 
d="M762 -295q0 -80 -66 -130t-166 -50q-94 0 -167 44.5t-105 123.5l74 45q58 -135 198 -135q67 0 104.5 26.5t37.5 75.5q0 101 -189 98l-69 45l65 160h80l-51 -131q124 0 189 -44t65 -128z" />
    <glyph glyph-name="onesuperior" unicode="&#xb9;" 
d="M606 1141l-241 -166l-52 76l297 204h123v-798h-98v661z" />
    <glyph glyph-name="ordmasculine" unicode="&#xba;" 
d="M629 625q-146 0 -244 94q-96 96 -96 235q0 138 96 234q98 94 244 94q147 0 241 -94q99 -95 99 -234q0 -140 -99 -235q-94 -94 -241 -94zM629 713q105 0 173 68t68 173q0 104 -68.5 172t-172.5 68t-173 -68t-69 -172t68.5 -172.5t173.5 -68.5zM629 -23q-60 0 -102 42
t-42 102t42 102.5t102 42.5t101.5 -42.5t41.5 -102.5t-41.5 -102t-101.5 -42z" />
    <glyph glyph-name="guillemotright" unicode="&#xbb;" 
d="M260 743l82 66l287 -354l-287 -355l-82 66l234 289zM688 743l82 66l287 -354l-287 -355l-82 66l234 289z" />
    <glyph glyph-name="onequarter" unicode="&#xbc;" 
d="M375 1163l-178 -121l-45 68l225 154h106v-586h-86v467zM1057 977l76 -78l-428 -371l-29 31zM1079 12h144v-71h-119l-25 -23v-166h-82v166l-24 23h-289v98l281 399l71 -41l-250 -358v-27h211v150h82v-150zM197 -14l-76 77l428 371l29 -31z" />
    <glyph glyph-name="onehalf" unicode="&#xbd;" 
d="M375 1163l-178 -121l-45 68l225 154h106v-586h-86v467zM1057 977l76 -78l-428 -371l-29 31zM197 -14l-76 77l428 371l29 -31zM961 270q-104 0 -185 -118l-65 49q43 69 110 110t140 41q92 0 147 -49t55 -131q0 -63 -43 -111t-164 -112q-81 -42 -112 -68.5t-39 -54.5h379
v-74h-471v39q2 65 45 114.5t160 110.5q90 49 120.5 81t30.5 71q0 47 -29 74.5t-79 27.5z" />
    <glyph glyph-name="threequarters" unicode="&#xbe;" 
d="M539 838q0 -105 -113.5 -178t-294.5 -85l-16 74q157 12 247.5 63.5t90.5 127.5q0 41 -27.5 64.5t-75.5 23.5q-45 0 -119 -27l-26 66q118 37 163.5 69.5t45.5 75.5q0 86 -99 86q-48 0 -92 -26.5t-76 -75.5l-59 47q41 63 103 100t128 37q82 0 130.5 -44t48.5 -118t-72 -121
v-18q54 -14 83.5 -50.5t29.5 -90.5zM1057 977l76 -78l-428 -371l-29 31zM1079 12h144v-71h-119l-25 -23v-166h-82v166l-24 23h-289v98l281 399l71 -41l-250 -358v-27h211v150h82v-150zM197 -14l-76 77l428 371l29 -31z" />
    <glyph glyph-name="questiondown" unicode="&#xbf;" 
d="M332 90q0 -102 78.5 -163.5t207.5 -61.5q121 0 224.5 65.5t169.5 182.5l86 -54q-72 -134 -202 -213t-278 -79q-180 0 -288.5 88t-108.5 235q0 134 95 219.5t298 132.5v146h115v-211q-225 -49 -313 -115q-84 -66 -84 -172zM672 985q55 0 92 -37.5t37 -93.5t-36.5 -92.5
t-92.5 -36.5q-54 0 -91.5 37.5t-37.5 91.5q0 55 37.5 93t91.5 38z" />
    <glyph glyph-name="Agrave" unicode="&#xc0;" 
d="M696 1167l471 -1167h-116l-154 387h-539l-153 -387h-115l471 1167h135zM608 1018l-202 -510l26 -27h391l27 27l-201 510h-41zM326 1661h184l176 -338l-45 -27l-315 322v43z" />
    <glyph glyph-name="Aacute" unicode="&#xc1;" 
d="M696 1167l471 -1167h-116l-154 387h-539l-153 -387h-115l471 1167h135zM608 1018l-202 -510l26 -27h391l27 27l-201 510h-41zM940 1618l-315 -322l-45 27l176 338h184v-43z" />
    <glyph glyph-name="Acircumflex" unicode="&#xc2;" 
d="M696 1167l471 -1167h-116l-154 387h-539l-153 -387h-115l471 1167h135zM608 1018l-202 -510l26 -27h391l27 27l-201 510h-41zM387 1292l-49 31l205 338h172l205 -338l-48 -31l-223 254h-41z" />
    <glyph glyph-name="Atilde" unicode="&#xc3;" 
d="M696 1167l471 -1167h-116l-154 387h-539l-153 -387h-115l471 1167h135zM608 1018l-202 -510l26 -27h391l27 27l-201 510h-41zM776 1409q51 0 83 42t32 108h94q0 -109 -55.5 -177.5t-143.5 -68.5q-39 0 -78 18t-100 68q-49 41 -74.5 54t-50.5 13q-51 0 -84.5 -42
t-33.5 -105h-93q0 109 55.5 176.5t145.5 67.5q38 0 75.5 -17.5t96.5 -66.5q53 -42 79.5 -56t51.5 -14z" />
    <glyph glyph-name="Adieresis" unicode="&#xc4;" 
d="M696 1167l471 -1167h-116l-154 387h-539l-153 -387h-115l471 1167h135zM608 1018l-202 -510l26 -27h391l27 27l-201 510h-41zM535 1434q0 -47 -33 -80t-80 -33t-81 33t-34 80t33.5 79.5t81.5 32.5q47 0 80 -32.5t33 -79.5zM950 1432q0 -45 -33.5 -79t-80.5 -34t-80 34
t-33 79q0 49 31.5 80.5t81.5 31.5t82 -31.5t32 -80.5z" />
    <glyph glyph-name="Aring" unicode="&#xc5;" 
d="M696 1167l471 -1167h-116l-154 387h-539l-153 -387h-115l471 1167h135zM608 1018l-202 -510l26 -27h391l27 27l-201 510h-41zM629 1720q94 0 157.5 -63.5t63.5 -157.5t-63.5 -157.5t-157.5 -63.5t-157.5 63.5t-63.5 157.5t63.5 157.5t157.5 63.5zM629 1362q61 0 97 37.5
t36 99.5t-36 99.5t-97 37.5t-97 -37.5t-36 -99.5t36 -99.5t97 -37.5z" />
    <glyph glyph-name="AE" unicode="&#xc6;" 
d="M289 387l-164 -387h-113l496 1167h678v-100h-447v-410h357v-100h-357v-416l41 -41h426v-100h-573v387h-344zM578 1065l-236 -557l27 -27h264v584h-55z" />
    <glyph glyph-name="Ccedilla" unicode="&#xc7;" 
d="M893 -295q0 -81 -65.5 -130.5t-165.5 -49.5q-95 0 -168 44.5t-105 123.5l74 45q59 -135 199 -135q67 0 104 26.5t37 75.5q0 101 -189 98l-69 45l53 129q-196 34 -315 199q-119 168 -119 408q0 266 145 440q144 172 375 172q261 0 416 -248l-82 -69q-72 110 -152.5 161.5
t-183.5 51.5q-184 0 -299 -142q-111 -141 -111 -366q0 -226 111 -367q114 -141 299 -141q103 0 183.5 51.5t152.5 161.5l82 -70q-155 -248 -416 -248h-8l-37 -94q124 0 189 -44t65 -128z" />
    <glyph glyph-name="Egrave" unicode="&#xc8;" 
d="M961 557h-613v-416l41 -41h682v-100h-829v1167h809v-100h-662l-41 -41v-369h613v-100zM369 1661h184l176 -338l-45 -27l-315 322v43z" />
    <glyph glyph-name="Eacute" unicode="&#xc9;" 
d="M961 557h-613v-416l41 -41h682v-100h-829v1167h809v-100h-662l-41 -41v-369h613v-100zM942 1618l-315 -322l-45 27l176 338h184v-43z" />
    <glyph glyph-name="Ecircumflex" unicode="&#xca;" 
d="M961 557h-613v-416l41 -41h682v-100h-829v1167h809v-100h-662l-41 -41v-369h613v-100zM424 1292l-49 31l205 338h172l204 -338l-47 -31l-223 254h-41z" />
    <glyph glyph-name="Edieresis" unicode="&#xcb;" 
d="M961 557h-613v-416l41 -41h682v-100h-829v1167h809v-100h-662l-41 -41v-369h613v-100zM571 1434q0 -47 -32.5 -80t-79.5 -33t-81 33t-34 80t33.5 79.5t81.5 32.5q47 0 79.5 -32.5t32.5 -79.5zM987 1432q0 -45 -34 -79t-81 -34q-46 0 -79 34t-33 79q0 50 31 81t81 31
t82.5 -31.5t32.5 -80.5z" />
    <glyph glyph-name="Igrave" unicode="&#xcc;" 
d="M723 1069l-41 -41v-889l41 -41h319v-98h-825v98h318l43 41v889l-43 41h-318v98h825v-98h-319zM332 1661h184l176 -338l-45 -27l-315 322v43z" />
    <glyph glyph-name="Iacute" unicode="&#xcd;" 
d="M723 1069l-41 -41v-889l41 -41h319v-98h-825v98h318l43 41v889l-43 41h-318v98h825v-98h-319zM926 1618l-316 -322l-45 27l176 338h185v-43z" />
    <glyph glyph-name="Icircumflex" unicode="&#xce;" 
d="M723 1069l-41 -41v-889l41 -41h319v-98h-825v98h318l43 41v889l-43 41h-318v98h825v-98h-319zM387 1292l-49 31l205 338h172l205 -338l-48 -31l-223 254h-41z" />
    <glyph glyph-name="Idieresis" unicode="&#xcf;" 
d="M723 1069l-41 -41v-889l41 -41h319v-98h-825v98h318l43 41v889l-43 41h-318v98h825v-98h-319zM535 1434q0 -47 -33 -80t-80 -33t-81 33t-34 80t33.5 79.5t81.5 32.5q47 0 80 -32.5t33 -79.5zM950 1432q0 -45 -33.5 -79t-80.5 -34t-80 34t-33 79q0 49 31.5 80.5t81.5 31.5
t82 -31.5t32 -80.5z" />
    <glyph glyph-name="Eth" unicode="&#xd0;" 
d="M1118 584q0 -268 -168 -426q-169 -158 -456 -158h-293v565h-125v97h125v505h293q290 0 456 -159q168 -155 168 -424zM649 662v-97h-303l-39 -39v-389l43 -41h144q241 0 377.5 130.5t136.5 357.5q0 226 -136.5 356.5t-377.5 130.5h-144l-43 -41v-330l39 -38h303z" />
    <glyph glyph-name="Ntilde" unicode="&#xd1;" 
d="M969 1167h102v-1167h-127l-618 1008h-37v-1008h-103v1167h158l586 -956h39v956zM784 1409q51 0 83 42t32 108h94q0 -109 -55 -177.5t-143 -68.5q-40 0 -79 18t-100 68q-49 41 -74 54t-50 13q-51 0 -85 -42t-34 -105h-92q0 109 55 176.5t145 67.5q38 0 75.5 -17.5
t96.5 -66.5q53 -42 79.5 -56t51.5 -14z" />
    <glyph glyph-name="Ograve" unicode="&#xd2;" 
d="M629 1196q222 0 360 -172q139 -174 139 -440q0 -267 -139 -441q-138 -172 -360 -172q-223 0 -361 172q-139 174 -139 441q0 266 139 440q138 172 361 172zM629 74q177 0 282 141q107 140 107 369q0 228 -107 368q-106 142 -282 142q-174 0 -283 -142q-106 -138 -106 -368
q0 -231 106 -369q108 -141 283 -141zM332 1661h184l176 -338l-45 -27l-315 322v43z" />
    <glyph glyph-name="Oacute" unicode="&#xd3;" 
d="M629 1196q222 0 360 -172q139 -174 139 -440q0 -267 -139 -441q-138 -172 -360 -172q-223 0 -361 172q-139 174 -139 441q0 266 139 440q138 172 361 172zM629 74q177 0 282 141q107 140 107 369q0 228 -107 368q-106 142 -282 142q-174 0 -283 -142q-106 -138 -106 -368
q0 -231 106 -369q108 -141 283 -141zM928 1618l-316 -322l-45 27l176 338h185v-43z" />
    <glyph glyph-name="Ocircumflex" unicode="&#xd4;" 
d="M629 1196q222 0 360 -172q139 -174 139 -440q0 -267 -139 -441q-138 -172 -360 -172q-223 0 -361 172q-139 174 -139 441q0 266 139 440q138 172 361 172zM629 74q177 0 282 141q107 140 107 369q0 228 -107 368q-106 142 -282 142q-174 0 -283 -142q-106 -138 -106 -368
q0 -231 106 -369q108 -141 283 -141zM387 1292l-49 31l205 338h172l205 -338l-48 -31l-223 254h-41z" />
    <glyph glyph-name="Otilde" unicode="&#xd5;" 
d="M629 1196q222 0 360 -172q139 -174 139 -440q0 -267 -139 -441q-138 -172 -360 -172q-223 0 -361 172q-139 174 -139 441q0 266 139 440q138 172 361 172zM629 74q177 0 282 141q107 140 107 369q0 228 -107 368q-106 142 -282 142q-174 0 -283 -142q-106 -138 -106 -368
q0 -231 106 -369q108 -141 283 -141zM776 1409q51 0 83 42t32 108h94q0 -109 -55.5 -177.5t-143.5 -68.5q-39 0 -78 18t-100 68q-49 41 -74.5 54t-50.5 13q-51 0 -84.5 -42t-33.5 -105h-93q0 109 55.5 176.5t145.5 67.5q38 0 75.5 -17.5t96.5 -66.5q53 -42 79.5 -56
t51.5 -14z" />
    <glyph glyph-name="Odieresis" unicode="&#xd6;" 
d="M629 1196q222 0 360 -172q139 -174 139 -440q0 -267 -139 -441q-138 -172 -360 -172q-223 0 -361 172q-139 174 -139 441q0 266 139 440q138 172 361 172zM629 74q177 0 282 141q107 140 107 369q0 228 -107 368q-106 142 -282 142q-174 0 -283 -142q-106 -138 -106 -368
q0 -231 106 -369q108 -141 283 -141zM535 1434q0 -47 -33 -80t-80 -33t-81 33t-34 80t33.5 79.5t81.5 32.5q47 0 80 -32.5t33 -79.5zM950 1432q0 -45 -33.5 -79t-80.5 -34t-80 34t-33 79q0 49 31.5 80.5t81.5 31.5t82 -31.5t32 -80.5z" />
    <glyph glyph-name="multiply" unicode="&#xd7;" 
d="M600 463l-287 -293l-67 66l319 319l-319 319l67 66l287 -293h57l287 293l68 -66l-320 -319l320 -319l-68 -66l-287 293h-57z" />
    <glyph glyph-name="Oslash" unicode="&#xd8;" 
d="M1128 584q0 -267 -139 -441q-138 -172 -360 -172q-164 0 -289 101l-131 -183l-74 52l139 194q-69 85 -107 202t-38 247q0 266 139 440q138 172 361 172q180 0 317 -125l119 166l74 -51l-133 -185q122 -166 122 -417zM629 1100q-179 0 -287 -144q-106 -141 -106 -372
q0 -227 100 -363l524 729v66q-96 84 -231 84zM944 913l-518 -723v-61q85 -61 203 -61q177 0 284 143q109 145 109 373q0 191 -78 329z" />
    <glyph glyph-name="Ugrave" unicode="&#xd9;" 
d="M629 74q154 0 247 97t93 261v735h108v-749q0 -202 -125 -324q-126 -123 -323 -123q-198 0 -324 123q-125 122 -125 324v749h109v-735q0 -164 93 -261t247 -97zM332 1661h184l176 -338l-45 -27l-315 322v43z" />
    <glyph glyph-name="Uacute" unicode="&#xda;" 
d="M629 74q154 0 247 97t93 261v735h108v-749q0 -202 -125 -324q-126 -123 -323 -123q-198 0 -324 123q-125 122 -125 324v749h109v-735q0 -164 93 -261t247 -97zM928 1618l-316 -322l-45 27l176 338h185v-43z" />
    <glyph glyph-name="Ucircumflex" unicode="&#xdb;" 
d="M629 74q154 0 247 97t93 261v735h108v-749q0 -202 -125 -324q-126 -123 -323 -123q-198 0 -324 123q-125 122 -125 324v749h109v-735q0 -164 93 -261t247 -97zM387 1292l-49 31l205 338h172l205 -338l-48 -31l-223 254h-41z" />
    <glyph glyph-name="Udieresis" unicode="&#xdc;" 
d="M629 74q154 0 247 97t93 261v735h108v-749q0 -202 -125 -324q-126 -123 -323 -123q-198 0 -324 123q-125 122 -125 324v749h109v-735q0 -164 93 -261t247 -97zM535 1434q0 -47 -33 -80t-80 -33t-81 33t-34 80t33.5 79.5t81.5 32.5q47 0 80 -32.5t33 -79.5zM950 1432
q0 -45 -33.5 -79t-80.5 -34t-80 34t-33 79q0 49 31.5 80.5t81.5 31.5t82 -31.5t32 -80.5z" />
    <glyph glyph-name="Yacute" unicode="&#xdd;" 
d="M1014 1167h129l-461 -655v-512h-107v512l-462 655h131l356 -505h59zM928 1618l-316 -322l-45 27l176 338h185v-43z" />
    <glyph glyph-name="Thorn" unicode="&#xde;" 
d="M1100 594q0 -166 -115.5 -251t-341.5 -85h-311v-258h-107v1167h107v-237h311q223 0 340 -86t117 -250zM373 831l-41 -40v-435h307q352 0 352 238q0 237 -352 237h-266z" />
    <glyph glyph-name="germandbls" unicode="&#xdf;" 
d="M317 0h-106v813q0 205 121 338q124 133 313 133q149 0 244.5 -82t95.5 -211q0 -87 -47 -155.5t-129 -100.5v-26q162 -26 255 -122.5t93 -238.5q0 -164 -106 -270q-104 -107 -267 -107q-97 0 -181.5 44.5t-127.5 117.5l74 70q35 -67 97.5 -104.5t137.5 -37.5
q121 0 195 78.5t74 206.5q0 151 -122.5 231t-346.5 80v99q138 0 217.5 60.5t79.5 168.5q0 90 -66.5 147.5t-169.5 57.5q-146 0 -237 -107q-91 -108 -91 -270v-813z" />
    <glyph glyph-name="agrave" unicode="&#xe0;" 
d="M231 651l-55 86q86 78 195 119t227 41q160 0 243 -81t83 -236v-369q0 -66 27.5 -104.5t74.5 -38.5q72 0 135 75l53 -67q-91 -105 -200 -105q-70 0 -122.5 46.5t-62.5 119.5h-38q-161 -166 -361 -166q-127 0 -201.5 63t-74.5 169q0 103 82 168.5t270 107.5l315 74v29
q0 112 -56 165.5t-173 53.5q-95 0 -181.5 -35.5t-179.5 -114.5zM438 63q99 0 190 49t193 158v162l-35 25l-254 -60q-152 -36 -211 -78.5t-59 -109.5t48.5 -106.5t127.5 -39.5zM328 1409h166l174 -338l-45 -27l-295 322v43z" />
    <glyph glyph-name="aacute" unicode="&#xe1;" 
d="M231 651l-55 86q86 78 195 119t227 41q160 0 243 -81t83 -236v-369q0 -66 27.5 -104.5t74.5 -38.5q72 0 135 75l53 -67q-91 -105 -200 -105q-70 0 -122.5 46.5t-62.5 119.5h-38q-161 -166 -361 -166q-127 0 -201.5 63t-74.5 169q0 103 82 168.5t270 107.5l315 74v29
q0 112 -56 165.5t-173 53.5q-95 0 -181.5 -35.5t-179.5 -114.5zM438 63q99 0 190 49t193 158v162l-35 25l-254 -60q-152 -36 -211 -78.5t-59 -109.5t48.5 -106.5t127.5 -39.5zM860 1366l-295 -322l-45 27l174 338h166v-43z" />
    <glyph glyph-name="acircumflex" unicode="&#xe2;" 
d="M231 651l-55 86q86 78 195 119t227 41q160 0 243 -81t83 -236v-369q0 -66 27.5 -104.5t74.5 -38.5q72 0 135 75l53 -67q-91 -105 -200 -105q-70 0 -122.5 46.5t-62.5 119.5h-38q-161 -166 -361 -166q-127 0 -201.5 63t-74.5 169q0 103 82 168.5t270 107.5l315 74v29
q0 112 -56 165.5t-173 53.5q-95 0 -181.5 -35.5t-179.5 -114.5zM438 63q99 0 190 49t193 158v162l-35 25l-254 -60q-152 -36 -211 -78.5t-59 -109.5t48.5 -106.5t127.5 -39.5zM358 1047l-49 32l207 330h168l207 -330l-47 -32l-223 253h-41z" />
    <glyph glyph-name="atilde" unicode="&#xe3;" 
d="M231 651l-55 86q86 78 195 119t227 41q160 0 243 -81t83 -236v-369q0 -66 27.5 -104.5t74.5 -38.5q72 0 135 75l53 -67q-91 -105 -200 -105q-70 0 -122.5 46.5t-62.5 119.5h-38q-161 -166 -361 -166q-127 0 -201.5 63t-74.5 169q0 103 82 168.5t270 107.5l315 74v29
q0 112 -56 165.5t-173 53.5q-95 0 -181.5 -35.5t-179.5 -114.5zM438 63q99 0 190 49t193 158v162l-35 25l-254 -60q-152 -36 -211 -78.5t-59 -109.5t48.5 -106.5t127.5 -39.5zM743 1165q51 0 83 42t32 108h94q0 -109 -55 -177.5t-143 -68.5q-40 0 -79 18t-100 68
q-49 41 -74.5 54.5t-49.5 13.5q-51 0 -85 -42.5t-34 -105.5h-92q0 109 55 176.5t145 67.5q38 0 75.5 -17.5t96.5 -66.5q53 -42 79.5 -56t51.5 -14z" />
    <glyph glyph-name="adieresis" unicode="&#xe4;" 
d="M231 651l-55 86q86 78 195 119t227 41q160 0 243 -81t83 -236v-369q0 -66 27.5 -104.5t74.5 -38.5q72 0 135 75l53 -67q-91 -105 -200 -105q-70 0 -122.5 46.5t-62.5 119.5h-38q-161 -166 -361 -166q-127 0 -201.5 63t-74.5 169q0 103 82 168.5t270 107.5l315 74v29
q0 112 -56 165.5t-173 53.5q-95 0 -181.5 -35.5t-179.5 -114.5zM438 63q99 0 190 49t193 158v162l-35 25l-254 -60q-152 -36 -211 -78.5t-59 -109.5t48.5 -106.5t127.5 -39.5zM922 1210q0 -47 -33.5 -79.5t-81.5 -32.5q-47 0 -80 32.5t-33 79.5t33 80t80 33t81 -33t34 -80z
M506 1210q0 -47 -32.5 -78.5t-80.5 -31.5q-47 0 -80.5 32.5t-33.5 77.5q0 47 33.5 81t80.5 34t80 -34t33 -81z" />
    <glyph glyph-name="aring" unicode="&#xe5;" 
d="M231 651l-55 86q86 78 195 119t227 41q160 0 243 -81t83 -236v-369q0 -66 27.5 -104.5t74.5 -38.5q72 0 135 75l53 -67q-91 -105 -200 -105q-70 0 -122.5 46.5t-62.5 119.5h-38q-161 -166 -361 -166q-127 0 -201.5 63t-74.5 169q0 103 82 168.5t270 107.5l315 74v29
q0 112 -56 165.5t-173 53.5q-95 0 -181.5 -35.5t-179.5 -114.5zM438 63q99 0 190 49t193 158v162l-35 25l-254 -60q-152 -36 -211 -78.5t-59 -109.5t48.5 -106.5t127.5 -39.5zM594 1468q94 0 157.5 -63.5t63.5 -157.5t-63.5 -157.5t-157.5 -63.5t-157.5 63.5t-63.5 157.5
t63.5 157.5t157.5 63.5zM594 1110q61 0 97 37.5t36 99.5t-36 99.5t-97 37.5t-97 -37.5t-36 -99.5t36 -99.5t97 -37.5z" />
    <glyph glyph-name="ae" unicode="&#xe6;" 
d="M1135 199l59 -68q-123 -160 -299 -160q-141 0 -242 119h-35q-132 -119 -286 -119q-125 0 -201 67t-76 179q0 133 125 208t348 75h19q9 102 49 186q-48 117 -188 117q-67 0 -137 -37t-126 -100l-53 73q57 73 142 115.5t176 42.5q147 0 225 -96h37q87 96 211 96
q145 0 231 -135q88 -131 88 -350h-565q6 -147 78 -248q72 -96 180 -96q69 0 126 31t114 100zM883 801q-96 0 -162 -82.5t-80 -218.5h424l25 32q-11 125 -66 197t-141 72zM158 219q0 -67 51.5 -111.5t126.5 -44.5q138 0 264 111q-48 95 -57 238h-17q-179 0 -273.5 -49.5
t-94.5 -143.5z" />
    <glyph glyph-name="ccedilla" unicode="&#xe7;" 
d="M881 -295q0 -80 -66 -130t-166 -50q-94 0 -167 44.5t-105 123.5l74 45q59 -135 198 -135q67 0 104.5 26.5t37.5 75.5q0 101 -189 98l-70 45l54 127q-181 21 -301 150q-115 130 -115 309q0 199 137 330q139 133 350 133q261 0 406 -195l-74 -73q-132 172 -332 172
q-164 0 -272 -105q-106 -103 -106 -262t106 -262q107 -104 272 -104q203 0 334 174l72 -76q-72 -94 -174.5 -144.5t-224.5 -50.5l-37 -94q124 0 189 -44t65 -128z" />
    <glyph glyph-name="egrave" unicode="&#xe8;" 
d="M987 207l55 -74q-162 -162 -401 -162q-205 0 -342 131q-135 132 -135 332q0 198 135 330q136 133 336 133q203 0 326 -135q122 -134 122 -348h-782l-31 -25q15 -138 119 -231q104 -90 252 -90q207 0 346 139zM279 522l26 -20h629l24 35q-29 123 -114.5 193.5t-208.5 70.5
q-130 0 -228.5 -77t-127.5 -202zM371 1409h166l174 -338l-45 -27l-295 322v43z" />
    <glyph glyph-name="eacute" unicode="&#xe9;" 
d="M987 207l55 -74q-162 -162 -401 -162q-205 0 -342 131q-135 132 -135 332q0 198 135 330q136 133 336 133q203 0 326 -135q122 -134 122 -348h-782l-31 -25q15 -138 119 -231q104 -90 252 -90q207 0 346 139zM279 522l26 -20h629l24 35q-29 123 -114.5 193.5t-208.5 70.5
q-130 0 -228.5 -77t-127.5 -202zM907 1366l-295 -322l-45 27l174 338h166v-43z" />
    <glyph glyph-name="ecircumflex" unicode="&#xea;" 
d="M987 207l55 -74q-162 -162 -401 -162q-205 0 -342 131q-135 132 -135 332q0 198 135 330q136 133 336 133q203 0 326 -135q122 -134 122 -348h-782l-31 -25q15 -138 119 -231q104 -90 252 -90q207 0 346 139zM279 522l26 -20h629l24 35q-29 123 -114.5 193.5t-208.5 70.5
q-130 0 -228.5 -77t-127.5 -202zM397 1047l-49 32l207 330h168l207 -330l-47 -32l-224 253h-41z" />
    <glyph glyph-name="edieresis" unicode="&#xeb;" 
d="M987 207l55 -74q-162 -162 -401 -162q-205 0 -342 131q-135 132 -135 332q0 198 135 330q136 133 336 133q203 0 326 -135q122 -134 122 -348h-782l-31 -25q15 -138 119 -231q104 -90 252 -90q207 0 346 139zM279 522l26 -20h629l24 35q-29 123 -114.5 193.5t-208.5 70.5
q-130 0 -228.5 -77t-127.5 -202zM961 1210q0 -47 -33.5 -79.5t-81.5 -32.5q-47 0 -80 32.5t-33 79.5t33 80t80 33t81 -33t34 -80zM545 1210q0 -47 -32.5 -78.5t-80.5 -31.5q-47 0 -81 33t-34 77q0 47 34 81t81 34t80 -34t33 -81z" />
    <glyph glyph-name="igrave" unicode="&#xec;" 
d="M219 868h496v-737l39 -39h340v-92h-875v92h359l38 39v606l-38 39h-359v92zM377 1409h166l174 -338l-45 -27l-295 322v43z" />
    <glyph glyph-name="iacute" unicode="&#xed;" 
d="M219 868h496v-737l39 -39h340v-92h-875v92h359l38 39v606l-38 39h-359v92zM911 1366l-295 -322l-45 27l174 338h166v-43z" />
    <glyph glyph-name="icircumflex" unicode="&#xee;" 
d="M219 868h496v-737l39 -39h340v-92h-875v92h359l38 39v606l-38 39h-359v92zM401 1047l-49 32l207 330h168l207 -330l-47 -32l-223 253h-41z" />
    <glyph glyph-name="idieresis" unicode="&#xef;" 
d="M219 868h496v-737l39 -39h340v-92h-875v92h359l38 39v606l-38 39h-359v92zM965 1210q0 -47 -33.5 -79.5t-81.5 -32.5q-47 0 -80 32.5t-33 79.5t33 80t80 33t81 -33t34 -80zM549 1210q0 -47 -32.5 -78.5t-80.5 -31.5q-47 0 -80.5 32.5t-33.5 77.5q0 47 33.5 81t80.5 34
t80 -34t33 -81z" />
    <glyph glyph-name="eth" unicode="&#xf0;" 
d="M1100 430q0 -200 -133 -330q-132 -129 -338 -129q-204 0 -338 125q-135 126 -135 314q0 185 135 311q136 127 338 127q78 0 152.5 -28t125.5 -75l23 25q-99 184 -273 297l-243 -117l-33 66l160 78v34q-92 45 -222 70l21 82q182 -25 346 -119l232 113l34 -68l-192 -92
q165 -117 252.5 -293t87.5 -391zM629 70q156 0 260 96q102 99 102 244q0 146 -102 241q-102 99 -260 99t-260 -99q-103 -95 -103 -241q0 -144 103 -244q104 -96 260 -96z" />
    <glyph glyph-name="ntilde" unicode="&#xf1;" 
d="M696 799q-99 0 -187.5 -69t-150.5 -193v-537h-106v868h106v-147h31q56 80 141.5 128t176.5 48q160 0 246.5 -93t86.5 -263v-541h-106v524q0 134 -60.5 204.5t-177.5 70.5zM795 1165q51 0 82.5 42t31.5 108h95q0 -109 -55.5 -177.5t-143.5 -68.5q-39 0 -78 18t-100 68
q-49 41 -75 54.5t-50 13.5q-51 0 -85 -42.5t-34 -105.5h-92q0 109 55.5 176.5t145.5 67.5q38 0 75.5 -17.5t96.5 -66.5q53 -42 79.5 -56t51.5 -14z" />
    <glyph glyph-name="ograve" unicode="&#xf2;" 
d="M629 -29q-202 0 -336 131q-135 132 -135 332q0 198 135 330q136 133 336 133t336 -133q135 -132 135 -330q0 -200 -135 -332q-134 -131 -336 -131zM629 68q157 0 258 104q104 104 104 262t-104 262q-102 105 -258 105q-155 0 -260 -105q-103 -106 -103 -262t103 -262
q104 -104 260 -104zM360 1409h166l174 -338l-45 -27l-295 322v43z" />
    <glyph glyph-name="oacute" unicode="&#xf3;" 
d="M629 -29q-202 0 -336 131q-135 132 -135 332q0 198 135 330q136 133 336 133t336 -133q135 -132 135 -330q0 -200 -135 -332q-134 -131 -336 -131zM629 68q157 0 258 104q104 104 104 262t-104 262q-102 105 -258 105q-155 0 -260 -105q-103 -106 -103 -262t103 -262
q104 -104 260 -104zM897 1366l-295 -322l-45 27l174 338h166v-43z" />
    <glyph glyph-name="ocircumflex" unicode="&#xf4;" 
d="M629 -29q-202 0 -336 131q-135 132 -135 332q0 198 135 330q136 133 336 133t336 -133q135 -132 135 -330q0 -200 -135 -332q-134 -131 -336 -131zM629 68q157 0 258 104q104 104 104 262t-104 262q-102 105 -258 105q-155 0 -260 -105q-103 -106 -103 -262t103 -262
q104 -104 260 -104zM387 1047l-49 32l207 330h168l207 -330l-48 -32l-223 253h-41z" />
    <glyph glyph-name="otilde" unicode="&#xf5;" 
d="M629 -29q-202 0 -336 131q-135 132 -135 332q0 198 135 330q136 133 336 133t336 -133q135 -132 135 -330q0 -200 -135 -332q-134 -131 -336 -131zM629 68q157 0 258 104q104 104 104 262t-104 262q-102 105 -258 105q-155 0 -260 -105q-103 -106 -103 -262t103 -262
q104 -104 260 -104zM793 1165q51 0 82.5 42t31.5 108h94q0 -109 -55 -177.5t-143 -68.5q-39 0 -78 18t-100 68q-49 41 -75 54.5t-50 13.5q-51 0 -85 -42.5t-34 -105.5h-92q0 109 55 176.5t145 67.5q39 0 76.5 -17.5t96.5 -66.5q53 -42 79.5 -56t51.5 -14z" />
    <glyph glyph-name="odieresis" unicode="&#xf6;" 
d="M629 -29q-202 0 -336 131q-135 132 -135 332q0 198 135 330q136 133 336 133t336 -133q135 -132 135 -330q0 -200 -135 -332q-134 -131 -336 -131zM629 68q157 0 258 104q104 104 104 262t-104 262q-102 105 -258 105q-155 0 -260 -105q-103 -106 -103 -262t103 -262
q104 -104 260 -104zM950 1210q0 -47 -33.5 -79.5t-80.5 -32.5t-80 32.5t-33 79.5t33 80t80 33t80.5 -33t33.5 -80zM535 1210q0 -47 -32.5 -78.5t-80.5 -31.5q-47 0 -81 33t-34 77q0 47 34 81t81 34t80 -34t33 -81z" />
    <glyph glyph-name="divide" unicode="&#xf7;" 
d="M629 831q-38 0 -65 28t-27 69q0 38 27 66t65 28t66 -28t28 -66q0 -41 -27.5 -69t-66.5 -28zM1079 600v-94h-899v94h899zM629 86q-37 0 -64.5 27.5t-27.5 64.5q0 41 26.5 68.5t65.5 27.5q41 0 67.5 -27.5t26.5 -68.5q0 -37 -28 -64.5t-66 -27.5z" />
    <glyph glyph-name="oslash" unicode="&#xf8;" 
d="M1100 434q0 -200 -135 -332q-134 -131 -336 -131q-130 0 -246 64l-135 -172l-70 55l131 170q-151 136 -151 346q0 198 135 330q136 133 336 133q144 0 260 -72l123 158l69 -55l-123 -158q68 -63 105 -150.5t37 -185.5zM629 803q-156 0 -260 -107q-105 -105 -105 -262
t109 -266l430 551v43q-77 41 -174 41zM895 690l-428 -549v-41q72 -34 162 -34q156 0 260 104q104 107 104 264q0 150 -98 256z" />
    <glyph glyph-name="ugrave" unicode="&#xf9;" 
d="M561 70q99 0 187.5 69t150.5 193v536h107v-868h-107v147h-31q-56 -81 -141 -128.5t-176 -47.5q-160 0 -247 93.5t-87 263.5v540h107v-524q0 -134 60 -204t177 -70zM350 1409h166l174 -338l-45 -27l-295 322v43z" />
    <glyph glyph-name="uacute" unicode="&#xfa;" 
d="M561 70q99 0 187.5 69t150.5 193v536h107v-868h-107v147h-31q-56 -81 -141 -128.5t-176 -47.5q-160 0 -247 93.5t-87 263.5v540h107v-524q0 -134 60 -204t177 -70zM864 1366l-295 -322l-45 27l174 338h166v-43z" />
    <glyph glyph-name="ucircumflex" unicode="&#xfb;" 
d="M561 70q99 0 187.5 69t150.5 193v536h107v-868h-107v147h-31q-56 -81 -141 -128.5t-176 -47.5q-160 0 -247 93.5t-87 263.5v540h107v-524q0 -134 60 -204t177 -70zM375 1047l-49 32l206 330h168l207 -330l-47 -32l-223 253h-41z" />
    <glyph glyph-name="udieresis" unicode="&#xfc;" 
d="M561 70q99 0 187.5 69t150.5 193v536h107v-868h-107v147h-31q-56 -81 -141 -128.5t-176 -47.5q-160 0 -247 93.5t-87 263.5v540h107v-524q0 -134 60 -204t177 -70zM938 1210q0 -47 -33.5 -79.5t-81.5 -32.5q-47 0 -79.5 32.5t-32.5 79.5t32.5 80t79.5 33t81 -33t34 -80z
M522 1210q0 -47 -32.5 -78.5t-79.5 -31.5t-81 33t-34 77q0 47 34 81t81 34t79.5 -33.5t32.5 -81.5z" />
    <glyph glyph-name="yacute" unicode="&#xfd;" 
d="M297 -309q76 0 133 57q54 51 145 232l-448 888h121l362 -735h41l363 735h119l-467 -921q-106 -208 -185 -281q-80 -74 -184 -74q-85 0 -152 47t-96 128l92 55q29 -69 65.5 -100t90.5 -31zM920 1366l-295 -322l-45 27l174 338h166v-43z" />
    <glyph glyph-name="thorn" unicode="&#xfe;" 
d="M373 133h-33v-518h-104v1640h104v-520h33q55 78 140 120t185 42q186 0 310 -133q125 -131 125 -330t-125 -330q-124 -133 -310 -133q-100 0 -185 42t-140 120zM690 70q146 0 240 102q94 104 94 262q0 159 -94 260q-94 105 -240 105q-117 0 -206.5 -64t-143.5 -186v-230
q54 -122 143.5 -185.5t206.5 -63.5z" />
    <glyph glyph-name="ydieresis" unicode="&#xff;" 
d="M297 -309q76 0 133 57q54 51 145 232l-448 888h121l362 -735h41l363 735h119l-467 -921q-106 -208 -185 -281q-80 -74 -184 -74q-85 0 -152 47t-96 128l92 55q29 -69 65.5 -100t90.5 -31zM973 1210q0 -47 -33.5 -79.5t-81.5 -32.5q-47 0 -80 32.5t-33 79.5t33 80t80 33
t81 -33t34 -80zM557 1210q0 -47 -32.5 -78.5t-80.5 -31.5q-47 0 -80.5 32.5t-33.5 77.5q0 47 33.5 81t80.5 34t80 -34t33 -81z" />
    <glyph glyph-name="Amacron" unicode="&#x100;" 
d="M696 1167l471 -1167h-116l-154 387h-539l-153 -387h-115l471 1167h135zM608 1018l-202 -510l26 -27h391l27 27l-201 510h-41zM936 1452v-98h-614v98h614z" />
    <glyph glyph-name="amacron" unicode="&#x101;" 
d="M231 651l-55 86q86 78 195 119t227 41q160 0 243 -81t83 -236v-369q0 -66 27.5 -104.5t74.5 -38.5q72 0 135 75l53 -67q-91 -105 -200 -105q-70 0 -122.5 46.5t-62.5 119.5h-38q-161 -166 -361 -166q-127 0 -201.5 63t-74.5 169q0 103 82 168.5t270 107.5l315 74v29
q0 112 -56 165.5t-173 53.5q-95 0 -181.5 -35.5t-179.5 -114.5zM438 63q99 0 190 49t193 158v162l-35 25l-254 -60q-152 -36 -211 -78.5t-59 -109.5t48.5 -106.5t127.5 -39.5zM901 1200v-98h-614v98h614z" />
    <glyph glyph-name="Abreve" unicode="&#x102;" 
d="M696 1167l471 -1167h-116l-154 387h-539l-153 -387h-115l471 1167h135zM608 1018l-202 -510l26 -27h391l27 27l-201 510h-41zM309 1604l76 18q23 -110 86.5 -169.5t157.5 -59.5t157 59.5t86 169.5l76 -18q-25 -153 -107.5 -235.5t-211.5 -82.5t-212 83t-108 235z" />
    <glyph glyph-name="abreve" unicode="&#x103;" 
d="M231 651l-55 86q86 78 195 119t227 41q160 0 243 -81t83 -236v-369q0 -66 27.5 -104.5t74.5 -38.5q72 0 135 75l53 -67q-91 -105 -200 -105q-70 0 -122.5 46.5t-62.5 119.5h-38q-161 -166 -361 -166q-127 0 -201.5 63t-74.5 169q0 103 82 168.5t270 107.5l315 74v29
q0 112 -56 165.5t-173 53.5q-95 0 -181.5 -35.5t-179.5 -114.5zM438 63q99 0 190 49t193 158v162l-35 25l-254 -60q-152 -36 -211 -78.5t-59 -109.5t48.5 -106.5t127.5 -39.5zM281 1360l75 18q23 -109 87 -169t157 -60t157 60t87 169l76 -18q-25 -152 -108 -235t-212 -83
t-211.5 82.5t-107.5 235.5z" />
    <glyph glyph-name="Aogonek" unicode="&#x104;" 
d="M1098 -285l49 -69q-114 -117 -236 -117q-78 0 -123 42t-45 114q0 64 54 143q58 80 227 240l-127 319h-539l-153 -387h-115l471 1167h135l471 -1167h-96q-145 -139 -190 -201q-41 -59 -41 -102q0 -38 22 -60t60 -22q39 0 86 26t90 74zM608 1018l-202 -510l26 -27h391
l27 27l-201 510h-41z" />
    <glyph glyph-name="aogonek" unicode="&#x105;" 
d="M971 -471q-78 0 -123 42t-45 114q0 55 37 116q43 67 155 179q-67 4 -112.5 47.5t-53.5 109.5h-38q-161 -166 -361 -166q-127 0 -201.5 63t-74.5 169q0 103 82 168.5t270 107.5l315 74v29q0 112 -56 165.5t-173 53.5q-95 0 -181.5 -35.5t-179.5 -114.5l-55 86
q86 78 195 119t227 41q160 0 243 -81t83 -236v-369q0 -66 27.5 -104.5t74.5 -38.5q72 0 135 75l53 -67q-211 -199 -266 -271q-49 -64 -49 -108q0 -38 21.5 -60t58.5 -22q87 0 176 100l49 -69q-114 -117 -233 -117zM438 63q99 0 190 49t193 158v162l-35 25l-254 -60
q-152 -36 -211 -78.5t-59 -109.5t48.5 -106.5t127.5 -39.5z" />
    <glyph glyph-name="Cacute" unicode="&#x106;" 
d="M682 1092q-184 0 -299 -142q-111 -141 -111 -366q0 -226 111 -367q114 -141 299 -141q103 0 183.5 51.5t152.5 161.5l82 -70q-155 -248 -416 -248q-231 0 -375 172q-145 174 -145 441q0 266 145 440q144 172 375 172q261 0 416 -248l-82 -69q-72 110 -152.5 161.5
t-183.5 51.5zM969 1618l-316 -322l-45 27l176 338h185v-43z" />
    <glyph glyph-name="cacute" unicode="&#x107;" 
d="M657 801q-164 0 -272 -105q-106 -103 -106 -262t106 -262q107 -104 272 -104q203 0 334 174l72 -76q-148 -195 -406 -195q-213 0 -350 131t-137 332q0 199 137 330q139 133 350 133q261 0 406 -195l-74 -73q-132 172 -332 172zM934 1366l-295 -322l-45 27l174 338h166
v-43z" />
    <glyph glyph-name="Ccircumflex" unicode="&#x108;" 
d="M682 1092q-184 0 -299 -142q-111 -141 -111 -366q0 -226 111 -367q114 -141 299 -141q103 0 183.5 51.5t152.5 161.5l82 -70q-155 -248 -416 -248q-231 0 -375 172q-145 174 -145 441q0 266 145 440q144 172 375 172q261 0 416 -248l-82 -69q-72 110 -152.5 161.5
t-183.5 51.5zM428 1292l-49 31l205 338h172l205 -338l-48 -31l-223 254h-41z" />
    <glyph glyph-name="ccircumflex" unicode="&#x109;" 
d="M657 801q-164 0 -272 -105q-106 -103 -106 -262t106 -262q107 -104 272 -104q203 0 334 174l72 -76q-148 -195 -406 -195q-213 0 -350 131t-137 332q0 199 137 330q139 133 350 133q261 0 406 -195l-74 -73q-132 172 -332 172zM424 1047l-49 32l207 330h168l206 -330
l-47 -32l-223 253h-41z" />
    <glyph glyph-name="Cdotaccent" unicode="&#x10a;" 
d="M682 1092q-184 0 -299 -142q-111 -141 -111 -366q0 -226 111 -367q114 -141 299 -141q103 0 183.5 51.5t152.5 161.5l82 -70q-155 -248 -416 -248q-231 0 -375 172q-145 174 -145 441q0 266 145 440q144 172 375 172q261 0 416 -248l-82 -69q-72 110 -152.5 161.5
t-183.5 51.5zM788 1434q0 -50 -33.5 -83.5t-84.5 -33.5q-50 0 -83.5 33.5t-33.5 83.5q0 51 33.5 84.5t83.5 33.5q51 0 84.5 -33.5t33.5 -84.5z" />
    <glyph glyph-name="cdotaccent" unicode="&#x10b;" 
d="M657 801q-164 0 -272 -105q-106 -103 -106 -262t106 -262q107 -104 272 -104q203 0 334 174l72 -76q-148 -195 -406 -195q-213 0 -350 131t-137 332q0 199 137 330q139 133 350 133q261 0 406 -195l-74 -73q-132 172 -332 172zM784 1217q0 -50 -33.5 -83.5t-84.5 -33.5
q-50 0 -83.5 34t-33.5 83q0 51 33.5 84.5t83.5 33.5q51 0 84.5 -33.5t33.5 -84.5z" />
    <glyph glyph-name="Ccaron" unicode="&#x10c;" 
d="M682 1092q-184 0 -299 -142q-111 -141 -111 -366q0 -226 111 -367q114 -141 299 -141q103 0 183.5 51.5t152.5 161.5l82 -70q-155 -248 -416 -248q-231 0 -375 172q-145 174 -145 441q0 266 145 440q144 172 375 172q261 0 416 -248l-82 -69q-72 110 -152.5 161.5
t-183.5 51.5zM961 1649l-205 -338h-172l-205 338l49 30l221 -254h41l223 254z" />
    <glyph glyph-name="ccaron" unicode="&#x10d;" 
d="M657 801q-164 0 -272 -105q-106 -103 -106 -262t106 -262q107 -104 272 -104q203 0 334 174l72 -76q-148 -195 -406 -195q-213 0 -350 131t-137 332q0 199 137 330q139 133 350 133q261 0 406 -195l-74 -73q-132 172 -332 172zM956 1391l-206 -330h-168l-207 330l49 32
l221 -254h41l223 254z" />
    <glyph glyph-name="Dcaron" unicode="&#x10e;" 
d="M1118 584q0 -268 -168 -426q-169 -158 -456 -158h-293v1167h293q290 0 456 -159q168 -155 168 -424zM494 1071h-144l-43 -41v-893l43 -41h144q241 0 377.5 130.5t136.5 357.5q0 226 -136.5 356.5t-377.5 130.5zM872 1649l-204 -338h-172l-205 338l49 30l221 -254h41
l223 254z" />
    <glyph glyph-name="dcaron" unicode="&#x10f;" 
d="M1468 1366l-278 -340l-43 27l149 356h172v-43zM885 735h33v520h104v-1255h-104v133h-33q-55 -78 -140.5 -120t-185.5 -42q-184 0 -311 133q-123 132 -123 330t123 330q127 133 311 133q100 0 185.5 -42t140.5 -120zM567 799q-145 0 -239 -105q-95 -103 -95 -260
q0 -156 95 -262q94 -102 239 -102q117 0 207 64t144 185v230q-54 122 -144 186t-207 64z" />
    <glyph glyph-name="Dcroat" unicode="&#x110;" 
d="M1118 584q0 -268 -168 -426q-169 -158 -456 -158h-293v565h-125v97h125v505h293q290 0 456 -159q168 -155 168 -424zM649 662v-97h-303l-39 -39v-389l43 -41h144q241 0 377.5 130.5t136.5 357.5q0 226 -136.5 356.5t-377.5 130.5h-144l-43 -41v-330l39 -38h303z" />
    <glyph glyph-name="dslash" unicode="&#x111;" 
d="M918 0v123h-33q-54 -72 -139 -112t-187 -40q-185 0 -311 123q-123 123 -123 307q0 185 123 308q125 125 311 125q102 0 187 -40t139 -112h33v279l-37 36h-318v86h355v172h106v-172h174v-86h-174v-997h-106zM567 737q-143 0 -239 -96q-95 -95 -95 -240q0 -144 95 -239
q94 -94 239 -94q118 0 208 59t145 174v203q-55 115 -145 174t-208 59z" />
    <glyph glyph-name="Emacron" unicode="&#x112;" 
d="M961 557h-613v-416l41 -41h682v-100h-829v1167h809v-100h-662l-41 -41v-369h613v-100zM973 1452v-98h-615v98h615z" />
    <glyph glyph-name="emacron" unicode="&#x113;" 
d="M987 207l55 -74q-162 -162 -401 -162q-205 0 -342 131q-135 132 -135 332q0 198 135 330q136 133 336 133q203 0 326 -135q122 -134 122 -348h-782l-31 -25q15 -138 119 -231q104 -90 252 -90q207 0 346 139zM279 522l26 -20h629l24 35q-29 123 -114.5 193.5t-208.5 70.5
q-130 0 -228.5 -77t-127.5 -202zM946 1200v-98h-614v98h614z" />
    <glyph glyph-name="Ebreve" unicode="&#x114;" 
d="M961 557h-613v-416l41 -41h682v-100h-829v1167h809v-100h-662l-41 -41v-369h613v-100zM346 1604l76 18q23 -110 86.5 -169.5t157.5 -59.5t157 59.5t86 169.5l76 -18q-25 -153 -107.5 -235.5t-211.5 -82.5t-212 83t-108 235z" />
    <glyph glyph-name="ebreve" unicode="&#x115;" 
d="M987 207l55 -74q-162 -162 -401 -162q-205 0 -342 131q-135 132 -135 332q0 198 135 330q136 133 336 133q203 0 326 -135q122 -134 122 -348h-782l-31 -25q15 -138 119 -231q104 -90 252 -90q207 0 346 139zM279 522l26 -20h629l24 35q-29 123 -114.5 193.5t-208.5 70.5
q-130 0 -228.5 -77t-127.5 -202zM319 1360l76 18q23 -109 87 -169t157 -60t157 60t87 169l75 -18q-25 -153 -107.5 -235.5t-211.5 -82.5t-212 83t-108 235z" />
    <glyph glyph-name="Edotaccent" unicode="&#x116;" 
d="M961 557h-613v-416l41 -41h682v-100h-829v1167h809v-100h-662l-41 -41v-369h613v-100zM782 1434q0 -50 -33.5 -83.5t-84.5 -33.5q-50 0 -83.5 33.5t-33.5 83.5q0 51 33.5 84.5t83.5 33.5q51 0 84.5 -33.5t33.5 -84.5z" />
    <glyph glyph-name="edotaccent" unicode="&#x117;" 
d="M987 207l55 -74q-162 -162 -401 -162q-205 0 -342 131q-135 132 -135 332q0 198 135 330q136 133 336 133q203 0 326 -135q122 -134 122 -348h-782l-31 -25q15 -138 119 -231q104 -90 252 -90q207 0 346 139zM279 522l26 -20h629l24 35q-29 123 -114.5 193.5t-208.5 70.5
q-130 0 -228.5 -77t-127.5 -202zM758 1217q0 -50 -34 -83.5t-85 -33.5q-49 0 -83 34t-34 83q0 51 33.5 84.5t83.5 33.5q51 0 85 -33.5t34 -84.5z" />
    <glyph glyph-name="Eogonek" unicode="&#x118;" 
d="M940 -285l49 -69q-114 -117 -235 -117q-78 0 -123 42t-45 114q0 62 45.5 130.5t165.5 184.5h-555v1167h809v-100h-662l-41 -41v-369h613v-100h-613v-416l41 -41h682v-100h-158q-145 -139 -190 -201q-41 -59 -41 -102q0 -38 22 -60t60 -22q39 0 86 26t90 74z" />
    <glyph glyph-name="eogonek" unicode="&#x119;" 
d="M926 -285l49 -69q-114 -117 -236 -117q-78 0 -123 42t-45 114q0 61 45 131t146 168q-57 -13 -121 -13q-205 0 -342 131q-135 132 -135 332q0 198 135 330q136 133 336 133q203 0 326 -135q122 -134 122 -348h-782l-31 -25q15 -138 119 -231q104 -90 252 -90
q207 0 346 139l55 -74q-189 -168 -217 -196q-157 -151 -157 -240q0 -38 22 -60t60 -22q39 0 86 26t90 74zM279 522l26 -20h629l24 35q-29 123 -114.5 193.5t-208.5 70.5q-130 0 -228.5 -77t-127.5 -202z" />
    <glyph glyph-name="Ecaron" unicode="&#x11a;" 
d="M961 557h-613v-416l41 -41h682v-100h-829v1167h809v-100h-662l-41 -41v-369h613v-100zM956 1649l-204 -338h-172l-205 338l49 30l221 -254h41l223 254z" />
    <glyph glyph-name="ecaron" unicode="&#x11b;" 
d="M987 207l55 -74q-162 -162 -401 -162q-205 0 -342 131q-135 132 -135 332q0 198 135 330q136 133 336 133q203 0 326 -135q122 -134 122 -348h-782l-31 -25q15 -138 119 -231q104 -90 252 -90q207 0 346 139zM279 522l26 -20h629l24 35q-29 123 -114.5 193.5t-208.5 70.5
q-130 0 -228.5 -77t-127.5 -202zM930 1391l-207 -330h-168l-207 330l49 32l221 -254h41l224 254z" />
    <glyph glyph-name="Gcircumflex" unicode="&#x11c;" 
d="M1094 598v-598h-105v100l-26 17q-143 -146 -318 -146q-221 0 -362 172q-140 178 -140 441q0 264 148 438q149 174 379 174q131 0 232 -60.5t183 -187.5l-81 -69q-72 110 -153 161.5t-181 51.5q-188 0 -303 -142q-113 -140 -113 -366q0 -225 111 -369q111 -141 290 -141
q92 0 172 48t162 152v226h-352v98h457zM430 1292l-49 31l205 338h172l205 -338l-48 -31l-223 254h-41z" />
    <glyph glyph-name="gcircumflex" unicode="&#x11d;" 
d="M918 49v111h-35q-54 -75 -140 -117.5t-186 -42.5q-186 0 -313 127q-125 128 -125 322q0 191 125 319q126 129 313 129q99 0 185.5 -42t140.5 -116h35v129h106v-823q0 -210 -133 -334q-131 -125 -350 -125q-142 0 -259.5 58.5t-177.5 158.5l74 72q54 -91 150.5 -142.5
t212.5 -51.5q178 0 277.5 96t99.5 272zM229 449q0 -149 95 -252q94 -99 241 -99q117 0 208 62.5t147 181.5v213q-56 119 -147 181.5t-208 62.5q-147 0 -241 -101q-95 -100 -95 -249zM391 1047l-49 32l207 330h168l207 -330l-47 -32l-224 253h-41z" />
    <glyph glyph-name="Gbreve" unicode="&#x11e;" 
d="M1094 598v-598h-105v100l-26 17q-143 -146 -318 -146q-221 0 -362 172q-140 178 -140 441q0 264 148 438q149 174 379 174q131 0 232 -60.5t183 -187.5l-81 -69q-72 110 -153 161.5t-181 51.5q-188 0 -303 -142q-113 -140 -113 -366q0 -225 111 -369q111 -141 290 -141
q92 0 172 48t162 152v226h-352v98h457zM348 1604l76 18q23 -110 86.5 -169.5t157.5 -59.5t157 59.5t86 169.5l76 -18q-25 -153 -107.5 -235.5t-211.5 -82.5t-212 83t-108 235z" />
    <glyph glyph-name="gbreve" unicode="&#x11f;" 
d="M918 49v111h-35q-54 -75 -140 -117.5t-186 -42.5q-186 0 -313 127q-125 128 -125 322q0 191 125 319q126 129 313 129q99 0 185.5 -42t140.5 -116h35v129h106v-823q0 -210 -133 -334q-131 -125 -350 -125q-142 0 -259.5 58.5t-177.5 158.5l74 72q54 -91 150.5 -142.5
t212.5 -51.5q178 0 277.5 96t99.5 272zM229 449q0 -149 95 -252q94 -99 241 -99q117 0 208 62.5t147 181.5v213q-56 119 -147 181.5t-208 62.5q-147 0 -241 -101q-95 -100 -95 -249zM309 1366l76 18q23 -109 87 -169t157 -60t156.5 60t86.5 169l76 -18
q-25 -152 -107.5 -234.5t-211.5 -82.5t-212 82.5t-108 234.5z" />
    <glyph glyph-name="Gdotaccent" unicode="&#x120;" 
d="M1094 598v-598h-105v100l-26 17q-143 -146 -318 -146q-221 0 -362 172q-140 178 -140 441q0 264 148 438q149 174 379 174q131 0 232 -60.5t183 -187.5l-81 -69q-72 110 -153 161.5t-181 51.5q-188 0 -303 -142q-113 -140 -113 -366q0 -225 111 -369q111 -141 290 -141
q92 0 172 48t162 152v226h-352v98h457zM786 1434q0 -50 -33.5 -83.5t-84.5 -33.5q-50 0 -83.5 33.5t-33.5 83.5q0 51 33.5 84.5t83.5 33.5q51 0 84.5 -33.5t33.5 -84.5z" />
    <glyph glyph-name="gdotaccent" unicode="&#x121;" 
d="M918 49v111h-35q-54 -75 -140 -117.5t-186 -42.5q-186 0 -313 127q-125 128 -125 322q0 191 125 319q126 129 313 129q99 0 185.5 -42t140.5 -116h35v129h106v-823q0 -210 -133 -334q-131 -125 -350 -125q-142 0 -259.5 58.5t-177.5 158.5l74 72q54 -91 150.5 -142.5
t212.5 -51.5q178 0 277.5 96t99.5 272zM229 449q0 -149 95 -252q94 -99 241 -99q117 0 208 62.5t147 181.5v213q-56 119 -147 181.5t-208 62.5q-147 0 -241 -101q-95 -100 -95 -249zM745 1217q0 -50 -33.5 -83.5t-84.5 -33.5q-49 0 -83 34t-34 83q0 51 33.5 84.5t83.5 33.5
q51 0 84.5 -33.5t33.5 -84.5z" />
    <glyph glyph-name="Gcommaaccent" unicode="&#x122;" 
d="M1094 598v-598h-105v100l-26 17q-143 -146 -318 -146q-221 0 -362 172q-140 178 -140 441q0 264 148 438q149 174 379 174q131 0 232 -60.5t183 -187.5l-81 -69q-72 110 -153 161.5t-181 51.5q-188 0 -303 -142q-113 -140 -113 -366q0 -225 111 -369q111 -141 290 -141
q92 0 172 48t162 152v226h-352v98h457zM553 -260q0 47 33 80t78 33q47 0 79.5 -33.5t32.5 -81.5q0 -47 -33 -86l-190 -238l-47 33l127 193q-35 8 -57.5 35.5t-22.5 64.5z" />
    <glyph glyph-name="gcommaaccent" unicode="&#x123;" 
d="M918 49v111h-35q-54 -75 -140 -117.5t-186 -42.5q-186 0 -313 127q-125 128 -125 322q0 191 125 319q126 129 313 129q99 0 185.5 -42t140.5 -116h35v129h106v-823q0 -210 -133 -334q-131 -125 -350 -125q-142 0 -259.5 58.5t-177.5 158.5l74 72q54 -91 150.5 -142.5
t212.5 -51.5q178 0 277.5 96t99.5 272zM229 449q0 -149 95 -252q94 -99 241 -99q117 0 208 62.5t147 181.5v213q-56 119 -147 181.5t-208 62.5q-147 0 -241 -101q-95 -100 -95 -249zM721 1186q0 -45 -31 -77t-78 -32q-45 0 -76.5 32t-31.5 79q0 38 31 84l190 244l51 -33
l-127 -197q32 -14 52 -41t20 -59z" />
    <glyph glyph-name="Hcircumflex" unicode="&#x124;" 
d="M924 557h-590l-41 -41v-516h-107v1167h107v-469l41 -41h590l41 41v469h106v-1167h-106v516zM387 1292l-49 31l205 338h172l205 -338l-48 -31l-223 254h-41z" />
    <glyph glyph-name="hcircumflex" unicode="&#x125;" 
d="M696 799q-99 0 -187.5 -69t-150.5 -193v-537h-106v1255h106v-534h31q56 80 141.5 128t176.5 48q160 0 246.5 -93t86.5 -263v-541h-106v524q0 134 -60.5 204.5t-177.5 70.5zM406 1333l-50 31l205 338h172l205 -338l-47 -31l-223 254h-41z" />
    <glyph glyph-name="Hbar" unicode="&#x126;" 
d="M924 457h-590l-41 -41v-416h-107v807h-108v90h108v270h107v-270h672v270h106v-270h111v-90h-111v-807h-106v416zM293 766v-176l41 -41h590l41 41v176l-41 41h-590z" />
    <glyph glyph-name="hbar" unicode="&#x127;" 
d="M696 752q-99 0 -187.5 -69.5t-150.5 -193.5v-489h-106v997h-176v86h176v172h106v-172h355v-86h-318l-37 -36v-287h31q56 80 141.5 128t176.5 48q160 0 246.5 -93t86.5 -263v-494h-106v477q0 134 -60.5 204.5t-177.5 70.5z" />
    <glyph glyph-name="Itilde" unicode="&#x128;" 
d="M723 1069l-41 -41v-889l41 -41h319v-98h-825v98h318l43 41v889l-43 41h-318v98h825v-98h-319zM776 1409q51 0 83 42t32 108h94q0 -109 -55.5 -177.5t-143.5 -68.5q-39 0 -78 18t-100 68q-49 41 -74.5 54t-50.5 13q-51 0 -84.5 -42t-33.5 -105h-93q0 109 55.5 176.5
t145.5 67.5q38 0 75.5 -17.5t96.5 -66.5q53 -42 79.5 -56t51.5 -14z" />
    <glyph glyph-name="itilde" unicode="&#x129;" 
d="M219 868h496v-737l39 -39h340v-92h-875v92h359l38 39v606l-38 39h-359v92zM776 1165q51 0 83 42t32 108h94q0 -109 -55.5 -177.5t-143.5 -68.5q-39 0 -78 18t-100 68q-49 41 -75 54.5t-50 13.5q-51 0 -84.5 -42.5t-33.5 -105.5h-93q0 109 55.5 176.5t145.5 67.5
q38 0 75.5 -17.5t96.5 -66.5q53 -42 79.5 -56t51.5 -14z" />
    <glyph glyph-name="Imacron" unicode="&#x12a;" 
d="M723 1069l-41 -41v-889l41 -41h319v-98h-825v98h318l43 41v889l-43 41h-318v98h825v-98h-319zM936 1452v-98h-614v98h614z" />
    <glyph glyph-name="imacron" unicode="&#x12b;" 
d="M219 868h496v-737l39 -39h340v-92h-875v92h359l38 39v606l-38 39h-359v92zM936 1200v-98h-614v98h614z" />
    <glyph glyph-name="Ibreve" unicode="&#x12c;" 
d="M723 1069l-41 -41v-889l41 -41h319v-98h-825v98h318l43 41v889l-43 41h-318v98h825v-98h-319zM309 1604l76 18q23 -110 86.5 -169.5t157.5 -59.5t157 59.5t86 169.5l76 -18q-25 -153 -107.5 -235.5t-211.5 -82.5t-212 83t-108 235z" />
    <glyph glyph-name="ibreve" unicode="&#x12d;" 
d="M219 868h496v-737l39 -39h340v-92h-875v92h359l38 39v606l-38 39h-359v92zM309 1360l76 18q23 -109 87 -169t157 -60t156.5 60t86.5 169l76 -18q-25 -153 -107.5 -235.5t-211.5 -82.5t-212 83t-108 235z" />
    <glyph glyph-name="Iogonek" unicode="&#x12e;" 
d="M889 -285l49 -69q-114 -117 -236 -117q-78 0 -122.5 42t-44.5 114q0 63 45 131.5t165 183.5h-528v98h318l43 41v889l-43 41h-318v98h825v-98h-319l-41 -41v-889l41 -41h319v-98h-180q-145 -139 -190 -201q-41 -59 -41 -102q0 -38 22 -60t60 -22q39 0 86 26t90 74z" />
    <glyph glyph-name="iogonek" unicode="&#x12f;" 
d="M754 1217q0 -50 -34 -83.5t-85 -33.5q-49 0 -83 34t-34 83q0 51 33.5 84.5t83.5 33.5q51 0 85 -33.5t34 -84.5zM936 -285l49 -69q-114 -117 -235 -117q-78 0 -123 42t-45 114q0 62 45.5 130.5t165.5 184.5h-574v92h359l38 39v606l-38 39h-359v92h496v-737l39 -39h340v-92
h-185q-145 -139 -190 -201q-41 -59 -41 -102q0 -38 22 -60t60 -22q39 0 86 26t90 74z" />
    <glyph glyph-name="Idot" unicode="&#x130;" 
d="M723 1069l-41 -41v-889l41 -41h319v-98h-825v98h318l43 41v889l-43 41h-318v98h825v-98h-319zM745 1434q0 -50 -33.5 -83.5t-84.5 -33.5q-49 0 -83 33.5t-34 83.5q0 51 33.5 84.5t83.5 33.5q51 0 84.5 -33.5t33.5 -84.5z" />
    <glyph glyph-name="dotlessi" unicode="&#x131;" 
d="M219 868h496v-737l39 -39h340v-92h-875v92h359l38 39v606l-38 39h-359v92z" />
    <glyph glyph-name="Jcircumflex" unicode="&#x134;" 
d="M539 72q165 0 252 109.5t86 316.5v669h106v-682q0 -238 -119.5 -375t-324.5 -137q-149 0 -265 82q-112 81 -153 221l92 56q43 -125 127 -192.5t199 -67.5zM682 1292l-49 31l205 338h172l204 -338l-47 -31l-223 254h-41z" />
    <glyph glyph-name="jcircumflex" unicode="&#x135;" 
d="M834 68v671l-39 37h-465v92h608v-817q0 -214 -108 -336.5t-295 -122.5q-129 0 -232.5 61.5t-146.5 164.5l84 59q100 -186 295 -186q146 0 222.5 96.5t76.5 280.5zM590 1047l-49 32l207 330h167l207 -330l-47 -32l-223 253h-41z" />
    <glyph glyph-name="Kcommaaccent" unicode="&#x136;" 
d="M643 643l483 -643h-131l-450 594l-217 -221v-373h-107v1167h107v-630h32l609 630h143l-469 -475v-49zM524 -260q0 47 33 80t78 33q47 0 80 -34t33 -81t-33 -86l-191 -238l-47 33l127 193q-35 8 -57.5 35.5t-22.5 64.5z" />
    <glyph glyph-name="kcommaaccent" unicode="&#x137;" 
d="M664 471l450 -471h-135l-416 428l-207 -170v-258h-106v1255h106v-849h33l557 462h152l-434 -356v-41zM516 -260q0 47 33 80t78 33q47 0 79.5 -33.5t32.5 -81.5t-32 -86l-191 -238l-47 33l127 193q-35 8 -57.5 35.5t-22.5 64.5z" />
    <glyph glyph-name="kgreenlandic" unicode="&#x138;" 
d="M664 471l450 -471h-135l-416 428l-207 -170v-258h-106v868h106v-462h33l557 462h152l-434 -356v-41z" />
    <glyph glyph-name="Lacute" unicode="&#x139;" 
d="M256 1167h106v-1026l41 -41h658v-100h-805v1167zM705 1618l-316 -322l-45 27l176 338h185v-43z" />
    <glyph glyph-name="lacute" unicode="&#x13a;" 
d="M219 1255h496v-1124l39 -39h340v-92h-875v92h359l38 39v993l-38 39h-359v92zM954 1673l-315 -321l-45 26l176 338h184v-43z" />
    <glyph glyph-name="Lcommaaccent" unicode="&#x13b;" 
d="M256 1167h106v-1026l41 -41h658v-100h-805v1167zM553 -260q0 47 33 80t78 33q47 0 79.5 -33.5t32.5 -81.5q0 -47 -33 -86l-190 -238l-47 33l127 193q-35 8 -57.5 35.5t-22.5 64.5z" />
    <glyph glyph-name="lcommaaccent" unicode="&#x13c;" 
d="M219 1255h496v-1124l39 -39h340v-92h-875v92h359l38 39v993l-38 39h-359v92zM545 -260q0 47 32.5 80t77.5 33q47 0 80 -34t33 -81t-33 -86l-190 -238l-47 33l127 193q-35 8 -57.5 35.5t-22.5 64.5z" />
    <glyph glyph-name="Lcaron" unicode="&#x13d;" 
d="M256 1167h106v-1026l41 -41h658v-100h-805v1167zM1090 1124l-279 -340l-43 27l150 356h172v-43z" />
    <glyph glyph-name="lcaron" unicode="&#x13e;" 
d="M1260 1366l-279 -340l-43 27l149 356h173v-43zM219 1255h496v-1124l39 -39h340v-92h-875v92h359l38 39v993l-38 39h-359v92z" />
    <glyph glyph-name="Ldot" unicode="&#x13f;" 
d="M256 1167h106v-1026l41 -41h658v-100h-805v1167zM1044 688q0 -50 -33.5 -83.5t-84.5 -33.5q-50 0 -83.5 33.5t-33.5 83.5q0 51 33.5 85t83.5 34q51 0 84.5 -34t33.5 -85z" />
    <glyph glyph-name="ldot" unicode="&#x140;" 
d="M219 1255h496v-1124l39 -39h340v-92h-875v92h359l38 39v993l-38 39h-359v92zM1360 680q0 -50 -34 -83.5t-85 -33.5q-49 0 -83 33.5t-34 83.5q0 51 33.5 85t83.5 34q51 0 85 -34t34 -85z" />
    <glyph glyph-name="Lslash" unicode="&#x141;" 
d="M362 141l41 -41h658v-100h-805v446l-31 29l-119 -57l-32 84l182 80v585h106v-501l31 -27l389 178l35 -86l-455 -201v-389z" />
    <glyph glyph-name="lslash" unicode="&#x142;" 
d="M715 131l39 -39h340v-92h-875v92h359l38 39v434l-30 27l-281 -137l-41 80l352 174v415l-38 39h-359v92h496v-458l30 -27l265 129l41 -80l-336 -166v-522z" />
    <glyph glyph-name="Nacute" unicode="&#x143;" 
d="M969 1167h102v-1167h-127l-618 1008h-37v-1008h-103v1167h158l586 -956h39v956zM940 1618l-315 -322l-45 27l176 338h184v-43z" />
    <glyph glyph-name="nacute" unicode="&#x144;" 
d="M696 799q-99 0 -187.5 -69t-150.5 -193v-537h-106v868h106v-147h31q56 80 141.5 128t176.5 48q160 0 246.5 -93t86.5 -263v-541h-106v524q0 134 -60.5 204.5t-177.5 70.5zM915 1366l-294 -322l-46 27l175 338h165v-43z" />
    <glyph glyph-name="Ncommaaccent" unicode="&#x145;" 
d="M969 1167h102v-1167h-127l-618 1008h-37v-1008h-103v1167h158l586 -956h39v956zM524 -260q0 47 33 80t78 33q47 0 80 -34t33 -81t-33 -86l-191 -238l-47 33l127 193q-35 8 -57.5 35.5t-22.5 64.5z" />
    <glyph glyph-name="ncommaaccent" unicode="&#x146;" 
d="M696 799q-99 0 -187.5 -69t-150.5 -193v-537h-106v868h106v-147h31q56 80 141.5 128t176.5 48q160 0 246.5 -93t86.5 -263v-541h-106v524q0 134 -60.5 204.5t-177.5 70.5zM535 -260q0 47 32.5 80t77.5 33q47 0 80 -34t33 -81t-33 -86l-190 -238l-48 33l127 193
q-35 7 -57 35t-22 65z" />
    <glyph glyph-name="Ncaron" unicode="&#x147;" 
d="M969 1167h102v-1167h-127l-618 1008h-37v-1008h-103v1167h158l586 -956h39v956zM934 1649l-205 -338h-172l-205 338l49 30l222 -254h41l223 254z" />
    <glyph glyph-name="ncaron" unicode="&#x148;" 
d="M696 799q-99 0 -187.5 -69t-150.5 -193v-537h-106v868h106v-147h31q56 80 141.5 128t176.5 48q160 0 246.5 -93t86.5 -263v-541h-106v524q0 134 -60.5 204.5t-177.5 70.5zM938 1391l-207 -330h-168l-207 330l50 32l221 -254h41l223 254z" />
    <glyph glyph-name="Eng" unicode="&#x14a;" 
d="M780 -408q-94 0 -166.5 50.5t-101.5 136.5l80 67q57 -153 188 -153q189 0 189 260l-643 1055h-37v-1008h-103v1167h158l586 -954h39v954h102v-1216q-1 -166 -80.5 -262.5t-210.5 -96.5z" />
    <glyph glyph-name="eng" unicode="&#x14b;" 
d="M745 -408q-94 0 -166.5 50.5t-101.5 136.5l78 67q58 -155 188 -155q191 0 191 270v563q0 134 -60.5 204.5t-177.5 70.5q-99 0 -187.5 -69t-150.5 -193v-537h-106v868h106v-147h31q56 80 141.5 128t176.5 48q160 0 246.5 -93t86.5 -263v-584q0 -167 -80.5 -266t-214.5 -99
z" />
    <glyph glyph-name="Omacron" unicode="&#x14c;" 
d="M629 1196q222 0 360 -172q139 -174 139 -440q0 -267 -139 -441q-138 -172 -360 -172q-223 0 -361 172q-139 174 -139 441q0 266 139 440q138 172 361 172zM629 74q177 0 282 141q107 140 107 369q0 228 -107 368q-106 142 -282 142q-174 0 -283 -142q-106 -138 -106 -368
q0 -231 106 -369q108 -141 283 -141zM936 1452v-98h-614v98h614z" />
    <glyph glyph-name="omacron" unicode="&#x14d;" 
d="M629 -29q-202 0 -336 131q-135 132 -135 332q0 198 135 330q136 133 336 133t336 -133q135 -132 135 -330q0 -200 -135 -332q-134 -131 -336 -131zM629 68q157 0 258 104q104 104 104 262t-104 262q-102 105 -258 105q-155 0 -260 -105q-103 -106 -103 -262t103 -262
q104 -104 260 -104zM936 1200v-98h-614v98h614z" />
    <glyph glyph-name="Obreve" unicode="&#x14e;" 
d="M629 1196q222 0 360 -172q139 -174 139 -440q0 -267 -139 -441q-138 -172 -360 -172q-223 0 -361 172q-139 174 -139 441q0 266 139 440q138 172 361 172zM629 74q177 0 282 141q107 140 107 369q0 228 -107 368q-106 142 -282 142q-174 0 -283 -142q-106 -138 -106 -368
q0 -231 106 -369q108 -141 283 -141zM309 1604l76 18q23 -110 86.5 -169.5t157.5 -59.5t157 59.5t86 169.5l76 -18q-25 -153 -107.5 -235.5t-211.5 -82.5t-212 83t-108 235z" />
    <glyph glyph-name="obreve" unicode="&#x14f;" 
d="M629 -29q-202 0 -336 131q-135 132 -135 332q0 198 135 330q136 133 336 133t336 -133q135 -132 135 -330q0 -200 -135 -332q-134 -131 -336 -131zM629 68q157 0 258 104q104 104 104 262t-104 262q-102 105 -258 105q-155 0 -260 -105q-103 -106 -103 -262t103 -262
q104 -104 260 -104zM309 1360l76 18q23 -109 87 -169t157 -60t156.5 60t86.5 169l76 -18q-25 -153 -107.5 -235.5t-211.5 -82.5t-212 83t-108 235z" />
    <glyph glyph-name="Ohungarumlaut" unicode="&#x150;" 
d="M629 1196q222 0 360 -172q139 -174 139 -440q0 -267 -139 -441q-138 -172 -360 -172q-223 0 -361 172q-139 174 -139 441q0 266 139 440q138 172 361 172zM629 74q177 0 282 141q107 140 107 369q0 228 -107 368q-106 142 -282 142q-174 0 -283 -142q-106 -138 -106 -368
q0 -231 106 -369q108 -141 283 -141zM748 1618l-291 -322l-47 27l174 338h164v-43zM1110 1618l-291 -322l-47 27l174 338h164v-43z" />
    <glyph glyph-name="ohungarumlaut" unicode="&#x151;" 
d="M629 -29q-202 0 -336 131q-135 132 -135 332q0 198 135 330q136 133 336 133t336 -133q135 -132 135 -330q0 -200 -135 -332q-134 -131 -336 -131zM629 68q157 0 258 104q104 104 104 262t-104 262q-102 105 -258 105q-155 0 -260 -105q-103 -106 -103 -262t103 -262
q104 -104 260 -104zM721 1366l-289 -322l-45 27l174 338h160v-43zM1083 1366l-286 -322l-47 27l174 338h159v-43z" />
    <glyph glyph-name="OE" unicode="&#x152;" 
d="M1212 100v-100h-569q-271 0 -436 160q-162 158 -162 424t162 424q163 159 436 159h549v-100h-406l-41 -41v-369h357v-100h-357v-416l41 -41h426zM152 584q0 -221 133 -357q133 -133 360 -133v979q-228 0 -360 -135q-133 -133 -133 -354z" />
    <glyph glyph-name="oe" unicode="&#x153;" 
d="M1161 199l60 -66q-125 -162 -287 -162q-88 0 -164 54.5t-119 146.5h-35q-37 -93 -107.5 -147t-154.5 -54q-140 0 -231 131q-92 133 -92 330t92 330q95 135 231 135q82 0 152.5 -55.5t107.5 -147.5h37q42 93 114.5 148t156.5 55q138 0 221 -135q84 -137 84 -350h-543
q5 -150 75 -247t175 -97q68 0 120 29.5t107 101.5zM686 500h410l20 35q-14 128 -64.5 197t-129.5 69q-92 0 -157.5 -83t-78.5 -218zM354 70q100 0 164 102q64 101 64 260q0 157 -66 264q-64 105 -162 105q-96 0 -161 -105q-64 -104 -64 -264q0 -159 64 -260
q65 -102 161 -102z" />
    <glyph glyph-name="Racute" unicode="&#x154;" 
d="M623 496h-7h-297v-496h-108v1167h405q223 0 339 -86t116 -250q0 -270 -305 -323v-39l332 -469h-127zM963 831q0 238 -351 238h-252l-41 -41v-434h293q351 0 351 237zM899 1618l-315 -322l-45 27l176 338h184v-43z" />
    <glyph glyph-name="racute" unicode="&#x155;" 
d="M823 897q261 0 314 -303l-97 -35q-23 122 -79 180t-150 58q-88 0 -185 -71t-218 -224v-502h-107v868h107v-196h34q196 225 381 225zM913 1366l-295 -322l-45 27l175 338h165v-43z" />
    <glyph glyph-name="Rcommaaccent" unicode="&#x156;" 
d="M623 496h-7h-297v-496h-108v1167h405q223 0 339 -86t116 -250q0 -270 -305 -323v-39l332 -469h-127zM963 831q0 238 -351 238h-252l-41 -41v-434h293q351 0 351 237zM487 -260q0 47 33 80t78 33q47 0 80 -34t33 -81t-33 -86l-191 -238l-47 33l127 193q-35 8 -57.5 35.5
t-22.5 64.5z" />
    <glyph glyph-name="rcommaaccent" unicode="&#x157;" 
d="M823 897q261 0 314 -303l-97 -35q-23 122 -79 180t-150 58q-88 0 -185 -71t-218 -224v-502h-107v868h107v-196h34q196 225 381 225zM242 -260q0 47 32.5 80t77.5 33q47 0 80 -34t33 -81t-33 -86l-190 -238l-47 33l127 193q-35 8 -57.5 35.5t-22.5 64.5z" />
    <glyph glyph-name="Rcaron" unicode="&#x158;" 
d="M623 496h-7h-297v-496h-108v1167h405q223 0 339 -86t116 -250q0 -270 -305 -323v-39l332 -469h-127zM963 831q0 238 -351 238h-252l-41 -41v-434h293q351 0 351 237zM883 1649l-205 -338h-172l-205 338l49 30l221 -254h41l224 254z" />
    <glyph glyph-name="rcaron" unicode="&#x159;" 
d="M823 897q261 0 314 -303l-97 -35q-23 122 -79 180t-150 58q-88 0 -185 -71t-218 -224v-502h-107v868h107v-196h34q196 225 381 225zM936 1391l-207 -330h-168l-207 330l49 32l222 -254h41l223 254z" />
    <glyph glyph-name="Sacute" unicode="&#x15a;" 
d="M653 74q154 0 249 65.5t95 173.5q0 157 -194 203l-301 74q-165 38 -237 106.5t-72 184.5q0 139 114 227q113 88 295 88q137 0 260.5 -49t220.5 -141l-69 -86q-181 178 -416 178q-134 0 -216.5 -58.5t-82.5 -154.5q0 -74 49.5 -118.5t171.5 -74.5l305 -74
q279 -70 279 -301q0 -155 -125 -249q-129 -97 -326 -97q-149 0 -287.5 47t-236.5 132l64 96q93 -84 211.5 -128t248.5 -44zM928 1618l-316 -322l-45 27l176 338h185v-43z" />
    <glyph glyph-name="sacute" unicode="&#x15b;" 
d="M932 231q0 54 -37.5 85.5t-124.5 48.5l-278 53q-147 29 -210 83t-63 148q0 110 103.5 179t267.5 69q132 0 243 -45t185 -131l-62 -86q-154 168 -368 168q-117 0 -190.5 -41.5t-73.5 -108.5q0 -55 41 -85.5t141 -49.5l297 -57q124 -26 178.5 -79t54.5 -146
q0 -118 -110 -191q-112 -74 -281 -74q-290 0 -473 174l66 93q87 -88 185 -130t222 -42q125 0 206 46t81 119zM887 1366l-295 -322l-45 27l174 338h166v-43z" />
    <glyph glyph-name="Scircumflex" unicode="&#x15c;" 
d="M653 74q154 0 249 65.5t95 173.5q0 157 -194 203l-301 74q-165 38 -237 106.5t-72 184.5q0 139 114 227q113 88 295 88q137 0 260.5 -49t220.5 -141l-69 -86q-181 178 -416 178q-134 0 -216.5 -58.5t-82.5 -154.5q0 -74 49.5 -118.5t171.5 -74.5l305 -74
q279 -70 279 -301q0 -155 -125 -249q-129 -97 -326 -97q-149 0 -287.5 47t-236.5 132l64 96q93 -84 211.5 -128t248.5 -44zM422 1292l-49 31l205 338h172l204 -338l-47 -31l-223 254h-41z" />
    <glyph glyph-name="scircumflex" unicode="&#x15d;" 
d="M932 231q0 54 -37.5 85.5t-124.5 48.5l-278 53q-147 29 -210 83t-63 148q0 110 103.5 179t267.5 69q132 0 243 -45t185 -131l-62 -86q-154 168 -368 168q-117 0 -190.5 -41.5t-73.5 -108.5q0 -55 41 -85.5t141 -49.5l297 -57q124 -26 178.5 -79t54.5 -146
q0 -118 -110 -191q-112 -74 -281 -74q-290 0 -473 174l66 93q87 -88 185 -130t222 -42q125 0 206 46t81 119zM383 1047l-49 32l207 330h168l206 -330l-47 -32l-223 253h-41z" />
    <glyph glyph-name="Scedilla" unicode="&#x15e;" 
d="M846 -295q0 -80 -66 -130t-166 -50q-94 0 -167 44.5t-105 123.5l74 45q59 -135 198 -135q67 0 104.5 26.5t37.5 75.5q0 101 -189 98l-69 45l53 129q-120 13 -231 59t-191 114l64 96q93 -84 211.5 -128t248.5 -44q154 0 249 65.5t95 173.5q0 157 -194 203l-301 74
q-165 38 -237 106.5t-72 184.5q0 139 114 227q113 88 295 88q137 0 260.5 -49t220.5 -141l-69 -86q-181 178 -416 178q-134 0 -216.5 -58.5t-82.5 -154.5q0 -74 49.5 -118.5t171.5 -74.5l305 -74q279 -70 279 -301q0 -155 -125 -249q-129 -97 -326 -97h-24l-37 -94
q124 0 189 -44t65 -128z" />
    <glyph glyph-name="scedilla" unicode="&#x15f;" 
d="M840 -295q0 -80 -66 -130t-166 -50q-94 0 -167 44.5t-105 123.5l74 45q59 -135 198 -135q67 0 104.5 26.5t37.5 75.5q0 101 -189 98l-69 45l53 129q-223 24 -373 168l66 93q87 -88 185 -130t222 -42q125 0 206 46t81 119q0 54 -37.5 85.5t-124.5 48.5l-278 53
q-147 29 -210 83t-63 148q0 110 103.5 179t267.5 69q132 0 243 -45t185 -131l-62 -86q-154 168 -368 168q-117 0 -190.5 -41.5t-73.5 -108.5q0 -55 41 -85.5t141 -49.5l297 -57q124 -26 178.5 -79t54.5 -146q0 -118 -110 -191q-112 -74 -281 -74h-22l-37 -94q124 0 189 -44
t65 -128z" />
    <glyph glyph-name="Scaron" unicode="&#x160;" 
d="M653 74q154 0 249 65.5t95 173.5q0 157 -194 203l-301 74q-165 38 -237 106.5t-72 184.5q0 139 114 227q113 88 295 88q137 0 260.5 -49t220.5 -141l-69 -86q-181 178 -416 178q-134 0 -216.5 -58.5t-82.5 -154.5q0 -74 49.5 -118.5t171.5 -74.5l305 -74
q279 -70 279 -301q0 -155 -125 -249q-129 -97 -326 -97q-149 0 -287.5 47t-236.5 132l64 96q93 -84 211.5 -128t248.5 -44zM926 1649l-205 -338h-172l-205 338l49 30l221 -254h41l224 254z" />
    <glyph glyph-name="scaron" unicode="&#x161;" 
d="M932 231q0 54 -37.5 85.5t-124.5 48.5l-278 53q-147 29 -210 83t-63 148q0 110 103.5 179t267.5 69q132 0 243 -45t185 -131l-62 -86q-154 168 -368 168q-117 0 -190.5 -41.5t-73.5 -108.5q0 -55 41 -85.5t141 -49.5l297 -57q124 -26 178.5 -79t54.5 -146
q0 -118 -110 -191q-112 -74 -281 -74q-290 0 -473 174l66 93q87 -88 185 -130t222 -42q125 0 206 46t81 119zM915 1391l-206 -330h-168l-207 330l49 32l221 -254h41l223 254z" />
    <glyph glyph-name="Tcommaaccent" unicode="&#x162;" 
d="M872 -295q0 -81 -65.5 -130.5t-165.5 -49.5q-94 0 -167 44.5t-105 123.5l73 45q59 -135 199 -135q67 0 104 26.5t37 75.5q0 101 -188 98l-70 45l62 152h-11v1026l-40 41h-420v100h1030v-100h-420l-41 -41v-1026h-18l-48 -123q124 0 189 -44t65 -128z" />
    <glyph glyph-name="tcommaaccent" unicode="&#x163;" 
d="M872 -295q0 -81 -65.5 -130.5t-165.5 -49.5q-94 0 -167 44.5t-105 123.5l73 45q59 -135 199 -135q67 0 104 26.5t37 75.5q0 101 -188 98l-70 45l60 148q-80 28 -133 84q-105 111 -105 319v338l-39 39h-217v92h256v312h109v-312h532v-92h-498l-36 -39v-321
q0 -170 74.5 -258t217.5 -88q182 0 312 190l69 -72q-69 -105 -167.5 -161t-213.5 -56q-47 0 -88 6l-39 -100q124 0 189 -44t65 -128z" />
    <glyph glyph-name="Tcaron" unicode="&#x164;" 
d="M1145 1167v-100h-420l-41 -41v-1026h-109v1026l-40 41h-420v100h1030zM920 1649l-205 -338h-172l-205 338l49 30l221 -254h41l223 254z" />
    <glyph glyph-name="tcaron" unicode="&#x165;" 
d="M346 399v338l-39 39h-217v92h256v312h109v-312h532v-92h-498l-36 -39v-321q0 -170 74.5 -258t217.5 -88q182 0 312 190l69 -72q-69 -105 -167.5 -161t-213.5 -56q-192 0 -295.5 110t-103.5 318zM1018 1393l-279 -340l-43 26l150 357h172v-43z" />
    <glyph glyph-name="Tbar" unicode="&#x166;" 
d="M920 567h-201l-35 -41v-526h-109v526l-34 41h-201v95h235v364l-40 41h-420v100h1030v-100h-420l-41 -41v-364h236v-95z" />
    <glyph glyph-name="tbar" unicode="&#x167;" 
d="M1057 260l69 -72q-69 -105 -167.5 -161t-213.5 -56q-192 0 -295.5 110t-103.5 318v54h-256v92h256v192l-39 39h-217v92h256v312h109v-312h532v-92h-498l-36 -39v-192h512v-92h-512v-37q0 -170 74.5 -258t217.5 -88q182 0 312 190z" />
    <glyph glyph-name="Utilde" unicode="&#x168;" 
d="M629 74q154 0 247 97t93 261v735h108v-749q0 -202 -125 -324q-126 -123 -323 -123q-198 0 -324 123q-125 122 -125 324v749h109v-735q0 -164 93 -261t247 -97zM786 1409q51 0 83 42t32 108h94q0 -109 -55 -177.5t-143 -68.5q-40 0 -79 18t-100 68q-49 41 -74 54t-50 13
q-51 0 -85 -42t-34 -105h-92q0 109 55 176.5t145 67.5q38 0 75.5 -17.5t96.5 -66.5q53 -42 79.5 -56t51.5 -14z" />
    <glyph glyph-name="utilde" unicode="&#x169;" 
d="M561 70q99 0 187.5 69t150.5 193v536h107v-868h-107v147h-31q-56 -81 -141 -128.5t-176 -47.5q-160 0 -247 93.5t-87 263.5v540h107v-524q0 -134 60 -204t177 -70zM764 1165q51 0 83 42t32 108h94q0 -109 -55.5 -177.5t-143.5 -68.5q-39 0 -78 18t-100 68
q-49 41 -75 54.5t-50 13.5q-51 0 -85 -42.5t-34 -105.5h-92q0 109 55.5 176.5t145.5 67.5q38 0 75.5 -17.5t96.5 -66.5q53 -42 79.5 -56t51.5 -14z" />
    <glyph glyph-name="Umacron" unicode="&#x16a;" 
d="M629 74q154 0 247 97t93 261v735h108v-749q0 -202 -125 -324q-126 -123 -323 -123q-198 0 -324 123q-125 122 -125 324v749h109v-735q0 -164 93 -261t247 -97zM936 1452v-98h-614v98h614z" />
    <glyph glyph-name="umacron" unicode="&#x16b;" 
d="M561 70q99 0 187.5 69t150.5 193v536h107v-868h-107v147h-31q-56 -81 -141 -128.5t-176 -47.5q-160 0 -247 93.5t-87 263.5v540h107v-524q0 -134 60 -204t177 -70zM924 1200v-98h-615v98h615z" />
    <glyph glyph-name="Ubreve" unicode="&#x16c;" 
d="M629 74q154 0 247 97t93 261v735h108v-749q0 -202 -125 -324q-126 -123 -323 -123q-198 0 -324 123q-125 122 -125 324v749h109v-735q0 -164 93 -261t247 -97zM309 1604l76 18q23 -110 86.5 -169.5t157.5 -59.5t157 59.5t86 169.5l76 -18q-25 -153 -107.5 -235.5
t-211.5 -82.5t-212 83t-108 235z" />
    <glyph glyph-name="ubreve" unicode="&#x16d;" 
d="M561 70q99 0 187.5 69t150.5 193v536h107v-868h-107v147h-31q-56 -81 -141 -128.5t-176 -47.5q-160 0 -247 93.5t-87 263.5v540h107v-524q0 -134 60 -204t177 -70zM297 1360l76 18q23 -109 86.5 -169t156.5 -60t157 60t87 169l76 -18q-25 -152 -108 -235t-212 -83
t-211.5 82.5t-107.5 235.5z" />
    <glyph glyph-name="Uring" unicode="&#x16e;" 
d="M629 74q154 0 247 97t93 261v735h108v-749q0 -202 -125 -324q-126 -123 -323 -123q-198 0 -324 123q-125 122 -125 324v749h109v-735q0 -164 93 -261t247 -97zM629 1720q94 0 157.5 -63.5t63.5 -157.5t-63.5 -157.5t-157.5 -63.5t-157.5 63.5t-63.5 157.5t63.5 157.5
t157.5 63.5zM629 1362q61 0 97 37.5t36 99.5t-36 99.5t-97 37.5t-97 -37.5t-36 -99.5t36 -99.5t97 -37.5z" />
    <glyph glyph-name="uring" unicode="&#x16f;" 
d="M561 70q99 0 187.5 69t150.5 193v536h107v-868h-107v147h-31q-56 -81 -141 -128.5t-176 -47.5q-160 0 -247 93.5t-87 263.5v540h107v-524q0 -134 60 -204t177 -70zM616 1468q94 0 158 -63.5t64 -157.5t-64 -157.5t-158 -63.5t-157.5 63.5t-63.5 157.5t63.5 157.5
t157.5 63.5zM616 1110q61 0 97.5 37.5t36.5 99.5t-36.5 99.5t-97.5 37.5t-97 -37.5t-36 -99.5t36 -99.5t97 -37.5z" />
    <glyph glyph-name="Uhungarumlaut" unicode="&#x170;" 
d="M629 74q154 0 247 97t93 261v735h108v-749q0 -202 -125 -324q-126 -123 -323 -123q-198 0 -324 123q-125 122 -125 324v749h109v-735q0 -164 93 -261t247 -97zM748 1618l-291 -322l-47 27l174 338h164v-43zM1110 1618l-291 -322l-47 27l174 338h164v-43z" />
    <glyph glyph-name="uhungarumlaut" unicode="&#x171;" 
d="M561 70q99 0 187.5 69t150.5 193v536h107v-868h-107v147h-31q-56 -81 -141 -128.5t-176 -47.5q-160 0 -247 93.5t-87 263.5v540h107v-524q0 -134 60 -204t177 -70zM702 1366l-288 -322l-45 27l174 338h159v-43zM1065 1366l-287 -322l-47 27l174 338h160v-43z" />
    <glyph glyph-name="Uogonek" unicode="&#x172;" 
d="M721 -471q-78 0 -123 42t-45 114q0 67 41 134.5t143 166.5q-53 -15 -108 -15q-198 0 -324 123q-125 122 -125 324v749h109v-735q0 -164 93 -261t247 -97t247 97t93 261v735h108v-749q0 -236 -200 -404q-228 -200 -228 -315q0 -38 22.5 -61t59.5 -23q39 0 86 26t90 74
l49 -69q-114 -117 -235 -117z" />
    <glyph glyph-name="uogonek" unicode="&#x173;" 
d="M854 -471q-78 0 -123 42t-45 114q0 63 43 133q42 68 170 196v133h-31q-56 -81 -141 -128.5t-176 -47.5q-160 0 -247 93.5t-87 263.5v540h107v-524q0 -134 60 -204t177 -70q99 0 187.5 69t150.5 193v536h107v-868q-135 -129 -179 -190q-45 -62 -45 -113q0 -38 21.5 -60
t58.5 -22q87 0 176 100l49 -69q-108 -117 -233 -117z" />
    <glyph glyph-name="Wcircumflex" unicode="&#x174;" 
d="M971 0h-148l-180 760h-27l-182 -760h-147l-226 1167h109l188 -995h27l182 766h125l185 -766h26l187 995h106zM387 1292l-49 31l205 338h172l205 -338l-48 -31l-223 254h-41z" />
    <glyph glyph-name="wcircumflex" unicode="&#x175;" 
d="M938 0h-129l-166 557h-27l-167 -557h-130l-225 868h101l184 -714h29l165 565h113l166 -565h29l186 714h96zM387 1047l-49 32l207 330h168l207 -330l-48 -32l-223 253h-41z" />
    <glyph glyph-name="Ycircumflex" unicode="&#x176;" 
d="M1014 1167h129l-461 -655v-512h-107v512l-462 655h131l356 -505h59zM387 1292l-49 31l205 338h172l205 -338l-48 -31l-223 254h-41z" />
    <glyph glyph-name="ycircumflex" unicode="&#x177;" 
d="M297 -309q76 0 133 57q54 51 145 232l-448 888h121l362 -735h41l363 735h119l-467 -921q-106 -208 -185 -281q-80 -74 -184 -74q-85 0 -152 47t-96 128l92 55q29 -69 65.5 -100t90.5 -31zM410 1047l-50 32l207 330h168l207 -330l-47 -32l-223 253h-41z" />
    <glyph glyph-name="Ydieresis" unicode="&#x178;" 
d="M1014 1167h129l-461 -655v-512h-107v512l-462 655h131l356 -505h59zM535 1434q0 -47 -33 -80t-80 -33t-81 33t-34 80t33.5 79.5t81.5 32.5q47 0 80 -32.5t33 -79.5zM950 1432q0 -45 -33.5 -79t-80.5 -34t-80 34t-33 79q0 49 31.5 80.5t81.5 31.5t82 -31.5t32 -80.5z" />
    <glyph glyph-name="Zacute" unicode="&#x179;" 
d="M1081 1059l-764 -922v-37h795v-100h-950v111l762 919v37h-736v100h893v-108zM926 1618l-316 -322l-45 27l176 338h185v-43z" />
    <glyph glyph-name="zacute" unicode="&#x17a;" 
d="M1042 756l-710 -625v-35h741v-96h-905v113l706 624v35h-679v96h847v-112zM905 1366l-295 -322l-45 27l174 338h166v-43z" />
    <glyph glyph-name="Zdotaccent" unicode="&#x17b;" 
d="M1081 1059l-764 -922v-37h795v-100h-950v111l762 919v37h-736v100h893v-108zM774 1434q0 -50 -34 -83.5t-85 -33.5q-49 0 -82.5 33.5t-33.5 83.5q0 51 33 84.5t83 33.5q51 0 85 -33.5t34 -84.5z" />
    <glyph glyph-name="zdotaccent" unicode="&#x17c;" 
d="M1042 756l-710 -625v-35h741v-96h-905v113l706 624v35h-679v96h847v-112zM756 1217q0 -50 -34 -83.5t-85 -33.5q-49 0 -83 34t-34 83q0 51 33.5 84.5t83.5 33.5q51 0 85 -33.5t34 -84.5z" />
    <glyph glyph-name="Zcaron" unicode="&#x17d;" 
d="M1081 1059l-764 -922v-37h795v-100h-950v111l762 919v37h-736v100h893v-108zM948 1649l-205 -338h-172l-204 338l49 30l221 -254h41l223 254z" />
    <glyph glyph-name="zcaron" unicode="&#x17e;" 
d="M1042 756l-710 -625v-35h741v-96h-905v113l706 624v35h-679v96h847v-112zM928 1391l-207 -330h-168l-207 330l49 32l221 -254h41l224 254z" />
    <glyph glyph-name="florin" unicode="&#x192;" 
d="M713 440l-29 -32l-45 -400q-20 -183 -104 -279t-224 -96q-96 0 -162.5 53t-95.5 152l97 39q38 -147 165 -147q92 0 144 68t69 208l43 397l-34 37h-222v92h271l32 289q20 183 104 279t224 96q96 0 162.5 -53t95.5 -152l-96 -39q-39 148 -166 148q-186 0 -213 -277
l-33 -291h273v-92h-256z" />
    <glyph glyph-name="Aringacute" unicode="&#x1fa;" 
d="M631 1534q94 0 157.5 -63.5t63.5 -157.5t-64 -158q-34 -34 -69 -47l448 -1108h-116l-154 387h-539l-153 -387h-115l447 1108q-36 19 -64 47q-63 63 -63 158q0 94 63.5 157.5t157.5 63.5zM608 1018l-202 -510l26 -27h391l27 27l-201 510h-41zM631 1176q61 0 97 37.5
t36 99.5t-36 99.5t-97 37.5t-97 -37.5t-36 -99.5t36 -99.5t97 -37.5zM915 1931l-315 -321l-45 26l176 338h184v-43z" />
    <glyph glyph-name="aringacute" unicode="&#x1fb;" 
d="M231 651l-55 86q86 78 195 119t227 41q160 0 243 -81t83 -236v-369q0 -66 27.5 -104.5t74.5 -38.5q72 0 135 75l53 -67q-91 -105 -200 -105q-70 0 -122.5 46.5t-62.5 119.5h-38q-161 -166 -361 -166q-127 0 -201.5 63t-74.5 169q0 103 82 168.5t270 107.5l315 74v29
q0 112 -56 165.5t-173 53.5q-95 0 -181.5 -35.5t-179.5 -114.5zM438 63q99 0 190 49t193 158v162l-35 25l-254 -60q-152 -36 -211 -78.5t-59 -109.5t48.5 -106.5t127.5 -39.5zM592 1425q94 0 157.5 -63.5t63.5 -157.5t-63.5 -157.5t-157.5 -63.5t-157.5 63.5t-63.5 157.5
t63.5 157.5t157.5 63.5zM592 1067q61 0 97 37.5t36 99.5t-36 99.5t-97 37.5t-97 -37.5t-36 -99.5t36 -99.5t97 -37.5zM874 1812l-315 -321l-45 27l176 337h184v-43z" />
    <glyph glyph-name="AEacute" unicode="&#x1fc;" 
d="M289 387l-164 -387h-113l496 1167h678v-100h-447v-410h357v-100h-357v-416l41 -41h426v-100h-573v387h-344zM578 1065l-236 -557l27 -27h264v584h-55zM1079 1618l-315 -322l-45 27l176 338h184v-43z" />
    <glyph glyph-name="aeacute" unicode="&#x1fd;" 
d="M1135 199l59 -68q-123 -160 -299 -160q-141 0 -242 119h-35q-132 -119 -286 -119q-125 0 -201 67t-76 179q0 133 125 208t348 75h19q9 102 49 186q-48 117 -188 117q-67 0 -137 -37t-126 -100l-53 73q57 73 142 115.5t176 42.5q147 0 225 -96h37q87 96 211 96
q145 0 231 -135q88 -131 88 -350h-565q6 -147 78 -248q72 -96 180 -96q69 0 126 31t114 100zM883 801q-96 0 -162 -82.5t-80 -218.5h424l25 32q-11 125 -66 197t-141 72zM158 219q0 -67 51.5 -111.5t126.5 -44.5q138 0 264 111q-48 95 -57 238h-17q-179 0 -273.5 -49.5
t-94.5 -143.5zM958 1366l-294 -322l-46 27l175 338h165v-43z" />
    <glyph glyph-name="Oslashacute" unicode="&#x1fe;" 
d="M1128 584q0 -267 -139 -441q-138 -172 -360 -172q-164 0 -289 101l-131 -183l-74 52l139 194q-69 85 -107 202t-38 247q0 266 139 440q138 172 361 172q180 0 317 -125l119 166l74 -51l-133 -185q122 -166 122 -417zM629 1100q-179 0 -287 -144q-106 -141 -106 -372
q0 -227 100 -363l524 729v66q-96 84 -231 84zM944 913l-518 -723v-61q85 -61 203 -61q177 0 284 143q109 145 109 373q0 191 -78 329zM928 1618l-316 -322l-45 27l176 338h185v-43z" />
    <glyph glyph-name="oslashacute" unicode="&#x1ff;" 
d="M1100 434q0 -200 -135 -332q-134 -131 -336 -131q-130 0 -246 64l-135 -172l-70 55l131 170q-151 136 -151 346q0 198 135 330q136 133 336 133q144 0 260 -72l123 158l69 -55l-123 -158q68 -63 105 -150.5t37 -185.5zM629 803q-156 0 -260 -107q-105 -105 -105 -262
t109 -266l430 551v43q-77 41 -174 41zM895 690l-428 -549v-41q72 -34 162 -34q156 0 260 104q104 107 104 264q0 150 -98 256zM895 1366l-295 -322l-45 27l174 338h166v-43z" />
    <glyph glyph-name="Scommaaccent" unicode="&#x218;" 
d="M653 74q154 0 249 65.5t95 173.5q0 157 -194 203l-301 74q-165 38 -237 106.5t-72 184.5q0 139 114 227q113 88 295 88q137 0 260.5 -49t220.5 -141l-69 -86q-181 178 -416 178q-134 0 -216.5 -58.5t-82.5 -154.5q0 -74 49.5 -118.5t171.5 -74.5l305 -74
q279 -70 279 -301q0 -155 -125 -249q-129 -97 -326 -97q-149 0 -287.5 47t-236.5 132l64 96q93 -84 211.5 -128t248.5 -44zM504 -260q0 47 32.5 80t77.5 33q47 0 80 -34t33 -81t-33 -86l-190 -238l-47 33l127 193q-35 8 -57.5 35.5t-22.5 64.5z" />
    <glyph glyph-name="scommaaccent" unicode="&#x219;" 
d="M932 231q0 54 -37.5 85.5t-124.5 48.5l-278 53q-147 29 -210 83t-63 148q0 110 103.5 179t267.5 69q132 0 243 -45t185 -131l-62 -86q-154 168 -368 168q-117 0 -190.5 -41.5t-73.5 -108.5q0 -55 41 -85.5t141 -49.5l297 -57q124 -26 178.5 -79t54.5 -146
q0 -118 -110 -191q-112 -74 -281 -74q-290 0 -473 174l66 93q87 -88 185 -130t222 -42q125 0 206 46t81 119zM506 -260q0 47 32.5 80t77.5 33q47 0 80 -34t33 -81t-33 -86l-190 -238l-47 33l127 193q-35 8 -57.5 35.5t-22.5 64.5z" />
    <glyph glyph-name="uni021A" unicode="&#x21a;" 
d="M1145 1167v-100h-420l-41 -41v-1026h-109v1026l-40 41h-420v100h1030zM522 -260q0 47 33 80t78 33q47 0 79.5 -33.5t32.5 -81.5t-32 -86l-191 -238l-47 33l127 193q-35 8 -57.5 35.5t-22.5 64.5z" />
    <glyph glyph-name="uni021B" unicode="&#x21b;" 
d="M346 399v338l-39 39h-217v92h256v312h109v-312h532v-92h-498l-36 -39v-321q0 -170 74.5 -258t217.5 -88q182 0 312 190l69 -72q-69 -105 -167.5 -161t-213.5 -56q-192 0 -295.5 110t-103.5 318zM594 -260q0 47 33 80t78 33q47 0 79.5 -33.5t32.5 -81.5q0 -47 -33 -86
l-190 -238l-47 33l127 193q-35 8 -57.5 35.5t-22.5 64.5z" />
    <glyph glyph-name="uni0237" unicode="&#x237;" 
d="M834 68v671l-39 37h-465v92h608v-817q0 -214 -108 -336.5t-295 -122.5q-129 0 -232.5 61.5t-146.5 164.5l84 59q100 -186 295 -186q146 0 222.5 96.5t76.5 280.5z" />
    <glyph glyph-name="circumflex" unicode="&#x2c6;" 
d="M387 1047l-49 32l207 330h168l207 -330l-48 -32l-223 253h-41z" />
    <glyph glyph-name="caron" unicode="&#x2c7;" 
d="M920 1391l-207 -330h-168l-207 330l49 32l221 -254h41l223 254z" />
    <glyph glyph-name="breve" unicode="&#x2d8;" 
d="M309 1360l76 18q23 -109 87 -169t157 -60t156.5 60t86.5 169l76 -18q-25 -153 -107.5 -235.5t-211.5 -82.5t-212 83t-108 235z" />
    <glyph glyph-name="dotaccent" unicode="&#x2d9;" 
d="M745 1217q0 -50 -33.5 -83.5t-84.5 -33.5q-49 0 -83 34t-34 83q0 51 33.5 84.5t83.5 33.5q51 0 84.5 -33.5t33.5 -84.5z" />
    <glyph glyph-name="ring" unicode="&#x2da;" 
d="M629 1468q94 0 157.5 -63.5t63.5 -157.5t-63.5 -157.5t-157.5 -63.5t-157.5 63.5t-63.5 157.5t63.5 157.5t157.5 63.5zM629 1110q61 0 97 37.5t36 99.5t-36 99.5t-97 37.5t-97 -37.5t-36 -99.5t36 -99.5t97 -37.5z" />
    <glyph glyph-name="ogonek" unicode="&#x2db;" 
d="M350 -315q0 68 56 145q64 84 239 250l60 -53q-172 -166 -218 -228q-41 -59 -41 -102q0 -38 22 -60t60 -22q40 0 87 26t90 74l49 -69q-114 -117 -236 -117q-78 0 -123 42t-45 114z" />
    <glyph glyph-name="tilde" unicode="&#x2dc;" 
d="M776 1165q51 0 83 42t32 108h94q0 -109 -55.5 -177.5t-143.5 -68.5q-39 0 -78 18t-100 68q-49 41 -75 54.5t-50 13.5q-51 0 -84.5 -42.5t-33.5 -105.5h-93q0 109 55.5 176.5t145.5 67.5q38 0 75.5 -17.5t96.5 -66.5q53 -42 79.5 -56t51.5 -14z" />
    <glyph glyph-name="hungarumlaut" unicode="&#x2dd;" 
d="M596 1366l-289 -322l-45 27l174 338h160v-43zM958 1366l-286 -322l-47 27l174 338h159v-43z" />
    <glyph glyph-name="Wgrave" unicode="&#x1e80;" 
d="M971 0h-148l-180 760h-27l-182 -760h-147l-226 1167h109l188 -995h27l182 766h125l185 -766h26l187 995h106zM332 1661h184l176 -338l-45 -27l-315 322v43z" />
    <glyph glyph-name="wgrave" unicode="&#x1e81;" 
d="M938 0h-129l-166 557h-27l-167 -557h-130l-225 868h101l184 -714h29l165 565h113l166 -565h29l186 714h96zM360 1409h166l174 -338l-45 -27l-295 322v43z" />
    <glyph glyph-name="Wacute" unicode="&#x1e82;" 
d="M971 0h-148l-180 760h-27l-182 -760h-147l-226 1167h109l188 -995h27l182 766h125l185 -766h26l187 995h106zM928 1618l-316 -322l-45 27l176 338h185v-43z" />
    <glyph glyph-name="wacute" unicode="&#x1e83;" 
d="M938 0h-129l-166 557h-27l-167 -557h-130l-225 868h101l184 -714h29l165 565h113l166 -565h29l186 714h96zM897 1366l-295 -322l-45 27l174 338h166v-43z" />
    <glyph glyph-name="Wdieresis" unicode="&#x1e84;" 
d="M971 0h-148l-180 760h-27l-182 -760h-147l-226 1167h109l188 -995h27l182 766h125l185 -766h26l187 995h106zM535 1434q0 -47 -33 -80t-80 -33t-81 33t-34 80t33.5 79.5t81.5 32.5q47 0 80 -32.5t33 -79.5zM950 1432q0 -45 -33.5 -79t-80.5 -34t-80 34t-33 79
q0 49 31.5 80.5t81.5 31.5t82 -31.5t32 -80.5z" />
    <glyph glyph-name="wdieresis" unicode="&#x1e85;" 
d="M938 0h-129l-166 557h-27l-167 -557h-130l-225 868h101l184 -714h29l165 565h113l166 -565h29l186 714h96zM950 1210q0 -47 -33.5 -79.5t-80.5 -32.5t-80 32.5t-33 79.5t33 80t80 33t80.5 -33t33.5 -80zM535 1210q0 -47 -32.5 -78.5t-80.5 -31.5q-47 0 -81 33t-34 77
q0 47 34 81t81 34t80 -34t33 -81z" />
    <glyph glyph-name="Ygrave" unicode="&#x1ef2;" 
d="M1014 1167h129l-461 -655v-512h-107v512l-462 655h131l356 -505h59zM332 1661h184l176 -338l-45 -27l-315 322v43z" />
    <glyph glyph-name="ygrave" unicode="&#x1ef3;" 
d="M297 -309q76 0 133 57q54 51 145 232l-448 888h121l362 -735h41l363 735h119l-467 -921q-106 -208 -185 -281q-80 -74 -184 -74q-85 0 -152 47t-96 128l92 55q29 -69 65.5 -100t90.5 -31zM383 1409h166l174 -338l-45 -27l-295 322v43z" />
    <glyph glyph-name="endash" unicode="&#x2013;" 
d="M961 616v-108h-664v108h664z" />
    <glyph glyph-name="emdash" unicode="&#x2014;" 
d="M1145 616v-108h-1032v108h1032z" />
    <glyph glyph-name="quoteleft" unicode="&#x2018;" 
d="M768 877q0 -58 -40 -99t-99 -41q-57 0 -98.5 41.5t-41.5 100.5q0 49 43 106l259 367l61 -41l-186 -310q47 -11 74.5 -44t27.5 -80z" />
    <glyph glyph-name="quoteright" unicode="&#x2019;" 
d="M489 1176q0 58 40.5 98.5t99.5 40.5q57 0 98 -40.5t41 -100.5q0 -50 -43 -107l-258 -367l-61 41l186 310q-47 11 -75 44.5t-28 80.5z" />
    <glyph glyph-name="quotesinglbase" unicode="&#x201a;" 
d="M489 133q0 58 40.5 98.5t99.5 40.5q57 0 98 -41t41 -100q0 -49 -43 -106l-258 -367l-61 41l186 309q-47 11 -75 44.5t-28 80.5z" />
    <glyph glyph-name="quotedblleft" unicode="&#x201c;" 
d="M526 877q0 -58 -40 -99t-99 -41q-57 0 -98 41t-41 101q0 49 43 106l258 367l61 -41l-186 -310q47 -11 74.5 -44t27.5 -80zM979 877q0 -58 -40 -99t-99 -41q-58 0 -99 41.5t-41 100.5q0 49 43 106l258 367l62 -41l-186 -310q47 -11 74.5 -44t27.5 -80z" />
    <glyph glyph-name="quotedblright" unicode="&#x201d;" 
d="M303 1176q0 58 40 98.5t99 40.5q58 0 99 -41t41 -100q0 -50 -43 -107l-258 -367l-62 41l187 310q-47 11 -75 44.5t-28 80.5zM756 1176q0 58 40 98.5t99 40.5q57 0 98 -40.5t41 -100.5q0 -50 -43 -107l-258 -367l-61 41l186 310q-47 10 -74.5 44t-27.5 81z" />
    <glyph glyph-name="quotedblbase" unicode="&#x201e;" 
d="M303 133q0 58 40 98.5t99 40.5q58 0 99 -41t41 -100q0 -49 -43 -106l-258 -367l-62 41l187 309q-47 11 -75 44.5t-28 80.5zM756 133q0 58 40 98.5t99 40.5q57 0 98 -41t41 -100q0 -49 -43 -106l-258 -367l-61 41l186 309q-47 10 -74.5 44t-27.5 81z" />
    <glyph glyph-name="dagger" unicode="&#x2020;" 
d="M956 1016v-90h-243l-37 -39v-391h-94v391l-35 39h-246v90h281v264h94v-264h280z" />
    <glyph glyph-name="daggerdbl" unicode="&#x2021;" 
d="M713 778h243v-88h-280v-194h-94v194h-281v88h246l35 41v139l-35 41h-246v88h281v193h94v-193h280v-88h-243l-37 -41v-139z" />
    <glyph glyph-name="bullet" unicode="&#x2022;" 
d="M629 936q149 0 254 -102q104 -101 104 -250q0 -147 -104 -248q-106 -103 -254 -103t-254 103q-103 103 -103 248q0 147 103 250q105 102 254 102z" />
    <glyph glyph-name="ellipsis" unicode="&#x2026;" 
d="M1036 -23q-54 0 -91.5 37.5t-37.5 91.5q0 56 37.5 95t91.5 39q55 0 93 -39t38 -95q0 -54 -38 -91.5t-93 -37.5zM629 -23q-54 0 -91.5 37.5t-37.5 91.5q0 56 37.5 95t91.5 39q55 0 93 -39t38 -95q0 -54 -38 -91.5t-93 -37.5zM221 -23q-54 0 -91.5 37.5t-37.5 91.5
q0 56 37.5 95t91.5 39q55 0 93 -39t38 -95q0 -54 -38 -91.5t-93 -37.5z" />
    <glyph glyph-name="perthousand" unicode="&#x2030;" 
d="M0 989q0 86 59.5 146.5t145.5 60.5q85 0 145 -60.5t60 -146.5q0 -85 -60 -144t-145 -59q-86 0 -145.5 59t-59.5 144zM63 -25l-63 37l713 1180l63 -37zM338 989q0 55 -39 94t-94 39t-93 -38.5t-38 -94.5q0 -55 37.5 -92t93.5 -37t94.5 37.5t38.5 91.5zM848 184
q0 86 59.5 145.5t145.5 59.5q85 0 144.5 -60t59.5 -145t-59.5 -143.5t-144.5 -58.5q-86 0 -145.5 58.5t-59.5 143.5zM356 184q0 86 59.5 145.5t145.5 59.5q85 0 145 -60t60 -145q0 -84 -60 -143t-145 -59q-86 0 -145.5 58.5t-59.5 143.5zM920 184q0 -55 38.5 -93t94.5 -38
t94.5 38t38.5 93q0 56 -39 94.5t-94 38.5t-94 -38.5t-39 -94.5zM428 184q0 -55 38.5 -93t94.5 -38t94.5 38t38.5 93q0 56 -39 94.5t-94 38.5t-94 -38.5t-39 -94.5z" />
    <glyph glyph-name="guilsinglleft" unicode="&#x2039;" 
d="M446 455l287 354l82 -66l-233 -288l233 -289l-82 -66z" />
    <glyph glyph-name="guilsinglright" unicode="&#x203a;" 
d="M524 809l287 -354l-287 -355l-82 66l234 289l-234 288z" />
    <glyph glyph-name="fraction" unicode="&#x2044;" 
d="M160 -20l-62 53l1002 1159l61 -53z" />
    <glyph glyph-name="uni2070" unicode="&#x2070;" 
d="M629 436q-148 0 -242 119q-92 121 -92 301q0 181 92 299q94 119 242 119t239 -119q95 -118 95 -299q0 -180 -95 -301q-91 -119 -239 -119zM629 530q105 0 168 89.5t63 236.5t-63 237.5t-168 90.5t-168.5 -90.5t-63.5 -237.5t63.5 -236.5t168.5 -89.5z" />
    <glyph glyph-name="uni2074" unicode="&#x2074;" 
d="M791 745h202v-81h-172l-30 -29v-191h-95v191l-30 29h-402v112l379 563l84 -45l-344 -514v-35h313v226h95v-226z" />
    <glyph glyph-name="uni2075" unicode="&#x2075;" 
d="M909 711q0 -155 -142.5 -259t-401.5 -141l-17 90q235 38 350 115t115 195q0 62 -43.5 102.5t-114.5 40.5q-106 0 -170 -82h-123l23 483h494v-92h-412l-16 -307q37 39 94 62.5t117 23.5q111 0 179 -65t68 -166z" />
    <glyph glyph-name="uni2076" unicode="&#x2076;" 
d="M639 993q119 0 199 -80q80 -77 80 -198q0 -115 -87 -199q-83 -80 -206 -80q-78 0 -144 34t-104 95q-49 77 -49 191q0 197 139 354t383 231l29 -88q-150 -41 -259.5 -125t-158.5 -196l18 -14q60 75 160 75zM625 524q84 0 141 55.5t57 135.5q0 82 -56.5 137t-141.5 55
q-80 0 -137.5 -56.5t-57.5 -135.5t57.5 -135t137.5 -56z" />
    <glyph glyph-name="uni2077" unicode="&#x2077;" 
d="M854 1137l-23 28h-538v90h674v-106l-426 -840l-86 39z" />
    <glyph glyph-name="uni2078" unicode="&#x2078;" 
d="M930 686q0 -110 -85 -179t-216 -69t-216 69t-85 179q0 66 38 117t105 76v24q-52 21 -84.5 70.5t-32.5 111.5q0 109 76 175.5t199 66.5t198.5 -66.5t75.5 -175.5q0 -62 -32.5 -111.5t-84.5 -70.5v-24q68 -25 106 -76t38 -117zM451 1085q0 -69 48 -110t130 -41t130 41
t48 110q0 72 -48 113t-130 41t-130 -41t-48 -113zM426 686q0 -73 55 -115.5t148 -42.5t147.5 42.5t54.5 115.5t-54 115.5t-148 42.5t-148.5 -42.5t-54.5 -115.5z" />
    <glyph glyph-name="uni2079" unicode="&#x2079;" 
d="M616 721q-119 0 -202 80q-80 80 -80 198q0 116 84 197q85 82 209 82q78 0 145 -34.5t105 -94.5q49 -77 49 -191q0 -216 -150 -391q-149 -178 -393 -248l-29 87q159 44 274.5 143t166.5 233l-17 15q-67 -76 -162 -76zM627 1190q-82 0 -138.5 -55.5t-56.5 -135.5
q0 -81 56.5 -136.5t138.5 -55.5q84 0 140 55t56 137t-55.5 136.5t-140.5 54.5z" />
    <glyph glyph-name="uni2080" unicode="&#x2080;" 
d="M629 -328q-148 0 -242 119q-92 121 -92 301q0 181 92 299q94 119 242 119t239 -119q95 -118 95 -299q0 -180 -95 -301q-91 -119 -239 -119zM629 -233q105 0 168 89t63 236t-63 237.5t-168 90.5t-168.5 -90.5t-63.5 -237.5t63.5 -236t168.5 -89z" />
    <glyph glyph-name="uni2081" unicode="&#x2081;" 
d="M606 377l-241 -166l-52 76l297 205h123v-799h-98v661z" />
    <glyph glyph-name="uni2082" unicode="&#x2082;" 
d="M627 418q-138 0 -252 -164l-76 57q62 95 147 147t181 52q123 0 196.5 -66t73.5 -176q0 -80 -55 -147t-226 -158q-124 -68 -163 -104q-44 -44 -52 -80h533v-86h-633v51q3 79 57 145q57 66 215 154q139 77 179 123q41 47 41 102q0 67 -46 108.5t-120 41.5z" />
    <glyph glyph-name="uni2083" unicode="&#x2083;" 
d="M899 -90q0 -149 -154 -244q-150 -99 -397 -117l-18 86q223 19 349 92t126 185q0 63 -42 99t-116 36q-15 0 -47 -4q-3 0 -104 -27l-29 78q152 42 217.5 88.5t65.5 110.5q0 61 -39 94t-109 33q-68 0 -130.5 -37t-106.5 -104l-68 53q51 82 133.5 130t173.5 48
q110 0 175 -57.5t65 -155.5q0 -103 -107 -168v-23q77 -17 119.5 -68.5t42.5 -127.5z" />
    <glyph glyph-name="uni2084" unicode="&#x2084;" 
d="M791 -18h202v-82h-172l-30 -29v-190h-95v190l-30 29h-402v112l379 563l84 -45l-344 -514v-34h313v225h95v-225z" />
    <glyph glyph-name="uni2085" unicode="&#x2085;" 
d="M909 -53q0 -155 -142.5 -259t-401.5 -141l-17 91q235 38 350 114.5t115 194.5q0 62 -43.5 102.5t-114.5 40.5q-106 0 -170 -82h-123l23 484h494v-93h-412l-16 -307q37 39 94 62.5t117 23.5q111 0 179 -65t68 -166z" />
    <glyph glyph-name="uni2086" unicode="&#x2086;" 
d="M639 229q120 0 199 -79q80 -77 80 -199q0 -116 -87 -197q-82 -82 -206 -82q-78 0 -144 34t-104 95q-49 77 -49 191q0 197 139 354q140 159 383 232l29 -89q-150 -41 -259.5 -125t-158.5 -196l18 -14q60 75 160 75zM625 -240q84 0 141 55.5t57 135.5q0 82 -56.5 137
t-141.5 55q-80 0 -137.5 -56.5t-57.5 -135.5t57.5 -135t137.5 -56z" />
    <glyph glyph-name="uni2087" unicode="&#x2087;" 
d="M854 373l-23 28h-538v91h674v-107l-426 -840l-86 39z" />
    <glyph glyph-name="uni2088" unicode="&#x2088;" 
d="M930 -78q0 -110 -85 -179t-216 -69t-216 69t-85 179q0 66 38 117t105 76v24q-52 21 -84.5 71t-32.5 112q0 109 76 175t199 66t198.5 -66t75.5 -175q0 -62 -32.5 -112t-84.5 -71v-24q68 -25 106 -76t38 -117zM451 322q0 -69 48 -110.5t130 -41.5t130 41.5t48 110.5
q0 72 -48 112.5t-130 40.5t-130 -40.5t-48 -112.5zM426 -78q0 -73 55 -115.5t148 -42.5t147.5 42.5t54.5 115.5t-54 115.5t-148 42.5t-148.5 -42.5t-54.5 -115.5z" />
    <glyph glyph-name="uni2089" unicode="&#x2089;" 
d="M616 -43q-119 0 -202 80q-80 80 -80 199q0 115 84 196q85 82 209 82q78 0 145 -34.5t105 -94.5q49 -77 49 -190q0 -216 -150 -392q-148 -177 -393 -247l-29 86q159 44 274.5 143t166.5 233l-17 15q-67 -76 -162 -76zM627 426q-82 0 -138.5 -55t-56.5 -135
q0 -82 56.5 -137.5t138.5 -55.5q84 0 140 55.5t56 137.5t-55.5 136t-140.5 54z" />
    <glyph glyph-name="Euro" unicode="&#x20ac;" 
d="M1077 289l82 -70q-82 -128 -181.5 -188t-229.5 -60q-186 0 -320.5 121.5t-177.5 325.5h-201l17 82h172q-1 18 -3 45t-2 39q0 9 2 35t3 47h-148l16 79h144q41 207 174 328q135 123 324 123q130 0 229.5 -60t181.5 -188l-82 -69q-69 110 -149 161.5t-180 51.5
q-137 0 -236.5 -80t-142.5 -226l32 -41h416l-14 -79h-457q-1 -17 -2 -35t-1.5 -28.5t-0.5 -18.5q0 -2 4 -84h432l-14 -82h-365l-28 -37q41 -146 139 -225.5t238 -79.5q100 0 180 51.5t149 161.5z" />
    <glyph glyph-name="trademark" unicode="&#x2122;" 
d="M745 1063h-18v-428h-78v532h129l90 -243h21l92 243h127v-532h-76v428h-20l-97 -246h-73zM356 1065v-430h-77v430l-29 31h-158v71h453v-71h-156z" />
    <glyph glyph-name="uni2153" unicode="&#x2153;" 
d="M375 1163l-178 -121l-45 68l225 154h106v-586h-86v467zM1057 977l76 -78l-428 -371l-29 31zM197 -14l-76 77l428 371l29 -31zM1155 -45q0 -105 -113 -177.5t-292 -84.5l-17 74q157 12 247.5 63.5t90.5 126.5q0 41 -27.5 64.5t-74.5 23.5q-52 0 -121 -27l-25 68
q116 36 162.5 68.5t46.5 74.5q0 41 -25.5 63.5t-72.5 22.5q-97 0 -170 -102l-59 47q38 63 100.5 100t130.5 37q82 0 130 -43.5t48 -117.5q0 -79 -70 -119v-21q54 -13 82.5 -50t28.5 -91z" />
    <glyph glyph-name="uni2154" unicode="&#x2154;" 
d="M342 1204q-100 0 -182 -119l-68 50q44 72 110 111.5t140 39.5q92 0 147.5 -49t55.5 -131q0 -65 -43.5 -114t-165.5 -109q-82 -42 -112 -67.5t-38 -53.5h381v-76h-471v39q2 65 44.5 115t160.5 110q90 49 121 81.5t31 70.5q0 47 -30.5 74.5t-80.5 27.5zM1057 977l76 -78
l-428 -371l-29 31zM197 -14l-76 77l428 371l29 -31zM1155 -45q0 -105 -113 -177.5t-292 -84.5l-17 74q157 12 247.5 63.5t90.5 126.5q0 41 -27.5 64.5t-74.5 23.5q-52 0 -121 -27l-25 68q116 36 162.5 68.5t46.5 74.5q0 41 -25.5 63.5t-72.5 22.5q-97 0 -170 -102l-59 47
q38 63 100.5 100t130.5 37q82 0 130 -43.5t48 -117.5q0 -79 -70 -119v-21q54 -13 82.5 -50t28.5 -91z" />
    <glyph glyph-name="uni215B" unicode="&#x215b;" 
d="M375 1163l-178 -121l-45 68l225 154h106v-586h-86v467zM1057 977l76 -78l-428 -371l-29 31zM197 -14l-76 77l428 371l29 -31zM1176 -80q0 -79 -64.5 -129.5t-161.5 -50.5t-161 51t-64 129q0 101 106 143v19q-39 18 -62.5 52.5t-23.5 80.5q0 79 57 128.5t148 49.5t149 -50
t58 -128q0 -44 -23.5 -80t-62.5 -53v-19q105 -43 105 -143zM950 109q55 0 89 28.5t34 73.5q0 49 -33.5 77.5t-89.5 28.5t-89.5 -28.5t-33.5 -77.5q0 -44 34.5 -73t88.5 -29zM950 33q-63 0 -101 -30t-38 -81q0 -47 38.5 -76.5t100.5 -29.5t101 28.5t39 77.5q0 54 -36.5 82.5
t-103.5 28.5z" />
    <glyph glyph-name="uni215C" unicode="&#x215c;" 
d="M539 838q0 -105 -113.5 -178t-294.5 -85l-16 74q157 12 247.5 63.5t90.5 127.5q0 41 -27.5 64.5t-75.5 23.5q-45 0 -119 -27l-26 66q118 37 163.5 69.5t45.5 75.5q0 86 -99 86q-48 0 -92 -26.5t-76 -75.5l-59 47q41 63 103 100t128 37q82 0 130.5 -44t48.5 -118t-72 -121
v-18q54 -14 83.5 -50.5t29.5 -90.5zM1057 977l76 -78l-428 -371l-29 31zM197 -14l-76 77l428 371l29 -31zM1176 -80q0 -79 -64.5 -129.5t-161.5 -50.5t-161 51t-64 129q0 101 106 143v19q-39 18 -62.5 52.5t-23.5 80.5q0 79 57 128.5t148 49.5t149 -50t58 -128
q0 -44 -23.5 -80t-62.5 -53v-19q105 -43 105 -143zM950 109q55 0 89 28.5t34 73.5q0 49 -33.5 77.5t-89.5 28.5t-89.5 -28.5t-33.5 -77.5q0 -44 34.5 -73t88.5 -29zM950 33q-63 0 -101 -30t-38 -81q0 -47 38.5 -76.5t100.5 -29.5t101 28.5t39 77.5q0 54 -36.5 82.5
t-103.5 28.5z" />
    <glyph glyph-name="uni215D" unicode="&#x215d;" 
d="M520 854q0 -114 -104.5 -190t-292.5 -103l-17 78q330 53 330 215q0 41 -29 68.5t-73 27.5q-66 0 -111 -59h-104l14 362h365v-79h-291l-8 -185l16 -6q49 43 125 43q81 0 130.5 -48t49.5 -124zM1057 977l76 -78l-428 -371l-29 31zM197 -14l-76 77l428 371l29 -31zM1176 -80
q0 -79 -64.5 -129.5t-161.5 -50.5t-161 51t-64 129q0 101 106 143v19q-39 18 -62.5 52.5t-23.5 80.5q0 79 57 128.5t148 49.5t149 -50t58 -128q0 -44 -23.5 -80t-62.5 -53v-19q105 -43 105 -143zM950 109q55 0 89 28.5t34 73.5q0 49 -33.5 77.5t-89.5 28.5t-89.5 -28.5
t-33.5 -77.5q0 -44 34.5 -73t88.5 -29zM950 33q-63 0 -101 -30t-38 -81q0 -47 38.5 -76.5t100.5 -29.5t101 28.5t39 77.5q0 54 -36.5 82.5t-103.5 28.5z" />
    <glyph glyph-name="uni215E" unicode="&#x215e;" 
d="M506 1151l-19 25h-374v79h491v-94l-311 -600l-76 35zM1057 977l76 -78l-428 -371l-29 31zM197 -14l-76 77l428 371l29 -31zM1176 -80q0 -79 -64.5 -129.5t-161.5 -50.5t-161 51t-64 129q0 101 106 143v19q-39 18 -62.5 52.5t-23.5 80.5q0 79 57 128.5t148 49.5t149 -50
t58 -128q0 -44 -23.5 -80t-62.5 -53v-19q105 -43 105 -143zM950 109q55 0 89 28.5t34 73.5q0 49 -33.5 77.5t-89.5 28.5t-89.5 -28.5t-33.5 -77.5q0 -44 34.5 -73t88.5 -29zM950 33q-63 0 -101 -30t-38 -81q0 -47 38.5 -76.5t100.5 -29.5t101 28.5t39 77.5q0 54 -36.5 82.5
t-103.5 28.5z" />
    <glyph glyph-name="arrowleft" unicode="&#x2190;" 
d="M301 510v-27l338 -377l-74 -69l-463 524l463 524l74 -69l-338 -375v-27h854v-104h-854z" />
    <glyph glyph-name="arrowup" unicode="&#x2191;" 
d="M709 924h-27v-854h-104v854h-27l-377 -338l-70 73l525 463l524 -463l-70 -73z" />
    <glyph glyph-name="arrowright" unicode="&#x2192;" 
d="M956 483v27h-854v104h854v27l-338 375l74 69l463 -524l-463 -524l-74 69z" />
    <glyph glyph-name="arrowdown" unicode="&#x2193;" 
d="M682 268h27l374 338l70 -74l-524 -462l-525 462l70 74l377 -338h27v854h104v-854z" />
    <glyph glyph-name="minus" unicode="&#x2212;" 
d="M1077 600v-94h-897v94h897z" />
    <glyph glyph-name="approxequal" unicode="&#x2248;" 
d="M1069 801l43 -76q-66 -61 -139 -96t-135 -35q-43 0 -86.5 12t-122.5 47q-79 36 -122 48t-83 12q-109 0 -236 -109l-43 76q66 62 140 97.5t135 35.5q44 0 87.5 -12t121.5 -49q79 -36 122 -48t83 -12q108 0 235 109zM1069 496l43 -76q-66 -61 -139 -96t-135 -35
q-43 0 -86.5 12t-122.5 47q-79 36 -122 48t-83 12q-109 0 -236 -109l-43 76q66 62 140 97.5t135 35.5q43 0 86.5 -12.5t122.5 -49.5q78 -35 121.5 -47t83.5 -12q108 0 235 109z" />
    <glyph glyph-name="notequal" unicode="&#x2260;" 
d="M618 451h461v-89h-553l-192 -249l-64 45l158 204h-250v89h320l131 170v38h-451v91h549l182 237l64 -45l-150 -192h256v-91h-325l-136 -176v-32z" />
    <glyph glyph-name="lessequal" unicode="&#x2264;" 
d="M1020 393v-104l-795 350v102l795 351v-105l-639 -278v-37zM1020 162v-92h-795v92h795z" />
    <glyph glyph-name="greaterequal" unicode="&#x2265;" 
d="M238 289v104l639 279v37l-639 278v105l794 -351v-102zM238 70v92h794v-92h-794z" />
    <glyph glyph-name="spade" unicode="&#x2660;" 
d="M678 131l39 -39h219v-92h-614v92h219l39 39v301h-25q-31 -83 -91.5 -129.5t-139.5 -46.5q-107 0 -176.5 68t-69.5 176q0 73 35 141q40 72 168 203q102 102 174 188q50 63 112 156h125q59 -86 111 -154q68 -81 174 -190q130 -133 166 -203q37 -67 37 -141
q0 -108 -69.5 -176t-176.5 -68q-79 0 -140 47t-92 129h-24v-301z" />
    <glyph glyph-name="uni2661" unicode="&#x2661;" 
d="M362 1194q88 0 153.5 -48.5t102.5 -141.5h21q37 93 102.5 141.5t153.5 48.5q124 0 201.5 -85t77.5 -222q0 -86 -33 -162q-31 -78 -154 -254q-107 -150 -178 -268q-75 -126 -125 -223h-111q-56 109 -124 223q-66 110 -179 268q-113 162 -155 254q-31 82 -31 162
q0 137 77 222t201 85zM1071 889q0 93 -48.5 150t-129.5 57q-74 0 -124.5 -49.5t-94.5 -167.5h-88q-47 119 -97.5 168t-123.5 49q-81 0 -130 -57t-49 -150q0 -75 33 -148q35 -77 158 -256q89 -129 141 -215q34 -52 94 -157h35q51 93 92 159q42 68 142 215q117 170 155 254
q35 78 35 148z" />
    <glyph glyph-name="uni2662" unicode="&#x2662;" 
d="M1118 557l-444 -586h-90l-445 586v53l445 586h90l444 -586v-53zM649 102l357 482l-357 481h-41l-356 -481l356 -482h41z" />
    <glyph glyph-name="club" unicode="&#x2663;" 
d="M680 131l39 -39h219v-92h-612v92h217l39 39v303h-23q-31 -83 -92.5 -130.5t-142.5 -47.5q-104 0 -171 68t-67 172q0 129 100 198q102 73 236 43l16 27q-73 79 -73 176q0 106 77 180q76 76 189 76q114 0 190 -76q78 -75 78 -180q0 -97 -76 -176l19 -27q132 30 233 -43
q103 -71 103 -198q0 -105 -67.5 -172.5t-172.5 -67.5q-79 0 -140.5 47.5t-92.5 130.5h-25v-303z" />
    <glyph glyph-name="uni2664" unicode="&#x2664;" 
d="M678 131l39 -39h219v-92h-614v92h219l39 39v301h-25q-31 -83 -91.5 -129.5t-139.5 -46.5q-107 0 -176.5 68t-69.5 176q0 73 35 141q40 72 168 203q102 102 174 188q50 63 112 156h125q59 -86 111 -154q68 -81 174 -190q130 -133 166 -203q37 -67 37 -141
q0 -108 -69.5 -176t-176.5 -68q-79 0 -140 47t-92 129h-24v-301zM881 815q-95 95 -144 150q-77 96 -88 112h-39q-36 -50 -90 -110q-46 -55 -141 -150q-130 -133 -166 -192q-35 -62 -35 -123q0 -69 45 -113.5t113 -44.5q67 0 119 49q58 58 125 201h98q67 -143 125 -201
q52 -49 121 -49q67 0 111 45t44 113q0 62 -37 123q-33 59 -161 190z" />
    <glyph glyph-name="heart" unicode="&#x2665;" 
d="M362 1194q88 0 153.5 -48.5t102.5 -141.5h21q37 93 102.5 141.5t153.5 48.5q124 0 201.5 -85t77.5 -222q0 -86 -33 -162q-31 -78 -154 -254q-107 -150 -178 -268q-75 -126 -125 -223h-111q-56 109 -124 223q-66 110 -179 268q-113 162 -155 254q-31 82 -31 162
q0 137 77 222t201 85z" />
    <glyph glyph-name="diamond" unicode="&#x2666;" 
d="M1118 557l-444 -586h-90l-445 586v53l445 586h90l444 -586v-53z" />
    <glyph glyph-name="uni2667" unicode="&#x2667;" 
d="M680 131l39 -39h219v-92h-612v92h217l39 39v303h-23q-31 -83 -92.5 -130.5t-142.5 -47.5q-104 0 -171 68t-67 172q0 129 100 198q102 73 236 43l16 27q-73 79 -73 176q0 106 77 180q76 76 189 76q114 0 190 -76q78 -75 78 -180q0 -97 -76 -176l19 -27q132 30 233 -43
q103 -71 103 -198q0 -105 -67.5 -172.5t-172.5 -67.5q-79 0 -140.5 47.5t-92.5 130.5h-25v-303zM809 928q0 73 -51.5 123.5t-126.5 50.5q-74 0 -125 -50.5t-51 -123.5q0 -87 90 -193l-49 -78q-135 38 -226 -8q-90 -47 -90 -145q0 -69 45.5 -114.5t114.5 -45.5q72 0 130 59.5
t114 190.5h96q56 -131 114 -190.5t130 -59.5q69 0 113 44t44 116q0 98 -90 145q-88 46 -223 8l-49 78q90 106 90 193z" />
    <glyph glyph-name="commaaccent" unicode="&#xf6c3;" 
d="M537 -260q0 47 32.5 80t77.5 33q47 0 80 -34t33 -81t-33 -86l-190 -238l-48 33l127 193q-35 7 -57 35t-22 65z" />
    <glyph glyph-name="idotaccent" 
d="M219 868h496v-737l39 -39h340v-92h-875v92h359l38 39v606l-38 39h-359v92zM762 1217q0 -50 -34 -83.5t-85 -33.5q-49 0 -83 34t-34 83q0 51 33.5 84.5t83.5 33.5q51 0 85 -33.5t34 -84.5z" />
    <glyph glyph-name="a.ord" 
d="M344 993l-47 78q129 117 315 117q117 0 178.5 -57.5t61.5 -167.5v-261q0 -39 16 -61.5t45 -22.5q41 0 93 52l45 -62q-67 -78 -152 -78q-48 0 -85.5 31t-47.5 80h-33q-114 -111 -252 -111q-92 0 -145 44t-53 122q0 72 56 119t177 76l244 59v17q0 135 -154 135
q-132 0 -262 -109zM492 612q125 0 268 140v94l-27 18l-188 -43q-90 -23 -127 -50t-37 -69t30 -66t81 -24z" />
    <glyph glyph-name="b.ord" 
d="M338 1442h96v-359h29q37 50 95.5 77.5t125.5 27.5q133 0 221 -94q90 -96 90 -234q0 -139 -90 -235q-89 -95 -221 -95q-67 0 -125.5 27.5t-95.5 77.5h-29v-84h-96v891zM674 618q98 0 160.5 68.5t62.5 173.5t-62.5 172.5t-160.5 67.5q-155 0 -240 -164v-154
q85 -164 240 -164z" />
    <glyph glyph-name="c.ord" 
d="M653 1100q-114 0 -185 -67.5t-71 -172.5t71 -173.5t185 -68.5q132 0 232 121l65 -65q-111 -144 -297 -144q-151 0 -254 95q-102 94 -102 235q0 140 102 234q101 94 254 94q186 0 297 -144l-67 -65q-97 121 -230 121z" />
    <glyph glyph-name="d.ord" 
d="M573 1188q68 0 127.5 -28t96.5 -77h26v359h97v-891h-97v84h-26q-37 -49 -96.5 -77t-127.5 -28q-134 0 -223 95q-88 94 -88 235q0 140 88 234t223 94zM584 1100q-98 0 -160 -67.5t-62 -172.5t63 -173.5t159 -68.5q153 0 239 164v154q-86 164 -239 164z" />
    <glyph glyph-name="e.ord" 
d="M889 713l49 -66q-129 -117 -297 -117q-147 0 -250 95q-98 94 -98 235q0 138 96 234q98 94 244 94q148 0 239 -99t91 -255h-547l-25 -19q14 -88 83 -142.5t167 -54.5q136 0 248 95zM395 928l23 -17h416l16 29q-24 75 -81.5 118.5t-135.5 43.5q-86 0 -152 -48t-86 -126z
" />
    <glyph glyph-name="f.ord" 
d="M797 1462q88 0 157 -38.5t107 -110.5l-72 -58q-61 119 -192 119q-94 0 -149.5 -54.5t-61.5 -152.5h307v-82h-281l-28 -28v-506h-97v506l-28 28h-152v82h182q7 134 92 214.5t216 80.5z" />
    <glyph glyph-name="g.ord" 
d="M823 586v61h-26q-37 -47 -96 -73.5t-128 -26.5q-135 0 -225 90q-88 91 -88 229q0 139 88 230q89 92 225 92q67 0 127 -27.5t97 -75.5h26v82h97v-583q0 -148 -98 -237t-255 -89q-102 0 -185.5 38.5t-131.5 106.5l63 66q42 -60 110 -93.5t144 -33.5q119 0 187.5 64.5
t68.5 179.5zM360 866q0 -103 63 -168t161 -65q152 0 239 162v143q-84 162 -239 162q-98 0 -161 -65.5t-63 -168.5z" />
    <glyph glyph-name="h.ord" 
d="M678 1100q-66 0 -126.5 -47t-107.5 -135v-367h-96v891h96v-369h29q36 53 94.5 84t120.5 31q116 0 179 -66.5t63 -187.5v-383h-96v367q0 90 -40 136t-116 46z" />
    <glyph glyph-name="i.ord" 
d="M731 1413q0 -41 -27.5 -68.5t-68.5 -27.5q-39 0 -66.5 27.5t-27.5 68.5t27.5 68.5t66.5 27.5q41 0 68.5 -27.5t27.5 -68.5zM334 1167h368v-503l29 -31h230v-82h-627v82h250l30 31v391l-30 30h-250v82z" />
    <glyph glyph-name="j.ord" 
d="M788 1317q-38 0 -66 29t-28 67t28 67t66 29q41 0 69 -27.5t28 -68.5t-28 -68.5t-69 -27.5zM764 602v449l-33 30h-311v86h438v-579q0 -153 -78.5 -240.5t-214.5 -87.5q-92 0 -167.5 44t-110.5 118l71 55q72 -129 207 -129q98 0 148.5 64.5t50.5 189.5z" />
    <glyph glyph-name="k.ord" 
d="M674 887l313 -336h-121l-278 293l-144 -119v-174h-96v891h96v-586h25l375 311h135l-305 -254v-26z" />
    <glyph glyph-name="l.ord" 
d="M334 1442h368v-778l29 -31h230v-82h-627v82h250l30 31v667l-30 31h-250v80z" />
    <glyph glyph-name="m.ord" 
d="M983 1016v-465h-94v438q0 107 -74 107q-37 0 -69 -33t-68 -111v-401h-94v438q0 107 -74 107q-37 0 -68.5 -33.5t-66.5 -110.5v-401h-96v616h96v-67h18q64 88 146 88q90 0 129 -92h22q64 92 150 92q67 0 105 -46t38 -126z" />
    <glyph glyph-name="n.ord" 
d="M678 1100q-66 0 -126.5 -47t-107.5 -135v-367h-96v616h96v-94h29q36 53 94.5 84t120.5 31q116 0 179 -66.5t63 -187.5v-383h-96v367q0 90 -40 136t-116 46z" />
    <glyph glyph-name="o.ord" 
d="M629 530q-144 0 -244 95q-96 96 -96 235q0 138 96 234q98 94 244 94q147 0 241 -94q99 -95 99 -234q0 -140 -99 -235q-95 -95 -241 -95zM629 618q105 0 173 68.5t68 173.5q0 104 -68.5 172t-172.5 68t-173 -68t-69 -172q0 -105 68.5 -173.5t173.5 -68.5z" />
    <glyph glyph-name="p.ord" 
d="M463 635h-29v-356h-96v888h96v-84h29q37 50 95.5 77.5t125.5 27.5q133 0 221 -94q90 -96 90 -234q0 -139 -90 -235q-89 -95 -221 -95q-67 0 -125.5 27.5t-95.5 77.5zM674 618q98 0 160.5 68.5t62.5 173.5t-62.5 172.5t-160.5 67.5q-155 0 -240 -164v-154
q85 -164 240 -164z" />
    <glyph glyph-name="q.ord" 
d="M920 1167v-888h-97v356h-26q-37 -49 -96.5 -77t-127.5 -28q-134 0 -223 95q-88 94 -88 235q0 140 88 234t223 94q68 0 127.5 -28t96.5 -77h26v84h97zM584 1100q-98 0 -160 -67.5t-62 -172.5t63 -173.5t159 -68.5q153 0 239 164v154q-86 164 -239 164z" />
    <glyph glyph-name="r.ord" 
d="M768 1188q187 0 227 -217l-88 -35q-17 82 -54.5 121t-98.5 39q-114 0 -279 -205v-340h-96v616h96v-131h29q137 152 264 152z" />
    <glyph glyph-name="s.ord" 
d="M834 717q0 36 -22 54t-83 30l-201 37q-103 19 -149.5 59t-46.5 109q0 82 75 132t197 50q191 0 303 -115l-49 -80q-109 109 -258 109q-78 0 -125 -24.5t-47 -67.5q0 -36 26 -55t91 -31l217 -41q86 -17 126 -56t40 -106q0 -84 -81 -137.5t-206 -53.5q-209 0 -342 115l53 86
q67 -61 135 -88t156 -27q84 0 137.5 28.5t53.5 72.5z" />
    <glyph glyph-name="t.ord" 
d="M428 829v226l-31 28h-151v84h182v217h98v-217h357v-84h-328l-31 -28v-211q0 -110 48.5 -168t140.5 -58q65 0 117 33t100 103l61 -68q-106 -156 -278 -156q-137 0 -211 76.5t-74 222.5z" />
    <glyph glyph-name="u.ord" 
d="M580 618q128 0 231 183v366h98v-616h-98v96h-27q-37 -54 -94.5 -85.5t-120.5 -31.5q-116 0 -179.5 66.5t-63.5 187.5v383h98v-366q0 -90 40 -136.5t116 -46.5z" />
    <glyph glyph-name="v.ord" 
d="M893 1167h108l-317 -616h-111l-315 616h111l245 -493h33z" />
    <glyph glyph-name="w.ord" 
d="M862 551h-117l-106 379h-21l-106 -379h-117l-159 616h90l125 -485h22l107 385h102l104 -385h25l125 485h88z" />
    <glyph glyph-name="x.ord" 
d="M690 866l297 -315h-127l-211 229h-41l-213 -229h-123l295 311l-291 305h130l204 -219h39l203 219h125z" />
    <glyph glyph-name="y.ord" 
d="M399 348q48 0 86 35q39 36 97 149l-324 635h111l245 -497h33l246 497h108l-329 -647q-76 -152 -137 -207q-59 -53 -136 -53q-64 0 -114 33t-74 94l78 51q39 -90 110 -90z" />
    <glyph glyph-name="z.ord" 
d="M932 1067l-483 -401v-29h503v-86h-655v100l479 402v28h-461v86h617v-100z" />
    <glyph glyph-name="caron.Slovak" 
d="M801 1325l-279 -340l-43 27l150 356h172v-43z" />
    <glyph glyph-name="commaturn" 
d="M721 1186q0 -45 -31 -77t-78 -32q-45 0 -76.5 32t-31.5 79q0 38 31 84l190 244l51 -33l-127 -197q32 -14 52 -41t20 -59z" />
    <glyph glyph-name="grave.cap" 
d="M424 1661h184l176 -338l-45 -27l-315 322v43z" />
    <glyph glyph-name="acute.cap" 
d="M834 1618l-316 -322l-45 27l176 338h185v-43z" />
    <glyph glyph-name="circumflex.cap" 
d="M387 1292l-49 31l205 338h172l205 -338l-48 -31l-223 254h-41z" />
    <glyph glyph-name="caron.cap" 
d="M920 1649l-205 -338h-172l-205 338l49 30l221 -254h41l223 254z" />
    <glyph glyph-name="tilde.cap" 
d="M776 1409q51 0 83 42t32 108h94q0 -109 -55.5 -177.5t-143.5 -68.5q-39 0 -78 18t-100 68q-49 41 -74.5 54t-50.5 13q-51 0 -84.5 -42t-33.5 -105h-93q0 109 55.5 176.5t145.5 67.5q38 0 75.5 -17.5t96.5 -66.5q53 -42 79.5 -56t51.5 -14z" />
    <glyph glyph-name="macron.cap" 
d="M936 1452v-98h-614v98h614z" />
    <glyph glyph-name="breve.cap" 
d="M309 1604l76 18q23 -110 86.5 -169.5t157.5 -59.5t157 59.5t86 169.5l76 -18q-25 -153 -107.5 -235.5t-211.5 -82.5t-212 83t-108 235z" />
    <glyph glyph-name="dotaccent.cap" 
d="M745 1434q0 -50 -33.5 -83.5t-84.5 -33.5q-49 0 -83 33.5t-34 83.5q0 51 33.5 84.5t83.5 33.5q51 0 84.5 -33.5t33.5 -84.5z" />
    <glyph glyph-name="dieresis.cap" 
d="M535 1434q0 -47 -33 -80t-80 -33t-81 33t-34 80t33.5 79.5t81.5 32.5q47 0 80 -32.5t33 -79.5zM950 1432q0 -45 -33.5 -79t-80.5 -34t-80 34t-33 79q0 49 31.5 80.5t81.5 31.5t82 -31.5t32 -80.5z" />
    <glyph glyph-name="ring.cap" 
d="M629 1720q94 0 157.5 -63.5t63.5 -157.5t-63.5 -157.5t-157.5 -63.5t-157.5 63.5t-63.5 157.5t63.5 157.5t157.5 63.5zM629 1362q61 0 97 37.5t36 99.5t-36 99.5t-97 37.5t-97 -37.5t-36 -99.5t36 -99.5t97 -37.5z" />
    <glyph glyph-name="hungarumlaut.cap" 
d="M600 1618l-291 -322l-47 27l174 338h164v-43zM963 1618l-291 -322l-47 27l174 338h164v-43z" />
    <glyph glyph-name="exclamdown.cap" 
d="M543 125l55 647h59l58 -647v-125h-172v125zM500 1059q0 55 37.5 93t91.5 38t91.5 -38t37.5 -93q0 -54 -37.5 -91.5t-91.5 -37.5t-91.5 37.5t-37.5 91.5z" />
    <glyph glyph-name="questiondown.cap" 
d="M332 295q0 -102 78.5 -163.5t207.5 -61.5q121 0 224.5 65t169.5 182l86 -53q-72 -134 -202.5 -213.5t-277.5 -79.5q-180 0 -288.5 88t-108.5 236q0 134 95 219.5t298 132.5v146h115v-211q-225 -49 -313 -115q-84 -66 -84 -172zM672 1190q55 0 92 -37.5t37 -93.5
q0 -55 -36.5 -92t-92.5 -37q-54 0 -91.5 37.5t-37.5 91.5q0 55 37.5 93t91.5 38z" />
    <glyph glyph-name="guilsinglleft.cap" 
d="M446 612l287 355l82 -66l-233 -289l233 -288l-82 -66z" />
    <glyph glyph-name="guilsinglright.cap" 
d="M524 967l287 -355l-287 -354l-82 66l234 288l-234 289z" />
    <glyph glyph-name="guillemotleft.cap" 
d="M915 967l82 -66l-233 -289l233 -288l-82 -66l-286 354zM487 967l82 -66l-233 -289l233 -288l-82 -66l-286 354z" />
    <glyph glyph-name="guillemotright.cap" 
d="M260 901l82 66l287 -355l-287 -354l-82 66l234 288zM688 901l82 66l287 -355l-287 -354l-82 66l234 288z" />
    <glyph glyph-name="slash.cap" 
d="M1112 1292l-876 -1525l-91 47l877 1525z" />
    <glyph glyph-name="backslash.cap" 
d="M1022 -233l-877 1525l91 47l876 -1525z" />
    <glyph glyph-name="bar.cap" 
d="M575 -227v1550h107v-1550h-107z" />
    <glyph glyph-name="parenleft.cap" 
d="M860 1393l58 -80q-226 -135 -346.5 -328.5t-120.5 -419.5t119.5 -418t344.5 -327l-55 -82q-252 152 -383 363t-131 464q0 254 131 465t383 363z" />
    <glyph glyph-name="parenright.cap" 
d="M807 565q0 226 -120.5 419.5t-346.5 328.5l57 80q252 -152 383 -363t131 -465q0 -253 -131 -464t-383 -363l-55 82q226 135 345.5 327t119.5 418z" />
    <glyph glyph-name="bracketleft.cap" 
d="M952 1372v-94h-446v-1428h446v-94h-542v1616h542z" />
    <glyph glyph-name="bracketright.cap" 
d="M305 -150h447v1428h-447v94h543v-1616h-543v94z" />
    <glyph glyph-name="braceleft.cap" 
d="M532 420v-479q0 -91 86 -91h334v-94h-327q-82 0 -135.5 54.5t-53.5 138.5v469q0 44 -28.5 70t-75.5 26h-142v98h142q47 0 75.5 26.5t28.5 70.5v471q0 84 53.5 138t135.5 54h327v-94h-334q-86 0 -86 -90v-481q0 -74 -53 -121v-45q53 -47 53 -121z" />
    <glyph glyph-name="braceright.cap" 
d="M725 -59v479q0 74 53 121v45q-53 47 -53 121v481q0 90 -86 90h-334v94h328q82 0 135 -54t53 -138v-471q0 -44 29 -70.5t76 -26.5h141v-98h-141q-48 0 -76.5 -26t-28.5 -70v-469q0 -85 -53 -139t-135 -54h-328v94h334q86 0 86 91z" />
    <glyph glyph-name="published" 
d="M629 12q-237 0 -406 166q-168 168 -168 404t168 401q168 168 406 168q237 0 405 -168q168 -165 168 -401t-168 -404q-169 -166 -405 -166zM1135 582q0 204 -150 354q-149 149 -356 149q-206 0 -355 -149q-149 -146 -149 -354q0 -206 147 -353q150 -147 357 -147
q206 0 356 147t150 353zM905 702q0 -90 -62 -137t-181 -47h-154v-252h-80v621h234q119 0 181 -47t62 -138zM823 702q0 111 -166 111h-127l-22 -22v-201h149q166 0 166 112z" />
    <glyph glyph-name="zero.dnom" 
d="M629 -20q-149 0 -242 118q-92 121 -92 301q0 181 92 299q94 119 242 119t239 -119q95 -118 95 -299q0 -180 -95 -301q-90 -118 -239 -118zM629 74q105 0 168 89t63 236t-63 237.5t-168 90.5t-168.5 -90.5t-63.5 -237.5t63.5 -236t168.5 -89z" />
    <glyph glyph-name="one.dnom" 
d="M606 684l-241 -166l-52 76l297 205h123v-799h-98v662z" />
    <glyph glyph-name="two.dnom" 
d="M627 725q-138 0 -252 -164l-76 57q62 95 147 147t181 52q123 0 196.5 -66t73.5 -176q0 -80 -55 -147t-226 -158q-126 -69 -163 -106q-44 -40 -52 -78h533v-86h-633v51q3 78 57 144q58 68 215 155q139 77 179 123q41 47 41 102q0 67 -46 108.5t-120 41.5z" />
    <glyph glyph-name="three.dnom" 
d="M899 217q0 -149 -154 -244q-148 -98 -397 -116l-18 86q224 19 349.5 91.5t125.5 184.5q0 63 -42 99t-116 36q-15 0 -47 -4q-11 -1 -104 -26l-29 77q152 42 217.5 88.5t65.5 110.5q0 61 -39 94t-109 33q-68 0 -130.5 -37t-106.5 -104l-68 53q51 82 133.5 130t173.5 48
q110 0 175 -57.5t65 -155.5q0 -103 -107 -168v-22q77 -17 119.5 -69t42.5 -128z" />
    <glyph glyph-name="four.dnom" 
d="M791 289h202v-82h-172l-30 -29v-190h-95v190l-30 29h-402v112l379 564l84 -45l-344 -514v-35h313v225h95v-225z" />
    <glyph glyph-name="five.dnom" 
d="M909 254q0 -155 -142.5 -258.5t-401.5 -140.5l-17 90q235 38 350 114.5t115 194.5q0 62 -43.5 102.5t-114.5 40.5q-106 0 -170 -82h-123l23 484h494v-92h-412l-16 -308q37 39 94 62.5t117 23.5q111 0 179 -65t68 -166z" />
    <glyph glyph-name="six.dnom" 
d="M639 537q119 0 199 -80q80 -77 80 -199q0 -115 -87 -199q-82 -79 -206 -79q-78 0 -144 34t-104 95q-49 77 -49 190q0 197 139 354q140 159 383 232l29 -88q-150 -41 -259.5 -125.5t-158.5 -196.5l18 -14q61 76 160 76zM625 68q84 0 141 55t57 135q0 82 -56.5 137.5
t-141.5 55.5q-80 0 -137.5 -57t-57.5 -136t57.5 -134.5t137.5 -55.5z" />
    <glyph glyph-name="seven.dnom" 
d="M854 680l-23 29h-538v90h674v-107l-426 -839l-86 38z" />
    <glyph glyph-name="eight.dnom" 
d="M930 229q0 -110 -85 -178.5t-216 -68.5t-216 68.5t-85 178.5q0 66 38 117t105 76v24q-52 21 -84.5 71t-32.5 112q0 109 76 175t199 66t198.5 -66t75.5 -175q0 -62 -32.5 -112t-84.5 -71v-24q68 -25 106 -76t38 -117zM451 629q0 -69 48 -110.5t130 -41.5t130 41.5
t48 110.5q0 72 -48 112.5t-130 40.5t-130 -40.5t-48 -112.5zM426 229q0 -73 55 -115t148 -42t147.5 42t54.5 115t-54 115.5t-148 42.5t-148.5 -42.5t-54.5 -115.5z" />
    <glyph glyph-name="nine.dnom" 
d="M616 264q-119 0 -202 80q-80 80 -80 199q0 115 84 196q85 82 209 82q78 0 145 -34.5t105 -94.5q49 -77 49 -190q0 -216 -150 -391q-149 -178 -393 -248l-29 86q159 44 274.5 143.5t166.5 233.5l-17 14q-67 -76 -162 -76zM627 733q-82 0 -138.5 -55t-56.5 -135
q0 -82 56.5 -137.5t138.5 -55.5q84 0 140 55.5t56 137.5t-55.5 136t-140.5 54z" />
  </font>
</defs>
</svg>
