<?xml version="1.0" standalone="no"?>
<!DOCTYPE svg PUBLIC "-//W3C//DTD SVG 1.1//EN" "http://www.w3.org/Graphics/SVG/1.1/DTD/svg11.dtd" >
<svg xmlns="http://www.w3.org/2000/svg" xmlns:xlink="http://www.w3.org/1999/xlink" version="1.1">
<metadata>
Created by FontForge 20201107 at Mon Jan  8 01:19:53 2024
 By 
Copyright 2020, Kris Sowersby, Klim Type Foundry.
</metadata>
<defs>
<font id="SohneMono-BuchKursiv" horiz-adv-x="1228" >
  <font-face 
    font-family="Sohne Mono Buch"
    font-weight="400"
    font-style="italic"
    font-stretch="normal"
    units-per-em="2048"
    panose-1="2 11 10 9 3 2 2 13 2 3"
    ascent="1638"
    descent="-410"
    x-height="1071"
    cap-height="1470"
    bbox="-682 -391.476 2314 1999"
    underline-thickness="153"
    underline-position="-384"
    slope="-12"
    unicode-range="U+000D-F6C3"
  />
<missing-glyph 
d="M102 0v1470h1229v-1470h-1229zM373 496l104 -105l240 240l241 -240l103 105l-238 241l238 240l-103 104l-241 -239l-240 239l-104 -104l239 -240z" />
    <glyph glyph-name=".notdef" 
d="M102 0v1470h1229v-1470h-1229zM373 496l104 -105l240 240l241 -240l103 105l-238 241l238 240l-103 104l-241 -239l-240 239l-104 -104l239 -240z" />
    <glyph glyph-name=".null" horiz-adv-x="0" 
 />
    <glyph glyph-name="nonmarkingreturn" horiz-adv-x="682" 
 />
    <glyph glyph-name="NULL" horiz-adv-x="0" 
 />
    <glyph glyph-name="NULL" horiz-adv-x="0" 
 />
    <glyph glyph-name="CR" unicode="&#xd;" 
 />
    <glyph glyph-name="space" unicode=" " 
 />
    <glyph glyph-name="exclam" unicode="!" 
d="M670 436h-140l101 1034h231zM655 0h-233l35 242h233z" />
    <glyph glyph-name="quotedbl" unicode="&#x22;" 
d="M518 813h-129l47 657h219zM918 813h-130l48 657h219z" />
    <glyph glyph-name="numbersign" unicode="#" 
d="M211 0h-168l160 424h-170l20 149h207l121 324h-207l21 150h243l160 423h172l-162 -423h303l162 423h168l-160 -423h170l-20 -150h-205l-123 -324h209l-20 -149h-244l-160 -424h-174l162 424h-303zM553 897l-125 -324h303l125 324h-303z" />
    <glyph glyph-name="dollar" unicode="$" 
d="M14 324l156 108q96 -235 336 -276l74 530q-231 66 -310 145q-84 84 -84 216q0 182 140 307q137 122 366 131l27 192h149l-28 -202q148 -23 257 -101t146 -188l-153 -107q-32 90 -103 150.5t-170 83.5l-67 -486q236 -71 319 -157q86 -86 86 -221q0 -190 -147 -322
t-377 -141l-27 -195h-149l28 203q-167 24 -295 112q-126 89 -174 218zM373 1077q0 -69 53 -117t180 -90l64 455q-132 -7 -214.5 -77t-82.5 -171zM967 418q0 79 -56 131t-188 94l-70 -493q140 12 227 87t87 181z" />
    <glyph glyph-name="percent" unicode="%" 
d="M342 782q-103 0 -162 77t-59 212q0 182 82 301q83 121 211 121q103 0 161 -77t58 -214q0 -182 -82 -301t-209 -119zM1143 1470h182l-1182 -1470h-180zM403 1364q-63 0 -106 -82.5t-43 -206.5q0 -80 25.5 -123t72.5 -43q63 0 105.5 82t42.5 209q0 80 -25 122t-72 42z
M946 688q103 0 161 -77t58 -212q0 -184 -82 -303t-209 -119q-103 0 -162 77.5t-59 213.5q0 182 82 301t211 119zM936 561q-66 0 -108 -83t-42 -208q0 -79 26 -121.5t73 -42.5q63 0 105 82.5t42 206.5q0 166 -96 166z" />
    <glyph glyph-name="ampersand" unicode="&#x26;" horiz-adv-x="1226" 
d="M1028 764l158 -29q-51 -280 -217 -483l190 -252h-205l-102 135q-190 -158 -412 -158q-191 0 -304 101.5t-113 273.5q0 273 323 455q-88 161 -88 293q0 161 109 276t274 115q142 0 232 -84.5t90 -218.5q0 -124 -91 -225.5t-288 -198.5l288 -383q117 163 156 383zM631 1343
q-90 0 -147.5 -67t-57.5 -170q0 -113 74 -225q153 63 225 134t72 159q0 74 -46.5 121.5t-119.5 47.5zM201 373q0 -108 70.5 -172t189.5 -64q165 0 299 119l-332 434q-227 -124 -227 -317z" />
    <glyph glyph-name="quotesingle" unicode="'" 
d="M719 813h-129l47 657h219z" />
    <glyph glyph-name="parenleft" unicode="(" 
d="M567 508q0 -196 58.5 -382.5t162.5 -326.5h-186q-237 308 -237 709q0 277 122 545q125 271 336 458h207q-216 -204 -340 -473q-123 -267 -123 -530z" />
    <glyph glyph-name="parenright" unicode=")" 
d="M696 803q0 196 -58 382t-163 326h187q237 -308 237 -708q0 -276 -125 -547q-123 -270 -334 -457h-207q216 204 340 473q123 267 123 531z" />
    <glyph glyph-name="asterisk" unicode="*" 
d="M948 817l-119 -78l-145 248l-217 -248l-107 86l218 248l-281 94l59 131l281 -94l45 307h139l-43 -307l307 94l23 -137l-307 -94z" />
    <glyph glyph-name="plus" unicode="+" 
d="M1169 782l-22 -164h-440l-62 -438h-162l62 438h-441l23 164h440l62 441h162l-62 -441h440z" />
    <glyph glyph-name="comma" unicode="," 
d="M528 0h-131l39 293h285l-43 -320q-23 -153 -116 -233.5t-251 -81.5l19 127q92 7 138.5 54.5t57.5 140.5z" />
    <glyph glyph-name="hyphen" unicode="-" 
d="M891 514h-561l22 166h561z" />
    <glyph glyph-name="period" unicode="." 
d="M680 0h-283l41 291h281z" />
    <glyph glyph-name="slash" unicode="/" 
d="M274 -201h-198l913 1712h197z" />
    <glyph glyph-name="zero" unicode="0" 
d="M561 -23q-220 0 -346 164q-125 162 -125 449q0 384 176 643q178 260 455 260q218 0 344 -164q127 -165 127 -448q0 -385 -178 -645q-176 -259 -453 -259zM713 1323q-184 0 -310 -211q-124 -208 -124 -516q0 -211 76 -330t212 -119q184 0 310 211q124 208 124 516
q0 214 -75.5 331.5t-212.5 117.5z" />
    <glyph glyph-name="one" unicode="1" 
d="M758 1479h145l-184 -1315h354l-22 -164h-945l23 164h399l131 917h-385l21 144l186 10q129 7 190 61t87 183z" />
    <glyph glyph-name="two" unicode="2" 
d="M37 0l24 162l560 418q181 134 266.5 251t85.5 232t-76 188.5t-195 73.5q-140 0 -235 -102q-92 -103 -92 -258q0 -69 10 -103h-182q-13 80 -13 111q0 219 148 370q150 150 373 150q200 0 325 -119q129 -117 129 -303q0 -152 -97.5 -295.5t-301.5 -292.5l-424 -311h731
l-24 -172h-1012z" />
    <glyph glyph-name="three" unicode="3" 
d="M1120 440q0 -196 -151 -329q-152 -134 -381 -134q-226 0 -371 127q-142 124 -145 334l184 33q10 -152 101.5 -240t238.5 -88q144 0 240 84q96 87 96 213q0 110 -79 177t-208 67h-162l21 162h180q131 0 218 74t87 186q0 97 -73.5 158t-190.5 61q-127 0 -220.5 -77
t-131.5 -214l-176 41q54 195 197 306.5t341 111.5q196 0 318 -107q125 -104 125 -268q0 -129 -76.5 -226t-210.5 -138q108 -32 168.5 -115t60.5 -199z" />
    <glyph glyph-name="four" unicode="4" 
d="M901 385l-57 -385h-176l55 385h-700l22 152l748 933h262l-131 -923h270l-23 -162h-270zM846 1286l-596 -739h491z" />
    <glyph glyph-name="five" unicode="5" 
d="M653 809q-155 0 -268 -125l-174 39l170 747h801l-25 -172h-649l-100 -434q127 105 290 105q188 0 301 -125q117 -123 117 -316q0 -229 -155 -391q-157 -160 -390 -160q-206 0 -344 123q-136 124 -151 328l182 27q20 -148 104 -231t213 -83q149 0 252 109q105 108 105 264
q0 131 -77.5 213t-201.5 82z" />
    <glyph glyph-name="six" unicode="6" 
d="M786 1493q172 0 291 -97.5t144 -258.5l-168 -58q-14 113 -92 181.5t-193 68.5q-176 0 -307 -162q-134 -162 -164 -407q66 100 171.5 156.5t227.5 56.5q194 0 316 -125q123 -123 123 -316q0 -225 -158 -391q-156 -164 -385 -164q-227 0 -357.5 156t-130.5 432
q0 394 193 660q194 268 489 268zM297 440q0 -130 84 -217q84 -84 213 -84q151 0 256 111q104 110 104 266q0 130 -86 213q-84 84 -215 84q-152 0 -254 -108t-102 -265z" />
    <glyph glyph-name="seven" unicode="7" 
d="M1061 1300h-690l-35 -251h-172l59 421h1088l-25 -170q-294 -286 -440 -583q-149 -300 -207 -717h-199q60 412 210 727t411 573z" />
    <glyph glyph-name="eight" unicode="8" 
d="M227 1083q0 176 138 293t350 117q200 0 323 -102t123 -267q0 -123 -72.5 -218.5t-201.5 -139.5q119 -44 185.5 -133.5t66.5 -206.5q0 -193 -160 -320q-159 -126 -410 -126q-238 0 -376 106q-142 109 -142 287q0 153 101 266q103 118 266 152q-191 101 -191 292zM403 1083
q0 -100 77 -163.5t198 -63.5q133 0 219 72.5t86 181.5q0 100 -75.5 163.5t-196.5 63.5q-134 0 -222 -73q-86 -71 -86 -181zM948 436q0 115 -92.5 187.5t-239.5 72.5q-163 0 -270 -88q-106 -84 -106 -213q0 -115 92 -186.5t239 -71.5q160 0 269 86q108 86 108 213z" />
    <glyph glyph-name="nine" unicode="9" 
d="M500 -23q-172 0 -290.5 98t-143.5 259l167 57q14 -113 92 -181.5t193 -68.5q174 0 307 160q135 167 164 410q-66 -100 -171.5 -156.5t-227.5 -56.5q-193 0 -316 123q-122 125 -122 317q0 229 155 391q156 164 387 164q227 0 357.5 -156t130.5 -432q0 -392 -195 -661
q-193 -267 -487 -267zM989 1030q0 131 -84 215q-83 86 -213 86q-152 0 -256 -110t-104 -267q0 -129 84 -213q87 -84 217 -84q151 0 254 109q102 108 102 264z" />
    <glyph glyph-name="colon" unicode=":" 
d="M680 0h-283l41 291h281zM784 745h-283l41 291h281z" />
    <glyph glyph-name="semicolon" unicode=";" 
d="M528 0h-131l39 293h285l-43 -320q-23 -153 -116 -233.5t-251 -81.5l19 127q92 7 138.5 54.5t57.5 140.5zM784 745h-282l41 291h280z" />
    <glyph glyph-name="less" unicode="&#x3c;" 
d="M1014 158l-844 442l29 207l968 440l-26 -192l-805 -363l700 -366z" />
    <glyph glyph-name="equal" unicode="=" 
d="M1161 834h-1011l22 161h1014zM1102 403h-1014l23 162h1013z" />
    <glyph glyph-name="greater" unicode="&#x3e;" 
d="M264 1247l844 -442l-29 -207l-968 -440l26 192l805 363l-700 366z" />
    <glyph glyph-name="question" unicode="?" 
d="M991 1079q0 111 -71.5 177.5t-192.5 66.5q-130 0 -224 -80t-132 -225l-181 43q52 199 199 315q147 117 346 117q207 -2 328 -109t121 -290q0 -186 -129 -318q-126 -132 -324 -147l-26 -193h-181l47 328q193 0 306.5 86.5t113.5 228.5zM672 0h-234l33 242h234z" />
    <glyph glyph-name="at" unicode="@" 
d="M856 217q73 0 137 174q68 177 68 369q0 208 -84.5 323t-237.5 115q-127 0 -240.5 -87t-195.5 -247q-131 -256 -131 -559q0 -240 99.5 -374t277.5 -134t313 135l76 -98q-158 -168 -395 -168q-241 0 -379 170q-137 168 -137 467q0 173 45 347t127 315q103 177 243 270.5
t301 93.5q215 0 338 -153q125 -149 125 -412q0 -281 -108 -481q-108 -199 -262 -199q-66 0 -105.5 36t-44.5 99q-35 -68 -87.5 -104.5t-113.5 -36.5q-88 0 -137 73.5t-49 204.5q0 216 102 398q102 184 242 184q63 0 107 -38t51 -99l35 121h137l-152 -572q-19 -63 -9.5 -98
t44.5 -35zM532 215q50 0 92 58.5t68 164.5l41 160q23 91 4 148t-73 57q-82 0 -150 -146q-65 -145 -65 -292q0 -150 83 -150z" />
    <glyph glyph-name="A" unicode="A" 
d="M-35 0l684 1470h219l244 -1470h-190l-60 387h-520l-174 -387h-203zM836 559l-107 690l-309 -690h416z" />
    <glyph glyph-name="B" unicode="B" 
d="M625 0h-564l207 1470h473q215 0 330 -88.5t115 -253.5q0 -138 -80 -241q-76 -102 -201 -129q111 -31 172.5 -115t61.5 -205q0 -192 -144 -315q-141 -123 -370 -123zM434 1305l-65 -465h319q142 0 225.5 71t83.5 187q0 100 -69.5 153.5t-202.5 53.5h-291zM664 672h-318
l-72 -506h357q145 0 233 77.5t88 202.5q0 109 -74.5 167.5t-213.5 58.5z" />
    <glyph glyph-name="C" unicode="C" 
d="M760 1319q-196 0 -334 -209q-137 -207 -137 -492q0 -214 87 -340t236 -126q115 0 213 80t154 217l174 -76q-85 -189 -227.5 -292.5t-319.5 -103.5q-232 0 -370 175q-138 176 -138 464q0 357 195 617q193 257 475 260q186 -3 315 -117q130 -115 160 -305l-184 -57
q-23 143 -102.5 224t-196.5 81z" />
    <glyph glyph-name="D" unicode="D" 
d="M401 0h-340l207 1470h299q290 0 451.5 -167.5t161.5 -466.5q0 -372 -213 -605q-211 -231 -566 -231zM436 1300l-160 -1130h127q272 0 428 182q160 183 160 475q0 222 -115 347.5t-321 125.5h-119z" />
    <glyph glyph-name="E" unicode="E" 
d="M61 0l207 1470h981l-24 -172h-789l-61 -452h669l-26 -172h-668l-69 -502h786l-25 -172h-981z" />
    <glyph glyph-name="F" unicode="F" 
d="M391 653l-90 -653h-195l207 1470h951l-25 -172h-756l-65 -473h639l-25 -172h-641z" />
    <glyph glyph-name="G" unicode="G" 
d="M1057 0h-160l29 207q-55 -107 -151.5 -168.5t-213.5 -61.5q-210 0 -336 173q-127 177 -127 458q0 157 42.5 306.5t121.5 271.5q97 148 226 227.5t272 79.5q186 0 300.5 -109t139.5 -307l-180 -51q-13 140 -83 216.5t-183 76.5q-187 0 -326 -213t-139 -490q0 -210 82 -336
t219 -126q140 0 241 122q103 125 127 316h-333l22 172h516z" />
    <glyph glyph-name="H" unicode="H" 
d="M938 846l88 624h197l-207 -1470h-197l94 674h-561l-94 -674h-197l207 1470h197l-88 -624h561z" />
    <glyph glyph-name="I" unicode="I" 
d="M662 172h415l-24 -172h-1028l24 172h416l158 1126h-418l26 172h1029l-25 -172h-416z" />
    <glyph glyph-name="J" unicode="J" 
d="M393 -18q-162 0 -295 30l29 193q128 -35 264 -35q219 0 327.5 83.5t133.5 270.5l109 774h-592l26 172h787l-135 -968q-37 -264 -198.5 -392t-455.5 -128z" />
    <glyph glyph-name="K" unicode="K" 
d="M270 1470h195l-96 -682l708 682h242l-676 -645l487 -825h-217l-409 694l-172 -166l-74 -528h-195z" />
    <glyph glyph-name="L" unicode="L" 
d="M1053 0h-930l207 1470h196l-182 -1298h733z" />
    <glyph glyph-name="M" unicode="M" 
d="M1034 1190l-436 -1190h-119l-100 1190l-168 -1190h-170l207 1470h256l90 -1058l383 1058h266l-207 -1470h-170z" />
    <glyph glyph-name="N" unicode="N" 
d="M1038 1470h185l-207 -1470h-178l-430 1155l-162 -1155h-185l207 1470h201l414 -1108z" />
    <glyph glyph-name="O" unicode="O" 
d="M563 -23q-217 0 -341 163.5t-124 447.5q0 381 176 643q179 262 447 262q217 0 341 -163t124 -447q0 -383 -178 -643q-177 -263 -445 -263zM569 152q181 0 303 210q123 212 123 512q0 211 -73.5 328t-206.5 117q-180 0 -303 -211q-123 -212 -123 -512q0 -211 73.5 -327.5
t206.5 -116.5z" />
    <glyph glyph-name="P" unicode="P" 
d="M719 616h-375l-86 -616h-197l207 1470h504q226 0 350.5 -102.5t124.5 -288.5q0 -206 -145 -336q-145 -127 -383 -127zM440 1300l-71 -514h344q157 0 249.5 77.5t92.5 203.5q0 112 -78.5 172.5t-224.5 60.5h-312z" />
    <glyph glyph-name="Q" unicode="Q" 
d="M563 -23q-217 0 -341 163.5t-124 447.5q0 381 176 643q179 262 447 262q217 0 341 -163t124 -447q0 -253 -86 -469q-86 -213 -234 -328q36 -59 108.5 -106.5t158.5 -71.5l-123 -135q-92 26 -174 90.5t-121 138.5q-73 -25 -152 -25zM569 152q181 0 303 210
q123 212 123 512q0 211 -73.5 328t-206.5 117q-180 0 -303 -211q-123 -212 -123 -512q0 -211 73.5 -327.5t206.5 -116.5z" />
    <glyph glyph-name="R" unicode="R" 
d="M616 616h-272l-86 -616h-197l207 1470h490q223 0 348 -103.5t125 -289.5q0 -180 -109.5 -300.5t-300.5 -151.5l316 -625h-213zM440 1300l-71 -514h329q154 0 248 78t94 203q0 112 -78.5 172.5t-224.5 60.5h-297z" />
    <glyph glyph-name="S" unicode="S" 
d="M586 -23q-197 0 -365 97q-156 93 -223 254l160 106q55 -135 171 -211t265 -76t250 78q98 76 98 199q0 90 -70.5 144.5t-232.5 93.5q-238 57 -347.5 151.5t-109.5 243.5q0 189 148 313q147 123 377 123q180 0 321.5 -82t198.5 -219l-154 -105q-44 110 -145.5 173
t-231.5 63q-142 0 -230.5 -68t-88.5 -174q0 -90 77.5 -145t258.5 -98q227 -57 325.5 -146.5t98.5 -240.5q0 -209 -154 -342q-153 -132 -397 -132z" />
    <glyph glyph-name="T" unicode="T" 
d="M1315 1470l-25 -172h-471l-182 -1298h-197l183 1298h-473l24 172h1141z" />
    <glyph glyph-name="U" unicode="U" 
d="M569 -20q-246 0 -364 153t-80 424l127 913h197l-127 -905q-29 -198 36.5 -301.5t219.5 -103.5q146 0 226 97.5t111 307.5l127 905h197l-129 -913q-41 -291 -175 -434t-366 -143z" />
    <glyph glyph-name="V" unicode="V" 
d="M1319 1470l-688 -1470h-217l-242 1470h199l186 -1216l555 1216h207z" />
    <glyph glyph-name="W" unicode="W" 
d="M319 369l349 1101h151l17 -1101l323 1101h180l-454 -1470h-164l-23 1141l-366 -1141h-168l-12 1470h172z" />
    <glyph glyph-name="X" unicode="X" 
d="M1087 1470h213l-548 -706l381 -764h-201l-303 604l-469 -604h-215l592 764l-353 706h201l277 -546z" />
    <glyph glyph-name="Y" unicode="Y" 
d="M344 1470l303 -675l492 675h213l-629 -852l-86 -618h-197l88 618l-391 852h207z" />
    <glyph glyph-name="Z" unicode="Z" 
d="M274 172h832l-25 -172h-1079l21 152l985 1146h-815l24 172h1063l-23 -151z" />
    <glyph glyph-name="bracketleft" unicode="[" 
d="M1055 1358h-422l-199 -1407h424l-22 -152h-609l242 1712h608z" />
    <glyph glyph-name="backslash" unicode="\" 
d="M659 1511l121 -1712h-178l-121 1712h178z" />
    <glyph glyph-name="bracketright" unicode="]" 
d="M223 -47h422l199 1407h-424l22 151h609l-242 -1712h-608z" />
    <glyph glyph-name="asciicircum" unicode="^" 
d="M236 854l421 616h181l247 -616h-184l-172 436l-295 -436h-198z" />
    <glyph glyph-name="underscore" unicode="_" 
d="M836 -274h-672l20 157h674z" />
    <glyph glyph-name="grave" unicode="`" 
d="M801 1470l92 -284h-137l-174 284h219z" />
    <glyph glyph-name="a" unicode="a" 
d="M774 119q-51 -63 -144 -100t-198 -37q-159 0 -252.5 78.5t-93.5 213.5q0 143 116.5 239t332.5 128l303 45l6 51q12 91 -39.5 142t-155.5 51q-104 2 -179 -44t-110 -134l-163 55q56 134 180 209.5t289 75.5q186 0 284.5 -94.5t75.5 -252.5l-74 -524q-6 -47 23 -64.5
t98 -9.5l-20 -147q-115 -23 -191.5 10.5t-87.5 108.5zM467 131q129 0 217 64q92 65 107 165l24 183l-258 -43q-148 -26 -218.5 -79t-70.5 -138q0 -72 52.5 -112t146.5 -40z" />
    <glyph glyph-name="b" unicode="b" 
d="M1122 614q0 -266 -143 -452q-144 -185 -358 -185q-110 0 -194.5 52.5t-121.5 144.5l-24 -174h-185l207 1470h184l-77 -550q50 79 136.5 125.5t188.5 46.5q178 0 282.5 -129t104.5 -349zM682 930q-128 0 -216 -95.5t-108 -259.5l-10 -71q-21 -158 51 -262
q71 -103 199 -103q145 0 240 133q96 134 96 330q0 156 -65.5 242t-186.5 86z" />
    <glyph glyph-name="c" unicode="c" 
d="M696 932q-162 0 -274 -133q-109 -133 -109 -326q0 -155 82 -244.5t223 -89.5q113 0 195.5 57.5t120.5 163.5l147 -67q-56 -148 -182 -232t-293 -84q-216 0 -348 132q-129 132 -129 352q0 264 164 446q167 185 414 185q172 0 293 -87t147 -229l-164 -67q-20 103 -97.5 163
t-189.5 60z" />
    <glyph glyph-name="d" unicode="d" 
d="M494 -23q-179 0 -284.5 129.5t-105.5 350.5q0 265 144 450t360 185q111 0 194 -51.5t120 -143.5l82 573h186l-209 -1470h-184l20 152q-50 -81 -136 -128t-187 -47zM870 494l11 73q20 155 -52 260q-71 103 -200 103q-145 0 -240 -133q-94 -131 -94 -330q0 -155 66 -241.5
t184 -86.5q127 0 216 97t109 258z" />
    <glyph glyph-name="e" unicode="e" 
d="M592 -23q-215 0 -342 131.5t-127 352.5q0 265 160 448q165 183 405 183q219 0 334 -148q118 -149 84 -381l-8 -57h-797v-33q0 -155 81 -245.5t220 -90.5q106 0 187 54.5t122 152.5l146 -70q-62 -141 -183 -219t-282 -78zM676 936q-124 0 -216.5 -76.5t-133.5 -212.5h606
q11 131 -59 210t-197 79z" />
    <glyph glyph-name="f" unicode="f" 
d="M987 158l-20 -158h-924l23 158h329l105 755h-328l23 158h327q26 204 154.5 313t339.5 109q112 0 235 -29l-22 -159q-120 24 -211 24q-142 0 -217 -62t-94 -196h485l-23 -158h-485l-106 -755h409z" />
    <glyph glyph-name="g" unicode="g" 
d="M1133 1071l-138 -975q-32 -235 -168.5 -361t-357.5 -126q-184 0 -305 79.5t-156 225.5l162 61q31 -103 111 -158t198 -55q139 0 223 82t107 242l16 107q-113 -168 -319 -168q-185 0 -295.5 124.5t-110.5 333.5q0 257 144 432q145 177 366 177q110 0 194.5 -50.5
t121.5 -138.5l24 168h183zM874 532l5 41q19 159 -51.5 258t-200.5 99q-147 0 -242 -127q-96 -128 -96 -311q0 -146 67 -226t189 -80q133 0 221.5 93t107.5 253z" />
    <glyph glyph-name="h" unicode="h" 
d="M299 0h-184l207 1470h184l-76 -536q57 75 141.5 116.5t182.5 41.5q170 0 256 -109.5t61 -294.5l-96 -688h-184l92 659q17 123 -34.5 192t-160.5 69q-117 0 -198.5 -77t-100.5 -206z" />
    <glyph glyph-name="i" unicode="i" 
d="M854 1257h-201l31 213h201zM1065 0h-975l21 158h397l104 755h-395l23 158h581l-129 -913h393z" />
    <glyph glyph-name="j" unicode="j" 
d="M1034 1257h-200l30 213h199zM350 -221q143 0 221.5 61.5t98.5 188.5l123 884h-537l23 158h720l-149 -1063q-26 -191 -158 -293t-348 -102q-171 0 -283 39l25 164q135 -37 264 -37z" />
    <glyph glyph-name="k" unicode="k" 
d="M338 1470h184l-129 -913l561 514h238l-479 -424l362 -647h-209l-293 526l-211 -186l-47 -340h-184z" />
    <glyph glyph-name="l" unicode="l" 
d="M1065 0h-975l21 158h397l162 1155h-396l23 157h580l-185 -1312h393z" />
    <glyph glyph-name="m" unicode="m" 
d="M463 922q-63 0 -105 -52t-55 -149l-102 -721h-168l151 1073h168l-14 -104q30 56 85 89.5t120 33.5q68 0 116 -36.5t68 -103.5q33 62 96.5 101t134.5 39q110 0 166.5 -87.5t36.5 -228.5l-108 -776h-170l102 733q14 91 -10.5 140t-85.5 49q-63 0 -105.5 -52.5t-54.5 -148.5
l-102 -721h-170l104 733q25 189 -98 189z" />
    <glyph glyph-name="n" unicode="n" 
d="M299 0h-184l149 1071h185l-19 -137q57 75 141.5 116.5t182.5 41.5q170 0 256 -109.5t61 -294.5l-96 -688h-184l92 659q17 123 -34.5 192t-160.5 69q-117 0 -198.5 -77t-100.5 -206z" />
    <glyph glyph-name="o" unicode="o" 
d="M668 1092q207 0 326.5 -130t119.5 -356q0 -264 -158 -448q-156 -181 -395 -181q-206 0 -326 131.5t-120 354.5q0 266 155 446q157 183 398 183zM657 936q-154 0 -256 -135t-102 -332q0 -158 72 -246t200 -88q153 0 256 133q103 136 103 332q0 158 -72.5 247t-200.5 89z
" />
    <glyph glyph-name="p" unicode="p" 
d="M1122 614q0 -266 -143 -452q-144 -185 -358 -185q-110 0 -194.5 52.5t-121.5 144.5l-76 -543h-184l203 1440h184l-22 -151q50 79 136.5 125.5t188.5 46.5q178 0 282.5 -129t104.5 -349zM682 930q-128 0 -216 -95.5t-108 -259.5l-10 -71q-21 -158 51 -262
q71 -103 199 -103q145 0 240 133q96 134 96 330q0 156 -65.5 242t-186.5 86z" />
    <glyph glyph-name="q" unicode="q" 
d="M494 -23q-179 0 -284.5 129.5t-105.5 350.5q0 265 144 450t360 185q111 0 194 -51.5t120 -143.5l24 174h187l-203 -1440h-185l72 521q-48 -80 -134.5 -127.5t-188.5 -47.5zM870 494l11 73q20 155 -52 260q-71 103 -200 103q-145 0 -240 -133q-94 -131 -94 -330
q0 -155 66 -241.5t184 -86.5q127 0 216 97t109 258z" />
    <glyph glyph-name="r" unicode="r" 
d="M936 0h-889l21 158h303l106 755h-303l23 158h483l-27 -190q62 98 168 154.5t232 56.5q101 0 180 -27l-25 -180q-89 26 -180 26q-157 0 -278 -92q-120 -88 -138 -233l-59 -428h405z" />
    <glyph glyph-name="s" unicode="s" 
d="M578 -23q-176 0 -318 74q-140 74 -192 197l147 100q47 -103 146 -160t229 -57q121 0 195.5 48t74.5 124q0 61 -57 97.5t-205 66.5q-210 47 -298.5 114.5t-88.5 180.5q0 145 123 237q128 93 321 93q160 0 284 -65.5t167 -170.5l-145 -98q-35 85 -120.5 133.5t-201.5 48.5
q-108 0 -177 -44t-69 -112q0 -55 53 -90q50 -31 234 -73q196 -44 281.5 -114t85.5 -183q0 -151 -132 -250q-135 -97 -337 -97z" />
    <glyph glyph-name="t" unicode="t" 
d="M762 -12q-204 0 -312 95t-83 261l79 569h-313l23 158h313l43 313h182l-43 -313h492l-23 -158h-491l-78 -555q-13 -104 44 -154t191 -50q110 0 240 36l-22 -165q-126 -37 -242 -37z" />
    <glyph glyph-name="u" unicode="u" 
d="M928 1071h186l-151 -1071h-185l19 137q-57 -75 -141.5 -116t-182.5 -41q-168 0 -255 109.5t-62 293.5l98 688h184l-94 -659q-17 -123 35 -191.5t162 -68.5q117 0 198.5 77t100.5 205z" />
    <glyph glyph-name="v" unicode="v" 
d="M1221 1071l-613 -1071h-186l-266 1071h184l203 -848l481 848h197z" />
    <glyph glyph-name="w" unicode="w" 
d="M315 272l299 799h152l45 -799l283 799h180l-404 -1071h-163l-50 825l-315 -825h-172l-64 1071h173z" />
    <glyph glyph-name="x" unicode="x" 
d="M1051 0h-201l-250 438l-362 -438h-209l473 565l-289 506h199l219 -391l327 391h209l-434 -518z" />
    <glyph glyph-name="y" unicode="y" 
d="M1221 1071l-682 -1192q-90 -158 -164 -209q-71 -51 -193 -51q-56 0 -114 12l20 156q45 -10 94 -10q64 0 103.5 28t83.5 107l67 119l-280 1042l186 -2l211 -831l471 831h197z" />
    <glyph glyph-name="z" unicode="z" 
d="M328 158h690l-21 -158h-934l21 139l805 774h-688l22 158h918l-19 -141z" />
    <glyph glyph-name="braceleft" unicode="{" 
d="M309 580h-96l23 151h94q127 0 151 162l37 281q23 164 125 250.5t272 86.5h250l-22 -153h-203q-119 0 -178 -54t-78 -178l-31 -233q-17 -99 -59 -156.5t-117 -83.5q72 -32 96.5 -85t12.5 -150l-33 -234q-17 -115 32.5 -173t162.5 -58h198l-22 -154h-211q-172 0 -263.5 93
t-74.5 251l39 275q21 162 -105 162z" />
    <glyph glyph-name="bar" unicode="|" 
d="M600 -201h-180l242 1712h180z" />
    <glyph glyph-name="braceright" unicode="}" 
d="M954 731h97l-23 -151h-94q-128 0 -152 -162l-37 -281q-23 -164 -125 -251t-272 -87h-250l23 154h203q119 0 178 53.5t78 177.5l30 234q17 99 59 156t117 83q-72 32 -96 85.5t-12 150.5l33 233q17 115 -32.5 173.5t-162.5 58.5h-199l23 153h211q172 0 263.5 -93t74.5 -251
l-39 -274q-21 -162 104 -162z" />
    <glyph glyph-name="asciitilde" unicode="~" 
d="M492 803q40 0 74.5 -16.5t86.5 -63.5q40 -36 61.5 -47.5t45.5 -11.5q43 0 78.5 37.5t54.5 103.5h147q-32 -154 -106 -243t-170 -89q-41 0 -75.5 16.5t-86.5 63.5q-40 37 -61 49t-45 12q-43 0 -79.5 -37.5t-56.5 -103.5h-145q31 152 105.5 241t171.5 89z" />
    <glyph glyph-name="uni00A0" unicode="&#xa0;" 
 />
    <glyph glyph-name="exclamdown" unicode="&#xa1;" 
d="M616 1034h140l-101 -1034h-231zM631 1470h233l-35 -241h-233z" />
    <glyph glyph-name="cent" unicode="&#xa2;" 
d="M610 -217h-143l29 207q-166 37 -262.5 167t-96.5 320q0 243 146 424q144 181 368 205l31 217h145l-30 -219q140 -20 233.5 -107t118.5 -217l-162 -67q-12 94 -67.5 156t-145.5 81l-115 -817q197 15 285 234l137 -72q-55 -146 -171.5 -229t-272.5 -89zM313 481
q0 -129 53.5 -216t151.5 -118l111 801q-141 -27 -230 -160q-86 -133 -86 -307z" />
    <glyph glyph-name="sterling" unicode="&#xa3;" 
d="M406 604h-242l18 148h168q-53 133 -53 241q0 210 145 355q148 145 367 145q193 0 313 -111q121 -109 121 -280q0 -119 -59 -240h-176q53 109 53 211q0 115 -72.5 185.5t-189.5 70.5q-139 0 -230 -98q-90 -96 -90 -242q0 -47 11 -95.5t45 -141.5h321l-20 -148h-258
q14 -69 14 -133q0 -88 -31 -186q93 -81 150 -109q56 -26 116 -26q180 0 220 239h161q-20 -192 -121.5 -302t-259.5 -110q-88 0 -165.5 37t-172.5 127q-56 -78 -130.5 -121t-155.5 -43q-98 0 -164 60t-66 151q0 103 80 177q81 75 199 75q90 0 176 -53q1 20 2.5 36t1.5 23
q0 79 -26 158zM242 309q-51 0 -84 -30.5t-33 -75.5q0 -38 25.5 -62t66.5 -24q50 0 93.5 32.5t74.5 92.5q-73 67 -143 67z" />
    <glyph glyph-name="yen" unicode="&#xa5;" 
d="M512 387h-371l21 141h368l25 168h-371l21 142h291l-316 632h209l277 -598l446 598h217l-493 -632h292l-20 -142h-371l-24 -168h370l-20 -141h-369l-55 -387h-182z" />
    <glyph glyph-name="section" unicode="&#xa7;" 
d="M545 -23q-166 0 -301 78q-131 79 -172 207l147 90q32 -98 125.5 -160.5t210.5 -62.5q105 0 172.5 50t67.5 126q0 56 -53 91.5t-191 72.5q-190 51 -266 114t-76 169q0 157 145 252q-59 59 -59 151q0 146 113 240q113 98 288 98q153 0 269 -68.5t153 -179.5l-141 -94
q-31 88 -110 138t-185 50q-91 0 -147 -41.5t-56 -107.5q0 -56 48.5 -89.5t181.5 -70.5q185 -47 266.5 -117t81.5 -180q0 -75 -33 -140.5t-94 -109.5q49 -58 49 -147q0 -154 -123 -256q-121 -103 -311 -103zM391 788q0 -53 55 -89.5t187 -73.5q113 -33 162 -54q79 48 79 131
q0 59 -55 97t-192 75q-67 19 -135 46q-47 -20 -74 -55.5t-27 -76.5z" />
    <glyph glyph-name="dieresis" unicode="&#xa8;" 
d="M641 1249h-205l31 213h203zM993 1249h-205l31 213h203z" />
    <glyph glyph-name="copyright" unicode="&#xa9;" 
d="M721 1493q220 0 352 -166q133 -168 133 -444q0 -383 -182 -645q-182 -261 -461 -261q-222 0 -354 166q-131 165 -131 445q0 381 182 643t461 262zM567 86q230 0 379 227q150 231 150 566q0 229 -103 368q-101 137 -276 137q-230 0 -379 -229q-150 -228 -150 -563
q0 -230 103 -369q101 -137 276 -137zM606 307q-117 0 -182.5 90t-65.5 254q0 218 97 369q95 147 243 147q100 0 160 -65.5t70 -186.5l-154 -41q-10 146 -84 146q-72 0 -121 -113q-49 -110 -49 -260q0 -92 25 -142t69 -50q75 0 123 143l144 -45q-35 -116 -108 -181t-167 -65z
" />
    <glyph glyph-name="ordfeminine" unicode="&#xaa;" 
d="M784 782q-37 -43 -100.5 -68.5t-136.5 -25.5q-113 0 -182.5 57.5t-69.5 153.5q0 105 86 173t248 91l196 27l4 33q6 56 -25 86t-97 30q-128 3 -175 -110l-161 39q38 103 131.5 161t222.5 58q143 0 220.5 -70t60.5 -188l-48 -342q-6 -31 13 -43t63 -6l-18 -136
q-90 -19 -152.5 3t-79.5 77zM596 821q77 0 132.5 41t66.5 103l12 106l-156 -24q-180 -26 -180 -134q0 -43 32.5 -67.5t92.5 -24.5zM979 432h-731l18 131h731z" />
    <glyph glyph-name="guillemotleft" unicode="&#xab;" 
d="M532 172l-356 281l27 184l434 281l-27 -197l-284 -182l233 -181zM987 172l-356 281l26 184l435 281l-27 -197l-285 -182l234 -181z" />
    <glyph glyph-name="registered" unicode="&#xae;" 
d="M717 1493q178 0 293 -115q114 -114 114 -288q0 -196 -137 -336q-139 -142 -332 -142q-182 0 -295 113q-112 112 -112 291q0 196 137 336q138 141 332 141zM655 672q165 0 285 123q119 125 119 295q0 149 -96 245q-94 99 -246 99q-166 0 -285 -125q-119 -122 -119 -293
q0 -146 97 -248q101 -96 245 -96zM774 1016l92 -178h-110l-84 159h-74l-23 -159h-102l62 442h196q74 0 116 -33.5t42 -93.5q0 -101 -115 -137zM784 1143q0 25 -20 40t-55 15h-84l-17 -123h97q37 0 58 18.5t21 49.5z" />
    <glyph glyph-name="overscore" unicode="&#xaf;" 
d="M1014 1389l-21 -148h-559l19 148h561z" />
    <glyph glyph-name="degree" unicode="&#xb0;" horiz-adv-x="1230" 
d="M418 1182q0 126 90 219q92 92 219 92q113 0 191 -78q77 -77 77 -192q0 -126 -90 -219t-217 -93q-116 0 -194 78q-76 76 -76 193zM553 1188q0 -63 40.5 -104.5t102.5 -41.5q69 0 117.5 51.5t48.5 123.5q0 63 -41 104t-104 41q-68 0 -116 -51t-48 -123z" />
    <glyph glyph-name="twosuperior" unicode="&#xb2;" 
d="M342 655l16 115l299 223q94 70 138.5 127.5t44.5 112.5q0 54 -33 86.5t-88 32.5q-68 0 -110 -48t-42 -126q0 -4 6 -52h-147q-6 18 -6 58q0 131 87.5 216t223.5 85q119 0 192.5 -65t73.5 -171q0 -163 -200 -309l-205 -152h352l-18 -133h-584z" />
    <glyph glyph-name="threesuperior" unicode="&#xb3;" 
d="M965 901q0 -111 -85 -184.5t-218 -73.5q-131 0 -215.5 71t-88.5 187l154 23q5 -69 47 -109.5t109 -40.5q63 0 106 38t43 93q0 51 -35.5 81t-95.5 30h-86l16 121h95q60 0 98.5 33.5t38.5 84.5q0 43 -33 71t-86 28q-61 0 -104 -35.5t-56 -97.5l-143 22q29 113 113 177.5
t202 64.5q116 0 188 -58.5t72 -152.5q0 -71 -40.5 -125.5t-110.5 -77.5q54 -20 84.5 -65t30.5 -105z" />
    <glyph glyph-name="acute" unicode="&#xb4;" 
d="M672 1186h-154l152 284h239z" />
    <glyph glyph-name="paragraph" unicode="&#xb6;" 
d="M893 0h-184l184 1303h-148l-79 -562h-115q-178 0 -277.5 86.5t-99.5 239.5q0 176 125 289q126 114 328 114h639l-25 -167h-164z" />
    <glyph glyph-name="middot" unicode="&#xb7;" 
d="M745 475h-282l41 291h280z" />
    <glyph glyph-name="cedilla" unicode="&#xb8;" 
d="M715 -211q0 -79 -64.5 -128.5t-167.5 -49.5q-127 0 -209 82l82 90q56 -62 136 -62q41 0 65.5 19.5t24.5 50.5q0 35 -39 56t-111 22l66 151h102l-37 -79q73 -12 112.5 -51.5t39.5 -100.5z" />
    <glyph glyph-name="onesuperior" unicode="&#xb9;" 
d="M608 784l62 441h-201l14 114l97 7q68 1 104 31t55 98h117l-96 -691h182l-18 -131h-545l18 131h211z" />
    <glyph glyph-name="ordmasculine" unicode="&#xba;" 
d="M1061 1135q0 -190 -115 -320q-114 -129 -291 -129q-154 0 -245 95.5t-91 256.5q0 190 115 320q114 129 289 129q155 0 246.5 -95.5t91.5 -256.5zM717 1339q-93 0 -158 -86q-63 -84 -63 -211q0 -98 45 -153t123 -55q92 0 157 86q64 85 64 210q0 98 -45 153.5t-123 55.5z
M942 432h-686l20 131h685z" />
    <glyph glyph-name="guillemotright" unicode="&#xbb;" 
d="M698 918l357 -281l-27 -184l-434 -281l27 197l284 182l-233 180zM244 918l356 -281l-27 -184l-434 -281l27 197l285 182l-234 180z" />
    <glyph glyph-name="onequarter" unicode="&#xbc;" horiz-adv-x="2457" 
d="M608 784l62 441h-201l14 114l97 7q68 1 104 31t55 98h117l-96 -691h182l-18 -131h-545l18 131h211zM547 0l1249 1470h168l-1247 -1470h-170zM1946 201l-29 -201h-141l28 201h-379l17 112l391 504h201l-72 -493h129l-16 -123h-129zM1870 688l-283 -364h232z" />
    <glyph glyph-name="onehalf" unicode="&#xbd;" horiz-adv-x="2457" 
d="M608 784l62 441h-201l14 114l97 7q68 1 104 31t55 98h117l-96 -691h182l-18 -131h-545l18 131h211zM547 0l1249 1470h168l-1247 -1470h-170zM1479 0l16 115l299 223q94 69 138 127t44 113q0 54 -33 86t-88 32q-68 0 -109.5 -48t-41.5 -126q0 -3 6 -51h-147q-7 21 -7 57
q0 131 88 216t224 85q119 0 192.5 -65t73.5 -170q0 -162 -201 -309l-204 -152h352l-19 -133h-583z" />
    <glyph glyph-name="threequarters" unicode="&#xbe;" horiz-adv-x="2457" 
d="M965 901q0 -111 -85 -184.5t-218 -73.5q-131 0 -215.5 71t-88.5 187l154 23q5 -69 47 -109.5t109 -40.5q63 0 106 38t43 93q0 51 -35.5 81t-95.5 30h-86l16 121h95q60 0 98.5 33.5t38.5 84.5q0 43 -33 71t-86 28q-61 0 -104 -35.5t-56 -97.5l-143 22q29 113 113 177.5
t202 64.5q116 0 188 -58.5t72 -152.5q0 -71 -40.5 -125.5t-110.5 -77.5q54 -20 84.5 -65t30.5 -105zM547 0l1249 1470h168l-1247 -1470h-170zM1946 201l-29 -201h-141l28 201h-379l17 112l391 504h201l-72 -493h129l-16 -123h-129zM1870 688l-283 -364h232z" />
    <glyph glyph-name="questiondown" unicode="&#xbf;" 
d="M297 406q0 -111 71.5 -177.5t192.5 -66.5q130 0 224.5 80t132.5 225l180 -43q-53 -200 -201 -318q-144 -114 -344 -114q-207 2 -328 109t-121 290t127 316q131 134 326 149l27 193h180l-47 -328q-193 0 -306.5 -86.5t-113.5 -228.5zM616 1485h234l-33 -242h-233z" />
    <glyph glyph-name="Agrave" unicode="&#xc0;" 
d="M-35 0l684 1470h219l244 -1470h-190l-60 387h-520l-174 -387h-203zM836 559l-107 690l-309 -690h416zM664 1864l180 -297h-144l-284 297h248z" />
    <glyph glyph-name="Aacute" unicode="&#xc1;" 
d="M-35 0l684 1470h219l244 -1470h-190l-60 387h-520l-174 -387h-203zM836 559l-107 690l-309 -690h416zM829 1567h-155l244 297h262z" />
    <glyph glyph-name="Acircumflex" unicode="&#xc2;" 
d="M-35 0l684 1470h219l244 -1470h-190l-60 387h-520l-174 -387h-203zM836 559l-107 690l-309 -690h416zM690 1864h219l199 -297h-141l-176 178l-226 -178h-155z" />
    <glyph glyph-name="Atilde" unicode="&#xc3;" 
d="M-35 0l684 1470h219l244 -1470h-190l-60 387h-520l-174 -387h-203zM836 559l-107 690l-309 -690h416zM641 1853q41 0 76 -15t88 -60q42 -34 63 -45t45 -11q84 0 121 133h133q-23 -134 -89 -210t-158 -76q-39 0 -75.5 16.5t-90.5 59.5q-41 35 -62.5 46t-46.5 11
q-84 0 -121 -133h-131q23 133 89 208.5t159 75.5z" />
    <glyph glyph-name="Adieresis" unicode="&#xc4;" 
d="M-35 0l684 1470h219l244 -1470h-190l-60 387h-520l-174 -387h-203zM836 559l-107 690l-309 -690h416zM680 1575h-205l31 213h203zM1044 1575h-204l30 213h205z" />
    <glyph glyph-name="Aring" unicode="&#xc5;" 
d="M537 1595q0 101 67.5 169.5t169.5 68.5q96 0 157.5 -60t61.5 -151q0 -64 -30.5 -118.5t-85.5 -84.5l235 -1419h-190l-60 387h-520l-174 -387h-203l662 1421q-90 62 -90 174zM770 1722q-49 0 -83 -37t-34 -88q0 -42 30 -70t75 -28q49 0 82.5 35t33.5 86q0 44 -30 73
t-74 29zM836 559l-107 690l-309 -690h416z" />
    <glyph glyph-name="AE" unicode="&#xc6;" 
d="M-76 0l682 1470h719l-25 -170h-376l-64 -456h314l-25 -168h-313l-72 -506h379l-25 -170h-569l57 403h-299l-186 -403h-197zM737 1341l-354 -770h246z" />
    <glyph glyph-name="Ccedilla" unicode="&#xc7;" 
d="M729 -211q0 -79 -64 -128.5t-167 -49.5q-127 0 -209 82l82 90q56 -62 135 -62q41 0 65.5 19.5t24.5 50.5q0 35 -39 56t-111 22l52 119q-186 41 -293 208.5t-107 419.5q0 357 195 617q193 257 475 260q186 -3 315 -117q130 -115 160 -305l-184 -57q-23 143 -102.5 224
t-196.5 81q-196 0 -334 -209q-137 -207 -137 -492q0 -214 87 -340t236 -126q115 0 213 80t154 217l174 -76q-85 -189 -227.5 -292.5t-319.5 -103.5h-12l-16 -36q73 -12 112 -51t39 -101z" />
    <glyph glyph-name="Egrave" unicode="&#xc8;" 
d="M61 0l207 1470h981l-24 -172h-789l-61 -452h669l-26 -172h-668l-69 -502h786l-25 -172h-981zM735 1864l180 -297h-143l-285 297h248z" />
    <glyph glyph-name="Eacute" unicode="&#xc9;" 
d="M61 0l207 1470h981l-24 -172h-789l-61 -452h669l-26 -172h-668l-69 -502h786l-25 -172h-981zM782 1567h-155l243 297h263z" />
    <glyph glyph-name="Ecircumflex" unicode="&#xca;" 
d="M61 0l207 1470h981l-24 -172h-789l-61 -452h669l-26 -172h-668l-69 -502h786l-25 -172h-981zM709 1864h219l198 -297h-141l-176 178l-225 -178h-156z" />
    <glyph glyph-name="Edieresis" unicode="&#xcb;" 
d="M61 0l207 1470h981l-24 -172h-789l-61 -452h669l-26 -172h-668l-69 -502h786l-25 -172h-981zM690 1575h-205l31 213h203zM1055 1575h-205l31 213h204z" />
    <glyph glyph-name="Igrave" unicode="&#xcc;" 
d="M662 172h415l-24 -172h-1028l24 172h416l158 1126h-418l26 172h1029l-25 -172h-416zM682 1864l180 -297h-143l-285 297h248z" />
    <glyph glyph-name="Iacute" unicode="&#xcd;" 
d="M662 172h415l-24 -172h-1028l24 172h416l158 1126h-418l26 172h1029l-25 -172h-416zM825 1567h-155l243 297h263z" />
    <glyph glyph-name="Icircumflex" unicode="&#xce;" 
d="M662 172h415l-24 -172h-1028l24 172h416l158 1126h-418l26 172h1029l-25 -172h-416zM690 1864h219l199 -297h-141l-176 178l-226 -178h-155z" />
    <glyph glyph-name="Idieresis" unicode="&#xcf;" 
d="M662 172h415l-24 -172h-1028l24 172h416l158 1126h-418l26 172h1029l-25 -172h-416zM680 1575h-205l31 213h203zM1044 1575h-204l30 213h205z" />
    <glyph glyph-name="Eth" unicode="&#xd0;" 
d="M401 0h-340l95 672h-113l25 172h112l88 626h299q290 0 451.5 -167.5t161.5 -466.5q0 -372 -213 -605q-211 -231 -566 -231zM348 672l-72 -502h127q271 0 426 180q160 183 160 477q0 222 -115 347.5t-319 125.5h-119l-65 -456h321l-24 -172h-320z" />
    <glyph glyph-name="Ntilde" unicode="&#xd1;" 
d="M1038 1470h185l-207 -1470h-178l-430 1155l-162 -1155h-185l207 1470h201l414 -1108zM639 1853q41 0 76 -15t88 -60q42 -34 63 -45t45 -11q84 0 121 133h133q-23 -134 -89 -210t-158 -76q-39 0 -75.5 16.5t-90.5 59.5q-41 35 -62.5 46t-46.5 11q-84 0 -121 -133h-131
q23 133 89 208.5t159 75.5z" />
    <glyph glyph-name="Ograve" unicode="&#xd2;" 
d="M563 -23q-217 0 -341 163.5t-124 447.5q0 381 176 643q179 262 447 262q217 0 341 -163t124 -447q0 -383 -178 -643q-177 -263 -445 -263zM569 152q181 0 303 210q123 212 123 512q0 211 -73.5 328t-206.5 117q-180 0 -303 -211q-123 -212 -123 -512q0 -211 73.5 -327.5
t206.5 -116.5zM698 1864l181 -297h-144l-284 297h247z" />
    <glyph glyph-name="Oacute" unicode="&#xd3;" 
d="M563 -23q-217 0 -341 163.5t-124 447.5q0 381 176 643q179 262 447 262q217 0 341 -163t124 -447q0 -383 -178 -643q-177 -263 -445 -263zM569 152q181 0 303 210q123 212 123 512q0 211 -73.5 328t-206.5 117q-180 0 -303 -211q-123 -212 -123 -512q0 -211 73.5 -327.5
t206.5 -116.5zM834 1567h-156l244 297h262z" />
    <glyph glyph-name="Ocircumflex" unicode="&#xd4;" 
d="M563 -23q-217 0 -341 163.5t-124 447.5q0 381 176 643q179 262 447 262q217 0 341 -163t124 -447q0 -383 -178 -643q-177 -263 -445 -263zM569 152q181 0 303 210q123 212 123 512q0 211 -73.5 328t-206.5 117q-180 0 -303 -211q-123 -212 -123 -512q0 -211 73.5 -327.5
t206.5 -116.5zM690 1864h219l199 -297h-141l-176 178l-226 -178h-155z" />
    <glyph glyph-name="Otilde" unicode="&#xd5;" 
d="M563 -23q-217 0 -341 163.5t-124 447.5q0 381 176 643q179 262 447 262q217 0 341 -163t124 -447q0 -383 -178 -643q-177 -263 -445 -263zM569 152q181 0 303 210q123 212 123 512q0 211 -73.5 328t-206.5 117q-180 0 -303 -211q-123 -212 -123 -512q0 -211 73.5 -327.5
t206.5 -116.5zM641 1853q41 0 76 -15t88 -60q42 -34 63 -45t45 -11q84 0 121 133h133q-23 -134 -89 -210t-158 -76q-39 0 -75.5 16.5t-90.5 59.5q-41 35 -62.5 46t-46.5 11q-84 0 -121 -133h-131q23 133 89 208.5t159 75.5z" />
    <glyph glyph-name="Odieresis" unicode="&#xd6;" 
d="M563 -23q-217 0 -341 163.5t-124 447.5q0 381 176 643q179 262 447 262q217 0 341 -163t124 -447q0 -383 -178 -643q-177 -263 -445 -263zM569 152q181 0 303 210q123 212 123 512q0 211 -73.5 328t-206.5 117q-180 0 -303 -211q-123 -212 -123 -512q0 -211 73.5 -327.5
t206.5 -116.5zM680 1575h-205l31 213h203zM1044 1575h-204l30 213h205z" />
    <glyph glyph-name="multiply" unicode="&#xd7;" 
d="M125 352l401 355l-303 354l123 106l305 -354l398 352l104 -118l-399 -353l299 -354l-123 -107l-301 353l-402 -355z" />
    <glyph glyph-name="Oslash" unicode="&#xd8;" 
d="M113 -41l-109 78l160 203q-66 147 -66 348q0 381 176 643q179 262 447 262q200 0 323 -141l127 159l109 -77l-160 -203q66 -147 66 -348q0 -383 -178 -643q-177 -263 -445 -263q-200 0 -323 142zM715 1325q-182 0 -309 -213q-125 -210 -125 -516q0 -115 18 -186l629 794
q-74 121 -213 121zM569 145q184 0 310 211q125 210 125 518q0 112 -19 187l-629 -795q74 -121 213 -121z" />
    <glyph glyph-name="Ugrave" unicode="&#xd9;" 
d="M569 -20q-246 0 -364 153t-80 424l127 913h197l-127 -905q-29 -198 36.5 -301.5t219.5 -103.5q146 0 226 97.5t111 307.5l127 905h197l-129 -913q-41 -291 -175 -434t-366 -143zM717 1864l180 -297h-143l-285 297h248z" />
    <glyph glyph-name="Uacute" unicode="&#xda;" 
d="M569 -20q-246 0 -364 153t-80 424l127 913h197l-127 -905q-29 -198 36.5 -301.5t219.5 -103.5q146 0 226 97.5t111 307.5l127 905h197l-129 -913q-41 -291 -175 -434t-366 -143zM788 1567h-155l244 297h262z" />
    <glyph glyph-name="Ucircumflex" unicode="&#xdb;" 
d="M569 -20q-246 0 -364 153t-80 424l127 913h197l-127 -905q-29 -198 36.5 -301.5t219.5 -103.5q146 0 226 97.5t111 307.5l127 905h197l-129 -913q-41 -291 -175 -434t-366 -143zM690 1864h219l199 -297h-141l-176 178l-226 -178h-155z" />
    <glyph glyph-name="Udieresis" unicode="&#xdc;" 
d="M569 -20q-246 0 -364 153t-80 424l127 913h197l-127 -905q-29 -198 36.5 -301.5t219.5 -103.5q146 0 226 97.5t111 307.5l127 905h197l-129 -913q-41 -291 -175 -434t-366 -143zM680 1575h-205l31 213h203zM1044 1575h-204l30 213h205z" />
    <glyph glyph-name="Yacute" unicode="&#xdd;" 
d="M344 1470l303 -675l492 675h213l-629 -852l-86 -618h-197l88 618l-391 852h207zM799 1567h-156l244 297h262z" />
    <glyph glyph-name="Thorn" unicode="&#xde;" 
d="M1210 805q0 -209 -141 -338q-142 -127 -379 -127h-385l-47 -340h-197l207 1470h197l-39 -276h309q226 0 350.5 -102t124.5 -287zM715 1028h-312l-75 -522h350q157 0 249.5 77.5t92.5 207.5q0 115 -78.5 176t-226.5 61z" />
    <glyph glyph-name="germandbls" unicode="&#xdf;" horiz-adv-x="1230" 
d="M731 1493q182 0 289.5 -93.5t107.5 -246.5q0 -119 -73 -210.5t-195 -123.5q268 -89 268 -356q0 -209 -141 -344q-142 -133 -366 -133q-111 0 -213 26l22 156q100 -27 191 -27q148 0 236.5 87.5t88.5 230.5q0 133 -88 206.5t-244 73.5h-96l23 162h118q130 0 208.5 66
t78.5 172q0 91 -60 144.5t-163 53.5q-127 0 -204.5 -86.5t-100.5 -251.5l-142 -999h-184l141 1006q32 233 162.5 360t335.5 127z" />
    <glyph glyph-name="agrave" unicode="&#xe0;" 
d="M774 119q-51 -63 -144 -100t-198 -37q-159 0 -252.5 78.5t-93.5 213.5q0 143 116.5 239t332.5 128l303 45l6 51q12 91 -39.5 142t-155.5 51q-104 2 -179 -44t-110 -134l-163 55q56 134 180 209.5t289 75.5q186 0 284.5 -94.5t75.5 -252.5l-74 -524q-6 -47 23 -64.5
t98 -9.5l-20 -147q-115 -23 -191.5 10.5t-87.5 108.5zM467 131q129 0 217 64q92 65 107 165l24 183l-258 -43q-148 -26 -218.5 -79t-70.5 -138q0 -72 52.5 -112t146.5 -40zM680 1470l92 -284h-137l-174 284h219z" />
    <glyph glyph-name="aacute" unicode="&#xe1;" 
d="M774 119q-51 -63 -144 -100t-198 -37q-159 0 -252.5 78.5t-93.5 213.5q0 143 116.5 239t332.5 128l303 45l6 51q12 91 -39.5 142t-155.5 51q-104 2 -179 -44t-110 -134l-163 55q56 134 180 209.5t289 75.5q186 0 284.5 -94.5t75.5 -252.5l-74 -524q-6 -47 23 -64.5
t98 -9.5l-20 -147q-115 -23 -191.5 10.5t-87.5 108.5zM467 131q129 0 217 64q92 65 107 165l24 183l-258 -43q-148 -26 -218.5 -79t-70.5 -138q0 -72 52.5 -112t146.5 -40zM774 1186h-154l152 284h239z" />
    <glyph glyph-name="acircumflex" unicode="&#xe2;" 
d="M774 119q-51 -63 -144 -100t-198 -37q-159 0 -252.5 78.5t-93.5 213.5q0 143 116.5 239t332.5 128l303 45l6 51q12 91 -39.5 142t-155.5 51q-104 2 -179 -44t-110 -134l-163 55q56 134 180 209.5t289 75.5q186 0 284.5 -94.5t75.5 -252.5l-74 -524q-6 -47 23 -64.5
t98 -9.5l-20 -147q-115 -23 -191.5 10.5t-87.5 108.5zM467 131q129 0 217 64q92 65 107 165l24 183l-258 -43q-148 -26 -218.5 -79t-70.5 -138q0 -72 52.5 -112t146.5 -40zM629 1470h201l160 -284h-138l-133 160l-180 -160h-152z" />
    <glyph glyph-name="atilde" unicode="&#xe3;" 
d="M774 119q-51 -63 -144 -100t-198 -37q-159 0 -252.5 78.5t-93.5 213.5q0 143 116.5 239t332.5 128l303 45l6 51q12 91 -39.5 142t-155.5 51q-104 2 -179 -44t-110 -134l-163 55q56 134 180 209.5t289 75.5q186 0 284.5 -94.5t75.5 -252.5l-74 -524q-6 -47 23 -64.5
t98 -9.5l-20 -147q-115 -23 -191.5 10.5t-87.5 108.5zM467 131q129 0 217 64q92 65 107 165l24 183l-258 -43q-148 -26 -218.5 -79t-70.5 -138q0 -72 52.5 -112t146.5 -40zM582 1473q35 0 65.5 -16t81.5 -60q35 -34 54 -45t39 -11q68 0 108 132h125q-23 -132 -79.5 -204.5
t-137.5 -72.5q-37 0 -68.5 15.5t-78.5 60.5q-38 32 -57 42.5t-38 10.5q-36 0 -61.5 -31t-44.5 -98h-125q23 134 79 205.5t138 71.5z" />
    <glyph glyph-name="adieresis" unicode="&#xe4;" 
d="M774 119q-51 -63 -144 -100t-198 -37q-159 0 -252.5 78.5t-93.5 213.5q0 143 116.5 239t332.5 128l303 45l6 51q12 91 -39.5 142t-155.5 51q-104 2 -179 -44t-110 -134l-163 55q56 134 180 209.5t289 75.5q186 0 284.5 -94.5t75.5 -252.5l-74 -524q-6 -47 23 -64.5
t98 -9.5l-20 -147q-115 -23 -191.5 10.5t-87.5 108.5zM467 131q129 0 217 64q92 65 107 165l24 183l-258 -43q-148 -26 -218.5 -79t-70.5 -138q0 -72 52.5 -112t146.5 -40zM627 1249h-205l31 213h202zM979 1249h-205l31 213h203z" />
    <glyph glyph-name="aring" unicode="&#xe5;" 
d="M774 119q-51 -63 -144 -100t-198 -37q-159 0 -252.5 78.5t-93.5 213.5q0 143 116.5 239t332.5 128l303 45l6 51q12 91 -39.5 142t-155.5 51q-104 2 -179 -44t-110 -134l-163 55q56 134 180 209.5t289 75.5q186 0 284.5 -94.5t75.5 -252.5l-74 -524q-6 -47 23 -64.5
t98 -9.5l-20 -147q-115 -23 -191.5 10.5t-87.5 108.5zM467 131q129 0 217 64q92 65 107 165l24 183l-258 -43q-148 -26 -218.5 -79t-70.5 -138q0 -72 52.5 -112t146.5 -40zM700 1157q-86 0 -140 54.5t-54 136.5q0 87 62.5 149t152.5 62q84 0 139 -55.5t55 -137.5
q0 -87 -62.5 -148t-152.5 -61zM717 1462q-44 0 -76.5 -33.5t-32.5 -78.5q0 -41 28 -69t69 -28q44 0 75 33t31 80q0 41 -26.5 68.5t-67.5 27.5z" />
    <glyph glyph-name="ae" unicode="&#xe6;" 
d="M1032 344l137 -61q-50 -144 -144 -225t-214 -81q-92 0 -163.5 48.5t-106.5 134.5q-49 -86 -124.5 -132t-166.5 -46q-118 0 -191 77.5t-73 204.5q0 178 128.5 280.5t354.5 102.5h51l12 90q12 88 -21.5 140.5t-102.5 52.5t-118.5 -47.5t-74.5 -137.5l-141 41
q31 135 125 220q95 86 217 86q86 1 146 -37.5t85 -112.5q116 150 273 150q164 0 247 -150q84 -150 50 -375l-11 -61h-555q-1 -23 -2.5 -46.5t-1.5 -31.5q0 -135 48 -213t132 -78q67 0 120 53.5t85 153.5zM911 934q-79 0 -142 -76.5t-95 -210.5h389q14 130 -27 208.5
t-125 78.5zM147 276q0 -67 35 -105t97 -38q80 0 134.5 63t67.5 173l19 137h-29q-324 0 -324 -230z" />
    <glyph glyph-name="ccedilla" unicode="&#xe7;" 
d="M696 932q-162 0 -274 -133q-109 -133 -109 -326q0 -155 82 -244.5t223 -89.5q113 0 195.5 57.5t120.5 163.5l147 -67q-56 -148 -182 -232t-293 -84h-22l-17 -36q73 -12 112.5 -51.5t39.5 -100.5q0 -79 -64.5 -128.5t-167.5 -49.5q-126 0 -208 82l81 90q56 -62 136 -62
q41 0 65.5 19.5t24.5 50.5q0 35 -39 56t-111 22l51 121q-167 32 -262.5 158.5t-95.5 312.5q0 264 164 446q167 185 414 185q172 0 293 -87t147 -229l-164 -67q-20 103 -97.5 163t-189.5 60z" />
    <glyph glyph-name="egrave" unicode="&#xe8;" 
d="M592 -23q-215 0 -342 131.5t-127 352.5q0 265 160 448q165 183 405 183q219 0 334 -148q118 -149 84 -381l-8 -57h-797v-33q0 -155 81 -245.5t220 -90.5q106 0 187 54.5t122 152.5l146 -70q-62 -141 -183 -219t-282 -78zM676 936q-124 0 -216.5 -76.5t-133.5 -212.5h606
q11 131 -59 210t-197 79zM725 1470l92 -284h-137l-174 284h219z" />
    <glyph glyph-name="eacute" unicode="&#xe9;" 
d="M592 -23q-215 0 -342 131.5t-127 352.5q0 265 160 448q165 183 405 183q219 0 334 -148q118 -149 84 -381l-8 -57h-797v-33q0 -155 81 -245.5t220 -90.5q106 0 187 54.5t122 152.5l146 -70q-62 -141 -183 -219t-282 -78zM676 936q-124 0 -216.5 -76.5t-133.5 -212.5h606
q11 131 -59 210t-197 79zM803 1186h-154l152 284h239z" />
    <glyph glyph-name="ecircumflex" unicode="&#xea;" 
d="M592 -23q-215 0 -342 131.5t-127 352.5q0 265 160 448q165 183 405 183q219 0 334 -148q118 -149 84 -381l-8 -57h-797v-33q0 -155 81 -245.5t220 -90.5q106 0 187 54.5t122 152.5l146 -70q-62 -141 -183 -219t-282 -78zM676 936q-124 0 -216.5 -76.5t-133.5 -212.5h606
q11 131 -59 210t-197 79zM668 1470h201l160 -284h-138l-133 160l-180 -160h-152z" />
    <glyph glyph-name="edieresis" unicode="&#xeb;" 
d="M592 -23q-215 0 -342 131.5t-127 352.5q0 265 160 448q165 183 405 183q219 0 334 -148q118 -149 84 -381l-8 -57h-797v-33q0 -155 81 -245.5t220 -90.5q106 0 187 54.5t122 152.5l146 -70q-62 -141 -183 -219t-282 -78zM676 936q-124 0 -216.5 -76.5t-133.5 -212.5h606
q11 131 -59 210t-197 79zM666 1249h-205l31 213h202zM1018 1249h-205l31 213h203z" />
    <glyph glyph-name="igrave" unicode="&#xec;" 
d="M1065 0h-975l21 158h397l104 755h-395l23 158h581l-129 -913h393zM719 1470l92 -284h-137l-174 284h219z" />
    <glyph glyph-name="iacute" unicode="&#xed;" 
d="M1065 0h-975l21 158h397l104 755h-395l23 158h581l-129 -913h393zM828 1186h-154l152 284h239z" />
    <glyph glyph-name="icircumflex" unicode="&#xee;" 
d="M1065 0h-975l21 158h397l104 755h-395l23 158h581l-129 -913h393zM680 1470h201l160 -284h-138l-133 160l-180 -160h-152z" />
    <glyph glyph-name="idieresis" unicode="&#xef;" 
d="M1065 0h-975l21 158h397l104 755h-395l23 158h581l-129 -913h393zM676 1249h-205l31 213h203zM1028 1249h-205l31 213h203z" />
    <glyph glyph-name="eth" unicode="&#xf0;" 
d="M657 1085q177 0 248 -112q-39 132 -153 246l-363 -97l21 146l215 57q-74 53 -189 109l176 57q98 -46 191 -119l289 78l-19 -145l-153 -41q200 -232 200 -572q0 -317 -151 -518q-150 -197 -404 -197q-207 0 -327.5 130.5t-120.5 355.5q0 267 151 444q153 178 389 178z
M657 936q-154 0 -256 -135q-100 -129 -100 -332q0 -158 71 -246t199 -88q151 0 254 133q103 136 103 334q0 158 -71.5 246t-199.5 88z" />
    <glyph glyph-name="ntilde" unicode="&#xf1;" 
d="M299 0h-184l149 1071h185l-19 -137q57 75 141.5 116.5t182.5 41.5q170 0 256 -109.5t61 -294.5l-96 -688h-184l92 659q17 123 -34.5 192t-160.5 69q-117 0 -198.5 -77t-100.5 -206zM614 1473q35 0 65.5 -16t81.5 -60q35 -34 54 -45t39 -11q68 0 108 132h125
q-23 -132 -79.5 -204.5t-137.5 -72.5q-37 0 -68.5 15.5t-78.5 60.5q-38 32 -57 42.5t-38 10.5q-36 0 -61.5 -31t-44.5 -98h-125q23 134 79 205.5t138 71.5z" />
    <glyph glyph-name="ograve" unicode="&#xf2;" 
d="M668 1092q207 0 326.5 -130t119.5 -356q0 -264 -158 -448q-156 -181 -395 -181q-206 0 -326 131.5t-120 354.5q0 266 155 446q157 183 398 183zM657 936q-154 0 -256 -135t-102 -332q0 -158 72 -246t200 -88q153 0 256 133q103 136 103 332q0 158 -72.5 247t-200.5 89z
M705 1470l92 -284h-138l-174 284h220z" />
    <glyph glyph-name="oacute" unicode="&#xf3;" 
d="M668 1092q207 0 326.5 -130t119.5 -356q0 -264 -158 -448q-156 -181 -395 -181q-206 0 -326 131.5t-120 354.5q0 266 155 446q157 183 398 183zM657 936q-154 0 -256 -135t-102 -332q0 -158 72 -246t200 -88q153 0 256 133q103 136 103 332q0 158 -72.5 247t-200.5 89z
M776 1186h-154l152 284h239z" />
    <glyph glyph-name="ocircumflex" unicode="&#xf4;" 
d="M668 1092q207 0 326.5 -130t119.5 -356q0 -264 -158 -448q-156 -181 -395 -181q-206 0 -326 131.5t-120 354.5q0 266 155 446q157 183 398 183zM657 936q-154 0 -256 -135t-102 -332q0 -158 72 -246t200 -88q153 0 256 133q103 136 103 332q0 158 -72.5 247t-200.5 89z
M645 1470h201l160 -284h-138l-133 160l-180 -160h-152z" />
    <glyph glyph-name="otilde" unicode="&#xf5;" 
d="M668 1092q207 0 326.5 -130t119.5 -356q0 -264 -158 -448q-156 -181 -395 -181q-206 0 -326 131.5t-120 354.5q0 266 155 446q157 183 398 183zM657 936q-154 0 -256 -135t-102 -332q0 -158 72 -246t200 -88q153 0 256 133q103 136 103 332q0 158 -72.5 247t-200.5 89z
M575 1473q35 0 65.5 -16t81.5 -60q35 -34 54 -45t39 -11q68 0 108 132h125q-23 -132 -79.5 -204.5t-137.5 -72.5q-37 0 -68.5 15.5t-78.5 60.5q-38 32 -57 42.5t-38 10.5q-36 0 -61.5 -31t-44.5 -98h-125q23 134 79 205.5t138 71.5z" />
    <glyph glyph-name="odieresis" unicode="&#xf6;" 
d="M668 1092q207 0 326.5 -130t119.5 -356q0 -264 -158 -448q-156 -181 -395 -181q-206 0 -326 131.5t-120 354.5q0 266 155 446q157 183 398 183zM657 936q-154 0 -256 -135t-102 -332q0 -158 72 -246t200 -88q153 0 256 133q103 136 103 332q0 158 -72.5 247t-200.5 89z
M641 1249h-205l31 213h203zM993 1249h-205l31 213h203z" />
    <glyph glyph-name="divide" unicode="&#xf7;" 
d="M791 1006h-226l31 221h225zM1147 618h-1043l23 164h1042zM674 176h-225l30 221h226z" />
    <glyph glyph-name="oslash" unicode="&#xf8;" 
d="M115 463q0 266 155 446q157 183 398 183q176 0 288 -95l109 115l102 -90l-123 -129q70 -119 70 -287q0 -264 -158 -448q-156 -181 -395 -181q-175 0 -287 95l-114 -123l-103 90l127 137q-69 112 -69 287zM657 940q-156 0 -260 -137q-102 -135 -102 -334q0 -86 22 -154
l523 557q-74 68 -183 68zM571 129q156 0 258 135q105 138 105 336q0 76 -21 152l-522 -557q72 -66 180 -66z" />
    <glyph glyph-name="ugrave" unicode="&#xf9;" 
d="M928 1071h186l-151 -1071h-185l19 137q-57 -75 -141.5 -116t-182.5 -41q-168 0 -255 109.5t-62 293.5l98 688h184l-94 -659q-17 -123 35 -191.5t162 -68.5q117 0 198.5 77t100.5 205zM692 1470l92 -284h-137l-174 284h219z" />
    <glyph glyph-name="uacute" unicode="&#xfa;" 
d="M928 1071h186l-151 -1071h-185l19 137q-57 -75 -141.5 -116t-182.5 -41q-168 0 -255 109.5t-62 293.5l98 688h184l-94 -659q-17 -123 35 -191.5t162 -68.5q117 0 198.5 77t100.5 205zM770 1186h-154l152 284h239z" />
    <glyph glyph-name="ucircumflex" unicode="&#xfb;" 
d="M928 1071h186l-151 -1071h-185l19 137q-57 -75 -141.5 -116t-182.5 -41q-168 0 -255 109.5t-62 293.5l98 688h184l-94 -659q-17 -123 35 -191.5t162 -68.5q117 0 198.5 77t100.5 205zM637 1470h201l160 -284h-138l-133 160l-180 -160h-152z" />
    <glyph glyph-name="udieresis" unicode="&#xfc;" 
d="M928 1071h186l-151 -1071h-185l19 137q-57 -75 -141.5 -116t-182.5 -41q-168 0 -255 109.5t-62 293.5l98 688h184l-94 -659q-17 -123 35 -191.5t162 -68.5q117 0 198.5 77t100.5 205zM633 1249h-205l31 213h203zM985 1249h-205l31 213h203z" />
    <glyph glyph-name="yacute" unicode="&#xfd;" 
d="M1221 1071l-682 -1192q-90 -158 -164 -209q-71 -51 -193 -51q-56 0 -114 12l20 156q45 -10 94 -10q64 0 103.5 28t83.5 107l67 119l-280 1042l186 -2l211 -831l471 831h197zM778 1186h-154l152 284h239z" />
    <glyph glyph-name="thorn" unicode="&#xfe;" 
d="M1122 614q0 -266 -143 -452q-144 -185 -358 -185q-110 0 -194.5 52.5t-121.5 144.5l-76 -543h-184l258 1839h184l-77 -550q50 79 136.5 125.5t188.5 46.5q178 0 282.5 -129t104.5 -349zM682 930q-128 0 -216 -95.5t-108 -259.5l-10 -71q-21 -158 51 -262
q71 -103 199 -103q145 0 240 133q96 134 96 330q0 156 -65.5 242t-186.5 86z" />
    <glyph glyph-name="ydieresis" unicode="&#xff;" 
d="M1221 1071l-682 -1192q-90 -158 -164 -209q-71 -51 -193 -51q-56 0 -114 12l20 156q45 -10 94 -10q64 0 103.5 28t83.5 107l67 119l-280 1042l186 -2l211 -831l471 831h197zM641 1249h-205l31 213h203zM993 1249h-205l31 213h203z" />
    <glyph glyph-name="Amacron" unicode="&#x100;" 
d="M-35 0l684 1470h219l244 -1470h-190l-60 387h-520l-174 -387h-203zM836 559l-107 690l-309 -690h416zM1104 1751l-23 -154h-637l23 154h637z" />
    <glyph glyph-name="amacron" unicode="&#x101;" 
d="M774 119q-51 -63 -144 -100t-198 -37q-159 0 -252.5 78.5t-93.5 213.5q0 143 116.5 239t332.5 128l303 45l6 51q12 91 -39.5 142t-155.5 51q-104 2 -179 -44t-110 -134l-163 55q56 134 180 209.5t289 75.5q186 0 284.5 -94.5t75.5 -252.5l-74 -524q-6 -47 23 -64.5
t98 -9.5l-20 -147q-115 -23 -191.5 10.5t-87.5 108.5zM467 131q129 0 217 64q92 65 107 165l24 183l-258 -43q-148 -26 -218.5 -79t-70.5 -138q0 -72 52.5 -112t146.5 -40zM1006 1389l-21 -148h-559l18 148h562z" />
    <glyph glyph-name="Abreve" unicode="&#x102;" 
d="M-35 0l684 1470h219l244 -1470h-190l-60 387h-520l-174 -387h-203zM836 559l-107 690l-309 -690h416zM786 1690q75 0 129.5 47.5t67.5 126.5h133q-19 -141 -108 -221t-228 -80q-141 0 -222 82t-75 219h144q-1 -81 41.5 -127.5t117.5 -46.5z" />
    <glyph glyph-name="abreve" unicode="&#x103;" 
d="M774 119q-51 -63 -144 -100t-198 -37q-159 0 -252.5 78.5t-93.5 213.5q0 143 116.5 239t332.5 128l303 45l6 51q12 91 -39.5 142t-155.5 51q-104 2 -179 -44t-110 -134l-163 55q56 134 180 209.5t289 75.5q186 0 284.5 -94.5t75.5 -252.5l-74 -524q-6 -47 23 -64.5
t98 -9.5l-20 -147q-115 -23 -191.5 10.5t-87.5 108.5zM467 131q129 0 217 64q92 65 107 165l24 183l-258 -43q-148 -26 -218.5 -79t-70.5 -138q0 -72 52.5 -112t146.5 -40zM715 1309q64 0 106 42t54 119h129q-13 -140 -90 -217t-201 -77q-131 0 -198 76.5t-60 217.5h129
q-2 -75 33 -118t98 -43z" />
    <glyph glyph-name="Aogonek" unicode="&#x104;" 
d="M868 -381q-80 0 -129 43t-49 115q0 141 223 278l-51 332h-520l-174 -387h-203l684 1470h219l244 -1470h-113q-168 -113 -168 -197q0 -29 20.5 -46t57.5 -17q31 0 78 12l-16 -117q-66 -16 -103 -16zM836 559l-107 690l-309 -690h416z" />
    <glyph glyph-name="aogonek" unicode="&#x105;" 
d="M1073 147l-20 -147q-96 -44 -146.5 -93.5t-50.5 -99.5q0 -31 21.5 -49t58.5 -18q29 0 76 12l-17 -117q-56 -16 -100 -16q-80 0 -129 44t-49 116q0 60 40.5 119.5t114.5 109.5q-42 13 -67.5 42.5t-30.5 68.5q-51 -63 -144 -100t-198 -37q-159 0 -252.5 78.5t-93.5 213.5
q0 143 116.5 239t332.5 128l303 45l6 51q12 91 -39.5 142t-155.5 51q-104 2 -179 -44t-110 -134l-163 55q56 134 180 209.5t289 75.5q186 0 284.5 -94.5t75.5 -252.5l-74 -524q-6 -47 23 -64.5t98 -9.5zM467 131q129 0 217 64q92 65 107 165l24 183l-258 -43
q-148 -26 -218.5 -79t-70.5 -138q0 -72 52.5 -112t146.5 -40z" />
    <glyph glyph-name="Cacute" unicode="&#x106;" 
d="M760 1319q-196 0 -334 -209q-137 -207 -137 -492q0 -214 87 -340t236 -126q115 0 213 80t154 217l174 -76q-85 -189 -227.5 -292.5t-319.5 -103.5q-232 0 -370 175q-138 176 -138 464q0 357 195 617q193 257 475 260q186 -3 315 -117q130 -115 160 -305l-184 -57
q-23 143 -102.5 224t-196.5 81zM868 1567h-155l243 297h263z" />
    <glyph glyph-name="cacute" unicode="&#x107;" 
d="M696 932q-162 0 -274 -133q-109 -133 -109 -326q0 -155 82 -244.5t223 -89.5q113 0 195.5 57.5t120.5 163.5l147 -67q-56 -148 -182 -232t-293 -84q-216 0 -348 132q-129 132 -129 352q0 264 164 446q167 185 414 185q172 0 293 -87t147 -229l-164 -67q-20 103 -97.5 163
t-189.5 60zM819 1186h-153l151 284h240z" />
    <glyph glyph-name="Ccircumflex" unicode="&#x108;" 
d="M760 1319q-196 0 -334 -209q-137 -207 -137 -492q0 -214 87 -340t236 -126q115 0 213 80t154 217l174 -76q-85 -189 -227.5 -292.5t-319.5 -103.5q-232 0 -370 175q-138 176 -138 464q0 357 195 617q193 257 475 260q186 -3 315 -117q130 -115 160 -305l-184 -57
q-23 143 -102.5 224t-196.5 81zM750 1864h219l198 -297h-141l-176 178l-225 -178h-156z" />
    <glyph glyph-name="ccircumflex" unicode="&#x109;" 
d="M696 932q-162 0 -274 -133q-109 -133 -109 -326q0 -155 82 -244.5t223 -89.5q113 0 195.5 57.5t120.5 163.5l147 -67q-56 -148 -182 -232t-293 -84q-216 0 -348 132q-129 132 -129 352q0 264 164 446q167 185 414 185q172 0 293 -87t147 -229l-164 -67q-20 103 -97.5 163
t-189.5 60zM686 1470h201l160 -284h-138l-133 160l-180 -160h-152z" />
    <glyph glyph-name="Cdotaccent" unicode="&#x10a;" 
d="M760 1319q-196 0 -334 -209q-137 -207 -137 -492q0 -214 87 -340t236 -126q115 0 213 80t154 217l174 -76q-85 -189 -227.5 -292.5t-319.5 -103.5q-232 0 -370 175q-138 176 -138 464q0 357 195 617q193 257 475 260q186 -3 315 -117q130 -115 160 -305l-184 -57
q-23 143 -102.5 224t-196.5 81zM924 1575h-205l29 213h206z" />
    <glyph glyph-name="cdotaccent" unicode="&#x10b;" 
d="M696 932q-162 0 -274 -133q-109 -133 -109 -326q0 -155 82 -244.5t223 -89.5q113 0 195.5 57.5t120.5 163.5l147 -67q-56 -148 -182 -232t-293 -84q-216 0 -348 132q-129 132 -129 352q0 264 164 446q167 185 414 185q172 0 293 -87t147 -229l-164 -67q-20 103 -97.5 163
t-189.5 60zM856 1257h-199l29 213h201z" />
    <glyph glyph-name="Ccaron" unicode="&#x10c;" 
d="M760 1319q-196 0 -334 -209q-137 -207 -137 -492q0 -214 87 -340t236 -126q115 0 213 80t154 217l174 -76q-85 -189 -227.5 -292.5t-319.5 -103.5q-232 0 -370 175q-138 176 -138 464q0 357 195 617q193 257 475 260q186 -3 315 -117q130 -115 160 -305l-184 -57
q-23 143 -102.5 224t-196.5 81zM1210 1864l-280 -297h-219l-199 297h141l176 -176l226 176h155z" />
    <glyph glyph-name="ccaron" unicode="&#x10d;" 
d="M696 932q-162 0 -274 -133q-109 -133 -109 -326q0 -155 82 -244.5t223 -89.5q113 0 195.5 57.5t120.5 163.5l147 -67q-56 -148 -182 -232t-293 -84q-216 0 -348 132q-129 132 -129 352q0 264 164 446q167 185 414 185q172 0 293 -87t147 -229l-164 -67q-20 103 -97.5 163
t-189.5 60zM1096 1470l-240 -284h-203l-159 284h137l133 -159l180 159h152z" />
    <glyph glyph-name="Dcaron" unicode="&#x10e;" 
d="M401 0h-340l207 1470h299q290 0 451.5 -167.5t161.5 -466.5q0 -372 -213 -605q-211 -231 -566 -231zM436 1300l-160 -1130h127q272 0 428 182q160 183 160 475q0 222 -115 347.5t-321 125.5h-119zM1171 1864l-280 -297h-219l-199 297h141l177 -176l225 176h155z" />
    <glyph glyph-name="dcaron" unicode="&#x10f;" 
d="M436 -23q-170 0 -270 130t-100 350q0 260 141 448q141 187 350 187q103 0 179.5 -51.5t113.5 -143.5l80 573h186l-209 -1470h-184l22 152q-50 -81 -132 -128t-177 -47zM1305 1063h-121l92 407h203zM799 494l8 73q20 160 -44 261.5t-185 101.5q-140 0 -232 -135
q-92 -136 -92 -330q0 -156 60.5 -241t172.5 -85q121 0 205 96.5t107 258.5z" />
    <glyph glyph-name="Dcroat" unicode="&#x110;" 
d="M401 0h-340l95 672h-113l25 172h112l88 626h299q290 0 451.5 -167.5t161.5 -466.5q0 -372 -213 -605q-211 -231 -566 -231zM348 672l-72 -502h127q271 0 426 180q160 183 160 477q0 222 -115 347.5t-319 125.5h-119l-65 -456h321l-24 -172h-320z" />
    <glyph glyph-name="dslash" unicode="&#x111;" 
d="M494 -23q-179 0 -284.5 129.5t-105.5 350.5q0 265 144 450t360 185q111 0 194 -51.5t120 -143.5l41 283h-277l21 147h276l21 143h186l-21 -143h123l-20 -147h-123l-168 -1180h-184l20 152q-50 -81 -136 -128t-187 -47zM870 494l11 73q20 155 -52 260q-71 103 -200 103
q-145 0 -240 -133q-94 -131 -94 -330q0 -155 66 -241.5t184 -86.5q127 0 216 97t109 258z" />
    <glyph glyph-name="Emacron" unicode="&#x112;" 
d="M61 0l207 1470h981l-24 -172h-789l-61 -452h669l-26 -172h-668l-69 -502h786l-25 -172h-981zM1110 1751l-23 -154h-636l22 154h637z" />
    <glyph glyph-name="emacron" unicode="&#x113;" 
d="M592 -23q-215 0 -342 131.5t-127 352.5q0 265 160 448q165 183 405 183q219 0 334 -148q118 -149 84 -381l-8 -57h-797v-33q0 -155 81 -245.5t220 -90.5q106 0 187 54.5t122 152.5l146 -70q-62 -141 -183 -219t-282 -78zM676 936q-124 0 -216.5 -76.5t-133.5 -212.5h606
q11 131 -59 210t-197 79zM1032 1389l-20 -148h-559l18 148h561z" />
    <glyph glyph-name="Ebreve" unicode="&#x114;" 
d="M61 0l207 1470h981l-24 -172h-789l-61 -452h669l-26 -172h-668l-69 -502h786l-25 -172h-981zM805 1690q75 0 129 47.5t67 126.5h134q-19 -141 -108 -221t-228 -80q-141 0 -222 82t-75 219h143q-1 -81 42 -127.5t118 -46.5z" />
    <glyph glyph-name="ebreve" unicode="&#x115;" 
d="M592 -23q-215 0 -342 131.5t-127 352.5q0 265 160 448q165 183 405 183q219 0 334 -148q118 -149 84 -381l-8 -57h-797v-33q0 -155 81 -245.5t220 -90.5q106 0 187 54.5t122 152.5l146 -70q-62 -141 -183 -219t-282 -78zM676 936q-124 0 -216.5 -76.5t-133.5 -212.5h606
q11 131 -59 210t-197 79zM749 1309q64 0 106 42t54 119h129q-13 -140 -90 -217t-201 -77q-131 0 -198 76.5t-60 217.5h129q-2 -75 33 -118t98 -43z" />
    <glyph glyph-name="Edotaccent" unicode="&#x116;" 
d="M61 0l207 1470h981l-24 -172h-789l-61 -452h669l-26 -172h-668l-69 -502h786l-25 -172h-981zM879 1575h-205l28 213h207z" />
    <glyph glyph-name="edotaccent" unicode="&#x117;" 
d="M592 -23q-215 0 -342 131.5t-127 352.5q0 265 160 448q165 183 405 183q219 0 334 -148q118 -149 84 -381l-8 -57h-797v-33q0 -155 81 -245.5t220 -90.5q106 0 187 54.5t122 152.5l146 -70q-62 -141 -183 -219t-282 -78zM676 936q-124 0 -216.5 -76.5t-133.5 -212.5h606
q11 131 -59 210t-197 79zM833 1257h-199l29 213h201z" />
    <glyph glyph-name="Eogonek" unicode="&#x118;" 
d="M797 -381q-80 0 -129.5 43t-49.5 115q0 112 144 223h-701l207 1470h981l-24 -172h-789l-61 -452h669l-26 -172h-668l-69 -502h786l-25 -172h-114q-168 -113 -168 -197q0 -29 20.5 -46t57.5 -17q30 0 77 12l-16 -117q-66 -16 -102 -16z" />
    <glyph glyph-name="eogonek" unicode="&#x119;" 
d="M795 14q-220 -100 -220 -211q0 -29 20.5 -46t57.5 -17q31 0 78 12l-16 -117q-66 -16 -103 -16q-80 0 -129 43t-49 115q0 108 115 203q-198 13 -312 142.5t-114 338.5q0 265 160 448q165 183 405 183q219 0 334 -148q118 -149 84 -381l-8 -57h-797v-33q0 -155 81 -245.5
t220 -90.5q106 0 187 54.5t122 152.5l146 -70q-38 -92 -101.5 -155.5t-160.5 -104.5zM676 936q-124 0 -216.5 -76.5t-133.5 -212.5h606q11 131 -59 210t-197 79z" />
    <glyph glyph-name="Ecaron" unicode="&#x11a;" 
d="M61 0l207 1470h981l-24 -172h-789l-61 -452h669l-26 -172h-668l-69 -502h786l-25 -172h-981zM1169 1864l-280 -297h-219l-199 297h141l176 -176l226 176h155z" />
    <glyph glyph-name="ecaron" unicode="&#x11b;" 
d="M592 -23q-215 0 -342 131.5t-127 352.5q0 265 160 448q165 183 405 183q219 0 334 -148q118 -149 84 -381l-8 -57h-797v-33q0 -155 81 -245.5t220 -90.5q106 0 187 54.5t122 152.5l146 -70q-62 -141 -183 -219t-282 -78zM676 936q-124 0 -216.5 -76.5t-133.5 -212.5h606
q11 131 -59 210t-197 79zM1071 1470l-240 -284h-202l-160 284h137l133 -159l181 159h151z" />
    <glyph glyph-name="Gcircumflex" unicode="&#x11c;" 
d="M1057 0h-160l29 207q-55 -107 -151.5 -168.5t-213.5 -61.5q-210 0 -336 173q-127 177 -127 458q0 157 42.5 306.5t121.5 271.5q97 148 226 227.5t272 79.5q186 0 300.5 -109t139.5 -307l-180 -51q-13 140 -83 216.5t-183 76.5q-187 0 -326 -213t-139 -490q0 -210 82 -336
t219 -126q140 0 241 122q103 125 127 316h-333l22 172h516zM721 1864h219l199 -297h-142l-176 178l-225 -178h-156z" />
    <glyph glyph-name="gcircumflex" unicode="&#x11d;" 
d="M1133 1071l-138 -975q-32 -235 -168.5 -361t-357.5 -126q-184 0 -305 79.5t-156 225.5l162 61q31 -103 111 -158t198 -55q139 0 223 82t107 242l16 107q-113 -168 -319 -168q-185 0 -295.5 124.5t-110.5 333.5q0 257 144 432q145 177 366 177q110 0 194.5 -50.5
t121.5 -138.5l24 168h183zM874 532l5 41q19 159 -51.5 258t-200.5 99q-147 0 -242 -127q-96 -128 -96 -311q0 -146 67 -226t189 -80q133 0 221.5 93t107.5 253zM647 1470h201l160 -284h-138l-133 160l-180 -160h-151z" />
    <glyph glyph-name="Gbreve" unicode="&#x11e;" 
d="M1057 0h-160l29 207q-55 -107 -151.5 -168.5t-213.5 -61.5q-210 0 -336 173q-127 177 -127 458q0 157 42.5 306.5t121.5 271.5q97 148 226 227.5t272 79.5q186 0 300.5 -109t139.5 -307l-180 -51q-13 140 -83 216.5t-183 76.5q-187 0 -326 -213t-139 -490q0 -210 82 -336
t219 -126q140 0 241 122q103 125 127 316h-333l22 172h516zM817 1690q75 0 129.5 47.5t67.5 126.5h133q-19 -141 -108 -221t-228 -80q-141 0 -222 82t-75 219h143q-1 -81 42 -127.5t118 -46.5z" />
    <glyph glyph-name="gbreve" unicode="&#x11f;" 
d="M1133 1071l-138 -975q-32 -235 -168.5 -361t-357.5 -126q-184 0 -305 79.5t-156 225.5l162 61q31 -103 111 -158t198 -55q139 0 223 82t107 242l16 107q-113 -168 -319 -168q-185 0 -295.5 124.5t-110.5 333.5q0 257 144 432q145 177 366 177q110 0 194.5 -50.5
t121.5 -138.5l24 168h183zM874 532l5 41q19 159 -51.5 258t-200.5 99q-147 0 -242 -127q-96 -128 -96 -311q0 -146 67 -226t189 -80q133 0 221.5 93t107.5 253zM733 1309q64 0 106 42t54 119h129q-13 -140 -90 -217t-201 -77q-131 0 -198 76.5t-60 217.5h129q-2 -75 33 -118
t98 -43z" />
    <glyph glyph-name="Gdotaccent" unicode="&#x120;" 
d="M1057 0h-160l29 207q-55 -107 -151.5 -168.5t-213.5 -61.5q-210 0 -336 173q-127 177 -127 458q0 157 42.5 306.5t121.5 271.5q97 148 226 227.5t272 79.5q186 0 300.5 -109t139.5 -307l-180 -51q-13 140 -83 216.5t-183 76.5q-187 0 -326 -213t-139 -490q0 -210 82 -336
t219 -126q140 0 241 122q103 125 127 316h-333l22 172h516zM893 1575h-205l29 213h207z" />
    <glyph glyph-name="gdotaccent" unicode="&#x121;" 
d="M1133 1071l-138 -975q-32 -235 -168.5 -361t-357.5 -126q-184 0 -305 79.5t-156 225.5l162 61q31 -103 111 -158t198 -55q139 0 223 82t107 242l16 107q-113 -168 -319 -168q-185 0 -295.5 124.5t-110.5 333.5q0 257 144 432q145 177 366 177q110 0 194.5 -50.5
t121.5 -138.5l24 168h183zM874 532l5 41q19 159 -51.5 258t-200.5 99q-147 0 -242 -127q-96 -128 -96 -311q0 -146 67 -226t189 -80q133 0 221.5 93t107.5 253zM811 1257h-199l29 213h201z" />
    <glyph glyph-name="Gcommaaccent" unicode="&#x122;" 
d="M1057 0h-160l29 207q-55 -107 -151.5 -168.5t-213.5 -61.5q-210 0 -336 173q-127 177 -127 458q0 157 42.5 306.5t121.5 271.5q97 148 226 227.5t272 79.5q186 0 300.5 -109t139.5 -307l-180 -51q-13 140 -83 216.5t-183 76.5q-187 0 -326 -213t-139 -490q0 -210 82 -336
t219 -126q140 0 241 122q103 125 127 316h-333l22 172h516zM516 -223h-78l21 147h196l-20 -139q-10 -86 -75.5 -133.5t-168.5 -42.5l10 84q103 -3 115 84z" />
    <glyph glyph-name="gcommaaccent" unicode="&#x123;" 
d="M1133 1071l-138 -975q-32 -235 -168.5 -361t-357.5 -126q-184 0 -305 79.5t-156 225.5l162 61q31 -103 111 -158t198 -55q139 0 223 82t107 242l16 107q-113 -168 -319 -168q-185 0 -295.5 124.5t-110.5 333.5q0 257 144 432q145 177 366 177q110 0 194.5 -50.5
t121.5 -138.5l24 168h183zM874 532l5 41q19 159 -51.5 258t-200.5 99q-147 0 -242 -127q-96 -128 -96 -311q0 -146 67 -226t189 -80q133 0 221.5 93t107.5 253zM743 1333h80l-20 -147h-199l21 139q12 86 77 133t168 43l-12 -84q-100 3 -115 -84z" />
    <glyph glyph-name="Hcircumflex" unicode="&#x124;" 
d="M938 846l88 624h197l-207 -1470h-197l94 674h-561l-94 -674h-197l207 1470h197l-88 -624h561zM690 1864h219l199 -297h-141l-176 178l-226 -178h-155z" />
    <glyph glyph-name="hcircumflex" unicode="&#x125;" 
d="M299 0h-184l207 1470h184l-76 -536q57 75 141.5 116.5t182.5 41.5q170 0 256 -109.5t61 -294.5l-96 -688h-184l92 659q17 123 -34.5 192t-160.5 69q-117 0 -198.5 -77t-100.5 -206zM698 1901h220l198 -297h-141l-176 178l-226 -178h-155z" />
    <glyph glyph-name="Hbar" unicode="&#x126;" 
d="M1300 1161l-24 -168h-125l-139 -993h-197l80 565h-553l-80 -565h-196l139 993h-127l24 168h127l43 309h197l-43 -309h553l43 309h197l-43 -309h124zM401 993l-36 -258h555l36 258h-555z" />
    <glyph glyph-name="hbar" unicode="&#x127;" 
d="M299 0h-184l166 1180h-144l23 147h141l21 143h184l-21 -143h260l-20 -147h-260l-35 -246q57 75 141.5 116.5t182.5 41.5q170 0 256 -109.5t61 -294.5l-96 -688h-184l92 659q17 123 -34.5 192t-160.5 69q-117 0 -198.5 -77t-100.5 -206z" />
    <glyph glyph-name="Itilde" unicode="&#x128;" 
d="M662 172h415l-24 -172h-1028l24 172h416l158 1126h-418l26 172h1029l-25 -172h-416zM641 1853q41 0 76 -15t88 -60q42 -34 63 -45t45 -11q84 0 121 133h133q-23 -134 -89 -210t-158 -76q-39 0 -75.5 16.5t-90.5 59.5q-41 35 -62.5 46t-46.5 11q-84 0 -121 -133h-131
q23 133 89 208.5t159 75.5z" />
    <glyph glyph-name="itilde" unicode="&#x129;" 
d="M1065 0h-975l21 158h397l104 755h-395l23 158h581l-129 -913h393zM635 1473q35 0 65.5 -16t81.5 -60q35 -34 54 -45t39 -11q68 0 108 132h125q-23 -132 -79.5 -204.5t-137.5 -72.5q-37 0 -68.5 15.5t-78.5 60.5q-38 32 -57 42.5t-38 10.5q-36 0 -61.5 -31t-44.5 -98h-125
q23 134 79 205.5t138 71.5z" />
    <glyph glyph-name="Imacron" unicode="&#x12a;" 
d="M662 172h415l-24 -172h-1028l24 172h416l158 1126h-418l26 172h1029l-25 -172h-416zM1104 1751l-23 -154h-637l23 154h637z" />
    <glyph glyph-name="imacron" unicode="&#x12b;" 
d="M1065 0h-975l21 158h397l104 755h-395l23 158h581l-129 -913h393zM1049 1389l-21 -148h-559l18 148h562z" />
    <glyph glyph-name="Ibreve" unicode="&#x12c;" 
d="M662 172h415l-24 -172h-1028l24 172h416l158 1126h-418l26 172h1029l-25 -172h-416zM786 1690q75 0 129.5 47.5t67.5 126.5h133q-19 -141 -108 -221t-228 -80q-141 0 -222 82t-75 219h144q-1 -81 41.5 -127.5t117.5 -46.5z" />
    <glyph glyph-name="ibreve" unicode="&#x12d;" 
d="M1065 0h-975l21 158h397l104 755h-395l23 158h581l-129 -913h393zM766 1309q64 0 106 42t54 119h129q-13 -140 -90 -217t-201 -77q-131 0 -198 76.5t-60 217.5h129q-2 -75 33 -118t98 -43z" />
    <glyph glyph-name="Iogonek" unicode="&#x12e;" 
d="M496 -381q-80 0 -129.5 43t-49.5 115q0 112 144 223h-436l24 172h416l158 1126h-418l26 172h1029l-25 -172h-416l-157 -1126h415l-24 -172h-426q-168 -113 -168 -197q0 -29 20.5 -46t57.5 -17q31 0 77 12l-16 -117q-66 -16 -102 -16z" />
    <glyph glyph-name="iogonek" unicode="&#x12f;" 
d="M854 1257h-201l31 213h201zM489 0h-399l21 158h397l104 755h-395l23 158h581l-129 -913h393l-20 -158h-410q-168 -113 -168 -197q0 -29 20.5 -46t57.5 -17q31 0 78 12l-16 -117q-66 -16 -103 -16q-80 0 -129 43t-49 115q0 113 143 223z" />
    <glyph glyph-name="Idot" unicode="&#x130;" 
d="M662 172h415l-24 -172h-1028l24 172h416l158 1126h-418l26 172h1029l-25 -172h-416zM862 1575h-205l29 213h207z" />
    <glyph glyph-name="dotlessi" unicode="&#x131;" 
d="M1065 0h-975l21 158h397l104 755h-395l23 158h581l-129 -913h393z" />
    <glyph glyph-name="Jcircumflex" unicode="&#x134;" 
d="M393 -18q-162 0 -295 30l29 193q128 -35 264 -35q219 0 327.5 83.5t133.5 270.5l109 774h-592l26 172h787l-135 -968q-37 -264 -198.5 -392t-455.5 -128zM1014 1864h219l199 -297h-142l-176 178l-225 -178h-156z" />
    <glyph glyph-name="jcircumflex" unicode="&#x135;" 
d="M350 -221q143 0 221.5 61.5t98.5 188.5l123 884h-537l23 158h720l-149 -1063q-26 -191 -158 -293t-348 -102q-171 0 -283 39l25 164q135 -37 264 -37zM862 1470h201l160 -284h-138l-133 160l-180 -160h-151z" />
    <glyph glyph-name="Kcommaaccent" unicode="&#x136;" 
d="M270 1470h195l-96 -682l708 682h242l-676 -645l487 -825h-217l-409 694l-172 -166l-74 -528h-195zM516 -223h-78l21 147h196l-20 -139q-10 -86 -75.5 -133.5t-168.5 -42.5l10 84q103 -3 115 84z" />
    <glyph glyph-name="kcommaaccent" unicode="&#x137;" 
d="M338 1470h184l-129 -913l561 514h238l-479 -424l362 -647h-209l-293 526l-211 -186l-47 -340h-184zM535 -223h-78l20 147h197l-21 -139q-11 -86 -75.5 -133t-167.5 -43l10 84q103 -3 115 84z" />
    <glyph glyph-name="kgreenlandic" unicode="&#x138;" 
d="M281 1071h186l-72 -514l559 514h238l-479 -424l362 -647h-209l-293 526l-211 -186l-47 -340h-184z" />
    <glyph glyph-name="Lacute" unicode="&#x139;" 
d="M1053 0h-930l207 1470h196l-182 -1298h733zM524 1567h-155l243 297h262z" />
    <glyph glyph-name="lacute" unicode="&#x13a;" 
d="M1065 0h-975l21 158h397l162 1155h-396l23 157h580l-185 -1312h393zM874 1638h-155l244 297h262z" />
    <glyph glyph-name="Lcommaaccent" unicode="&#x13b;" 
d="M1053 0h-930l207 1470h196l-182 -1298h733zM524 -223h-78l21 147h197l-21 -139q-10 -86 -75.5 -133.5t-168.5 -42.5l11 84q102 -3 114 84z" />
    <glyph glyph-name="lcommaaccent" unicode="&#x13c;" 
d="M1065 0h-975l21 158h397l162 1155h-396l23 157h580l-185 -1312h393zM524 -223h-78l21 147h197l-21 -139q-10 -86 -75.5 -133.5t-168.5 -42.5l11 84q102 -3 114 84z" />
    <glyph glyph-name="Lcaron" unicode="&#x13d;" 
d="M1053 0h-930l207 1470h196l-182 -1298h733zM918 1063h-127l92 407h209z" />
    <glyph glyph-name="lcaron" unicode="&#x13e;" 
d="M1065 0h-975l21 158h397l162 1155h-396l23 157h580l-185 -1312h393zM1059 1063h-127l92 407h209z" />
    <glyph glyph-name="Ldot" unicode="&#x13f;" 
d="M1053 0h-930l207 1470h196l-182 -1298h733zM1030 676h-199l29 213h201z" />
    <glyph glyph-name="ldot" unicode="&#x140;" 
d="M1065 0h-975l21 158h397l162 1155h-396l23 157h580l-185 -1312h393zM1380 647h-198l28 213h201z" />
    <glyph glyph-name="Lslash" unicode="&#x141;" 
d="M1053 0h-930l76 541l-168 -68l24 174l168 68l107 755h196l-94 -671l348 141l-24 -174l-348 -141l-64 -453h733z" />
    <glyph glyph-name="lslash" unicode="&#x142;" 
d="M1079 0h-975l21 158h397l74 524l-252 -121l25 176l252 121l63 455h-395l22 157h580l-74 -518l254 121l-27 -178l-251 -121l-86 -616h393z" />
    <glyph glyph-name="Nacute" unicode="&#x143;" 
d="M1038 1470h185l-207 -1470h-178l-430 1155l-162 -1155h-185l207 1470h201l414 -1108zM766 1567h-156l244 297h262z" />
    <glyph glyph-name="nacute" unicode="&#x144;" 
d="M299 0h-184l149 1071h185l-19 -137q57 75 141.5 116.5t182.5 41.5q170 0 256 -109.5t61 -294.5l-96 -688h-184l92 659q17 123 -34.5 192t-160.5 69q-117 0 -198.5 -77t-100.5 -206zM789 1186h-154l152 284h239z" />
    <glyph glyph-name="Ncommaaccent" unicode="&#x145;" 
d="M1038 1470h185l-207 -1470h-178l-430 1155l-162 -1155h-185l207 1470h201l414 -1108zM485 -223h-77l20 147h197l-21 -139q-10 -86 -75.5 -133.5t-168.5 -42.5l11 84q102 -3 114 84z" />
    <glyph glyph-name="ncommaaccent" unicode="&#x146;" 
d="M299 0h-184l149 1071h185l-19 -137q57 75 141.5 116.5t182.5 41.5q170 0 256 -109.5t61 -294.5l-96 -688h-184l92 659q17 123 -34.5 192t-160.5 69q-117 0 -198.5 -77t-100.5 -206zM504 -223h-78l20 147h197l-20 -139q-10 -86 -75.5 -133.5t-168.5 -42.5l10 84
q103 -3 115 84z" />
    <glyph glyph-name="Ncaron" unicode="&#x147;" 
d="M1038 1470h185l-207 -1470h-178l-430 1155l-162 -1155h-185l207 1470h201l414 -1108zM1149 1864l-281 -297h-219l-198 297h141l176 -176l225 176h156z" />
    <glyph glyph-name="ncaron" unicode="&#x148;" 
d="M299 0h-184l149 1071h185l-19 -137q57 75 141.5 116.5t182.5 41.5q170 0 256 -109.5t61 -294.5l-96 -688h-184l92 659q17 123 -34.5 192t-160.5 69q-117 0 -198.5 -77t-100.5 -206zM1077 1470l-239 -284h-203l-160 284h137l133 -159l181 159h151z" />
    <glyph glyph-name="Eng" unicode="&#x14a;" 
d="M1223 1470l-205 -1462q-26 -185 -164.5 -290t-353.5 -105q-179 0 -271 39l25 164q119 -37 250 -37q281 0 327 229l-423 1147l-162 -1155h-185l207 1470h201l414 -1108l155 1108h185z" />
    <glyph glyph-name="eng" unicode="&#x14b;" 
d="M754 1092q170 0 256 -109.5t61 -294.5l-96 -680q-26 -190 -157 -292.5t-347 -102.5q-177 0 -283 39l23 164q135 -37 264 -37q143 0 222 61.5t98 188.5l88 630q17 123 -34.5 192t-160.5 69q-117 0 -198.5 -77t-100.5 -206l-90 -637h-184l149 1071h185l-19 -137
q57 75 141.5 116.5t182.5 41.5z" />
    <glyph glyph-name="Omacron" unicode="&#x14c;" 
d="M563 -23q-217 0 -341 163.5t-124 447.5q0 381 176 643q179 262 447 262q217 0 341 -163t124 -447q0 -383 -178 -643q-177 -263 -445 -263zM569 152q181 0 303 210q123 212 123 512q0 211 -73.5 328t-206.5 117q-180 0 -303 -211q-123 -212 -123 -512q0 -211 73.5 -327.5
t206.5 -116.5zM1104 1751l-23 -154h-637l23 154h637z" />
    <glyph glyph-name="omacron" unicode="&#x14d;" 
d="M668 1092q207 0 326.5 -130t119.5 -356q0 -264 -158 -448q-156 -181 -395 -181q-206 0 -326 131.5t-120 354.5q0 266 155 446q157 183 398 183zM657 936q-154 0 -256 -135t-102 -332q0 -158 72 -246t200 -88q153 0 256 133q103 136 103 332q0 158 -72.5 247t-200.5 89z
M1014 1389l-21 -148h-559l19 148h561z" />
    <glyph glyph-name="Obreve" unicode="&#x14e;" 
d="M563 -23q-217 0 -341 163.5t-124 447.5q0 381 176 643q179 262 447 262q217 0 341 -163t124 -447q0 -383 -178 -643q-177 -263 -445 -263zM569 152q181 0 303 210q123 212 123 512q0 211 -73.5 328t-206.5 117q-180 0 -303 -211q-123 -212 -123 -512q0 -211 73.5 -327.5
t206.5 -116.5zM786 1690q75 0 129.5 47.5t67.5 126.5h133q-19 -141 -108 -221t-228 -80q-141 0 -222 82t-75 219h144q-1 -81 41.5 -127.5t117.5 -46.5z" />
    <glyph glyph-name="obreve" unicode="&#x14f;" 
d="M668 1092q207 0 326.5 -130t119.5 -356q0 -264 -158 -448q-156 -181 -395 -181q-206 0 -326 131.5t-120 354.5q0 266 155 446q157 183 398 183zM657 936q-154 0 -256 -135t-102 -332q0 -158 72 -246t200 -88q153 0 256 133q103 136 103 332q0 158 -72.5 247t-200.5 89z
M731 1309q64 0 106 42t54 119h129q-13 -140 -90 -217t-201 -77q-131 0 -198 76.5t-60 217.5h129q-2 -75 33 -118t98 -43z" />
    <glyph glyph-name="Ohungarumlaut" unicode="&#x150;" 
d="M563 -23q-217 0 -341 163.5t-124 447.5q0 381 176 643q179 262 447 262q217 0 341 -163t124 -447q0 -383 -178 -643q-177 -263 -445 -263zM569 152q181 0 303 210q123 212 123 512q0 211 -73.5 328t-206.5 117q-180 0 -303 -211q-123 -212 -123 -512q0 -211 73.5 -327.5
t206.5 -116.5zM1016 1567h-154l228 297h227zM639 1567h-156l230 297h225z" />
    <glyph glyph-name="ohungarumlaut" unicode="&#x151;" 
d="M668 1092q207 0 326.5 -130t119.5 -356q0 -264 -158 -448q-156 -181 -395 -181q-206 0 -326 131.5t-120 354.5q0 266 155 446q157 183 398 183zM657 936q-154 0 -256 -135t-102 -332q0 -158 72 -246t200 -88q153 0 256 133q103 136 103 332q0 158 -72.5 247t-200.5 89z
M932 1186h-139l159 284h213zM614 1186h-139l158 284h215z" />
    <glyph glyph-name="OE" unicode="&#x152;" 
d="M47 618q0 367 184 609q187 243 476 243h622l-24 -172h-396l-61 -452h311l-24 -172h-312l-69 -502h393l-25 -172h-594q-227 0 -354 163.5t-127 454.5zM557 168l160 1135h-33q-189 0 -319 -201q-129 -200 -129 -484q0 -211 80.5 -330.5t222.5 -119.5h18z" />
    <glyph glyph-name="oe" unicode="&#x153;" 
d="M1012 348l153 -59q-48 -143 -143 -227.5t-211 -84.5q-171 0 -246 166q-110 -166 -268 -166q-133 0 -208 105t-75 289q0 311 111 516q114 205 299 205q159 0 231 -166q116 166 277 166q158 0 235 -150q76 -148 41 -387l-6 -49h-510q-1 -27 -2.5 -55.5t-1.5 -40.5
q0 -134 34.5 -205.5t100.5 -71.5q57 0 107 56.5t82 158.5zM920 938q-66 0 -121 -79t-84 -214h325q17 124 -17 208.5t-103 84.5zM528 690q0 248 -114 248q-96 0 -160 -172q-61 -171 -61 -385q0 -248 114 -248q94 0 158 172q63 168 63 385z" />
    <glyph glyph-name="Racute" unicode="&#x154;" 
d="M616 616h-272l-86 -616h-197l207 1470h490q223 0 348 -103.5t125 -289.5q0 -180 -109.5 -300.5t-300.5 -151.5l316 -625h-213zM440 1300l-71 -514h329q154 0 248 78t94 203q0 112 -78.5 172.5t-224.5 60.5h-297zM797 1567h-156l244 297h262z" />
    <glyph glyph-name="racute" unicode="&#x155;" 
d="M936 0h-889l21 158h303l106 755h-303l23 158h483l-27 -190q62 98 168 154.5t232 56.5q101 0 180 -27l-25 -180q-89 26 -180 26q-157 0 -278 -92q-120 -88 -138 -233l-59 -428h405zM866 1186h-153l151 284h240z" />
    <glyph glyph-name="Rcommaaccent" unicode="&#x156;" 
d="M616 616h-272l-86 -616h-197l207 1470h490q223 0 348 -103.5t125 -289.5q0 -180 -109.5 -300.5t-300.5 -151.5l316 -625h-213zM440 1300l-71 -514h329q154 0 248 78t94 203q0 112 -78.5 172.5t-224.5 60.5h-297zM524 -223h-78l21 147h197l-21 -139q-10 -86 -75.5 -133.5
t-168.5 -42.5l11 84q102 -3 114 84z" />
    <glyph glyph-name="rcommaaccent" unicode="&#x157;" 
d="M936 0h-889l21 158h303l106 755h-303l23 158h483l-27 -190q62 98 168 154.5t232 56.5q101 0 180 -27l-25 -180q-89 26 -180 26q-157 0 -278 -92q-120 -88 -138 -233l-59 -428h405zM389 -223h-78l21 147h196l-20 -139q-10 -86 -75.5 -133.5t-168.5 -42.5l10 84
q103 -3 115 84z" />
    <glyph glyph-name="Rcaron" unicode="&#x158;" 
d="M616 616h-272l-86 -616h-197l207 1470h490q223 0 348 -103.5t125 -289.5q0 -180 -109.5 -300.5t-300.5 -151.5l316 -625h-213zM440 1300l-71 -514h329q154 0 248 78t94 203q0 112 -78.5 172.5t-224.5 60.5h-297zM1184 1864l-281 -297h-219l-199 297h142l176 -176l225 176
h156z" />
    <glyph glyph-name="rcaron" unicode="&#x159;" 
d="M936 0h-889l21 158h303l106 755h-303l23 158h483l-27 -190q62 98 168 154.5t232 56.5q101 0 180 -27l-25 -180q-89 26 -180 26q-157 0 -278 -92q-120 -88 -138 -233l-59 -428h405zM1153 1470l-240 -284h-202l-160 284h137l133 -159l180 159h152z" />
    <glyph glyph-name="Sacute" unicode="&#x15a;" 
d="M586 -23q-197 0 -365 97q-156 93 -223 254l160 106q55 -135 171 -211t265 -76t250 78q98 76 98 199q0 90 -70.5 144.5t-232.5 93.5q-238 57 -347.5 151.5t-109.5 243.5q0 189 148 313q147 123 377 123q180 0 321.5 -82t198.5 -219l-154 -105q-44 110 -145.5 173
t-231.5 63q-142 0 -230.5 -68t-88.5 -174q0 -90 77.5 -145t258.5 -98q227 -57 325.5 -146.5t98.5 -240.5q0 -209 -154 -342q-153 -132 -397 -132zM827 1567h-155l243 297h263z" />
    <glyph glyph-name="sacute" unicode="&#x15b;" 
d="M578 -23q-176 0 -318 74q-140 74 -192 197l147 100q47 -103 146 -160t229 -57q121 0 195.5 48t74.5 124q0 61 -57 97.5t-205 66.5q-210 47 -298.5 114.5t-88.5 180.5q0 145 123 237q128 93 321 93q160 0 284 -65.5t167 -170.5l-145 -98q-35 85 -120.5 133.5t-201.5 48.5
q-108 0 -177 -44t-69 -112q0 -55 53 -90q50 -31 234 -73q196 -44 281.5 -114t85.5 -183q0 -151 -132 -250q-135 -97 -337 -97zM768 1186h-154l152 284h239z" />
    <glyph glyph-name="Scircumflex" unicode="&#x15c;" 
d="M586 -23q-197 0 -365 97q-156 93 -223 254l160 106q55 -135 171 -211t265 -76t250 78q98 76 98 199q0 90 -70.5 144.5t-232.5 93.5q-238 57 -347.5 151.5t-109.5 243.5q0 189 148 313q147 123 377 123q180 0 321.5 -82t198.5 -219l-154 -105q-44 110 -145.5 173
t-231.5 63q-142 0 -230.5 -68t-88.5 -174q0 -90 77.5 -145t258.5 -98q227 -57 325.5 -146.5t98.5 -240.5q0 -209 -154 -342q-153 -132 -397 -132zM711 1864h219l198 -297h-141l-176 178l-225 -178h-156z" />
    <glyph glyph-name="scircumflex" unicode="&#x15d;" 
d="M578 -23q-176 0 -318 74q-140 74 -192 197l147 100q47 -103 146 -160t229 -57q121 0 195.5 48t74.5 124q0 61 -57 97.5t-205 66.5q-210 47 -298.5 114.5t-88.5 180.5q0 145 123 237q128 93 321 93q160 0 284 -65.5t167 -170.5l-145 -98q-35 85 -120.5 133.5t-201.5 48.5
q-108 0 -177 -44t-69 -112q0 -55 53 -90q50 -31 234 -73q196 -44 281.5 -114t85.5 -183q0 -151 -132 -250q-135 -97 -337 -97zM643 1470h201l160 -284h-138l-133 160l-180 -160h-152z" />
    <glyph glyph-name="Scedilla" unicode="&#x15e;" 
d="M-2 328l160 106q55 -135 171 -211t265 -76t250 78q98 76 98 199q0 90 -70.5 144.5t-232.5 93.5q-238 57 -347.5 151.5t-109.5 243.5q0 189 148 313q147 123 377 123q180 0 321.5 -82t198.5 -219l-154 -105q-44 110 -145.5 173t-231.5 63q-142 0 -230.5 -68t-88.5 -174
q0 -90 77.5 -145t258.5 -98q227 -57 325.5 -146.5t98.5 -240.5q0 -209 -154 -342q-153 -132 -397 -132h-39l-17 -36q74 -12 113 -51.5t39 -100.5q0 -79 -64 -128.5t-167 -49.5q-127 0 -209 82l82 90q56 -62 135 -62q41 0 65.5 19.5t24.5 50.5q0 35 -39 56t-111 22l52 121
q-160 29 -281 119t-172 219z" />
    <glyph glyph-name="scedilla" unicode="&#x15f;" 
d="M68 248l147 100q47 -103 146 -160t229 -57q121 0 195.5 48t74.5 124q0 61 -57 97.5t-205 66.5q-210 47 -298.5 114.5t-88.5 180.5q0 145 123 237q128 93 321 93q160 0 284 -65.5t167 -170.5l-145 -98q-35 85 -120.5 133.5t-201.5 48.5q-108 0 -177 -44t-69 -112
q0 -55 53 -90q50 -31 234 -73q196 -44 281.5 -114t85.5 -183q0 -151 -132 -250q-135 -97 -337 -97q-28 0 -43 3l-19 -39q74 -12 113 -51.5t39 -100.5q0 -79 -64.5 -128.5t-167.5 -49.5q-127 0 -209 82l82 90q56 -62 135 -62q41 0 66 19.5t25 50.5q0 35 -39 56t-111 22
l53 121q-133 25 -231 93t-139 165z" />
    <glyph glyph-name="Scaron" unicode="&#x160;" 
d="M586 -23q-197 0 -365 97q-156 93 -223 254l160 106q55 -135 171 -211t265 -76t250 78q98 76 98 199q0 90 -70.5 144.5t-232.5 93.5q-238 57 -347.5 151.5t-109.5 243.5q0 189 148 313q147 123 377 123q180 0 321.5 -82t198.5 -219l-154 -105q-44 110 -145.5 173
t-231.5 63q-142 0 -230.5 -68t-88.5 -174q0 -90 77.5 -145t258.5 -98q227 -57 325.5 -146.5t98.5 -240.5q0 -209 -154 -342q-153 -132 -397 -132zM1169 1864l-280 -297h-219l-199 297h141l176 -176l226 176h155z" />
    <glyph glyph-name="scaron" unicode="&#x161;" 
d="M578 -23q-176 0 -318 74q-140 74 -192 197l147 100q47 -103 146 -160t229 -57q121 0 195.5 48t74.5 124q0 61 -57 97.5t-205 66.5q-210 47 -298.5 114.5t-88.5 180.5q0 145 123 237q128 93 321 93q160 0 284 -65.5t167 -170.5l-145 -98q-35 85 -120.5 133.5t-201.5 48.5
q-108 0 -177 -44t-69 -112q0 -55 53 -90q50 -31 234 -73q196 -44 281.5 -114t85.5 -183q0 -151 -132 -250q-135 -97 -337 -97zM1051 1470l-240 -284h-203l-160 284h138l133 -159l180 159h152z" />
    <glyph glyph-name="Tcommaaccent" unicode="&#x162;" 
d="M709 -211q0 -79 -64.5 -128.5t-167.5 -49.5q-127 0 -209 82l82 90q56 -62 135 -62q41 0 65.5 19.5t24.5 50.5q0 35 -38.5 56t-110.5 22l57 131h-43l183 1298h-473l24 172h1141l-25 -172h-471l-182 -1298h-53l-27 -59q73 -12 112.5 -51.5t39.5 -100.5z" />
    <glyph glyph-name="tcommaaccent" unicode="&#x163;" 
d="M367 344l79 569h-313l23 158h313l43 313h182l-43 -313h492l-23 -158h-491l-78 -555q-13 -104 44 -154t191 -50q110 0 240 36l-22 -165q-126 -37 -242 -37q-68 0 -109 8l-24 -55q73 -12 112 -51t39 -101q0 -79 -64 -128.5t-167 -49.5q-127 0 -209 82l82 90q56 -62 135 -62
q41 0 65.5 19.5t24.5 50.5q0 35 -38.5 56t-110.5 22l65 149q-113 41 -163 124.5t-33 201.5z" />
    <glyph glyph-name="Tcaron" unicode="&#x164;" 
d="M1315 1470l-25 -172h-471l-182 -1298h-197l183 1298h-473l24 172h1141zM1149 1864l-281 -297h-219l-198 297h141l176 -176l225 176h156z" />
    <glyph glyph-name="tcaron" unicode="&#x165;" 
d="M762 -12q-204 0 -312 95t-83 261l79 569h-313l23 158h313l43 313h182l-43 -313h492l-23 -158h-491l-78 -555q-13 -104 44 -154t191 -50q110 0 240 36l-22 -165q-126 -37 -242 -37zM885 1171h-127l92 408h209z" />
    <glyph glyph-name="Tbar" unicode="&#x166;" 
d="M987 844l-24 -172h-232l-94 -672h-197l95 672h-232l25 172h231l64 454h-473l24 172h1141l-25 -172h-471l-63 -454h231z" />
    <glyph glyph-name="tbar" unicode="&#x167;" 
d="M762 -12q-204 0 -312 95t-83 261l24 182h-311l20 158h314l32 229h-313l23 158h313l43 313h182l-43 -313h492l-23 -158h-491l-33 -229h494l-23 -158h-494l-22 -168q-13 -104 44 -154t191 -50q110 0 240 36l-22 -165q-126 -37 -242 -37z" />
    <glyph glyph-name="Utilde" unicode="&#x168;" 
d="M569 -20q-246 0 -364 153t-80 424l127 913h197l-127 -905q-29 -198 36.5 -301.5t219.5 -103.5q146 0 226 97.5t111 307.5l127 905h197l-129 -913q-41 -291 -175 -434t-366 -143zM641 1853q41 0 76 -15t88 -60q42 -34 63 -45t45 -11q84 0 121 133h133q-23 -134 -89 -210
t-158 -76q-39 0 -75.5 16.5t-90.5 59.5q-41 35 -62.5 46t-46.5 11q-84 0 -121 -133h-131q23 133 89 208.5t159 75.5z" />
    <glyph glyph-name="utilde" unicode="&#x169;" 
d="M928 1071h186l-151 -1071h-185l19 137q-57 -75 -141.5 -116t-182.5 -41q-168 0 -255 109.5t-62 293.5l98 688h184l-94 -659q-17 -123 35 -191.5t162 -68.5q117 0 198.5 77t100.5 205zM590 1473q35 0 65.5 -16t81.5 -60q35 -34 54 -45t39 -11q68 0 108 132h125
q-23 -132 -79.5 -204.5t-137.5 -72.5q-37 0 -68.5 15.5t-78.5 60.5q-38 32 -57 42.5t-38 10.5q-36 0 -61.5 -31t-44.5 -98h-125q23 134 79 205.5t138 71.5z" />
    <glyph glyph-name="Umacron" unicode="&#x16a;" 
d="M569 -20q-246 0 -364 153t-80 424l127 913h197l-127 -905q-29 -198 36.5 -301.5t219.5 -103.5q146 0 226 97.5t111 307.5l127 905h197l-129 -913q-41 -291 -175 -434t-366 -143zM1104 1751l-23 -154h-637l23 154h637z" />
    <glyph glyph-name="umacron" unicode="&#x16b;" 
d="M928 1071h186l-151 -1071h-185l19 137q-57 -75 -141.5 -116t-182.5 -41q-168 0 -255 109.5t-62 293.5l98 688h184l-94 -659q-17 -123 35 -191.5t162 -68.5q117 0 198.5 77t100.5 205zM1006 1389l-21 -148h-559l18 148h562z" />
    <glyph glyph-name="Ubreve" unicode="&#x16c;" 
d="M569 -20q-246 0 -364 153t-80 424l127 913h197l-127 -905q-29 -198 36.5 -301.5t219.5 -103.5q146 0 226 97.5t111 307.5l127 905h197l-129 -913q-41 -291 -175 -434t-366 -143zM786 1690q75 0 129.5 47.5t67.5 126.5h133q-19 -141 -108 -221t-228 -80q-141 0 -222 82
t-75 219h144q-1 -81 41.5 -127.5t117.5 -46.5z" />
    <glyph glyph-name="ubreve" unicode="&#x16d;" 
d="M928 1071h186l-151 -1071h-185l19 137q-57 -75 -141.5 -116t-182.5 -41q-168 0 -255 109.5t-62 293.5l98 688h184l-94 -659q-17 -123 35 -191.5t162 -68.5q117 0 198.5 77t100.5 205zM723 1309q64 0 106 42t54 119h129q-13 -140 -90 -217t-201 -77q-131 0 -198 76.5
t-60 217.5h129q-2 -75 33 -118t98 -43z" />
    <glyph glyph-name="Uring" unicode="&#x16e;" 
d="M569 -20q-246 0 -364 153t-80 424l127 913h197l-127 -905q-29 -198 36.5 -301.5t219.5 -103.5q146 0 226 97.5t111 307.5l127 905h197l-129 -913q-41 -291 -175 -434t-366 -143zM776 1552q-96 0 -156.5 59t-60.5 150q0 100 68 169t170 69q96 0 157.5 -60t61.5 -151
q0 -99 -69 -167.5t-171 -68.5zM793 1888q-49 0 -83 -37t-34 -88q0 -43 29.5 -70.5t74.5 -27.5q49 0 83 35t34 86q0 44 -30 73t-74 29z" />
    <glyph glyph-name="uring" unicode="&#x16f;" 
d="M928 1071h186l-151 -1071h-185l19 137q-57 -75 -141.5 -116t-182.5 -41q-168 0 -255 109.5t-62 293.5l98 688h184l-94 -659q-17 -123 35 -191.5t162 -68.5q117 0 198.5 77t100.5 205zM713 1157q-86 0 -140.5 54.5t-54.5 136.5q0 87 62.5 149t152.5 62q84 0 139.5 -55.5
t55.5 -137.5q0 -87 -62.5 -148t-152.5 -61zM729 1462q-44 0 -76 -33.5t-32 -78.5q0 -41 27.5 -69t68.5 -28q44 0 75 33t31 80q0 41 -26.5 68.5t-67.5 27.5z" />
    <glyph glyph-name="Uhungarumlaut" unicode="&#x170;" 
d="M569 -20q-246 0 -364 153t-80 424l127 913h197l-127 -905q-29 -198 36.5 -301.5t219.5 -103.5q146 0 226 97.5t111 307.5l127 905h197l-129 -913q-41 -291 -175 -434t-366 -143zM999 1567h-153l227 297h227zM623 1567h-156l229 297h226z" />
    <glyph glyph-name="uhungarumlaut" unicode="&#x171;" 
d="M928 1071h186l-151 -1071h-185l19 137q-57 -75 -141.5 -116t-182.5 -41q-168 0 -255 109.5t-62 293.5l98 688h184l-94 -659q-17 -123 35 -191.5t162 -68.5q117 0 198.5 77t100.5 205zM932 1186h-139l159 284h213zM614 1186h-139l158 284h215z" />
    <glyph glyph-name="Uogonek" unicode="&#x172;" 
d="M711 -248l-17 -117q-66 -16 -102 -16q-80 0 -129 43t-49 115q0 106 118 203q-229 12 -336.5 163.5t-70.5 413.5l127 913h197l-127 -905q-29 -198 36.5 -301.5t219.5 -103.5q146 0 226 97.5t111 307.5l127 905h197l-129 -913q-31 -220 -113.5 -353.5t-222.5 -189.5
q-103 -42 -161 -99t-58 -112q0 -29 20.5 -46t57.5 -17q31 0 78 12z" />
    <glyph glyph-name="uogonek" unicode="&#x173;" 
d="M782 -381q-80 0 -129 43t-49 115q0 125 178 250l15 110q-57 -75 -141.5 -116t-182.5 -41q-168 0 -255 109.5t-62 293.5l98 688h184l-94 -659q-17 -123 35 -191.5t162 -68.5q117 0 198.5 77t100.5 205l88 637h186l-151 -1071h-50q-168 -113 -168 -197q0 -29 20.5 -46
t57.5 -17q31 0 78 12l-16 -117q-66 -16 -103 -16z" />
    <glyph glyph-name="Wcircumflex" unicode="&#x174;" 
d="M319 369l349 1101h151l17 -1101l323 1101h180l-454 -1470h-164l-23 1141l-366 -1141h-168l-12 1470h172zM690 1864h219l199 -297h-141l-176 178l-226 -178h-155z" />
    <glyph glyph-name="wcircumflex" unicode="&#x175;" 
d="M315 272l299 799h152l45 -799l283 799h180l-404 -1071h-163l-50 825l-315 -825h-172l-64 1071h173zM645 1470h201l160 -284h-138l-133 160l-180 -160h-152z" />
    <glyph glyph-name="Ycircumflex" unicode="&#x176;" 
d="M344 1470l303 -675l492 675h213l-629 -852l-86 -618h-197l88 618l-391 852h207zM690 1864h219l199 -297h-141l-176 178l-226 -178h-155z" />
    <glyph glyph-name="ycircumflex" unicode="&#x177;" 
d="M1221 1071l-682 -1192q-90 -158 -164 -209q-71 -51 -193 -51q-56 0 -114 12l20 156q45 -10 94 -10q64 0 103.5 28t83.5 107l67 119l-280 1042l186 -2l211 -831l471 831h197zM645 1470h201l160 -284h-138l-133 160l-180 -160h-152z" />
    <glyph glyph-name="Ydieresis" unicode="&#x178;" 
d="M344 1470l303 -675l492 675h213l-629 -852l-86 -618h-197l88 618l-391 852h207zM680 1575h-205l31 213h203zM1044 1575h-204l30 213h205z" />
    <glyph glyph-name="Zacute" unicode="&#x179;" 
d="M274 172h832l-25 -172h-1079l21 152l985 1146h-815l24 172h1063l-23 -151zM774 1567h-156l244 297h262z" />
    <glyph glyph-name="zacute" unicode="&#x17a;" 
d="M328 158h690l-21 -158h-934l21 139l805 774h-688l22 158h918l-19 -141zM758 1186h-154l152 284h239z" />
    <glyph glyph-name="Zdotaccent" unicode="&#x17b;" 
d="M274 172h832l-25 -172h-1079l21 152l985 1146h-815l24 172h1063l-23 -151zM862 1575h-205l29 213h207z" />
    <glyph glyph-name="zdotaccent" unicode="&#x17c;" 
d="M328 158h690l-21 -158h-934l21 139l805 774h-688l22 158h918l-19 -141zM809 1257h-199l29 213h201z" />
    <glyph glyph-name="Zcaron" unicode="&#x17d;" 
d="M274 172h832l-25 -172h-1079l21 152l985 1146h-815l24 172h1063l-23 -151zM1155 1864l-281 -297h-219l-198 297h141l176 -176l225 176h156z" />
    <glyph glyph-name="zcaron" unicode="&#x17e;" 
d="M328 158h690l-21 -158h-934l21 139l805 774h-688l22 158h918l-19 -141zM1049 1470l-240 -284h-203l-160 284h138l133 -159l180 159h152z" />
    <glyph glyph-name="florin" unicode="&#x192;" 
d="M758 735l-109 -373q-54 -191 -154.5 -288t-242.5 -97q-75 0 -143 26.5t-109 70.5l92 129q65 -68 150 -68q144 0 215 234l106 366h-211l19 135h231l74 250q51 183 153 278t248 95q78 0 142.5 -26.5t99.5 -73.5l-90 -127q-53 69 -142 69q-73 0 -130.5 -58t-88.5 -163
l-71 -244h245l-18 -135h-266z" />
    <glyph glyph-name="AEacute" unicode="&#x1fc;" 
d="M-76 0l682 1470h719l-25 -170h-376l-64 -456h314l-25 -168h-313l-72 -506h379l-25 -170h-569l57 403h-299l-186 -403h-197zM737 1341l-354 -770h246zM989 1567h-155l243 297h262z" />
    <glyph glyph-name="aeacute" unicode="&#x1fd;" 
d="M1032 344l137 -61q-50 -144 -144 -225t-214 -81q-92 0 -163.5 48.5t-106.5 134.5q-49 -86 -124.5 -132t-166.5 -46q-118 0 -191 77.5t-73 204.5q0 178 128.5 280.5t354.5 102.5h51l12 90q12 88 -21.5 140.5t-102.5 52.5t-118.5 -47.5t-74.5 -137.5l-141 41
q31 135 125 220q95 86 217 86q86 1 146 -37.5t85 -112.5q116 150 273 150q164 0 247 -150q84 -150 50 -375l-11 -61h-555q-1 -23 -2.5 -46.5t-1.5 -31.5q0 -135 48 -213t132 -78q67 0 120 53.5t85 153.5zM911 934q-79 0 -142 -76.5t-95 -210.5h389q14 130 -27 208.5
t-125 78.5zM147 276q0 -67 35 -105t97 -38q80 0 134.5 63t67.5 173l19 137h-29q-324 0 -324 -230zM758 1186h-154l152 284h239z" />
    <glyph glyph-name="Oslashacute" unicode="&#x1fe;" 
d="M113 -41l-109 78l160 203q-66 147 -66 348q0 381 176 643q179 262 447 262q200 0 323 -141l127 159l109 -77l-160 -203q66 -147 66 -348q0 -383 -178 -643q-177 -263 -445 -263q-200 0 -323 142zM715 1325q-182 0 -309 -213q-125 -210 -125 -516q0 -115 18 -186l629 794
q-74 121 -213 121zM569 145q184 0 310 211q125 210 125 518q0 112 -19 187l-629 -795q74 -121 213 -121zM834 1567h-156l244 297h262z" />
    <glyph glyph-name="oslashacute" unicode="&#x1ff;" 
d="M115 463q0 266 155 446q157 183 398 183q176 0 288 -95l109 115l102 -90l-123 -129q70 -119 70 -287q0 -264 -158 -448q-156 -181 -395 -181q-175 0 -287 95l-114 -123l-103 90l127 137q-69 112 -69 287zM657 940q-156 0 -260 -137q-102 -135 -102 -334q0 -86 22 -154
l523 557q-74 68 -183 68zM571 129q156 0 258 135q105 138 105 336q0 76 -21 152l-522 -557q72 -66 180 -66zM776 1186h-154l152 284h239z" />
    <glyph glyph-name="Scommaaccent" unicode="&#x218;" 
d="M586 -23q-197 0 -365 97q-156 93 -223 254l160 106q55 -135 171 -211t265 -76t250 78q98 76 98 199q0 90 -70.5 144.5t-232.5 93.5q-238 57 -347.5 151.5t-109.5 243.5q0 189 148 313q147 123 377 123q180 0 321.5 -82t198.5 -219l-154 -105q-44 110 -145.5 173
t-231.5 63q-142 0 -230.5 -68t-88.5 -174q0 -90 77.5 -145t258.5 -98q227 -57 325.5 -146.5t98.5 -240.5q0 -209 -154 -342q-153 -132 -397 -132zM496 -223h-78l20 147h197l-21 -139q-11 -86 -75.5 -133t-167.5 -43l10 84q103 -3 115 84z" />
    <glyph glyph-name="scommaaccent" unicode="&#x219;" 
d="M578 -23q-176 0 -318 74q-140 74 -192 197l147 100q47 -103 146 -160t229 -57q121 0 195.5 48t74.5 124q0 61 -57 97.5t-205 66.5q-210 47 -298.5 114.5t-88.5 180.5q0 145 123 237q128 93 321 93q160 0 284 -65.5t167 -170.5l-145 -98q-35 85 -120.5 133.5t-201.5 48.5
q-108 0 -177 -44t-69 -112q0 -55 53 -90q50 -31 234 -73q196 -44 281.5 -114t85.5 -183q0 -151 -132 -250q-135 -97 -337 -97zM489 -223h-77l20 147h197l-21 -139q-11 -86 -75.5 -133t-167.5 -43l10 84q102 -3 114 84z" />
    <glyph glyph-name="uni021A" unicode="&#x21a;" 
d="M1315 1470l-25 -172h-471l-182 -1298h-197l183 1298h-473l24 172h1141zM489 -223h-77l20 147h197l-21 -139q-11 -86 -75.5 -133t-167.5 -43l10 84q102 -3 114 84z" />
    <glyph glyph-name="uni021B" unicode="&#x21b;" 
d="M762 -12q-204 0 -312 95t-83 261l79 569h-313l23 158h313l43 313h182l-43 -313h492l-23 -158h-491l-78 -555q-13 -104 44 -154t191 -50q110 0 240 36l-22 -165q-126 -37 -242 -37zM582 -223h-78l20 147h197l-21 -139q-11 -86 -75.5 -133t-167.5 -43l10 84q103 -3 115 84z
" />
    <glyph glyph-name="uni0237" unicode="&#x237;" 
d="M350 -221q143 0 221.5 61.5t98.5 188.5l123 884h-537l23 158h720l-149 -1063q-26 -191 -158 -293t-348 -102q-171 0 -283 39l25 164q135 -37 264 -37z" />
    <glyph glyph-name="circumflex" unicode="&#x2c6;" 
d="M645 1470h201l160 -284h-138l-133 160l-180 -160h-152z" />
    <glyph glyph-name="caron" unicode="&#x2c7;" 
d="M1047 1470l-240 -284h-203l-160 284h138l133 -159l180 159h152z" />
    <glyph glyph-name="breve" unicode="&#x2d8;" 
d="M733 1309q64 0 106 42t54 119h129q-13 -140 -90 -217t-201 -77q-131 0 -198 76.5t-60 217.5h129q-2 -75 33 -118t98 -43z" />
    <glyph glyph-name="dotaccent" unicode="&#x2d9;" 
d="M815 1257h-199l29 213h201z" />
    <glyph glyph-name="ring" unicode="&#x2da;" 
d="M721 1157q-86 0 -140.5 54.5t-54.5 136.5q0 87 62.5 149t152.5 62q84 0 139.5 -55.5t55.5 -137.5q0 -87 -62.5 -148t-152.5 -61zM737 1462q-44 0 -76 -33.5t-32 -78.5q0 -41 27.5 -69t68.5 -28q44 0 75 33t31 80q0 41 -26.5 68.5t-67.5 27.5z" />
    <glyph glyph-name="ogonek" unicode="&#x2db;" 
d="M526 -381q-80 0 -129 43t-49 115q0 154 268 305l50 -76q-177 -117 -177 -203q0 -29 20.5 -46t57.5 -17q31 0 78 12l-16 -117q-66 -16 -103 -16z" />
    <glyph glyph-name="tilde" unicode="&#x2dc;" 
d="M598 1473q35 0 65.5 -16t81.5 -60q35 -34 54 -45t39 -11q68 0 108 132h125q-23 -132 -79.5 -204.5t-137.5 -72.5q-37 0 -68.5 15.5t-78.5 60.5q-38 32 -57 42.5t-38 10.5q-36 0 -61.5 -31t-44.5 -98h-125q23 134 79 205.5t138 71.5z" />
    <glyph glyph-name="hungarumlaut" unicode="&#x2dd;" 
d="M834 1186h-140l160 284h213zM516 1186h-139l158 284h215z" />
    <glyph glyph-name="gravecmb" unicode="&#x300;" horiz-adv-x="0" 
d="M63 1470l93 -284h-138l-174 284h219z" />
    <glyph glyph-name="acutecmb" unicode="&#x301;" horiz-adv-x="0" 
d="M-41 1186h-154l152 284h240z" />
    <glyph glyph-name="circumflexcmb" unicode="&#x302;" horiz-adv-x="0" 
d="M-59 1470h200l160 -284h-137l-133 160l-181 -160h-151z" />
    <glyph glyph-name="tildecmb" unicode="&#x303;" horiz-adv-x="0" 
d="M-127 1473q35 0 65.5 -16t81.5 -60q35 -34 54 -45t39 -11q68 0 108 132h125q-23 -132 -79.5 -204.5t-137.5 -72.5q-37 0 -68.5 15.5t-78.5 60.5q-38 32 -57 42.5t-38 10.5q-36 0 -61.5 -31t-44.5 -98h-125q23 134 79 205.5t138 71.5z" />
    <glyph glyph-name="macroncmb" unicode="&#x304;" horiz-adv-x="0" 
d="M291 1389l-21 -148h-559l19 148h561z" />
    <glyph glyph-name="brevecmb" unicode="&#x306;" horiz-adv-x="0" 
d="M-14 1309q64 0 105.5 42t53.5 119h129q-13 -140 -89.5 -217t-200.5 -77q-131 0 -198 76.5t-60 217.5h129q-2 -75 33 -118t98 -43z" />
    <glyph glyph-name="dotaccentcmb" unicode="&#x307;" horiz-adv-x="0" 
d="M84 1257h-199l29 213h201z" />
    <glyph glyph-name="dieresiscmb" unicode="&#x308;" horiz-adv-x="0" 
d="M-88 1249h-205l31 213h203zM264 1249h-205l31 213h203z" />
    <glyph glyph-name="ringcmb" unicode="&#x30a;" horiz-adv-x="0" 
d="M-10 1157q-86 0 -140.5 54.5t-54.5 136.5q0 87 62.5 149t152.5 62q84 0 139.5 -55.5t55.5 -137.5q0 -87 -62.5 -148t-152.5 -61zM6 1462q-44 0 -76 -33.5t-32 -78.5q0 -41 27.5 -69t68.5 -28q44 0 75 33t31 80q0 41 -26.5 68.5t-67.5 27.5z" />
    <glyph glyph-name="hungarumlautcmb" unicode="&#x30b;" horiz-adv-x="0" 
d="M113 1186h-140l160 284h213zM-205 1186h-139l158 284h215z" />
    <glyph glyph-name="caroncmb" unicode="&#x30c;" horiz-adv-x="0" 
d="M301 1470l-240 -284h-202l-160 284h137l133 -159l181 159h151z" />
    <glyph glyph-name="commaturncmb" unicode="&#x312;" horiz-adv-x="0" 
d="M6 1333h80l-20 -147h-199l20 139q12 86 77.5 133t168.5 43l-12 -84q-100 3 -115 -84z" />
    <glyph glyph-name="commaaccentcmb" unicode="&#x326;" horiz-adv-x="0" 
d="M-6 -223h-78l21 147h196l-20 -139q-10 -86 -75.5 -133.5t-168.5 -42.5l10 84q103 -3 115 84z" />
    <glyph glyph-name="cedillacmb" unicode="&#x327;" horiz-adv-x="0" 
d="M221 -211q0 -79 -64 -128.5t-167 -49.5q-127 0 -209 82l82 90q56 -62 135 -62q41 0 65.5 19.5t24.5 50.5q0 35 -38.5 56t-110.5 22l65 151h102l-36 -79q73 -12 112 -51t39 -101z" />
    <glyph glyph-name="ogonekcmb" unicode="&#x328;" horiz-adv-x="0" 
d="M20 -381q-80 0 -129 43t-49 115q0 154 269 305l49 -76q-176 -116 -176 -203q0 -29 20 -46t57 -17q31 0 78 12l-16 -117q-66 -16 -103 -16z" />
    <glyph glyph-name="baht" unicode="&#xe3f;" 
d="M453 0h-402l207 1470h404l28 207h150l-31 -211q178 -13 272.5 -100.5t94.5 -237.5q0 -137 -78 -240.5t-201 -129.5q110 -32 170.5 -115.5t60.5 -204.5q0 -193 -143 -315q-141 -123 -371 -123h-12l-29 -209h-149zM637 1305h-213l-66 -465h213zM987 1098q0 174 -201 202
l-65 -458q124 10 195 79.5t71 176.5zM336 672l-72 -506h213l72 506h-213zM942 446q0 99 -63 158t-181 66l-71 -504q145 1 230 78t85 202z" />
    <glyph glyph-name="Wgrave" unicode="&#x1e80;" 
d="M319 369l349 1101h151l17 -1101l323 1101h180l-454 -1470h-164l-23 1141l-366 -1141h-168l-12 1470h172zM668 1864l180 -297h-143l-285 297h248z" />
    <glyph glyph-name="wgrave" unicode="&#x1e81;" 
d="M315 272l299 799h152l45 -799l283 799h180l-404 -1071h-163l-50 825l-315 -825h-172l-64 1071h173zM672 1470l92 -284h-137l-174 284h219z" />
    <glyph glyph-name="Wacute" unicode="&#x1e82;" 
d="M319 369l349 1101h151l17 -1101l323 1101h180l-454 -1470h-164l-23 1141l-366 -1141h-168l-12 1470h172zM823 1567h-155l243 297h263z" />
    <glyph glyph-name="wacute" unicode="&#x1e83;" 
d="M315 272l299 799h152l45 -799l283 799h180l-404 -1071h-163l-50 825l-315 -825h-172l-64 1071h173zM805 1186h-154l152 284h239z" />
    <glyph glyph-name="Wdieresis" unicode="&#x1e84;" 
d="M319 369l349 1101h151l17 -1101l323 1101h180l-454 -1470h-164l-23 1141l-366 -1141h-168l-12 1470h172zM680 1575h-205l31 213h203zM1044 1575h-204l30 213h205z" />
    <glyph glyph-name="wdieresis" unicode="&#x1e85;" 
d="M315 272l299 799h152l45 -799l283 799h180l-404 -1071h-163l-50 825l-315 -825h-172l-64 1071h173zM641 1249h-205l31 213h203zM993 1249h-205l31 213h203z" />
    <glyph glyph-name="Germandbls" unicode="&#x1e9e;" 
d="M1178 477q0 -210 -146 -356q-144 -144 -354 -144q-163 0 -291 84l27 175q132 -95 266 -95q132 0 223 97q90 96 90 231q0 133 -94 206t-262 73h-72l19 126l409 426h-538l-183 -1300h-196l207 1470h972l-22 -159l-399 -418q164 -41 254 -150.5t90 -265.5z" />
    <glyph glyph-name="Ygrave" unicode="&#x1ef2;" 
d="M344 1470l303 -675l492 675h213l-629 -852l-86 -618h-197l88 618l-391 852h207zM713 1864l180 -297h-143l-285 297h248z" />
    <glyph glyph-name="ygrave" unicode="&#x1ef3;" 
d="M1221 1071l-682 -1192q-90 -158 -164 -209q-71 -51 -193 -51q-56 0 -114 12l20 156q45 -10 94 -10q64 0 103.5 28t83.5 107l67 119l-280 1042l186 -2l211 -831l471 831h197zM653 1470l92 -284h-137l-174 284h219z" />
    <glyph glyph-name="endash" unicode="&#x2013;" 
d="M1049 522h-873l21 152h872z" />
    <glyph glyph-name="emdash" unicode="&#x2014;" 
d="M1227 522h-1229l20 152h1229z" />
    <glyph glyph-name="quoteleft" unicode="&#x2018;" 
d="M707 1128h131l-39 -292h-285l43 319q23 153 116 233.5t251 81.5l-19 -127q-92 -7 -138.5 -54t-57.5 -140z" />
    <glyph glyph-name="quoteright" unicode="&#x2019;" 
d="M696 1178h-131l39 292h285l-43 -319q-23 -153 -116 -233.5t-251 -81.5l19 127q92 7 138.5 54t57.5 140z" />
    <glyph glyph-name="quotesinglbase" unicode="&#x201a;" 
d="M530 0h-131l39 293h285l-43 -320q-23 -153 -116 -233.5t-251 -81.5l19 127q92 7 138.5 54.5t57.5 140.5z" />
    <glyph glyph-name="quotedblleft" unicode="&#x201c;" 
d="M465 1128h131l-39 -292h-285l43 319q23 153 116 233.5t251 81.5l-18 -127q-92 -7 -139 -54t-58 -140zM946 1128h131l-39 -292h-284l43 319q23 153 115.5 233.5t250.5 81.5l-18 -127q-92 -7 -139 -54t-58 -140z" />
    <glyph glyph-name="quotedblright" unicode="&#x201d;" 
d="M938 1178h-131l39 292h284l-43 -319q-23 -153 -115.5 -233.5t-250.5 -81.5l18 127q92 7 139 54t58 140zM457 1178h-131l39 292h284l-43 -319q-23 -153 -115.5 -233.5t-250.5 -81.5l18 127q92 7 139 54t58 140z" />
    <glyph glyph-name="quotedblbase" unicode="&#x201e;" 
d="M772 0h-131l39 293h285l-43 -320q-23 -153 -116 -233.5t-251 -81.5l18 127q92 7 139 54.5t58 140.5zM291 0h-131l39 293h284l-43 -320q-23 -153 -115.5 -233.5t-250.5 -81.5l18 127q92 7 139 54.5t58 140.5z" />
    <glyph glyph-name="dagger" unicode="&#x2020;" 
d="M698 604h-149l72 502h-267l21 149h266l37 256h147l-34 -256h264l-21 -149h-266z" />
    <glyph glyph-name="daggerdbl" unicode="&#x2021;" 
d="M698 604h-149l31 215h-267l21 142h266l27 196h-267l21 141h266l31 213h147l-30 -213h266l-19 -141h-266l-28 -196h266l-21 -142h-264z" />
    <glyph glyph-name="bullet" unicode="&#x2022;" 
d="M313 571q0 138 97 240q94 98 235 98q124 0 205.5 -80.5t81.5 -203.5q0 -139 -96 -240q-94 -98 -236 -98q-124 0 -205.5 80.5t-81.5 203.5z" />
    <glyph glyph-name="ellipsis" unicode="&#x2026;" 
d="M299 0h-264l39 276h264zM672 0h-264l38 276h265zM1042 0h-262l39 276h262z" />
    <glyph glyph-name="guilsinglleft" unicode="&#x2039;" 
d="M760 172l-357 281l27 184l434 281l-26 -197l-285 -182l233 -181z" />
    <glyph glyph-name="guilsinglright" unicode="&#x203a;" 
d="M473 918l356 -281l-26 -184l-434 -281l26 197l285 182l-234 180z" />
    <glyph glyph-name="fraction" unicode="&#x2044;" horiz-adv-x="0" 
d="M-682 0l1249 1470h168l-1247 -1470h-170z" />
    <glyph glyph-name="uni2070" unicode="&#x2070;" 
d="M643 639q-127 0 -198.5 91t-71.5 251q0 217 100 358q102 144 258 144q127 0 198.5 -89.5t71.5 -248.5q0 -222 -100 -363q-101 -143 -258 -143zM723 1352q-82 0 -141 -109q-58 -107 -58 -264q0 -99 33 -152t94 -53q84 0 142 107q57 105 57 266q0 99 -33 152t-94 53z" />
    <glyph glyph-name="uni2074" unicode="&#x2074;" 
d="M856 856l-29 -201h-141l29 201h-379l16 113l391 504h201l-72 -494h129l-16 -123h-129zM780 1343l-282 -364h231z" />
    <glyph glyph-name="uni2075" unicode="&#x2075;" 
d="M694 1077q-71 0 -125 -57l-139 22l98 431h471l-18 -132h-352l-45 -190q63 51 149 51q104 0 170 -69t66 -175q0 -131 -92 -223q-89 -92 -226 -92q-124 0 -203.5 70t-85.5 186l150 19q7 -66 47.5 -106t97.5 -40q69 0 115.5 49t46.5 121q0 62 -34 98.5t-91 36.5z" />
    <glyph glyph-name="uni2076" unicode="&#x2076;" 
d="M770 1485q99 0 166 -52t86 -141l-129 -49q-7 54 -44 85.5t-93 31.5q-82 0 -145 -72.5t-76 -187.5q31 45 83 71.5t111 26.5q106 0 175 -69t69 -175q0 -128 -90 -221q-90 -90 -224 -90q-131 0 -206.5 88.5t-75.5 243.5q0 219 110 362q115 148 283 148zM524 907
q0 -61 39 -100t101 -39q68 0 116.5 51t48.5 121q0 62 -38.5 100.5t-100.5 38.5q-69 0 -117.5 -50t-48.5 -122z" />
    <glyph glyph-name="uni2077" unicode="&#x2077;" 
d="M874 1341h-317l-18 -131h-133l36 263h623l-18 -132q-160 -154 -234 -305q-79 -160 -108 -381h-158q31 220 110.5 386t216.5 300z" />
    <glyph glyph-name="uni2078" unicode="&#x2078;" 
d="M444 1251q0 100 80.5 167t204.5 67q115 0 186.5 -58.5t71.5 -152.5q0 -66 -36.5 -117t-104.5 -80q60 -25 93.5 -73t33.5 -111q0 -109 -91.5 -179.5t-232.5 -70.5q-133 0 -215 61.5t-82 161.5q0 80 51 142.5t136 85.5q-95 53 -95 157zM582 1249q0 -45 36 -74.5t91 -29.5
q61 0 101 34t40 85q0 47 -35 75.5t-92 28.5q-61 0 -101 -34t-40 -85zM823 905q0 54 -41.5 86.5t-107.5 32.5q-74 0 -123 -39.5t-49 -99.5q0 -54 41.5 -87.5t107.5 -33.5q73 0 122.5 40.5t49.5 100.5z" />
    <glyph glyph-name="uni2079" unicode="&#x2079;" 
d="M604 643q-98 0 -165.5 52t-86.5 143l129 49q7 -55 45.5 -87t94.5 -32q82 0 143.5 73.5t75.5 186.5q-33 -45 -84.5 -70.5t-110.5 -25.5q-106 0 -174 69t-68 175q0 128 89 217q89 92 223 92q133 0 207.5 -88t74.5 -244q0 -221 -112 -365q-112 -145 -281 -145zM850 1221
q0 62 -39 101.5t-100 39.5q-69 0 -116.5 -51t-47.5 -123q0 -62 38.5 -100.5t100.5 -38.5q69 0 116.5 50t47.5 122z" />
    <glyph glyph-name="uni2080" unicode="&#x2080;" 
d="M516 -260q-127 0 -198.5 91t-71.5 251q0 217 100 358q102 144 258 144q127 0 198.5 -89.5t71.5 -248.5q0 -222 -100 -363q-101 -143 -258 -143zM596 453q-82 0 -141 -109q-58 -107 -58 -264q0 -99 33 -152t94 -53q84 0 142 107q57 105 57 266q0 99 -33 152t-94 53z" />
    <glyph glyph-name="uni2081" unicode="&#x2081;" 
d="M481 -115l62 441h-201l14 114l97 6q68 1 104 31t55 98h117l-96 -690h182l-18 -131h-545l18 131h211z" />
    <glyph glyph-name="uni2082" unicode="&#x2082;" 
d="M215 -246l16 115l299 223q94 70 138.5 127.5t44.5 112.5q0 54 -33 86.5t-88 32.5q-68 0 -110 -48.5t-42 -126.5q0 -3 6 -51h-147q-6 18 -6 58q0 131 87.5 216t223.5 85q119 0 192.5 -65t73.5 -171q0 -163 -200 -309l-205 -152h352l-18 -133h-584z" />
    <glyph glyph-name="uni2083" unicode="&#x2083;" 
d="M838 0q0 -111 -85 -184.5t-218 -73.5q-131 0 -215.5 71t-88.5 187l154 23q5 -69 47 -109.5t109 -40.5q63 0 106 38t43 93q0 51 -35.5 81t-95.5 30h-86l16 121h95q60 0 98.5 33.5t38.5 84.5q0 43 -33 71t-86 28q-60 0 -103.5 -35.5t-56.5 -98.5l-143 23q29 113 113 177.5
t202 64.5q116 0 188 -58.5t72 -152.5q0 -71 -40.5 -125.5t-110.5 -77.5q54 -20 84.5 -65t30.5 -105z" />
    <glyph glyph-name="uni2084" unicode="&#x2084;" 
d="M729 -45l-29 -201h-141l29 201h-379l16 113l391 503h201l-72 -493h129l-16 -123h-129zM653 442l-282 -364h231z" />
    <glyph glyph-name="uni2085" unicode="&#x2085;" 
d="M567 176q-71 0 -125 -57l-139 22l98 430h471l-18 -131h-352l-45 -190q63 51 149 51q104 0 170 -69t66 -175q0 -131 -92 -223q-89 -92 -226 -92q-124 0 -203 70t-85 186l149 18q7 -66 47.5 -105.5t97.5 -39.5q69 0 115.5 49t46.5 121q0 62 -34 98.5t-91 36.5z" />
    <glyph glyph-name="uni2086" unicode="&#x2086;" 
d="M643 584q99 0 166 -52t86 -141l-129 -49q-7 54 -44 85.5t-93 31.5q-82 0 -145 -72.5t-76 -187.5q31 45 83 71.5t111 26.5q106 0 175 -69t69 -175q0 -128 -90 -221q-90 -90 -224 -90q-131 0 -206.5 88.5t-75.5 243.5q0 219 110 362q115 148 283 148zM397 6q0 -61 39 -100
t101 -39q68 0 116.5 51t48.5 121q0 61 -39 100t-100 39q-69 0 -117.5 -50t-48.5 -122z" />
    <glyph glyph-name="uni2087" unicode="&#x2087;" 
d="M748 440h-318l-18 -131h-133l36 262h623l-18 -131q-160 -154 -234 -305q-79 -160 -108 -381h-158q31 219 110.5 385t217.5 301z" />
    <glyph glyph-name="uni2088" unicode="&#x2088;" 
d="M317 350q0 100 80.5 167t204.5 67q115 0 186.5 -58.5t71.5 -152.5q0 -66 -36.5 -117t-104.5 -80q60 -25 93.5 -73t33.5 -111q0 -109 -91.5 -179.5t-232.5 -70.5q-133 0 -215 61.5t-82 161.5q0 80 51 142.5t136 85.5q-95 53 -95 157zM455 348q0 -45 36 -74.5t91 -29.5
q61 0 101 33.5t40 84.5q0 47 -35 76t-92 29q-61 0 -101 -34t-40 -85zM696 4q0 54 -41.5 86.5t-107.5 32.5q-74 0 -123 -39.5t-49 -99.5q0 -54 41.5 -87.5t107.5 -33.5q73 0 122.5 40.5t49.5 100.5z" />
    <glyph glyph-name="uni2089" unicode="&#x2089;" 
d="M477 -258q-98 0 -165.5 52t-86.5 143l129 49q7 -55 45.5 -87t94.5 -32q82 0 143.5 73.5t75.5 186.5q-33 -45 -84.5 -70.5t-110.5 -25.5q-106 0 -174 68.5t-68 174.5q0 129 89 218q89 92 223 92q133 0 207.5 -88t74.5 -244q0 -221 -112 -365q-112 -145 -281 -145zM723 319
q0 62 -39 102t-100 40q-69 0 -116.5 -51t-47.5 -123q0 -62 39 -101t100 -39q69 0 116.5 50t47.5 122z" />
    <glyph glyph-name="franc" unicode="&#x20a3;" 
d="M229 330h-204l20 159h207l137 981h901l-24 -172h-709l-57 -419h590l-23 -172h-592l-31 -218h322l-21 -159h-323l-47 -330h-193z" />
    <glyph glyph-name="naira" unicode="&#x20a6;" 
d="M178 512h-158l21 141h158l24 176h-157l20 140h156l71 501h207l326 -1050l147 1050h183l-72 -501h158l-19 -140h-158l-24 -176h160l-23 -141h-158l-71 -512h-168l-352 1141l-158 -1141h-185z" />
    <glyph glyph-name="peseta" unicode="&#x20a7;" 
d="M539 461h-160l-64 -461h-196l125 891h-158l20 149h158l62 430h327q209 0 340 -116q133 -118 142 -314h159l-22 -149h-150q-40 -195 -198 -313q-156 -117 -385 -117zM637 1317h-137l-39 -277h493q-8 131 -91.5 204t-225.5 73zM440 891l-39 -277h148q149 0 250.5 73
t138.5 204h-498z" />
    <glyph glyph-name="won" unicode="&#x20a9;" 
d="M213 512h-211l21 141h192l4 176h-172l21 140h153l6 501h152l-31 -1177l301 932h123l39 -932l299 1177h154l-136 -501h156l-20 -140h-172l-48 -176h195l-20 -141h-211l-138 -512h-139l-43 1024l-330 -1024h-151z" />
    <glyph glyph-name="dong" unicode="&#x20ab;" 
d="M467 164q-154 0 -247 103.5t-93 271.5q0 201 125 344t313 143q86 0 154 -35t106 -98l35 246h-338l21 143h338l26 188h180l-26 -188h190l-20 -143h-191l-135 -959h-180l16 113q-44 -60 -117 -94.5t-157 -34.5zM586 881q-120 0 -199 -97q-78 -96 -78 -237
q0 -113 53.5 -175.5t151.5 -62.5q124 0 202.5 98t78.5 248q0 108 -55 167t-154 59zM860 -143h-766l21 143h766z" />
    <glyph glyph-name="Euro" unicode="&#x20ac;" 
d="M207 512h-170l20 141h150q3 91 18 176h-143l20 140h158q77 244 234 383q156 141 358 141q173 0 289 -100t147 -277l-174 -61q-23 134 -91 203t-177 69q-131 0 -235.5 -94t-161.5 -264h464l-51 -140h-450q-19 -95 -21 -176h410l-51 -141h-359q13 -182 93.5 -275.5
t220.5 -93.5q112 0 188 63.5t127 199.5l164 -72q-147 -357 -492 -357q-215 0 -340.5 139t-144.5 396z" />
    <glyph glyph-name="peso" unicode="&#x20b1;" 
d="M524 489h-141l-68 -489h-196l104 737h-160l21 142h158l24 176h-157l20 139h158l39 276h305q168 0 288.5 -73t167.5 -203h207l-18 -139h-160v-27q0 -88 -20 -149h155l-18 -142h-199q-78 -119 -210.5 -183.5t-299.5 -64.5zM500 1317l-94 -674h126q183 0 293 107
q111 108 111 278q0 137 -84 213t-236 76h-116z" />
    <glyph glyph-name="uni20B9" unicode="&#x20b9;" 
d="M786 922h-630l22 157h627q-11 113 -90.5 174.5t-214.5 61.5h-289l22 155h1024l-22 -155h-383q113 -87 125 -236h225l-24 -157h-215q-32 -129 -130 -226.5t-235 -138.5l377 -557h-215l-359 530h-301l23 158h299q132 0 227 62t137 172z" />
    <glyph glyph-name="uni20BA" unicode="&#x20ba;" 
d="M346 176h143q462 0 523 498h176q-83 -674 -711 -674h-338l70 489l-191 -88l27 170l186 86l25 179l-188 -86l24 168l189 86l65 466h182l-55 -391l371 168l-25 -168l-368 -168l-27 -178l369 168l-25 -168l-367 -166z" />
    <glyph glyph-name="uni20BD" unicode="&#x20bd;" 
d="M180 334h-157l18 139h158l26 176h-159l20 142h158l96 679h434q210 0 334.5 -102t124.5 -274q0 -193 -148 -320q-146 -125 -385 -125h-280l-25 -176h283l-19 -139h-282l-47 -334h-197zM512 1309l-72 -518h250q159 0 256.5 82t97.5 212q0 106 -76.5 165t-213.5 59h-242z
" />
    <glyph glyph-name="trademark" unicode="&#x2122;" 
d="M467 1343l-72 -516h-147l71 516h-163l18 127h475l-18 -127h-164zM1178 1298l-199 -473h-82l-68 473l-65 -471h-131l90 643h182l60 -440l182 440h184l-88 -643h-131z" />
    <glyph glyph-name="uni2153" unicode="&#x2153;" horiz-adv-x="2457" 
d="M608 784l62 441h-201l14 114l97 7q68 1 104 31t55 98h117l-96 -691h182l-18 -131h-545l18 131h211zM547 0l1249 1470h168l-1247 -1470h-170zM2101 246q0 -111 -85 -184.5t-218 -73.5q-131 0 -215 71t-88 187l154 22q5 -69 46.5 -109t108.5 -40q63 0 106.5 38t43.5 93
q0 51 -35.5 80.5t-95.5 29.5h-86l16 121h94q60 0 99 34t39 85q0 43 -32.5 70.5t-86.5 27.5q-61 0 -104 -35.5t-56 -97.5l-143 23q29 113 113 177t202 64q116 0 188 -58.5t72 -152.5q0 -71 -40.5 -125t-110.5 -77q54 -20 84 -65t30 -105z" />
    <glyph glyph-name="uni2154" unicode="&#x2154;" horiz-adv-x="2457" 
d="M342 655l16 115l299 223q94 70 138.5 127.5t44.5 112.5q0 54 -33 86.5t-88 32.5q-68 0 -110 -48t-42 -126q0 -4 6 -52h-147q-6 18 -6 58q0 131 87.5 216t223.5 85q119 0 192.5 -65t73.5 -171q0 -163 -200 -309l-205 -152h352l-18 -133h-584zM547 0l1249 1470h168
l-1247 -1470h-170zM2101 246q0 -111 -85 -184.5t-218 -73.5q-131 0 -215 71t-88 187l154 22q5 -69 46.5 -109t108.5 -40q63 0 106.5 38t43.5 93q0 51 -35.5 80.5t-95.5 29.5h-86l16 121h94q60 0 99 34t39 85q0 43 -32.5 70.5t-86.5 27.5q-61 0 -104 -35.5t-56 -97.5l-143 23
q29 113 113 177t202 64q116 0 188 -58.5t72 -152.5q0 -71 -40.5 -125t-110.5 -77q54 -20 84 -65t30 -105z" />
    <glyph glyph-name="uni215B" unicode="&#x215b;" horiz-adv-x="2457" 
d="M608 784l62 441h-201l14 114l97 7q68 1 104 31t55 98h117l-96 -691h182l-18 -131h-545l18 131h211zM547 0l1249 1470h168l-1247 -1470h-170zM1581 596q0 100 80.5 166.5t204.5 66.5q115 0 186.5 -58.5t71.5 -152.5q0 -134 -142 -196q60 -25 93.5 -73t33.5 -111
q0 -109 -91 -179.5t-232 -70.5q-133 0 -215 61.5t-82 161.5q0 80 50.5 142t135.5 85q-94 52 -94 158zM1718 594q0 -45 36 -75t91 -30q61 0 101.5 34t40.5 85q0 47 -35 76t-92 29q-61 0 -101.5 -34t-40.5 -85zM1960 250q0 54 -42 86.5t-108 32.5q-74 0 -123 -40t-49 -100
q0 -54 42 -87t108 -33q73 0 122.5 40.5t49.5 100.5z" />
    <glyph glyph-name="uni215C" unicode="&#x215c;" horiz-adv-x="2457" 
d="M965 901q0 -111 -85 -184.5t-218 -73.5q-131 0 -215.5 71t-88.5 187l154 23q5 -69 47 -109.5t109 -40.5q63 0 106 38t43 93q0 51 -35.5 81t-95.5 30h-86l16 121h95q60 0 98.5 33.5t38.5 84.5q0 43 -33 71t-86 28q-61 0 -104 -35.5t-56 -97.5l-143 22q29 113 113 177.5
t202 64.5q116 0 188 -58.5t72 -152.5q0 -71 -40.5 -125.5t-110.5 -77.5q54 -20 84.5 -65t30.5 -105zM547 0l1249 1470h168l-1247 -1470h-170zM1581 596q0 100 80.5 166.5t204.5 66.5q115 0 186.5 -58.5t71.5 -152.5q0 -134 -142 -196q60 -25 93.5 -73t33.5 -111
q0 -109 -91 -179.5t-232 -70.5q-133 0 -215 61.5t-82 161.5q0 80 50.5 142t135.5 85q-94 52 -94 158zM1718 594q0 -45 36 -75t91 -30q61 0 101.5 34t40.5 85q0 47 -35 76t-92 29q-61 0 -101.5 -34t-40.5 -85zM1960 250q0 54 -42 86.5t-108 32.5q-74 0 -123 -40t-49 -100
q0 -54 42 -87t108 -33q73 0 122.5 40.5t49.5 100.5z" />
    <glyph glyph-name="uni215D" unicode="&#x215d;" horiz-adv-x="2457" 
d="M694 1077q-71 0 -125 -57l-139 22l98 431h471l-18 -132h-352l-45 -190q63 51 149 51q104 0 170 -69t66 -175q0 -131 -92 -223q-89 -92 -226 -92q-124 0 -203.5 70t-85.5 186l150 19q7 -66 47.5 -106t97.5 -40q69 0 115.5 49t46.5 121q0 62 -34 98.5t-91 36.5zM547 0
l1249 1470h168l-1247 -1470h-170zM1581 596q0 100 80.5 166.5t204.5 66.5q115 0 186.5 -58.5t71.5 -152.5q0 -134 -142 -196q60 -25 93.5 -73t33.5 -111q0 -109 -91 -179.5t-232 -70.5q-133 0 -215 61.5t-82 161.5q0 80 50.5 142t135.5 85q-94 52 -94 158zM1718 594
q0 -45 36 -75t91 -30q61 0 101.5 34t40.5 85q0 47 -35 76t-92 29q-61 0 -101.5 -34t-40.5 -85zM1960 250q0 54 -42 86.5t-108 32.5q-74 0 -123 -40t-49 -100q0 -54 42 -87t108 -33q73 0 122.5 40.5t49.5 100.5z" />
    <glyph glyph-name="uni215E" unicode="&#x215e;" horiz-adv-x="2457" 
d="M930 1341h-318l-18 -131h-133l37 263h622l-18 -132q-160 -154 -234 -305q-79 -160 -108 -381h-158q31 219 110.5 385t217.5 301zM547 0l1249 1470h168l-1247 -1470h-170zM1581 596q0 100 80.5 166.5t204.5 66.5q115 0 186.5 -58.5t71.5 -152.5q0 -134 -142 -196
q60 -25 93.5 -73t33.5 -111q0 -109 -91 -179.5t-232 -70.5q-133 0 -215 61.5t-82 161.5q0 80 50.5 142t135.5 85q-94 52 -94 158zM1718 594q0 -45 36 -75t91 -30q61 0 101.5 34t40.5 85q0 47 -35 76t-92 29q-61 0 -101.5 -34t-40.5 -85zM1960 250q0 54 -42 86.5t-108 32.5
q-74 0 -123 -40t-49 -100q0 -54 42 -87t108 -33q73 0 122.5 40.5t49.5 100.5z" />
    <glyph glyph-name="arrowleft" unicode="&#x2190;" 
d="M381 649l328 -358l-134 -123l-522 573l522 574l134 -123l-328 -358h840v-185h-840z" />
    <glyph glyph-name="arrowup" unicode="&#x2191;" 
d="M618 1155v-1155h-184v1155l-323 -297l-131 139l546 496l547 -496l-133 -139z" />
    <glyph glyph-name="arrowright" unicode="&#x2192;" 
d="M66 649v185h839l-327 358l133 123l522 -574l-522 -573l-133 123l327 358h-839z" />
    <glyph glyph-name="arrowdown" unicode="&#x2193;" 
d="M1018 612l133 -139l-547 -496l-547 496l131 139l324 -297v1155h184v-1155z" />
    <glyph glyph-name="minus" unicode="&#x2212;" 
d="M1147 618h-1043l23 164h1042z" />
    <glyph glyph-name="commaaccent" unicode="&#xf6c3;" 
d="M496 -223h-78l20 147h197l-21 -139q-11 -86 -75.5 -133t-167.5 -43l10 84q103 -3 115 84z" />
    <glyph glyph-name="a.1" 
d="M1040 770l-75 -537q-20 -141 -17 -233h-182q0 30 8 104q-56 -57 -138 -89.5t-175 -32.5q-151 0 -244.5 80t-93.5 212q0 148 111.5 242t328.5 129l285 45l10 72q10 78 -45.5 123t-161.5 45q-206 0 -243 -174h-181q29 162 142.5 249t296.5 87q191 0 292.5 -87.5
t81.5 -234.5zM500 131q118 0 202.5 64.5t98.5 164.5l26 185l-243 -41q-146 -25 -212.5 -78t-66.5 -145q0 -67 53.5 -108.5t141.5 -41.5z" />
    <glyph glyph-name="aogonek.1" 
d="M791 -381q-80 0 -129.5 43t-49.5 115q0 122 154 229q0 35 8 98q-56 -57 -138 -89.5t-175 -32.5q-151 0 -244.5 80t-93.5 212q0 148 111.5 242t328.5 129l285 45l10 72q10 78 -45.5 123t-161.5 45q-206 0 -243 -174h-181q29 162 142.5 249t296.5 87q191 0 292.5 -87.5
t81.5 -234.5l-75 -537q-20 -141 -17 -233q-92 -42 -144 -95.5t-52 -101.5q0 -30 21 -46.5t58 -16.5q29 0 76 12l-16 -117q-56 -16 -100 -16zM500 131q118 0 202.5 64.5t98.5 164.5l26 185l-243 -41q-146 -25 -212.5 -78t-66.5 -145q0 -67 53.5 -108.5t141.5 -41.5z" />
    <glyph glyph-name="aacute.1" 
d="M1040 770l-75 -537q-20 -141 -17 -233h-182q0 30 8 104q-56 -57 -138 -89.5t-175 -32.5q-151 0 -244.5 80t-93.5 212q0 148 111.5 242t328.5 129l285 45l10 72q10 78 -45.5 123t-161.5 45q-206 0 -243 -174h-181q29 162 142.5 249t296.5 87q191 0 292.5 -87.5
t81.5 -234.5zM500 131q118 0 202.5 64.5t98.5 164.5l26 185l-243 -41q-146 -25 -212.5 -78t-66.5 -145q0 -67 53.5 -108.5t141.5 -41.5zM788 1186h-153l151 284h240z" />
    <glyph glyph-name="adieresis.1" 
d="M1040 770l-75 -537q-20 -141 -17 -233h-182q0 30 8 104q-56 -57 -138 -89.5t-175 -32.5q-151 0 -244.5 80t-93.5 212q0 148 111.5 242t328.5 129l285 45l10 72q10 78 -45.5 123t-161.5 45q-206 0 -243 -174h-181q29 162 142.5 249t296.5 87q191 0 292.5 -87.5
t81.5 -234.5zM500 131q118 0 202.5 64.5t98.5 164.5l26 185l-243 -41q-146 -25 -212.5 -78t-66.5 -145q0 -67 53.5 -108.5t141.5 -41.5zM637 1249h-205l31 213h203zM989 1249h-205l31 213h203z" />
    <glyph glyph-name="acircumflex.1" 
d="M1040 770l-75 -537q-20 -141 -17 -233h-182q0 30 8 104q-56 -57 -138 -89.5t-175 -32.5q-151 0 -244.5 80t-93.5 212q0 148 111.5 242t328.5 129l285 45l10 72q10 78 -45.5 123t-161.5 45q-206 0 -243 -174h-181q29 162 142.5 249t296.5 87q191 0 292.5 -87.5
t81.5 -234.5zM500 131q118 0 202.5 64.5t98.5 164.5l26 185l-243 -41q-146 -25 -212.5 -78t-66.5 -145q0 -67 53.5 -108.5t141.5 -41.5zM643 1470h201l160 -284h-138l-133 160l-180 -160h-152z" />
    <glyph glyph-name="aring.1" 
d="M1040 770l-75 -537q-20 -141 -17 -233h-182q0 30 8 104q-56 -57 -138 -89.5t-175 -32.5q-151 0 -244.5 80t-93.5 212q0 148 111.5 242t328.5 129l285 45l10 72q10 78 -45.5 123t-161.5 45q-206 0 -243 -174h-181q29 162 142.5 249t296.5 87q191 0 292.5 -87.5
t81.5 -234.5zM500 131q118 0 202.5 64.5t98.5 164.5l26 185l-243 -41q-146 -25 -212.5 -78t-66.5 -145q0 -67 53.5 -108.5t141.5 -41.5zM713 1157q-86 0 -140.5 54.5t-54.5 136.5q0 87 62.5 149t152.5 62q84 0 139.5 -55.5t55.5 -137.5q0 -87 -62.5 -148t-152.5 -61z
M729 1462q-44 0 -76 -33.5t-32 -78.5q0 -41 27.5 -69t68.5 -28q44 0 75 33t31 80q0 41 -26.5 68.5t-67.5 27.5z" />
    <glyph glyph-name="abreve.1" 
d="M1040 770l-75 -537q-20 -141 -17 -233h-182q0 30 8 104q-56 -57 -138 -89.5t-175 -32.5q-151 0 -244.5 80t-93.5 212q0 148 111.5 242t328.5 129l285 45l10 72q10 78 -45.5 123t-161.5 45q-206 0 -243 -174h-181q29 162 142.5 249t296.5 87q191 0 292.5 -87.5
t81.5 -234.5zM500 131q118 0 202.5 64.5t98.5 164.5l26 185l-243 -41q-146 -25 -212.5 -78t-66.5 -145q0 -67 53.5 -108.5t141.5 -41.5zM729 1309q64 0 106 42t54 119h129q-13 -140 -90 -217t-201 -77q-131 0 -198 76.5t-60 217.5h129q-2 -75 33 -118t98 -43z" />
    <glyph glyph-name="agrave.1" 
d="M1040 770l-75 -537q-20 -141 -17 -233h-182q0 30 8 104q-56 -57 -138 -89.5t-175 -32.5q-151 0 -244.5 80t-93.5 212q0 148 111.5 242t328.5 129l285 45l10 72q10 78 -45.5 123t-161.5 45q-206 0 -243 -174h-181q29 162 142.5 249t296.5 87q191 0 292.5 -87.5
t81.5 -234.5zM500 131q118 0 202.5 64.5t98.5 164.5l26 185l-243 -41q-146 -25 -212.5 -78t-66.5 -145q0 -67 53.5 -108.5t141.5 -41.5zM692 1470l92 -284h-137l-174 284h219z" />
    <glyph glyph-name="atilde.1" 
d="M1040 770l-75 -537q-20 -141 -17 -233h-182q0 30 8 104q-56 -57 -138 -89.5t-175 -32.5q-151 0 -244.5 80t-93.5 212q0 148 111.5 242t328.5 129l285 45l10 72q10 78 -45.5 123t-161.5 45q-206 0 -243 -174h-181q29 162 142.5 249t296.5 87q191 0 292.5 -87.5
t81.5 -234.5zM500 131q118 0 202.5 64.5t98.5 164.5l26 185l-243 -41q-146 -25 -212.5 -78t-66.5 -145q0 -67 53.5 -108.5t141.5 -41.5zM594 1473q35 0 65.5 -16t81.5 -60q35 -34 54 -45t39 -11q68 0 108 132h125q-23 -132 -79.5 -204.5t-137.5 -72.5q-37 0 -69 15.5
t-79 60.5q-38 32 -56.5 42.5t-37.5 10.5q-36 0 -61.5 -31t-44.5 -98h-125q23 134 79 205.5t138 71.5z" />
    <glyph glyph-name="amacron.1" 
d="M1040 770l-75 -537q-20 -141 -17 -233h-182q0 30 8 104q-56 -57 -138 -89.5t-175 -32.5q-151 0 -244.5 80t-93.5 212q0 148 111.5 242t328.5 129l285 45l10 72q10 78 -45.5 123t-161.5 45q-206 0 -243 -174h-181q29 162 142.5 249t296.5 87q191 0 292.5 -87.5
t81.5 -234.5zM500 131q118 0 202.5 64.5t98.5 164.5l26 185l-243 -41q-146 -25 -212.5 -78t-66.5 -145q0 -67 53.5 -108.5t141.5 -41.5zM1014 1389l-21 -148h-559l19 148h561z" />
    <glyph glyph-name="idotaccent" 
d="M854 1257h-201l31 213h201zM1065 0h-975l21 158h397l104 755h-395l23 158h581l-129 -913h393z" />
    <glyph glyph-name="ordfeminine.1" 
d="M1016 1241l-51 -364q-15 -124 -15 -175h-168q-4 34 4 74q-37 -41 -97 -64.5t-128 -23.5q-106 0 -175 59t-69 152q0 109 87 178.5t251 89.5l179 27l6 41q6 50 -27.5 78t-99.5 28q-129 0 -150 -108h-174q23 122 110 188t226 66q146 0 225 -67t66 -179zM614 823q74 0 126 40
t63 104l14 106l-151 -22q-172 -24 -172 -136q0 -43 32 -67.5t88 -24.5zM911 432h-663l18 131h664z" />
    <glyph glyph-name="a.ord" 
d="M784 782q-37 -43 -100.5 -68.5t-136.5 -25.5q-113 0 -182.5 57.5t-69.5 153.5q0 105 86 173t248 91l196 27l4 33q6 56 -25 86t-97 30q-128 3 -175 -110l-161 39q38 103 131.5 161t222.5 58q143 0 220.5 -70t60.5 -188l-48 -342q-6 -31 13 -43t63 -6l-18 -136
q-90 -19 -152.5 3t-79.5 77zM596 821q77 0 132.5 41t66.5 103l12 106l-156 -24q-180 -26 -180 -134q0 -43 32.5 -67.5t92.5 -24.5z" />
    <glyph glyph-name="a.1.ord" 
d="M1016 1241l-51 -364q-15 -124 -15 -175h-168q-4 34 4 74q-37 -41 -97 -64.5t-128 -23.5q-106 0 -175 59t-69 152q0 109 87 178.5t251 89.5l179 27l6 41q6 50 -27.5 78t-99.5 28q-129 0 -150 -108h-174q23 122 110 188t226 66q146 0 225 -67t66 -179zM614 823q74 0 126 40
t63 104l14 106l-151 -22q-172 -24 -172 -136q0 -43 32 -67.5t88 -24.5z" />
    <glyph glyph-name="b.ord" 
d="M1069 1145q0 -194 -102 -326q-103 -133 -252 -133q-75 0 -134 35t-85 96l-17 -115h-178l148 1051h178l-54 -383q35 54 95 85.5t127 31.5q127 0 200.5 -92t73.5 -250zM735 1333q-80 0 -133 -58.5t-65 -160.5l-9 -49q-12 -98 31.5 -161.5t122.5 -63.5q90 0 149.5 82.5
t59.5 205.5q0 98 -41 151.5t-115 53.5z" />
    <glyph glyph-name="c.ord" 
d="M743 1337q-101 0 -170 -84q-67 -82 -67 -209q0 -98 49.5 -153t136.5 -55q72 0 123 37t74 106l149 -55q-37 -111 -132 -174.5t-228 -63.5q-159 0 -255.5 95t-96.5 253q0 190 120 322q122 131 306 131q130 0 221 -67t110 -173l-163 -55q-10 67 -58.5 106t-118.5 39z" />
    <glyph glyph-name="d.ord" 
d="M584 686q-124 0 -198.5 93.5t-74.5 248.5q0 195 101 326q103 133 254 133q75 0 134 -35t85 -96l55 397h180l-149 -1051h-178l14 101q-35 -55 -94.5 -86t-128.5 -31zM846 1059l4 47q13 98 -30.5 162.5t-121.5 64.5q-90 0 -148 -83.5t-58 -207.5q0 -96 40.5 -149t112.5 -53
q78 0 133 59.5t68 159.5z" />
    <glyph glyph-name="e.ord" 
d="M674 686q-160 0 -254 94t-94 252q0 193 116 324q119 131 297 131q165 0 252 -109t62 -282l-6 -43h-551v-9q0 -100 51 -157.5t139 -57.5q66 0 117 35t76 97l141 -56q-44 -104 -135.5 -161.5t-210.5 -57.5zM731 1346q-74 0 -132.5 -47.5t-84.5 -129.5h373q6 80 -36 128.5
t-120 48.5z" />
    <glyph glyph-name="f.ord" 
d="M958 702h-692l21 148h229l66 467h-228l21 147h229q19 147 117 226t260 79q111 0 178 -20l-20 -139q-69 16 -148 16q-96 0 -147 -40t-62 -122h334l-20 -147h-336l-66 -467h285z" />
    <glyph glyph-name="g.ord" 
d="M1079 1470l-96 -692q-23 -170 -125 -260t-270 -90q-139 0 -229 58.5t-115 164.5l166 41q39 -127 188 -127q86 0 139 51.5t66 149.5l8 70q-76 -111 -215 -111q-131 0 -209 88.5t-78 237.5q0 182 103 309t256 127q75 0 132.5 -32.5t86.5 -92.5l16 108h176zM848 1087l4 31
q12 96 -32 157.5t-124 61.5q-91 0 -150 -78.5t-59 -197.5q0 -88 42.5 -138.5t117.5 -50.5q80 0 135.5 58.5t65.5 156.5z" />
    <glyph glyph-name="h.ord" 
d="M487 702h-178l150 1051h178l-53 -375q38 51 98.5 80t128.5 29q121 0 183.5 -79t43.5 -210l-69 -496h-178l65 461q11 75 -21.5 118.5t-99.5 43.5q-73 0 -123 -49t-61 -129z" />
    <glyph glyph-name="i.ord" 
d="M881 1583h-187l25 170h186zM1020 702h-727l22 148h281l66 473h-275l23 147h450l-86 -620h266z" />
    <glyph glyph-name="j.ord" 
d="M1001 1583h-186l23 170h188zM494 584q96 0 146 39.5t62 124.5l82 575h-360l20 147h539l-106 -745q-20 -145 -117.5 -221t-259.5 -76q-120 0 -209 29l20 151q87 -24 183 -24z" />
    <glyph glyph-name="k.ord" 
d="M467 1753h180l-88 -612l350 329h215l-327 -299l237 -469h-196l-176 345l-132 -119l-32 -226h-179z" />
    <glyph glyph-name="l.ord" 
d="M1020 702h-727l22 148h281l106 756h-274l21 147h452l-127 -903h266z" />
    <glyph glyph-name="m.ord" 
d="M578 1339q-38 0 -64 -32.5t-33 -92.5l-73 -512h-146l109 771h145l-10 -68q24 37 62.5 59.5t82.5 22.5q47 0 81 -25t48 -69q27 42 71 68t93 26q79 0 121.5 -63.5t28.5 -163.5l-78 -558h-148l74 519q16 118 -61 118q-78 0 -99 -125l-71 -512h-146l74 519q15 118 -61 118z
" />
    <glyph glyph-name="n.ord" 
d="M487 702h-178l109 768h178l-12 -92q38 51 98.5 80t128.5 29q121 0 183.5 -79t43.5 -210l-69 -496h-178l65 461q11 75 -21.5 118.5t-99.5 43.5q-73 0 -123 -49t-61 -129z" />
    <glyph glyph-name="o.ord" 
d="M723 1487q155 0 246.5 -95.5t91.5 -256.5q0 -190 -115 -320q-114 -129 -291 -129q-154 0 -245 95.5t-91 256.5q0 190 115 320q114 129 289 129zM717 1339q-93 0 -158 -86q-63 -84 -63 -211q0 -98 45 -153t123 -55q92 0 157 86q64 85 64 210q0 98 -45 153.5t-123 55.5z
" />
    <glyph glyph-name="p.ord" 
d="M1069 1145q0 -194 -102 -326q-103 -133 -252 -133q-75 0 -134 35t-85 96l-52 -375h-180l146 1028h178l-15 -100q35 54 95 85.5t127 31.5q127 0 200.5 -92t73.5 -250zM735 1333q-80 0 -133 -58.5t-65 -160.5l-9 -49q-12 -98 31.5 -161.5t122.5 -63.5q90 0 149.5 82.5
t59.5 205.5q0 98 -41 151.5t-115 53.5z" />
    <glyph glyph-name="q.ord" 
d="M584 686q-124 0 -198.5 93.5t-74.5 248.5q0 195 101 326q103 133 254 133q75 0 134 -35t85 -96l14 114h180l-145 -1028h-178l51 361q-35 -55 -94.5 -86t-128.5 -31zM846 1059l4 47q13 98 -30.5 162.5t-121.5 64.5q-90 0 -148 -83.5t-58 -207.5q0 -96 40.5 -149t112.5 -53
q78 0 133 59.5t68 159.5z" />
    <glyph glyph-name="r.ord" 
d="M924 702h-654l23 148h207l65 473h-207l21 147h379l-21 -129q44 66 121 104t168 38q53 0 111 -15l-25 -172q-66 17 -117 17q-117 0 -197.5 -60t-92.5 -157l-35 -246h274z" />
    <glyph glyph-name="s.ord" 
d="M659 686q-124 0 -227.5 46.5t-146.5 121.5l104 107q42 -63 117.5 -100.5t165.5 -37.5q73 0 117.5 28t44.5 73q0 37 -35.5 58t-128.5 40q-152 29 -218.5 78.5t-66.5 134.5q0 110 94.5 181t243.5 71q112 0 203.5 -43t128.5 -111l-109 -98q-31 54 -94.5 85.5t-138.5 31.5
q-67 0 -108.5 -25.5t-41.5 -66.5q0 -33 34.5 -53t141.5 -46q141 -26 207 -78t66 -137q0 -114 -99 -188q-101 -72 -254 -72z" />
    <glyph glyph-name="t.ord" 
d="M795 692q-156 0 -237 69t-62 191l51 371h-213l20 147h213l33 228h176l-31 -228h345l-21 -147h-344l-49 -342q-8 -68 30.5 -100.5t129.5 -32.5q83 0 176 26l-23 -153q-106 -29 -194 -29z" />
    <glyph glyph-name="u.ord" 
d="M891 1470h178l-106 -768h-179l11 93q-38 -51 -99 -80t-129 -29q-119 0 -181.5 79.5t-45.5 209.5l72 495h178l-66 -460q-10 -78 21.5 -121t99.5 -43q72 0 122 49t62 131z" />
    <glyph glyph-name="v.ord" 
d="M1139 1470l-428 -768h-179l-186 768h178l127 -550l303 550h185z" />
    <glyph glyph-name="w.ord" 
d="M492 958l190 512h125l29 -512l176 512h157l-280 -768h-144l-30 543l-203 -543h-152l-41 768h154z" />
    <glyph glyph-name="x.ord" 
d="M1020 702h-191l-153 277l-225 -277h-197l332 402l-203 366h190l136 -245l200 245h197l-307 -372z" />
    <glyph glyph-name="y.ord" 
d="M1139 1470l-457 -815q-76 -141 -139 -182q-62 -41 -158 -41q-54 0 -90 8l18 144q27 -9 64 -9q43 0 70 19t53 68l39 67l-193 741h178l131 -540l299 540h185z" />
    <glyph glyph-name="z.ord" 
d="M549 850h450l-20 -148h-694l16 129l528 492h-454l22 147h686l-18 -131z" />
    <glyph glyph-name="caron.Slovak" 
d="M690 1063h-127l92 407h209z" />
    <glyph glyph-name="commaturn" 
d="M735 1333h80l-20 -147h-199l20 139q12 86 77.5 133t168.5 43l-12 -84q-100 3 -115 -84z" />
    <glyph glyph-name="grave.cap" 
d="M813 1864l180 -297h-143l-285 297h248z" />
    <glyph glyph-name="acute.cap" 
d="M643 1567h-156l244 297h262z" />
    <glyph glyph-name="circumflex.cap" 
d="M690 1864h219l199 -297h-141l-176 178l-226 -178h-155z" />
    <glyph glyph-name="caron.cap" 
d="M1149 1864l-281 -297h-219l-198 297h141l176 -176l225 176h156z" />
    <glyph glyph-name="tilde.cap" 
d="M641 1853q41 0 76 -15t88 -60q42 -34 63 -45t45 -11q84 0 121 133h133q-23 -134 -89 -210t-158 -76q-39 0 -75.5 16.5t-90.5 59.5q-41 35 -62.5 46t-46.5 11q-84 0 -121 -133h-131q23 133 89 208.5t159 75.5z" />
    <glyph glyph-name="macron.cap" 
d="M1104 1751l-23 -154h-637l23 154h637z" />
    <glyph glyph-name="breve.cap" 
d="M788 1690q75 0 129.5 47.5t67.5 126.5h133q-19 -141 -108 -221t-228 -80q-141 0 -222 82t-75 219h144q-1 -81 41.5 -127.5t117.5 -46.5z" />
    <glyph glyph-name="dotaccent.cap" 
d="M862 1575h-205l29 213h207z" />
    <glyph glyph-name="dieresis.cap" 
d="M680 1575h-205l31 213h203zM1044 1575h-204l30 213h205z" />
    <glyph glyph-name="ring.cap" 
d="M776 1552q-96 0 -156.5 59t-60.5 150q0 100 68 169t170 69q96 0 157.5 -60t61.5 -151q0 -99 -69 -167.5t-171 -68.5zM793 1888q-49 0 -83 -37t-34 -88q0 -43 29.5 -70.5t74.5 -27.5q49 0 83 35t34 86q0 44 -30 73t-74 29z" />
    <glyph glyph-name="hungarumlaut.cap" 
d="M909 1567h-153l227 297h227zM532 1567h-155l229 297h225z" />
    <glyph glyph-name="guilsinglleft.cap" 
d="M788 377l-356 280l27 185l434 280l-27 -196l-284 -183l233 -180z" />
    <glyph glyph-name="guilsinglright.cap" 
d="M500 1122l356 -280l-27 -185l-434 -280l27 196l285 183l-234 180z" />
    <glyph glyph-name="guillemotleft.cap" 
d="M561 377l-356 280l26 185l435 280l-27 -196l-285 -183l234 -180zM1016 377l-357 280l27 185l434 280l-26 -196l-285 -183l233 -180z" />
    <glyph glyph-name="guillemotright.cap" 
d="M729 1122l356 -280l-26 -185l-434 -280l26 196l285 183l-234 180zM274 1122l357 -280l-27 -185l-434 -280l27 196l284 183l-233 180z" />
    <glyph glyph-name="slash.cap" 
d="M285 -119h-197l911 1712h199z" />
    <glyph glyph-name="backslash.cap" 
d="M670 1593l121 -1712h-179l-120 1712h178z" />
    <glyph glyph-name="bar.cap" 
d="M612 -119h-180l240 1712h180z" />
    <glyph glyph-name="periodcentered.cap" 
d="M760 567h-283l41 291h281z" />
    <glyph glyph-name="bullet.cap" 
d="M328 680q0 139 96 240q94 98 235 98q125 0 207 -80t82 -203q0 -138 -96 -239q-94 -99 -236 -99q-125 0 -206.5 80t-81.5 203z" />
    <glyph glyph-name="hyphen.cap" 
d="M905 606h-561l23 166h561z" />
    <glyph glyph-name="endash.cap" 
d="M1061 614h-873l21 152h874z" />
    <glyph glyph-name="emdash.cap" 
d="M1239 614h-1229l23 152h1229z" />
    <glyph glyph-name="parenleft.cap" 
d="M580 590q0 -196 58.5 -382.5t162.5 -326.5h-187q-237 308 -237 709q0 279 125 547q126 270 336 456h204q-216 -204 -340 -473q-122 -265 -122 -530z" />
    <glyph glyph-name="parenright.cap" 
d="M709 885q0 196 -58.5 382t-163.5 326h187q237 -308 237 -708q0 -276 -125 -547q-124 -271 -333 -457h-207q216 204 340 473q123 267 123 531z" />
    <glyph glyph-name="bracketleft.cap" 
d="M1067 1440h-424l-199 -1407h424l-20 -152h-608l239 1712h608z" />
    <glyph glyph-name="bracketright.cap" 
d="M221 35h422l199 1407h-424l22 151h609l-242 -1712h-608z" />
    <glyph glyph-name="braceleft.cap" 
d="M322 662h-97l23 151h94q128 0 152 162l36 280q23 164 125.5 251t272.5 87h250l-23 -153h-203q-119 0 -178 -54t-78 -178l-30 -233q-17 -98 -59.5 -156t-117.5 -84q72 -32 96.5 -85t12.5 -150l-33 -234q-17 -115 32.5 -173t162.5 -58h198l-22 -154h-211q-172 0 -263.5 93
t-74.5 251l39 275q21 162 -104 162z" />
    <glyph glyph-name="braceright.cap" 
d="M965 813h96l-23 -151h-94q-127 0 -151 -162l-37 -281q-23 -164 -125.5 -251t-272.5 -87h-249l22 154h203q119 0 178 53.5t78 177.5l31 234q17 99 59 156t117 83q-72 32 -96.5 85.5t-12.5 150.5l33 233q17 115 -32.5 173.5t-162.5 58.5h-198l22 153h211q172 0 263.5 -93
t74.5 -251l-39 -274q-21 -162 105 -162z" />
    <glyph glyph-name="at.cap" 
d="M885 424q73 0 137 174q68 177 68 369q0 208 -84.5 323t-237.5 115q-127 0 -240.5 -87t-195.5 -247q-131 -256 -131 -559q0 -240 99.5 -374t277.5 -134t313 135l76 -98q-158 -168 -396 -168q-240 0 -378 170q-138 169 -138 467q0 173 45 346.5t127 314.5
q103 177 243.5 271t301.5 94q214 0 338 -154q125 -149 125 -411q0 -281 -109 -482q-107 -198 -262 -198q-66 0 -105 36t-44 99q-35 -68 -87.5 -104.5t-113.5 -36.5q-88 0 -137 73.5t-49 204.5q0 217 102 398q102 184 242 184q63 0 106 -37.5t51 -99.5l35 120h137l-151 -571
q-19 -63 -9.5 -98t44.5 -35zM561 422q50 0 92 58.5t68 164.5l41 160q23 91 3.5 148t-73.5 57q-81 0 -149 -146q-66 -147 -66 -293q0 -149 84 -149z" />
    <glyph glyph-name="zero.dnom" horiz-adv-x="1226" 
d="M551 -14q-127 0 -198.5 91t-71.5 251q0 217 100 358q101 143 258 143q127 0 198.5 -89.5t71.5 -247.5q0 -222 -100 -363q-101 -143 -258 -143zM631 698q-83 0 -142 -108q-57 -105 -57 -264q0 -99 33 -152t94 -53q84 0 141 106q58 107 58 267q0 98 -33 151t-94 53z" />
    <glyph glyph-name="one.dnom" horiz-adv-x="1226" 
d="M516 131l62 440h-201l14 115l96 6q68 1 104.5 31t55.5 98h117l-96 -690h182l-19 -131h-544l18 131h211z" />
    <glyph glyph-name="two.dnom" horiz-adv-x="1226" 
d="M250 0l16 115l299 223q94 70 138.5 127.5t44.5 112.5q0 54 -33 86t-88 32q-68 0 -110 -48t-42 -126q0 -3 6 -51h-147q-6 18 -6 57q0 131 87.5 216t223.5 85q119 0 192.5 -65t73.5 -170q0 -163 -200 -309l-205 -152h352l-18 -133h-584z" />
    <glyph glyph-name="three.dnom" horiz-adv-x="1226" 
d="M872 246q0 -111 -85 -184.5t-218 -73.5q-131 0 -215 71t-88 187l154 22q5 -69 46.5 -109t108.5 -40q63 0 106.5 38t43.5 93q0 51 -35.5 80.5t-95.5 29.5h-86l16 121h94q60 0 99 34t39 85q0 43 -32.5 70.5t-86.5 27.5q-61 0 -104 -35.5t-56 -97.5l-143 23q29 113 113 177
t202 64q116 0 188 -58.5t72 -152.5q0 -71 -40.5 -125t-110.5 -77q54 -20 84 -65t30 -105z" />
    <glyph glyph-name="four.dnom" horiz-adv-x="1226" 
d="M764 201l-29 -201h-141l29 201h-379l16 112l391 504h201l-72 -493h129l-16 -123h-129zM688 688l-282 -364h231z" />
    <glyph glyph-name="five.dnom" horiz-adv-x="1226" 
d="M602 422q-71 0 -125 -57l-139 22l98 430h471l-18 -131h-352l-45 -190q63 51 149 51q104 0 170 -69t66 -175q0 -130 -93 -223q-89 -92 -225 -92q-124 0 -203.5 70t-85.5 186l150 18q7 -66 47.5 -105.5t97.5 -39.5q69 0 115.5 49t46.5 121q0 62 -34 98.5t-91 36.5z" />
    <glyph glyph-name="six.dnom" horiz-adv-x="1226" 
d="M678 829q99 0 166 -52t86 -140l-129 -49q-7 54 -44 85.5t-93 31.5q-82 0 -145.5 -73t-76.5 -188q31 45 83.5 72t111.5 27q106 0 175 -69t69 -175q0 -128 -90 -221q-90 -90 -224 -90q-131 0 -206.5 88t-75.5 243q0 220 110 363q114 147 283 147zM432 252q0 -62 39 -100.5
t100 -38.5q68 0 117 51t49 121q0 61 -38.5 100t-100.5 39q-69 0 -117.5 -50t-48.5 -122z" />
    <glyph glyph-name="seven.dnom" horiz-adv-x="1226" 
d="M782 686h-317l-19 -131h-133l37 262h623l-19 -131q-158 -152 -233 -305q-80 -163 -109 -381h-157q31 220 110.5 386t216.5 300z" />
    <glyph glyph-name="eight.dnom" horiz-adv-x="1226" 
d="M352 596q0 100 80.5 166.5t204.5 66.5q115 0 186.5 -58.5t71.5 -152.5q0 -66 -36.5 -116.5t-104.5 -79.5q60 -25 93.5 -73t33.5 -111q0 -109 -91.5 -179.5t-232.5 -70.5q-133 0 -215 61.5t-82 161.5q0 80 50.5 142t135.5 85q-94 52 -94 158zM489 594q0 -45 36 -75t91 -30
q61 0 101.5 34t40.5 85q0 47 -35 76t-92 29q-61 0 -101.5 -34t-40.5 -85zM731 250q0 54 -41.5 86.5t-107.5 32.5q-74 0 -123 -40t-49 -100q0 -54 41.5 -87t107.5 -33q73 0 122.5 40.5t49.5 100.5z" />
    <glyph glyph-name="nine.dnom" horiz-adv-x="1226" 
d="M512 -12q-98 0 -165.5 51.5t-86.5 142.5l129 49q7 -55 45 -86.5t94 -31.5q82 0 144 73.5t76 186.5q-33 -45 -84.5 -71t-110.5 -26q-106 0 -174 69t-68 175q0 129 88 217q89 92 224 92q133 0 207.5 -87.5t74.5 -243.5q0 -221 -112 -365q-112 -145 -281 -145zM758 565
q0 62 -39.5 102t-100.5 40q-69 0 -116 -51.5t-47 -123.5q0 -62 38.5 -100.5t100.5 -38.5q69 0 116.5 50t47.5 122z" />
    <glyph glyph-name="colon.mid" 
d="M713 227h-283l41 291h281zM817 973h-282l40 291h281z" />
    <glyph glyph-name="commaaboverightcmb" horiz-adv-x="0" 
d="M-23 1063h-127l93 407h209z" />
    <glyph glyph-name="_222" horiz-adv-x="0" 
 />
    <glyph glyph-name="g.1.ord" 
d="M375 1206q0 120 90 201q92 80 235 80q157 0 238 -90q29 43 74 67.5t96 24.5q30 0 49 -8l-22 -156q-23 10 -48 10q-31 0 -58 -17.5t-40 -47.5q2 -6 2 -27q0 -123 -89 -202.5t-230 -79.5q-82 0 -146 24q-26 -6 -41.5 -22.5t-15.5 -36.5q0 -47 61 -47h244q117 0 181.5 -47.5
t64.5 -133.5q0 -124 -112.5 -199t-301.5 -75q-179 0 -277 52.5t-98 148.5q0 57 36 102.5t98 65.5q-52 36 -52 100q0 47 33.5 86t91.5 63q-63 63 -63 164zM829 1237q0 54 -37.5 85.5t-99.5 31.5q-67 0 -109 -40.5t-42 -103.5q0 -54 36.5 -85t98.5 -31q69 0 111 40t42 103z
M399 649q0 -49 55 -75.5t158 -26.5q110 0 172 32t62 89q0 65 -103 65h-225q-55 0 -87 -23.5t-32 -60.5z" />
    <glyph glyph-name="ae.1" 
d="M1032 344l137 -61q-50 -144 -144 -225t-214 -81q-92 0 -163.5 48.5t-106.5 134.5q-49 -86 -124.5 -132t-166.5 -46q-118 0 -191 77.5t-73 204.5q0 178 128.5 280.5t354.5 102.5h51l12 90q12 88 -21.5 140.5t-102.5 52.5q-136 0 -187 -174h-155q27 149 124 241
q100 95 226 95q86 1 146 -37.5t85 -112.5q116 150 273 150q162 0 245 -150q86 -153 52 -375l-11 -61h-555q-1 -23 -2.5 -46.5t-1.5 -31.5q0 -135 48 -213t132 -78q67 0 120 53.5t85 153.5zM911 934q-79 0 -142 -76.5t-95 -210.5h389q14 130 -27 208.5t-125 78.5zM147 276
q0 -67 35 -105t97 -38q80 0 134.5 63t67.5 173l19 137h-29q-324 0 -324 -230z" />
    <glyph glyph-name="dcaron.1" 
d="M494 -23q-179 0 -284.5 129.5t-105.5 350.5q0 265 144 450t360 185q111 0 194 -51.5t120 -143.5l82 573h186l-209 -1470h-184l20 152q-50 -81 -136 -128t-187 -47zM870 494l11 73q20 155 -52 260q-71 103 -200 103q-145 0 -240 -133q-94 -131 -94 -330q0 -155 66 -241.5
t184 -86.5q127 0 216 97t109 258zM1370 1063h-127l92 407h209z" />
    <glyph glyph-name="g.1" 
d="M195 702q0 169 122 279q126 111 316 111q108 0 193.5 -36t136.5 -102q37 64 99.5 101t135.5 37q40 0 64 -9l-25 -178q-43 15 -63 15q-47 0 -88 -29t-64 -80q1 -14 2.5 -30.5t1.5 -24.5q0 -169 -125 -279q-122 -110 -315 -110q-113 0 -195 36q-47 -7 -76.5 -35t-29.5 -65
q0 -35 26 -55.5t70 -20.5h346q158 0 244 -62.5t86 -178.5q0 -167 -152 -273q-149 -104 -403 -104q-242 0 -375 75.5t-133 211.5q0 79 50 141.5t138 93.5q-69 57 -69 141q0 68 44.5 123t123.5 84q-86 86 -86 223zM846 752q0 88 -60.5 141t-160.5 53q-110 0 -180 -67t-70 -172
q0 -88 59.5 -140.5t159.5 -52.5q112 0 182 66.5t70 171.5zM176 -76q0 -78 86.5 -121t241.5 -43q179 0 278 53.5t99 147.5q0 54 -43 81.5t-123 27.5h-344q-88 0 -141.5 -40t-53.5 -106z" />
    <glyph glyph-name="gdotaccent.1" 
d="M195 702q0 169 122 279q126 111 316 111q108 0 193.5 -36t136.5 -102q37 64 99.5 101t135.5 37q40 0 64 -9l-25 -178q-43 15 -63 15q-47 0 -88 -29t-64 -80q1 -14 2.5 -30.5t1.5 -24.5q0 -169 -125 -279q-122 -110 -315 -110q-113 0 -195 36q-47 -7 -76.5 -35t-29.5 -65
q0 -35 26 -55.5t70 -20.5h346q158 0 244 -62.5t86 -178.5q0 -167 -152 -273q-149 -104 -403 -104q-242 0 -375 75.5t-133 211.5q0 79 50 141.5t138 93.5q-69 57 -69 141q0 68 44.5 123t123.5 84q-86 86 -86 223zM846 752q0 88 -60.5 141t-160.5 53q-110 0 -180 -67t-70 -172
q0 -88 59.5 -140.5t159.5 -52.5q112 0 182 66.5t70 171.5zM176 -76q0 -78 86.5 -121t241.5 -43q179 0 278 53.5t99 147.5q0 54 -43 81.5t-123 27.5h-344q-88 0 -141.5 -40t-53.5 -106zM811 1257h-199l29 213h201z" />
    <glyph glyph-name="gcommaaccent.1" 
d="M195 702q0 169 122 279q126 111 316 111q108 0 193.5 -36t136.5 -102q37 64 99.5 101t135.5 37q40 0 64 -9l-25 -178q-43 15 -63 15q-47 0 -88 -29t-64 -80q1 -14 2.5 -30.5t1.5 -24.5q0 -169 -125 -279q-122 -110 -315 -110q-113 0 -195 36q-47 -7 -76.5 -35t-29.5 -65
q0 -35 26 -55.5t70 -20.5h346q158 0 244 -62.5t86 -178.5q0 -167 -152 -273q-149 -104 -403 -104q-242 0 -375 75.5t-133 211.5q0 79 50 141.5t138 93.5q-69 57 -69 141q0 68 44.5 123t123.5 84q-86 86 -86 223zM846 752q0 88 -60.5 141t-160.5 53q-110 0 -180 -67t-70 -172
q0 -88 59.5 -140.5t159.5 -52.5q112 0 182 66.5t70 171.5zM176 -76q0 -78 86.5 -121t241.5 -43q179 0 278 53.5t99 147.5q0 54 -43 81.5t-123 27.5h-344q-88 0 -141.5 -40t-53.5 -106zM743 1333h80l-20 -147h-199l21 139q12 86 77 133t168 43l-12 -84q-100 3 -115 -84z" />
    <glyph glyph-name="aeacute.1" 
d="M758 1186h-154l152 284h239zM1032 344l137 -61q-50 -144 -144 -225t-214 -81q-92 0 -163.5 48.5t-106.5 134.5q-49 -86 -124.5 -132t-166.5 -46q-118 0 -191 77.5t-73 204.5q0 178 128.5 280.5t354.5 102.5h51l12 90q12 88 -21.5 140.5t-102.5 52.5q-136 0 -187 -174
h-155q27 149 124 241q100 95 226 95q86 1 146 -37.5t85 -112.5q116 150 273 150q162 0 245 -150q86 -153 52 -375l-11 -61h-555q-1 -23 -2.5 -46.5t-1.5 -31.5q0 -135 48 -213t132 -78q67 0 120 53.5t85 153.5zM911 934q-79 0 -142 -76.5t-95 -210.5h389q14 130 -27 208.5
t-125 78.5zM147 276q0 -67 35 -105t97 -38q80 0 134.5 63t67.5 173l19 137h-29q-324 0 -324 -230z" />
    <glyph glyph-name="gbreve.1" 
d="M195 702q0 169 122 279q126 111 316 111q108 0 193.5 -36t136.5 -102q37 64 99.5 101t135.5 37q40 0 64 -9l-25 -178q-43 15 -63 15q-47 0 -88 -29t-64 -80q1 -14 2.5 -30.5t1.5 -24.5q0 -169 -125 -279q-122 -110 -315 -110q-113 0 -195 36q-47 -7 -76.5 -35t-29.5 -65
q0 -35 26 -55.5t70 -20.5h346q158 0 244 -62.5t86 -178.5q0 -167 -152 -273q-149 -104 -403 -104q-242 0 -375 75.5t-133 211.5q0 79 50 141.5t138 93.5q-69 57 -69 141q0 68 44.5 123t123.5 84q-86 86 -86 223zM846 752q0 88 -60.5 141t-160.5 53q-110 0 -180 -67t-70 -172
q0 -88 59.5 -140.5t159.5 -52.5q112 0 182 66.5t70 171.5zM176 -76q0 -78 86.5 -121t241.5 -43q179 0 278 53.5t99 147.5q0 54 -43 81.5t-123 27.5h-344q-88 0 -141.5 -40t-53.5 -106zM733 1309q64 0 106 42t54 119h129q-13 -140 -90 -217t-201 -77q-131 0 -198 76.5
t-60 217.5h129q-2 -75 33 -118t98 -43z" />
    <glyph glyph-name="gcircumflex.1" 
d="M195 702q0 169 122 279q126 111 316 111q108 0 193.5 -36t136.5 -102q37 64 99.5 101t135.5 37q40 0 64 -9l-25 -178q-43 15 -63 15q-47 0 -88 -29t-64 -80q1 -14 2.5 -30.5t1.5 -24.5q0 -169 -125 -279q-122 -110 -315 -110q-113 0 -195 36q-47 -7 -76.5 -35t-29.5 -65
q0 -35 26 -55.5t70 -20.5h346q158 0 244 -62.5t86 -178.5q0 -167 -152 -273q-149 -104 -403 -104q-242 0 -375 75.5t-133 211.5q0 79 50 141.5t138 93.5q-69 57 -69 141q0 68 44.5 123t123.5 84q-86 86 -86 223zM846 752q0 88 -60.5 141t-160.5 53q-110 0 -180 -67t-70 -172
q0 -88 59.5 -140.5t159.5 -52.5q112 0 182 66.5t70 171.5zM176 -76q0 -78 86.5 -121t241.5 -43q179 0 278 53.5t99 147.5q0 54 -43 81.5t-123 27.5h-344q-88 0 -141.5 -40t-53.5 -106zM647 1470h201l160 -284h-138l-133 160l-180 -160h-151z" />
    <glyph glyph-name="zero.slash" 
d="M90 590q0 384 176 643q178 260 455 260q218 0 344 -164q127 -165 127 -448q0 -385 -178 -645q-176 -259 -453 -259q-220 0 -346 164q-125 162 -125 449zM713 1323q-184 0 -310 -211q-124 -208 -124 -516q0 -45 2 -59l692 561q-32 110 -99 167.5t-161 57.5zM567 147
q184 0 310 211q124 208 124 516q0 42 -2 56l-692 -559q35 -109 101.5 -166.5t158.5 -57.5z" />
    <glyph glyph-name="arrowNW" 
d="M283 381h-179v850h848v-180h-536l770 -770l-133 -131l-770 770v-539z" />
    <glyph glyph-name="arrowNE" horiz-adv-x="0" 
d="M946 920l-770 -770l-133 131l770 770h-537v180h848v-850h-178v539z" />
    <glyph glyph-name="arrowSE" 
d="M834 973h178v-850h-848v180h536l-770 770l133 131l771 -770v539z" />
    <glyph glyph-name="arrowSW" 
d="M322 434l770 770l133 -131l-770 -770h536v-180h-848v850h179v-539z" />
    <glyph glyph-name="arrowupdown" 
d="M1032 244l133 -140l-547 -495l-546 495l131 140l323 -297v1249l-323 -297l-131 139l546 496l547 -496l-133 -139l-321 297v-1249z" />
    <glyph glyph-name="arrowleftright" horiz-adv-x="2457" 
d="M1792 1315l522 -574l-522 -573l-133 123l328 358h-1459l328 -358l-133 -123l-522 573l522 574l133 -123l-328 -358h1459l-328 358z" />
  </font>
</defs>
</svg>
