<?xml version="1.0" standalone="no"?>
<!DOCTYPE svg PUBLIC "-//W3C//DTD SVG 1.1//EN" "http://www.w3.org/Graphics/SVG/1.1/DTD/svg11.dtd" >
<svg xmlns="http://www.w3.org/2000/svg" xmlns:xlink="http://www.w3.org/1999/xlink" version="1.1">
<metadata>
Created by FontForge 20201107 at Mon Jan  8 01:19:54 2024
 By 
Copyright 2020, Kris Sowersby, Klim Type Foundry.
</metadata>
<defs>
<font id="SohneMono-FettKursiv" horiz-adv-x="1228" >
  <font-face 
    font-family="Sohne Mono Fett"
    font-weight="800"
    font-style="italic"
    font-stretch="normal"
    units-per-em="2048"
    panose-1="2 11 9 9 3 2 2 13 2 3"
    ascent="1638"
    descent="-410"
    x-height="1081"
    cap-height="1470"
    bbox="-692 -459.8 2335 2101"
    underline-thickness="260"
    underline-position="-387"
    slope="-12"
    unicode-range="U+000D-F6C3"
  />
<missing-glyph 
d="M102 0v1470h1229v-1470h-1229zM373 496l104 -105l240 240l241 -240l103 105l-238 241l238 240l-103 104l-241 -239l-240 239l-104 -104l239 -240z" />
    <glyph glyph-name=".notdef" 
d="M102 0v1470h1229v-1470h-1229zM373 496l104 -105l240 240l241 -240l103 105l-238 241l238 240l-103 104l-241 -239l-240 239l-104 -104l239 -240z" />
    <glyph glyph-name=".null" horiz-adv-x="0" 
 />
    <glyph glyph-name="nonmarkingreturn" horiz-adv-x="682" 
 />
    <glyph glyph-name="NULL" horiz-adv-x="0" 
 />
    <glyph glyph-name="NULL" horiz-adv-x="0" 
 />
    <glyph glyph-name="CR" unicode="&#xd;" 
 />
    <glyph glyph-name="space" unicode=" " 
 />
    <glyph glyph-name="exclam" unicode="!" 
d="M762 496h-305l49 974h479zM758 0h-436l55 403h436z" />
    <glyph glyph-name="quotedbl" unicode="&#x22;" 
d="M489 651h-272l66 819h424zM993 651h-272l65 819h424z" />
    <glyph glyph-name="numbersign" unicode="#" 
d="M299 0h-313l120 350h-104l37 271h162l80 229h-158l37 270h215l121 350h317l-123 -350h172l123 350h313l-120 -350h104l-37 -270h-162l-79 -229h159l-39 -271h-215l-121 -350h-317l123 350h-172zM596 850l-80 -229h172l80 229h-172z" />
    <glyph glyph-name="dollar" unicode="$" 
d="M-43 260l227 262q127 -165 310 -215l45 311q-219 53 -311.5 140.5t-92.5 232.5q0 195 144 330q145 136 380 154l27 194h229l-28 -207q135 -23 244.5 -83t164.5 -142l-229 -242q-82 113 -223 164l-39 -285q217 -54 307 -143t90 -233q0 -199 -145 -338q-147 -141 -375 -162
l-29 -201h-231l29 207q-161 25 -294.5 94t-199.5 162zM477 1042q0 -70 105 -108l34 244q-65 -13 -102 -50.5t-37 -85.5zM872 438q0 79 -112 119l-37 -260q69 12 109 49.5t40 91.5z" />
    <glyph glyph-name="percent" unicode="%" 
d="M96 1065q0 196 79.5 312t215.5 116q111 0 170.5 -74.5t59.5 -214.5q0 -196 -79.5 -311t-215.5 -115q-111 0 -170.5 73.5t-59.5 213.5zM1083 1470h269l-1151 -1470h-267zM287 1079q0 -104 51 -104q38 0 64 62.5t26 156.5q0 102 -49 102q-38 0 -65 -62.5t-27 -154.5z
M668 264q0 196 79.5 312t215.5 116q111 0 170 -74t59 -215q0 -196 -79.5 -311t-215.5 -115q-111 0 -170 74t-59 213zM860 279q0 -105 49 -105q38 0 65 63.5t27 155.5q0 103 -51 103q-38 0 -64 -62.5t-26 -154.5z" />
    <glyph glyph-name="ampersand" unicode="&#x26;" 
d="M920 811l290 -47q-61 -270 -223 -479l191 -285h-379l-47 70q-160 -95 -338 -95q-195 0 -306.5 100.5t-111.5 274.5q0 267 274 443q-67 150 -67 270q0 184 123 307q125 125 311 125q158 0 258 -92q100 -90 100 -236q0 -118 -76.5 -222t-236.5 -204l139 -209q73 126 99 279
zM614 1237q-47 0 -76.5 -42t-29.5 -108q0 -67 43 -145q147 88 147 195q0 45 -23 72.5t-61 27.5zM330 399q0 -67 38.5 -104t106.5 -37q63 0 125 33l-192 282q-78 -78 -78 -174z" />
    <glyph glyph-name="quotesingle" unicode="'" 
d="M741 651h-272l66 819h423z" />
    <glyph glyph-name="parenleft" unicode="(" 
d="M297 518q0 284 131 549q131 268 352 444h363q-215 -233 -326.5 -491t-111.5 -522q0 -192 52 -378t144 -321h-332q-131 153 -201.5 338t-70.5 381z" />
    <glyph glyph-name="parenright" unicode=")" 
d="M967 793q0 -283 -131 -551q-132 -267 -353 -443h-362q215 233 326.5 491.5t111.5 522.5q0 192 -52.5 377.5t-144.5 320.5h332q131 -153 202 -338t71 -380z" />
    <glyph glyph-name="asterisk" unicode="*" 
d="M1004 758l-199 -133l-137 233l-203 -233l-178 143l202 233l-264 91l105 217l262 -86l43 288h235l-41 -288l287 86l39 -228l-289 -90z" />
    <glyph glyph-name="plus" unicode="+" 
d="M1214 860l-40 -295h-410l-57 -409h-293l57 409h-410l43 295h410l55 410h293l-55 -410h407z" />
    <glyph glyph-name="comma" unicode="," 
d="M477 0h-182l65 469h490l-59 -414q-31 -219 -164 -321.5t-385 -100.5l30 215q188 3 203 142z" />
    <glyph glyph-name="hyphen" unicode="-" 
d="M918 440h-633l49 355h633z" />
    <glyph glyph-name="period" unicode="." 
d="M782 0h-487l65 469h490z" />
    <glyph glyph-name="slash" unicode="/" 
d="M422 -201h-404l826 1712h401z" />
    <glyph glyph-name="zero" unicode="0" 
d="M59 588q0 392 183 649q185 258 475 258q237 0 370.5 -162t133.5 -450q0 -393 -185 -652q-182 -256 -473 -256q-237 0 -370.5 162.5t-133.5 450.5zM444 569q0 -254 142 -254q108 0 178 168q72 173 72 418q0 254 -142 254q-108 0 -178 -168q-72 -173 -72 -418z" />
    <glyph glyph-name="one" unicode="1" 
d="M705 1475h296l-159 -1139h293l-48 -336h-1032l47 336h353l84 602h-336l41 293l139 10q128 7 203 61.5t119 172.5z" />
    <glyph glyph-name="two" unicode="2" 
d="M4 0l39 279l498 368q160 119 227.5 201t67.5 160q0 66 -40.5 105.5t-107.5 39.5q-87 0 -137.5 -65.5t-50.5 -178.5q0 -4 6 -73h-377q-8 55 -8 86q0 252 166 411q168 162 440 162q232 0 369 -119q139 -121 139 -319q0 -294 -307 -514l-277 -203h488l-49 -340h-1086z" />
    <glyph glyph-name="three" unicode="3" 
d="M1163 446q0 -207 -157 -340q-155 -131 -408 -131q-245 0 -401 129q-158 131 -170 342l393 52q10 -92 62 -140.5t139 -48.5q73 0 121.5 44t48.5 110q0 63 -45 98t-125 35h-138l41 299h160q73 0 118.5 39t45.5 102q0 56 -39 90.5t-102 34.5q-75 0 -129.5 -47t-71.5 -127
l-365 43q50 216 209.5 340.5t390.5 124.5q220 0 357 -113q139 -115 139 -288q0 -122 -67.5 -222.5t-178.5 -144.5q172 -78 172 -281z" />
    <glyph glyph-name="four" unicode="4" 
d="M997 322l-45 -322h-354l45 322h-647l39 282l624 866h500l-117 -843h183l-43 -305h-185zM752 1153l-367 -526h293z" />
    <glyph glyph-name="five" unicode="5" 
d="M649 684q-93 0 -155 -78l-357 51l182 813h906l-47 -340h-603l-47 -198q88 61 226 61q188 0 309 -121q119 -119 119 -311q0 -246 -170 -416t-428 -170q-241 0 -394 129q-152 131 -161 349l391 45q6 -86 58 -139.5t128 -53.5q82 0 139.5 61.5t57.5 147.5q0 75 -42.5 122.5
t-111.5 47.5z" />
    <glyph glyph-name="six" unicode="6" 
d="M791 1495q189 0 315.5 -90t169.5 -256l-324 -127q-17 74 -68.5 115t-129.5 41q-109 0 -191 -88q-80 -83 -102 -220q121 103 282 103q192 0 312 -123q121 -121 121 -313q0 -237 -166 -400q-162 -162 -418 -162q-250 0 -393 162q-142 165 -142 447q0 386 207 649
q206 262 527 262zM424 469q0 -80 49.5 -129t130.5 -49q90 0 148.5 61t58.5 154q0 80 -49.5 130t-130.5 50q-90 0 -148.5 -62t-58.5 -155z" />
    <glyph glyph-name="seven" unicode="7" 
d="M854 1137h-393l-31 -213h-338l78 546h1161l-47 -342q-262 -244 -389 -495q-125 -251 -178 -633h-406q56 376 186 650t357 487z" />
    <glyph glyph-name="eight" unicode="8" 
d="M178 1047q0 188 152 319q150 129 385 129q218 0 352 -113q137 -110 137 -290q0 -232 -227 -353q91 -43 141.5 -124t50.5 -185q0 -202 -163 -328q-165 -127 -426 -127q-248 0 -402 115q-153 114 -153 299q0 130 78.5 234.5t213.5 154.5q-67 44 -103 114t-36 155zM524 1044
q0 -60 43.5 -97.5t112.5 -37.5q75 0 125.5 45t50.5 111q0 60 -43.5 97.5t-112.5 37.5q-75 0 -125.5 -45t-50.5 -111zM410 432q0 -67 48 -108t126 -41q90 0 150.5 51.5t60.5 126.5q0 66 -49 107.5t-128 41.5q-90 0 -149 -51t-59 -127z" />
    <glyph glyph-name="nine" unicode="9" 
d="M496 -25q-189 0 -316 90.5t-170 256.5l324 127q17 -74 68.5 -115t129.5 -41q108 0 191 86q81 86 102 221q-120 -102 -282 -102q-194 0 -314 120q-118 121 -118 316q0 234 163 397q167 164 420 164q251 0 391 -162q144 -164 144 -446q0 -388 -207 -651
q-206 -261 -526 -261zM862 1001q0 80 -49.5 129.5t-130.5 49.5q-90 0 -148.5 -61t-58.5 -154q0 -80 49.5 -130.5t130.5 -50.5q90 0 148.5 62t58.5 155z" />
    <glyph glyph-name="colon" unicode=":" 
d="M782 0h-487l65 469h490zM872 645h-487l65 469h490z" />
    <glyph glyph-name="semicolon" unicode=";" 
d="M477 0h-182l65 469h490l-59 -414q-31 -219 -164 -321.5t-385 -100.5l30 215q188 3 203 142zM872 645h-487l66 469h489z" />
    <glyph glyph-name="less" unicode="&#x3c;" 
d="M983 94l-805 406l58 420l921 405l-51 -362l-625 -265l549 -262z" />
    <glyph glyph-name="equal" unicode="=" 
d="M1208 819h-1112l39 268h1110zM1143 342h-1112l37 266h1112z" />
    <glyph glyph-name="greater" unicode="&#x3e;" 
d="M297 1325l805 -405l-58 -420l-921 -406l51 363l625 264l-549 262z" />
    <glyph glyph-name="question" unicode="?" 
d="M836 1014q0 57 -40 92t-106 35q-73 0 -124 -48.5t-68 -134.5l-396 68q56 220 220 344.5t399 124.5q240 0 387 -117q149 -113 149 -305q0 -166 -108 -289q-105 -120 -287 -155l-18 -133h-383l53 344q156 0 239 44.5t83 129.5zM799 0h-437l56 403h436z" />
    <glyph glyph-name="at" unicode="@" 
d="M891 305q48 0 100 178q51 176 51 346q0 186 -75.5 285.5t-216.5 99.5q-130 0 -239 -87.5t-187 -252.5q-117 -259 -117 -565q0 -231 89 -358t249 -127q159 0 301 151l108 -137q-184 -196 -417 -196q-243 0 -387 178q-145 177 -142 485q0 181 46 364.5t130 334.5
q104 190 251 291.5t317 101.5q220 0 352 -156q133 -154 133 -420q0 -293 -123 -518q-119 -223 -295 -223q-66 0 -114.5 31.5t-65.5 85.5q-72 -111 -186 -111q-91 0 -143 77.5t-52 211.5q0 222 104 405q105 185 248 185q50 0 89.5 -26t56.5 -69l20 76h240l-135 -534
q-24 -107 10 -107zM551 303q43 0 80 135l51 201q12 51 4.5 82t-33.5 31q-51 0 -94 -129q-43 -125 -43 -242q0 -78 35 -78z" />
    <glyph glyph-name="A" unicode="A" 
d="M-66 0l596 1470h467l148 -1470h-377l-14 238h-334l-86 -238h-400zM735 559l-26 467l-170 -467h196z" />
    <glyph glyph-name="B" unicode="B" 
d="M666 0h-662l207 1470h551q225 0 351 -94t126 -260q0 -129 -70 -233q-72 -104 -178 -138q193 -82 193 -301q0 -198 -144 -321q-141 -123 -374 -123zM551 1145l-35 -250h166q78 0 124 37.5t46 99.5q0 113 -147 113h-154zM659 594h-186l-37 -266h197q78 0 127 41t49 104
q0 56 -40.5 88.5t-109.5 32.5z" />
    <glyph glyph-name="C" unicode="C" 
d="M758 1495q217 -2 356.5 -128t165.5 -345l-383 -111q-6 115 -50 176.5t-118 61.5q-122 0 -205 -160q-83 -157 -86 -375q1 -139 47.5 -214.5t128.5 -75.5q75 0 137.5 67t94.5 182l360 -141q-85 -220 -247 -338.5t-379 -118.5q-249 0 -390 170t-141 463q0 380 199 631
q198 253 510 256z" />
    <glyph glyph-name="D" unicode="D" 
d="M479 0h-475l207 1470h436q278 0 431 -165.5t153 -462.5q0 -367 -207 -606q-205 -236 -545 -236zM555 1133l-111 -795h54q147 0 239 141q92 142 92 352q0 148 -55.5 225t-163.5 77h-55z" />
    <glyph glyph-name="E" unicode="E" 
d="M4 0l207 1470h1092l-48 -340h-698l-29 -219h580l-47 -331h-580l-32 -240h696l-49 -340h-1092z" />
    <glyph glyph-name="F" unicode="F" 
d="M498 514l-72 -514h-393l207 1470h1065l-48 -340h-671l-41 -284h555l-45 -332h-557z" />
    <glyph glyph-name="G" unicode="G" 
d="M1094 0h-308l15 104q-44 -61 -116.5 -95t-160.5 -34q-212 0 -344 175q-131 174 -131 456q0 161 45 314.5t129 275.5q97 143 230 221t284 78q207 0 335 -122.5t153 -342.5l-377 -110q3 227 -133 227q-112 0 -197 -168q-84 -173 -84 -367q0 -140 46 -218.5t130 -78.5
q69 0 127.5 54t81.5 139h-219l45 317h563z" />
    <glyph glyph-name="H" unicode="H" 
d="M799 915l80 555h401l-207 -1470h-401l82 578h-267l-81 -578h-402l207 1470h401l-77 -555h264z" />
    <glyph glyph-name="I" unicode="I" 
d="M786 340h336l-47 -340h-1075l49 340h336l111 790h-336l47 340h1075l-49 -340h-336z" />
    <glyph glyph-name="J" unicode="J" 
d="M389 -16q-121 0 -297 20l49 348q122 -16 234 -16q156 0 221 47q68 47 86 174l80 573h-467l49 340h866l-137 -985q-37 -254 -205 -377.5t-479 -123.5z" />
    <glyph glyph-name="K" unicode="K" 
d="M213 1470h387l-57 -403l364 403h439l-490 -548l295 -922h-416l-190 571l-84 -96l-68 -475h-387z" />
    <glyph glyph-name="L" unicode="L" 
d="M1071 0h-1034l207 1470h401l-158 -1130h633z" />
    <glyph glyph-name="M" unicode="M" 
d="M922 920l-289 -920h-191l-30 920l-129 -920h-299l206 1470h422l23 -749l229 749h436l-206 -1470h-299z" />
    <glyph glyph-name="N" unicode="N" 
d="M911 1470h369l-207 -1470h-346l-246 778l-108 -778h-369l207 1470h387l211 -727z" />
    <glyph glyph-name="O" unicode="O" 
d="M1235 874q0 -384 -188 -643q-188 -256 -482 -256q-244 0 -380 164t-136 457q0 384 189 641q188 258 481 258q244 0 380 -165t136 -456zM844 877q-1 133 -39 201.5t-107 68.5q-110 0 -184 -160q-73 -158 -76 -393q1 -133 39 -201.5t107 -68.5q110 0 184 159q73 158 76 394
z" />
    <glyph glyph-name="P" unicode="P" 
d="M692 469h-219l-67 -469h-402l207 1470h496q266 0 412.5 -118.5t146.5 -337.5q0 -242 -160 -393q-161 -152 -414 -152zM565 1135l-47 -332h146q93 0 150.5 51t57.5 131q0 72 -50 111t-142 39h-115z" />
    <glyph glyph-name="Q" unicode="Q" 
d="M643 -18q-5 0 -33.5 -3.5t-44.5 -3.5q-244 0 -380 164t-136 457q0 384 189 641q188 258 481 258q244 0 380 -165t136 -456q0 -228 -74 -423.5t-205 -319.5q70 -81 215 -121l-258 -272q-91 29 -162 93.5t-108 150.5zM844 877q-1 133 -39 201.5t-107 68.5q-110 0 -184 -160
q-73 -158 -76 -393q1 -133 39 -201.5t107 -68.5q110 0 184 159q73 158 76 394z" />
    <glyph glyph-name="R" unicode="R" 
d="M578 487h-103l-69 -487h-402l207 1470h500q257 0 403 -119.5t146 -330.5q0 -153 -78.5 -276t-218.5 -191l188 -553h-428zM565 1135l-45 -330h135q93 0 152 51t59 131q0 69 -50 108.5t-140 39.5h-111z" />
    <glyph glyph-name="S" unicode="S" 
d="M575 -25q-194 0 -362 76q-171 77 -264 201l233 270q79 -102 191 -159.5t231 -57.5q94 0 149.5 38t55.5 101q0 50 -48 80t-169 56q-245 51 -354 147t-109 260q0 220 168 363q171 145 430 145q177 0 324 -64.5t233 -179.5l-219 -254q-68 82 -164.5 128t-200.5 46
q-84 0 -134 -33t-50 -89q0 -51 57 -81.5t213 -62.5q416 -89 416 -393q0 -236 -174 -385q-175 -152 -453 -152z" />
    <glyph glyph-name="T" unicode="T" 
d="M1323 1470l-49 -340h-377l-158 -1130h-401l158 1130h-377l47 340h1157z" />
    <glyph glyph-name="U" unicode="U" 
d="M571 -25q-267 0 -405 156q-136 157 -96 426l127 913h391l-127 -903q-17 -115 18 -175t117 -60q78 0 122.5 56.5t61.5 178.5l127 903h391l-129 -913q-83 -582 -598 -582z" />
    <glyph glyph-name="V" unicode="V" 
d="M1350 1470l-613 -1470h-436l-160 1470h406l47 -942l342 942h414z" />
    <glyph glyph-name="W" unicode="W" 
d="M416 705l209 765h241l-30 -765l198 765h322l-414 -1470h-293v764l-237 -764h-318l47 1470h310z" />
    <glyph glyph-name="X" unicode="X" 
d="M164 1470h393l129 -354l223 354h416l-461 -708l285 -762h-393l-150 406l-262 -406h-416l500 762z" />
    <glyph glyph-name="Y" unicode="Y" 
d="M551 1470l123 -487l260 487h426l-549 -948l-72 -522h-401l72 522l-279 948h420z" />
    <glyph glyph-name="Z" unicode="Z" 
d="M551 340h604l-49 -340h-1133l41 299l723 831h-598l47 340h1119l-41 -296z" />
    <glyph glyph-name="bracketleft" unicode="[" 
d="M1083 1223h-333l-160 -1137h334l-41 -287h-703l242 1712h702z" />
    <glyph glyph-name="backslash" unicode="\" 
d="M571 1511l291 -1712h-375l-290 1712h374z" />
    <glyph glyph-name="bracketright" unicode="]" 
d="M180 88h334l160 1137h-334l41 286h702l-241 -1712h-703z" />
    <glyph glyph-name="asciicircum" unicode="^" 
d="M139 823l422 647h369l241 -647h-342l-114 324l-205 -324h-371z" />
    <glyph glyph-name="underscore" unicode="_" 
d="M877 -393h-789l43 303h789z" />
    <glyph glyph-name="grave" unicode="`" 
d="M930 1470l71 -313h-294l-215 313h438z" />
    <glyph glyph-name="a" unicode="a" 
d="M1135 283l-39 -281q-137 -32 -247.5 -7t-160.5 97q-112 -112 -311 -112q-164 0 -265.5 84t-101.5 221q0 155 124 251.5t347 116.5l250 25l2 20q6 51 -23 78.5t-92 28.5q-113 0 -151 -103l-363 60q51 161 197.5 252.5t355.5 91.5q233 0 358.5 -107.5t100.5 -287.5
l-53 -375q-5 -31 12.5 -44t59.5 -9zM504 252q76 0 127.5 37t58.5 98l8 62l-168 -19q-139 -15 -139 -104q0 -35 29.5 -54.5t83.5 -19.5z" />
    <glyph glyph-name="b" unicode="b" 
d="M813 1106q171 0 272 -130.5t101 -350.5q0 -274 -139 -463q-138 -187 -349 -187q-92 0 -167.5 37t-112.5 99l-17 -111h-389l207 1470h389l-67 -489q44 60 115.5 92.5t156.5 32.5zM662 778q-72 0 -120 -54.5t-61 -152.5l-6 -51q-13 -94 26 -155.5t111 -61.5
q82 0 135.5 79.5t53.5 201.5q0 94 -36 144t-103 50z" />
    <glyph glyph-name="c" unicode="c" 
d="M678 791q-100 0 -164.5 -84t-64.5 -213q0 -98 45.5 -150.5t130.5 -52.5q71 0 122.5 42t75.5 116l330 -113q-50 -166 -200.5 -263.5t-360.5 -97.5q-233 0 -385 140q-148 139 -148 356q0 269 179 451q181 184 454 184q214 0 355 -102q140 -101 161 -263l-358 -106
q-11 73 -56 114.5t-116 41.5z" />
    <glyph glyph-name="d" unicode="d" 
d="M418 -25q-174 0 -275 131q-100 129 -100 351q0 272 139 461q138 188 350 188q91 0 167 -36.5t114 -98.5l70 499h389l-207 -1470h-389l14 100q-44 -60 -115.5 -92.5t-156.5 -32.5zM569 303q72 0 120 54.5t61 152.5l6 51q13 93 -26.5 155t-111.5 62q-84 0 -136 -78.5
t-52 -201.5q0 -94 36 -144.5t103 -50.5z" />
    <glyph glyph-name="e" unicode="e" 
d="M594 -25q-243 0 -389 134q-144 135 -144 358q0 276 175 457q176 182 440 182q254 0 389 -164q138 -164 98 -418l-10 -67h-723q7 -88 56.5 -134.5t134.5 -46.5q138 0 198 123l301 -108q-68 -146 -208.5 -231t-317.5 -85zM659 817q-66 0 -117.5 -38t-80.5 -107h344
q5 63 -36 104t-110 41z" />
    <glyph glyph-name="f" unicode="f" 
d="M1077 315l-43 -315h-1057l46 315h299l61 433h-299l45 317h297q26 203 185 316.5t417 113.5q162 0 279 -31l-39 -276q-119 18 -209 18q-223 0 -244 -141h436l-45 -317h-434l-61 -433h366z" />
    <glyph glyph-name="g" unicode="g" 
d="M1219 1081l-136 -956q-32 -244 -190 -374t-422 -130q-218 0 -355.5 87.5t-168.5 246.5l370 63q17 -54 63.5 -83t113.5 -29q82 0 132.5 47t63.5 137l10 62q-94 -111 -262 -111q-183 0 -291 124t-108 331q0 257 141 432q144 178 359 178q90 0 161.5 -33.5t114.5 -95.5
l14 104h390zM754 551l6 43q8 91 -29.5 145t-109.5 54q-85 0 -138 -73.5t-53 -189.5q0 -86 36.5 -132t104.5 -46q74 0 125 54t58 145z" />
    <glyph glyph-name="h" unicode="h" 
d="M408 0h-390l207 1470h389l-67 -485q51 57 130 89t167 32q168 0 256 -113t63 -299l-98 -694h-389l86 612q10 72 -18.5 111t-90.5 39q-66 0 -107.5 -44.5t-53.5 -129.5z" />
    <glyph glyph-name="i" unicode="i" 
d="M938 1167h-393l43 303h391zM1090 0h-1080l43 315h373l61 451h-342l45 315h732l-107 -766h318z" />
    <glyph glyph-name="j" unicode="j" 
d="M1096 1167h-391l40 303h392zM334 -45q110 0 159 38.5t66 135.5l88 637h-432l45 315h821l-141 -1005q-32 -223 -177.5 -338t-395.5 -115q-84 0 -175.5 11.5t-150.5 29.5l45 316q183 -25 248 -25z" />
    <glyph glyph-name="k" unicode="k" 
d="M225 1470h389l-104 -739l340 350h438l-414 -401l275 -680h-420l-156 389l-129 -127l-36 -262h-390z" />
    <glyph glyph-name="l" unicode="l" 
d="M1090 0h-1080l43 315h373l117 840h-342l45 315h731l-162 -1155h318z" />
    <glyph glyph-name="m" unicode="m" 
d="M446 811q-32 0 -49.5 -25t-27.5 -88l-99 -698h-288l151 1081h289l-8 -63q32 41 82.5 64.5t107.5 23.5q60 0 105.5 -26.5t68.5 -73.5q36 45 94 72.5t123 27.5q118 0 176.5 -88t38.5 -236l-110 -782h-289l98 698q8 62 -3 87.5t-46 25.5q-33 0 -51 -26t-25 -87l-98 -698
h-289l99 700q7 61 -5 86t-45 25z" />
    <glyph glyph-name="n" unicode="n" 
d="M408 0h-390l152 1081h389l-12 -96q51 57 130 89t167 32q168 0 256 -113t63 -299l-98 -694h-389l86 612q10 72 -18.5 111t-90.5 39q-66 0 -107.5 -44.5t-53.5 -129.5z" />
    <glyph glyph-name="o" unicode="o" 
d="M53 483q0 268 168 445q169 178 432 178q241 0 381 -137q144 -138 144 -371q0 -267 -168 -444q-170 -179 -432 -179q-239 0 -383 138q-142 139 -142 370zM434 492q0 -96 41 -149.5t113 -53.5q90 0 149.5 86t59.5 215q0 97 -40.5 150t-113.5 53q-90 0 -149.5 -86
t-59.5 -215z" />
    <glyph glyph-name="p" unicode="p" 
d="M813 1106q171 0 272 -130.5t101 -350.5q0 -274 -139 -463q-138 -187 -349 -187q-92 0 -167.5 37t-112.5 99l-66 -465h-389l201 1435h389l-12 -100q44 60 115.5 92.5t156.5 32.5zM662 778q-72 0 -120 -54.5t-61 -152.5l-6 -51q-13 -94 26 -155.5t111 -61.5
q82 0 135.5 79.5t53.5 201.5q0 94 -36 144t-103 50z" />
    <glyph glyph-name="q" unicode="q" 
d="M418 -25q-174 0 -275 131q-100 129 -100 351q0 272 139 461q138 188 350 188q91 0 167 -36.5t114 -98.5l12 110h392l-201 -1435h-391l65 454q-44 -60 -115.5 -92.5t-156.5 -32.5zM569 303q72 0 120 54.5t61 152.5l6 51q13 93 -26.5 155t-111.5 62q-84 0 -136 -78.5
t-52 -201.5q0 -94 36 -144.5t103 -50.5z" />
    <glyph glyph-name="r" unicode="r" 
d="M954 0h-960l45 315h260l61 451h-258l43 315h623l-20 -145q67 74 169 116t222 42q45 0 112 -13l-51 -364q-86 14 -141 14q-153 0 -254.5 -66.5t-118.5 -177.5l-24 -172h337z" />
    <glyph glyph-name="s" unicode="s" 
d="M559 -25q-157 0 -315 50t-240 120l166 256q84 -67 201 -107t223 -40q63 0 99 19t36 51q0 30 -37 47.5t-129 31.5q-226 37 -325 110t-99 202q0 173 146 282q148 109 385 109q153 0 291.5 -47t212.5 -123l-191 -225q-57 56 -148.5 90.5t-183.5 34.5q-57 0 -90 -17.5
t-33 -46.5t34.5 -45t137.5 -35q211 -32 312.5 -109t101.5 -204q0 -182 -153 -293q-150 -111 -402 -111z" />
    <glyph glyph-name="t" unicode="t" 
d="M756 -20q-248 0 -373.5 104.5t-99.5 290.5l55 393h-264l45 313h264l45 326h387l-45 -326h471l-43 -313h-471l-45 -311q-10 -78 34.5 -112t157.5 -34q137 0 265 35l-47 -319q-152 -47 -336 -47z" />
    <glyph glyph-name="u" unicode="u" 
d="M821 1081h389l-151 -1081h-389l12 96q-49 -55 -129 -87t-168 -32q-170 0 -257 113t-62 299l96 692h391l-86 -614q-10 -73 18 -113.5t90 -40.5q66 0 108 45t54 131z" />
    <glyph glyph-name="v" unicode="v" 
d="M1294 1081l-579 -1081h-385l-244 1081h385l119 -604l311 604h393z" />
    <glyph glyph-name="w" unicode="w" 
d="M385 545l182 536h242l20 -536l156 536h322l-365 -1081h-293l-22 610l-211 -610h-307l-33 1081h311z" />
    <glyph glyph-name="x" unicode="x" 
d="M1135 0h-414l-139 281l-215 -281h-420l444 561l-274 520h411l125 -250l195 250h420l-424 -530z" />
    <glyph glyph-name="y" unicode="y" horiz-adv-x="1226" 
d="M1292 1081l-563 -1046q-70 -132 -113 -195q-45 -66 -88 -104q-124 -109 -331 -109q-56 0 -142 11l41 294q31 -6 76 -6q54 0 85.5 18.5t51.5 61.5l21 43l-246 1032h387l123 -598l305 598h393z" />
    <glyph glyph-name="z" unicode="z" 
d="M602 315h508l-45 -315h-1055l41 276l594 490h-522l45 315h1044l-38 -276z" />
    <glyph glyph-name="braceleft" unicode="{" 
d="M283 504h-97l43 303h97q88 0 100 102l35 242q26 178 139.5 269t310.5 91h269l-41 -288h-168q-76 0 -118 -36.5t-54 -113.5l-29 -199q-21 -158 -162 -221q124 -63 103 -217l-29 -198q-24 -150 127 -150h170l-41 -289h-225q-198 0 -304.5 98t-89.5 265l35 239
q16 103 -71 103z" />
    <glyph glyph-name="bar" unicode="|" 
d="M698 -201h-376l241 1712h377z" />
    <glyph glyph-name="braceright" unicode="}" 
d="M981 807h96l-43 -303h-96q-88 0 -100 -103l-35 -241q-26 -178 -140 -269.5t-311 -91.5h-268l41 289h168q76 0 118 36.5t54 113.5l29 198q21 158 161 221q-123 63 -102 217l29 199q24 150 -127 150h-170l41 288h225q198 0 304 -97.5t89 -264.5l-35 -240q-15 -102 72 -102z
" />
    <glyph glyph-name="asciitilde" unicode="~" 
d="M479 887q40 0 76.5 -12.5t89.5 -47.5q65 -39 98 -39q68 0 103 101h280q-31 -199 -122 -316.5t-218 -117.5q-40 0 -76.5 12.5t-91.5 46.5q-60 41 -96 41q-75 0 -102 -100h-281q29 197 121 314.5t219 117.5z" />
    <glyph glyph-name="uni00A0" unicode="&#xa0;" 
 />
    <glyph glyph-name="exclamdown" unicode="&#xa1;" 
d="M526 975h305l-49 -975h-479zM530 1470h437l-56 -403h-436z" />
    <glyph glyph-name="cent" unicode="&#xa2;" 
d="M694 -197h-245l26 191q-180 43 -285.5 181.5t-105.5 330.5q0 246 156 428q159 185 397 211l27 184h245l-28 -196q130 -32 224 -115.5t132 -200.5l-270 -151q-25 105 -129 157l-74 -532q112 39 176 164l227 -162q-66 -129 -182.5 -210t-265.5 -101zM408 524
q0 -153 112 -215l74 520q-86 -35 -136 -117.5t-50 -187.5z" />
    <glyph glyph-name="sterling" unicode="&#xa3;" 
d="M475 90q-118 -115 -256 -115q-113 0 -184.5 68.5t-71.5 177.5q0 125 86 211t217 86q51 0 107 -16q0 6 -8 67h-224l31 230h111q-35 95 -35 178q0 217 155 366q158 152 394 152q206 0 331 -113q125 -110 125 -297q0 -105 -51 -223h-336q39 92 39 156q0 66 -36.5 104.5
t-96.5 38.5q-72 0 -120 -56t-48 -138q0 -41 14 -84l31 -84h203l-31 -230h-137q-3 -91 -45 -217q59 -33 123 -33q137 0 158 185h313q-32 -250 -157.5 -389.5t-317.5 -139.5q-165 0 -283 115zM238 319q-26 0 -44 -18.5t-18 -44.5q0 -25 16 -40t41 -15q51 0 91 65
q-45 53 -86 53z" />
    <glyph glyph-name="yen" unicode="&#xa5;" 
d="M391 342h-317l32 236h320l10 81h-319l35 234h217l-244 577h418l147 -415l268 415h424l-405 -577h219l-33 -234h-319l-10 -81h317l-33 -236h-319l-47 -342h-408z" />
    <glyph glyph-name="section" unicode="&#xa7;" 
d="M1032 514q43 -57 43 -139q0 -172 -149 -285q-151 -115 -387 -115q-159 0 -298 48t-225 133l164 235q66 -60 176 -102q115 -41 211 -41q59 0 94 19t35 50q0 21 -24.5 36t-89.5 32q-10 3 -64.5 15.5t-75.5 17.5q-157 41 -227 107t-70 171q0 81 35.5 153.5t100.5 121.5
q-52 64 -52 153q0 161 133 267q131 104 351 104q152 0 285.5 -48t205.5 -128l-188 -217q-57 57 -141 91t-166 34q-49 0 -78 -16t-29 -42q0 -20 24 -35t87 -34l135 -37q154 -42 225.5 -112.5t71.5 -176.5q0 -72 -29.5 -140.5t-83.5 -119.5zM473 776q0 -30 41 -51
q38 -18 207 -57q32 -8 35 -9q7 -3 13 -4.5t11.5 -2t7.5 -1.5q29 23 29 58q0 33 -38.5 54t-155.5 50l-99 25q-24 -7 -37.5 -24.5t-13.5 -37.5z" />
    <glyph glyph-name="dieresis" unicode="&#xa8;" 
d="M662 1167h-363l41 303h365zM1108 1167h-363l41 303h365z" />
    <glyph glyph-name="copyright" unicode="&#xa9;" 
d="M1235 868q0 -378 -191 -637q-188 -256 -475 -256q-244 0 -381 168q-139 171 -139 459q0 378 189 635q188 258 475 258q245 0 383 -170q139 -171 139 -457zM1040 870q0 203 -88 321t-243 118q-206 0 -336 -201q-129 -200 -129 -508q0 -205 87 -321.5t242 -116.5
q209 0 338 200t129 508zM604 301q-129 0 -203.5 96.5t-74.5 261.5q0 216 104 365q108 150 264 150q122 0 192 -77.5t77 -219.5l-250 -62q0 105 -33 105q-35 0 -62 -86q-26 -79 -26 -179t37 -100t61 111l236 -78q-38 -134 -124.5 -210.5t-197.5 -76.5z" />
    <glyph glyph-name="ordfeminine" unicode="&#xaa;" 
d="M1073 924l-31 -219q-103 -24 -187.5 -8t-125.5 67q-91 -78 -217 -78q-116 0 -189 60.5t-73 156.5q0 112 91 181t255 83l158 15l4 12q4 29 -14.5 44t-55.5 15q-70 0 -84 -61l-291 43q35 119 142 186.5t262 67.5q174 0 268.5 -78.5t75.5 -208.5l-35 -244q-2 -21 8.5 -29.5
t38.5 -4.5zM621 897q44 0 72.5 23t33.5 61l4 27l-92 -9q-41 -1 -63.5 -17.5t-22.5 -41.5q0 -43 68 -43zM997 381h-798l30 211h799z" />
    <glyph glyph-name="guillemotleft" unicode="&#xab;" 
d="M514 68l-459 305l47 319l543 305l-49 -362l-199 -109l168 -108zM1079 68l-458 305l47 319l542 305l-49 -362l-198 -109l167 -108z" />
    <glyph glyph-name="registered" unicode="&#xae;" 
d="M217 985q0 205 145 356q148 154 353 154q183 0 307 -121q125 -119 125 -305q0 -204 -148 -358q-146 -152 -350 -152q-182 0 -309 121q-123 123 -123 305zM311 985q0 -145 97 -242q101 -96 243 -96q165 0 283 127q119 125 119 295q0 145 -97 242q-96 96 -241 96
q-164 0 -285 -127q-119 -125 -119 -295zM809 983l86 -184h-172l-55 143h-56l-22 -143h-158l68 471h235q81 0 129.5 -39t48.5 -103q0 -48 -27.5 -86.5t-76.5 -58.5zM745 1104q0 39 -49 39h-57l-12 -88h59q25 0 42 14.5t17 34.5z" />
    <glyph glyph-name="overscore" unicode="&#xaf;" 
d="M1094 1454l-39 -278h-703l39 278h703z" />
    <glyph glyph-name="degree" unicode="&#xb0;" 
d="M367 1135q0 150 104 254q106 106 252 106q132 0 221 -92q90 -90 90 -223q0 -147 -104 -254q-105 -105 -252 -105q-133 0 -223 90q-88 91 -88 224zM571 1147q0 -55 34 -91t85 -36q57 0 99 43t42 104q0 56 -33 91.5t-87 35.5q-57 0 -98.5 -43t-41.5 -104z" />
    <glyph glyph-name="twosuperior" unicode="&#xb2;" 
d="M324 655l24 176l264 197q85 62 118.5 99.5t33.5 72.5q0 26 -14.5 41.5t-40.5 15.5q-74 0 -74 -110q0 -3 4 -39h-254q-1 16 -2.5 29t-1.5 18q0 149 97.5 239.5t260.5 90.5q137 0 215 -64.5t78 -179.5q0 -159 -145 -266l-125 -96h215l-33 -224h-620z" />
    <glyph glyph-name="threesuperior" unicode="&#xb3;" 
d="M985 905q0 -117 -88.5 -190.5t-230.5 -73.5q-139 0 -230 72.5t-102 191.5l266 31q9 -74 80 -74q25 0 42 16.5t17 39.5q0 51 -67 51h-74l29 190h82q29 0 45 15.5t16 42.5q0 20 -14 32.5t-37 12.5q-31 0 -52 -19.5t-26 -50.5l-244 20q25 125 118 199t228 74q127 0 207 -64
t80 -164q0 -65 -35.5 -120t-93.5 -82q84 -47 84 -150z" />
    <glyph glyph-name="acute" unicode="&#xb4;" 
d="M715 1157h-314l138 313h460z" />
    <glyph glyph-name="paragraph" unicode="&#xb6;" 
d="M991 0h-321l166 1182h-150l-88 -629h-96q-187 0 -295.5 104.5t-108.5 286.5q0 216 152 371t377 155h698l-41 -288h-125z" />
    <glyph glyph-name="middot" unicode="&#xb7;" 
d="M840 408h-488l66 469h489z" />
    <glyph glyph-name="cedilla" unicode="&#xb8;" 
d="M743 -193q0 -82 -73 -134t-191 -52q-152 0 -250 82l111 139q48 -48 111 -51q61 0 61 39q0 44 -119 53l66 142h159l-28 -66q72 -11 112.5 -51t40.5 -101z" />
    <glyph glyph-name="onesuperior" unicode="&#xb9;" 
d="M711 1470h196l-80 -591h146l-33 -224h-590l33 224h182l37 270h-170l27 197l73 4q64 5 106.5 33t72.5 87z" />
    <glyph glyph-name="ordmasculine" unicode="&#xba;" 
d="M283 1049q0 187 120 313q124 127 312 127q173 0 278 -99.5t105 -265.5q0 -188 -121 -315q-119 -125 -309 -125q-174 0 -279.5 100t-105.5 265zM584 1053q0 -55 24.5 -88t65.5 -33q55 0 90 53t35 135q0 57 -23.5 89t-66.5 32q-54 0 -89.5 -54t-35.5 -134zM975 381h-766
l31 211h766z" />
    <glyph glyph-name="guillemotright" unicode="&#xbb;" 
d="M715 997l459 -305l-48 -319l-542 -305l49 362l198 109l-167 108zM150 997l458 -305l-47 -319l-543 -305l50 362l198 109l-168 108z" />
    <glyph glyph-name="onequarter" unicode="&#xbc;" horiz-adv-x="2457" 
d="M711 1470h196l-80 -591h146l-33 -224h-590l33 224h182l37 270h-170l27 197l73 4q64 5 106.5 33t72.5 87zM537 0l1157 1470h280l-1153 -1470h-284zM2032 164l-25 -164h-235l24 164h-350l27 184l323 467h328l-64 -450h80l-29 -201h-79zM1853 614l-161 -249h127z" />
    <glyph glyph-name="onehalf" unicode="&#xbd;" horiz-adv-x="2457" 
d="M711 1470h196l-80 -591h146l-33 -224h-590l33 224h182l37 270h-170l27 197l73 4q64 5 106.5 33t72.5 87zM537 0l1157 1470h280l-1153 -1470h-284zM1460 0l25 176l264 197q85 62 118.5 99.5t33.5 72.5q0 26 -15 41.5t-41 15.5q-73 0 -73 -110q0 -3 4 -39h-254
q-1 16 -2.5 29t-1.5 18q0 149 97.5 239t260.5 90q137 0 215 -64t78 -179q0 -160 -146 -267l-125 -96h216l-33 -223h-621z" />
    <glyph glyph-name="threequarters" unicode="&#xbe;" horiz-adv-x="2457" 
d="M985 905q0 -117 -88.5 -190.5t-230.5 -73.5q-139 0 -230 72.5t-102 191.5l266 31q9 -74 80 -74q25 0 42 16.5t17 39.5q0 51 -67 51h-74l29 190h82q29 0 45 15.5t16 42.5q0 20 -14 32.5t-37 12.5q-31 0 -52 -19.5t-26 -50.5l-244 20q25 125 118 199t228 74q127 0 207 -64
t80 -164q0 -65 -35.5 -120t-93.5 -82q84 -47 84 -150zM537 0l1157 1470h280l-1153 -1470h-284zM2032 164l-25 -164h-235l24 164h-350l27 184l323 467h328l-64 -450h80l-29 -201h-79zM1853 614l-161 -249h127z" />
    <glyph glyph-name="questiondown" unicode="&#xbf;" 
d="M451 469q0 -57 39.5 -92t105.5 -35q74 0 124.5 48t67.5 134l396 -67q-56 -220 -220 -344.5t-399 -124.5q-239 0 -389 114q-147 117 -147 308q0 165 108 288q106 121 287 156l18 133h383l-53 -344q-156 0 -238.5 -44.5t-82.5 -129.5zM487 1483h437l-56 -404h-436z" />
    <glyph glyph-name="Agrave" unicode="&#xc0;" 
d="M-66 0l596 1470h467l148 -1470h-377l-14 238h-334l-86 -238h-400zM735 559l-26 467l-170 -467h196zM821 1884l105 -342h-318l-278 342h491z" />
    <glyph glyph-name="Aacute" unicode="&#xc1;" 
d="M-66 0l596 1470h467l148 -1470h-377l-14 238h-334l-86 -238h-400zM735 559l-26 467l-170 -467h196zM936 1542h-336l182 342h514z" />
    <glyph glyph-name="Acircumflex" unicode="&#xc2;" 
d="M-66 0l596 1470h467l148 -1470h-377l-14 238h-334l-86 -238h-400zM735 559l-26 467l-170 -467h196zM612 1884h381l187 -342h-273l-125 121l-159 -121h-293z" />
    <glyph glyph-name="Atilde" unicode="&#xc3;" 
d="M-66 0l596 1470h467l148 -1470h-377l-14 238h-334l-86 -238h-400zM735 559l-26 467l-170 -467h196zM993 1925h254q-23 -175 -106.5 -279t-204.5 -104q-39 0 -75.5 12.5t-90.5 47.5q-63 38 -94 38q-33 0 -57.5 -25.5t-34.5 -72.5h-254q23 175 106.5 279t204.5 104
q39 0 75.5 -12t90.5 -47q61 -37 92 -37q33 0 57.5 24.5t36.5 71.5z" />
    <glyph glyph-name="Adieresis" unicode="&#xc4;" 
d="M-66 0l596 1470h467l148 -1470h-377l-14 238h-334l-86 -238h-400zM735 559l-26 467l-170 -467h196zM711 1542h-365l47 326h363zM1163 1542h-362l45 326h364z" />
    <glyph glyph-name="Aring" unicode="&#xc5;" 
d="M463 1606q0 126 90 213q88 88 227 88q128 0 209.5 -77.5t81.5 -195.5q0 -108 -72 -192l146 -1442h-377l-14 238h-334l-86 -238h-400l584 1440q-55 68 -55 166zM672 1612q0 -39 25.5 -63.5t66.5 -24.5q43 0 70.5 29.5t27.5 74.5q0 39 -25.5 64.5t-66.5 25.5
q-42 0 -70 -30.5t-28 -75.5zM735 559l-26 467l-170 -467h196z" />
    <glyph glyph-name="AE" unicode="&#xc6;" 
d="M-76 0l512 1470h905l-47 -323h-266l-35 -244h199l-45 -315h-199l-37 -264h267l-43 -324h-625l39 272h-191l-94 -272h-340zM678 1200l-213 -620h127z" />
    <glyph glyph-name="Ccedilla" unicode="&#xc7;" 
d="M748 -193q0 -82 -73.5 -134t-191.5 -52q-152 0 -250 82l111 139q48 -48 111 -51q61 0 61 39q0 44 -119 53l49 107q-189 44 -293 206t-104 412q0 380 199 631q198 253 510 256q217 -2 356.5 -128t165.5 -345l-383 -111q-6 115 -50 176.5t-118 61.5q-122 0 -205 -160
q-83 -157 -86 -375q1 -139 47.5 -214.5t128.5 -75.5q75 0 137.5 67t94.5 182l360 -141q-82 -214 -238.5 -332.5t-365.5 -124.5l-8 -16q72 -11 113 -51t41 -101z" />
    <glyph glyph-name="Egrave" unicode="&#xc8;" 
d="M4 0l207 1470h1092l-48 -340h-698l-29 -219h580l-47 -331h-580l-32 -240h696l-49 -340h-1092zM911 1884l105 -342h-318l-278 342h491z" />
    <glyph glyph-name="Eacute" unicode="&#xc9;" 
d="M4 0l207 1470h1092l-48 -340h-698l-29 -219h580l-47 -331h-580l-32 -240h696l-49 -340h-1092zM913 1542h-335l182 342h514z" />
    <glyph glyph-name="Ecircumflex" unicode="&#xca;" 
d="M4 0l207 1470h1092l-48 -340h-698l-29 -219h580l-47 -331h-580l-32 -240h696l-49 -340h-1092zM643 1884h381l186 -342h-272l-125 121l-160 -121h-293z" />
    <glyph glyph-name="Edieresis" unicode="&#xcb;" 
d="M4 0l207 1470h1092l-48 -340h-698l-29 -219h580l-47 -331h-580l-32 -240h696l-49 -340h-1092zM733 1542h-364l47 326h362zM1186 1542h-363l45 326h365z" />
    <glyph glyph-name="Igrave" unicode="&#xcc;" 
d="M786 340h336l-47 -340h-1075l49 340h336l111 790h-336l47 340h1075l-49 -340h-336zM834 1884l104 -342h-317l-279 342h492z" />
    <glyph glyph-name="Iacute" unicode="&#xcd;" 
d="M786 340h336l-47 -340h-1075l49 340h336l111 790h-336l47 340h1075l-49 -340h-336zM922 1542h-336l182 342h514z" />
    <glyph glyph-name="Icircumflex" unicode="&#xce;" 
d="M786 340h336l-47 -340h-1075l49 340h336l111 790h-336l47 340h1075l-49 -340h-336zM612 1884h381l187 -342h-273l-125 121l-159 -121h-293z" />
    <glyph glyph-name="Idieresis" unicode="&#xcf;" 
d="M786 340h336l-47 -340h-1075l49 340h336l111 790h-336l47 340h1075l-49 -340h-336zM711 1542h-365l47 326h363zM1163 1542h-362l45 326h364z" />
    <glyph glyph-name="Eth" unicode="&#xd0;" 
d="M479 0h-461l82 575h-75l47 340h75l78 555h422q278 0 431 -165.5t153 -462.5q0 -367 -207 -606q-205 -236 -545 -236zM492 575l-33 -237h39q147 0 239 141q92 142 92 352q0 148 -55.5 225t-163.5 77h-41l-30 -218h166l-48 -340h-165z" />
    <glyph glyph-name="Ntilde" unicode="&#xd1;" 
d="M911 1470h369l-207 -1470h-346l-246 778l-108 -778h-369l207 1470h387l211 -727zM999 1925h254q-23 -175 -106.5 -279t-204.5 -104q-39 0 -75.5 12.5t-90.5 47.5q-63 38 -94 38q-33 0 -57.5 -25.5t-34.5 -72.5h-254q23 175 106.5 279t204.5 104q39 0 75.5 -12t90.5 -47
q61 -37 92 -37q33 0 57.5 24.5t36.5 71.5z" />
    <glyph glyph-name="Ograve" unicode="&#xd2;" 
d="M1235 874q0 -384 -188 -643q-188 -256 -482 -256q-244 0 -380 164t-136 457q0 384 189 641q188 258 481 258q244 0 380 -165t136 -456zM844 877q-1 133 -39 201.5t-107 68.5q-110 0 -184 -160q-73 -158 -76 -393q1 -133 39 -201.5t107 -68.5q110 0 184 159q73 158 76 394
zM817 1884l105 -342h-318l-278 342h491z" />
    <glyph glyph-name="Oacute" unicode="&#xd3;" 
d="M1235 874q0 -384 -188 -643q-188 -256 -482 -256q-244 0 -380 164t-136 457q0 384 189 641q188 258 481 258q244 0 380 -165t136 -456zM844 877q-1 133 -39 201.5t-107 68.5q-110 0 -184 -160q-73 -158 -76 -393q1 -133 39 -201.5t107 -68.5q110 0 184 159q73 158 76 394
zM926 1542h-336l182 342h514z" />
    <glyph glyph-name="Ocircumflex" unicode="&#xd4;" 
d="M1235 874q0 -384 -188 -643q-188 -256 -482 -256q-244 0 -380 164t-136 457q0 384 189 641q188 258 481 258q244 0 380 -165t136 -456zM844 877q-1 133 -39 201.5t-107 68.5q-110 0 -184 -160q-73 -158 -76 -393q1 -133 39 -201.5t107 -68.5q110 0 184 159q73 158 76 394
zM612 1884h381l187 -342h-273l-125 121l-159 -121h-293z" />
    <glyph glyph-name="Otilde" unicode="&#xd5;" 
d="M1235 874q0 -384 -188 -643q-188 -256 -482 -256q-244 0 -380 164t-136 457q0 384 189 641q188 258 481 258q244 0 380 -165t136 -456zM844 877q-1 133 -39 201.5t-107 68.5q-110 0 -184 -160q-73 -158 -76 -393q1 -133 39 -201.5t107 -68.5q110 0 184 159q73 158 76 394
zM987 1925h254q-23 -175 -106.5 -279t-204.5 -104q-39 0 -75.5 12.5t-90.5 47.5q-63 38 -94 38q-33 0 -57.5 -25.5t-34.5 -72.5h-254q23 175 106.5 279t204.5 104q39 0 75.5 -12t90.5 -47q61 -37 92 -37q33 0 57.5 24.5t36.5 71.5z" />
    <glyph glyph-name="Odieresis" unicode="&#xd6;" 
d="M1235 874q0 -384 -188 -643q-188 -256 -482 -256q-244 0 -380 164t-136 457q0 384 189 641q188 258 481 258q244 0 380 -165t136 -456zM844 877q-1 133 -39 201.5t-107 68.5q-110 0 -184 -160q-73 -158 -76 -393q1 -133 39 -201.5t107 -68.5q110 0 184 159q73 158 76 394
zM711 1542h-365l47 326h363zM1163 1542h-362l45 326h364z" />
    <glyph glyph-name="multiply" unicode="&#xd7;" 
d="M68 395l366 326l-276 323l225 199l279 -321l366 321l186 -213l-368 -323l278 -324l-227 -201l-276 324l-367 -324z" />
    <glyph glyph-name="Oslash" unicode="&#xd8;" 
d="M147 -61l-176 143l142 176q-64 144 -64 338q0 384 189 641q188 258 481 258q188 0 313 -98l109 135l176 -143l-143 -179q61 -137 61 -336q0 -384 -188 -643q-188 -256 -482 -256q-185 0 -311 97zM698 1165q-114 0 -190 -149q-77 -148 -86 -375l383 473q-42 51 -107 51z
M584 305q110 0 188 146q79 152 88 372l-379 -471q38 -47 103 -47z" />
    <glyph glyph-name="Ugrave" unicode="&#xd9;" 
d="M569 -25q-267 0 -405 156q-136 157 -96 426l127 913h391l-127 -903q-17 -115 18 -175t117 -60q78 0 122.5 56.5t61.5 178.5l127 903h391l-129 -913q-83 -582 -598 -582zM836 1884l104 -342h-317l-279 342h492z" />
    <glyph glyph-name="Uacute" unicode="&#xda;" 
d="M569 -25q-267 0 -405 156q-136 157 -96 426l127 913h391l-127 -903q-17 -115 18 -175t117 -60q78 0 122.5 56.5t61.5 178.5l127 903h391l-129 -913q-83 -582 -598 -582zM905 1542h-336l183 342h514z" />
    <glyph glyph-name="Ucircumflex" unicode="&#xdb;" 
d="M569 -25q-267 0 -405 156q-136 157 -96 426l127 913h391l-127 -903q-17 -115 18 -175t117 -60q78 0 122.5 56.5t61.5 178.5l127 903h391l-129 -913q-83 -582 -598 -582zM612 1884h381l187 -342h-273l-125 121l-159 -121h-293z" />
    <glyph glyph-name="Udieresis" unicode="&#xdc;" 
d="M569 -25q-267 0 -405 156q-136 157 -96 426l127 913h391l-127 -903q-17 -115 18 -175t117 -60q78 0 122.5 56.5t61.5 178.5l127 903h391l-129 -913q-83 -582 -598 -582zM711 1542h-365l47 326h363zM1163 1542h-362l45 326h364z" />
    <glyph glyph-name="Yacute" unicode="&#xdd;" 
d="M551 1470l123 -487l260 487h426l-549 -948l-72 -522h-401l72 522l-279 948h420zM913 1542h-335l182 342h514z" />
    <glyph glyph-name="Thorn" unicode="&#xde;" 
d="M1237 797q0 -236 -158 -391q-158 -152 -401 -152h-234l-36 -254h-402l207 1470h401l-30 -215h98q268 0 411.5 -118.5t143.5 -339.5zM653 922h-116l-48 -336h146q96 0 153.5 51t57.5 133q0 72 -50.5 112t-142.5 40z" />
    <glyph glyph-name="germandbls" unicode="&#xdf;" 
d="M403 0h-380l135 956q35 254 186.5 397.5t388.5 143.5q214 0 337.5 -103t123.5 -276q0 -110 -57.5 -200t-157.5 -134q201 -103 201 -329q0 -202 -140 -336q-137 -131 -364 -131q-103 0 -197 20l41 287q56 -16 113 -16q86 0 136 49t50 131q0 78 -47.5 118.5t-138.5 40.5
h-66l43 306h66q71 0 115.5 40.5t44.5 104.5q0 55 -34 88t-91 33q-69 0 -113 -54.5t-57 -158.5z" />
    <glyph glyph-name="agrave" unicode="&#xe0;" 
d="M1135 283l-39 -281q-137 -32 -247.5 -7t-160.5 97q-112 -112 -311 -112q-164 0 -265.5 84t-101.5 221q0 155 124 251.5t347 116.5l250 25l2 20q6 51 -23 78.5t-92 28.5q-113 0 -151 -103l-363 60q51 161 197.5 252.5t355.5 91.5q233 0 358.5 -107.5t100.5 -287.5
l-53 -375q-5 -31 12.5 -44t59.5 -9zM504 252q76 0 127.5 37t58.5 98l8 62l-168 -19q-139 -15 -139 -104q0 -35 29.5 -54.5t83.5 -19.5zM799 1470l71 -313h-295l-215 313h439z" />
    <glyph glyph-name="aacute" unicode="&#xe1;" 
d="M1135 283l-39 -281q-137 -32 -247.5 -7t-160.5 97q-112 -112 -311 -112q-164 0 -265.5 84t-101.5 221q0 155 124 251.5t347 116.5l250 25l2 20q6 51 -23 78.5t-92 28.5q-113 0 -151 -103l-363 60q51 161 197.5 252.5t355.5 91.5q233 0 358.5 -107.5t100.5 -287.5
l-53 -375q-5 -31 12.5 -44t59.5 -9zM504 252q76 0 127.5 37t58.5 98l8 62l-168 -19q-139 -15 -139 -104q0 -35 29.5 -54.5t83.5 -19.5zM846 1157h-314l138 313h460z" />
    <glyph glyph-name="acircumflex" unicode="&#xe2;" 
d="M1135 283l-39 -281q-137 -32 -247.5 -7t-160.5 97q-112 -112 -311 -112q-164 0 -265.5 84t-101.5 221q0 155 124 251.5t347 116.5l250 25l2 20q6 51 -23 78.5t-92 28.5q-113 0 -151 -103l-363 60q51 161 197.5 252.5t355.5 91.5q233 0 358.5 -107.5t100.5 -287.5
l-53 -375q-5 -31 12.5 -44t59.5 -9zM504 252q76 0 127.5 37t58.5 98l8 62l-168 -19q-139 -15 -139 -104q0 -35 29.5 -54.5t83.5 -19.5zM551 1470h373l166 -313h-271l-102 94l-129 -94h-289z" />
    <glyph glyph-name="atilde" unicode="&#xe3;" 
d="M1135 283l-39 -281q-137 -32 -247.5 -7t-160.5 97q-112 -112 -311 -112q-164 0 -265.5 84t-101.5 221q0 155 124 251.5t347 116.5l250 25l2 20q6 51 -23 78.5t-92 28.5q-113 0 -151 -103l-363 60q51 161 197.5 252.5t355.5 91.5q233 0 358.5 -107.5t100.5 -287.5
l-53 -375q-5 -31 12.5 -44t59.5 -9zM504 252q76 0 127.5 37t58.5 98l8 62l-168 -19q-139 -15 -139 -104q0 -35 29.5 -54.5t83.5 -19.5zM629 1245q-57 0 -84 -88h-234q20 152 95.5 244t179.5 92q60 0 145 -53q49 -35 76 -35q52 0 86 88h234q-25 -156 -98 -246t-177 -90
q-36 0 -67 11.5t-80 43.5q-53 33 -76 33z" />
    <glyph glyph-name="adieresis" unicode="&#xe4;" 
d="M1135 283l-39 -281q-137 -32 -247.5 -7t-160.5 97q-112 -112 -311 -112q-164 0 -265.5 84t-101.5 221q0 155 124 251.5t347 116.5l250 25l2 20q6 51 -23 78.5t-92 28.5q-113 0 -151 -103l-363 60q51 161 197.5 252.5t355.5 91.5q233 0 358.5 -107.5t100.5 -287.5
l-53 -375q-5 -31 12.5 -44t59.5 -9zM504 252q76 0 127.5 37t58.5 98l8 62l-168 -19q-139 -15 -139 -104q0 -35 29.5 -54.5t83.5 -19.5zM662 1167h-363l41 303h365zM1108 1167h-363l41 303h365z" />
    <glyph glyph-name="aring" unicode="&#xe5;" 
d="M1135 283l-39 -281q-137 -32 -247.5 -7t-160.5 97q-112 -112 -311 -112q-164 0 -265.5 84t-101.5 221q0 155 124 251.5t347 116.5l250 25l2 20q6 51 -23 78.5t-92 28.5q-113 0 -151 -103l-363 60q51 161 197.5 252.5t355.5 91.5q233 0 358.5 -107.5t100.5 -287.5
l-53 -375q-5 -31 12.5 -44t59.5 -9zM504 252q76 0 127.5 37t58.5 98l8 62l-168 -19q-139 -15 -139 -104q0 -35 29.5 -54.5t83.5 -19.5zM473 1366q0 104 74 175t184 71q98 0 161.5 -62.5t63.5 -156.5q0 -104 -74 -175t-184 -71q-99 0 -162 62t-63 157zM639 1372
q0 -31 20.5 -51.5t51.5 -20.5q32 0 54.5 24.5t22.5 59.5q0 32 -19 52t-50 20q-35 0 -57.5 -24t-22.5 -60z" />
    <glyph glyph-name="ae" unicode="&#xe6;" 
d="M920 401l274 -53q-47 -176 -154 -274.5t-247 -98.5q-87 0 -160.5 41.5t-110.5 110.5q-51 -72 -122.5 -111t-153.5 -39q-124 0 -199.5 79t-75.5 210q0 180 121.5 288t325.5 108h49l8 61q9 96 -53 96q-67 0 -88 -119l-287 33q37 174 142 273t257 100q156 0 218 -102
q114 102 251 102q177 0 259 -156q87 -159 53 -405l-13 -84h-481q-2 -14 -2 -60q0 -163 80 -163q75 0 109 163zM879 823q-73 0 -115 -161h172q12 77 -3 119t-54 42zM279 315q0 -79 57 -79q71 0 86 108l16 117h-22q-66 0 -101.5 -38.5t-35.5 -107.5z" />
    <glyph glyph-name="ccedilla" unicode="&#xe7;" 
d="M739 -193q0 -82 -73 -134t-191 -52q-152 0 -250 82l111 139q48 -48 110 -51q62 0 62 39q0 44 -119 53l51 109q-177 43 -279 171.5t-102 307.5q0 269 179 451q181 184 454 184q214 0 355 -102q140 -101 161 -263l-358 -106q-11 73 -56 114.5t-116 41.5q-100 0 -164.5 -84
t-64.5 -213q0 -98 45.5 -150.5t130.5 -52.5q71 0 122.5 42t75.5 116l330 -113q-50 -166 -200.5 -263.5t-360.5 -97.5l-6 -16q72 -11 112.5 -51t40.5 -101z" />
    <glyph glyph-name="egrave" unicode="&#xe8;" 
d="M594 -25q-243 0 -389 134q-144 135 -144 358q0 276 175 457q176 182 440 182q254 0 389 -164q138 -164 98 -418l-10 -67h-723q7 -88 56.5 -134.5t134.5 -46.5q138 0 198 123l301 -108q-68 -146 -208.5 -231t-317.5 -85zM659 817q-66 0 -117.5 -38t-80.5 -107h344
q5 63 -36 104t-110 41zM795 1470l71 -313h-295l-215 313h439z" />
    <glyph glyph-name="eacute" unicode="&#xe9;" 
d="M594 -25q-243 0 -389 134q-144 135 -144 358q0 276 175 457q176 182 440 182q254 0 389 -164q138 -164 98 -418l-10 -67h-723q7 -88 56.5 -134.5t134.5 -46.5q138 0 198 123l301 -108q-68 -146 -208.5 -231t-317.5 -85zM659 817q-66 0 -117.5 -38t-80.5 -107h344
q5 63 -36 104t-110 41zM865 1157h-314l138 313h460z" />
    <glyph glyph-name="ecircumflex" unicode="&#xea;" 
d="M594 -25q-243 0 -389 134q-144 135 -144 358q0 276 175 457q176 182 440 182q254 0 389 -164q138 -164 98 -418l-10 -67h-723q7 -88 56.5 -134.5t134.5 -46.5q138 0 198 123l301 -108q-68 -146 -208.5 -231t-317.5 -85zM659 817q-66 0 -117.5 -38t-80.5 -107h344
q5 63 -36 104t-110 41zM569 1470h373l166 -313h-271l-102 94l-129 -94h-289z" />
    <glyph glyph-name="edieresis" unicode="&#xeb;" 
d="M594 -25q-243 0 -389 134q-144 135 -144 358q0 276 175 457q176 182 440 182q254 0 389 -164q138 -164 98 -418l-10 -67h-723q7 -88 56.5 -134.5t134.5 -46.5q138 0 198 123l301 -108q-68 -146 -208.5 -231t-317.5 -85zM659 817q-66 0 -117.5 -38t-80.5 -107h344
q5 63 -36 104t-110 41zM672 1167h-363l41 303h365zM1118 1167h-362l41 303h364z" />
    <glyph glyph-name="igrave" unicode="&#xec;" 
d="M1090 0h-1080l43 315h373l61 451h-342l45 315h732l-107 -766h318zM825 1470l72 -313h-295l-215 313h438z" />
    <glyph glyph-name="iacute" unicode="&#xed;" 
d="M1090 0h-1080l43 315h373l61 451h-342l45 315h732l-107 -766h318zM901 1157h-314l138 313h460z" />
    <glyph glyph-name="icircumflex" unicode="&#xee;" 
d="M1090 0h-1080l43 315h373l61 451h-342l45 315h732l-107 -766h318zM596 1470h373l166 -313h-271l-102 94l-129 -94h-289z" />
    <glyph glyph-name="idieresis" unicode="&#xef;" 
d="M1090 0h-1080l43 315h373l61 451h-342l45 315h732l-107 -766h318zM698 1167h-362l41 303h364zM1145 1167h-363l41 303h365z" />
    <glyph glyph-name="eth" unicode="&#xf0;" 
d="M621 1075q83 0 137 -28q-28 60 -58 104l-399 -88l37 256l162 35q-83 62 -131 92l385 49q42 -29 84 -68l313 70l-37 -256l-90 -20q158 -234 158 -523q0 -324 -168 -522q-168 -201 -443 -201q-235 0 -374.5 137t-139.5 371q0 258 160 426q163 166 404 166zM438 492
q0 -96 39.5 -149.5t108.5 -53.5q90 0 148.5 85.5t58.5 215.5q0 96 -39.5 149.5t-108.5 53.5q-90 0 -148.5 -85.5t-58.5 -215.5z" />
    <glyph glyph-name="ntilde" unicode="&#xf1;" 
d="M408 0h-390l152 1081h389l-12 -96q51 57 130 89t167 32q168 0 256 -113t63 -299l-98 -694h-389l86 612q10 72 -18.5 111t-90.5 39q-66 0 -107.5 -44.5t-53.5 -129.5zM653 1245q-57 0 -84 -88h-234q20 152 95.5 244t179.5 92q60 0 145 -53q49 -35 76 -35q52 0 86 88h234
q-25 -156 -98 -246t-177 -90q-36 0 -67 11.5t-80 43.5q-53 33 -76 33z" />
    <glyph glyph-name="ograve" unicode="&#xf2;" 
d="M53 483q0 268 168 445q169 178 432 178q241 0 381 -137q144 -138 144 -371q0 -267 -168 -444q-170 -179 -432 -179q-239 0 -383 138q-142 139 -142 370zM434 492q0 -96 41 -149.5t113 -53.5q90 0 149.5 86t59.5 215q0 97 -40.5 150t-113.5 53q-90 0 -149.5 -86
t-59.5 -215zM799 1470l71 -313h-295l-215 313h439z" />
    <glyph glyph-name="oacute" unicode="&#xf3;" 
d="M53 483q0 268 168 445q169 178 432 178q241 0 381 -137q144 -138 144 -371q0 -267 -168 -444q-170 -179 -432 -179q-239 0 -383 138q-142 139 -142 370zM434 492q0 -96 41 -149.5t113 -53.5q90 0 149.5 86t59.5 215q0 97 -40.5 150t-113.5 53q-90 0 -149.5 -86
t-59.5 -215zM850 1157h-314l138 313h460z" />
    <glyph glyph-name="ocircumflex" unicode="&#xf4;" 
d="M53 483q0 268 168 445q169 178 432 178q241 0 381 -137q144 -138 144 -371q0 -267 -168 -444q-170 -179 -432 -179q-239 0 -383 138q-142 139 -142 370zM434 492q0 -96 41 -149.5t113 -53.5q90 0 149.5 86t59.5 215q0 97 -40.5 150t-113.5 53q-90 0 -149.5 -86
t-59.5 -215zM559 1470h373l166 -313h-271l-102 94l-129 -94h-289z" />
    <glyph glyph-name="otilde" unicode="&#xf5;" 
d="M53 483q0 268 168 445q169 178 432 178q241 0 381 -137q144 -138 144 -371q0 -267 -168 -444q-170 -179 -432 -179q-239 0 -383 138q-142 139 -142 370zM434 492q0 -96 41 -149.5t113 -53.5q90 0 149.5 86t59.5 215q0 97 -40.5 150t-113.5 53q-90 0 -149.5 -86
t-59.5 -215zM625 1245q-57 0 -84 -88h-234q20 152 95.5 244t179.5 92q60 0 145 -53q49 -35 76 -35q52 0 86 88h234q-25 -156 -98 -246t-177 -90q-36 0 -67 11.5t-80 43.5q-53 33 -76 33z" />
    <glyph glyph-name="odieresis" unicode="&#xf6;" 
d="M53 483q0 268 168 445q169 178 432 178q241 0 381 -137q144 -138 144 -371q0 -267 -168 -444q-170 -179 -432 -179q-239 0 -383 138q-142 139 -142 370zM434 492q0 -96 41 -149.5t113 -53.5q90 0 149.5 86t59.5 215q0 97 -40.5 150t-113.5 53q-90 0 -149.5 -86
t-59.5 -215zM662 1167h-363l41 303h365zM1108 1167h-363l41 303h365z" />
    <glyph glyph-name="divide" unicode="&#xf7;" 
d="M864 983h-377l50 363h378zM1176 565h-1115l43 295h1113zM737 80h-377l50 362h378z" />
    <glyph glyph-name="oslash" unicode="&#xf8;" 
d="M1178 598q0 -265 -170 -444t-435 -179q-167 0 -305 80l-118 -114l-152 157l119 115q-64 125 -64 270q0 268 168 445q169 178 436 178q176 0 304 -78l120 117l152 -158l-121 -117q66 -117 66 -272zM653 823q-108 0 -180 -96q-70 -94 -70 -238l328 318q-40 16 -78 16z
M578 260q106 0 178 96q71 95 71 240l-329 -320q43 -16 80 -16z" />
    <glyph glyph-name="ugrave" unicode="&#xf9;" 
d="M821 1081h389l-151 -1081h-389l12 96q-49 -55 -129 -87t-168 -32q-170 0 -257 113t-62 299l96 692h391l-86 -614q-10 -73 18 -113.5t90 -40.5q66 0 108 45t54 131zM784 1470l72 -313h-295l-215 313h438z" />
    <glyph glyph-name="uacute" unicode="&#xfa;" 
d="M821 1081h389l-151 -1081h-389l12 96q-49 -55 -129 -87t-168 -32q-170 0 -257 113t-62 299l96 692h391l-86 -614q-10 -73 18 -113.5t90 -40.5q66 0 108 45t54 131zM856 1157h-314l138 313h460z" />
    <glyph glyph-name="ucircumflex" unicode="&#xfb;" 
d="M821 1081h389l-151 -1081h-389l12 96q-49 -55 -129 -87t-168 -32q-170 0 -257 113t-62 299l96 692h391l-86 -614q-10 -73 18 -113.5t90 -40.5q66 0 108 45t54 131zM555 1470h373l166 -313h-271l-102 94l-129 -94h-289z" />
    <glyph glyph-name="udieresis" unicode="&#xfc;" 
d="M821 1081h389l-151 -1081h-389l12 96q-49 -55 -129 -87t-168 -32q-170 0 -257 113t-62 299l96 692h391l-86 -614q-10 -73 18 -113.5t90 -40.5q66 0 108 45t54 131zM657 1167h-362l41 303h364zM1104 1167h-363l41 303h365z" />
    <glyph glyph-name="yacute" unicode="&#xfd;" 
d="M1292 1081l-563 -1046q-70 -132 -113 -195q-45 -66 -88 -104q-124 -109 -331 -109q-56 0 -142 11l41 294q31 -6 76 -6q54 0 85.5 18.5t51.5 61.5l21 43l-246 1032h387l123 -598l305 598h393zM854 1157h-313l137 313h461z" />
    <glyph glyph-name="thorn" unicode="&#xfe;" 
d="M813 1106q171 0 272 -130.5t101 -350.5q0 -274 -139 -463q-138 -187 -349 -187q-92 0 -167.5 37t-112.5 99l-66 -465h-389l256 1824h389l-67 -489q44 60 115.5 92.5t156.5 32.5zM662 778q-72 0 -120 -54.5t-61 -152.5l-6 -51q-13 -94 26 -155.5t111 -61.5
q82 0 135.5 79.5t53.5 201.5q0 94 -36 144t-103 50z" />
    <glyph glyph-name="ydieresis" unicode="&#xff;" 
d="M1292 1081l-563 -1046q-70 -132 -113 -195q-45 -66 -88 -104q-124 -109 -331 -109q-56 0 -142 11l41 294q31 -6 76 -6q54 0 85.5 18.5t51.5 61.5l21 43l-246 1032h387l123 -598l305 598h393zM662 1167h-363l41 303h365zM1108 1167h-363l41 303h365z" />
    <glyph glyph-name="Amacron" unicode="&#x100;" 
d="M-66 0l596 1470h467l148 -1470h-377l-14 238h-334l-86 -238h-400zM735 559l-26 467l-170 -467h196zM1186 1829l-41 -281h-778l39 281h780z" />
    <glyph glyph-name="amacron" unicode="&#x101;" 
d="M1135 283l-39 -281q-137 -32 -247.5 -7t-160.5 97q-112 -112 -311 -112q-164 0 -265.5 84t-101.5 221q0 155 124 251.5t347 116.5l250 25l2 20q6 51 -23 78.5t-92 28.5q-113 0 -151 -103l-363 60q51 161 197.5 252.5t355.5 91.5q233 0 358.5 -107.5t100.5 -287.5
l-53 -375q-5 -31 12.5 -44t59.5 -9zM504 252q76 0 127.5 37t58.5 98l8 62l-168 -19q-139 -15 -139 -104q0 -35 29.5 -54.5t83.5 -19.5zM1092 1454l-39 -278h-703l39 278h703z" />
    <glyph glyph-name="Abreve" unicode="&#x102;" 
d="M-66 0l596 1470h467l148 -1470h-377l-14 238h-334l-86 -238h-400zM735 559l-26 467l-170 -467h196zM784 1540q-180 0 -282 102q-103 103 -82 256h276q0 -50 28 -80t75 -30t80 30t41 80h272q-23 -172 -129 -265t-279 -93z" />
    <glyph glyph-name="abreve" unicode="&#x103;" 
d="M1135 283l-39 -281q-137 -32 -247.5 -7t-160.5 97q-112 -112 -311 -112q-164 0 -265.5 84t-101.5 221q0 155 124 251.5t347 116.5l250 25l2 20q6 51 -23 78.5t-92 28.5q-113 0 -151 -103l-363 60q51 161 197.5 252.5t355.5 91.5q233 0 358.5 -107.5t100.5 -287.5
l-53 -375q-5 -31 12.5 -44t59.5 -9zM504 252q76 0 127.5 37t58.5 98l8 62l-168 -19q-139 -15 -139 -104q0 -35 29.5 -54.5t83.5 -19.5zM729 1384q41 0 70 23.5t37 62.5h262q-20 -154 -117.5 -235.5t-261.5 -81.5q-170 0 -261.5 84t-84.5 233h260q2 -38 28.5 -62t67.5 -24z
" />
    <glyph glyph-name="Aogonek" unicode="&#x104;" 
d="M829 -371q-103 0 -165 48.5t-62 129.5q0 133 164 230l-12 201h-334l-86 -238h-400l596 1470h467l148 -1470h-162q-131 -55 -131 -115q0 -47 66 -47q24 0 73 12l-28 -204q-83 -17 -134 -17zM735 559l-26 467l-170 -467h196z" />
    <glyph glyph-name="aogonek" unicode="&#x105;" 
d="M1069 -150l-31 -204q-80 -17 -131 -17q-103 0 -165 48.5t-62 129.5q0 115 129 199q-84 34 -121 86q-112 -112 -311 -112q-164 0 -265.5 84t-101.5 221q0 155 124 251.5t347 116.5l250 25l2 20q6 51 -23 78.5t-92 28.5q-113 0 -151 -103l-363 60q51 161 197.5 252.5
t355.5 91.5q233 0 358.5 -107.5t100.5 -287.5l-53 -375q-5 -32 12 -44.5t60 -8.5l-39 -281q-79 -20 -122.5 -51t-43.5 -66q0 -47 65 -47q25 0 74 12zM504 252q76 0 127.5 37t58.5 98l8 62l-168 -19q-139 -15 -139 -104q0 -35 29.5 -54.5t83.5 -19.5z" />
    <glyph glyph-name="Cacute" unicode="&#x106;" 
d="M758 1495q217 -2 356.5 -128t165.5 -345l-383 -111q-6 115 -50 176.5t-118 61.5q-122 0 -205 -160q-83 -157 -86 -375q1 -139 47.5 -214.5t128.5 -75.5q75 0 137.5 67t94.5 182l360 -141q-85 -220 -247 -338.5t-379 -118.5q-249 0 -390 170t-141 463q0 380 199 631
q198 253 510 256zM952 1542h-336l183 342h514z" />
    <glyph glyph-name="cacute" unicode="&#x107;" 
d="M678 791q-100 0 -164.5 -84t-64.5 -213q0 -98 45.5 -150.5t130.5 -52.5q71 0 122.5 42t75.5 116l330 -113q-50 -166 -200.5 -263.5t-360.5 -97.5q-233 0 -385 140q-148 139 -148 356q0 269 179 451q181 184 454 184q214 0 355 -102q140 -101 161 -263l-358 -106
q-11 73 -56 114.5t-116 41.5zM854 1157h-313l137 313h461z" />
    <glyph glyph-name="Ccircumflex" unicode="&#x108;" 
d="M758 1495q217 -2 356.5 -128t165.5 -345l-383 -111q-6 115 -50 176.5t-118 61.5q-122 0 -205 -160q-83 -157 -86 -375q1 -139 47.5 -214.5t128.5 -75.5q75 0 137.5 67t94.5 182l360 -141q-85 -220 -247 -338.5t-379 -118.5q-249 0 -390 170t-141 463q0 380 199 631
q198 253 510 256zM647 1884h381l186 -342h-272l-125 121l-160 -121h-292z" />
    <glyph glyph-name="ccircumflex" unicode="&#x109;" 
d="M678 791q-100 0 -164.5 -84t-64.5 -213q0 -98 45.5 -150.5t130.5 -52.5q71 0 122.5 42t75.5 116l330 -113q-50 -166 -200.5 -263.5t-360.5 -97.5q-233 0 -385 140q-148 139 -148 356q0 269 179 451q181 184 454 184q214 0 355 -102q140 -101 161 -263l-358 -106
q-11 73 -56 114.5t-116 41.5zM577 1470h373l166 -313h-271l-102 94l-129 -94h-289z" />
    <glyph glyph-name="Cdotaccent" unicode="&#x10a;" 
d="M758 1495q217 -2 356.5 -128t165.5 -345l-383 -111q-6 115 -50 176.5t-118 61.5q-122 0 -205 -160q-83 -157 -86 -375q1 -139 47.5 -214.5t128.5 -75.5q75 0 137.5 67t94.5 182l360 -141q-85 -220 -247 -338.5t-379 -118.5q-249 0 -390 170t-141 463q0 380 199 631
q198 253 510 256zM993 1542h-395l47 326h393z" />
    <glyph glyph-name="cdotaccent" unicode="&#x10b;" 
d="M678 791q-100 0 -164.5 -84t-64.5 -213q0 -98 45.5 -150.5t130.5 -52.5q71 0 122.5 42t75.5 116l330 -113q-50 -166 -200.5 -263.5t-360.5 -97.5q-233 0 -385 140q-148 139 -148 356q0 269 179 451q181 184 454 184q214 0 355 -102q140 -101 161 -263l-358 -106
q-11 73 -56 114.5t-116 41.5zM915 1167h-391l41 303h393z" />
    <glyph glyph-name="Ccaron" unicode="&#x10c;" 
d="M758 1495q217 -2 356.5 -128t165.5 -345l-383 -111q-6 115 -50 176.5t-118 61.5q-122 0 -205 -160q-83 -157 -86 -375q1 -139 47.5 -214.5t128.5 -75.5q75 0 137.5 67t94.5 182l360 -141q-85 -220 -247 -338.5t-379 -118.5q-249 0 -390 170t-141 463q0 380 199 631
q198 253 510 256zM1268 1884l-281 -342h-383l-184 342h272l125 -121l160 121h291z" />
    <glyph glyph-name="ccaron" unicode="&#x10d;" 
d="M678 791q-100 0 -164.5 -84t-64.5 -213q0 -98 45.5 -150.5t130.5 -52.5q71 0 122.5 42t75.5 116l330 -113q-50 -166 -200.5 -263.5t-360.5 -97.5q-233 0 -385 140q-148 139 -148 356q0 269 179 451q181 184 454 184q214 0 355 -102q140 -101 161 -263l-358 -106
q-11 73 -56 114.5t-116 41.5zM1163 1470l-252 -313h-374l-164 313h270l100 -94l131 94h289z" />
    <glyph glyph-name="Dcaron" unicode="&#x10e;" 
d="M479 0h-475l207 1470h436q278 0 431 -165.5t153 -462.5q0 -367 -207 -606q-205 -236 -545 -236zM555 1133l-111 -795h54q147 0 239 141q92 142 92 352q0 148 -55.5 225t-163.5 77h-55zM1243 1884l-280 -342h-383l-185 342h273l125 -121l159 121h291z" />
    <glyph glyph-name="dcaron" unicode="&#x10f;" horiz-adv-x="1230" 
d="M1264 1096h-162l78 374h250zM309 -25q-146 0 -225.5 119t-79.5 334q0 281 125 479q126 199 320 199q77 0 136 -35.5t89 -97.5l69 497h349l-207 -1470h-348l14 100q-41 -60 -104 -92.5t-138 -32.5zM606 512l6 51q14 109 -12.5 176.5t-81.5 67.5q-70 0 -119 -107
q-47 -106 -47 -237q0 -187 101 -187q57 0 98.5 63t54.5 173z" />
    <glyph glyph-name="Dcroat" unicode="&#x110;" 
d="M479 0h-461l82 575h-75l47 340h75l78 555h422q278 0 431 -165.5t153 -462.5q0 -367 -207 -606q-205 -236 -545 -236zM492 575l-33 -237h39q147 0 239 141q92 142 92 352q0 148 -55.5 225t-163.5 77h-41l-30 -218h166l-48 -340h-165z" />
    <glyph glyph-name="dslash" unicode="&#x111;" 
d="M418 -25q-174 0 -275 131q-100 129 -100 351q0 272 139 461q138 188 350 188q91 0 167 -36.5t114 -98.5l25 178h-185l35 242h184l11 79h389l-10 -79h79l-34 -242h-80l-162 -1149h-389l14 100q-44 -60 -115.5 -92.5t-156.5 -32.5zM569 303q72 0 120 54.5t61 152.5l6 51
q13 93 -26.5 155t-111.5 62q-84 0 -136 -78.5t-52 -201.5q0 -94 36 -144.5t103 -50.5z" />
    <glyph glyph-name="Emacron" unicode="&#x112;" 
d="M4 0l207 1470h1092l-48 -340h-698l-29 -219h580l-47 -331h-580l-32 -240h696l-49 -340h-1092zM1208 1829l-41 -281h-778l39 281h780z" />
    <glyph glyph-name="emacron" unicode="&#x113;" 
d="M594 -25q-243 0 -389 134q-144 135 -144 358q0 276 175 457q176 182 440 182q254 0 389 -164q138 -164 98 -418l-10 -67h-723q7 -88 56.5 -134.5t134.5 -46.5q138 0 198 123l301 -108q-68 -146 -208.5 -231t-317.5 -85zM659 817q-66 0 -117.5 -38t-80.5 -107h344
q5 63 -36 104t-110 41zM1098 1454l-39 -278h-703l39 278h703z" />
    <glyph glyph-name="Ebreve" unicode="&#x114;" 
d="M4 0l207 1470h1092l-48 -340h-698l-29 -219h580l-47 -331h-580l-32 -240h696l-49 -340h-1092zM811 1540q-181 0 -283 102q-103 103 -82 256h277q0 -50 27.5 -80t74.5 -30t80 30t41 80h273q-23 -172 -129 -265t-279 -93z" />
    <glyph glyph-name="ebreve" unicode="&#x115;" 
d="M594 -25q-243 0 -389 134q-144 135 -144 358q0 276 175 457q176 182 440 182q254 0 389 -164q138 -164 98 -418l-10 -67h-723q7 -88 56.5 -134.5t134.5 -46.5q138 0 198 123l301 -108q-68 -146 -208.5 -231t-317.5 -85zM659 817q-66 0 -117.5 -38t-80.5 -107h344
q5 63 -36 104t-110 41zM747 1384q41 0 70 23.5t37 62.5h262q-20 -154 -117.5 -235.5t-261.5 -81.5q-170 0 -261.5 84t-84.5 233h260q2 -38 28.5 -62t67.5 -24z" />
    <glyph glyph-name="Edotaccent" unicode="&#x116;" 
d="M4 0l207 1470h1092l-48 -340h-698l-29 -219h580l-47 -331h-580l-32 -240h696l-49 -340h-1092zM983 1542h-395l47 326h393z" />
    <glyph glyph-name="edotaccent" unicode="&#x117;" 
d="M594 -25q-243 0 -389 134q-144 135 -144 358q0 276 175 457q176 182 440 182q254 0 389 -164q138 -164 98 -418l-10 -67h-723q7 -88 56.5 -134.5t134.5 -46.5q138 0 198 123l301 -108q-68 -146 -208.5 -231t-317.5 -85zM659 817q-66 0 -117.5 -38t-80.5 -107h344
q5 63 -36 104t-110 41zM903 1167h-391l41 303h393z" />
    <glyph glyph-name="Eogonek" unicode="&#x118;" 
d="M801 -371q-103 0 -165.5 48.5t-62.5 129.5q0 107 109 193h-678l207 1470h1092l-48 -340h-698l-29 -219h580l-47 -331h-580l-32 -240h696l-49 -340h-142q-131 -55 -131 -115q0 -47 66 -47q25 0 74 12l-29 -204q-83 -17 -133 -17z" />
    <glyph glyph-name="eogonek" unicode="&#x119;" 
d="M764 -2q-141 -48 -141 -113q0 -47 65 -47q24 0 74 12l-31 -204q-83 -17 -131 -17q-103 0 -165 48.5t-62 129.5q0 97 94 179q-189 32 -297.5 161t-108.5 320q0 276 175 457q176 182 440 182q254 0 389 -164q138 -164 98 -418l-10 -67h-723q7 -88 56.5 -134.5t134.5 -46.5
q138 0 198 123l301 -108q-51 -109 -136 -179t-220 -114zM659 817q-66 0 -117.5 -38t-80.5 -107h344q5 63 -36 104t-110 41z" />
    <glyph glyph-name="Ecaron" unicode="&#x11a;" 
d="M4 0l207 1470h1092l-48 -340h-698l-29 -219h580l-47 -331h-580l-32 -240h696l-49 -340h-1092zM1260 1884l-281 -342h-383l-184 342h272l125 -121l160 121h291z" />
    <glyph glyph-name="ecaron" unicode="&#x11b;" 
d="M594 -25q-243 0 -389 134q-144 135 -144 358q0 276 175 457q176 182 440 182q254 0 389 -164q138 -164 98 -418l-10 -67h-723q7 -88 56.5 -134.5t134.5 -46.5q138 0 198 123l301 -108q-68 -146 -208.5 -231t-317.5 -85zM659 817q-66 0 -117.5 -38t-80.5 -107h344
q5 63 -36 104t-110 41zM1151 1470l-252 -313h-375l-164 313h271l100 -94l131 94h289z" />
    <glyph glyph-name="Gcircumflex" unicode="&#x11c;" 
d="M1094 0h-308l15 104q-44 -61 -116.5 -95t-160.5 -34q-212 0 -344 175q-131 174 -131 456q0 161 45 314.5t129 275.5q97 143 230 221t284 78q207 0 335 -122.5t153 -342.5l-377 -110q3 227 -133 227q-112 0 -197 -168q-84 -173 -84 -367q0 -140 46 -218.5t130 -78.5
q69 0 127.5 54t81.5 139h-219l45 317h563zM651 1884h381l187 -342h-273l-125 121l-159 -121h-293z" />
    <glyph glyph-name="gcircumflex" unicode="&#x11d;" 
d="M1219 1081l-136 -956q-32 -244 -190 -374t-422 -130q-218 0 -355.5 87.5t-168.5 246.5l370 63q17 -54 63.5 -83t113.5 -29q82 0 132.5 47t63.5 137l10 62q-94 -111 -262 -111q-183 0 -291 124t-108 331q0 257 141 432q144 178 359 178q90 0 161.5 -33.5t114.5 -95.5
l14 104h390zM754 551l6 43q8 91 -29.5 145t-109.5 54q-85 0 -138 -73.5t-53 -189.5q0 -86 36.5 -132t104.5 -46q74 0 125 54t58 145zM571 1470h373l166 -313h-270l-103 94l-129 -94h-289z" />
    <glyph glyph-name="Gbreve" unicode="&#x11e;" 
d="M1094 0h-308l15 104q-44 -61 -116.5 -95t-160.5 -34q-212 0 -344 175q-131 174 -131 456q0 161 45 314.5t129 275.5q97 143 230 221t284 78q207 0 335 -122.5t153 -342.5l-377 -110q3 227 -133 227q-112 0 -197 -168q-84 -173 -84 -367q0 -140 46 -218.5t130 -78.5
q69 0 127.5 54t81.5 139h-219l45 317h563zM809 1540q-181 0 -283 102q-103 103 -82 256h277q0 -50 27.5 -80t74.5 -30t80 30t41 80h273q-23 -172 -129 -265t-279 -93z" />
    <glyph glyph-name="gbreve" unicode="&#x11f;" 
d="M1219 1081l-136 -956q-32 -244 -190 -374t-422 -130q-218 0 -355.5 87.5t-168.5 246.5l370 63q17 -54 63.5 -83t113.5 -29q82 0 132.5 47t63.5 137l10 62q-94 -111 -262 -111q-183 0 -291 124t-108 331q0 257 141 432q144 178 359 178q90 0 161.5 -33.5t114.5 -95.5
l14 104h390zM754 551l6 43q8 91 -29.5 145t-109.5 54q-85 0 -138 -73.5t-53 -189.5q0 -86 36.5 -132t104.5 -46q74 0 125 54t58 145zM753 1384q41 0 70 23.5t37 62.5h262q-20 -154 -117.5 -235.5t-261.5 -81.5q-170 0 -261.5 84t-84.5 233h260q2 -38 28.5 -62t67.5 -24z" />
    <glyph glyph-name="Gdotaccent" unicode="&#x120;" 
d="M1094 0h-308l15 104q-44 -61 -116.5 -95t-160.5 -34q-212 0 -344 175q-131 174 -131 456q0 161 45 314.5t129 275.5q97 143 230 221t284 78q207 0 335 -122.5t153 -342.5l-377 -110q3 227 -133 227q-112 0 -197 -168q-84 -173 -84 -367q0 -140 46 -218.5t130 -78.5
q69 0 127.5 54t81.5 139h-219l45 317h563zM989 1542h-395l47 326h393z" />
    <glyph glyph-name="gdotaccent" unicode="&#x121;" 
d="M1219 1081l-136 -956q-32 -244 -190 -374t-422 -130q-218 0 -355.5 87.5t-168.5 246.5l370 63q17 -54 63.5 -83t113.5 -29q82 0 132.5 47t63.5 137l10 62q-94 -111 -262 -111q-183 0 -291 124t-108 331q0 257 141 432q144 178 359 178q90 0 161.5 -33.5t114.5 -95.5
l14 104h390zM754 551l6 43q8 91 -29.5 145t-109.5 54q-85 0 -138 -73.5t-53 -189.5q0 -86 36.5 -132t104.5 -46q74 0 125 54t58 145zM920 1167h-392l41 303h394z" />
    <glyph glyph-name="Gcommaaccent" unicode="&#x122;" 
d="M1094 0h-308l15 104q-44 -61 -116.5 -95t-160.5 -34q-212 0 -344 175q-131 174 -131 456q0 161 45 314.5t129 275.5q97 143 230 221t284 78q207 0 335 -122.5t153 -342.5l-377 -110q3 227 -133 227q-112 0 -197 -168q-84 -173 -84 -367q0 -140 46 -218.5t130 -78.5
q69 0 127.5 54t81.5 139h-219l45 317h563zM449 -260h-127l26 201h389l-16 -115q-41 -300 -428 -285l18 133q126 -3 138 66z" />
    <glyph glyph-name="gcommaaccent" unicode="&#x123;" 
d="M1219 1081l-136 -956q-32 -244 -190 -374t-422 -130q-218 0 -355.5 87.5t-168.5 246.5l370 63q17 -54 63.5 -83t113.5 -29q82 0 132.5 47t63.5 137l10 62q-94 -111 -262 -111q-183 0 -291 124t-108 331q0 257 141 432q144 178 359 178q90 0 161.5 -33.5t114.5 -95.5
l14 104h390zM754 551l6 43q8 91 -29.5 145t-109.5 54q-85 0 -138 -73.5t-53 -189.5q0 -86 36.5 -132t104.5 -46q74 0 125 54t58 145zM809 1356h129l-29 -199h-387l15 113q40 299 430 284l-19 -133q-125 3 -139 -65z" />
    <glyph glyph-name="Hcircumflex" unicode="&#x124;" 
d="M799 915l80 555h401l-207 -1470h-401l82 578h-267l-81 -578h-402l207 1470h401l-77 -555h264zM612 1884h381l187 -342h-273l-125 121l-159 -121h-293z" />
    <glyph glyph-name="hcircumflex" unicode="&#x125;" 
d="M408 0h-390l207 1470h389l-67 -485q51 57 130 89t167 32q168 0 256 -113t63 -299l-98 -694h-389l86 612q10 72 -18.5 111t-90.5 39q-66 0 -107.5 -44.5t-53.5 -129.5zM623 1927h381l186 -342h-272l-125 121l-160 -121h-293z" />
    <glyph glyph-name="Hbar" unicode="&#x126;" 
d="M1311 1241l-47 -330h-78l-129 -911h-387l55 397h-262l-55 -397h-388l130 911h-80l47 330h78l32 229h387l-32 -229h262l33 229h387l-33 -229h80zM537 911l-27 -182h260l27 182h-260z" />
    <glyph glyph-name="hbar" unicode="&#x127;" 
d="M408 0h-390l162 1149h-80l35 242h80l10 79h389l-10 -79h215l-35 -242h-215l-22 -164q51 57 130 89t167 32q168 0 256 -113t63 -299l-98 -694h-389l86 612q10 72 -18.5 111t-90.5 39q-66 0 -107.5 -44.5t-53.5 -129.5z" />
    <glyph glyph-name="Itilde" unicode="&#x128;" 
d="M786 340h336l-47 -340h-1075l49 340h336l111 790h-336l47 340h1075l-49 -340h-336zM987 1925h254q-23 -175 -106.5 -279t-204.5 -104q-39 0 -75.5 12.5t-90.5 47.5q-63 38 -94 38q-33 0 -57.5 -25.5t-34.5 -72.5h-254q23 175 106.5 279t204.5 104q39 0 75.5 -12t90.5 -47
q61 -37 92 -37q33 0 57.5 24.5t36.5 71.5z" />
    <glyph glyph-name="itilde" unicode="&#x129;" 
d="M1090 0h-1080l43 315h373l61 451h-342l45 315h732l-107 -766h318zM672 1245q-57 0 -84 -88h-234q20 152 95.5 244t179.5 92q60 0 145 -53q49 -35 76 -35q52 0 86 88h234q-25 -156 -98 -246t-177 -90q-36 0 -67 11.5t-80 43.5q-53 33 -76 33z" />
    <glyph glyph-name="Imacron" unicode="&#x12a;" 
d="M786 340h336l-47 -340h-1075l49 340h336l111 790h-336l47 340h1075l-49 -340h-336zM1186 1829l-41 -281h-778l39 281h780z" />
    <glyph glyph-name="imacron" unicode="&#x12b;" 
d="M1090 0h-1080l43 315h373l61 451h-342l45 315h732l-107 -766h318zM1130 1454l-38 -278h-703l39 278h702z" />
    <glyph glyph-name="Ibreve" unicode="&#x12c;" 
d="M786 340h336l-47 -340h-1075l49 340h336l111 790h-336l47 340h1075l-49 -340h-336zM784 1540q-180 0 -282 102q-103 103 -82 256h276q0 -50 28 -80t75 -30t80 30t41 80h272q-23 -172 -129 -265t-279 -93z" />
    <glyph glyph-name="ibreve" unicode="&#x12d;" 
d="M1090 0h-1080l43 315h373l61 451h-342l45 315h732l-107 -766h318zM776 1384q41 0 70 23.5t37 62.5h262q-20 -154 -117.5 -235.5t-261.5 -81.5q-170 0 -261.5 84t-84.5 233h260q2 -38 28.5 -62t67.5 -24z" />
    <glyph glyph-name="Iogonek" unicode="&#x12e;" 
d="M549 -371q-103 0 -165 48.5t-62 129.5q0 107 108 193h-430l49 340h336l111 790h-336l47 340h1075l-49 -340h-336l-111 -790h336l-47 -340h-373q-131 -55 -131 -115q0 -47 66 -47q25 0 74 12l-29 -204q-83 -17 -133 -17z" />
    <glyph glyph-name="iogonek" unicode="&#x12f;" 
d="M938 1167h-393l43 303h391zM465 0h-455l43 315h373l61 451h-342l45 315h732l-107 -766h318l-43 -315h-353q-131 -55 -131 -115q0 -47 66 -47q24 0 73 12l-28 -204q-83 -17 -133 -17q-103 0 -165.5 48.5t-62.5 129.5q0 107 109 193z" />
    <glyph glyph-name="Idot" unicode="&#x130;" 
d="M786 340h336l-47 -340h-1075l49 340h336l111 790h-336l47 340h1075l-49 -340h-336zM952 1542h-395l47 326h393z" />
    <glyph glyph-name="dotlessi" unicode="&#x131;" 
d="M1090 0h-1080l43 315h373l61 451h-342l45 315h732l-107 -766h318z" />
    <glyph glyph-name="Jcircumflex" unicode="&#x134;" 
d="M389 -16q-121 0 -297 20l49 348q122 -16 234 -16q156 0 221 47q68 47 86 174l80 573h-467l49 340h866l-137 -985q-37 -254 -205 -377.5t-479 -123.5zM872 1884h381l187 -342h-273l-125 121l-159 -121h-293z" />
    <glyph glyph-name="jcircumflex" unicode="&#x135;" horiz-adv-x="1214" 
d="M313 -45q110 0 159.5 38.5t66.5 135.5l88 637h-432l45 315h821l-141 -1005q-32 -223 -178 -338t-396 -115q-84 0 -175.5 11.5t-150.5 29.5l46 316q183 -25 247 -25zM737 1470h373l166 -313h-270l-103 94l-129 -94h-289z" />
    <glyph glyph-name="Kcommaaccent" unicode="&#x136;" 
d="M213 1470h387l-57 -403l364 403h439l-490 -548l295 -922h-416l-190 571l-84 -96l-68 -475h-387zM449 -260h-127l26 201h389l-16 -115q-41 -300 -428 -285l18 133q126 -3 138 66z" />
    <glyph glyph-name="kcommaaccent" unicode="&#x137;" 
d="M225 1470h389l-104 -739l340 350h438l-414 -401l275 -680h-420l-156 389l-129 -127l-36 -262h-390zM451 -260h-127l26 201h389l-16 -115q-41 -300 -428 -285l18 133q126 -3 138 66z" />
    <glyph glyph-name="kgreenlandic" unicode="&#x138;" 
d="M172 1081h389l-49 -350l338 350h438l-414 -401l275 -680h-420l-156 389l-129 -125l-36 -264h-390z" />
    <glyph glyph-name="Lacute" unicode="&#x139;" 
d="M1071 0h-1034l207 1470h401l-158 -1130h633zM627 1542h-336l182 342h514z" />
    <glyph glyph-name="lacute" unicode="&#x13a;" 
d="M1090 0h-1080l43 315h373l117 840h-342l45 315h731l-162 -1155h318zM971 1614h-336l182 342h514z" />
    <glyph glyph-name="Lcommaaccent" unicode="&#x13b;" 
d="M1071 0h-1034l207 1470h401l-158 -1130h633zM455 -260h-127l26 201h389l-16 -115q-41 -300 -428 -285l18 133q126 -3 138 66z" />
    <glyph glyph-name="lcommaaccent" unicode="&#x13c;" 
d="M1090 0h-1080l43 315h373l117 840h-342l45 315h731l-162 -1155h318zM475 -260h-127l27 201h389l-16 -115q-20 -149 -129 -221t-300 -64l19 133q125 -3 137 66z" />
    <glyph glyph-name="Lcaron" unicode="&#x13d;" 
d="M1071 0h-1034l207 1470h401l-158 -1130h633zM977 1096h-211l102 374h293z" />
    <glyph glyph-name="lcaron" unicode="&#x13e;" 
d="M1090 0h-1080l43 315h373l117 840h-342l45 315h731l-162 -1155h318zM1190 1096h-211l102 374h293z" />
    <glyph glyph-name="Ldot" unicode="&#x13f;" 
d="M1071 0h-1034l207 1470h401l-158 -1130h633zM1137 641h-392l41 303h394z" />
    <glyph glyph-name="ldot" unicode="&#x140;" 
d="M1090 0h-1080l43 315h373l117 840h-342l45 315h731l-162 -1155h318zM1470 608h-391l41 303h393z" />
    <glyph glyph-name="Lslash" unicode="&#x141;" 
d="M1071 0h-1034l65 461l-94 -33l47 344l95 33l94 665h401l-72 -514l301 107l-49 -344l-299 -107l-39 -272h633z" />
    <glyph glyph-name="lslash" unicode="&#x142;" 
d="M1104 0h-1079l43 315h372l31 228l-213 -88l43 311l215 88l41 301h-342l45 315h731l-63 -448l198 82l-43 -311l-198 -82l-56 -396h318z" />
    <glyph glyph-name="Nacute" unicode="&#x143;" 
d="M911 1470h369l-207 -1470h-346l-246 778l-108 -778h-369l207 1470h387l211 -727zM870 1542h-335l182 342h514z" />
    <glyph glyph-name="nacute" unicode="&#x144;" 
d="M408 0h-390l152 1081h389l-12 -96q51 57 130 89t167 32q168 0 256 -113t63 -299l-98 -694h-389l86 612q10 72 -18.5 111t-90.5 39q-66 0 -107.5 -44.5t-53.5 -129.5zM819 1157h-314l138 313h460z" />
    <glyph glyph-name="Ncommaaccent" unicode="&#x145;" 
d="M911 1470h369l-207 -1470h-346l-246 778l-108 -778h-369l207 1470h387l211 -727zM444 -260h-127l27 201h389l-16 -115q-41 -300 -428 -285l18 133q125 -3 137 66z" />
    <glyph glyph-name="ncommaaccent" unicode="&#x146;" 
d="M408 0h-390l152 1081h389l-12 -96q51 57 130 89t167 32q168 0 256 -113t63 -299l-98 -694h-389l86 612q10 72 -18.5 111t-90.5 39q-66 0 -107.5 -44.5t-53.5 -129.5zM444 -260h-127l27 201h389l-16 -115q-41 -300 -428 -285l18 133q125 -3 137 66z" />
    <glyph glyph-name="Ncaron" unicode="&#x147;" 
d="M911 1470h369l-207 -1470h-346l-246 778l-108 -778h-369l207 1470h387l211 -727zM1227 1884l-281 -342h-383l-184 342h272l125 -121l160 121h291z" />
    <glyph glyph-name="ncaron" unicode="&#x148;" 
d="M408 0h-390l152 1081h389l-12 -96q51 57 130 89t167 32q168 0 256 -113t63 -299l-98 -694h-389l86 612q10 72 -18.5 111t-90.5 39q-66 0 -107.5 -44.5t-53.5 -129.5zM1149 1470l-252 -313h-375l-164 313h271l100 -94l131 94h289z" />
    <glyph glyph-name="Eng" unicode="&#x14a;" 
d="M446 -88q116 0 173.5 44.5t76.5 147.5l-215 674l-108 -778h-369l207 1470h387l211 -727l102 727h369l-199 -1402q-29 -213 -189 -329t-421 -116q-87 0 -168.5 11.5t-118.5 29.5l39 275q121 -27 223 -27z" />
    <glyph glyph-name="eng" unicode="&#x14b;" 
d="M453 -88q113 0 167.5 40t67.5 134l74 526q10 72 -18.5 111t-90.5 39q-66 0 -107.5 -44.5t-53.5 -129.5l-84 -588h-390l152 1081h389l-12 -96q51 57 130 89t167 32q168 0 256 -113t63 -299l-88 -626q-31 -219 -178 -332t-401 -113q-176 0 -320 41l41 275q155 -27 236 -27z
" />
    <glyph glyph-name="Omacron" unicode="&#x14c;" 
d="M1235 874q0 -384 -188 -643q-188 -256 -482 -256q-244 0 -380 164t-136 457q0 384 189 641q188 258 481 258q244 0 380 -165t136 -456zM844 877q-1 133 -39 201.5t-107 68.5q-110 0 -184 -160q-73 -158 -76 -393q1 -133 39 -201.5t107 -68.5q110 0 184 159q73 158 76 394
zM1186 1829l-41 -281h-778l39 281h780z" />
    <glyph glyph-name="omacron" unicode="&#x14d;" 
d="M53 483q0 268 168 445q169 178 432 178q241 0 381 -137q144 -138 144 -371q0 -267 -168 -444q-170 -179 -432 -179q-239 0 -383 138q-142 139 -142 370zM434 492q0 -96 41 -149.5t113 -53.5q90 0 149.5 86t59.5 215q0 97 -40.5 150t-113.5 53q-90 0 -149.5 -86
t-59.5 -215zM1094 1454l-39 -278h-703l39 278h703z" />
    <glyph glyph-name="Obreve" unicode="&#x14e;" 
d="M1235 874q0 -384 -188 -643q-188 -256 -482 -256q-244 0 -380 164t-136 457q0 384 189 641q188 258 481 258q244 0 380 -165t136 -456zM844 877q-1 133 -39 201.5t-107 68.5q-110 0 -184 -160q-73 -158 -76 -393q1 -133 39 -201.5t107 -68.5q110 0 184 159q73 158 76 394
zM784 1540q-180 0 -282 102q-103 103 -82 256h276q0 -50 28 -80t75 -30t80 30t41 80h272q-23 -172 -129 -265t-279 -93z" />
    <glyph glyph-name="obreve" unicode="&#x14f;" 
d="M53 483q0 268 168 445q169 178 432 178q241 0 381 -137q144 -138 144 -371q0 -267 -168 -444q-170 -179 -432 -179q-239 0 -383 138q-142 139 -142 370zM434 492q0 -96 41 -149.5t113 -53.5q90 0 149.5 86t59.5 215q0 97 -40.5 150t-113.5 53q-90 0 -149.5 -86
t-59.5 -215zM739 1384q41 0 70 23.5t37 62.5h262q-20 -154 -117.5 -235.5t-261.5 -81.5q-170 0 -261.5 84t-84.5 233h260q2 -38 28.5 -62t67.5 -24z" />
    <glyph glyph-name="Ohungarumlaut" unicode="&#x150;" 
d="M1235 874q0 -384 -188 -643q-188 -256 -482 -256q-244 0 -380 164t-136 457q0 384 189 641q188 258 481 258q244 0 380 -165t136 -456zM844 877q-1 133 -39 201.5t-107 68.5q-110 0 -184 -160q-73 -158 -76 -393q1 -133 39 -201.5t107 -68.5q110 0 184 159q73 158 76 394
zM1130 1556h-294l200 342h408zM664 1556h-295l202 342h408z" />
    <glyph glyph-name="ohungarumlaut" unicode="&#x151;" 
d="M53 483q0 268 168 445q169 178 432 178q241 0 381 -137q144 -138 144 -371q0 -267 -168 -444q-170 -179 -432 -179q-239 0 -383 138q-142 139 -142 370zM434 492q0 -96 41 -149.5t113 -53.5q90 0 149.5 86t59.5 215q0 97 -40.5 150t-113.5 53q-90 0 -149.5 -86
t-59.5 -215zM1063 1157h-289l160 313h401zM616 1157h-288l159 313h402z" />
    <glyph glyph-name="OE" unicode="&#x152;" 
d="M37 606q0 365 170 615q172 249 444 249h692l-47 -325h-278l-35 -240h221l-43 -317h-221l-39 -262h281l-45 -326h-625q-235 0 -355 153t-120 453zM545 324l119 823h-23q-104 0 -180 -168t-76 -377q0 -134 35.5 -206t101.5 -72h23z" />
    <glyph glyph-name="oe" unicode="&#x153;" 
d="M936 401l250 -75q-54 -166 -154 -258.5t-225 -92.5q-145 0 -229 125q-110 -125 -267 -125q-147 0 -230 107.5t-83 296.5q0 316 119 520q121 207 317 207q159 0 236 -133q121 133 274 133q169 0 243 -153t36 -414l-13 -82h-456q2 -87 22 -135t55 -48q31 0 58.5 33.5
t46.5 93.5zM895 819q-66 0 -115 -157h168q8 72 -6.5 114.5t-46.5 42.5zM475 692q0 127 -47 127q-50 0 -88 -139q-37 -136 -37 -279q0 -127 47 -127q50 0 88 138q37 136 37 280z" />
    <glyph glyph-name="Racute" unicode="&#x154;" 
d="M578 487h-103l-69 -487h-402l207 1470h500q257 0 403 -119.5t146 -330.5q0 -153 -78.5 -276t-218.5 -191l188 -553h-428zM565 1135l-45 -330h135q93 0 152 51t59 131q0 69 -50 108.5t-140 39.5h-111zM915 1542h-335l182 342h514z" />
    <glyph glyph-name="racute" unicode="&#x155;" 
d="M954 0h-960l45 315h260l61 451h-258l43 315h623l-20 -145q67 74 169 116t222 42q45 0 112 -13l-51 -364q-86 14 -141 14q-153 0 -254.5 -66.5t-118.5 -177.5l-24 -172h337zM895 1157h-313l137 313h461z" />
    <glyph glyph-name="Rcommaaccent" unicode="&#x156;" 
d="M578 487h-103l-69 -487h-402l207 1470h500q257 0 403 -119.5t146 -330.5q0 -153 -78.5 -276t-218.5 -191l188 -553h-428zM565 1135l-45 -330h135q93 0 152 51t59 131q0 69 -50 108.5t-140 39.5h-111zM438 -260h-127l27 201h389l-16 -115q-41 -300 -428 -285l18 133
q125 -3 137 66z" />
    <glyph glyph-name="rcommaaccent" unicode="&#x157;" 
d="M954 0h-960l45 315h260l61 451h-258l43 315h623l-20 -145q67 74 169 116t222 42q45 0 112 -13l-51 -364q-86 14 -141 14q-153 0 -254.5 -66.5t-118.5 -177.5l-24 -172h337zM334 -260h-127l26 201h390l-17 -115q-41 -300 -428 -285l19 133q125 -3 137 66z" />
    <glyph glyph-name="Rcaron" unicode="&#x158;" 
d="M578 487h-103l-69 -487h-402l207 1470h500q257 0 403 -119.5t146 -330.5q0 -153 -78.5 -276t-218.5 -191l188 -553h-428zM565 1135l-45 -330h135q93 0 152 51t59 131q0 69 -50 108.5t-140 39.5h-111zM1257 1884l-280 -342h-383l-184 342h272l125 -121l160 121h290z" />
    <glyph glyph-name="rcaron" unicode="&#x159;" 
d="M954 0h-960l45 315h260l61 451h-258l43 315h623l-20 -145q67 74 169 116t222 42q45 0 112 -13l-51 -364q-86 14 -141 14q-153 0 -254.5 -66.5t-118.5 -177.5l-24 -172h337zM1223 1470l-252 -313h-375l-164 313h270l101 -94l131 94h289z" />
    <glyph glyph-name="Sacute" unicode="&#x15a;" 
d="M575 -25q-194 0 -362 76q-171 77 -264 201l233 270q79 -102 191 -159.5t231 -57.5q94 0 149.5 38t55.5 101q0 50 -48 80t-169 56q-245 51 -354 147t-109 260q0 220 168 363q171 145 430 145q177 0 324 -64.5t233 -179.5l-219 -254q-68 82 -164.5 128t-200.5 46
q-84 0 -134 -33t-50 -89q0 -51 57 -81.5t213 -62.5q416 -89 416 -393q0 -236 -174 -385q-175 -152 -453 -152zM956 1542h-335l182 342h514z" />
    <glyph glyph-name="sacute" unicode="&#x15b;" 
d="M559 -25q-157 0 -315 50t-240 120l166 256q84 -67 201 -107t223 -40q63 0 99 19t36 51q0 30 -37 47.5t-129 31.5q-226 37 -325 110t-99 202q0 173 146 282q148 109 385 109q153 0 291.5 -47t212.5 -123l-191 -225q-57 56 -148.5 90.5t-183.5 34.5q-57 0 -90 -17.5
t-33 -46.5t34.5 -45t137.5 -35q211 -32 312.5 -109t101.5 -204q0 -182 -153 -293q-150 -111 -402 -111zM856 1157h-314l138 313h460z" />
    <glyph glyph-name="Scircumflex" unicode="&#x15c;" 
d="M575 -25q-194 0 -362 76q-171 77 -264 201l233 270q79 -102 191 -159.5t231 -57.5q94 0 149.5 38t55.5 101q0 50 -48 80t-169 56q-245 51 -354 147t-109 260q0 220 168 363q171 145 430 145q177 0 324 -64.5t233 -179.5l-219 -254q-68 82 -164.5 128t-200.5 46
q-84 0 -134 -33t-50 -89q0 -51 57 -81.5t213 -62.5q416 -89 416 -393q0 -236 -174 -385q-175 -152 -453 -152zM651 1884h381l187 -342h-273l-125 121l-159 -121h-293z" />
    <glyph glyph-name="scircumflex" unicode="&#x15d;" 
d="M559 -25q-157 0 -315 50t-240 120l166 256q84 -67 201 -107t223 -40q63 0 99 19t36 51q0 30 -37 47.5t-129 31.5q-226 37 -325 110t-99 202q0 173 146 282q148 109 385 109q153 0 291.5 -47t212.5 -123l-191 -225q-57 56 -148.5 90.5t-183.5 34.5q-57 0 -90 -17.5
t-33 -46.5t34.5 -45t137.5 -35q211 -32 312.5 -109t101.5 -204q0 -182 -153 -293q-150 -111 -402 -111zM561 1470h373l166 -313h-271l-102 94l-129 -94h-289z" />
    <glyph glyph-name="Scedilla" unicode="&#x15e;" 
d="M-51 252l233 270q79 -102 191 -159.5t231 -57.5q94 0 149.5 38t55.5 101q0 50 -48 80t-169 56q-245 51 -354 147t-109 260q0 220 168 363q171 145 430 145q177 0 324 -64.5t233 -179.5l-219 -254q-68 82 -164.5 128t-200.5 46q-84 0 -134 -33t-50 -89q0 -51 57 -81.5
t213 -62.5q416 -89 416 -393q0 -229 -166 -379q-165 -149 -436 -158l-8 -16q72 -11 112.5 -51t40.5 -101q0 -82 -73 -134t-191 -52q-152 0 -250 82l111 139q48 -48 111 -51q61 0 61 39q0 44 -119 53l47 103q-154 23 -284.5 93.5t-208.5 172.5z" />
    <glyph glyph-name="scedilla" unicode="&#x15f;" 
d="M4 145l166 256q84 -67 201 -107t223 -40q63 0 99 19t36 51q0 30 -37 47.5t-129 31.5q-226 37 -325 110t-99 202q0 173 146 282q148 109 385 109q153 0 291.5 -47t212.5 -123l-191 -225q-57 56 -148.5 90.5t-183.5 34.5q-57 0 -90 -17.5t-33 -46.5t34.5 -45t137.5 -35
q211 -32 312.5 -109t101.5 -204q0 -178 -151 -293q-150 -111 -402 -111l-6 -16q72 -11 113 -51t41 -101q0 -82 -73.5 -134t-191.5 -52q-151 0 -249 82l110 139q48 -48 111 -51q61 0 61 39q0 44 -119 53l48 105q-123 19 -232 61.5t-170 95.5z" />
    <glyph glyph-name="Scaron" unicode="&#x160;" 
d="M575 -25q-194 0 -362 76q-171 77 -264 201l233 270q79 -102 191 -159.5t231 -57.5q94 0 149.5 38t55.5 101q0 50 -48 80t-169 56q-245 51 -354 147t-109 260q0 220 168 363q171 145 430 145q177 0 324 -64.5t233 -179.5l-219 -254q-68 82 -164.5 128t-200.5 46
q-84 0 -134 -33t-50 -89q0 -51 57 -81.5t213 -62.5q416 -89 416 -393q0 -236 -174 -385q-175 -152 -453 -152zM1270 1884l-281 -342h-383l-184 342h272l125 -121l160 121h291z" />
    <glyph glyph-name="scaron" unicode="&#x161;" 
d="M559 -25q-157 0 -315 50t-240 120l166 256q84 -67 201 -107t223 -40q63 0 99 19t36 51q0 30 -37 47.5t-129 31.5q-226 37 -325 110t-99 202q0 173 146 282q148 109 385 109q153 0 291.5 -47t212.5 -123l-191 -225q-57 56 -148.5 90.5t-183.5 34.5q-57 0 -90 -17.5
t-33 -46.5t34.5 -45t137.5 -35q211 -32 312.5 -109t101.5 -204q0 -182 -153 -293q-150 -111 -402 -111zM1139 1470l-252 -313h-375l-164 313h271l100 -94l131 94h289z" />
    <glyph glyph-name="Tcommaaccent" unicode="&#x162;" 
d="M733 -193q0 -82 -73 -134t-191 -52q-152 0 -250 82l111 139q48 -48 110 -51q62 0 62 39q0 44 -119 53l53 117h-98l158 1130h-377l47 340h1157l-49 -340h-377l-158 -1130h-141l-18 -41q72 -11 112.5 -51t40.5 -101z" />
    <glyph glyph-name="tcommaaccent" unicode="&#x163;" 
d="M283 375l55 393h-264l45 313h264l45 326h387l-45 -326h471l-43 -313h-471l-45 -311q-10 -78 34.5 -112t157.5 -34q137 0 265 35l-47 -319q-152 -47 -336 -47q-52 0 -66 2l-10 -23q72 -11 113 -51t41 -101q0 -82 -73.5 -134t-191.5 -52q-152 0 -250 82l111 139
q48 -48 111 -51q61 0 61 39q0 44 -119 53l58 123q-143 41 -210 135.5t-48 233.5z" />
    <glyph glyph-name="Tcaron" unicode="&#x164;" 
d="M1323 1470l-49 -340h-377l-158 -1130h-401l158 1130h-377l47 340h1157zM1227 1884l-281 -342h-383l-184 342h272l125 -121l160 121h291z" />
    <glyph glyph-name="tcaron" unicode="&#x165;" 
d="M756 -20q-248 0 -373.5 104.5t-99.5 290.5l55 393h-264l45 313h264l45 326h387l-45 -326h471l-43 -313h-471l-45 -311q-10 -78 34.5 -112t157.5 -34q137 0 265 35l-47 -319q-152 -47 -336 -47zM1042 1141h-211l103 375h293z" />
    <glyph glyph-name="Tbar" unicode="&#x166;" 
d="M1032 887l-47 -338h-170l-76 -549h-401l76 549h-168l47 338h168l35 243h-377l47 340h1157l-49 -340h-377l-35 -243h170z" />
    <glyph glyph-name="tbar" unicode="&#x167;" 
d="M725 -20q-238 0 -355 103t-91 292l12 80h-242l37 264h242l14 98h-242l37 264h242l45 326h387l-45 -326h457l-37 -264h-457l-14 -98h456l-36 -264h-457v-2q-10 -78 33.5 -112t152.5 -34q116 0 254 31l-45 -311q-157 -47 -348 -47z" />
    <glyph glyph-name="Utilde" unicode="&#x168;" 
d="M569 -25q-267 0 -405 156q-136 157 -96 426l127 913h391l-127 -903q-17 -115 18 -175t117 -60q78 0 122.5 56.5t61.5 178.5l127 903h391l-129 -913q-83 -582 -598 -582zM987 1925h254q-23 -175 -106.5 -279t-204.5 -104q-39 0 -75.5 12.5t-90.5 47.5q-63 38 -94 38
q-33 0 -57.5 -25.5t-34.5 -72.5h-254q23 175 106.5 279t204.5 104q39 0 75.5 -12t90.5 -47q61 -37 92 -37q33 0 57.5 24.5t36.5 71.5z" />
    <glyph glyph-name="utilde" unicode="&#x169;" 
d="M821 1081h389l-151 -1081h-389l12 96q-49 -55 -129 -87t-168 -32q-170 0 -257 113t-62 299l96 692h391l-86 -614q-10 -73 18 -113.5t90 -40.5q66 0 108 45t54 131zM631 1245q-57 0 -84 -88h-234q20 152 95.5 244t179.5 92q60 0 145 -53q49 -35 76 -35q52 0 86 88h234
q-25 -156 -98 -246t-177 -90q-36 0 -67 11.5t-80 43.5q-53 33 -76 33z" />
    <glyph glyph-name="Umacron" unicode="&#x16a;" 
d="M569 -25q-267 0 -405 156q-136 157 -96 426l127 913h391l-127 -903q-17 -115 18 -175t117 -60q78 0 122.5 56.5t61.5 178.5l127 903h391l-129 -913q-83 -582 -598 -582zM1186 1829l-41 -281h-778l39 281h780z" />
    <glyph glyph-name="umacron" unicode="&#x16b;" 
d="M821 1081h389l-151 -1081h-389l12 96q-49 -55 -129 -87t-168 -32q-170 0 -257 113t-62 299l96 692h391l-86 -614q-10 -73 18 -113.5t90 -40.5q66 0 108 45t54 131zM1090 1454l-39 -278h-703l39 278h703z" />
    <glyph glyph-name="Ubreve" unicode="&#x16c;" 
d="M569 -25q-267 0 -405 156q-136 157 -96 426l127 913h391l-127 -903q-17 -115 18 -175t117 -60q78 0 122.5 56.5t61.5 178.5l127 903h391l-129 -913q-83 -582 -598 -582zM784 1540q-180 0 -282 102q-103 103 -82 256h276q0 -50 28 -80t75 -30t80 30t41 80h272
q-23 -172 -129 -265t-279 -93z" />
    <glyph glyph-name="ubreve" unicode="&#x16d;" 
d="M821 1081h389l-151 -1081h-389l12 96q-49 -55 -129 -87t-168 -32q-170 0 -257 113t-62 299l96 692h391l-86 -614q-10 -73 18 -113.5t90 -40.5q66 0 108 45t54 131zM735 1384q41 0 70 23.5t37 62.5h262q-20 -154 -117.5 -235.5t-261.5 -81.5q-170 0 -261.5 84t-84.5 233
h260q2 -38 28.5 -62t67.5 -24z" />
    <glyph glyph-name="Uring" unicode="&#x16e;" 
d="M569 -25q-267 0 -405 156q-136 157 -96 426l127 913h391l-127 -903q-17 -115 18 -175t117 -60q78 0 122.5 56.5t61.5 178.5l127 903h391l-129 -913q-83 -582 -598 -582zM489 1800q0 125 91 213q88 88 227 88q128 0 209.5 -77t81.5 -195q0 -124 -92 -213q-88 -88 -226 -88
q-128 0 -209.5 76.5t-81.5 195.5zM698 1806q0 -38 26 -63t67 -25q42 0 70 30t28 75q0 39 -25.5 64.5t-66.5 25.5q-42 0 -70.5 -31t-28.5 -76z" />
    <glyph glyph-name="uring" unicode="&#x16f;" 
d="M821 1081h389l-151 -1081h-389l12 96q-49 -55 -129 -87t-168 -32q-170 0 -257 113t-62 299l96 692h391l-86 -614q-10 -73 18 -113.5t90 -40.5q66 0 108 45t54 131zM487 1366q0 104 74 175t184 71q98 0 162 -62.5t64 -156.5q0 -104 -74 -175t-184 -71q-99 0 -162.5 62.5
t-63.5 156.5zM653 1372q0 -31 20.5 -51.5t51.5 -20.5q32 0 55 24.5t23 59.5q0 32 -19.5 52t-50.5 20q-35 0 -57.5 -24t-22.5 -60z" />
    <glyph glyph-name="Uhungarumlaut" unicode="&#x170;" 
d="M569 -25q-267 0 -405 156q-136 157 -96 426l127 913h391l-127 -903q-17 -115 18 -175t117 -60q78 0 122.5 56.5t61.5 178.5l127 903h391l-129 -913q-83 -582 -598 -582zM1130 1556h-294l200 342h408zM664 1556h-295l202 342h408z" />
    <glyph glyph-name="uhungarumlaut" unicode="&#x171;" 
d="M821 1081h389l-151 -1081h-389l12 96q-49 -55 -129 -87t-168 -32q-170 0 -257 113t-62 299l96 692h391l-86 -614q-10 -73 18 -113.5t90 -40.5q66 0 108 45t54 131zM1055 1157h-289l160 313h401zM608 1157h-289l160 313h402z" />
    <glyph glyph-name="Uogonek" unicode="&#x172;" 
d="M741 -150l-30 -204q-80 -17 -131 -17q-103 0 -165.5 48.5t-62.5 129.5q0 97 99 179q-215 35 -315.5 184.5t-65.5 386.5l127 913h391l-127 -903q-17 -115 18 -175t117 -60q78 0 122.5 56.5t61.5 178.5l127 903h391l-129 -913q-64 -464 -419 -559q-148 -48 -148 -113
q0 -47 66 -47q24 0 73 12z" />
    <glyph glyph-name="uogonek" unicode="&#x173;" 
d="M766 -371q-103 0 -165 48.5t-62 129.5q0 122 133 211l10 78q-49 -55 -129 -87t-168 -32q-170 0 -257 113t-62 299l96 692h391l-86 -614q-10 -73 18 -113.5t90 -40.5q66 0 108 45t54 131l84 592h389l-151 -1081h-139q-132 -55 -132 -115q0 -47 66 -47q24 0 74 12l-29 -204
q-83 -17 -133 -17z" />
    <glyph glyph-name="Wcircumflex" unicode="&#x174;" 
d="M416 705l209 765h241l-30 -765l198 765h322l-414 -1470h-293v764l-237 -764h-318l47 1470h310zM612 1884h381l187 -342h-273l-125 121l-159 -121h-293z" />
    <glyph glyph-name="wcircumflex" unicode="&#x175;" 
d="M385 545l182 536h242l20 -536l156 536h322l-365 -1081h-293l-22 610l-211 -610h-307l-33 1081h311zM557 1470h373l166 -313h-271l-102 94l-129 -94h-289z" />
    <glyph glyph-name="Ycircumflex" unicode="&#x176;" 
d="M551 1470l123 -487l260 487h426l-549 -948l-72 -522h-401l72 522l-279 948h420zM612 1884h381l187 -342h-273l-125 121l-159 -121h-293z" />
    <glyph glyph-name="ycircumflex" unicode="&#x177;" 
d="M1292 1081l-563 -1046q-70 -132 -113 -195q-45 -66 -88 -104q-124 -109 -331 -109q-56 0 -142 11l41 294q31 -6 76 -6q54 0 85.5 18.5t51.5 61.5l21 43l-246 1032h387l123 -598l305 598h393zM559 1470h373l166 -313h-271l-102 94l-129 -94h-289z" />
    <glyph glyph-name="Ydieresis" unicode="&#x178;" 
d="M551 1470l123 -487l260 487h426l-549 -948l-72 -522h-401l72 522l-279 948h420zM711 1542h-365l47 326h363zM1163 1542h-362l45 326h364z" />
    <glyph glyph-name="Zacute" unicode="&#x179;" 
d="M551 340h604l-49 -340h-1133l41 299l723 831h-598l47 340h1119l-41 -296zM881 1542h-336l182 342h514z" />
    <glyph glyph-name="zacute" unicode="&#x17a;" 
d="M602 315h508l-45 -315h-1055l41 276l594 490h-522l45 315h1044l-38 -276zM832 1157h-314l138 313h460z" />
    <glyph glyph-name="Zdotaccent" unicode="&#x17b;" 
d="M551 340h604l-49 -340h-1133l41 299l723 831h-598l47 340h1119l-41 -296zM952 1542h-395l47 326h393z" />
    <glyph glyph-name="zdotaccent" unicode="&#x17c;" 
d="M602 315h508l-45 -315h-1055l41 276l594 490h-522l45 315h1044l-38 -276zM899 1167h-391l41 303h393z" />
    <glyph glyph-name="Zcaron" unicode="&#x17d;" 
d="M551 340h604l-49 -340h-1133l41 299l723 831h-598l47 340h1119l-41 -296zM1235 1884l-281 -342h-383l-184 342h272l125 -121l160 121h291z" />
    <glyph glyph-name="zcaron" unicode="&#x17e;" 
d="M602 315h508l-45 -315h-1055l41 276l594 490h-522l45 315h1044l-38 -276zM1145 1470l-252 -313h-375l-164 313h271l100 -94l131 94h289z" />
    <glyph glyph-name="florin" unicode="&#x192;" 
d="M424 627h-170l37 264h198l35 145q54 226 180.5 342.5t317.5 116.5q194 0 330 -111l-170 -258q-49 52 -109 52q-50 0 -88 -39t-55 -107l-35 -141h188l-36 -264h-216l-47 -193q-51 -226 -177.5 -342.5t-321.5 -116.5q-188 0 -330 107l174 260q49 -49 111 -49q50 0 86 37.5
t53 107.5z" />
    <glyph glyph-name="AEacute" unicode="&#x1fc;" 
d="M-76 0l512 1470h905l-47 -323h-266l-35 -244h199l-45 -315h-199l-37 -264h267l-43 -324h-625l39 272h-191l-94 -272h-340zM678 1200l-213 -620h127zM1010 1542h-336l182 342h514z" />
    <glyph glyph-name="aeacute" unicode="&#x1fd;" 
d="M920 401l274 -53q-47 -176 -154 -274.5t-247 -98.5q-87 0 -160.5 41.5t-110.5 110.5q-51 -72 -122.5 -111t-153.5 -39q-124 0 -199.5 79t-75.5 210q0 180 121.5 288t325.5 108h49l8 61q9 96 -53 96q-67 0 -88 -119l-287 33q37 174 142 273t257 100q156 0 218 -102
q114 102 251 102q177 0 259 -156q87 -159 53 -405l-13 -84h-481q-2 -14 -2 -60q0 -163 80 -163q75 0 109 163zM879 823q-73 0 -115 -161h172q12 77 -3 119t-54 42zM279 315q0 -79 57 -79q71 0 86 108l16 117h-22q-66 0 -101.5 -38.5t-35.5 -107.5zM832 1157h-314l138 313
h460z" />
    <glyph glyph-name="Oslashacute" unicode="&#x1fe;" 
d="M147 -61l-176 143l142 176q-64 144 -64 338q0 384 189 641q188 258 481 258q188 0 313 -98l109 135l176 -143l-143 -179q61 -137 61 -336q0 -384 -188 -643q-188 -256 -482 -256q-185 0 -311 97zM698 1165q-114 0 -190 -149q-77 -148 -86 -375l383 473q-42 51 -107 51z
M584 305q110 0 188 146q79 152 88 372l-379 -471q38 -47 103 -47zM926 1542h-336l182 342h514z" />
    <glyph glyph-name="oslashacute" unicode="&#x1ff;" 
d="M1178 598q0 -265 -170 -444t-435 -179q-167 0 -305 80l-118 -114l-152 157l119 115q-64 125 -64 270q0 268 168 445q169 178 436 178q176 0 304 -78l120 117l152 -158l-121 -117q66 -117 66 -272zM653 823q-108 0 -180 -96q-70 -94 -70 -238l328 318q-40 16 -78 16z
M578 260q106 0 178 96q71 95 71 240l-329 -320q43 -16 80 -16zM850 1157h-314l138 313h460z" />
    <glyph glyph-name="Scommaaccent" unicode="&#x218;" 
d="M575 -25q-194 0 -362 76q-171 77 -264 201l233 270q79 -102 191 -159.5t231 -57.5q94 0 149.5 38t55.5 101q0 50 -48 80t-169 56q-245 51 -354 147t-109 260q0 220 168 363q171 145 430 145q177 0 324 -64.5t233 -179.5l-219 -254q-68 82 -164.5 128t-200.5 46
q-84 0 -134 -33t-50 -89q0 -51 57 -81.5t213 -62.5q416 -89 416 -393q0 -236 -174 -385q-175 -152 -453 -152zM465 -260h-127l27 201h389l-17 -115q-41 -300 -428 -285l19 133q125 -3 137 66z" />
    <glyph glyph-name="scommaaccent" unicode="&#x219;" 
d="M559 -25q-157 0 -315 50t-240 120l166 256q84 -67 201 -107t223 -40q63 0 99 19t36 51q0 30 -37 47.5t-129 31.5q-226 37 -325 110t-99 202q0 173 146 282q148 109 385 109q153 0 291.5 -47t212.5 -123l-191 -225q-57 56 -148.5 90.5t-183.5 34.5q-57 0 -90 -17.5
t-33 -46.5t34.5 -45t137.5 -35q211 -32 312.5 -109t101.5 -204q0 -182 -153 -293q-150 -111 -402 -111zM434 -260h-127l27 201h389l-16 -115q-41 -300 -428 -285l18 133q125 -3 137 66z" />
    <glyph glyph-name="uni021A" unicode="&#x21a;" 
d="M1323 1470l-49 -340h-377l-158 -1130h-401l158 1130h-377l47 340h1157zM434 -260h-127l27 201h389l-16 -115q-41 -300 -428 -285l18 133q125 -3 137 66z" />
    <glyph glyph-name="uni021B" unicode="&#x21b;" 
d="M756 -20q-248 0 -373.5 104.5t-99.5 290.5l55 393h-264l45 313h264l45 326h387l-45 -326h471l-43 -313h-471l-45 -311q-10 -78 34.5 -112t157.5 -34q137 0 265 35l-47 -319q-152 -47 -336 -47zM553 -260h-127l27 201h389l-17 -115q-41 -300 -428 -285l19 133
q125 -3 137 66z" />
    <glyph glyph-name="uni0237" unicode="&#x237;" 
d="M334 -45q110 0 159 38.5t66 135.5l88 637h-432l45 315h821l-141 -1005q-32 -223 -177.5 -338t-395.5 -115q-84 0 -175.5 11.5t-150.5 29.5l45 316q183 -25 248 -25z" />
    <glyph glyph-name="circumflex" unicode="&#x2c6;" 
d="M559 1470h373l166 -313h-271l-102 94l-129 -94h-289z" />
    <glyph glyph-name="caron" unicode="&#x2c7;" 
d="M1141 1470l-252 -313h-375l-164 313h271l100 -94l131 94h289z" />
    <glyph glyph-name="breve" unicode="&#x2d8;" 
d="M741 1384q41 0 70 23.5t37 62.5h262q-20 -154 -117.5 -235.5t-261.5 -81.5q-170 0 -261.5 84t-84.5 233h260q2 -38 28.5 -62t67.5 -24z" />
    <glyph glyph-name="dotaccent" unicode="&#x2d9;" 
d="M899 1167h-391l41 303h393z" />
    <glyph glyph-name="ring" unicode="&#x2da;" 
d="M492 1366q0 104 74 175t184 71q98 0 161.5 -62.5t63.5 -156.5q0 -104 -74 -175t-184 -71q-99 0 -162 62t-63 157zM657 1372q0 -31 20.5 -51.5t51.5 -20.5q32 0 55 24.5t23 59.5q0 32 -19.5 52t-50.5 20q-35 0 -57.5 -24t-22.5 -60z" />
    <glyph glyph-name="ogonek" unicode="&#x2db;" 
d="M539 -371q-103 0 -165.5 48.5t-62.5 129.5q0 92 84 170t240 132l63 -107q-137 -53 -137 -117q0 -47 66 -47q23 0 73 12l-28 -204q-83 -17 -133 -17z" />
    <glyph glyph-name="tilde" unicode="&#x2dc;" 
d="M635 1245q-57 0 -84 -88h-234q20 152 95.5 244t179.5 92q60 0 145 -53q49 -35 76 -35q52 0 86 88h234q-25 -156 -98 -246t-177 -90q-36 0 -67 11.5t-80 43.5q-53 33 -76 33z" />
    <glyph glyph-name="hungarumlaut" unicode="&#x2dd;" 
d="M946 1157h-289l160 313h402zM500 1157h-289l160 313h401z" />
    <glyph glyph-name="gravecmb" unicode="&#x300;" horiz-adv-x="0" 
d="M184 1470l72 -313h-295l-215 313h438z" />
    <glyph glyph-name="acutecmb" unicode="&#x301;" horiz-adv-x="0" 
d="M14 1157h-313l137 313h461z" />
    <glyph glyph-name="circumflexcmb" unicode="&#x302;" horiz-adv-x="0" 
d="M-143 1470h372l166 -313h-270l-102 94l-129 -94h-289z" />
    <glyph glyph-name="tildecmb" unicode="&#x303;" horiz-adv-x="0" 
d="M-90 1245q-57 0 -84 -88h-234q20 152 95.5 244t179.5 92q60 0 145 -53q49 -35 76 -35q52 0 86 88h234q-25 -156 -98 -246t-177 -90q-36 0 -67 11.5t-80 43.5q-53 33 -76 33z" />
    <glyph glyph-name="macroncmb" unicode="&#x304;" horiz-adv-x="0" 
d="M371 1454l-39 -278h-703l39 278h703z" />
    <glyph glyph-name="brevecmb" unicode="&#x306;" horiz-adv-x="0" 
d="M-6 1384q41 0 69.5 23.5t36.5 62.5h262q-20 -154 -117 -235.5t-261 -81.5q-170 0 -261.5 84t-84.5 233h260q2 -38 28.5 -62t67.5 -24z" />
    <glyph glyph-name="dotaccentcmb" unicode="&#x307;" horiz-adv-x="0" 
d="M174 1167h-391l41 303h393z" />
    <glyph glyph-name="dieresiscmb" unicode="&#x308;" horiz-adv-x="0" 
d="M-63 1167h-363l41 303h365zM383 1167h-363l41 303h365z" />
    <glyph glyph-name="ringcmb" unicode="&#x30a;" horiz-adv-x="0" 
d="M-242 1366q0 104 74 175t184 71q98 0 162 -62.5t64 -156.5q0 -104 -74 -175t-184 -71q-99 0 -162.5 62.5t-63.5 156.5zM-76 1372q0 -31 20.5 -51.5t51.5 -20.5q32 0 55 24.5t23 59.5q0 32 -19.5 52t-50.5 20q-35 0 -57.5 -24t-22.5 -60z" />
    <glyph glyph-name="hungarumlautcmb" unicode="&#x30b;" horiz-adv-x="0" 
d="M231 1157h-288l159 313h402zM-215 1157h-289l160 313h401z" />
    <glyph glyph-name="caroncmb" unicode="&#x30c;" horiz-adv-x="0" 
d="M395 1470l-252 -313h-374l-164 313h270l100 -94l131 94h289z" />
    <glyph glyph-name="commaturncmb" unicode="&#x312;" horiz-adv-x="0" 
d="M66 1356h129l-29 -199h-387l14 113q40 299 430 284l-18 -133q-125 3 -139 -65z" />
    <glyph glyph-name="commaaccentcmb" unicode="&#x326;" horiz-adv-x="0" 
d="M-66 -260h-127l27 201h389l-16 -115q-41 -300 -428 -285l18 133q125 -3 137 66z" />
    <glyph glyph-name="cedillacmb" unicode="&#x327;" horiz-adv-x="0" 
d="M258 -193q0 -82 -73 -134t-191 -52q-152 0 -250 82l111 139q48 -48 110 -51q62 0 62 39q0 44 -119 53l65 142h160l-29 -66q72 -11 113 -51t41 -101z" />
    <glyph glyph-name="ogonekcmb" unicode="&#x328;" horiz-adv-x="0" 
d="M33 -371q-103 0 -165.5 48.5t-62.5 129.5q0 92 84 170t240 132l64 -107q-138 -54 -138 -117q0 -47 66 -47q25 0 74 12l-29 -204q-83 -17 -133 -17z" />
    <glyph glyph-name="baht" unicode="&#xe3f;" 
d="M432 0h-438l207 1470h436l29 199h208l-28 -201q185 -17 286 -110t101 -246q0 -124 -67.5 -222.5t-176.5 -133.5q91 -44 140 -126.5t49 -191.5q0 -192 -146 -317q-145 -121 -391 -121l-29 -203h-209zM596 1165h-104l-41 -293h102zM911 1036q0 110 -108 125l-39 -287
q67 12 107 56t40 106zM414 616l-43 -309h104l43 309h-104zM866 477q0 60 -36.5 97.5t-102.5 41.5l-43 -309q81 1 131.5 49t50.5 121z" />
    <glyph glyph-name="Wgrave" unicode="&#x1e80;" 
d="M416 705l209 765h241l-30 -765l198 765h322l-414 -1470h-293v764l-237 -764h-318l47 1470h310zM807 1884l104 -342h-317l-279 342h492z" />
    <glyph glyph-name="wgrave" unicode="&#x1e81;" 
d="M385 545l182 536h242l20 -536l156 536h322l-365 -1081h-293l-22 610l-211 -610h-307l-33 1081h311zM742 1470l71 -313h-294l-215 313h438z" />
    <glyph glyph-name="Wacute" unicode="&#x1e82;" 
d="M416 705l209 765h241l-30 -765l198 765h322l-414 -1470h-293v764l-237 -764h-318l47 1470h310zM930 1542h-336l182 342h514z" />
    <glyph glyph-name="wacute" unicode="&#x1e83;" 
d="M385 545l182 536h242l20 -536l156 536h322l-365 -1081h-293l-22 610l-211 -610h-307l-33 1081h311zM875 1157h-314l138 313h460z" />
    <glyph glyph-name="Wdieresis" unicode="&#x1e84;" 
d="M416 705l209 765h241l-30 -765l198 765h322l-414 -1470h-293v764l-237 -764h-318l47 1470h310zM711 1542h-365l47 326h363zM1163 1542h-362l45 326h364z" />
    <glyph glyph-name="wdieresis" unicode="&#x1e85;" 
d="M385 545l182 536h242l20 -536l156 536h322l-365 -1081h-293l-22 610l-211 -610h-307l-33 1081h311zM662 1167h-363l41 303h365zM1108 1167h-363l41 303h365z" />
    <glyph glyph-name="Germandbls" unicode="&#x1e9e;" 
d="M1196 500q0 -224 -145 -375q-144 -150 -367 -150q-102 0 -205 39l47 324q67 -39 133 -39q73 0 121.5 49t48.5 123t-50 116t-140 42h-59l34 245l217 269h-278l-160 -1143h-389l207 1470h1079l-41 -280l-262 -324q209 -113 209 -366z" />
    <glyph glyph-name="Ygrave" unicode="&#x1ef2;" 
d="M551 1470l123 -487l260 487h426l-549 -948l-72 -522h-401l72 522l-279 948h420zM840 1884l104 -342h-317l-279 342h492z" />
    <glyph glyph-name="ygrave" unicode="&#x1ef3;" 
d="M1292 1081l-563 -1046q-70 -132 -113 -195q-45 -66 -88 -104q-124 -109 -331 -109q-56 0 -142 11l41 294q31 -6 76 -6q54 0 85.5 18.5t51.5 61.5l21 43l-246 1032h387l123 -598l305 598h393zM766 1470l72 -313h-295l-215 313h438z" />
    <glyph glyph-name="endash" unicode="&#x2013;" 
d="M1038 457h-872l45 319h874z" />
    <glyph glyph-name="emdash" unicode="&#x2014;" 
d="M1190 457h-1174l45 319h1174z" />
    <glyph glyph-name="quoteleft" unicode="&#x2018;" 
d="M756 1104h182l-66 -469h-489l59 416q31 219 163.5 320t385.5 99l-30 -215q-188 -3 -203 -141z" />
    <glyph glyph-name="quoteright" unicode="&#x2019;" 
d="M618 1001h-182l66 469h489l-59 -415q-31 -219 -163.5 -320.5t-385.5 -99.5l31 215q187 3 202 141z" />
    <glyph glyph-name="quotesinglbase" unicode="&#x201a;" 
d="M477 2h-182l65 469h490l-59 -416q-31 -219 -163.5 -320.5t-385.5 -99.5l30 215q188 3 203 142z" />
    <glyph glyph-name="quotedblleft" unicode="&#x201c;" 
d="M459 1104h182l-66 -469h-489l59 416q31 219 163.5 320t385.5 99l-30 -215q-188 -3 -203 -141zM1053 1104h182l-66 -469h-489l59 416q31 219 163.5 320t385.5 99l-31 -215q-187 -3 -202 -141z" />
    <glyph glyph-name="quotedblright" unicode="&#x201d;" 
d="M918 1001h-183l66 469h489l-59 -415q-31 -219 -163.5 -320.5t-385.5 -99.5l31 215q187 3 202 141zM324 1001h-183l66 469h489l-59 -415q-31 -219 -163.5 -320.5t-385.5 -99.5l31 215q188 3 203 141z" />
    <glyph glyph-name="quotedblbase" unicode="&#x201e;" 
d="M774 0h-182l65 469h490l-60 -416q-31 -219 -163 -320.5t-385 -99.5l30 215q188 3 203 142zM180 0h-182l65 469h490l-59 -416q-31 -219 -163.5 -320.5t-385.5 -99.5l30 215q188 3 203 142z" />
    <glyph glyph-name="dagger" unicode="&#x2020;" 
d="M750 559h-265l62 434h-264l36 267h267l35 251h262l-35 -251h262l-35 -267h-264z" />
    <glyph glyph-name="daggerdbl" unicode="&#x2021;" 
d="M758 559h-279l23 162h-258l37 248h256l18 135h-256l35 248h256l22 159h279l-23 -159h256l-34 -248h-256l-19 -135h256l-35 -248h-256z" />
    <glyph glyph-name="bullet" unicode="&#x2022;" 
d="M1030 659q0 -182 -127 -315q-125 -131 -305 -131q-164 0 -270 100q-109 103 -109 260q0 183 127 316t309 133q161 0 269 -102q106 -100 106 -261z" />
    <glyph glyph-name="ellipsis" unicode="&#x2026;" 
d="M309 0h-356l51 367h356zM717 0h-355l52 367h354zM1126 0h-356l51 367h357z" />
    <glyph glyph-name="guilsinglleft" unicode="&#x2039;" 
d="M797 68l-459 305l47 319l543 305l-49 -362l-199 -109l168 -108z" />
    <glyph glyph-name="guilsinglright" unicode="&#x203a;" 
d="M432 997l459 -305l-47 -319l-543 -305l49 362l199 109l-168 108z" />
    <glyph glyph-name="fraction" unicode="&#x2044;" horiz-adv-x="0" 
d="M-692 0l1157 1470h280l-1153 -1470h-284z" />
    <glyph glyph-name="uni2070" unicode="&#x2070;" 
d="M356 983q0 216 103 358q105 144 268 144q135 0 212 -91t77 -249q0 -219 -105 -363q-102 -141 -266 -141q-135 0 -212 91t-77 251zM614 963q0 -97 48 -97q41 0 68.5 86t27.5 211q0 97 -45 97q-43 0 -71 -84.5t-28 -212.5z" />
    <glyph glyph-name="uni2074" unicode="&#x2074;" 
d="M907 819l-24 -164h-236l25 164h-350l26 185l324 466h327l-63 -450h80l-29 -201h-80zM729 1270l-162 -250h127z" />
    <glyph glyph-name="uni2075" unicode="&#x2075;" 
d="M690 1008q-41 0 -61 -33l-240 29l105 466h528l-33 -221h-323l-17 -63q41 24 113 24q106 0 172.5 -65t66.5 -170q0 -138 -98 -236t-246 -98q-142 0 -229.5 73t-91.5 197l264 27q0 -32 21.5 -54t52.5 -22q32 0 54 23t22 55q0 31 -17 49.5t-43 18.5z" />
    <glyph glyph-name="uni2076" unicode="&#x2076;" 
d="M772 1485q220 0 279 -187l-211 -88q-22 66 -92 66q-47 0 -81 -33t-40 -84q57 35 129 35q104 0 169.5 -67t65.5 -173q0 -135 -94 -223q-93 -90 -240 -90q-146 0 -225.5 90.5t-79.5 255.5q0 214 119 354q120 144 301 144zM596 924q0 -74 72 -74q37 0 58.5 23.5t21.5 64.5
q0 32 -19 52t-51 20q-37 0 -59.5 -24t-22.5 -62z" />
    <glyph glyph-name="uni2077" unicode="&#x2077;" 
d="M760 1249h-154l-16 -110h-223l47 331h659l-31 -225q-136 -121 -204 -254q-67 -137 -93 -336h-270q29 204 97.5 347t187.5 247z" />
    <glyph glyph-name="uni2078" unicode="&#x2078;" 
d="M418 1229q0 109 88 182q89 74 221 74q125 0 204 -64t79 -166q0 -122 -117 -194q44 -23 69 -67t25 -99q0 -112 -93 -183t-239 -71q-137 0 -226 66t-89 170q0 67 38.5 122t106.5 86q-67 48 -67 144zM647 1229q0 -25 17.5 -41.5t46.5 -16.5t48 18.5t19 45.5q0 25 -16 40
t-45 15q-30 0 -50 -18t-20 -43zM594 903q0 -27 17 -43t46 -16q35 0 57.5 21t22.5 53q0 27 -16 43t-45 16q-35 0 -58.5 -21.5t-23.5 -52.5z" />
    <glyph glyph-name="uni2079" unicode="&#x2079;" 
d="M602 641q-106 0 -177.5 48t-100.5 140l211 86q22 -65 92 -65q47 0 81 33t40 84q-57 -35 -130 -35q-104 0 -169.5 66.5t-65.5 172.5q0 135 92 224q96 90 242 90t225.5 -90.5t79.5 -255.5q0 -214 -119 -357q-120 -141 -301 -141zM778 1202q0 74 -71 74q-37 0 -58.5 -23.5
t-21.5 -64.5q0 -33 18.5 -52.5t50.5 -19.5q37 0 59.5 24t22.5 62z" />
    <glyph glyph-name="uni2080" unicode="&#x2080;" 
d="M229 82q0 216 103 358q105 144 268 144q135 0 212 -91t77 -249q0 -219 -105 -363q-102 -141 -266 -141q-135 0 -212 91t-77 251zM487 61q0 -96 48 -96q41 0 68.5 86t27.5 211q0 96 -45 96q-43 0 -71 -84.5t-28 -212.5z" />
    <glyph glyph-name="uni2081" unicode="&#x2081;" 
d="M584 569h196l-80 -592h146l-33 -223h-590l33 223h182l37 271h-170l27 196l74 5q64 5 106 33t72 87z" />
    <glyph glyph-name="uni2082" unicode="&#x2082;" 
d="M197 -246l24 176l264 197q85 62 118.5 99.5t33.5 72.5q0 26 -14.5 41.5t-40.5 15.5q-74 0 -74 -110q0 -3 4 -39h-254q-1 16 -2.5 29t-1.5 18q0 149 97.5 239.5t260.5 90.5q137 0 215 -64.5t78 -179.5q0 -159 -145 -266l-125 -97h215l-33 -223h-620z" />
    <glyph glyph-name="uni2083" unicode="&#x2083;" 
d="M858 4q0 -117 -88.5 -190.5t-230.5 -73.5q-139 0 -230 72.5t-102 191.5l266 31q9 -74 80 -74q25 0 42 16t17 39q0 52 -67 52h-74l29 190h82q29 0 45 15t16 42q0 20 -14 32.5t-37 12.5q-31 0 -52 -19t-26 -50l-244 20q25 125 118 199t228 74q127 0 207 -64t80 -164
q0 -65 -35.5 -120t-93.5 -82q84 -47 84 -150z" />
    <glyph glyph-name="uni2084" unicode="&#x2084;" 
d="M780 -82l-24 -164h-236l25 164h-350l26 184l324 467h327l-63 -450h80l-29 -201h-80zM602 369l-162 -250h127z" />
    <glyph glyph-name="uni2085" unicode="&#x2085;" 
d="M563 106q-42 0 -61 -32l-240 28l105 467h528l-33 -221h-323l-17 -63q40 24 113 24q106 0 172.5 -65t66.5 -170q0 -138 -98 -236t-246 -98q-142 0 -229.5 73t-91.5 197l264 27q0 -32 21.5 -54t52.5 -22q32 0 54 23t22 55q0 30 -16.5 48.5t-43.5 18.5z" />
    <glyph glyph-name="uni2086" unicode="&#x2086;" 
d="M645 584q220 0 279 -187l-211 -88q-22 66 -92 66q-47 0 -81 -33t-40 -84q57 35 129 35q104 0 169.5 -67t65.5 -173q0 -135 -94 -223q-93 -90 -240 -90q-146 0 -225.5 90.5t-79.5 255.5q0 214 119 354q120 144 301 144zM469 23q0 -74 72 -74q37 0 58.5 23.5t21.5 64.5
q0 32 -19 52t-51 20q-37 0 -59.5 -24t-22.5 -62z" />
    <glyph glyph-name="uni2087" unicode="&#x2087;" 
d="M633 348h-154l-16 -110h-223l47 331h659l-31 -225q-136 -121 -204 -254q-67 -137 -93 -336h-270q29 204 97.5 347t187.5 247z" />
    <glyph glyph-name="uni2088" unicode="&#x2088;" 
d="M291 328q0 109 88 182q89 74 221 74q125 0 204 -64t79 -166q0 -122 -117 -194q44 -23 69 -67t25 -99q0 -112 -93 -183t-239 -71q-137 0 -226 65.5t-89 169.5q0 67 38.5 122.5t106.5 86.5q-67 48 -67 144zM520 328q0 -25 17.5 -41.5t46.5 -16.5t48 18.5t19 45.5
q0 25 -16 40t-45 15q-30 0 -50 -18t-20 -43zM467 2q0 -27 17 -43t46 -16q35 0 57.5 20.5t22.5 52.5q0 27 -16 43.5t-45 16.5q-35 0 -58.5 -21.5t-23.5 -52.5z" />
    <glyph glyph-name="uni2089" unicode="&#x2089;" 
d="M475 -260q-106 0 -177.5 48t-100.5 140l211 86q22 -65 92 -65q47 0 81 33t40 84q-57 -35 -129 -35q-104 0 -170 66.5t-66 172.5q0 135 92 224q96 90 242 90t225.5 -90.5t79.5 -255.5q0 -214 -119 -357q-120 -141 -301 -141zM651 301q0 74 -71 74q-37 0 -58.5 -23.5
t-21.5 -64.5q0 -33 18.5 -52.5t50.5 -19.5q37 0 59.5 24t22.5 62z" />
    <glyph glyph-name="franc" unicode="&#x20a3;" 
d="M143 217h-149l39 275h149l137 978h969l-47 -340h-575l-29 -202h473l-47 -332h-473l-15 -104h228l-39 -275h-225l-31 -217h-395z" />
    <glyph glyph-name="naira" unicode="&#x20a6;" 
d="M129 463h-117l35 233h115l10 82h-115l33 236h117l63 456h334l172 -817l115 817h330l-64 -456h115l-33 -236h-117l-10 -82h115l-33 -233h-115l-65 -463h-299l-199 897l-125 -897h-328z" />
    <glyph glyph-name="peseta" unicode="&#x20a7;" 
d="M543 328h-60l-47 -328h-373l107 764h-115l39 270h115l61 436h400q217 0 345.5 -114.5t145.5 -321.5h119l-37 -270h-110q-60 -205 -215.5 -320.5t-374.5 -115.5zM664 1186h-60l-20 -152h235q-7 75 -47 113.5t-108 38.5zM545 764l-21 -154h68q60 0 108.5 40t79.5 114h-235z
" />
    <glyph glyph-name="won" unicode="&#x20a9;" 
d="M160 463h-166l33 233h139v82h-127l31 236h102l8 456h281l-35 -886l190 641h189l10 -641l215 886h281l-119 -456h98l-30 -236h-132l-20 -82h139l-33 -233h-167l-121 -463h-250l-10 821l-242 -821h-272z" />
    <glyph glyph-name="dong" unicode="&#x20ab;" 
d="M393 92q-155 0 -246 111q-90 113 -90 286q0 216 127 367q128 152 318 152q75 0 139 -28t102 -77l25 172h-336l33 240h336l22 155h340l-22 -155h164l-35 -240h-162l-137 -964h-340l12 86q-44 -49 -110 -77t-140 -28zM569 748q-79 0 -129.5 -67.5t-50.5 -170.5
q0 -78 33.5 -120t95.5 -42q79 0 130.5 67.5t51.5 170.5q0 78 -34 120t-97 42zM920 -254h-895l34 254h897z" />
    <glyph glyph-name="Euro" unicode="&#x20ac;" 
d="M168 477h-137l30 219h107l10 82h-104l30 221h127q82 232 243 364t364 132q200 0 320 -119.5t140 -337.5l-337 -98q-15 225 -156 225q-62 0 -118 -43.5t-97 -122.5h278l-71 -221h-275q-4 -21 -6 -43q-1 -9 -2 -17.5t-1.5 -13.5t-0.5 -8h256l-74 -219h-172
q34 -172 170 -172q144 0 203 221l324 -114q-75 -215 -214.5 -326t-334.5 -111q-222 0 -349.5 128t-152.5 374z" />
    <glyph glyph-name="peso" unicode="&#x20b1;" 
d="M598 422h-88l-59 -422h-388l93 662h-115l33 233h114l13 82h-115l33 235h114l37 258h430q160 0 272 -66.5t163 -191.5h168l-33 -235h-99q-1 -18 -8 -82h97l-35 -233h-146q-73 -117 -197 -178.5t-284 -61.5zM614 1171l-61 -450h65q90 0 147.5 78t57.5 196q0 84 -37.5 130
t-103.5 46h-68z" />
    <glyph glyph-name="uni20B9" unicode="&#x20b9;" 
d="M657 829h-546l36 263h545q-47 116 -217 116h-311l37 262h1087l-37 -262h-284q41 -52 63 -116h203l-35 -263h-182q-41 -116 -130.5 -202.5t-213.5 -130.5l321 -496h-444l-287 451h-205l37 262h316q169 0 247 116z" />
    <glyph glyph-name="uni20BA" unicode="&#x20ba;" 
d="M500 336h51q131 0 209 89t98 265h356q-38 -340 -204 -515t-453 -175h-491l61 440l-121 -53l37 260l121 55l12 84l-121 -55l39 260l119 53l59 426h387l-36 -253l251 112l-36 -260l-250 -113l-13 -84l250 113l-39 -260l-247 -113z" />
    <glyph glyph-name="uni20BD" unicode="&#x20bd;" 
d="M111 221h-115l37 266h114l13 82h-117l37 267h117l90 634h469q227 0 356 -111t129 -304q0 -218 -156 -353q-157 -133 -411 -133h-127l-12 -82h221l-39 -266h-219l-31 -221h-387zM633 1196l-49 -360h106q85 0 139 59.5t54 148.5q0 72 -40.5 112t-109.5 40h-100z" />
    <glyph glyph-name="trademark" unicode="&#x2122;" 
d="M489 1278l-67 -483h-223l67 483h-135l29 192h489l-26 -192h-134zM1114 1225l-145 -430h-103l-24 430l-62 -430h-184l94 675h250l21 -348l114 348h256l-94 -675h-182z" />
    <glyph glyph-name="uni2153" unicode="&#x2153;" horiz-adv-x="2457" 
d="M711 1470h196l-80 -591h146l-33 -224h-590l33 224h182l37 270h-170l27 197l73 4q64 5 106.5 33t72.5 87zM537 0l1157 1470h280l-1153 -1470h-284zM2122 250q0 -117 -89 -190.5t-231 -73.5q-139 0 -230 72.5t-102 191.5l267 31q9 -74 80 -74q25 0 42 16t17 39q0 51 -68 51
h-73l28 191h82q29 0 45.5 15.5t16.5 41.5q0 20 -14.5 32.5t-37.5 12.5q-31 0 -51.5 -19t-25.5 -50l-244 20q25 125 118 198.5t228 73.5q127 0 207 -63.5t80 -163.5q0 -65 -35.5 -120.5t-93.5 -82.5q84 -47 84 -149z" />
    <glyph glyph-name="uni2154" unicode="&#x2154;" horiz-adv-x="2457" 
d="M324 655l24 176l264 197q85 62 118.5 99.5t33.5 72.5q0 26 -14.5 41.5t-40.5 15.5q-74 0 -74 -110q0 -3 4 -39h-254q-1 16 -2.5 29t-1.5 18q0 149 97.5 239.5t260.5 90.5q137 0 215 -64.5t78 -179.5q0 -159 -145 -266l-125 -96h215l-33 -224h-620zM537 0l1157 1470h280
l-1153 -1470h-284zM2122 250q0 -117 -89 -190.5t-231 -73.5q-139 0 -230 72.5t-102 191.5l267 31q9 -74 80 -74q25 0 42 16t17 39q0 51 -68 51h-73l28 191h82q29 0 45.5 15.5t16.5 41.5q0 20 -14.5 32.5t-37.5 12.5q-31 0 -51.5 -19t-25.5 -50l-244 20q25 125 118 198.5
t228 73.5q127 0 207 -63.5t80 -163.5q0 -65 -35.5 -120.5t-93.5 -82.5q84 -47 84 -149z" />
    <glyph glyph-name="uni215B" unicode="&#x215b;" horiz-adv-x="2457" 
d="M711 1470h196l-80 -591h146l-33 -224h-590l33 224h182l37 270h-170l27 197l73 4q64 5 106.5 33t72.5 87zM537 0l1157 1470h280l-1153 -1470h-284zM1554 573q0 110 88 183t222 73q125 0 203.5 -63.5t78.5 -165.5q0 -123 -116 -194q44 -23 69 -67t25 -99q0 -112 -93 -183
t-239 -71q-137 0 -226 65.5t-89 169.5q0 67 38.5 122.5t106.5 86.5q-68 49 -68 143zM1784 573q0 -25 17 -41t46 -16t48.5 18.5t19.5 45.5q0 25 -16.5 40t-45.5 15q-30 0 -49.5 -18.5t-19.5 -43.5zM1731 248q0 -27 17 -43.5t46 -16.5q35 0 57.5 21t22.5 53q0 27 -16.5 43.5
t-45.5 16.5q-35 0 -58 -21.5t-23 -52.5z" />
    <glyph glyph-name="uni215C" unicode="&#x215c;" horiz-adv-x="2457" 
d="M985 905q0 -117 -88.5 -190.5t-230.5 -73.5q-139 0 -230 72.5t-102 191.5l266 31q9 -74 80 -74q25 0 42 16.5t17 39.5q0 51 -67 51h-74l29 190h82q29 0 45 15.5t16 42.5q0 20 -14 32.5t-37 12.5q-31 0 -52 -19.5t-26 -50.5l-244 20q25 125 118 199t228 74q127 0 207 -64
t80 -164q0 -65 -35.5 -120t-93.5 -82q84 -47 84 -150zM537 0l1157 1470h280l-1153 -1470h-284zM1554 573q0 110 88 183t222 73q125 0 203.5 -63.5t78.5 -165.5q0 -123 -116 -194q44 -23 69 -67t25 -99q0 -112 -93 -183t-239 -71q-137 0 -226 65.5t-89 169.5q0 67 38.5 122.5
t106.5 86.5q-68 49 -68 143zM1784 573q0 -25 17 -41t46 -16t48.5 18.5t19.5 45.5q0 25 -16.5 40t-45.5 15q-30 0 -49.5 -18.5t-19.5 -43.5zM1731 248q0 -27 17 -43.5t46 -16.5q35 0 57.5 21t22.5 53q0 27 -16.5 43.5t-45.5 16.5q-35 0 -58 -21.5t-23 -52.5z" />
    <glyph glyph-name="uni215D" unicode="&#x215d;" horiz-adv-x="2457" 
d="M690 1008q-41 0 -61 -33l-240 29l105 466h528l-33 -221h-323l-17 -63q41 24 113 24q106 0 172.5 -65t66.5 -170q0 -138 -98 -236t-246 -98q-142 0 -229.5 73t-91.5 197l264 27q0 -32 21.5 -54t52.5 -22q32 0 54 23t22 55q0 31 -17 49.5t-43 18.5zM537 0l1157 1470h280
l-1153 -1470h-284zM1554 573q0 110 88 183t222 73q125 0 203.5 -63.5t78.5 -165.5q0 -123 -116 -194q44 -23 69 -67t25 -99q0 -112 -93 -183t-239 -71q-137 0 -226 65.5t-89 169.5q0 67 38.5 122.5t106.5 86.5q-68 49 -68 143zM1784 573q0 -25 17 -41t46 -16t48.5 18.5
t19.5 45.5q0 25 -16.5 40t-45.5 15q-30 0 -49.5 -18.5t-19.5 -43.5zM1731 248q0 -27 17 -43.5t46 -16.5q35 0 57.5 21t22.5 53q0 27 -16.5 43.5t-45.5 16.5q-35 0 -58 -21.5t-23 -52.5z" />
    <glyph glyph-name="uni215E" unicode="&#x215e;" horiz-adv-x="2457" 
d="M772 1249h-154l-16 -110h-223l47 331h659l-30 -225q-138 -123 -205 -254q-65 -134 -92 -336h-271q29 204 97.5 347t187.5 247zM537 0l1157 1470h280l-1153 -1470h-284zM1554 573q0 110 88 183t222 73q125 0 203.5 -63.5t78.5 -165.5q0 -123 -116 -194q44 -23 69 -67
t25 -99q0 -112 -93 -183t-239 -71q-137 0 -226 65.5t-89 169.5q0 67 38.5 122.5t106.5 86.5q-68 49 -68 143zM1784 573q0 -25 17 -41t46 -16t48.5 18.5t19.5 45.5q0 25 -16.5 40t-45.5 15q-30 0 -49.5 -18.5t-19.5 -43.5zM1731 248q0 -27 17 -43.5t46 -16.5q35 0 57.5 21
t22.5 53q0 27 -16.5 43.5t-45.5 16.5q-35 0 -58 -21.5t-23 -52.5z" />
    <glyph glyph-name="arrowleft" unicode="&#x2190;" 
d="M578 588l239 -256l-223 -205l-557 614l557 615l223 -205l-239 -256h651v-307h-651z" />
    <glyph glyph-name="arrowup" unicode="&#x2191;" 
d="M676 954v-954h-307v956l-232 -215l-207 222l592 532l590 -532l-205 -224z" />
    <glyph glyph-name="arrowright" unicode="&#x2192;" 
d="M57 588v307h652l-240 256l223 205l557 -615l-557 -614l-223 205l240 256h-652z" />
    <glyph glyph-name="arrowdown" unicode="&#x2193;" 
d="M995 731l205 -223l-590 -533l-592 533l207 221l232 -215v956h307v-954z" />
    <glyph glyph-name="minus" unicode="&#x2212;" horiz-adv-x="1226" 
d="M1174 565h-1113l43 295h1110z" />
    <glyph glyph-name="commaaccent" unicode="&#xf6c3;" 
d="M434 -260h-127l27 201h389l-16 -115q-41 -300 -428 -285l18 133q125 -3 137 66z" />
    <glyph glyph-name="a.1" 
d="M1047 0h-363q-1 11 2 80q-114 -100 -303 -100q-155 0 -251.5 84t-96.5 219q0 161 132.5 261t375.5 120l200 20l5 31q6 47 -22 70.5t-91 23.5q-113 0 -133 -98h-373q31 189 171.5 292t367.5 103q234 0 360 -105t102 -280l-61 -442q-22 -154 -22 -279zM528 254
q74 0 120.5 36.5t53.5 102.5l11 60l-164 -19q-133 -15 -133 -102q0 -37 29 -57.5t83 -20.5z" />
    <glyph glyph-name="aogonek.1" 
d="M858 -371q-103 0 -165 48.5t-62 129.5q0 107 108 193h-55q-1 11 2 80q-114 -100 -303 -100q-155 0 -251.5 84t-96.5 219q0 161 132.5 261t375.5 120l200 20l5 31q6 47 -22 70.5t-91 23.5q-113 0 -133 -98h-373q31 189 171.5 292t367.5 103q234 0 360 -105t102 -280
l-61 -442q-22 -154 -22 -279q-74 -17 -120 -49.5t-46 -65.5q0 -47 65 -47q24 0 74 12l-29 -204q-83 -17 -133 -17zM528 254q74 0 120.5 36.5t53.5 102.5l11 60l-164 -19q-133 -15 -133 -102q0 -37 29 -57.5t83 -20.5z" />
    <glyph glyph-name="aacute.1" 
d="M1047 0h-363q-1 11 2 80q-114 -100 -303 -100q-155 0 -251.5 84t-96.5 219q0 161 132.5 261t375.5 120l200 20l5 31q6 47 -22 70.5t-91 23.5q-113 0 -133 -98h-373q31 189 171.5 292t367.5 103q234 0 360 -105t102 -280l-61 -442q-22 -154 -22 -279zM528 254
q74 0 120.5 36.5t53.5 102.5l11 60l-164 -19q-133 -15 -133 -102q0 -37 29 -57.5t83 -20.5zM850 1157h-313l137 313h461z" />
    <glyph glyph-name="adieresis.1" 
d="M1047 0h-363q-1 11 2 80q-114 -100 -303 -100q-155 0 -251.5 84t-96.5 219q0 161 132.5 261t375.5 120l200 20l5 31q6 47 -22 70.5t-91 23.5q-113 0 -133 -98h-373q31 189 171.5 292t367.5 103q234 0 360 -105t102 -280l-61 -442q-22 -154 -22 -279zM528 254
q74 0 120.5 36.5t53.5 102.5l11 60l-164 -19q-133 -15 -133 -102q0 -37 29 -57.5t83 -20.5zM662 1167h-363l41 303h365zM1108 1167h-363l41 303h365z" />
    <glyph glyph-name="acircumflex.1" 
d="M1047 0h-363q-1 11 2 80q-114 -100 -303 -100q-155 0 -251.5 84t-96.5 219q0 161 132.5 261t375.5 120l200 20l5 31q6 47 -22 70.5t-91 23.5q-113 0 -133 -98h-373q31 189 171.5 292t367.5 103q234 0 360 -105t102 -280l-61 -442q-22 -154 -22 -279zM528 254
q74 0 120.5 36.5t53.5 102.5l11 60l-164 -19q-133 -15 -133 -102q0 -37 29 -57.5t83 -20.5zM555 1470h373l166 -313h-271l-102 94l-129 -94h-289z" />
    <glyph glyph-name="aring.1" 
d="M1047 0h-363q-1 11 2 80q-114 -100 -303 -100q-155 0 -251.5 84t-96.5 219q0 161 132.5 261t375.5 120l200 20l5 31q6 47 -22 70.5t-91 23.5q-113 0 -133 -98h-373q31 189 171.5 292t367.5 103q234 0 360 -105t102 -280l-61 -442q-22 -154 -22 -279zM528 254
q74 0 120.5 36.5t53.5 102.5l11 60l-164 -19q-133 -15 -133 -102q0 -37 29 -57.5t83 -20.5zM475 1366q0 104 74 175t184 71q98 0 161.5 -62.5t63.5 -156.5q0 -104 -74 -175t-184 -71q-99 0 -162 62t-63 157zM641 1372q0 -31 20.5 -51.5t51.5 -20.5q32 0 55 24.5t23 59.5
q0 32 -19.5 52t-50.5 20q-35 0 -57.5 -24t-22.5 -60z" />
    <glyph glyph-name="abreve.1" 
d="M1047 0h-363q-1 11 2 80q-114 -100 -303 -100q-155 0 -251.5 84t-96.5 219q0 161 132.5 261t375.5 120l200 20l5 31q6 47 -22 70.5t-91 23.5q-113 0 -133 -98h-373q31 189 171.5 292t367.5 103q234 0 360 -105t102 -280l-61 -442q-22 -154 -22 -279zM528 254
q74 0 120.5 36.5t53.5 102.5l11 60l-164 -19q-133 -15 -133 -102q0 -37 29 -57.5t83 -20.5zM733 1384q41 0 70 23.5t37 62.5h262q-20 -154 -117.5 -235.5t-261.5 -81.5q-170 0 -261.5 84t-84.5 233h260q2 -38 28.5 -62t67.5 -24z" />
    <glyph glyph-name="agrave.1" 
d="M1047 0h-363q-1 11 2 80q-114 -100 -303 -100q-155 0 -251.5 84t-96.5 219q0 161 132.5 261t375.5 120l200 20l5 31q6 47 -22 70.5t-91 23.5q-113 0 -133 -98h-373q31 189 171.5 292t367.5 103q234 0 360 -105t102 -280l-61 -442q-22 -154 -22 -279zM528 254
q74 0 120.5 36.5t53.5 102.5l11 60l-164 -19q-133 -15 -133 -102q0 -37 29 -57.5t83 -20.5zM803 1470l71 -313h-294l-215 313h438z" />
    <glyph glyph-name="atilde.1" 
d="M1047 0h-363q-1 11 2 80q-114 -100 -303 -100q-155 0 -251.5 84t-96.5 219q0 161 132.5 261t375.5 120l200 20l5 31q6 47 -22 70.5t-91 23.5q-113 0 -133 -98h-373q31 189 171.5 292t367.5 103q234 0 360 -105t102 -280l-61 -442q-22 -154 -22 -279zM528 254
q74 0 120.5 36.5t53.5 102.5l11 60l-164 -19q-133 -15 -133 -102q0 -37 29 -57.5t83 -20.5zM633 1245q-57 0 -84 -88h-234q20 152 95.5 244t179.5 92q60 0 145 -53q49 -35 76 -35q52 0 86 88h233q-25 -156 -97.5 -246t-176.5 -90q-36 0 -67 11.5t-80 43.5q-53 33 -76 33z
" />
    <glyph glyph-name="amacron.1" 
d="M1047 0h-363q-1 11 2 80q-114 -100 -303 -100q-155 0 -251.5 84t-96.5 219q0 161 132.5 261t375.5 120l200 20l5 31q6 47 -22 70.5t-91 23.5q-113 0 -133 -98h-373q31 189 171.5 292t367.5 103q234 0 360 -105t102 -280l-61 -442q-22 -154 -22 -279zM528 254
q74 0 120.5 36.5t53.5 102.5l11 60l-164 -19q-133 -15 -133 -102q0 -37 29 -57.5t83 -20.5zM1094 1454l-39 -278h-703l39 278h703z" />
    <glyph glyph-name="idotaccent" 
d="M938 1167h-393l43 303h391zM1090 0h-1080l43 315h373l61 451h-342l45 315h732l-107 -766h318z" />
    <glyph glyph-name="ordfeminine.1" 
d="M1014 702h-285q-3 29 0 58q-77 -74 -219 -74q-110 0 -178 60t-68 157q0 117 100 188t283 85l119 10l2 14q4 30 -12.5 45t-53.5 15q-67 0 -79 -60h-295q23 137 127.5 213t271.5 76q174 0 268.5 -78t75.5 -207l-41 -301q-16 -118 -16 -201zM633 901q91 0 106 84l2 27
l-94 -8q-38 -1 -59 -17t-21 -41q0 -45 66 -45zM965 381h-766l30 211h764z" />
    <glyph glyph-name="a.ord" 
d="M1073 924l-31 -219q-103 -24 -187.5 -8t-125.5 67q-91 -78 -217 -78q-116 0 -189 60.5t-73 156.5q0 112 91 181t255 83l158 15l4 12q4 29 -14.5 44t-55.5 15q-70 0 -84 -61l-291 43q35 119 142 186.5t262 67.5q174 0 268.5 -78.5t75.5 -208.5l-35 -244q-2 -21 8.5 -29.5
t38.5 -4.5zM621 897q44 0 72.5 23t33.5 61l4 27l-92 -9q-41 -1 -63.5 -17.5t-22.5 -41.5q0 -43 68 -43z" />
    <glyph glyph-name="a.1.ord" 
d="M1014 702h-285q-3 29 0 58q-77 -74 -219 -74q-110 0 -178 60t-68 157q0 117 100 188t283 85l119 10l2 14q4 30 -12.5 45t-53.5 15q-67 0 -79 -60h-295q23 137 127.5 213t271.5 76q174 0 268.5 -78t75.5 -207l-41 -301q-16 -118 -16 -201zM633 901q91 0 106 84l2 27
l-94 -8q-38 -1 -59 -17t-21 -41q0 -45 66 -45z" />
    <glyph glyph-name="b.ord" 
d="M844 1489q121 0 191.5 -92t70.5 -248q0 -198 -98 -332q-95 -133 -244 -133q-62 0 -116 26t-79 68l-10 -76h-309l147 1041h308l-48 -342q32 41 82 64.5t105 23.5zM721 1231q-43 0 -70.5 -31.5t-34.5 -91.5l-4 -35q-8 -57 14.5 -94t65.5 -37q49 0 80 48.5t31 123.5
q0 56 -21.5 86.5t-60.5 30.5z" />
    <glyph glyph-name="c.ord" 
d="M731 1241q-61 0 -99 -52t-38 -134q0 -123 100 -123q44 0 76.5 26.5t44.5 73.5l264 -82q-31 -122 -141 -194t-268 -72q-171 0 -277 100q-108 102 -108 252q0 193 129 322q128 131 327 131q157 0 261 -75.5t116 -194.5l-289 -78q-2 44 -28.5 72t-69.5 28z" />
    <glyph glyph-name="d.ord" 
d="M537 684q-119 0 -191 93.5t-72 248.5q0 195 97 330q100 133 245 133q63 0 117 -25.5t80 -68.5l49 348h307l-147 -1041h-307l10 70q-69 -88 -188 -88zM662 942q42 0 69.5 32t34.5 91l4 35q8 57 -14.5 94t-65.5 37q-49 0 -80.5 -49t-31.5 -123q0 -117 84 -117z" />
    <glyph glyph-name="e.ord" 
d="M676 684q-178 0 -281.5 95t-103.5 255q0 198 125 326q126 129 315 129t287 -119q96 -117 69 -305l-8 -47h-497q15 -98 114 -98q84 0 121 73l240 -80q-50 -104 -153.5 -166.5t-227.5 -62.5zM721 1266q-78 0 -117 -86h201q2 37 -22 61.5t-62 24.5z" />
    <glyph glyph-name="f.ord" 
d="M999 702h-772l35 248h209l37 254h-209l35 250h209q20 146 137.5 227.5t308.5 81.5q117 0 201 -24l-29 -211q-88 14 -143 14q-154 0 -166 -88h299l-35 -250h-301l-35 -254h256z" />
    <glyph glyph-name="g.ord" 
d="M1130 1470l-94 -675q-25 -174 -139.5 -266.5t-306.5 -92.5q-162 0 -262 63.5t-119 178.5l297 41q22 -60 100 -60q50 0 81 28t38 81l6 41q-67 -76 -178 -76q-129 0 -205 88t-76 236q0 180 101 305q103 127 250 127q61 0 111 -23t79 -65l10 69h307zM770 1096l4 32
q4 51 -18.5 84t-61.5 33q-50 0 -81 -45t-31 -115q0 -51 21.5 -79.5t58.5 -28.5q43 0 72.5 32t35.5 87z" />
    <glyph glyph-name="h.ord" 
d="M561 702h-309l147 1041h308l-48 -338q35 38 92.5 61t118.5 23q118 0 181.5 -81.5t44.5 -211.5l-70 -494h-309l61 426q6 43 -11 67t-54 24q-76 0 -97 -107z" />
    <glyph glyph-name="i.ord" 
d="M934 1520h-309l32 223h308zM1032 702h-788l37 248h264l39 273h-240l35 247h547l-72 -520h213z" />
    <glyph glyph-name="j.ord" 
d="M1038 1520h-309l31 223h311zM481 698q76 0 109.5 25.5t40.5 91.5l57 408h-289l35 247h596l-98 -702q-47 -330 -418 -330q-141 0 -233 29l34 246q111 -15 166 -15z" />
    <glyph glyph-name="k.ord" 
d="M399 1743h308l-70 -492l205 219h340l-283 -280l178 -488h-329l-86 250l-76 -75l-25 -175h-309z" />
    <glyph glyph-name="l.ord" 
d="M1032 702h-788l37 248h264l78 545h-240l35 248h549l-113 -793h213z" />
    <glyph glyph-name="m.ord" 
d="M569 1266q-20 0 -30 -16t-15 -54l-71 -494h-220l109 768h219l-6 -43q52 62 135 62q86 0 123 -70q63 70 154 70q84 0 125.5 -63.5t27.5 -168.5l-78 -555h-221l70 494q6 38 -0.5 54t-26.5 16q-21 0 -30.5 -14t-16.5 -56l-69 -494h-220l70 494q11 70 -29 70z" />
    <glyph glyph-name="n.ord" 
d="M561 702h-309l108 768h308l-9 -65q35 38 92.5 61t118.5 23q118 0 181.5 -81.5t44.5 -211.5l-70 -494h-309l61 426q6 43 -11 67t-54 24q-76 0 -97 -107z" />
    <glyph glyph-name="o.ord" 
d="M283 1049q0 187 120 313q124 127 312 127q173 0 278 -99.5t105 -265.5q0 -188 -121 -315q-119 -125 -309 -125q-174 0 -279.5 100t-105.5 265zM584 1053q0 -55 24.5 -88t65.5 -33q55 0 90 53t35 135q0 57 -23.5 89t-66.5 32q-54 0 -89.5 -54t-35.5 -134z" />
    <glyph glyph-name="p.ord" 
d="M844 1489q121 0 191.5 -92t70.5 -248q0 -198 -98 -332q-95 -133 -244 -133q-62 0 -115.5 25.5t-79.5 68.5l-45 -323h-309l143 1015h308l-9 -69q32 41 82 64.5t105 23.5zM721 1231q-43 0 -70.5 -31.5t-34.5 -91.5l-4 -35q-8 -57 14.5 -94t65.5 -37q49 0 80 48.5t31 123.5
q0 56 -21.5 86.5t-60.5 30.5z" />
    <glyph glyph-name="q.ord" 
d="M537 684q-119 0 -191 93.5t-72 248.5q0 195 97 330q100 133 245 133q63 0 117 -25.5t80 -68.5l8 75h309l-143 -1015h-309l47 317q-69 -88 -188 -88zM662 942q42 0 69.5 32t34.5 91l4 35q8 57 -14.5 94t-65.5 37q-49 0 -80.5 -49t-31.5 -123q0 -117 84 -117z" />
    <glyph glyph-name="r.ord" 
d="M932 702h-690l37 248h176l39 273h-179l33 247h463l-14 -98q98 103 282 103q39 0 64 -5l-39 -286q-44 8 -90 8q-110 0 -181.5 -44.5t-82.5 -119.5l-11 -78h228z" />
    <glyph glyph-name="s.ord" 
d="M645 684q-97 0 -219 29q-114 30 -178 73l112 209q60 -42 148.5 -68t165.5 -26q74 0 74 35q0 14 -22 23.5t-77 19.5q-162 25 -234.5 76.5t-72.5 144.5q0 129 107.5 209t279.5 80q106 0 207 -31t158 -80l-138 -178q-44 37 -109.5 59.5t-127.5 22.5q-68 0 -68 -35
q0 -17 21.5 -26t77.5 -17q154 -23 228.5 -78t74.5 -147q0 -133 -111.5 -214t-296.5 -81z" />
    <glyph glyph-name="t.ord" 
d="M788 688q-183 0 -273 73.5t-71 207.5l35 256h-180l35 245h180l33 232h309l-35 -232h330l-35 -245h-328l-26 -185q-8 -50 22.5 -71t108.5 -21q99 0 188 25l-34 -250q-103 -35 -259 -35z" />
    <glyph glyph-name="u.ord" 
d="M821 1470h309l-106 -768h-309l8 66q-35 -38 -91.5 -61t-117.5 -23q-119 0 -181.5 81.5t-43.5 211.5l67 493h310l-60 -430q-7 -43 10 -67.5t54 -24.5q38 0 63.5 28.5t32.5 82.5z" />
    <glyph glyph-name="v.ord" 
d="M1182 1470l-402 -768h-305l-170 768h305l72 -387l192 387h308z" />
    <glyph glyph-name="w.ord" 
d="M539 1130l114 340h181l12 -340l92 340h246l-252 -768h-223l-15 400l-133 -400h-237l-21 768h240z" />
    <glyph glyph-name="x.ord" 
d="M1071 702h-326l-81 172l-127 -172h-332l311 398l-192 370h325l74 -153l113 153h331l-297 -378z" />
    <glyph glyph-name="y.ord" horiz-adv-x="1226" 
d="M1180 1470l-375 -712q-92 -173 -154 -232q-94 -88 -254 -88q-62 0 -106 8l31 232q13 -1 24 -2t17 -1.5t10 -0.5q67 0 90 47l8 20l-166 729h303l74 -385l190 385h308z" />
    <glyph glyph-name="z.ord" 
d="M727 950h330l-37 -248h-768l31 218l389 303h-344l34 247h762l-28 -217z" />
    <glyph glyph-name="caron.Slovak" 
d="M684 1096h-211l102 374h293z" />
    <glyph glyph-name="commaturn" 
d="M795 1356h129l-29 -199h-387l14 113q40 299 430 284l-18 -133q-125 3 -139 -65z" />
    <glyph glyph-name="grave.cap" 
d="M973 1884l104 -342h-317l-279 342h492z" />
    <glyph glyph-name="acute.cap" 
d="M758 1542h-336l182 342h514z" />
    <glyph glyph-name="circumflex.cap" 
d="M612 1884h381l187 -342h-273l-125 121l-159 -121h-293z" />
    <glyph glyph-name="caron.cap" 
d="M1227 1884l-281 -342h-383l-184 342h272l125 -121l160 121h291z" />
    <glyph glyph-name="tilde.cap" 
d="M987 1925h254q-23 -175 -106.5 -279t-204.5 -104q-39 0 -75.5 12.5t-90.5 47.5q-63 38 -94 38q-33 0 -57.5 -25.5t-34.5 -72.5h-254q23 175 106.5 279t204.5 104q39 0 75.5 -12t90.5 -47q61 -37 92 -37q33 0 57.5 24.5t36.5 71.5z" />
    <glyph glyph-name="macron.cap" 
d="M1186 1829l-41 -281h-778l39 281h780z" />
    <glyph glyph-name="breve.cap" 
d="M784 1540q-180 0 -282 102q-103 103 -82 256h276q0 -50 28 -80t75 -30t80 30t41 80h272q-23 -172 -129 -265t-279 -93z" />
    <glyph glyph-name="dotaccent.cap" 
d="M952 1542h-395l47 326h393z" />
    <glyph glyph-name="dieresis.cap" 
d="M711 1542h-365l47 326h363zM1163 1542h-362l45 326h364z" />
    <glyph glyph-name="ring.cap" 
d="M489 1800q0 125 91 213q88 88 227 88q128 0 209.5 -77t81.5 -195q0 -124 -92 -213q-88 -88 -226 -88q-128 0 -209.5 76.5t-81.5 195.5zM698 1806q0 -38 26 -63t67 -25q42 0 70 30t28 75q0 39 -25.5 64.5t-66.5 25.5q-42 0 -70.5 -31t-28.5 -76z" />
    <glyph glyph-name="hungarumlaut.cap" 
d="M1012 1556h-295l201 342h407zM545 1556h-295l203 342h407z" />
    <glyph glyph-name="guilsinglleft.cap" 
d="M825 272l-456 306l45 319l542 305l-49 -362l-198 -109l168 -108z" />
    <glyph glyph-name="guilsinglright.cap" 
d="M459 1202l459 -305l-48 -319l-542 -306l49 363l198 108l-167 109z" />
    <glyph glyph-name="guillemotleft.cap" 
d="M543 272l-459 306l47 319l543 305l-49 -362l-199 -109l168 -108zM1108 272l-459 306l47 319l543 305l-49 -362l-199 -109l168 -108z" />
    <glyph glyph-name="guillemotright.cap" 
d="M743 1202l459 -305l-47 -319l-543 -306l50 363l198 108l-168 109zM178 1202l459 -305l-47 -319l-543 -306l49 363l199 108l-168 109z" />
    <glyph glyph-name="slash.cap" 
d="M434 -117h-403l825 1712h401z" />
    <glyph glyph-name="backslash.cap" 
d="M680 1577l293 -1712h-375l-293 1712h375z" />
    <glyph glyph-name="bar.cap" 
d="M711 -119h-377l239 1712h377z" />
    <glyph glyph-name="periodcentered.cap" 
d="M852 500h-487l65 469h490z" />
    <glyph glyph-name="bullet.cap" 
d="M1042 754q0 -188 -124 -318q-125 -131 -308 -131q-163 0 -270 101q-109 103 -109 260q0 182 127 315t310 133q160 0 268 -102q106 -100 106 -258z" />
    <glyph glyph-name="hyphen.cap" 
d="M930 532h-633l51 355h633z" />
    <glyph glyph-name="endash.cap" 
d="M1051 549h-873l45 319h875z" />
    <glyph glyph-name="emdash.cap" 
d="M1202 549h-1173l45 319h1173z" />
    <glyph glyph-name="parenleft.cap" 
d="M309 600q0 284 131 549q132 270 355 444h360q-215 -233 -326.5 -491t-111.5 -522q0 -192 52 -378t144 -321h-329q-133 149 -204 335.5t-71 383.5z" />
    <glyph glyph-name="parenright.cap" 
d="M979 874q0 -282 -131 -550q-133 -268 -352 -443h-363q215 233 326.5 491.5t111.5 522.5q0 192 -52 377.5t-144 320.5h332q131 -153 201.5 -338t70.5 -381z" />
    <glyph glyph-name="bracketleft.cap" 
d="M1096 1305h-334l-162 -1137h334l-39 -287h-702l239 1712h703z" />
    <glyph glyph-name="bracketright.cap" 
d="M190 170h334l160 1137h-334l41 286h703l-242 -1712h-702z" />
    <glyph glyph-name="braceleft.cap" 
d="M295 586h-96l43 303h96q86 0 100 102l33 242q26 172 147 266t318 94h254l-39 -288h-168q-151 0 -172 -150l-29 -199q-21 -158 -157 -219q117 -61 96 -219l-27 -199q-21 -149 131 -149h164l-39 -289h-237q-201 0 -301 96t-80 267l35 239q15 103 -72 103z" />
    <glyph glyph-name="braceright.cap" 
d="M993 889h97l-43 -303h-97q-88 0 -100 -103l-35 -241q-26 -179 -140 -270t-310 -91h-269l41 289h168q76 0 118 36t54 113l29 199q21 158 162 221q-124 63 -103 217l29 199q24 150 -127 150h-170l41 288h225q198 0 304 -97.5t89 -264.5l-34 -240q-15 -102 71 -102z" />
    <glyph glyph-name="at.cap" 
d="M913 475q49 0 101 178q51 176 51 346q0 186 -76 285.5t-217 99.5q-130 0 -239 -87.5t-187 -252.5q-117 -259 -117 -565q0 -231 89 -358t249 -127q159 0 301 151l109 -137q-184 -196 -418 -196q-243 0 -387 178q-144 175 -141 485q0 181 46 364.5t130 334.5
q104 190 250.5 291.5t316.5 101.5q220 0 352 -156q134 -155 134 -420q0 -293 -123 -518q-119 -223 -295 -223q-66 0 -114.5 31.5t-65.5 85.5q-35 -54 -84 -82.5t-103 -28.5q-90 0 -142 77.5t-52 211.5q0 222 104 405q105 185 248 185q50 0 88.5 -26t56.5 -69l21 76h239
l-135 -534q-24 -107 10 -107zM573 473q43 0 80 135l52 201q12 51 4.5 82t-33.5 31q-50 0 -94 -129q-43 -125 -43 -242q0 -78 34 -78z" />
    <glyph glyph-name="zero.dnom" 
d="M264 328q0 216 103 358q104 143 268 143q135 0 212 -91t77 -249q0 -218 -105 -362q-102 -141 -266 -141q-135 0 -212 91t-77 251zM522 307q0 -96 47 -96q41 0 69 86t28 211q0 96 -45 96q-43 0 -71 -84.5t-28 -212.5z" />
    <glyph glyph-name="one.dnom" 
d="M618 815h197l-80 -592h146l-33 -223h-590l33 223h182l37 271h-170l27 196l73 4q63 5 105 33t73 88z" />
    <glyph glyph-name="two.dnom" 
d="M231 0l25 176l264 197q85 62 118.5 99.5t33.5 72.5q0 26 -15 41.5t-41 15.5q-73 0 -73 -110q0 -3 4 -39h-254q-1 16 -2.5 29t-1.5 18q0 149 97.5 239t260.5 90q137 0 215 -64t78 -179q0 -160 -145 -267l-125 -96h215l-33 -223h-621z" />
    <glyph glyph-name="three.dnom" 
d="M893 250q0 -117 -89 -190.5t-231 -73.5q-139 0 -229.5 72.5t-101.5 191.5l266 31q9 -74 80 -74q25 0 42 16t17 39q0 51 -67 51h-74l29 191h81q29 0 45.5 15.5t16.5 41.5q0 20 -14 32.5t-37 12.5q-31 0 -52 -19t-26 -50l-244 20q25 125 118 198.5t228 73.5
q127 0 207 -63.5t80 -163.5q0 -65 -35.5 -120.5t-93.5 -82.5q84 -47 84 -149z" />
    <glyph glyph-name="four.dnom" 
d="M815 164l-24 -164h-236l25 164h-351l27 184l324 467h327l-63 -450h80l-29 -201h-80zM637 614l-162 -249h127z" />
    <glyph glyph-name="five.dnom" 
d="M598 352q-41 0 -61 -33l-240 29l104 467h529l-33 -221h-324l-16 -64q42 25 113 25q106 0 172.5 -65.5t66.5 -170.5q0 -137 -98 -235t-246 -98q-142 0 -229.5 73t-91.5 197l264 27q0 -32 21.5 -54t52.5 -22q32 0 53.5 22.5t21.5 55.5q0 31 -16.5 49t-42.5 18z" />
    <glyph glyph-name="six.dnom" 
d="M680 829q219 0 278 -186l-210 -88q-22 66 -93 66q-47 0 -80.5 -33t-39.5 -84q57 35 129 35q104 0 169.5 -67t65.5 -173q0 -135 -94 -223q-93 -90 -240 -90q-146 0 -225.5 90.5t-79.5 255.5q0 214 119 354q119 143 301 143zM504 268q0 -73 71 -73q37 0 58.5 23.5
t21.5 64.5q0 32 -18.5 51.5t-50.5 19.5q-37 0 -59.5 -24t-22.5 -62z" />
    <glyph glyph-name="seven.dnom" 
d="M668 594h-154l-16 -111h-224l48 332h659l-31 -225q-138 -123 -205 -254q-65 -134 -92 -336h-270q29 204 97.5 347t187.5 247z" />
    <glyph glyph-name="eight.dnom" 
d="M326 573q0 110 88 183t221 73q125 0 204 -63.5t79 -165.5q0 -122 -117 -194q44 -23 69 -67t25 -99q0 -112 -93 -183t-239 -71q-137 0 -226 65.5t-89 169.5q0 67 38.5 122.5t106.5 86.5q-67 48 -67 143zM555 573q0 -25 17 -41t46 -16t48.5 18.5t19.5 45.5q0 25 -16 40
t-45 15q-30 0 -50 -18.5t-20 -43.5zM502 248q0 -27 17 -43.5t46 -16.5q35 0 57.5 21t22.5 53q0 27 -16 43.5t-45 16.5q-35 0 -58.5 -21.5t-23.5 -52.5z" />
    <glyph glyph-name="nine.dnom" 
d="M510 -14q-106 0 -178 48t-101 140l211 86q22 -65 93 -65q47 0 80.5 32.5t39.5 83.5q-57 -35 -129 -35q-104 0 -169.5 67t-65.5 173q0 134 92 223q96 90 242 90t225.5 -90.5t79.5 -255.5q0 -213 -119 -356q-120 -141 -301 -141zM686 547q0 74 -72 74q-37 0 -58 -24
t-21 -65q0 -32 18.5 -51.5t50.5 -19.5q37 0 59.5 24t22.5 62z" />
    <glyph glyph-name="colon.mid" 
d="M811 207h-487l65 469h490zM901 852h-487l65 469h490z" />
    <glyph glyph-name="commaaboverightcmb" horiz-adv-x="0" 
d="M14 1096h-211l103 374h293z" />
    <glyph glyph-name="_222" horiz-adv-x="0" 
 />
    <glyph glyph-name="g.1.ord" 
d="M334 1206q0 125 98 204t258 79q148 0 238 -72q65 78 182 78q15 0 57 -6l-34 -242q-30 10 -54 10q-41 0 -69 -28q-5 -126 -96.5 -204.5t-237.5 -78.5q-86 0 -144 19q-16 -10 -16 -25q0 -25 35 -25h235q127 0 196 -52t69 -146q0 -136 -118.5 -214.5t-328.5 -78.5
q-190 0 -300.5 52t-110.5 140q0 52 31.5 94t90.5 66q-26 13 -40.5 40.5t-14.5 60.5q0 51 39 95t102 64q-67 67 -67 170zM748 1223q0 25 -18 39t-50 14q-35 0 -55.5 -17.5t-20.5 -46.5q0 -25 19.5 -40t50.5 -15q32 0 53 18.5t21 47.5zM471 649q0 -47 143 -47q136 0 136 53
q0 27 -50 27h-176q-53 0 -53 -33z" />
    <glyph glyph-name="ae.1" 
d="M920 401l274 -53q-47 -176 -154 -274.5t-247 -98.5q-87 0 -160.5 41.5t-110.5 110.5q-51 -72 -122.5 -111t-153.5 -39q-124 0 -199.5 79t-75.5 210q0 180 121.5 288t325.5 108h49l8 61q9 96 -53 96q-63 0 -84 -108h-295q32 183 140 288t263 107q156 0 218 -102
q114 102 251 102q177 0 259 -156q87 -159 53 -405l-13 -84h-481q-2 -14 -2 -60q0 -163 80 -163q75 0 109 163zM879 823q-68 0 -115 -161h172q12 77 -3 119t-54 42zM279 315q0 -79 57 -79q71 0 86 108l16 117h-22q-66 0 -101.5 -38.5t-35.5 -107.5z" />
    <glyph glyph-name="dcaron.1" 
d="M418 -25q-174 0 -275 131q-100 129 -100 351q0 272 139 461q138 188 350 188q91 0 167 -36.5t114 -98.5l70 499h389l-207 -1470h-389l14 100q-44 -60 -115.5 -92.5t-156.5 -32.5zM569 303q72 0 120 54.5t61 152.5l6 51q13 93 -26.5 155t-111.5 62q-84 0 -136 -78.5
t-52 -201.5q0 -94 36 -144.5t103 -50.5zM1483 1096h-211l102 374h293z" />
    <glyph glyph-name="g.1" 
d="M125 709q0 175 135 286q138 111 361 111q205 0 329 -105q44 55 111 85t145 30q42 0 78 -8l-47 -317q-40 14 -74 14q-66 0 -104 -47v-4q0 -178 -131 -291q-130 -115 -338 -115q-95 0 -201 27q-37 -13 -37 -47q0 -19 16 -30t42 -11h338q173 0 267.5 -71t94.5 -200
q0 -186 -164 -297q-161 -112 -450 -112q-264 0 -416 73.5t-152 200.5q0 74 45 132.5t127 90.5q-75 41 -75 144q0 73 52 133.5t140 91.5q-92 92 -92 236zM721 737q0 44 -32 70.5t-87 26.5q-59 0 -94 -31.5t-35 -83.5q0 -47 31.5 -72.5t87.5 -25.5q60 0 94.5 31t34.5 85z
M285 -76q0 -78 223 -78t223 95q0 45 -80 45h-272q-44 0 -69 -16.5t-25 -45.5z" />
    <glyph glyph-name="gdotaccent.1" 
d="M125 709q0 175 135 286q138 111 361 111q205 0 329 -105q44 55 111 85t145 30q42 0 78 -8l-47 -317q-40 14 -74 14q-66 0 -104 -47v-4q0 -178 -131 -291q-130 -115 -338 -115q-95 0 -201 27q-37 -13 -37 -47q0 -19 16 -30t42 -11h338q173 0 267.5 -71t94.5 -200
q0 -186 -164 -297q-161 -112 -450 -112q-264 0 -416 73.5t-152 200.5q0 74 45 132.5t127 90.5q-75 41 -75 144q0 73 52 133.5t140 91.5q-92 92 -92 236zM721 737q0 44 -32 70.5t-87 26.5q-59 0 -94 -31.5t-35 -83.5q0 -47 31.5 -72.5t87.5 -25.5q60 0 94.5 31t34.5 85z
M285 -76q0 -78 223 -78t223 95q0 45 -80 45h-272q-44 0 -69 -16.5t-25 -45.5zM887 1167h-391l41 303h393z" />
    <glyph glyph-name="gcommaaccent.1" 
d="M125 709q0 175 135 286q138 111 361 111q205 0 329 -105q44 55 111 85t145 30q42 0 78 -8l-47 -317q-40 14 -74 14q-66 0 -104 -47v-4q0 -178 -131 -291q-130 -115 -338 -115q-95 0 -201 27q-37 -13 -37 -47q0 -19 16 -30t42 -11h338q173 0 267.5 -71t94.5 -200
q0 -186 -164 -297q-161 -112 -450 -112q-264 0 -416 73.5t-152 200.5q0 74 45 132.5t127 90.5q-75 41 -75 144q0 73 52 133.5t140 91.5q-92 92 -92 236zM721 737q0 44 -32 70.5t-87 26.5q-59 0 -94 -31.5t-35 -83.5q0 -47 31.5 -72.5t87.5 -25.5q60 0 94.5 31t34.5 85z
M285 -76q0 -78 223 -78t223 95q0 45 -80 45h-272q-44 0 -69 -16.5t-25 -45.5zM768 1356h129l-29 -199h-387l15 113q40 299 430 284l-19 -133q-125 3 -139 -65z" />
    <glyph glyph-name="aeacute.1" 
d="M831 1157h-313l137 313h461zM920 401l274 -53q-47 -176 -154 -274.5t-247 -98.5q-87 0 -160.5 41.5t-110.5 110.5q-51 -72 -122.5 -111t-153.5 -39q-124 0 -199.5 79t-75.5 210q0 180 121.5 288t325.5 108h49l8 61q9 96 -53 96q-63 0 -84 -108h-295q32 183 140 288
t263 107q156 0 218 -102q114 102 251 102q177 0 259 -156q87 -159 53 -405l-13 -84h-481q-2 -14 -2 -60q0 -163 80 -163q75 0 109 163zM879 823q-68 0 -115 -161h172q12 77 -3 119t-54 42zM279 315q0 -79 57 -79q71 0 86 108l16 117h-22q-66 0 -101.5 -38.5t-35.5 -107.5z
" />
    <glyph glyph-name="gbreve.1" 
d="M125 709q0 175 135 286q138 111 361 111q205 0 329 -105q44 55 111 85t145 30q42 0 78 -8l-47 -317q-40 14 -74 14q-66 0 -104 -47v-4q0 -178 -131 -291q-130 -115 -338 -115q-95 0 -201 27q-37 -13 -37 -47q0 -19 16 -30t42 -11h338q173 0 267.5 -71t94.5 -200
q0 -186 -164 -297q-161 -112 -450 -112q-264 0 -416 73.5t-152 200.5q0 74 45 132.5t127 90.5q-75 41 -75 144q0 73 52 133.5t140 91.5q-92 92 -92 236zM721 737q0 44 -32 70.5t-87 26.5q-59 0 -94 -31.5t-35 -83.5q0 -47 31.5 -72.5t87.5 -25.5q60 0 94.5 31t34.5 85z
M285 -76q0 -78 223 -78t223 95q0 45 -80 45h-272q-44 0 -69 -16.5t-25 -45.5zM719 1384q41 0 69.5 23.5t36.5 62.5h262q-20 -154 -117 -235.5t-261 -81.5q-170 0 -262 84t-85 233h261q2 -38 28.5 -62t67.5 -24z" />
    <glyph glyph-name="gcircumflex.1" 
d="M125 709q0 175 135 286q138 111 361 111q205 0 329 -105q44 55 111 85t145 30q42 0 78 -8l-47 -317q-40 14 -74 14q-66 0 -104 -47v-4q0 -178 -131 -291q-130 -115 -338 -115q-95 0 -201 27q-37 -13 -37 -47q0 -19 16 -30t42 -11h338q173 0 267.5 -71t94.5 -200
q0 -186 -164 -297q-161 -112 -450 -112q-264 0 -416 73.5t-152 200.5q0 74 45 132.5t127 90.5q-75 41 -75 144q0 73 52 133.5t140 91.5q-92 92 -92 236zM721 737q0 44 -32 70.5t-87 26.5q-59 0 -94 -31.5t-35 -83.5q0 -47 31.5 -72.5t87.5 -25.5q60 0 94.5 31t34.5 85z
M285 -76q0 -78 223 -78t223 95q0 45 -80 45h-272q-44 0 -69 -16.5t-25 -45.5zM537 1470h372l166 -313h-270l-103 94l-129 -94h-288z" />
    <glyph glyph-name="zero.slash" 
d="M59 588q0 392 183 649q185 258 475 258q237 0 370.5 -162t133.5 -450q0 -393 -185 -652q-182 -256 -473 -256q-237 0 -370.5 162.5t-133.5 450.5zM694 1184q-100 0 -175 -132t-95 -347l420 354q-38 125 -150 125zM586 287q101 0 174 131q75 129 96 342l-418 -352
q38 -121 148 -121z" />
    <glyph glyph-name="arrowNW" 
d="M397 352h-293v879h879v-293h-377l588 -588l-209 -211l-588 590v-377z" />
    <glyph glyph-name="arrowNE" 
d="M840 729l-588 -590l-209 211l588 588h-377v293h879v-879h-293v377z" />
    <glyph glyph-name="arrowSE" 
d="M719 1006h293v-879h-879v293h377l-588 588l209 211l588 -590v377z" />
    <glyph glyph-name="arrowSW" 
d="M428 629l588 590l209 -211l-588 -588h377v-293h-879v879h293v-377z" />
    <glyph glyph-name="arrowupdown" 
d="M1006 377l204 -223l-589 -533l-592 533l204 221l234 -215v837l-234 -215l-204 222l592 532l589 -532l-204 -224l-232 215v-833z" />
    <glyph glyph-name="arrowleftright" horiz-adv-x="2457" 
d="M1778 1356l557 -615l-557 -614l-222 205l238 256h-1073l237 -256l-221 -205l-557 614l557 615l221 -205l-237 -256h1073l-238 256z" />
  </font>
</defs>
</svg>
