<?xml version="1.0" standalone="no"?>
<!DOCTYPE svg PUBLIC "-//W3C//DTD SVG 1.1//EN" "http://www.w3.org/Graphics/SVG/1.1/DTD/svg11.dtd" >
<svg xmlns="http://www.w3.org/2000/svg" xmlns:xlink="http://www.w3.org/1999/xlink" version="1.1">
<metadata>
Created by FontForge 20201107 at Mon Jan  8 01:19:52 2024
 By 
Copyright 2020, Kris Sowersby, Klim Type Foundry.
</metadata>
<defs>
<font id="Sohne-Fett" horiz-adv-x="1245" >
  <font-face 
    font-family="Sohne Fett"
    font-weight="800"
    font-stretch="normal"
    units-per-em="2048"
    panose-1="2 11 9 3 3 2 2 6 2 3"
    ascent="1638"
    descent="-410"
    x-height="1081"
    cap-height="1470"
    bbox="-483 -459 2081 2107"
    underline-thickness="260"
    underline-position="-258"
    unicode-range="U+000D-F6C3"
  />
<missing-glyph horiz-adv-x="1228" 
d="M0 0v1470h1229v-1470h-1229zM270 496l105 -105l239 240l242 -240l102 105l-237 241l237 240l-102 104l-242 -239l-239 239l-105 -104l240 -240z" />
    <glyph glyph-name="f_idieresis" unicode="f&#xef;" horiz-adv-x="1302" 
d="M655 1487q137 0 248 -27v-284q-144 18 -207 18q-166 0 -166 -92v-21h183v-315h-183v-766h-389v766h-131v315h131v29q0 186 130 281.5t384 95.5zM1407 1167h-348v303h348v-303zM821 1081h389v-1081h-389v1081z" />
    <glyph glyph-name=".notdef" horiz-adv-x="1228" 
d="M0 0v1470h1229v-1470h-1229zM270 496l105 -105l239 240l242 -240l102 105l-237 241l237 240l-102 104l-242 -239l-239 239l-105 -104l240 -240z" />
    <glyph glyph-name=".null" horiz-adv-x="0" 
 />
    <glyph glyph-name="nonmarkingreturn" horiz-adv-x="682" 
 />
    <glyph glyph-name="NULL" horiz-adv-x="0" 
 />
    <glyph glyph-name="NULL" horiz-adv-x="0" 
 />
    <glyph glyph-name="CR" unicode="&#xd;" horiz-adv-x="395" 
 />
    <glyph glyph-name="space" unicode=" " horiz-adv-x="395" 
 />
    <glyph glyph-name="exclam" unicode="!" horiz-adv-x="552" 
d="M428 496h-303l-88 974h479zM494 0h-437v403h437v-403z" />
    <glyph glyph-name="quotedbl" unicode="&#x22;" horiz-adv-x="970" 
d="M383 815h-272l-76 655h424zM860 815h-272l-76 655h424z" />
    <glyph glyph-name="numbersign" unicode="#" horiz-adv-x="1470" 
d="M455 0h-322l82 344h-168v277h234l55 229h-238v276h303l82 344h324l-82 -344h209l82 344h319l-82 -344h170v-276h-235l-53 -229h237v-277h-303l-82 -344h-323l81 344h-208zM657 850l-53 -229h209l53 229h-209z" />
    <glyph glyph-name="dollar" unicode="$" horiz-adv-x="1280" 
d="M-6 233l203 279q139 -161 348 -203v297q-216 36 -328 107q-154 101 -154 295q0 184 132 307q132 126 350 153v201h235v-199q149 -17 268.5 -72.5t192.5 -142.5l-213 -264q-100 124 -248 166v-276q225 -43 326 -109q149 -101 149 -295q0 -187 -129 -313
q-125 -125 -346 -160v-207h-235v201q-180 15 -326 78q-150 65 -225 157zM414 1042q0 -41 31.5 -68.5t99.5 -47.5v243q-63 -12 -97 -45t-34 -82zM922 444q0 41 -33.5 69t-108.5 48v-254q142 25 142 137z" />
    <glyph glyph-name="percent" unicode="%" horiz-adv-x="1644" 
d="M381 702q-153 0 -241.5 106.5t-88.5 289.5t88 289t242 106q153 0 240.5 -105.5t87.5 -289.5t-87.5 -290t-240.5 -106zM1176 1470h274l-981 -1470h-274zM381 1278q-74 0 -74 -180q0 -178 74 -178t74 178q0 180 -74 180zM1264 768q153 0 240 -105.5t87 -289.5t-87 -290
t-240 -106t-240.5 106t-87.5 290t87.5 289.5t240.5 105.5zM1264 551q-74 0 -74 -178q0 -180 74 -180q73 0 73 180q0 178 -73 178z" />
    <glyph glyph-name="ampersand" unicode="&#x26;" horiz-adv-x="1501" 
d="M1108 825l346 -59q-36 -255 -203 -459l310 -307h-476l-90 88q-200 -113 -428 -113q-246 0 -395 113t-149 303q0 124 63 218t203 175q-71 74 -103 144t-32 149q0 188 155 312q137 106 338 106q185 0 316 -92q73 -54 113 -127.5t40 -155.5q0 -122 -68 -206.5t-237 -170.5
l201 -198q74 124 96 280zM649 1227q-56 0 -92.5 -36t-36.5 -91q0 -40 19 -73t79 -91q93 42 127.5 77.5t34.5 92.5q0 51 -37 86t-94 35zM399 438q0 -75 56 -121.5t147 -46.5q83 0 170 37l-289 283q-44 -29 -64 -65t-20 -87z" />
    <glyph glyph-name="quotesingle" unicode="'" horiz-adv-x="493" 
d="M383 815h-272l-76 655h424z" />
    <glyph glyph-name="parenleft" unicode="(" horiz-adv-x="790" 
d="M481 655q0 -225 81.5 -450.5t228.5 -405.5h-340q-185 179 -283 399t-98 457t98 457t283 399h340q-147 -180 -228.5 -405.5t-81.5 -450.5z" />
    <glyph glyph-name="parenright" unicode=")" horiz-adv-x="790" 
d="M309 655q0 226 -81.5 451t-227.5 405h340q185 -179 283 -399t98 -457t-98 -457t-283 -399h-340q146 180 227.5 405t81.5 451z" />
    <glyph glyph-name="asterisk" unicode="*" horiz-adv-x="974" 
d="M848 762l-191 -137l-170 233l-170 -233l-190 137l170 235l-277 88l74 224l275 -86v288h237v-288l275 86l73 -224l-278 -88z" />
    <glyph glyph-name="plus" unicode="+" 
d="M1178 860v-295h-410v-409h-293v409h-409v295h409v410h293v-410h410z" />
    <glyph glyph-name="comma" unicode="," horiz-adv-x="565" 
d="M227 0h-161v418h436v-363q0 -178 -116 -278.5t-320 -100.5v191q161 3 161 125v8z" />
    <glyph glyph-name="hyphen" unicode="-" horiz-adv-x="796" 
d="M715 426h-633v354h633v-354z" />
    <glyph glyph-name="period" unicode="." horiz-adv-x="565" 
d="M502 0h-436v418h436v-418z" />
    <glyph glyph-name="slash" unicode="/" horiz-adv-x="1026" 
d="M412 -201h-392l594 1712h392z" />
    <glyph glyph-name="zero" unicode="0" horiz-adv-x="1345" 
d="M672 -25q-288 0 -457 205q-166 205 -166 555t166 555q169 205 457 205q290 0 456 -205t166 -555t-166 -555t-456 -205zM672 1155q-219 0 -219 -420t219 -420q221 0 221 420t-221 420z" />
    <glyph glyph-name="one" unicode="1" horiz-adv-x="860" 
d="M449 1475h307v-1475h-402v920h-327v303l106 8q152 11 224 66t92 178z" />
    <glyph glyph-name="two" unicode="2" horiz-adv-x="1218" 
d="M70 0v279l411 339q141 118 183 160q108 108 108 205q0 74 -45.5 122t-118.5 48q-75 0 -122.5 -53t-47.5 -135q0 -62 23 -129h-383q-27 74 -27 157q0 111 45 206.5t129 164.5q78 63 181 97t215 34q237 0 385 -121q165 -133 165 -362q0 -130 -69 -246.5t-223 -243.5
l-226 -182h516v-340h-1099z" />
    <glyph glyph-name="three" unicode="3" horiz-adv-x="1216" 
d="M999 82q-157 -107 -378 -107q-252 0 -413 123t-190 340l396 58q7 -86 62.5 -136.5t137.5 -50.5q80 0 127 39.5t47 108.5q0 135 -200 135h-129v309h125q182 0 182 129q0 62 -40 96.5t-112 34.5q-75 0 -125.5 -48t-62.5 -130l-373 35q14 107 64 198.5t131 153.5
q152 125 385 125q227 0 362 -106q80 -60 123 -145.5t43 -184.5q0 -102 -53.5 -185.5t-138.5 -119.5q213 -100 213 -334q0 -100 -47.5 -188.5t-135.5 -149.5z" />
    <glyph glyph-name="four" unicode="4" horiz-adv-x="1282" 
d="M1059 334v-334h-377v334h-662v295l537 841h502v-819h203v-317h-203zM672 1126l-295 -475h295v475z" />
    <glyph glyph-name="five" unicode="5" horiz-adv-x="1218" 
d="M616 684q-94 0 -147 -78l-365 39l70 825h903v-340h-600l-18 -204q98 67 223 67q226 0 358 -135q136 -136 136 -358q0 -235 -168 -383q-75 -68 -178.5 -105t-219.5 -37q-246 0 -401 122t-184 339l391 58q7 -87 59.5 -138t132.5 -51t133.5 52.5t53.5 131.5q0 86 -50 140.5
t-129 54.5z" />
    <glyph glyph-name="six" unicode="6" horiz-adv-x="1247" 
d="M696 1495q383 0 518 -334l-313 -137q-25 72 -80.5 112t-130.5 40q-115 0 -186.5 -88t-71.5 -224q51 51 125.5 80t155.5 29q212 0 352 -131q141 -138 141 -344q0 -234 -164 -383q-156 -140 -397 -140q-141 0 -256.5 58.5t-195.5 169.5q-144 205 -144 504q0 326 158 540
q88 122 212.5 185t276.5 63zM645 291q85 0 142 56t57 140q0 85 -57 141t-142 56q-84 0 -142.5 -57.5t-58.5 -139.5q0 -85 57.5 -140.5t143.5 -55.5z" />
    <glyph glyph-name="seven" unicode="7" horiz-adv-x="1204" 
d="M774 1137h-416v-213h-338v546h1164v-342q-237 -243 -330 -518q-76 -241 -76 -610h-411q0 364 98.5 640.5t308.5 496.5z" />
    <glyph glyph-name="eight" unicode="8" horiz-adv-x="1259" 
d="M268 1389q143 106 361 106q212 0 362 -106q80 -60 123 -144.5t43 -183.5q0 -198 -180 -303q113 -44 177.5 -135.5t64.5 -208.5q0 -103 -51 -190t-146 -148q-162 -101 -393 -101q-232 0 -391 101q-96 60 -146.5 146.5t-50.5 191.5q0 117 64 208.5t176 135.5
q-87 51 -133 129t-46 174q0 206 166 328zM463 1055q0 -66 46 -106t120 -40q75 0 121.5 40t46.5 106t-46.5 105.5t-121.5 39.5q-74 0 -120 -39.5t-46 -105.5zM823 446q0 74 -53 119t-141 45q-86 0 -139.5 -45.5t-53.5 -118.5t53.5 -118t139.5 -45q88 0 141 44.5t53 118.5z
" />
    <glyph glyph-name="nine" unicode="9" horiz-adv-x="1247" 
d="M551 -25q-383 0 -518 334l313 137q25 -72 80.5 -111.5t130.5 -39.5q115 0 186.5 87.5t71.5 223.5q-51 -51 -124.5 -79.5t-155.5 -28.5q-213 0 -353 131q-141 138 -141 344q0 234 164 383q154 139 397 139q141 0 257 -58.5t196 -168.5q143 -204 143 -504q0 -327 -158 -541
q-88 -122 -212.5 -185t-276.5 -63zM602 1180q-85 0 -142 -56t-57 -141t57 -141t142 -56q84 0 142.5 57.5t58.5 139.5q0 85 -57.5 141t-143.5 56z" />
    <glyph glyph-name="colon" unicode=":" horiz-adv-x="565" 
d="M502 0h-436v418h436v-418zM502 645h-436v418h436v-418z" />
    <glyph glyph-name="semicolon" unicode=";" horiz-adv-x="565" 
d="M227 0h-161v418h436v-363q0 -178 -116 -278.5t-320 -100.5v191q161 3 161 125v8zM502 645h-436v418h436v-418z" />
    <glyph glyph-name="less" unicode="&#x3c;" 
d="M1174 49l-1102 451v420l1102 450v-354l-822 -307l822 -306v-354z" />
    <glyph glyph-name="equal" unicode="=" 
d="M1178 819h-1112v268h1112v-268zM1178 342h-1112v266h1112v-266z" />
    <glyph glyph-name="greater" unicode="&#x3e;" 
d="M1174 920v-420l-1102 -451v354l821 306l-821 307v354z" />
    <glyph glyph-name="question" unicode="?" horiz-adv-x="1193" 
d="M739 997q0 68 -40.5 107t-112.5 39q-74 0 -121 -50t-53 -135l-412 54q25 226 211 362q165 121 407 121q225 0 375 -113q80 -62 123 -150t43 -192q0 -157 -94 -264q-98 -112 -246 -137v-143h-383l6 344q155 0 226 37.5t71 119.5zM844 0h-436v403h436v-403z" />
    <glyph glyph-name="at" unicode="@" horiz-adv-x="1884" 
d="M1417 322q41 0 77.5 34.5t59.5 94.5q33 79 33 198q0 244 -154.5 377t-433.5 133q-146 0 -273.5 -52.5t-221.5 -150.5q-94 -97 -144.5 -225.5t-50.5 -273.5q0 -136 49 -246.5t142 -185.5q175 -146 458 -146q296 0 506 146l123 -191q-249 -192 -629 -192q-190 0 -356 53
t-289 153q-272 225 -272 609q0 191 75 365t212 308q135 129 312.5 198t373.5 69q168 0 316.5 -48t258.5 -139q124 -98 189 -235t65 -301q0 -241 -123 -404q-67 -90 -163.5 -140t-202.5 -50q-201 0 -289 117q-85 -111 -264 -111q-147 0 -242 102q-94 101 -94 267
q0 195 113 346q129 164 315 164q75 0 134 -28t91 -79l21 88h311l-92 -524q-15 -100 59 -100zM903 336q47 0 77.5 39.5t49.5 122.5q17 97 17 120q0 45 -22 72t-60 27q-67 0 -110.5 -71.5t-43.5 -180.5q0 -63 24 -96t68 -33z" />
    <glyph glyph-name="A" unicode="A" horiz-adv-x="1536" 
d="M6 0l531 1470h462l531 -1470h-408l-94 266h-532l-93 -266h-397zM915 588l-153 438l-154 -438h307z" />
    <glyph glyph-name="B" unicode="B" horiz-adv-x="1343" 
d="M805 0h-705v1470h670q244 0 373 -103t129 -298q0 -102 -52 -183.5t-141 -123.5q109 -44 171.5 -136t62.5 -210q0 -198 -133 -307t-375 -109zM485 1145v-250h242q80 0 123 32t43 93t-43 93t-123 32h-242zM766 594h-281v-266h281q74 0 117 36t43 97t-43 97t-117 36z" />
    <glyph glyph-name="C" unicode="C" horiz-adv-x="1390" 
d="M743 1147q-135 0 -219 -113.5t-84 -298.5t83.5 -298t219.5 -113q100 0 169 62.5t89 172.5l377 -125q-72 -221 -236 -340t-397 -119q-154 0 -286.5 57.5t-229.5 166.5q-190 212 -190 536q0 158 49 296t141 241q97 109 229.5 166t286.5 57q233 0 397 -119t236 -340
l-377 -125q-20 110 -89 173t-169 63z" />
    <glyph glyph-name="D" unicode="D" horiz-adv-x="1443" 
d="M645 0h-545v1470h545q350 0 551 -192q209 -200 209 -543q0 -342 -209 -542q-202 -193 -551 -193zM492 1133v-795h153q171 0 267 105.5t96 291.5q0 189 -95.5 293.5t-267.5 104.5h-153z" />
    <glyph glyph-name="E" unicode="E" horiz-adv-x="1236" 
d="M100 0v1470h1071v-340h-677v-219h561v-331h-561v-240h677v-340h-1071z" />
    <glyph glyph-name="F" unicode="F" horiz-adv-x="1208" 
d="M494 514v-514h-394v1470h1067v-340h-673v-284h557v-332h-557z" />
    <glyph glyph-name="G" unicode="G" horiz-adv-x="1513" 
d="M1419 0h-348v117q-50 -66 -143.5 -104t-210.5 -38q-149 0 -277.5 57.5t-222.5 166.5q-86 100 -132 235.5t-46 290.5q0 329 192 543q98 110 233 168.5t290 58.5q241 0 407 -117.5t238 -337.5l-383 -122q-20 110 -87 169.5t-173 59.5q-141 0 -228.5 -115t-87.5 -301
q0 -189 88 -303.5t234 -114.5q96 0 166 53.5t90 141.5h-283v317h684v-825z" />
    <glyph glyph-name="H" unicode="H" horiz-adv-x="1521" 
d="M1020 915v555h401v-1470h-401v578h-518v-578h-402v1470h402v-555h518z" />
    <glyph glyph-name="I" unicode="I" horiz-adv-x="602" 
d="M100 1470h402v-1470h-402v1470z" />
    <glyph glyph-name="J" unicode="J" horiz-adv-x="851" 
d="M233 -10q-117 0 -190 12v342q74 -10 137 -10q103 0 146 42t43 140v954h401v-1026q0 -222 -138.5 -338t-398.5 -116z" />
    <glyph glyph-name="K" unicode="K" horiz-adv-x="1441" 
d="M100 1470h402v-591l459 591h462l-501 -600l540 -870h-465l-344 547l-151 -182v-365h-402v1470z" />
    <glyph glyph-name="L" unicode="L" horiz-adv-x="1167" 
d="M1135 0h-1035v1470h402v-1130h633v-340z" />
    <glyph glyph-name="M" unicode="M" horiz-adv-x="1800" 
d="M1311 930l-279 -930h-268l-279 930v-930h-385v1470h564l239 -843l240 843h557v-1470h-389v930z" />
    <glyph glyph-name="N" unicode="N" horiz-adv-x="1517" 
d="M1032 1470h385v-1470h-348l-586 852v-852h-383v1470h394l538 -800v800z" />
    <glyph glyph-name="O" unicode="O" horiz-adv-x="1517" 
d="M233 197q-194 213 -194 538q0 159 50 297.5t144 241.5q200 221 525 221q158 0 292.5 -56.5t233.5 -162.5q94 -105 144.5 -243.5t50.5 -297.5q0 -323 -195 -540q-99 -106 -234 -163t-292 -57q-324 0 -525 222zM758 324q143 0 230 111.5t87 299.5t-87 300t-230 112
t-229.5 -112t-86.5 -300t86.5 -299.5t229.5 -111.5z" />
    <glyph glyph-name="P" unicode="P" horiz-adv-x="1345" 
d="M743 469h-241v-469h-402v1470h643q282 0 434 -130t152 -371q0 -239 -153.5 -369.5t-432.5 -130.5zM502 1135v-332h221q102 0 155.5 43t53.5 123q0 82 -53 124t-156 42h-221z" />
    <glyph glyph-name="Q" unicode="Q" horiz-adv-x="1517" 
d="M233 197q-194 213 -194 538q0 159 50 297.5t144 241.5q200 221 525 221q158 0 292.5 -56.5t233.5 -162.5q94 -105 144.5 -243.5t50.5 -297.5q0 -182 -64.5 -334.5t-183.5 -257.5q38 -49 98.5 -81.5t159.5 -57.5l-229 -283q-109 32 -200 106t-134 165q-97 -17 -168 -17
q-324 0 -525 222zM758 324q143 0 230 111.5t87 299.5t-87 300t-230 112t-229.5 -112t-86.5 -300t86.5 -299.5t229.5 -111.5z" />
    <glyph glyph-name="R" unicode="R" horiz-adv-x="1384" 
d="M627 487h-125v-487h-402v1470h643q277 0 431.5 -129t154.5 -362q0 -155 -76 -269t-217 -171l338 -539h-459zM502 1135v-330h221q100 0 154.5 43t54.5 121q0 82 -53 124t-156 42h-221z" />
    <glyph glyph-name="S" unicode="S" horiz-adv-x="1249" 
d="M608 -25q-189 0 -372 68q-184 71 -271 178l219 291q88 -98 203.5 -152.5t237.5 -54.5q97 0 150.5 34t53.5 95q0 43 -30 68t-109 45q-21 2 -190 39q-205 42 -316 121q-135 108 -135 301q0 226 182 366q160 121 404 121q175 0 326.5 -60t250.5 -167l-217 -271
q-73 82 -168.5 125t-201.5 43q-85 0 -134 -30.5t-49 -85.5q0 -37 25 -59.5t86 -41.5l39 -10l119 -25q143 -30 219 -55.5t133 -62.5q164 -111 164 -320q0 -116 -50.5 -213.5t-144.5 -165.5q-171 -121 -424 -121z" />
    <glyph glyph-name="T" unicode="T" horiz-adv-x="1331" 
d="M1298 1470v-340h-432v-1130h-401v1130h-432v340h1265z" />
    <glyph glyph-name="U" unicode="U" horiz-adv-x="1443" 
d="M721 -23q-301 0 -469 163.5t-168 459.5v870h399v-858q0 -141 60.5 -213.5t177.5 -72.5t177 72.5t60 213.5v858h402v-870q0 -295 -168.5 -459t-470.5 -164z" />
    <glyph glyph-name="V" unicode="V" horiz-adv-x="1488" 
d="M1483 1470l-533 -1470h-411l-533 1470h428l318 -946l319 946h412z" />
    <glyph glyph-name="W" unicode="W" horiz-adv-x="1990" 
d="M631 598l205 872h329l207 -872l205 872h408l-388 -1470h-385l-217 868l-217 -868h-385l-387 1470h418z" />
    <glyph glyph-name="X" unicode="X" horiz-adv-x="1480" 
d="M1010 1470h440l-475 -720l500 -750h-453l-289 451l-287 -451h-440l500 750l-475 720h450l262 -417z" />
    <glyph glyph-name="Y" unicode="Y" horiz-adv-x="1431" 
d="M422 1470l303 -528l301 528h420l-528 -892v-578h-402v578l-530 892h436z" />
    <glyph glyph-name="Z" unicode="Z" horiz-adv-x="1327" 
d="M588 340h682v-340h-1204v299l684 831h-676v340h1188v-296z" />
    <glyph glyph-name="bracketleft" unicode="[" horiz-adv-x="708" 
d="M688 1223h-237v-1137h237v-287h-606v1712h606v-288z" />
    <glyph glyph-name="backslash" unicode="\" horiz-adv-x="1026" 
d="M1006 -201h-392l-594 1712h392z" />
    <glyph glyph-name="bracketright" unicode="]" horiz-adv-x="708" 
d="M258 86v1137h-238v288h607v-1712h-607v287h238z" />
    <glyph glyph-name="asciicircum" unicode="^" horiz-adv-x="1081" 
d="M25 823l331 647h369l332 -647h-357l-159 324l-160 -324h-356z" />
    <glyph glyph-name="underscore" unicode="_" horiz-adv-x="980" 
d="M885 -393h-789v303h789v-303z" />
    <glyph glyph-name="grave" unicode="`" horiz-adv-x="1228" 
d="M813 1470l100 -313h-303l-250 313h453z" />
    <glyph glyph-name="a" unicode="a" horiz-adv-x="1179" 
d="M725 90q-113 -110 -315 -110q-165 0 -275 90q-104 88 -104 231q0 307 456 354l201 27v16q0 107 -123 107q-112 0 -133 -109l-375 43q36 167 177 267t348 100q233 0 360 -101t127 -286v-383q0 -37 17.5 -50t60.5 -7v-277q-148 -31 -258 -7.5t-164 95.5zM514 252
q79 0 126.5 38t47.5 103v58l-158 -23q-65 -10 -93.5 -32.5t-28.5 -61.5t27.5 -60.5t78.5 -21.5z" />
    <glyph glyph-name="b" unicode="b" horiz-adv-x="1257" 
d="M1108 154q-125 -179 -348 -179q-87 0 -162 33.5t-119 93.5v-102h-389v1470h389v-489q43 57 118.5 91t162.5 34q223 0 348 -178q111 -154 111 -387t-111 -387zM651 778q-80 0 -126 -57t-46 -156v-51q0 -98 46 -154.5t126 -56.5q81 0 128.5 64.5t47.5 173.5t-47 173
t-129 64z" />
    <glyph glyph-name="c" unicode="c" horiz-adv-x="1105" 
d="M596 791q-84 0 -130 -65.5t-46 -184.5t46 -184.5t130 -65.5q61 0 102.5 42.5t55.5 117.5l340 -115q-17 -80 -65 -149.5t-120 -118.5q-139 -93 -317 -93q-251 0 -402 160q-153 153 -153 406q0 252 153 405q151 160 402 160q181 0 315 -90q149 -100 185 -266l-338 -117
q-14 75 -55 116.5t-103 41.5z" />
    <glyph glyph-name="d" unicode="d" horiz-adv-x="1257" 
d="M498 -25q-223 0 -348 179q-111 154 -111 387t111 387q125 178 348 178q87 0 162 -34t118 -91v489h389v-1470h-389v102q-44 -60 -118.5 -93.5t-161.5 -33.5zM778 514v51q0 99 -46 156t-126 57q-82 0 -129 -64t-47 -173t47.5 -173.5t128.5 -64.5q80 0 126 56.5t46 154.5z
" />
    <glyph glyph-name="e" unicode="e" horiz-adv-x="1161" 
d="M602 -25q-257 0 -409 158q-75 75 -115.5 181t-40.5 229q0 243 160 403t401 160q247 0 389 -160q137 -152 137 -401v-88h-710q17 -86 68 -133.5t126 -47.5q145 0 187 123l319 -96q-55 -152 -194 -240t-318 -88zM594 817q-64 0 -108.5 -37t-63.5 -108h326q-5 64 -47 104.5
t-107 40.5z" />
    <glyph glyph-name="f" unicode="f" horiz-adv-x="731" 
d="M580 1487q61 0 135 -10v-287q-20 1 -43 2.5t-31 1.5q-62 0 -86.5 -20.5t-24.5 -71.5v-21h183v-315h-183v-766h-389v766h-131v315h131v39q0 189 106.5 278t332.5 89z" />
    <glyph glyph-name="g" unicode="g" horiz-adv-x="1267" 
d="M1178 1081v-938q0 -245 -159.5 -383.5t-438.5 -138.5q-217 0 -356.5 86t-176.5 244l373 69q13 -53 60.5 -82.5t115.5 -29.5q92 0 142 48.5t50 139.5v66q-38 -54 -116 -87.5t-168 -33.5q-208 0 -334 147q-125 146 -125 383q0 224 115 373q128 162 344 162
q90 0 167.5 -34.5t116.5 -90.5v100h390zM788 553v41q0 93 -46 146t-126 53q-82 0 -128 -58.5t-46 -161.5t46 -162t128 -59q80 0 126 53.5t46 147.5z" />
    <glyph glyph-name="h" unicode="h" horiz-adv-x="1224" 
d="M479 0h-389v1470h389v-489q51 57 130 91t165 34q165 0 264 -106.5t99 -284.5v-715h-389v606q0 74 -32.5 115t-92.5 41q-64 0 -104 -43.5t-40 -114.5v-604z" />
    <glyph glyph-name="i" unicode="i" horiz-adv-x="571" 
d="M481 1167h-391v303h391v-303zM90 1081h389v-1081h-389v1081z" />
    <glyph glyph-name="j" unicode="j" horiz-adv-x="571" 
d="M481 1167h-391v303h391v-303zM-18 -86q57 0 82.5 21.5t25.5 68.5v1077h389v-1069q0 -190 -102.5 -287.5t-300.5 -97.5q-95 0 -158 8v285q33 -6 64 -6z" />
    <glyph glyph-name="k" unicode="k" horiz-adv-x="1230" 
d="M90 1470h389v-725l291 336h449l-371 -393l397 -688h-438l-232 397l-96 -100v-297h-389v1470z" />
    <glyph glyph-name="l" unicode="l" horiz-adv-x="571" 
d="M90 1470h389v-1470h-389v1470z" />
    <glyph glyph-name="m" unicode="m" horiz-adv-x="1865" 
d="M616 762q-62 0 -99.5 -43t-37.5 -115v-604h-389v1081h389v-100q51 60 128 92.5t165 32.5q99 0 180 -38.5t125 -106.5q136 145 336 145q166 0 265.5 -106.5t99.5 -284.5v-715h-389v606q0 74 -31.5 115t-91.5 41q-62 0 -100 -43t-38 -115v-604h-389v606q0 74 -31.5 115
t-91.5 41z" />
    <glyph glyph-name="n" unicode="n" horiz-adv-x="1224" 
d="M479 0h-389v1081h389v-100q51 57 130 91t165 34q165 0 264 -106.5t99 -284.5v-715h-389v606q0 74 -32.5 115t-92.5 41q-64 0 -104 -43.5t-40 -114.5v-604z" />
    <glyph glyph-name="o" unicode="o" horiz-adv-x="1187" 
d="M997 948q152 -161 152 -407q0 -247 -152 -408q-158 -158 -403 -158q-120 0 -224 41t-180 117q-153 159 -153 408q0 248 153 407q76 76 180 117t224 41q245 0 403 -158zM594 793q-82 0 -128 -65.5t-46 -186.5q0 -122 44.5 -187t129.5 -65q82 0 127 65.5t45 186.5
t-45 186.5t-127 65.5z" />
    <glyph glyph-name="p" unicode="p" horiz-adv-x="1257" 
d="M1108 154q-125 -179 -348 -179q-87 0 -162 33.5t-119 93.5v-456h-389v1435h389v-100q43 57 118.5 91t162.5 34q223 0 348 -178q111 -154 111 -387t-111 -387zM651 778q-80 0 -126 -57t-46 -156v-51q0 -98 46 -154.5t126 -56.5q81 0 128.5 64.5t47.5 173.5t-47 173
t-129 64z" />
    <glyph glyph-name="q" unicode="q" horiz-adv-x="1257" 
d="M498 -25q-223 0 -348 179q-111 154 -111 387t111 387q125 178 348 178q87 0 162 -34t118 -91v100h389v-1435h-389v456q-44 -60 -118.5 -93.5t-161.5 -33.5zM778 514v51q0 99 -46 156t-126 57q-82 0 -129 -64t-47 -173t47.5 -173.5t128.5 -64.5q80 0 126 56.5t46 154.5z
" />
    <glyph glyph-name="r" unicode="r" horiz-adv-x="854" 
d="M745 1087q9 0 30 -1.5t42 -2.5v-366q-52 8 -98 8q-109 0 -174.5 -59.5t-65.5 -161.5v-504h-389v1081h389v-127q42 62 112 97.5t154 35.5z" />
    <glyph glyph-name="s" unicode="s" horiz-adv-x="1062" 
d="M504 -23q-141 0 -287 41q-137 39 -217 107l145 264q74 -59 180.5 -96t198.5 -37q127 0 127 61q0 27 -20.5 40.5t-79.5 25.5l-72 12l-59 11q-178 33 -256 83q-115 77 -115 236q0 172 137 276q138 105 355 105q138 0 265 -41t210 -111l-164 -237q-143 112 -305 112
q-51 0 -79 -15.5t-28 -41.5q0 -23 16.5 -34.5t61.5 -22.5l105 -19q200 -34 278 -88q133 -81 133 -246q0 -176 -145 -282q-145 -103 -385 -103z" />
    <glyph glyph-name="t" unicode="t" horiz-adv-x="776" 
d="M514 -10q-197 0 -286 74.5t-89 238.5v463h-131v315h131v287h383v-287h201v-315h-201v-346q0 -58 26 -81.5t93 -23.5q24 0 88 7v-316q-115 -16 -215 -16z" />
    <glyph glyph-name="u" unicode="u" horiz-adv-x="1224" 
d="M745 1081h390v-1081h-390v100q-113 -125 -288 -125q-168 0 -269 107q-100 106 -100 285v714h389v-620q0 -72 33 -111t94 -39q64 0 102.5 42.5t38.5 113.5v614z" />
    <glyph glyph-name="v" unicode="v" horiz-adv-x="1146" 
d="M1149 1081l-385 -1081h-383l-383 1081h397l189 -602l184 602h381z" />
    <glyph glyph-name="w" unicode="w" horiz-adv-x="1617" 
d="M539 508l139 573h276l144 -573l147 573h375l-328 -1081h-334l-149 518l-150 -518h-333l-328 1081h389z" />
    <glyph glyph-name="x" unicode="x" horiz-adv-x="1163" 
d="M1171 0h-426l-172 272l-170 -272h-409l364 555l-348 526h426l152 -241l155 241h410l-350 -526z" />
    <glyph glyph-name="y" unicode="y" horiz-adv-x="1146" 
d="M1149 1081l-387 -1048q-80 -215 -166 -295q-111 -111 -309 -111q-101 0 -142 6v299q31 -6 82 -6q55 0 85 19t44 61l19 45l-377 1030h397l189 -594l184 594h381z" />
    <glyph glyph-name="z" unicode="z" horiz-adv-x="1077" 
d="M563 315h451v-315h-953v276l471 490h-464v315h942v-276z" />
    <glyph glyph-name="braceleft" unicode="{" horiz-adv-x="804" 
d="M137 504h-96v303h96q86 0 86 102v240q0 171 111 266.5t311 95.5h139v-288h-59q-152 0 -152 -150v-199q0 -157 -127 -219q127 -62 127 -219v-198q0 -150 152 -150h59v-289h-139q-200 0 -311 96t-111 267v239q0 103 -86 103z" />
    <glyph glyph-name="bar" unicode="|" horiz-adv-x="606" 
d="M492 -201h-377v1712h377v-1712z" />
    <glyph glyph-name="braceright" unicode="}" horiz-adv-x="804" 
d="M764 807v-303h-96q-86 0 -86 -103v-239q0 -171 -111 -267t-311 -96h-140v289h60q151 0 151 150v198q0 157 127 219q-127 62 -127 219v199q0 150 -151 150h-60v288h140q200 0 311 -95.5t111 -266.5v-240q0 -102 86 -102h96z" />
    <glyph glyph-name="asciitilde" unicode="~" horiz-adv-x="1089" 
d="M381 887q37 0 71 -12t89 -46q64 -41 98 -41q39 0 60 23.5t28 77.5h281q-5 -198 -85 -316t-214 -118q-37 0 -71.5 12t-88.5 47q-68 41 -98 41q-39 0 -60.5 -23.5t-28.5 -76.5h-280q5 196 85.5 314t213.5 118z" />
    <glyph glyph-name="uni00A0" unicode="&#xa0;" horiz-adv-x="395" 
 />
    <glyph glyph-name="exclamdown" unicode="&#xa1;" horiz-adv-x="552" 
d="M125 975h303l88 -975h-479zM57 1470h437v-403h-437v403z" />
    <glyph glyph-name="cent" unicode="&#xa2;" horiz-adv-x="1183" 
d="M758 -197h-246v183q-215 38 -344 194q-127 157 -127 383t127 383q130 158 344 195v188h246v-188q136 -26 238.5 -105t162.5 -202l-250 -170q-40 117 -151 165v-532q111 48 151 166l250 -170q-60 -123 -162.5 -202t-238.5 -105v-183zM365 563q0 -92 39 -161t108 -101v524
q-69 -32 -108 -101t-39 -161z" />
    <glyph glyph-name="sterling" unicode="&#xa3;" horiz-adv-x="1386" 
d="M401 569h-245v230h112q-61 107 -61 211q0 108 45.5 201t130.5 161q160 123 391 123q228 0 379 -117q164 -130 164 -352q0 -78 -25 -164h-377q23 64 23 129q0 78 -44.5 124t-119.5 46q-78 0 -125 -49t-47 -127q0 -43 25 -98l53 -88h229v-230h-166v-6q0 -115 -32 -207
q81 -37 153 -37q163 0 166 185h348q0 -243 -118 -385q-120 -144 -318 -144q-214 0 -369 129q-117 -129 -270 -129q-131 0 -215 77t-84 200q0 116 83.5 191t209.5 75q59 0 121 -16q-6 37 -17 67zM311 319q-31 0 -49 -16t-18 -45q0 -26 16 -41.5t41 -15.5q55 0 90 78
q-45 40 -80 40z" />
    <glyph glyph-name="yen" unicode="&#xa5;" horiz-adv-x="1394" 
d="M496 342h-320v236h320v81h-320v234h203l-379 577h457l248 -415l247 415h443l-377 -577h203v-234h-320v-81h320v-236h-320v-342h-405v342z" />
    <glyph glyph-name="section" unicode="&#xa7;" horiz-adv-x="1105" 
d="M518 -25q-139 0 -285 41q-137 39 -217 107l138 260q73 -59 182.5 -95t204.5 -36q127 0 127 63q0 25 -21 38.5t-82 25.5q-14 3 -65.5 11t-65.5 11q-201 36 -287 112.5t-86 209.5q0 117 95 223q-66 78 -66 197q0 156 131 254t342 98q141 0 268 -41t209 -113l-166 -229
q-140 115 -305 115q-49 0 -77.5 -17.5t-28.5 -48.5q0 -21 17.5 -34t60.5 -23l59 -12q44 -9 47 -9q199 -37 279 -86q133 -81 133 -245q0 -120 -72 -207q66 -66 66 -183q0 -176 -148 -282q-147 -105 -387 -105zM494 702q11 -3 127 -24q2 0 22 -4t42 -8t34 -7q26 14 26 50
q0 29 -24.5 45.5t-91.5 29.5l-39 9l-113 20l-51 10q-31 -19 -31 -53q0 -25 22 -40.5t77 -27.5z" />
    <glyph glyph-name="dieresis" unicode="&#xa8;" horiz-adv-x="1228" 
d="M573 1167h-364v303h364v-303zM1020 1167h-365v303h365v-303z" />
    <glyph glyph-name="copyright" unicode="&#xa9;" horiz-adv-x="1648" 
d="M1366 1278q105 -106 161 -246t56 -297q0 -155 -56.5 -295.5t-160.5 -244.5q-106 -106 -246 -163t-295 -57t-294.5 57t-245.5 163q-105 105 -161 244t-56 296q0 159 56 299t161 244q104 104 244.5 160.5t295.5 56.5t296 -56.5t245 -160.5zM1231 328q164 164 164 407
q0 118 -42 224t-120 186q-80 78 -186 121t-222 43t-221.5 -43t-185.5 -121q-79 -79 -121.5 -185t-42.5 -225q0 -243 164 -407q80 -80 185 -123t222 -43t222.5 43t183.5 123zM836 301q-184 0 -304 123q-118 121 -118 313q0 193 118 314q120 123 304 123q141 0 239.5 -68.5
t141.5 -196.5l-273 -96q-7 47 -36 73.5t-72 26.5q-60 0 -95.5 -48t-35.5 -128t35.5 -128t95.5 -48q43 0 72 27t36 74l273 -97q-43 -127 -141.5 -195.5t-239.5 -68.5z" />
    <glyph glyph-name="ordfeminine" unicode="&#xaa;" horiz-adv-x="901" 
d="M555 758q-83 -80 -227 -80q-121 0 -197 64t-76 167q0 216 324 254l151 21v12q0 82 -92 82q-87 0 -102 -82l-260 31q25 119 125.5 189.5t247.5 70.5q165 0 254.5 -72t89.5 -205v-280q0 -29 13 -38.5t44 -4.5v-193q-103 -20 -180.5 -3.5t-114.5 67.5zM397 868q60 0 96.5 29
t36.5 76v49l-120 -18q-91 -14 -91 -74q0 -29 20.5 -45.5t57.5 -16.5zM848 365h-787v213h787v-213z" />
    <glyph glyph-name="guillemotleft" unicode="&#xab;" horiz-adv-x="1122" 
d="M528 68l-477 305v319l477 305v-356l-157 -109l157 -108v-356zM1071 68l-477 305v319l477 305v-356l-158 -109l158 -108v-356z" />
    <glyph glyph-name="registered" unicode="&#xae;" horiz-adv-x="1069" 
d="M868 1360q136 -136 136 -334q0 -202 -136 -332q-135 -135 -333 -135q-203 0 -332 135q-135 129 -135 332q0 199 135 334q129 135 332 135q198 0 333 -135zM801 758q108 108 108 268q0 158 -106 270q-111 111 -268 111q-158 0 -269 -111q-106 -112 -106 -270
q0 -160 108 -268q50 -53 120.5 -82t146.5 -29t146 29t120 82zM668 985l112 -186h-178l-76 143h-51v-143h-158v471h240q92 0 144.5 -42t52.5 -116q0 -82 -86 -127zM588 1098q0 20 -15.5 32.5t-40.5 12.5h-57v-88h57q26 0 41 11.5t15 31.5z" />
    <glyph glyph-name="overscore" unicode="&#xaf;" horiz-adv-x="1228" 
d="M965 1454v-278h-701v278h701z" />
    <glyph glyph-name="degree" unicode="&#xb0;" horiz-adv-x="704" 
d="M20 1157q0 138 97 240q98 98 235 98q141 0 236 -100q96 -96 96 -238q0 -132 -96 -235q-96 -101 -236 -101q-136 0 -235 99q-97 102 -97 237zM219 1157q0 -56 39 -95.5t94 -39.5t93 39.5t38 95.5q0 57 -38 97t-93 40t-94 -40t-39 -97z" />
    <glyph glyph-name="twosuperior" unicode="&#xb2;" horiz-adv-x="778" 
d="M76 655v201l264 201q53 41 74.5 70.5t21.5 60.5q0 27 -16 44t-45 17q-27 0 -44.5 -19.5t-17.5 -49.5q0 -25 13 -60h-248q-12 34 -12 76q0 127 92 207q91 82 227 82q141 0 226 -75t85 -198q0 -66 -33 -123t-108 -118l-109 -84h256v-232h-626z" />
    <glyph glyph-name="threesuperior" unicode="&#xb3;" horiz-adv-x="778" 
d="M711 889q0 -109 -87.5 -178.5t-226.5 -69.5q-143 0 -233 69t-103 191l267 37q2 -32 20 -52t47 -20t45.5 14.5t16.5 39.5q0 26 -18.5 40.5t-51.5 14.5h-76v178h66q32 0 50.5 14.5t18.5 40.5q0 24 -14.5 38t-40.5 14t-43 -19.5t-22 -50.5l-254 16q14 125 104.5 202
t226.5 77q134 0 218 -70.5t84 -181.5q0 -53 -31 -100t-76 -66q113 -53 113 -178z" />
    <glyph glyph-name="acute" unicode="&#xb4;" horiz-adv-x="1228" 
d="M618 1157h-303l101 313h452z" />
    <glyph glyph-name="paragraph" unicode="&#xb6;" horiz-adv-x="1314" 
d="M1090 0h-336v1182h-125v-629h-117q-208 0 -340 123q-129 126 -129 330q0 208 139 335q141 129 373 129h702v-288h-167v-1182z" />
    <glyph glyph-name="middot" unicode="&#xb7;" horiz-adv-x="600" 
d="M518 393h-436v418h436v-418z" />
    <glyph glyph-name="cedilla" unicode="&#xb8;" horiz-adv-x="1228" 
d="M846 -197q0 -81 -73.5 -131.5t-190.5 -50.5q-73 0 -135.5 19.5t-100.5 54.5l96 145q43 -49 103 -49q65 0 65 39q0 23 -27.5 33.5t-97.5 15.5l45 146h160l-18 -62q174 -24 174 -160z" />
    <glyph glyph-name="onesuperior" unicode="&#xb9;" horiz-adv-x="778" 
d="M283 887v268h-179v184l82 7q127 9 150 124h215v-583h137v-232h-582v232h177z" />
    <glyph glyph-name="ordmasculine" unicode="&#xba;" horiz-adv-x="921" 
d="M461 1487q177 0 287 -113t110 -293t-110 -293q-109 -112 -287 -112t-287 112q-111 114 -111 293t111 293q110 113 287 113zM461 1270q-62 0 -96.5 -49.5t-34.5 -139.5t34 -138t97 -48t97 48t34 138t-34.5 139.5t-96.5 49.5zM834 365h-744v213h744v-213z" />
    <glyph glyph-name="guillemotright" unicode="&#xbb;" horiz-adv-x="1122" 
d="M1071 692v-319l-477 -305v356l158 108l-158 109v356zM528 692v-319l-477 -305v356l158 108l-158 109v356z" />
    <glyph glyph-name="onequarter" unicode="&#xbc;" horiz-adv-x="1826" 
d="M1696 162v-162h-242v162h-375v190l289 463h328v-448h108v-205h-108zM1448 623l-166 -256h166v256zM322 0l1024 1470h272l-1022 -1470h-274zM283 887v268h-179v184l82 7q127 9 150 124h215v-583h137v-232h-582v232h177z" />
    <glyph glyph-name="onehalf" unicode="&#xbd;" horiz-adv-x="1878" 
d="M322 0l1024 1470h272l-1022 -1470h-274zM1176 0v201l264 200q53 41 74.5 70.5t21.5 60.5q0 27 -16.5 44.5t-44.5 17.5q-26 0 -44 -20t-18 -50q0 -27 12 -59h-247q-13 37 -13 76q0 127 92 207q90 81 228 81q141 0 226 -74.5t85 -197.5q0 -66 -33 -123.5t-108 -118.5
l-109 -84h256v-231h-626zM283 887v268h-179v184l82 7q127 9 150 124h215v-583h137v-232h-582v232h177z" />
    <glyph glyph-name="threequarters" unicode="&#xbe;" horiz-adv-x="1785" 
d="M1663 162v-162h-242v162h-374v190l288 463h328v-448h109v-205h-109zM1415 623l-166 -256h166v256zM287 0l1024 1470h272l-1022 -1470h-274zM711 889q0 -109 -87.5 -178.5t-226.5 -69.5q-143 0 -233 69t-103 191l267 37q2 -32 20 -52t47 -20t45.5 14.5t16.5 39.5
q0 26 -18.5 40.5t-51.5 14.5h-76v178h66q32 0 50.5 14.5t18.5 40.5q0 24 -14.5 38t-40.5 14t-43 -19.5t-22 -50.5l-254 16q14 125 104.5 202t226.5 77q134 0 218 -70.5t84 -181.5q0 -53 -31 -100t-76 -66q113 -53 113 -178z" />
    <glyph glyph-name="questiondown" unicode="&#xbf;" horiz-adv-x="1193" 
d="M455 485q0 -68 40.5 -106.5t112.5 -38.5q74 0 121 49.5t53 134.5l412 -53q-25 -226 -211 -362q-165 -121 -408 -121q-226 0 -374 112q-80 62 -123 150t-43 192q0 158 94 265q98 112 246 137v143h383l-6 -344q-155 0 -226 -38t-71 -120zM350 1483h436v-404h-436v404z" />
    <glyph glyph-name="Agrave" unicode="&#xc0;" horiz-adv-x="1536" 
d="M6 0l531 1470h462l531 -1470h-408l-94 266h-532l-93 -266h-397zM915 588l-153 438l-154 -438h307zM797 1884l139 -342h-326l-317 342h504z" />
    <glyph glyph-name="Aacute" unicode="&#xc1;" horiz-adv-x="1536" 
d="M6 0l531 1470h462l531 -1470h-408l-94 266h-532l-93 -266h-397zM915 588l-153 438l-154 -438h307zM938 1542h-326l140 342h503z" />
    <glyph glyph-name="Acircumflex" unicode="&#xc2;" horiz-adv-x="1536" 
d="M6 0l531 1470h462l531 -1470h-408l-94 266h-532l-93 -266h-397zM915 588l-153 438l-154 -438h307zM578 1884h380l234 -342h-281l-143 121l-143 -121h-281z" />
    <glyph glyph-name="Atilde" unicode="&#xc3;" horiz-adv-x="1536" 
d="M6 0l531 1470h462l531 -1470h-408l-94 266h-532l-93 -266h-397zM915 588l-153 438l-154 -438h307zM623 1925q37 0 69 -11.5t86 -45.5q58 -39 90 -39q37 0 57 22.5t27 73.5h252q-5 -178 -79 -280.5t-201 -102.5q-37 0 -69.5 12t-86.5 48q-56 38 -90 38q-35 0 -54.5 -23.5
t-27.5 -74.5h-254q5 178 79.5 280.5t201.5 102.5z" />
    <glyph glyph-name="Adieresis" unicode="&#xc4;" horiz-adv-x="1536" 
d="M6 0l531 1470h462l531 -1470h-408l-94 266h-532l-93 -266h-397zM915 588l-153 438l-154 -438h307zM723 1542h-363v326h363v-326zM1176 1542h-363v326h363v-326z" />
    <glyph glyph-name="Aring" unicode="&#xc5;" horiz-adv-x="1536" 
d="M459 1624q0 123 88 205q90 84 221 84t221 -84q88 -82 88 -205q0 -105 -67 -184l520 -1440h-408l-94 266h-532l-93 -266h-397l520 1440q-67 79 -67 184zM768 1724q-43 0 -70.5 -28t-27.5 -72t27.5 -73t70.5 -29t70.5 29t27.5 73t-27.5 72t-70.5 28zM915 588l-153 438
l-154 -438h307z" />
    <glyph glyph-name="AE" unicode="&#xc6;" horiz-adv-x="2136" 
d="M0 0l774 1470h1297v-340h-676v-219h559v-331h-559v-240h676v-340h-1072v272h-442l-143 -272h-414zM999 1106l-272 -512h272v512z" />
    <glyph glyph-name="Ccedilla" unicode="&#xc7;" horiz-adv-x="1390" 
d="M743 1147q-135 0 -219 -113.5t-84 -298.5t83.5 -298t219.5 -113q100 0 169 62.5t89 172.5l377 -125q-68 -211 -221.5 -330t-374.5 -129l-4 -12q174 -24 174 -160q0 -81 -73.5 -131.5t-190.5 -50.5q-155 0 -235 74l96 145q43 -49 102 -49q66 0 66 39q0 23 -27.5 33.5
t-97.5 15.5l33 107q-270 41 -435 260q-151 205 -151 489q0 158 49 296t141 241q97 109 229.5 166t286.5 57q233 0 397 -119t236 -340l-377 -125q-20 110 -89 173t-169 63z" />
    <glyph glyph-name="Egrave" unicode="&#xc8;" horiz-adv-x="1236" 
d="M100 0v1470h1071v-340h-677v-219h561v-331h-561v-240h677v-340h-1071zM731 1884l139 -342h-325l-318 342h504z" />
    <glyph glyph-name="Eacute" unicode="&#xc9;" horiz-adv-x="1236" 
d="M100 0v1470h1071v-340h-677v-219h561v-331h-561v-240h677v-340h-1071zM754 1542h-326l139 342h504z" />
    <glyph glyph-name="Ecircumflex" unicode="&#xca;" horiz-adv-x="1236" 
d="M100 0v1470h1071v-340h-677v-219h561v-331h-561v-240h677v-340h-1071zM453 1884h381l233 -342h-281l-143 121l-143 -121h-281z" />
    <glyph glyph-name="Edieresis" unicode="&#xcb;" horiz-adv-x="1236" 
d="M100 0v1470h1071v-340h-677v-219h561v-331h-561v-240h677v-340h-1071zM592 1542h-363v326h363v-326zM1044 1542h-362v326h362v-326z" />
    <glyph glyph-name="Igrave" unicode="&#xcc;" horiz-adv-x="602" 
d="M100 1470h402v-1470h-402v1470zM342 1884l139 -342h-325l-318 342h504z" />
    <glyph glyph-name="Iacute" unicode="&#xcd;" horiz-adv-x="602" 
d="M100 1470h402v-1470h-402v1470zM459 1542h-326l139 342h504z" />
    <glyph glyph-name="Icircumflex" unicode="&#xce;" horiz-adv-x="602" 
d="M100 1470h402v-1470h-402v1470zM109 1884h380l234 -342h-281l-143 121l-143 -121h-281z" />
    <glyph glyph-name="Idieresis" unicode="&#xcf;" horiz-adv-x="602" 
d="M100 1470h402v-1470h-402v1470zM254 1542h-363v326h363v-326zM707 1542h-363v326h363v-326z" />
    <glyph glyph-name="Eth" unicode="&#xd0;" horiz-adv-x="1478" 
d="M680 0h-545v575h-108v340h108v555h545q350 0 551 -192q209 -200 209 -543q0 -342 -209 -542q-202 -193 -551 -193zM526 575v-237h154q171 0 266.5 105t95.5 292q0 189 -95 293.5t-267 104.5h-154v-218h209v-340h-209z" />
    <glyph glyph-name="Ntilde" unicode="&#xd1;" horiz-adv-x="1517" 
d="M1032 1470h385v-1470h-348l-586 852v-852h-383v1470h394l538 -800v800zM612 1925q37 0 70 -11.5t86 -45.5q58 -39 90 -39q37 0 57 22.5t27 73.5h252q-5 -178 -79.5 -280.5t-201.5 -102.5q-36 0 -68.5 12t-86.5 48q-56 38 -90 38q-35 0 -54.5 -23.5t-27.5 -74.5h-254
q5 178 79 280.5t201 102.5z" />
    <glyph glyph-name="Ograve" unicode="&#xd2;" horiz-adv-x="1517" 
d="M233 197q-194 213 -194 538q0 159 50 297.5t144 241.5q200 221 525 221q158 0 292.5 -56.5t233.5 -162.5q94 -105 144.5 -243.5t50.5 -297.5q0 -323 -195 -540q-99 -106 -234 -163t-292 -57q-324 0 -525 222zM758 324q143 0 230 111.5t87 299.5t-87 300t-230 112
t-229.5 -112t-86.5 -300t86.5 -299.5t229.5 -111.5zM793 1884l139 -342h-326l-317 342h504z" />
    <glyph glyph-name="Oacute" unicode="&#xd3;" horiz-adv-x="1517" 
d="M233 197q-194 213 -194 538q0 159 50 297.5t144 241.5q200 221 525 221q158 0 292.5 -56.5t233.5 -162.5q94 -105 144.5 -243.5t50.5 -297.5q0 -323 -195 -540q-99 -106 -234 -163t-292 -57q-324 0 -525 222zM758 324q143 0 230 111.5t87 299.5t-87 300t-230 112
t-229.5 -112t-86.5 -300t86.5 -299.5t229.5 -111.5zM913 1542h-325l139 342h504z" />
    <glyph glyph-name="Ocircumflex" unicode="&#xd4;" horiz-adv-x="1517" 
d="M233 197q-194 213 -194 538q0 159 50 297.5t144 241.5q200 221 525 221q158 0 292.5 -56.5t233.5 -162.5q94 -105 144.5 -243.5t50.5 -297.5q0 -323 -195 -540q-99 -106 -234 -163t-292 -57q-324 0 -525 222zM758 324q143 0 230 111.5t87 299.5t-87 300t-230 112
t-229.5 -112t-86.5 -300t86.5 -299.5t229.5 -111.5zM567 1884h381l234 -342h-281l-143 121l-144 -121h-280z" />
    <glyph glyph-name="Otilde" unicode="&#xd5;" horiz-adv-x="1517" 
d="M233 197q-194 213 -194 538q0 159 50 297.5t144 241.5q200 221 525 221q158 0 292.5 -56.5t233.5 -162.5q94 -105 144.5 -243.5t50.5 -297.5q0 -323 -195 -540q-99 -106 -234 -163t-292 -57q-324 0 -525 222zM758 324q143 0 230 111.5t87 299.5t-87 300t-230 112
t-229.5 -112t-86.5 -300t86.5 -299.5t229.5 -111.5zM608 1925q37 0 70 -11.5t86 -45.5q58 -39 90 -39q37 0 57 22.5t27 73.5h252q-5 -178 -79.5 -280.5t-201.5 -102.5q-36 0 -68.5 12t-86.5 48q-56 38 -90 38q-35 0 -54.5 -23.5t-27.5 -74.5h-254q5 178 79 280.5t201 102.5z
" />
    <glyph glyph-name="Odieresis" unicode="&#xd6;" horiz-adv-x="1517" 
d="M233 197q-194 213 -194 538q0 159 50 297.5t144 241.5q200 221 525 221q158 0 292.5 -56.5t233.5 -162.5q94 -105 144.5 -243.5t50.5 -297.5q0 -323 -195 -540q-99 -106 -234 -163t-292 -57q-324 0 -525 222zM758 324q143 0 230 111.5t87 299.5t-87 300t-230 112
t-229.5 -112t-86.5 -300t86.5 -299.5t229.5 -111.5zM713 1542h-363v326h363v-326zM1165 1542h-362v326h362v-326z" />
    <glyph glyph-name="multiply" unicode="&#xd7;" 
d="M92 389l324 324l-324 323l209 207l322 -321l321 321l209 -207l-322 -323l322 -322l-209 -209l-321 322l-322 -322z" />
    <glyph glyph-name="Oslash" unicode="&#xd8;" horiz-adv-x="1517" 
d="M268 -63l-219 180l127 149q-137 199 -137 469q0 159 50 297.5t144 241.5q200 221 525 221q212 0 377 -100l102 121l221 -179l-115 -135q136 -202 136 -467q0 -323 -195 -540q-99 -106 -234 -163t-292 -57q-210 0 -373 99zM758 1153q-148 0 -235 -113t-87 -305
q0 -63 15 -145l450 530q-67 33 -143 33zM758 317q149 0 236 113t87 305q0 85 -14 142l-449 -527q59 -33 140 -33z" />
    <glyph glyph-name="Ugrave" unicode="&#xd9;" horiz-adv-x="1443" 
d="M721 -23q-301 0 -469 163.5t-168 459.5v870h399v-858q0 -141 60.5 -213.5t177.5 -72.5t177 72.5t60 213.5v858h402v-870q0 -295 -168.5 -459t-470.5 -164zM768 1884l139 -342h-325l-318 342h504z" />
    <glyph glyph-name="Uacute" unicode="&#xda;" horiz-adv-x="1443" 
d="M721 -23q-301 0 -469 163.5t-168 459.5v870h399v-858q0 -141 60.5 -213.5t177.5 -72.5t177 72.5t60 213.5v858h402v-870q0 -295 -168.5 -459t-470.5 -164zM866 1542h-325l139 342h504z" />
    <glyph glyph-name="Ucircumflex" unicode="&#xdb;" horiz-adv-x="1443" 
d="M721 -23q-301 0 -469 163.5t-168 459.5v870h399v-858q0 -141 60.5 -213.5t177.5 -72.5t177 72.5t60 213.5v858h402v-870q0 -295 -168.5 -459t-470.5 -164zM530 1884h381l234 -342h-281l-143 121l-143 -121h-281z" />
    <glyph glyph-name="Udieresis" unicode="&#xdc;" horiz-adv-x="1443" 
d="M721 -23q-301 0 -469 163.5t-168 459.5v870h399v-858q0 -141 60.5 -213.5t177.5 -72.5t177 72.5t60 213.5v858h402v-870q0 -295 -168.5 -459t-470.5 -164zM676 1542h-363v326h363v-326zM1128 1542h-362v326h362v-326z" />
    <glyph glyph-name="Yacute" unicode="&#xdd;" horiz-adv-x="1431" 
d="M422 1470l303 -528l301 528h420l-528 -892v-578h-402v578l-530 892h436zM881 1542h-326l139 342h504z" />
    <glyph glyph-name="Thorn" unicode="&#xde;" horiz-adv-x="1345" 
d="M1329 754q0 -239 -153.5 -369.5t-432.5 -130.5h-241v-254h-402v1470h402v-215h241q282 0 434 -130t152 -371zM723 922h-221v-336h221q100 0 154.5 44t54.5 124q0 82 -53.5 125t-155.5 43z" />
    <glyph glyph-name="germandbls" unicode="&#xdf;" horiz-adv-x="1259" 
d="M647 1495q200 0 334 -96q75 -54 115.5 -131.5t40.5 -169.5q0 -211 -160 -299q123 -54 188.5 -150t65.5 -225q0 -203 -148 -326q-134 -110 -344 -110q-109 0 -186 14v289q59 -10 123 -10q88 0 140 45.5t52 124.5q0 167 -223 167h-90v306h61q79 0 122.5 36.5t43.5 102.5
q0 60 -37.5 93.5t-103.5 33.5q-82 0 -125 -59.5t-43 -172.5v-958h-383v942q0 258 149.5 405.5t407.5 147.5z" />
    <glyph glyph-name="agrave" unicode="&#xe0;" horiz-adv-x="1179" 
d="M725 90q-113 -110 -315 -110q-165 0 -275 90q-104 88 -104 231q0 307 456 354l201 27v16q0 107 -123 107q-112 0 -133 -109l-375 43q36 167 177 267t348 100q233 0 360 -101t127 -286v-383q0 -37 17.5 -50t60.5 -7v-277q-148 -31 -258 -7.5t-164 95.5zM514 252
q79 0 126.5 38t47.5 103v58l-158 -23q-65 -10 -93.5 -32.5t-28.5 -61.5t27.5 -60.5t78.5 -21.5zM653 1470l101 -313h-303l-250 313h452z" />
    <glyph glyph-name="aacute" unicode="&#xe1;" horiz-adv-x="1179" 
d="M725 90q-113 -110 -315 -110q-165 0 -275 90q-104 88 -104 231q0 307 456 354l201 27v16q0 107 -123 107q-112 0 -133 -109l-375 43q36 167 177 267t348 100q233 0 360 -101t127 -286v-383q0 -37 17.5 -50t60.5 -7v-277q-148 -31 -258 -7.5t-164 95.5zM514 252
q79 0 126.5 38t47.5 103v58l-158 -23q-65 -10 -93.5 -32.5t-28.5 -61.5t27.5 -60.5t78.5 -21.5zM731 1157h-303l101 313h452z" />
    <glyph glyph-name="acircumflex" unicode="&#xe2;" horiz-adv-x="1179" 
d="M725 90q-113 -110 -315 -110q-165 0 -275 90q-104 88 -104 231q0 307 456 354l201 27v16q0 107 -123 107q-112 0 -133 -109l-375 43q36 167 177 267t348 100q233 0 360 -101t127 -286v-383q0 -37 17.5 -50t60.5 -7v-277q-148 -31 -258 -7.5t-164 95.5zM514 252
q79 0 126.5 38t47.5 103v58l-158 -23q-65 -10 -93.5 -32.5t-28.5 -61.5t27.5 -60.5t78.5 -21.5zM401 1470h373l209 -313h-281l-115 94l-114 -94h-281z" />
    <glyph glyph-name="atilde" unicode="&#xe3;" horiz-adv-x="1179" 
d="M725 90q-113 -110 -315 -110q-165 0 -275 90q-104 88 -104 231q0 307 456 354l201 27v16q0 107 -123 107q-112 0 -133 -109l-375 43q36 167 177 267t348 100q233 0 360 -101t127 -286v-383q0 -37 17.5 -50t60.5 -7v-277q-148 -31 -258 -7.5t-164 95.5zM514 252
q79 0 126.5 38t47.5 103v58l-158 -23q-65 -10 -93.5 -32.5t-28.5 -61.5t27.5 -60.5t78.5 -21.5zM456 1493q32 0 61.5 -11t71.5 -42q49 -35 80 -35q59 0 74 88h229q-5 -156 -71 -246t-181 -90q-60 0 -133 51q-49 35 -80 35t-48 -20.5t-25 -65.5h-230q5 154 72.5 245t179.5 91
z" />
    <glyph glyph-name="adieresis" unicode="&#xe4;" horiz-adv-x="1179" 
d="M725 90q-113 -110 -315 -110q-165 0 -275 90q-104 88 -104 231q0 307 456 354l201 27v16q0 107 -123 107q-112 0 -133 -109l-375 43q36 167 177 267t348 100q233 0 360 -101t127 -286v-383q0 -37 17.5 -50t60.5 -7v-277q-148 -31 -258 -7.5t-164 95.5zM514 252
q79 0 126.5 38t47.5 103v58l-158 -23q-65 -10 -93.5 -32.5t-28.5 -61.5t27.5 -60.5t78.5 -21.5zM547 1167h-365v303h365v-303zM993 1167h-364v303h364v-303z" />
    <glyph glyph-name="aring" unicode="&#xe5;" horiz-adv-x="1179" 
d="M725 90q-113 -110 -315 -110q-165 0 -275 90q-104 88 -104 231q0 307 456 354l201 27v16q0 107 -123 107q-112 0 -133 -109l-375 43q36 167 177 267t348 100q233 0 360 -101t127 -286v-383q0 -37 17.5 -50t60.5 -7v-277q-148 -31 -258 -7.5t-164 95.5zM514 252
q79 0 126.5 38t47.5 103v58l-158 -23q-65 -10 -93.5 -32.5t-28.5 -61.5t27.5 -60.5t78.5 -21.5zM575 1147q-106 0 -176.5 66.5t-70.5 164.5q0 99 71 166.5t176 67.5t176.5 -67.5t71.5 -166.5q0 -98 -71 -164.5t-177 -66.5zM575 1456q-32 0 -52.5 -22.5t-20.5 -55.5
q0 -32 20.5 -53.5t52.5 -21.5t54 21.5t22 53.5t-22 55t-54 23z" />
    <glyph glyph-name="ae" unicode="&#xe6;" horiz-adv-x="1810" 
d="M31 303q0 171 143 269t391 98h123v16q0 57 -31.5 88t-91.5 31q-113 0 -137 -109l-371 49q41 160 183 261q141 100 340 100q208 0 325 -117q151 117 342 117q243 0 391 -160q138 -150 138 -401v-90h-711q17 -86 68.5 -132.5t126.5 -46.5q138 0 186 123l319 -96
q-55 -151 -194.5 -239.5t-319.5 -88.5q-124 0 -230 43t-181 123q-62 -78 -167.5 -121t-238.5 -43q-176 0 -293 91q-110 88 -110 235zM1245 817q-63 0 -108.5 -38t-65.5 -109h326q-5 67 -46 107t-106 40zM406 352q0 -42 30.5 -68t81.5 -26q72 0 121 45.5t49 112.5v39h-98
q-97 0 -140.5 -24.5t-43.5 -78.5z" />
    <glyph glyph-name="ccedilla" unicode="&#xe7;" horiz-adv-x="1105" 
d="M596 791q-84 0 -130 -65.5t-46 -184.5t46 -184.5t130 -65.5q61 0 102.5 42.5t55.5 117.5l340 -115q-27 -143 -154 -246q-122 -101 -301 -113l-4 -14q174 -24 174 -160q0 -81 -73.5 -131.5t-190.5 -50.5q-73 0 -135.5 19.5t-100.5 54.5l97 145q43 -49 102 -49q65 0 65 39
q0 23 -27.5 33.5t-96.5 15.5l32 107q-204 35 -323 184q-121 151 -121 371q0 252 153 405q151 160 402 160q181 0 315 -90q149 -100 185 -266l-338 -117q-14 75 -55 116.5t-103 41.5z" />
    <glyph glyph-name="egrave" unicode="&#xe8;" horiz-adv-x="1161" 
d="M602 -25q-257 0 -409 158q-75 75 -115.5 181t-40.5 229q0 243 160 403t401 160q247 0 389 -160q137 -152 137 -401v-88h-710q17 -86 68 -133.5t126 -47.5q145 0 187 123l319 -96q-55 -152 -194 -240t-318 -88zM594 817q-64 0 -108.5 -37t-63.5 -108h326q-5 64 -47 104.5
t-107 40.5zM659 1470l101 -313h-303l-250 313h452z" />
    <glyph glyph-name="eacute" unicode="&#xe9;" horiz-adv-x="1161" 
d="M602 -25q-257 0 -409 158q-75 75 -115.5 181t-40.5 229q0 243 160 403t401 160q247 0 389 -160q137 -152 137 -401v-88h-710q17 -86 68 -133.5t126 -47.5q145 0 187 123l319 -96q-55 -152 -194 -240t-318 -88zM594 817q-64 0 -108.5 -37t-63.5 -108h326q-5 64 -47 104.5
t-107 40.5zM749 1157h-303l101 313h452z" />
    <glyph glyph-name="ecircumflex" unicode="&#xea;" horiz-adv-x="1161" 
d="M602 -25q-257 0 -409 158q-75 75 -115.5 181t-40.5 229q0 243 160 403t401 160q247 0 389 -160q137 -152 137 -401v-88h-710q17 -86 68 -133.5t126 -47.5q145 0 187 123l319 -96q-55 -152 -194 -240t-318 -88zM594 817q-64 0 -108.5 -37t-63.5 -108h326q-5 64 -47 104.5
t-107 40.5zM418 1470h373l209 -313h-281l-115 94l-114 -94h-281z" />
    <glyph glyph-name="edieresis" unicode="&#xeb;" horiz-adv-x="1161" 
d="M602 -25q-257 0 -409 158q-75 75 -115.5 181t-40.5 229q0 243 160 403t401 160q247 0 389 -160q137 -152 137 -401v-88h-710q17 -86 68 -133.5t126 -47.5q145 0 187 123l319 -96q-55 -152 -194 -240t-318 -88zM594 817q-64 0 -108.5 -37t-63.5 -108h326q-5 64 -47 104.5
t-107 40.5zM565 1167h-364v303h364v-303zM1012 1167h-365v303h365v-303z" />
    <glyph glyph-name="igrave" unicode="&#xec;" horiz-adv-x="571" 
d="M90 1081h389v-1081h-389v1081zM342 1470l100 -313h-303l-250 313h453z" />
    <glyph glyph-name="iacute" unicode="&#xed;" horiz-adv-x="571" 
d="M90 1081h389v-1081h-389v1081zM438 1157h-303l101 313h452z" />
    <glyph glyph-name="icircumflex" unicode="&#xee;" horiz-adv-x="571" 
d="M98 1470h375l195 -313h-281l-102 94l-101 -94h-280zM90 1081h389v-1081h-389v1081z" />
    <glyph glyph-name="idieresis" unicode="&#xef;" horiz-adv-x="571" 
d="M244 1167h-350v303h350v-303zM676 1167h-348v303h348v-303zM90 1081h389v-1081h-389v1081z" />
    <glyph glyph-name="eth" unicode="&#xf0;" horiz-adv-x="1187" 
d="M557 1075q57 0 102 -18q-25 46 -75 96l-377 -90v246l153 37q-4 3 -20 13t-33 23l-92 64l393 49q81 -62 90 -70l297 72v-246l-90 -20q244 -280 244 -641q0 -268 -139 -436q-74 -87 -181 -133t-235 -46q-120 0 -224 41t-180 117q-153 159 -153 408q0 238 141 385
q143 149 379 149zM594 793q-82 0 -128 -65.5t-46 -186.5q0 -122 44.5 -187t129.5 -65q82 0 127 65.5t45 186.5t-45 186.5t-127 65.5z" />
    <glyph glyph-name="ntilde" unicode="&#xf1;" horiz-adv-x="1224" 
d="M479 0h-389v1081h389v-100q51 57 130 91t165 34q165 0 264 -106.5t99 -284.5v-715h-389v606q0 74 -32.5 115t-92.5 41q-64 0 -104 -43.5t-40 -114.5v-604zM501 1493q32 0 61.5 -11t71.5 -42q49 -35 80 -35q59 0 74 88h229q-5 -156 -71 -246t-181 -90q-60 0 -133 51
q-49 35 -80 35t-48 -20.5t-25 -65.5h-230q5 154 72.5 245t179.5 91z" />
    <glyph glyph-name="ograve" unicode="&#xf2;" horiz-adv-x="1187" 
d="M997 948q152 -161 152 -407q0 -247 -152 -408q-158 -158 -403 -158q-120 0 -224 41t-180 117q-153 159 -153 408q0 248 153 407q76 76 180 117t224 41q245 0 403 -158zM594 793q-82 0 -128 -65.5t-46 -186.5q0 -122 44.5 -187t129.5 -65q82 0 127 65.5t45 186.5
t-45 186.5t-127 65.5zM662 1470l100 -313h-303l-250 313h453z" />
    <glyph glyph-name="oacute" unicode="&#xf3;" horiz-adv-x="1187" 
d="M997 948q152 -161 152 -407q0 -247 -152 -408q-158 -158 -403 -158q-120 0 -224 41t-180 117q-153 159 -153 408q0 248 153 407q76 76 180 117t224 41q245 0 403 -158zM594 793q-82 0 -128 -65.5t-46 -186.5q0 -122 44.5 -187t129.5 -65q82 0 127 65.5t45 186.5
t-45 186.5t-127 65.5zM733 1157h-303l101 313h452z" />
    <glyph glyph-name="ocircumflex" unicode="&#xf4;" horiz-adv-x="1187" 
d="M997 948q152 -161 152 -407q0 -247 -152 -408q-158 -158 -403 -158q-120 0 -224 41t-180 117q-153 159 -153 408q0 248 153 407q76 76 180 117t224 41q245 0 403 -158zM594 793q-82 0 -128 -65.5t-46 -186.5q0 -122 44.5 -187t129.5 -65q82 0 127 65.5t45 186.5
t-45 186.5t-127 65.5zM408 1470h373l209 -313h-281l-115 94l-114 -94h-281z" />
    <glyph glyph-name="otilde" unicode="&#xf5;" horiz-adv-x="1187" 
d="M997 948q152 -161 152 -407q0 -247 -152 -408q-158 -158 -403 -158q-120 0 -224 41t-180 117q-153 159 -153 408q0 248 153 407q76 76 180 117t224 41q245 0 403 -158zM594 793q-82 0 -128 -65.5t-46 -186.5q0 -122 44.5 -187t129.5 -65q82 0 127 65.5t45 186.5
t-45 186.5t-127 65.5zM461 1493q32 0 61.5 -11t71.5 -42q49 -35 80 -35q59 0 74 88h229q-5 -156 -71 -246t-181 -90q-60 0 -133 51q-49 35 -80 35t-48 -20.5t-25 -65.5h-230q5 154 72.5 245t179.5 91z" />
    <glyph glyph-name="odieresis" unicode="&#xf6;" horiz-adv-x="1187" 
d="M997 948q152 -161 152 -407q0 -247 -152 -408q-158 -158 -403 -158q-120 0 -224 41t-180 117q-153 159 -153 408q0 248 153 407q76 76 180 117t224 41q245 0 403 -158zM594 793q-82 0 -128 -65.5t-46 -186.5q0 -122 44.5 -187t129.5 -65q82 0 127 65.5t45 186.5
t-45 186.5t-127 65.5zM553 1167h-365v303h365v-303zM999 1167h-364v303h364v-303z" />
    <glyph glyph-name="divide" unicode="&#xf7;" 
d="M811 983h-379v363h379v-363zM1180 565h-1114v295h1114v-295zM811 80h-379v362h379v-362z" />
    <glyph glyph-name="oslash" unicode="&#xf8;" horiz-adv-x="1187" 
d="M37 541q0 248 153 407q76 76 180 117t224 41q153 0 264 -57l92 110l185 -145l-97 -117q111 -144 111 -356q0 -247 -152 -408q-158 -158 -403 -158q-145 0 -268 60l-88 -107l-185 146l92 112q-108 144 -108 355zM594 834q-97 0 -150 -76.5t-53 -216.5q0 -42 2 -56l277 334
q-43 15 -76 15zM594 250q97 0 150 76t53 215q0 47 -2 61l-279 -336q40 -16 78 -16z" />
    <glyph glyph-name="ugrave" unicode="&#xf9;" horiz-adv-x="1224" 
d="M745 1081h390v-1081h-390v100q-113 -125 -288 -125q-168 0 -269 107q-100 106 -100 285v714h389v-620q0 -72 33 -111t94 -39q64 0 102.5 42.5t38.5 113.5v614zM666 1470l100 -313h-303l-250 313h453z" />
    <glyph glyph-name="uacute" unicode="&#xfa;" horiz-adv-x="1224" 
d="M745 1081h390v-1081h-390v100q-113 -125 -288 -125q-168 0 -269 107q-100 106 -100 285v714h389v-620q0 -72 33 -111t94 -39q64 0 102.5 42.5t38.5 113.5v614zM757 1157h-303l101 313h452z" />
    <glyph glyph-name="ucircumflex" unicode="&#xfb;" horiz-adv-x="1224" 
d="M745 1081h390v-1081h-390v100q-113 -125 -288 -125q-168 0 -269 107q-100 106 -100 285v714h389v-620q0 -72 33 -111t94 -39q64 0 102.5 42.5t38.5 113.5v614zM424 1470h373l209 -313h-281l-115 94l-114 -94h-281z" />
    <glyph glyph-name="udieresis" unicode="&#xfc;" horiz-adv-x="1224" 
d="M745 1081h390v-1081h-390v100q-113 -125 -288 -125q-168 0 -269 107q-100 106 -100 285v714h389v-620q0 -72 33 -111t94 -39q64 0 102.5 42.5t38.5 113.5v614zM569 1167h-364v303h364v-303zM1016 1167h-365v303h365v-303z" />
    <glyph glyph-name="yacute" unicode="&#xfd;" horiz-adv-x="1146" 
d="M1149 1081l-387 -1048q-80 -215 -166 -295q-111 -111 -309 -111q-101 0 -142 6v299q31 -6 82 -6q55 0 85 19t44 61l19 45l-377 1030h397l189 -594l184 594h381zM741 1157h-303l101 313h452z" />
    <glyph glyph-name="thorn" unicode="&#xfe;" horiz-adv-x="1257" 
d="M1108 154q-125 -179 -348 -179q-87 0 -162 33.5t-119 93.5v-456h-389v1824h389v-489q43 57 118.5 91t162.5 34q223 0 348 -178q111 -154 111 -387t-111 -387zM651 778q-80 0 -126 -57t-46 -156v-51q0 -98 46 -154.5t126 -56.5q81 0 128.5 64.5t47.5 173.5t-47 173
t-129 64z" />
    <glyph glyph-name="ydieresis" unicode="&#xff;" horiz-adv-x="1146" 
d="M1149 1081l-387 -1048q-80 -215 -166 -295q-111 -111 -309 -111q-101 0 -142 6v299q31 -6 82 -6q55 0 85 19t44 61l19 45l-377 1030h397l189 -594l184 594h381zM544 1167h-364v303h364v-303zM991 1167h-365v303h365v-303z" />
    <glyph glyph-name="Amacron" unicode="&#x100;" horiz-adv-x="1536" 
d="M6 0l531 1470h462l531 -1470h-408l-94 266h-532l-93 -266h-397zM915 588l-153 438l-154 -438h307zM1157 1829v-281h-778v281h778z" />
    <glyph glyph-name="amacron" unicode="&#x101;" horiz-adv-x="1179" 
d="M725 90q-113 -110 -315 -110q-165 0 -275 90q-104 88 -104 231q0 307 456 354l201 27v16q0 107 -123 107q-112 0 -133 -109l-375 43q36 167 177 267t348 100q233 0 360 -101t127 -286v-383q0 -37 17.5 -50t60.5 -7v-277q-148 -31 -258 -7.5t-164 95.5zM514 252
q79 0 126.5 38t47.5 103v58l-158 -23q-65 -10 -93.5 -32.5t-28.5 -61.5t27.5 -60.5t78.5 -21.5zM938 1454v-278h-700v278h700z" />
    <glyph glyph-name="Abreve" unicode="&#x102;" horiz-adv-x="1536" 
d="M6 0l531 1470h462l531 -1470h-408l-94 266h-532l-93 -266h-397zM915 588l-153 438l-154 -438h307zM768 1788q50 0 80.5 30.5t30.5 79.5h274q0 -165 -103.5 -261.5t-281.5 -96.5t-281.5 96.5t-103.5 261.5h274q0 -49 30.5 -79.5t80.5 -30.5z" />
    <glyph glyph-name="abreve" unicode="&#x103;" horiz-adv-x="1179" 
d="M725 90q-113 -110 -315 -110q-165 0 -275 90q-104 88 -104 231q0 307 456 354l201 27v16q0 107 -123 107q-112 0 -133 -109l-375 43q36 167 177 267t348 100q233 0 360 -101t127 -286v-383q0 -37 17.5 -50t60.5 -7v-277q-148 -31 -258 -7.5t-164 95.5zM514 252
q79 0 126.5 38t47.5 103v58l-158 -23q-65 -10 -93.5 -32.5t-28.5 -61.5t27.5 -60.5t78.5 -21.5zM585 1384q43 0 72 24.5t29 61.5h262q0 -149 -95.5 -233t-267.5 -84q-171 0 -266.5 83.5t-95.5 233.5h262q0 -37 28.5 -61.5t71.5 -24.5z" />
    <glyph glyph-name="Aogonek" unicode="&#x104;" horiz-adv-x="1536" 
d="M1188 -371q-101 0 -165.5 52t-64.5 137q0 128 150 223l-80 225h-532l-93 -266h-397l531 1470h462l531 -1470h-217q-63 -35 -88 -60t-25 -51q0 -47 62 -47q27 0 81 11v-205q-69 -19 -155 -19zM915 588l-153 438l-154 -438h307z" />
    <glyph glyph-name="aogonek" unicode="&#x105;" horiz-adv-x="1179" 
d="M725 90q-113 -110 -315 -110q-165 0 -275 90q-104 88 -104 231q0 307 456 354l201 27v16q0 107 -123 107q-112 0 -133 -109l-375 43q36 167 177 267t348 100q233 0 360 -101t127 -286v-383q0 -37 17.5 -50t60.5 -7v-277q-36 -7 -47 -8q-6 -1 -14 -2.5t-11 -1.5
q-53 -29 -74.5 -51.5t-21.5 -49.5q0 -47 61 -47q28 0 82 11v-205q-69 -19 -155 -19q-101 0 -165.5 52t-64.5 137q0 104 103 190q-75 27 -115 82zM514 252q79 0 126.5 38t47.5 103v58l-158 -23q-65 -10 -93.5 -32.5t-28.5 -61.5t27.5 -60.5t78.5 -21.5z" />
    <glyph glyph-name="Cacute" unicode="&#x106;" horiz-adv-x="1390" 
d="M743 1147q-135 0 -219 -113.5t-84 -298.5t83.5 -298t219.5 -113q100 0 169 62.5t89 172.5l377 -125q-72 -221 -236 -340t-397 -119q-154 0 -286.5 57.5t-229.5 166.5q-190 212 -190 536q0 158 49 296t141 241q97 109 229.5 166t286.5 57q233 0 397 -119t236 -340
l-377 -125q-20 110 -89 173t-169 63zM905 1542h-325l139 342h504z" />
    <glyph glyph-name="cacute" unicode="&#x107;" horiz-adv-x="1105" 
d="M596 791q-84 0 -130 -65.5t-46 -184.5t46 -184.5t130 -65.5q61 0 102.5 42.5t55.5 117.5l340 -115q-17 -80 -65 -149.5t-120 -118.5q-139 -93 -317 -93q-251 0 -402 160q-153 153 -153 406q0 252 153 405q151 160 402 160q181 0 315 -90q149 -100 185 -266l-338 -117
q-14 75 -55 116.5t-103 41.5zM725 1157h-303l100 313h453z" />
    <glyph glyph-name="Ccircumflex" unicode="&#x108;" horiz-adv-x="1390" 
d="M743 1147q-135 0 -219 -113.5t-84 -298.5t83.5 -298t219.5 -113q100 0 169 62.5t89 172.5l377 -125q-72 -221 -236 -340t-397 -119q-154 0 -286.5 57.5t-229.5 166.5q-190 212 -190 536q0 158 49 296t141 241q97 109 229.5 166t286.5 57q233 0 397 -119t236 -340
l-377 -125q-20 110 -89 173t-169 63zM561 1884h381l234 -342h-281l-143 121l-144 -121h-280z" />
    <glyph glyph-name="ccircumflex" unicode="&#x109;" horiz-adv-x="1105" 
d="M596 791q-84 0 -130 -65.5t-46 -184.5t46 -184.5t130 -65.5q61 0 102.5 42.5t55.5 117.5l340 -115q-17 -80 -65 -149.5t-120 -118.5q-139 -93 -317 -93q-251 0 -402 160q-153 153 -153 406q0 252 153 405q151 160 402 160q181 0 315 -90q149 -100 185 -266l-338 -117
q-14 75 -55 116.5t-103 41.5zM414 1470h373l209 -313h-281l-115 94l-114 -94h-281z" />
    <glyph glyph-name="Cdotaccent" unicode="&#x10a;" horiz-adv-x="1390" 
d="M743 1147q-135 0 -219 -113.5t-84 -298.5t83.5 -298t219.5 -113q100 0 169 62.5t89 172.5l377 -125q-72 -221 -236 -340t-397 -119q-154 0 -286.5 57.5t-229.5 166.5q-190 212 -190 536q0 158 49 296t141 241q97 109 229.5 166t286.5 57q233 0 397 -119t236 -340
l-377 -125q-20 110 -89 173t-169 63zM954 1542h-393v326h393v-326z" />
    <glyph glyph-name="cdotaccent" unicode="&#x10b;" horiz-adv-x="1105" 
d="M596 791q-84 0 -130 -65.5t-46 -184.5t46 -184.5t130 -65.5q61 0 102.5 42.5t55.5 117.5l340 -115q-17 -80 -65 -149.5t-120 -118.5q-139 -93 -317 -93q-251 0 -402 160q-153 153 -153 406q0 252 153 405q151 160 402 160q181 0 315 -90q149 -100 185 -266l-338 -117
q-14 75 -55 116.5t-103 41.5zM795 1167h-394v303h394v-303z" />
    <glyph glyph-name="Ccaron" unicode="&#x10c;" horiz-adv-x="1390" 
d="M743 1147q-135 0 -219 -113.5t-84 -298.5t83.5 -298t219.5 -113q100 0 169 62.5t89 172.5l377 -125q-72 -221 -236 -340t-397 -119q-154 0 -286.5 57.5t-229.5 166.5q-190 212 -190 536q0 158 49 296t141 241q97 109 229.5 166t286.5 57q233 0 397 -119t236 -340
l-377 -125q-20 110 -89 173t-169 63zM1182 1884l-234 -342h-381l-233 342h280l144 -121l143 121h281z" />
    <glyph glyph-name="ccaron" unicode="&#x10d;" horiz-adv-x="1105" 
d="M596 791q-84 0 -130 -65.5t-46 -184.5t46 -184.5t130 -65.5q61 0 102.5 42.5t55.5 117.5l340 -115q-17 -80 -65 -149.5t-120 -118.5q-139 -93 -317 -93q-251 0 -402 160q-153 153 -153 406q0 252 153 405q151 160 402 160q181 0 315 -90q149 -100 185 -266l-338 -117
q-14 75 -55 116.5t-103 41.5zM999 1470l-208 -313h-373l-209 313h280l115 -94l115 94h280z" />
    <glyph glyph-name="Dcaron" unicode="&#x10e;" horiz-adv-x="1443" 
d="M645 0h-545v1470h545q350 0 551 -192q209 -200 209 -543q0 -342 -209 -542q-202 -193 -551 -193zM492 1133v-795h153q171 0 267 105.5t96 291.5q0 189 -95.5 293.5t-267.5 104.5h-153zM1090 1884l-234 -342h-381l-233 342h280l144 -121l143 121h281z" />
    <glyph glyph-name="dcaron" unicode="&#x10f;" horiz-adv-x="1626" 
d="M498 -25q-223 0 -348 179q-111 154 -111 387t111 387q125 178 348 178q87 0 162 -34t118 -91v489h389v-1470h-389v102q-44 -60 -118.5 -93.5t-161.5 -33.5zM778 514v51q0 99 -46 156t-126 57q-82 0 -129 -64t-47 -173t47.5 -173.5t128.5 -64.5q80 0 126 56.5t46 154.5z
M1497 1118h-262l37 352h401z" />
    <glyph glyph-name="Dcroat" unicode="&#x110;" horiz-adv-x="1478" 
d="M680 0h-545v575h-108v340h108v555h545q350 0 551 -192q209 -200 209 -543q0 -342 -209 -542q-202 -193 -551 -193zM526 575v-237h154q171 0 266.5 105t95.5 292q0 189 -95 293.5t-267 104.5h-154v-218h209v-340h-209z" />
    <glyph glyph-name="dslash" unicode="&#x111;" horiz-adv-x="1261" 
d="M498 -25q-223 0 -348 179q-111 154 -111 387t111 387q125 178 348 178q87 0 162 -34t118 -91v168h-217v242h217v79h389v-79h93v-242h-93v-1149h-389v102q-44 -60 -118.5 -93.5t-161.5 -33.5zM778 514v51q0 99 -46 156t-126 57q-82 0 -129 -64t-47 -173t47.5 -173.5
t128.5 -64.5q80 0 126 56.5t46 154.5z" />
    <glyph glyph-name="Emacron" unicode="&#x112;" horiz-adv-x="1236" 
d="M100 0v1470h1071v-340h-677v-219h561v-331h-561v-240h677v-340h-1071zM1028 1829v-281h-778v281h778z" />
    <glyph glyph-name="emacron" unicode="&#x113;" horiz-adv-x="1161" 
d="M602 -25q-257 0 -409 158q-75 75 -115.5 181t-40.5 229q0 243 160 403t401 160q247 0 389 -160q137 -152 137 -401v-88h-710q17 -86 68 -133.5t126 -47.5q145 0 187 123l319 -96q-55 -152 -194 -240t-318 -88zM594 817q-64 0 -108.5 -37t-63.5 -108h326q-5 64 -47 104.5
t-107 40.5zM950 1454v-278h-700v278h700z" />
    <glyph glyph-name="Ebreve" unicode="&#x114;" horiz-adv-x="1236" 
d="M100 0v1470h1071v-340h-677v-219h561v-331h-561v-240h677v-340h-1071zM639 1788q50 0 80.5 30.5t30.5 79.5h274q0 -165 -103.5 -261.5t-281.5 -96.5t-281.5 96.5t-103.5 261.5h274q0 -49 30.5 -79.5t80.5 -30.5z" />
    <glyph glyph-name="ebreve" unicode="&#x115;" horiz-adv-x="1161" 
d="M602 -25q-257 0 -409 158q-75 75 -115.5 181t-40.5 229q0 243 160 403t401 160q247 0 389 -160q137 -152 137 -401v-88h-710q17 -86 68 -133.5t126 -47.5q145 0 187 123l319 -96q-55 -152 -194 -240t-318 -88zM594 817q-64 0 -108.5 -37t-63.5 -108h326q-5 64 -47 104.5
t-107 40.5zM604 1384q43 0 72 24.5t29 61.5h262q0 -149 -95.5 -233t-267.5 -84q-171 0 -266.5 83.5t-95.5 233.5h262q0 -37 28.5 -61.5t71.5 -24.5z" />
    <glyph glyph-name="Edotaccent" unicode="&#x116;" horiz-adv-x="1236" 
d="M100 0v1470h1071v-340h-677v-219h561v-331h-561v-240h677v-340h-1071zM842 1542h-393v326h393v-326z" />
    <glyph glyph-name="edotaccent" unicode="&#x117;" horiz-adv-x="1161" 
d="M602 -25q-257 0 -409 158q-75 75 -115.5 181t-40.5 229q0 243 160 403t401 160q247 0 389 -160q137 -152 137 -401v-88h-710q17 -86 68 -133.5t126 -47.5q145 0 187 123l319 -96q-55 -152 -194 -240t-318 -88zM594 817q-64 0 -108.5 -37t-63.5 -108h326q-5 64 -47 104.5
t-107 40.5zM797 1167h-393v303h393v-303z" />
    <glyph glyph-name="Eogonek" unicode="&#x118;" horiz-adv-x="1236" 
d="M907 -371q-101 0 -165 52t-64 137q0 108 92 182h-670v1470h1071v-340h-677v-219h561v-331h-561v-240h677v-340h-139q-62 -35 -87 -59.5t-25 -51.5q0 -47 61 -47q28 0 82 11v-205q-69 -19 -156 -19z" />
    <glyph glyph-name="eogonek" unicode="&#x119;" horiz-adv-x="1161" 
d="M655 -371q-101 0 -165 52t-64 137q0 92 74 166q-210 30 -338 182q-125 149 -125 377q0 243 160 403t401 160q247 0 389 -160q137 -152 137 -401v-88h-710q17 -86 68 -133.5t126 -47.5q145 0 187 123l319 -96q-41 -109 -126 -186.5t-202 -114.5q-68 -37 -93 -60.5
t-25 -52.5q0 -47 61 -47q28 0 82 11v-205q-69 -19 -156 -19zM594 817q-64 0 -108.5 -37t-63.5 -108h326q-5 64 -47 104.5t-107 40.5z" />
    <glyph glyph-name="Ecaron" unicode="&#x11a;" horiz-adv-x="1236" 
d="M100 0v1470h1071v-340h-677v-219h561v-331h-561v-240h677v-340h-1071zM1069 1884l-233 -342h-381l-234 342h281l143 -121l143 121h281z" />
    <glyph glyph-name="ecaron" unicode="&#x11b;" horiz-adv-x="1161" 
d="M602 -25q-257 0 -409 158q-75 75 -115.5 181t-40.5 229q0 243 160 403t401 160q247 0 389 -160q137 -152 137 -401v-88h-710q17 -86 68 -133.5t126 -47.5q145 0 187 123l319 -96q-55 -152 -194 -240t-318 -88zM594 817q-64 0 -108.5 -37t-63.5 -108h326q-5 64 -47 104.5
t-107 40.5zM1001 1470l-208 -313h-373l-209 313h281l114 -94l115 94h280z" />
    <glyph glyph-name="Gcircumflex" unicode="&#x11c;" horiz-adv-x="1513" 
d="M1419 0h-348v117q-50 -66 -143.5 -104t-210.5 -38q-149 0 -277.5 57.5t-222.5 166.5q-86 100 -132 235.5t-46 290.5q0 329 192 543q98 110 233 168.5t290 58.5q241 0 407 -117.5t238 -337.5l-383 -122q-20 110 -87 169.5t-173 59.5q-141 0 -228.5 -115t-87.5 -301
q0 -189 88 -303.5t234 -114.5q96 0 166 53.5t90 141.5h-283v317h684v-825zM582 1884h381l233 -342h-281l-143 121l-143 -121h-281z" />
    <glyph glyph-name="gcircumflex" unicode="&#x11d;" horiz-adv-x="1267" 
d="M1178 1081v-938q0 -245 -159.5 -383.5t-438.5 -138.5q-217 0 -356.5 86t-176.5 244l373 69q13 -53 60.5 -82.5t115.5 -29.5q92 0 142 48.5t50 139.5v66q-38 -54 -116 -87.5t-168 -33.5q-208 0 -334 147q-125 146 -125 383q0 224 115 373q128 162 344 162
q90 0 167.5 -34.5t116.5 -90.5v100h390zM788 553v41q0 93 -46 146t-126 53q-82 0 -128 -58.5t-46 -161.5t46 -162t128 -59q80 0 126 53.5t46 147.5zM471 1470h373l209 -313h-281l-115 94l-114 -94h-281z" />
    <glyph glyph-name="Gbreve" unicode="&#x11e;" horiz-adv-x="1513" 
d="M1419 0h-348v117q-50 -66 -143.5 -104t-210.5 -38q-149 0 -277.5 57.5t-222.5 166.5q-86 100 -132 235.5t-46 290.5q0 329 192 543q98 110 233 168.5t290 58.5q241 0 407 -117.5t238 -337.5l-383 -122q-20 110 -87 169.5t-173 59.5q-141 0 -228.5 -115t-87.5 -301
q0 -189 88 -303.5t234 -114.5q96 0 166 53.5t90 141.5h-283v317h684v-825zM772 1788q50 0 80.5 30.5t30.5 79.5h274q0 -165 -103.5 -261.5t-281.5 -96.5t-281.5 96.5t-103.5 261.5h275q0 -50 30 -80t80 -30z" />
    <glyph glyph-name="gbreve" unicode="&#x11f;" horiz-adv-x="1267" 
d="M1178 1081v-938q0 -245 -159.5 -383.5t-438.5 -138.5q-217 0 -356.5 86t-176.5 244l373 69q13 -53 60.5 -82.5t115.5 -29.5q92 0 142 48.5t50 139.5v66q-38 -54 -116 -87.5t-168 -33.5q-208 0 -334 147q-125 146 -125 383q0 224 115 373q128 162 344 162
q90 0 167.5 -34.5t116.5 -90.5v100h390zM788 553v41q0 93 -46 146t-126 53q-82 0 -128 -58.5t-46 -161.5t46 -162t128 -59q80 0 126 53.5t46 147.5zM659 1384q43 0 72 24.5t29 61.5h262q0 -149 -95.5 -233t-267.5 -84q-171 0 -266.5 83.5t-95.5 233.5h262q0 -37 28.5 -61.5
t71.5 -24.5z" />
    <glyph glyph-name="Gdotaccent" unicode="&#x120;" horiz-adv-x="1513" 
d="M1419 0h-348v117q-50 -66 -143.5 -104t-210.5 -38q-149 0 -277.5 57.5t-222.5 166.5q-86 100 -132 235.5t-46 290.5q0 329 192 543q98 110 233 168.5t290 58.5q241 0 407 -117.5t238 -337.5l-383 -122q-20 110 -87 169.5t-173 59.5q-141 0 -228.5 -115t-87.5 -301
q0 -189 88 -303.5t234 -114.5q96 0 166 53.5t90 141.5h-283v317h684v-825zM967 1542h-394v326h394v-326z" />
    <glyph glyph-name="gdotaccent" unicode="&#x121;" horiz-adv-x="1267" 
d="M1178 1081v-938q0 -245 -159.5 -383.5t-438.5 -138.5q-217 0 -356.5 86t-176.5 244l373 69q13 -53 60.5 -82.5t115.5 -29.5q92 0 142 48.5t50 139.5v66q-38 -54 -116 -87.5t-168 -33.5q-208 0 -334 147q-125 146 -125 383q0 224 115 373q128 162 344 162
q90 0 167.5 -34.5t116.5 -90.5v100h390zM788 553v41q0 93 -46 146t-126 53q-82 0 -128 -58.5t-46 -161.5t46 -162t128 -59q80 0 126 53.5t46 147.5zM860 1167h-393v303h393v-303z" />
    <glyph glyph-name="Gcommaaccent" unicode="&#x122;" horiz-adv-x="1513" 
d="M1419 0h-348v117q-50 -66 -143.5 -104t-210.5 -38q-149 0 -277.5 57.5t-222.5 166.5q-86 100 -132 235.5t-46 290.5q0 329 192 543q98 110 233 168.5t290 58.5q241 0 407 -117.5t238 -337.5l-383 -122q-20 110 -87 169.5t-173 59.5q-141 0 -228.5 -115t-87.5 -301
q0 -189 88 -303.5t234 -114.5q96 0 166 53.5t90 141.5h-283v317h684v-825zM680 -260h-129v199h389v-84q0 -314 -389 -314v133q118 0 129 66z" />
    <glyph glyph-name="gcommaaccent" unicode="&#x123;" horiz-adv-x="1267" 
d="M1178 1081v-938q0 -245 -159.5 -383.5t-438.5 -138.5q-217 0 -356.5 86t-176.5 244l373 69q13 -53 60.5 -82.5t115.5 -29.5q92 0 142 48.5t50 139.5v66q-38 -54 -116 -87.5t-168 -33.5q-208 0 -334 147q-125 146 -125 383q0 224 115 373q128 162 344 162
q90 0 167.5 -34.5t116.5 -90.5v100h390zM788 553v41q0 93 -46 146t-126 53q-82 0 -128 -58.5t-46 -161.5t46 -162t128 -59q80 0 126 53.5t46 147.5zM725 1356h129v-199h-389v84q0 313 389 313v-133q-61 0 -92 -15t-37 -50z" />
    <glyph glyph-name="Hcircumflex" unicode="&#x124;" horiz-adv-x="1521" 
d="M1020 915v555h401v-1470h-401v578h-518v-578h-402v1470h402v-555h518zM573 1884h381l234 -342h-281l-143 121l-143 -121h-281z" />
    <glyph glyph-name="hcircumflex" unicode="&#x125;" horiz-adv-x="1224" 
d="M479 0h-389v1470h389v-489q51 57 130 91t165 34q165 0 264 -106.5t99 -284.5v-715h-389v606q0 74 -32.5 115t-92.5 41q-64 0 -104 -43.5t-40 -114.5v-604zM424 1884h381l233 -342h-280l-144 121l-143 -121h-281z" />
    <glyph glyph-name="Hbar" unicode="&#x126;" horiz-adv-x="1562" 
d="M1536 1241v-338h-94v-903h-402v397h-518v-397h-401v903h-94v338h94v229h401v-229h518v229h402v-229h94zM522 903v-168h518v168h-518z" />
    <glyph glyph-name="hbar" unicode="&#x127;" horiz-adv-x="1230" 
d="M485 0h-389v1149h-94v242h94v79h389v-79h217v-242h-217v-168q51 57 130 91t165 34q165 0 264 -106.5t99 -284.5v-715h-389v606q0 74 -32.5 115t-92.5 41q-64 0 -104 -43.5t-40 -114.5v-604z" />
    <glyph glyph-name="Itilde" unicode="&#x128;" horiz-adv-x="602" 
d="M100 1470h402v-1470h-402v1470zM147 1925q37 0 70 -11.5t86 -45.5q58 -39 90 -39q37 0 57 22.5t27 73.5h252q-5 -178 -79 -280.5t-201 -102.5q-37 0 -69.5 12t-86.5 48q-56 38 -90 38q-35 0 -54.5 -23.5t-27.5 -74.5h-254q5 178 79 280.5t201 102.5z" />
    <glyph glyph-name="itilde" unicode="&#x129;" horiz-adv-x="571" 
d="M158 1493q32 0 58.5 -11t68.5 -42q44 -35 69 -35q52 0 66 88h219q-2 -156 -62.5 -246t-164.5 -90q-32 0 -58.5 10.5t-68.5 40.5q-44 35 -70 35q-27 0 -42.5 -20t-22.5 -66h-220q2 155 63 245.5t165 90.5zM90 1081h389v-1081h-389v1081z" />
    <glyph glyph-name="Imacron" unicode="&#x12a;" horiz-adv-x="602" 
d="M100 1470h402v-1470h-402v1470zM688 1829v-281h-778v281h778z" />
    <glyph glyph-name="imacron" unicode="&#x12b;" horiz-adv-x="571" 
d="M616 1454v-278h-661v278h661zM90 1081h389v-1081h-389v1081z" />
    <glyph glyph-name="Ibreve" unicode="&#x12c;" horiz-adv-x="602" 
d="M100 1470h402v-1470h-402v1470zM299 1788q50 0 80.5 30.5t30.5 79.5h274q0 -165 -103.5 -261.5t-281.5 -96.5t-281.5 96.5t-103.5 261.5h274q0 -49 30.5 -79.5t80.5 -30.5z" />
    <glyph glyph-name="ibreve" unicode="&#x12d;" horiz-adv-x="571" 
d="M285 1384q41 0 63.5 22.5t22.5 63.5h264q0 -148 -93 -232.5t-257 -84.5q-161 0 -254.5 84.5t-93.5 232.5h264q0 -41 22.5 -63.5t61.5 -22.5zM90 1081h389v-1081h-389v1081z" />
    <glyph glyph-name="Iogonek" unicode="&#x12e;" horiz-adv-x="602" 
d="M338 -371q-101 0 -165 52t-64 137q0 108 92 182h-101v1470h402v-1470h-39q-63 -35 -88 -60t-25 -51q0 -47 62 -47q28 0 82 11v-205q-69 -19 -156 -19z" />
    <glyph glyph-name="iogonek" unicode="&#x12f;" horiz-adv-x="571" 
d="M481 1167h-391v303h391v-303zM319 -371q-101 0 -165 52t-64 137q0 108 92 182h-92v1081h389v-1081h-35q-62 -35 -87 -59.5t-25 -51.5q0 -47 61 -47q28 0 82 11v-205q-69 -19 -156 -19z" />
    <glyph glyph-name="Idot" unicode="&#x130;" horiz-adv-x="602" 
d="M100 1470h402v-1470h-402v1470zM496 1542h-394v326h394v-326z" />
    <glyph glyph-name="dotlessi" unicode="&#x131;" horiz-adv-x="571" 
d="M90 1081h389v-1081h-389v1081z" />
    <glyph glyph-name="Jcircumflex" unicode="&#x134;" horiz-adv-x="851" 
d="M233 -10q-117 0 -190 12v342q74 -10 137 -10q103 0 146 42t43 140v954h401v-1026q0 -222 -138.5 -338t-398.5 -116zM371 1884h381l233 -342h-280l-144 121l-143 -121h-281z" />
    <glyph glyph-name="jcircumflex" unicode="&#x135;" horiz-adv-x="571" 
d="M-18 -86q57 0 82.5 21.5t25.5 68.5v1077h389v-1069q0 -190 -102.5 -287.5t-300.5 -97.5q-95 0 -158 8v285q33 -6 64 -6zM90 1470h373l209 -313h-281l-115 94l-114 -94h-281z" />
    <glyph glyph-name="Kcommaaccent" unicode="&#x136;" horiz-adv-x="1441" 
d="M100 1470h402v-591l459 591h462l-501 -600l540 -870h-465l-344 547l-151 -182v-365h-402v1470zM678 -260h-129v199h389v-84q0 -314 -389 -314v133q118 0 129 66z" />
    <glyph glyph-name="kcommaaccent" unicode="&#x137;" horiz-adv-x="1230" 
d="M90 1470h389v-725l291 336h449l-371 -393l397 -688h-438l-232 397l-96 -100v-297h-389v1470zM545 -260h-129v199h389v-84q0 -314 -389 -314v133q118 0 129 66z" />
    <glyph glyph-name="kgreenlandic" unicode="&#x138;" horiz-adv-x="1230" 
d="M90 1081h389v-338l293 338h447l-371 -393l397 -688h-438l-232 397l-96 -100v-297h-389v1081z" />
    <glyph glyph-name="Lacute" unicode="&#x139;" horiz-adv-x="1167" 
d="M1135 0h-1035v1470h402v-1130h633v-340zM463 1542h-326l139 342h504z" />
    <glyph glyph-name="lacute" unicode="&#x13a;" horiz-adv-x="571" 
d="M90 1470h389v-1470h-389v1470zM451 1542h-326l139 342h504z" />
    <glyph glyph-name="Lcommaaccent" unicode="&#x13b;" horiz-adv-x="1167" 
d="M1135 0h-1035v1470h402v-1130h633v-340zM561 -260h-129v199h389v-84q0 -314 -389 -314v133q118 0 129 66z" />
    <glyph glyph-name="lcommaaccent" unicode="&#x13c;" horiz-adv-x="571" 
d="M90 1470h389v-1470h-389v1470zM221 -260h-129v199h389v-84q0 -314 -389 -314v133q118 0 129 66z" />
    <glyph glyph-name="Lcaron" unicode="&#x13d;" horiz-adv-x="1167" 
d="M1135 0h-1035v1470h402v-1130h633v-340zM928 1118h-262l36 352h402z" />
    <glyph glyph-name="lcaron" unicode="&#x13e;" horiz-adv-x="940" 
d="M90 1470h389v-1470h-389v1470zM811 1118h-262l37 352h401z" />
    <glyph glyph-name="Ldot" unicode="&#x13f;" horiz-adv-x="1167" 
d="M1135 0h-1035v1470h402v-1130h633v-340zM1081 641h-393v303h393v-303z" />
    <glyph glyph-name="ldot" unicode="&#x140;" horiz-adv-x="1024" 
d="M90 1470h389v-1470h-389v1470zM985 522h-393v303h393v-303z" />
    <glyph glyph-name="Lslash" unicode="&#x141;" horiz-adv-x="1187" 
d="M1155 0h-1034v465l-94 -37v336l94 37v669h401v-516l281 109v-336l-281 -109v-278h633v-340z" />
    <glyph glyph-name="lslash" unicode="&#x142;" horiz-adv-x="667" 
d="M649 1104v-305l-121 -72v-727h-389v532l-119 -71v307l119 70v632h389v-436z" />
    <glyph glyph-name="Nacute" unicode="&#x143;" horiz-adv-x="1517" 
d="M1032 1470h385v-1470h-348l-586 852v-852h-383v1470h394l538 -800v800zM858 1542h-326l140 342h504z" />
    <glyph glyph-name="nacute" unicode="&#x144;" horiz-adv-x="1224" 
d="M479 0h-389v1081h389v-100q51 57 130 91t165 34q165 0 264 -106.5t99 -284.5v-715h-389v606q0 74 -32.5 115t-92.5 41q-64 0 -104 -43.5t-40 -114.5v-604zM724 1157h-303l101 313h452z" />
    <glyph glyph-name="Ncommaaccent" unicode="&#x145;" horiz-adv-x="1517" 
d="M1032 1470h385v-1470h-348l-586 852v-852h-383v1470h394l538 -800v800zM694 -260h-129v199h389v-84q0 -314 -389 -314v133q118 0 129 66z" />
    <glyph glyph-name="ncommaaccent" unicode="&#x146;" horiz-adv-x="1224" 
d="M479 0h-389v1081h389v-100q51 57 130 91t165 34q165 0 264 -106.5t99 -284.5v-715h-389v606q0 74 -32.5 115t-92.5 41q-64 0 -104 -43.5t-40 -114.5v-604zM559 -260h-129v199h389v-84q0 -314 -389 -314v133q118 0 129 66z" />
    <glyph glyph-name="Ncaron" unicode="&#x147;" horiz-adv-x="1517" 
d="M1032 1470h385v-1470h-348l-586 852v-852h-383v1470h394l538 -800v800zM1176 1884l-234 -342h-381l-233 342h280l144 -121l143 121h281z" />
    <glyph glyph-name="ncaron" unicode="&#x148;" horiz-adv-x="1224" 
d="M479 0h-389v1081h389v-100q51 57 130 91t165 34q165 0 264 -106.5t99 -284.5v-715h-389v606q0 74 -32.5 115t-92.5 41q-64 0 -104 -43.5t-40 -114.5v-604zM1020 1470l-209 -313h-373l-209 313h281l115 -94l114 94h281z" />
    <glyph glyph-name="Eng" unicode="&#x14a;" horiz-adv-x="1517" 
d="M1032 672v798h385v-1458q0 -190 -102.5 -287.5t-300.5 -97.5q-95 0 -158 8v285q31 -6 64 -6q57 0 82.5 21.5t25.5 68.5v55l-545 791v-850h-383v1470h394z" />
    <glyph glyph-name="eng" unicode="&#x14b;" horiz-adv-x="1224" 
d="M774 1106q165 0 264 -106.5t99 -284.5v-703q0 -190 -103 -287.5t-301 -97.5q-95 0 -158 8v285q33 -6 64 -6q57 0 83 21.5t26 68.5v602q0 74 -32.5 115t-92.5 41q-64 0 -104 -43.5t-40 -114.5v-604h-389v1081h389v-100q51 57 130 91t165 34z" />
    <glyph glyph-name="Omacron" unicode="&#x14c;" horiz-adv-x="1517" 
d="M233 197q-194 213 -194 538q0 159 50 297.5t144 241.5q200 221 525 221q158 0 292.5 -56.5t233.5 -162.5q94 -105 144.5 -243.5t50.5 -297.5q0 -323 -195 -540q-99 -106 -234 -163t-292 -57q-324 0 -525 222zM758 324q143 0 230 111.5t87 299.5t-87 300t-230 112
t-229.5 -112t-86.5 -300t86.5 -299.5t229.5 -111.5zM1147 1829v-281h-778v281h778z" />
    <glyph glyph-name="omacron" unicode="&#x14d;" horiz-adv-x="1187" 
d="M997 948q152 -161 152 -407q0 -247 -152 -408q-158 -158 -403 -158q-120 0 -224 41t-180 117q-153 159 -153 408q0 248 153 407q76 76 180 117t224 41q245 0 403 -158zM594 793q-82 0 -128 -65.5t-46 -186.5q0 -122 44.5 -187t129.5 -65q82 0 127 65.5t45 186.5
t-45 186.5t-127 65.5zM944 1454v-278h-700v278h700z" />
    <glyph glyph-name="Obreve" unicode="&#x14e;" horiz-adv-x="1517" 
d="M233 197q-194 213 -194 538q0 159 50 297.5t144 241.5q200 221 525 221q158 0 292.5 -56.5t233.5 -162.5q94 -105 144.5 -243.5t50.5 -297.5q0 -323 -195 -540q-99 -106 -234 -163t-292 -57q-324 0 -525 222zM758 324q143 0 230 111.5t87 299.5t-87 300t-230 112
t-229.5 -112t-86.5 -300t86.5 -299.5t229.5 -111.5zM758 1788q50 0 80 30t30 80h275q0 -165 -103.5 -261.5t-281.5 -96.5t-281.5 96.5t-103.5 261.5h274q0 -49 30.5 -79.5t80.5 -30.5z" />
    <glyph glyph-name="obreve" unicode="&#x14f;" horiz-adv-x="1187" 
d="M997 948q152 -161 152 -407q0 -247 -152 -408q-158 -158 -403 -158q-120 0 -224 41t-180 117q-153 159 -153 408q0 248 153 407q76 76 180 117t224 41q245 0 403 -158zM594 793q-82 0 -128 -65.5t-46 -186.5q0 -122 44.5 -187t129.5 -65q82 0 127 65.5t45 186.5
t-45 186.5t-127 65.5zM594 1384q43 0 72 24.5t29 61.5h262q0 -149 -95.5 -233t-267.5 -84q-171 0 -266.5 83.5t-95.5 233.5h262q0 -37 28.5 -61.5t71.5 -24.5z" />
    <glyph glyph-name="Ohungarumlaut" unicode="&#x150;" horiz-adv-x="1517" 
d="M233 197q-194 213 -194 538q0 159 50 297.5t144 241.5q200 221 525 221q158 0 292.5 -56.5t233.5 -162.5q94 -105 144.5 -243.5t50.5 -297.5q0 -323 -195 -540q-99 -106 -234 -163t-292 -57q-324 0 -525 222zM758 324q143 0 230 111.5t87 299.5t-87 300t-230 112
t-229.5 -112t-86.5 -300t86.5 -299.5t229.5 -111.5zM1135 1556h-289l149 342h406zM670 1556h-289l147 342h408z" />
    <glyph glyph-name="ohungarumlaut" unicode="&#x151;" horiz-adv-x="1187" 
d="M997 948q152 -161 152 -407q0 -247 -152 -408q-158 -158 -403 -158q-120 0 -224 41t-180 117q-153 159 -153 408q0 248 153 407q76 76 180 117t224 41q245 0 403 -158zM594 793q-82 0 -128 -65.5t-46 -186.5q0 -122 44.5 -187t129.5 -65q82 0 127 65.5t45 186.5
t-45 186.5t-127 65.5zM948 1157h-282l118 313h400zM502 1157h-283l119 313h399z" />
    <glyph glyph-name="OE" unicode="&#x152;" horiz-adv-x="2086" 
d="M246 193q-207 204 -207 542q0 339 207 543q204 192 553 192h1222v-340h-678v-219h562v-331h-562v-240h678v-340h-1222q-348 0 -553 193zM950 338v795h-151q-171 0 -267 -105.5t-96 -292.5q0 -189 95.5 -293t267.5 -104h151z" />
    <glyph glyph-name="oe" unicode="&#x153;" horiz-adv-x="1904" 
d="M1346 -25q-129 0 -230 39q-92 39 -149 90q-57 -49 -150 -88q-103 -41 -223 -41t-224 41t-180 117q-153 159 -153 408q0 248 153 407q76 76 180 117t224 41t223 -41q91 -37 152 -92q64 56 151 92q106 41 221 41q248 0 390 -160q137 -152 137 -401v-88h-711
q17 -86 68.5 -133.5t126.5 -47.5q144 0 186 123l320 -96q-55 -152 -194 -240t-318 -88zM594 793q-82 0 -128 -65.5t-46 -186.5q0 -122 44.5 -187t129.5 -65q82 0 127 65.5t45 186.5t-45 186.5t-127 65.5zM1337 817q-64 0 -108.5 -37t-63.5 -108h326q-5 64 -47 104.5
t-107 40.5z" />
    <glyph glyph-name="Racute" unicode="&#x154;" horiz-adv-x="1384" 
d="M627 487h-125v-487h-402v1470h643q277 0 431.5 -129t154.5 -362q0 -155 -76 -269t-217 -171l338 -539h-459zM502 1135v-330h221q100 0 154.5 43t54.5 121q0 82 -53 124t-156 42h-221zM776 1542h-325l139 342h504z" />
    <glyph glyph-name="racute" unicode="&#x155;" horiz-adv-x="854" 
d="M745 1087q9 0 30 -1.5t42 -2.5v-366q-52 8 -98 8q-109 0 -174.5 -59.5t-65.5 -161.5v-504h-389v1081h389v-127q42 62 112 97.5t154 35.5zM575 1157h-303l101 313h452z" />
    <glyph glyph-name="Rcommaaccent" unicode="&#x156;" horiz-adv-x="1384" 
d="M627 487h-125v-487h-402v1470h643q277 0 431.5 -129t154.5 -362q0 -155 -76 -269t-217 -171l338 -539h-459zM502 1135v-330h221q100 0 154.5 43t54.5 121q0 82 -53 124t-156 42h-221zM629 -260h-129v199h389v-84q0 -314 -389 -314v133q118 0 129 66z" />
    <glyph glyph-name="rcommaaccent" unicode="&#x157;" horiz-adv-x="854" 
d="M745 1087q9 0 30 -1.5t42 -2.5v-366q-52 8 -98 8q-109 0 -174.5 -59.5t-65.5 -161.5v-504h-389v1081h389v-127q42 62 112 97.5t154 35.5zM223 -260h-129v199h389v-84q0 -314 -389 -314v133q118 0 129 66z" />
    <glyph glyph-name="Rcaron" unicode="&#x158;" horiz-adv-x="1384" 
d="M627 487h-125v-487h-402v1470h643q277 0 431.5 -129t154.5 -362q0 -155 -76 -269t-217 -171l338 -539h-459zM502 1135v-330h221q100 0 154.5 43t54.5 121q0 82 -53 124t-156 42h-221zM1081 1884l-233 -342h-381l-234 342h281l143 -121l144 121h280z" />
    <glyph glyph-name="rcaron" unicode="&#x159;" horiz-adv-x="854" 
d="M745 1087q9 0 30 -1.5t42 -2.5v-366q-52 8 -98 8q-109 0 -174.5 -59.5t-65.5 -161.5v-504h-389v1081h389v-127q42 62 112 97.5t154 35.5zM868 1470l-209 -313h-372l-209 313h280l115 -94l115 94h280z" />
    <glyph glyph-name="Sacute" unicode="&#x15a;" horiz-adv-x="1249" 
d="M608 -25q-189 0 -372 68q-184 71 -271 178l219 291q88 -98 203.5 -152.5t237.5 -54.5q97 0 150.5 34t53.5 95q0 43 -30 68t-109 45q-21 2 -190 39q-205 42 -316 121q-135 108 -135 301q0 226 182 366q160 121 404 121q175 0 326.5 -60t250.5 -167l-217 -271
q-73 82 -168.5 125t-201.5 43q-85 0 -134 -30.5t-49 -85.5q0 -37 25 -59.5t86 -41.5l39 -10l119 -25q143 -30 219 -55.5t133 -62.5q164 -111 164 -320q0 -116 -50.5 -213.5t-144.5 -165.5q-171 -121 -424 -121zM807 1542h-326l140 342h503z" />
    <glyph glyph-name="sacute" unicode="&#x15b;" horiz-adv-x="1062" 
d="M504 -23q-141 0 -287 41q-137 39 -217 107l145 264q74 -59 180.5 -96t198.5 -37q127 0 127 61q0 27 -20.5 40.5t-79.5 25.5l-72 12l-59 11q-178 33 -256 83q-115 77 -115 236q0 172 137 276q138 105 355 105q138 0 265 -41t210 -111l-164 -237q-143 112 -305 112
q-51 0 -79 -15.5t-28 -41.5q0 -23 16.5 -34.5t61.5 -22.5l105 -19q200 -34 278 -88q133 -81 133 -246q0 -176 -145 -282q-145 -103 -385 -103zM694 1157h-303l101 313h452z" />
    <glyph glyph-name="Scircumflex" unicode="&#x15c;" horiz-adv-x="1249" 
d="M608 -25q-189 0 -372 68q-184 71 -271 178l219 291q88 -98 203.5 -152.5t237.5 -54.5q97 0 150.5 34t53.5 95q0 43 -30 68t-109 45q-21 2 -190 39q-205 42 -316 121q-135 108 -135 301q0 226 182 366q160 121 404 121q175 0 326.5 -60t250.5 -167l-217 -271
q-73 82 -168.5 125t-201.5 43q-85 0 -134 -30.5t-49 -85.5q0 -37 25 -59.5t86 -41.5l39 -10l119 -25q143 -30 219 -55.5t133 -62.5q164 -111 164 -320q0 -116 -50.5 -213.5t-144.5 -165.5q-171 -121 -424 -121zM469 1884h381l233 -342h-280l-144 121l-143 -121h-280z" />
    <glyph glyph-name="scircumflex" unicode="&#x15d;" horiz-adv-x="1062" 
d="M504 -23q-141 0 -287 41q-137 39 -217 107l145 264q74 -59 180.5 -96t198.5 -37q127 0 127 61q0 27 -20.5 40.5t-79.5 25.5l-72 12l-59 11q-178 33 -256 83q-115 77 -115 236q0 172 137 276q138 105 355 105q138 0 265 -41t210 -111l-164 -237q-143 112 -305 112
q-51 0 -79 -15.5t-28 -41.5q0 -23 16.5 -34.5t61.5 -22.5l105 -19q200 -34 278 -88q133 -81 133 -246q0 -176 -145 -282q-145 -103 -385 -103zM360 1470h373l209 -313h-280l-115 94l-115 -94h-280z" />
    <glyph glyph-name="Scedilla" unicode="&#x15e;" horiz-adv-x="1249" 
d="M-35 221l219 291q88 -98 203.5 -152.5t237.5 -54.5q97 0 150.5 34t53.5 95q0 43 -30 68t-109 45q-21 2 -190 39q-205 42 -316 121q-135 108 -135 301q0 226 182 366q160 121 404 121q175 0 326.5 -60t250.5 -167l-217 -271q-73 82 -168.5 125t-201.5 43q-85 0 -134 -30.5
t-49 -85.5q0 -37 25 -59.5t86 -41.5l39 -10l119 -25q143 -30 219 -55.5t133 -62.5q164 -111 164 -320q0 -207 -152 -344q-151 -133 -397 -154l-4 -14q174 -24 174 -160q0 -81 -73.5 -131.5t-190.5 -50.5q-73 0 -135.5 19.5t-100.5 54.5l96 145q43 -49 103 -49q65 0 65 39
q0 23 -27.5 33.5t-97.5 15.5l31 101q-171 15 -325 81q-151 65 -228 160z" />
    <glyph glyph-name="scedilla" unicode="&#x15f;" horiz-adv-x="1062" 
d="M0 125l145 264q74 -59 180.5 -96t198.5 -37q127 0 127 61q0 27 -20.5 40.5t-79.5 25.5l-72 12l-59 11q-178 33 -256 83q-115 77 -115 236q0 172 137 276q138 105 355 105q138 0 265 -41t210 -111l-164 -237q-143 112 -305 112q-51 0 -79 -15.5t-28 -41.5
q0 -23 16.5 -34.5t61.5 -22.5l105 -19q200 -34 278 -88q133 -81 133 -246q0 -167 -130.5 -269t-352.5 -113l-4 -17q174 -24 174 -160q0 -81 -73.5 -131.5t-190.5 -50.5q-73 0 -135.5 19.5t-100.5 54.5l96 145q43 -49 103 -49q65 0 65 39q0 23 -27.5 33.5t-97.5 15.5l33 105
q-122 13 -227 51.5t-166 89.5z" />
    <glyph glyph-name="Scaron" unicode="&#x160;" horiz-adv-x="1249" 
d="M608 -25q-189 0 -372 68q-184 71 -271 178l219 291q88 -98 203.5 -152.5t237.5 -54.5q97 0 150.5 34t53.5 95q0 43 -30 68t-109 45q-21 2 -190 39q-205 42 -316 121q-135 108 -135 301q0 226 182 366q160 121 404 121q175 0 326.5 -60t250.5 -167l-217 -271
q-73 82 -168.5 125t-201.5 43q-85 0 -134 -30.5t-49 -85.5q0 -37 25 -59.5t86 -41.5l39 -10l119 -25q143 -30 219 -55.5t133 -62.5q164 -111 164 -320q0 -116 -50.5 -213.5t-144.5 -165.5q-171 -121 -424 -121zM1090 1884l-234 -342h-381l-233 342h280l144 -121l143 121h281
z" />
    <glyph glyph-name="scaron" unicode="&#x161;" horiz-adv-x="1062" 
d="M504 -23q-141 0 -287 41q-137 39 -217 107l145 264q74 -59 180.5 -96t198.5 -37q127 0 127 61q0 27 -20.5 40.5t-79.5 25.5l-72 12l-59 11q-178 33 -256 83q-115 77 -115 236q0 172 137 276q138 105 355 105q138 0 265 -41t210 -111l-164 -237q-143 112 -305 112
q-51 0 -79 -15.5t-28 -41.5q0 -23 16.5 -34.5t61.5 -22.5l105 -19q200 -34 278 -88q133 -81 133 -246q0 -176 -145 -282q-145 -103 -385 -103zM940 1470l-209 -313h-373l-209 313h281l114 -94l115 94h281z" />
    <glyph glyph-name="Tcommaaccent" unicode="&#x162;" horiz-adv-x="1331" 
d="M899 -197q0 -81 -73.5 -131.5t-190.5 -50.5q-73 0 -135.5 19.5t-100.5 54.5l97 145q43 -49 102 -49q66 0 66 39q0 23 -27.5 33.5t-97.5 15.5l36 121h-110v1130h-432v340h1265v-340h-432v-1130h-131l-10 -37q174 -24 174 -160z" />
    <glyph glyph-name="tcommaaccent" unicode="&#x163;" horiz-adv-x="776" 
d="M139 303v463h-131v315h131v287h383v-287h201v-315h-201v-346q0 -58 26 -81.5t93 -23.5q24 0 88 7v-316q-106 -16 -201 -16l-8 -27q174 -24 174 -160q0 -81 -73.5 -131.5t-190.5 -50.5q-155 0 -235 74l96 145q43 -49 102 -49q66 0 66 39q0 23 -27.5 33.5t-97.5 15.5
l39 123q-119 23 -176.5 97t-57.5 204z" />
    <glyph glyph-name="Tcaron" unicode="&#x164;" horiz-adv-x="1331" 
d="M1298 1470v-340h-432v-1130h-401v1130h-432v340h1265zM1087 1884l-233 -342h-381l-233 342h280l144 -121l143 121h280z" />
    <glyph glyph-name="tcaron" unicode="&#x165;" horiz-adv-x="776" 
d="M514 -10q-197 0 -286 74.5t-89 238.5v463h-131v315h131v287h383v-287h201v-315h-201v-346q0 -58 26 -81.5t93 -23.5q24 0 88 7v-316q-115 -16 -215 -16zM844 1159h-262l36 352h402z" />
    <glyph glyph-name="Tbar" unicode="&#x166;" horiz-adv-x="1331" 
d="M1034 887v-338h-168v-549h-401v549h-170v338h170v243h-432v340h1265v-340h-432v-243h168z" />
    <glyph glyph-name="tbar" unicode="&#x167;" horiz-adv-x="817" 
d="M539 -10q-196 0 -286.5 75.5t-90.5 237.5v148h-152v272h152v86h-152v272h152v287h385v-287h217v-272h-217v-86h217v-272h-217v-29q0 -56 26 -79.5t93 -23.5q56 0 104 7v-320q-109 -16 -231 -16z" />
    <glyph glyph-name="Utilde" unicode="&#x168;" horiz-adv-x="1443" 
d="M721 -23q-301 0 -469 163.5t-168 459.5v870h399v-858q0 -141 60.5 -213.5t177.5 -72.5t177 72.5t60 213.5v858h402v-870q0 -295 -168.5 -459t-470.5 -164zM569 1925q37 0 70 -11.5t86 -45.5q58 -39 90 -39q37 0 57 22.5t27 73.5h252q-5 -178 -79.5 -280.5t-201.5 -102.5
q-36 0 -68.5 12t-86.5 48q-56 38 -90 38q-35 0 -54.5 -23.5t-27.5 -74.5h-254q5 178 79 280.5t201 102.5z" />
    <glyph glyph-name="utilde" unicode="&#x169;" horiz-adv-x="1224" 
d="M745 1081h390v-1081h-390v100q-113 -125 -288 -125q-168 0 -269 107q-100 106 -100 285v714h389v-620q0 -72 33 -111t94 -39q64 0 102.5 42.5t38.5 113.5v614zM477 1493q32 0 61.5 -11t71.5 -42q49 -35 80 -35q59 0 74 88h229q-5 -156 -71 -246t-181 -90q-60 0 -133 51
q-49 35 -80 35t-48 -20.5t-25 -65.5h-230q5 154 72.5 245t179.5 91z" />
    <glyph glyph-name="Umacron" unicode="&#x16a;" horiz-adv-x="1443" 
d="M721 -23q-301 0 -469 163.5t-168 459.5v870h399v-858q0 -141 60.5 -213.5t177.5 -72.5t177 72.5t60 213.5v858h402v-870q0 -295 -168.5 -459t-470.5 -164zM1110 1829v-281h-778v281h778z" />
    <glyph glyph-name="umacron" unicode="&#x16b;" horiz-adv-x="1224" 
d="M745 1081h390v-1081h-390v100q-113 -125 -288 -125q-168 0 -269 107q-100 106 -100 285v714h389v-620q0 -72 33 -111t94 -39q64 0 102.5 42.5t38.5 113.5v614zM961 1454v-278h-701v278h701z" />
    <glyph glyph-name="Ubreve" unicode="&#x16c;" horiz-adv-x="1443" 
d="M721 -23q-301 0 -469 163.5t-168 459.5v870h399v-858q0 -141 60.5 -213.5t177.5 -72.5t177 72.5t60 213.5v858h402v-870q0 -295 -168.5 -459t-470.5 -164zM721 1788q49 0 79.5 30t30.5 80h275q0 -165 -103.5 -261.5t-281.5 -96.5t-281.5 96.5t-103.5 261.5h274
q0 -49 30.5 -79.5t80.5 -30.5z" />
    <glyph glyph-name="ubreve" unicode="&#x16d;" horiz-adv-x="1224" 
d="M745 1081h390v-1081h-390v100q-113 -125 -288 -125q-168 0 -269 107q-100 106 -100 285v714h389v-620q0 -72 33 -111t94 -39q64 0 102.5 42.5t38.5 113.5v614zM610 1384q43 0 72 24.5t29 61.5h262q0 -149 -95.5 -233t-267.5 -84q-171 0 -266.5 83.5t-95.5 233.5h262
q0 -37 28.5 -61.5t71.5 -24.5z" />
    <glyph glyph-name="Uring" unicode="&#x16e;" horiz-adv-x="1443" 
d="M721 -23q-301 0 -469 163.5t-168 459.5v870h399v-858q0 -141 60.5 -213.5t177.5 -72.5t177 72.5t60 213.5v858h402v-870q0 -295 -168.5 -459t-470.5 -164zM721 1481q-131 0 -221 84q-88 85 -88 207t88 204q90 84 221 84t221 -84q88 -82 88 -204t-88 -207
q-90 -84 -221 -84zM721 1872q-43 0 -70.5 -28t-27.5 -72t27.5 -73.5t70.5 -29.5t70.5 29.5t27.5 73.5t-27.5 72t-70.5 28z" />
    <glyph glyph-name="uring" unicode="&#x16f;" horiz-adv-x="1224" 
d="M745 1081h390v-1081h-390v100q-113 -125 -288 -125q-168 0 -269 107q-100 106 -100 285v714h389v-620q0 -72 33 -111t94 -39q64 0 102.5 42.5t38.5 113.5v614zM610 1147q-106 0 -177 66.5t-71 164.5q0 99 71.5 166.5t176.5 67.5t176.5 -67.5t71.5 -166.5
q0 -98 -71 -164.5t-177 -66.5zM610 1456q-32 0 -52.5 -22.5t-20.5 -55.5q0 -32 20.5 -53.5t52.5 -21.5t54 21.5t22 53.5t-22 55t-54 23z" />
    <glyph glyph-name="Uhungarumlaut" unicode="&#x170;" horiz-adv-x="1443" 
d="M721 -23q-301 0 -469 163.5t-168 459.5v870h399v-858q0 -141 60.5 -213.5t177.5 -72.5t177 72.5t60 213.5v858h402v-870q0 -295 -168.5 -459t-470.5 -164zM1094 1556h-289l149 342h406zM629 1556h-289l147 342h408z" />
    <glyph glyph-name="uhungarumlaut" unicode="&#x171;" horiz-adv-x="1224" 
d="M745 1081h390v-1081h-390v100q-113 -125 -288 -125q-168 0 -269 107q-100 106 -100 285v714h389v-620q0 -72 33 -111t94 -39q64 0 102.5 42.5t38.5 113.5v614zM958 1157h-282l119 313h399zM512 1157h-283l119 313h400z" />
    <glyph glyph-name="Uogonek" unicode="&#x172;" horiz-adv-x="1443" 
d="M815 -371q-101 0 -165 52t-64 137q0 91 71 162q-273 17 -423 178.5t-150 441.5v870h399v-858q0 -141 60.5 -213.5t177.5 -72.5t177 72.5t60 213.5v858h402v-870q0 -234 -106.5 -387t-307.5 -207l2 -2q-69 -37 -95 -61.5t-26 -53.5q0 -47 62 -47q28 0 82 11v-205
q-69 -19 -156 -19z" />
    <glyph glyph-name="uogonek" unicode="&#x173;" horiz-adv-x="1224" 
d="M864 -371q-101 0 -165 52t-64 137q0 114 110 196v86q-113 -125 -288 -125q-168 0 -269 107q-100 106 -100 285v714h389v-620q0 -72 33 -111t94 -39q64 0 102.5 42.5t38.5 113.5v614h390v-1081h-146q-62 -35 -87 -59.5t-25 -51.5q0 -47 61 -47q28 0 82 11v-205
q-69 -19 -156 -19z" />
    <glyph glyph-name="Wcircumflex" unicode="&#x174;" horiz-adv-x="1990" 
d="M631 598l205 872h329l207 -872l205 872h408l-388 -1470h-385l-217 868l-217 -868h-385l-387 1470h418zM805 1884h381l233 -342h-280l-144 121l-143 -121h-281z" />
    <glyph glyph-name="wcircumflex" unicode="&#x175;" horiz-adv-x="1617" 
d="M539 508l139 573h276l144 -573l147 573h375l-328 -1081h-334l-149 518l-150 -518h-333l-328 1081h389zM627 1470h372l209 -313h-280l-115 94l-115 -94h-280z" />
    <glyph glyph-name="Ycircumflex" unicode="&#x176;" horiz-adv-x="1431" 
d="M422 1470l303 -528l301 528h420l-528 -892v-578h-402v578l-530 892h436zM524 1884h381l234 -342h-281l-143 121l-144 -121h-280z" />
    <glyph glyph-name="ycircumflex" unicode="&#x177;" horiz-adv-x="1146" 
d="M1149 1081l-387 -1048q-80 -215 -166 -295q-111 -111 -309 -111q-101 0 -142 6v299q31 -6 82 -6q55 0 85 19t44 61l19 45l-377 1030h397l189 -594l184 594h381zM399 1470h373l209 -313h-281l-115 94l-114 -94h-281z" />
    <glyph glyph-name="Ydieresis" unicode="&#x178;" horiz-adv-x="1431" 
d="M422 1470l303 -528l301 528h420l-528 -892v-578h-402v578l-530 892h436zM670 1542h-363v326h363v-326zM1122 1542h-362v326h362v-326z" />
    <glyph glyph-name="Zacute" unicode="&#x179;" horiz-adv-x="1327" 
d="M588 340h682v-340h-1204v299l684 831h-676v340h1188v-296zM797 1542h-326l139 342h504z" />
    <glyph glyph-name="zacute" unicode="&#x17a;" horiz-adv-x="1077" 
d="M563 315h451v-315h-953v276l471 490h-464v315h942v-276zM651 1157h-303l101 313h452z" />
    <glyph glyph-name="Zdotaccent" unicode="&#x17b;" horiz-adv-x="1327" 
d="M588 340h682v-340h-1204v299l684 831h-676v340h1188v-296zM877 1542h-394v326h394v-326z" />
    <glyph glyph-name="zdotaccent" unicode="&#x17c;" horiz-adv-x="1077" 
d="M563 315h451v-315h-953v276l471 490h-464v315h942v-276zM727 1167h-393v303h393v-303z" />
    <glyph glyph-name="Zcaron" unicode="&#x17d;" horiz-adv-x="1327" 
d="M588 340h682v-340h-1204v299l684 831h-676v340h1188v-296zM1112 1884l-233 -342h-381l-234 342h281l143 -121l143 121h281z" />
    <glyph glyph-name="zcaron" unicode="&#x17e;" horiz-adv-x="1077" 
d="M563 315h451v-315h-953v276l471 490h-464v315h942v-276zM930 1470l-209 -313h-373l-209 313h281l114 -94l115 94h281z" />
    <glyph glyph-name="florin" unicode="&#x192;" horiz-adv-x="1206" 
d="M389 627h-172v264h199l14 145q23 221 144.5 340t324.5 119q189 0 313 -102l-137 -267q-55 52 -114 52q-53 0 -85 -38t-40 -108l-15 -141h189v-264h-215l-19 -193q-20 -221 -142.5 -340t-326.5 -119q-182 0 -313 103l137 266q54 -51 117 -51q51 0 83.5 38t39.5 107z" />
    <glyph glyph-name="AEacute" unicode="&#x1fc;" horiz-adv-x="2136" 
d="M0 0l774 1470h1297v-340h-676v-219h559v-331h-559v-240h676v-340h-1072v272h-442l-143 -272h-414zM999 1106l-272 -512h272v512zM1550 1542h-325l139 342h504z" />
    <glyph glyph-name="aeacute" unicode="&#x1fd;" horiz-adv-x="1810" 
d="M31 303q0 171 143 269t391 98h123v16q0 57 -31.5 88t-91.5 31q-113 0 -137 -109l-371 49q41 160 183 261q141 100 340 100q208 0 325 -117q151 117 342 117q243 0 391 -160q138 -150 138 -401v-90h-711q17 -86 68.5 -132.5t126.5 -46.5q138 0 186 123l319 -96
q-55 -151 -194.5 -239.5t-319.5 -88.5q-124 0 -230 43t-181 123q-62 -78 -167.5 -121t-238.5 -43q-176 0 -293 91q-110 88 -110 235zM1245 817q-63 0 -108.5 -38t-65.5 -109h326q-5 67 -46 107t-106 40zM406 352q0 -42 30.5 -68t81.5 -26q72 0 121 45.5t49 112.5v39h-98
q-97 0 -140.5 -24.5t-43.5 -78.5zM1030 1157h-303l101 313h452z" />
    <glyph glyph-name="Oslashacute" unicode="&#x1fe;" horiz-adv-x="1517" 
d="M268 -63l-219 180l127 149q-137 199 -137 469q0 159 50 297.5t144 241.5q200 221 525 221q212 0 377 -100l102 121l221 -179l-115 -135q136 -202 136 -467q0 -323 -195 -540q-99 -106 -234 -163t-292 -57q-210 0 -373 99zM758 1153q-148 0 -235 -113t-87 -305
q0 -63 15 -145l450 530q-67 33 -143 33zM758 317q149 0 236 113t87 305q0 85 -14 142l-449 -527q59 -33 140 -33zM907 1542h-325l139 342h504z" />
    <glyph glyph-name="oslashacute" unicode="&#x1ff;" horiz-adv-x="1187" 
d="M37 541q0 248 153 407q76 76 180 117t224 41q153 0 264 -57l92 110l185 -145l-97 -117q111 -144 111 -356q0 -247 -152 -408q-158 -158 -403 -158q-145 0 -268 60l-88 -107l-185 146l92 112q-108 144 -108 355zM594 834q-97 0 -150 -76.5t-53 -216.5q0 -42 2 -56l277 334
q-43 15 -76 15zM594 250q97 0 150 76t53 215q0 47 -2 61l-279 -336q40 -16 78 -16zM733 1157h-303l101 313h452z" />
    <glyph glyph-name="Scommaaccent" unicode="&#x218;" horiz-adv-x="1249" 
d="M608 -25q-189 0 -372 68q-184 71 -271 178l219 291q88 -98 203.5 -152.5t237.5 -54.5q97 0 150.5 34t53.5 95q0 43 -30 68t-109 45q-21 2 -190 39q-205 42 -316 121q-135 108 -135 301q0 226 182 366q160 121 404 121q175 0 326.5 -60t250.5 -167l-217 -271
q-73 82 -168.5 125t-201.5 43q-85 0 -134 -30.5t-49 -85.5q0 -37 25 -59.5t86 -41.5l39 -10l119 -25q143 -30 219 -55.5t133 -62.5q164 -111 164 -320q0 -116 -50.5 -213.5t-144.5 -165.5q-171 -121 -424 -121zM578 -260h-129v199h389v-84q0 -314 -389 -314v133
q118 0 129 66z" />
    <glyph glyph-name="scommaaccent" unicode="&#x219;" horiz-adv-x="1062" 
d="M504 -23q-141 0 -287 41q-137 39 -217 107l145 264q74 -59 180.5 -96t198.5 -37q127 0 127 61q0 27 -20.5 40.5t-79.5 25.5l-72 12l-59 11q-178 33 -256 83q-115 77 -115 236q0 172 137 276q138 105 355 105q138 0 265 -41t210 -111l-164 -237q-143 112 -305 112
q-51 0 -79 -15.5t-28 -41.5q0 -23 16.5 -34.5t61.5 -22.5l105 -19q200 -34 278 -88q133 -81 133 -246q0 -176 -145 -282q-145 -103 -385 -103zM463 -260h-129v199h389v-84q0 -314 -389 -314v133q118 0 129 66z" />
    <glyph glyph-name="uni021A" unicode="&#x21a;" horiz-adv-x="1331" 
d="M1298 1470v-340h-432v-1130h-401v1130h-432v340h1265zM598 -260h-129v199h389v-84q0 -314 -389 -314v133q118 0 129 66z" />
    <glyph glyph-name="uni021B" unicode="&#x21b;" horiz-adv-x="776" 
d="M514 -10q-197 0 -286 74.5t-89 238.5v463h-131v315h131v287h383v-287h201v-315h-201v-346q0 -58 26 -81.5t93 -23.5q24 0 88 7v-316q-115 -16 -215 -16zM389 -260h-129v199h389v-84q0 -314 -389 -314v133q118 0 129 66z" />
    <glyph glyph-name="uni0237" unicode="&#x237;" horiz-adv-x="571" 
d="M-18 -86q57 0 82.5 21.5t25.5 68.5v1077h389v-1069q0 -190 -102.5 -287.5t-300.5 -97.5q-95 0 -158 8v285q33 -6 64 -6z" />
    <glyph glyph-name="circumflex" unicode="&#x2c6;" horiz-adv-x="1228" 
d="M428 1470h373l209 -313h-281l-115 94l-114 -94h-281z" />
    <glyph glyph-name="caron" unicode="&#x2c7;" horiz-adv-x="1228" 
d="M1010 1470l-209 -313h-373l-209 313h281l114 -94l115 94h281z" />
    <glyph glyph-name="breve" unicode="&#x2d8;" horiz-adv-x="1228" 
d="M614 1384q43 0 72 24.5t29 61.5h262q0 -149 -95.5 -233t-267.5 -84q-171 0 -266.5 83.5t-95.5 233.5h262q0 -37 28.5 -61.5t71.5 -24.5z" />
    <glyph glyph-name="dotaccent" unicode="&#x2d9;" horiz-adv-x="1228" 
d="M811 1167h-393v303h393v-303z" />
    <glyph glyph-name="ring" unicode="&#x2da;" horiz-adv-x="1228" 
d="M614 1147q-106 0 -176.5 66.5t-70.5 164.5q0 99 71 166.5t176 67.5t176.5 -67.5t71.5 -166.5q0 -98 -71 -164.5t-177 -66.5zM614 1456q-32 0 -52.5 -22.5t-20.5 -55.5q0 -32 20.5 -53.5t52.5 -21.5t54 21.5t22 53.5t-22 55t-54 23z" />
    <glyph glyph-name="ogonek" unicode="&#x2db;" horiz-adv-x="1228" 
d="M641 -371q-101 0 -165 52t-64 137q0 89 67.5 159.5t214.5 131.5l80 -105q-69 -37 -95 -61.5t-26 -53.5q0 -47 62 -47q28 0 82 11v-205q-69 -19 -156 -19z" />
    <glyph glyph-name="tilde" unicode="&#x2dc;" horiz-adv-x="1228" 
d="M481 1493q32 0 61.5 -11t71.5 -42q49 -35 80 -35q59 0 74 88h229q-5 -156 -71 -246t-181 -90q-60 0 -133 51q-49 35 -80 35t-48 -20.5t-25 -65.5h-230q5 154 72.5 245t179.5 91z" />
    <glyph glyph-name="hungarumlaut" unicode="&#x2dd;" horiz-adv-x="1228" 
d="M852 1157h-283l119 313h399zM406 1157h-283l119 313h399z" />
    <glyph glyph-name="gravecmb" unicode="&#x300;" horiz-adv-x="0" 
d="M176 1470l100 -313h-303l-249 313h452z" />
    <glyph glyph-name="acutecmb" unicode="&#x301;" horiz-adv-x="0" 
d="M27 1157h-303l100 313h452z" />
    <glyph glyph-name="circumflexcmb" unicode="&#x302;" horiz-adv-x="0" 
d="M-186 1470h372l209 -313h-280l-115 94l-115 -94h-280z" />
    <glyph glyph-name="tildecmb" unicode="&#x303;" horiz-adv-x="0" 
d="M-133 1493q32 0 61.5 -11t71.5 -42q49 -35 80 -35q59 0 74 88h229q-5 -156 -71 -246t-181 -90q-60 0 -133 51q-49 35 -80 35q-59 0 -74 -86h-229q5 154 72.5 245t179.5 91z" />
    <glyph glyph-name="macroncmb" unicode="&#x304;" horiz-adv-x="0" 
d="M350 1454v-278h-700v278h700z" />
    <glyph glyph-name="brevecmb" unicode="&#x306;" horiz-adv-x="0" 
d="M0 1384q43 0 71.5 24.5t28.5 61.5h262q0 -150 -95.5 -233.5t-266.5 -83.5t-266.5 83.5t-95.5 233.5h262q0 -37 28.5 -61.5t71.5 -24.5z" />
    <glyph glyph-name="dotaccentcmb" unicode="&#x307;" horiz-adv-x="0" 
d="M197 1167h-394v303h394v-303z" />
    <glyph glyph-name="dieresiscmb" unicode="&#x308;" horiz-adv-x="0" 
d="M-41 1167h-365v303h365v-303zM406 1167h-365v303h365v-303z" />
    <glyph glyph-name="ringcmb" unicode="&#x30a;" horiz-adv-x="0" 
d="M0 1147q-106 0 -177 66.5t-71 164.5q0 99 71.5 166.5t176.5 67.5t176.5 -67.5t71.5 -166.5q0 -98 -71 -164.5t-177 -66.5zM0 1456q-32 0 -53 -22.5t-21 -55.5q0 -32 21 -53.5t53 -21.5t54 21.5t22 53.5t-22 55t-54 23z" />
    <glyph glyph-name="hungarumlautcmb" unicode="&#x30b;" horiz-adv-x="0" 
d="M246 1157h-283l119 313h399zM-201 1157h-282l118 313h400z" />
    <glyph glyph-name="caroncmb" unicode="&#x30c;" horiz-adv-x="0" 
d="M395 1470l-209 -313h-372l-209 313h280l115 -94l115 94h280z" />
    <glyph glyph-name="commaaboverightcmb" unicode="&#x315;" horiz-adv-x="0" 
d="M43 1118h-262l37 352h401z" />
    <glyph glyph-name="cedillacmb" unicode="&#x327;" horiz-adv-x="0" 
d="M250 -197q0 -81 -73.5 -131.5t-190.5 -50.5q-73 0 -135.5 19.5t-100.5 54.5l96 145q43 -49 103 -49q65 0 65 39q0 23 -27.5 33.5t-97.5 15.5l45 146h160l-18 -62q174 -24 174 -160z" />
    <glyph glyph-name="ogonekcmb" unicode="&#x328;" horiz-adv-x="0" 
d="M37 -371q-101 0 -165.5 52t-64.5 137q0 89 67.5 159.5t215.5 131.5l80 -105q-69 -37 -95 -61.5t-26 -53.5q0 -47 62 -47q28 0 82 11v-205q-69 -19 -156 -19z" />
    <glyph glyph-name="baht" unicode="&#xe3f;" horiz-adv-x="1363" 
d="M575 0h-475v1470h475v199h238v-199q233 -4 356 -107t123 -294q0 -102 -51.5 -183.5t-140.5 -123.5q109 -44 171 -136t62 -210q0 -198 -133 -307t-375 -109h-12v-203h-238v203zM430 1161v-282h145v282h-145zM977 1020q0 68 -42.5 104.5t-121.5 36.5v-282q78 0 121 37
t43 104zM575 610h-145v-299h145v299zM1010 461q0 69 -43 109t-117 40h-37v-299h37q74 0 117 40.5t43 109.5z" />
    <glyph glyph-name="Wgrave" unicode="&#x1e80;" horiz-adv-x="1990" 
d="M631 598l205 872h329l207 -872l205 872h408l-388 -1470h-385l-217 868l-217 -868h-385l-387 1470h418zM1012 1884l139 -342h-326l-317 342h504z" />
    <glyph glyph-name="wgrave" unicode="&#x1e81;" horiz-adv-x="1617" 
d="M539 508l139 573h276l144 -573l147 573h375l-328 -1081h-334l-149 518l-150 -518h-333l-328 1081h389zM862 1470l100 -313h-303l-250 313h453z" />
    <glyph glyph-name="Wacute" unicode="&#x1e82;" horiz-adv-x="1990" 
d="M631 598l205 872h329l207 -872l205 872h408l-388 -1470h-385l-217 868l-217 -868h-385l-387 1470h418zM1159 1542h-325l139 342h504z" />
    <glyph glyph-name="wacute" unicode="&#x1e83;" horiz-adv-x="1617" 
d="M539 508l139 573h276l144 -573l147 573h375l-328 -1081h-334l-149 518l-150 -518h-333l-328 1081h389zM978 1157h-303l101 313h452z" />
    <glyph glyph-name="Wdieresis" unicode="&#x1e84;" horiz-adv-x="1990" 
d="M631 598l205 872h329l207 -872l205 872h408l-388 -1470h-385l-217 868l-217 -868h-385l-387 1470h418zM950 1542h-362v326h362v-326zM1403 1542h-363v326h363v-326z" />
    <glyph glyph-name="wdieresis" unicode="&#x1e85;" horiz-adv-x="1617" 
d="M539 508l139 573h276l144 -573l147 573h375l-328 -1081h-334l-149 518l-150 -518h-333l-328 1081h389zM772 1167h-364v303h364v-303zM1219 1167h-365v303h365v-303z" />
    <glyph glyph-name="Germandbls" unicode="&#x1e9e;" horiz-adv-x="1548" 
d="M1534 465q0 -213 -154 -352q-150 -138 -383 -138q-270 0 -436 166l191 279q44 -55 102.5 -86t120.5 -31q85 0 135.5 43.5t50.5 116.5q0 174 -319 174h-88v260l221 246h-473v-1143h-402v1470h1301v-311l-232 -256q175 -48 270 -160.5t95 -277.5z" />
    <glyph glyph-name="Ygrave" unicode="&#x1ef2;" horiz-adv-x="1431" 
d="M422 1470l303 -528l301 528h420l-528 -892v-578h-402v578l-530 892h436zM766 1884l139 -342h-325l-318 342h504z" />
    <glyph glyph-name="ygrave" unicode="&#x1ef3;" horiz-adv-x="1146" 
d="M1149 1081l-387 -1048q-80 -215 -166 -295q-111 -111 -309 -111q-101 0 -142 6v299q31 -6 82 -6q55 0 85 19t44 61l19 45l-377 1030h397l189 -594l184 594h381zM647 1470l101 -313h-304l-249 313h452z" />
    <glyph glyph-name="thinspace" unicode="&#x2009;" horiz-adv-x="204" 
 />
    <glyph glyph-name="endash" unicode="&#x2013;" horiz-adv-x="1110" 
d="M1028 442h-946v320h946v-320z" />
    <glyph glyph-name="emdash" unicode="&#x2014;" horiz-adv-x="1998" 
d="M1917 442h-1835v320h1835v-320z" />
    <glyph glyph-name="quoteleft" unicode="&#x2018;" horiz-adv-x="540" 
d="M334 1151h153v-385h-436v360q0 161 116.5 252.5t319.5 91.5v-190q-153 -3 -153 -117v-12z" />
    <glyph glyph-name="quoteright" unicode="&#x2019;" horiz-adv-x="540" 
d="M207 1085h-154v385h436v-360q0 -161 -116.5 -252.5t-319.5 -91.5v190q154 3 154 117v12z" />
    <glyph glyph-name="quotesinglbase" unicode="&#x201a;" horiz-adv-x="540" 
d="M207 25h-154v385h436v-361q0 -161 -116.5 -252.5t-319.5 -91.5v191q154 3 154 116v13z" />
    <glyph glyph-name="quotedblleft" unicode="&#x201c;" horiz-adv-x="1067" 
d="M334 1151h153v-385h-436v360q0 161 116.5 252.5t319.5 91.5v-190q-153 -3 -153 -117v-12zM860 1151h154v-385h-436v360q0 161 116.5 252.5t319.5 91.5v-190q-154 -3 -154 -117v-12z" />
    <glyph glyph-name="quotedblright" unicode="&#x201d;" horiz-adv-x="1067" 
d="M733 1085h-153v385h436v-360q0 -161 -116.5 -252.5t-319.5 -91.5v190q153 3 153 117v12zM207 1085h-154v385h436v-360q0 -161 -116.5 -252.5t-319.5 -91.5v190q154 3 154 117v12z" />
    <glyph glyph-name="quotedblbase" unicode="&#x201e;" horiz-adv-x="1067" 
d="M733 25h-153v385h436v-361q0 -161 -116.5 -252.5t-319.5 -91.5v191q153 3 153 116v13zM207 25h-154v385h436v-361q0 -161 -116.5 -252.5t-319.5 -91.5v191q154 3 154 116v13z" />
    <glyph glyph-name="dagger" unicode="&#x2020;" horiz-adv-x="874" 
d="M569 559h-264v434h-264v267h264v251h264v-251h265v-267h-265v-434z" />
    <glyph glyph-name="daggerdbl" unicode="&#x2021;" horiz-adv-x="874" 
d="M575 559h-276v162h-258v248h258v135h-258v248h258v159h276v-159h259v-248h-259v-135h259v-248h-259v-162z" />
    <glyph glyph-name="bullet" unicode="&#x2022;" horiz-adv-x="927" 
d="M174 893q117 117 293 117q172 0 289 -117q112 -115 112 -293q0 -173 -114 -287t-287 -114t-291 112q-119 116 -119 289q0 179 117 293z" />
    <glyph glyph-name="ellipsis" unicode="&#x2026;" horiz-adv-x="1679" 
d="M502 0h-436v418h436v-418zM1059 0h-436v418h436v-418zM1616 0h-436v418h436v-418z" />
    <glyph glyph-name="guilsinglleft" unicode="&#x2039;" horiz-adv-x="579" 
d="M528 68l-477 305v319l477 305v-356l-157 -109l157 -108v-356z" />
    <glyph glyph-name="guilsinglright" unicode="&#x203a;" horiz-adv-x="579" 
d="M528 692v-319l-477 -305v356l158 108l-158 109v356z" />
    <glyph glyph-name="fraction" unicode="&#x2044;" horiz-adv-x="382" 
d="M-457 0l1024 1470h273l-1022 -1470h-275z" />
    <glyph glyph-name="uni2070" unicode="&#x2070;" horiz-adv-x="778" 
d="M387 641q-152 0 -239 113t-87 309t87 309t239 113q153 0 240.5 -113t87.5 -309t-87.5 -309t-240.5 -113zM387 1251q-61 0 -61 -188q0 -100 14.5 -144.5t46.5 -44.5q64 0 64 189q0 188 -64 188z" />
    <glyph glyph-name="uni2074" unicode="&#x2074;" horiz-adv-x="778" 
d="M643 817v-162h-242v162h-374v191l288 462h328v-448h109v-205h-109zM395 1278l-166 -256h166v256z" />
    <glyph glyph-name="uni2075" unicode="&#x2075;" horiz-adv-x="778" 
d="M395 1006q-38 0 -53 -35l-248 24l39 475h510v-219h-315l-9 -106q65 49 150 49q112 0 178 -69.5t66 -188.5q0 -129 -91.5 -212t-232.5 -83q-142 0 -232 69.5t-102 190.5l267 39q2 -33 20 -53.5t47 -20.5q31 0 49.5 19.5t18.5 50.5t-16.5 50.5t-45.5 19.5z" />
    <glyph glyph-name="uni2076" unicode="&#x2076;" horiz-adv-x="778" 
d="M428 1485q108 0 183 -49t112 -142l-213 -84q-22 60 -86 60q-44 0 -72 -31.5t-28 -79.5q0 -18 2 -26q39 51 135 51q112 0 183 -69.5t71 -178.5q0 -131 -86.5 -213t-225.5 -82q-153 0 -247 111q-95 115 -95 290q0 196 101 318q101 125 266 125zM399 848q33 0 53.5 21.5
t20.5 56.5t-21 57.5t-53 22.5t-53.5 -22.5t-21.5 -57.5t21 -56.5t54 -21.5z" />
    <glyph glyph-name="uni2077" unicode="&#x2077;" horiz-adv-x="778" 
d="M449 1251h-158v-92h-219v311h639v-221q-125 -125 -164 -274q-31 -102 -31 -320h-285q0 374 218 596z" />
    <glyph glyph-name="uni2078" unicode="&#x2078;" horiz-adv-x="778" 
d="M92 1233q0 112 83.5 182t211.5 70t211.5 -70t83.5 -182q0 -101 -92 -162q58 -25 92.5 -74t34.5 -110q0 -108 -94 -178q-92 -68 -236 -68q-142 0 -237 68q-93 72 -93 178q0 59 34.5 109t92.5 75q-92 61 -92 162zM319 1225q0 -29 19.5 -47.5t48.5 -18.5t48.5 18.5
t19.5 47.5q0 30 -18.5 47.5t-49.5 17.5t-49.5 -17.5t-18.5 -47.5zM461 911q0 31 -21 50.5t-53 19.5t-53 -19.5t-21 -50.5q0 -32 20.5 -50.5t53.5 -18.5t53.5 18.5t20.5 50.5z" />
    <glyph glyph-name="uni2079" unicode="&#x2079;" horiz-adv-x="778" 
d="M348 641q-219 0 -295 190l213 84q21 -59 86 -59q44 0 72.5 31.5t28.5 79.5q0 18 -2 26q-39 -51 -136 -51q-112 0 -183 69.5t-71 178.5q0 131 86.5 213t225.5 82q154 0 248 -113q94 -110 94 -289q0 -192 -103 -319q-102 -123 -264 -123zM377 1278q-33 0 -53.5 -21.5
t-20.5 -56.5t21 -57.5t53 -22.5q33 0 54.5 22.5t21.5 57.5t-21.5 56.5t-54.5 21.5z" />
    <glyph glyph-name="uni2080" unicode="&#x2080;" horiz-adv-x="778" 
d="M387 -260q-152 0 -239 113t-87 309t87 309t239 113q153 0 240.5 -113t87.5 -309t-87.5 -309t-240.5 -113zM387 350q-61 0 -61 -188q0 -100 14.5 -144.5t46.5 -44.5q64 0 64 189q0 188 -64 188z" />
    <glyph glyph-name="uni2081" unicode="&#x2081;" horiz-adv-x="778" 
d="M283 -14v268h-179v184l82 6q127 9 150 125h215v-583h137v-232h-582v232h177z" />
    <glyph glyph-name="uni2082" unicode="&#x2082;" horiz-adv-x="778" 
d="M76 -246v201l264 201q53 41 74.5 70.5t21.5 60.5q0 27 -16 44t-45 17q-27 0 -44.5 -19.5t-17.5 -49.5q0 -25 13 -60h-248q-12 34 -12 76q0 127 92 207q91 82 227 82q141 0 226 -75t85 -198q0 -66 -33 -123t-108 -118l-109 -84h256v-232h-626z" />
    <glyph glyph-name="uni2083" unicode="&#x2083;" horiz-adv-x="778" 
d="M711 -12q0 -109 -87.5 -178.5t-226.5 -69.5q-143 0 -233 69t-103 191l267 37q2 -32 20 -52t47 -20t45.5 14t16.5 39q0 26 -19 41t-51 15h-76v178h66q32 0 50.5 14.5t18.5 40.5q0 24 -14.5 37.5t-40.5 13.5t-43 -19t-22 -50l-254 16q14 125 104.5 202t226.5 77
q134 0 218 -70.5t84 -181.5q0 -53 -31 -100t-76 -66q113 -53 113 -178z" />
    <glyph glyph-name="uni2084" unicode="&#x2084;" horiz-adv-x="778" 
d="M643 -84v-162h-242v162h-374v190l288 463h328v-448h109v-205h-109zM395 377l-166 -256h166v256z" />
    <glyph glyph-name="uni2085" unicode="&#x2085;" horiz-adv-x="778" 
d="M395 104q-38 0 -53 -34l-248 24l39 475h510v-219h-315l-9 -106q65 49 150 49q112 0 178 -69.5t66 -188.5q0 -129 -91.5 -212t-232.5 -83q-142 0 -232 69.5t-102 190.5l267 39q2 -33 20 -53.5t47 -20.5q31 0 49.5 19.5t18.5 50.5t-16.5 50t-45.5 19z" />
    <glyph glyph-name="uni2086" unicode="&#x2086;" horiz-adv-x="778" 
d="M428 584q108 0 183 -49t112 -142l-213 -84q-22 60 -86 60q-44 0 -72 -31.5t-28 -79.5q0 -19 2 -27q39 52 135 52q112 0 183 -69.5t71 -178.5q0 -131 -86.5 -213t-225.5 -82q-153 0 -247 110q-95 115 -95 291q0 196 101 318q101 125 266 125zM399 -53q33 0 53.5 21.5
t20.5 56.5t-21 57t-53 22q-33 0 -54 -22t-21 -57t21 -56.5t54 -21.5z" />
    <glyph glyph-name="uni2087" unicode="&#x2087;" horiz-adv-x="778" 
d="M449 350h-158v-92h-219v311h639v-221q-125 -125 -164 -274q-31 -102 -31 -320h-285q0 374 218 596z" />
    <glyph glyph-name="uni2088" unicode="&#x2088;" horiz-adv-x="778" 
d="M92 332q0 112 83.5 182t211.5 70t211.5 -70t83.5 -182q0 -101 -92 -162q58 -25 92.5 -74t34.5 -110q0 -109 -94 -179q-91 -67 -236 -67q-143 0 -237 67q-93 72 -93 179q0 59 34.5 109t92.5 75q-92 61 -92 162zM319 324q0 -29 19.5 -47.5t48.5 -18.5t48.5 18.5t19.5 47.5
q0 30 -18.5 47.5t-49.5 17.5t-49.5 -17.5t-18.5 -47.5zM461 10q0 31 -21 50.5t-53 19.5t-53 -19.5t-21 -50.5q0 -32 20.5 -50.5t53.5 -18.5t53.5 18.5t20.5 50.5z" />
    <glyph glyph-name="uni2089" unicode="&#x2089;" horiz-adv-x="778" 
d="M348 -260q-219 0 -295 190l213 84q21 -59 86 -59q44 0 72.5 31.5t28.5 79.5q0 18 -2 26q-39 -51 -136 -51q-112 0 -183 69.5t-71 178.5q0 131 86.5 213t225.5 82q154 0 248 -113q94 -110 94 -289q0 -192 -103 -319q-102 -123 -264 -123zM377 377q-33 0 -53.5 -21.5
t-20.5 -56.5t21 -57.5t53 -22.5q33 0 54.5 22.5t21.5 57.5t-21.5 56.5t-54.5 21.5z" />
    <glyph glyph-name="franc" unicode="&#x20a3;" horiz-adv-x="1312" 
d="M217 238h-176v276h176v956h1053v-340h-658v-202h555v-332h-555v-82h297v-276h-297v-238h-395v238z" />
    <glyph glyph-name="naira" unicode="&#x20a6;" horiz-adv-x="1673" 
d="M252 463h-211v233h211v82h-211v236h211v456h377l424 -794v794h368v-456h211v-236h-211v-82h211v-233h-211v-463h-331l-469 852v-852h-369v463z" />
    <glyph glyph-name="peseta" unicode="&#x20a7;" horiz-adv-x="1660" 
d="M801 328h-168v-328h-387v764h-205v270h205v436h555q252 0 409.5 -113.5t194.5 -322.5h215v-270h-215q-37 -209 -194.5 -322.5t-409.5 -113.5zM825 1186h-192v-152h399q-48 152 -207 152zM633 764v-154h192q159 0 207 154h-399z" />
    <glyph glyph-name="won" unicode="&#x20a9;" horiz-adv-x="1927" 
d="M332 481h-291v236h240l-19 82h-221v233h168l-98 438h391l155 -862l160 862h303l158 -862l158 862h381l-99 -438h168v-233h-221l-18 -82h239v-236h-291l-108 -481h-352l-170 905l-170 -905h-355z" />
    <glyph glyph-name="dong" unicode="&#x20ab;" horiz-adv-x="1228" 
d="M444 92q-177 0 -288 129q-109 130 -109 330q0 201 109 328q111 129 288 129q75 0 139 -27.5t101 -75.5v170h-336v240h336v155h340v-155h176v-240h-176v-964h-340v88q-37 -50 -101 -78.5t-139 -28.5zM688 526v45q0 82 -41 129.5t-110 47.5q-72 0 -113 -54t-41 -147
q0 -91 41 -145t113 -54q69 0 110 48t41 130zM1024 -254h-895v254h895v-254z" />
    <glyph glyph-name="Euro" unicode="&#x20ac;" horiz-adv-x="1370" 
d="M176 477h-137v219h108v39v43h-108v221h139q57 234 213.5 365t378.5 131q215 0 359 -112.5t212 -329.5l-356 -111q-19 108 -76 165.5t-145 57.5q-69 0 -122.5 -43t-84.5 -123h303l-41 -221h-305v-43v-39h289l-43 -219h-205q30 -84 84.5 -128t124.5 -44q88 0 145 57.5
t76 165.5l356 -110q-68 -218 -212.5 -330.5t-358.5 -112.5q-225 0 -381 132t-213 370z" />
    <glyph glyph-name="peso" unicode="&#x20b1;" horiz-adv-x="1566" 
d="M252 662h-211v233h211v82h-211v235h211v258h508q191 0 326.5 -66.5t203.5 -191.5h236v-235h-174v-31q0 -41 -2 -51h176v-233h-246q-69 -117 -202.5 -178.5t-317.5 -61.5h-121v-422h-387v662zM639 1171v-450h131q104 0 161.5 59.5t57.5 165.5q0 108 -57 166.5t-162 58.5
h-131z" />
    <glyph glyph-name="uni20B9" unicode="&#x20b9;" horiz-adv-x="1265" 
d="M621 829h-533v263h533q-60 116 -228 116h-305v262h1102v-262h-287q46 -46 66 -116h221v-263h-215q-26 -109 -100.5 -192.5t-186.5 -130.5l391 -506h-461l-339 451h-191v262h305q168 0 228 116z" />
    <glyph glyph-name="uni20BA" unicode="&#x20ba;" horiz-adv-x="1437" 
d="M633 336h69q171 0 247.5 88.5t76.5 284.5h371q0 -335 -174 -521q-176 -188 -484 -188h-493v387l-205 -96v280l205 97v88l-205 -97v281l205 96v434h387v-270l287 135v-282l-287 -135v-89l287 136v-281l-287 -135v-213z" />
    <glyph glyph-name="uni20BD" unicode="&#x20bd;" horiz-adv-x="1374" 
d="M252 221h-211v266h211v82h-211v267h211v634h524q277 0 429.5 -118t152.5 -334q0 -215 -152 -332t-430 -117h-137v-82h260v-266h-260v-221h-387v221zM639 1196v-360h143q100 0 154.5 46t54.5 132q0 88 -53.5 135t-155.5 47h-143z" />
    <glyph glyph-name="trademark" unicode="&#x2122;" horiz-adv-x="1689" 
d="M500 1239v-489h-262v489h-197v231h655v-231h-196zM1378 1137l-123 -387h-135l-123 387v-387h-227v720h322l100 -340l98 340h318v-720h-230v387z" />
    <glyph glyph-name="uni2153" unicode="&#x2153;" horiz-adv-x="1857" 
d="M1796 233q0 -109 -87 -178t-226 -69q-143 0 -233 69t-103 191l266 37q2 -32 20.5 -52t47.5 -20t45 14t16 39q0 26 -18.5 40.5t-50.5 14.5h-76v179h65q33 0 51.5 14.5t18.5 40.5q0 24 -14.5 37.5t-40.5 13.5t-43.5 -19t-22.5 -50l-254 16q14 125 105 201.5t227 76.5
q134 0 217.5 -70t83.5 -181q0 -53 -31 -100t-76 -66q113 -53 113 -179zM322 0l1024 1470h272l-1022 -1470h-274zM283 887v268h-179v184l82 7q127 9 150 124h215v-583h137v-232h-582v232h177z" />
    <glyph glyph-name="uni2154" unicode="&#x2154;" horiz-adv-x="1878" 
d="M1817 233q0 -109 -87.5 -178t-226.5 -69q-143 0 -233 69t-103 191l267 37q2 -32 20 -52t47 -20t45.5 14t16.5 39q0 26 -18.5 40.5t-51.5 14.5h-76v179h66q32 0 50.5 14.5t18.5 40.5q0 24 -14.5 37.5t-40.5 13.5t-43 -19t-22 -50l-254 16q14 125 104.5 201.5t226.5 76.5
q134 0 217.5 -70t83.5 -181q0 -53 -30.5 -100t-75.5 -66q113 -53 113 -179zM342 0l1024 1470h272l-1022 -1470h-274zM76 655v201l264 201q53 41 74.5 70.5t21.5 60.5q0 27 -16 44t-45 17q-27 0 -44.5 -19.5t-17.5 -49.5q0 -25 13 -60h-248q-12 34 -12 76q0 127 92 207
q91 82 227 82q141 0 226 -75t85 -198q0 -66 -33 -123t-108 -118l-109 -84h256v-232h-626z" />
    <glyph glyph-name="uni215B" unicode="&#x215b;" horiz-adv-x="1859" 
d="M1178 578q0 112 83 181.5t212 69.5t211.5 -69.5t82.5 -181.5q0 -101 -92 -162q58 -25 92.5 -74.5t34.5 -110.5q0 -108 -94 -178q-91 -67 -235 -67t-238 67q-92 71 -92 178q0 60 35 110t92 75q-92 61 -92 162zM1405 569q0 -29 19 -47t49 -18q29 0 48 18t19 47
q0 31 -18 48.5t-49 17.5t-49.5 -17.5t-18.5 -48.5zM1546 256q0 31 -20.5 50.5t-52.5 19.5t-53 -19.5t-21 -50.5q0 -32 20.5 -51t53.5 -19t53 19t20 51zM322 0l1024 1470h272l-1022 -1470h-274zM283 887v268h-179v184l82 7q127 9 150 124h215v-583h137v-232h-582v232h177z
" />
    <glyph glyph-name="uni215C" unicode="&#x215c;" horiz-adv-x="1822" 
d="M1145 578q0 112 83 181.5t212 69.5t212 -69.5t83 -181.5q0 -101 -93 -162q58 -25 92.5 -74.5t34.5 -110.5q0 -108 -94 -178q-91 -67 -235 -67t-238 67q-92 71 -92 178q0 60 35 110t92 75q-92 61 -92 162zM1372 569q0 -29 19 -47t49 -18q29 0 48 18t19 47q0 31 -18 48.5
t-49 17.5t-49.5 -17.5t-18.5 -48.5zM1513 256q0 31 -20.5 50.5t-52.5 19.5t-53 -19.5t-21 -50.5q0 -32 20.5 -51t53.5 -19t53 19t20 51zM285 0l1024 1470h272l-1022 -1470h-274zM711 889q0 -109 -87.5 -178.5t-226.5 -69.5q-143 0 -233 69t-103 191l267 37q2 -32 20 -52
t47 -20t45.5 14.5t16.5 39.5q0 26 -18.5 40.5t-51.5 14.5h-76v178h66q32 0 50.5 14.5t18.5 40.5q0 24 -14.5 38t-40.5 14t-43 -19.5t-22 -50.5l-254 16q14 125 104.5 202t226.5 77q134 0 218 -70.5t84 -181.5q0 -53 -31 -100t-76 -66q113 -53 113 -178z" />
    <glyph glyph-name="uni215D" unicode="&#x215d;" horiz-adv-x="1822" 
d="M1141 578q0 112 83 181.5t212 69.5t212 -69.5t83 -181.5q0 -101 -93 -162q58 -25 92.5 -74.5t34.5 -110.5q0 -108 -94 -178q-91 -67 -235 -67t-238 67q-92 71 -92 178q0 60 35 110t92 75q-92 61 -92 162zM1368 569q0 -29 19 -47t49 -18q29 0 48 18t19 47q0 31 -18 48.5
t-49 17.5t-49.5 -17.5t-18.5 -48.5zM1509 256q0 31 -20.5 50.5t-52.5 19.5t-53 -19.5t-21 -50.5q0 -32 20.5 -51t53.5 -19t53 19t20 51zM281 0l1024 1470h272l-1022 -1470h-274zM395 1006q-38 0 -53 -35l-248 24l39 475h510v-219h-315l-9 -106q65 49 150 49q112 0 178 -69.5
t66 -188.5q0 -129 -91.5 -212t-232.5 -83q-142 0 -232 69.5t-102 190.5l267 39q2 -33 20 -53.5t47 -20.5q31 0 49.5 19.5t18.5 50.5t-16.5 50.5t-45.5 19.5z" />
    <glyph glyph-name="uni215E" unicode="&#x215e;" horiz-adv-x="1740" 
d="M1059 578q0 112 83 181.5t212 69.5t212 -69.5t83 -181.5q0 -101 -93 -162q58 -25 92.5 -74.5t34.5 -110.5q0 -108 -94 -178q-91 -67 -235 -67t-238 67q-92 71 -92 178q0 60 35 110t92 75q-92 61 -92 162zM1286 569q0 -29 19 -47t49 -18q29 0 48 18t19 47q0 31 -18 48.5
t-49 17.5t-49.5 -17.5t-18.5 -48.5zM1427 256q0 31 -20.5 50.5t-52.5 19.5t-53 -19.5t-21 -50.5q0 -32 20.5 -51t53.5 -19t53 19t20 51zM199 0l1024 1470h272l-1022 -1470h-274zM449 1251h-158v-92h-219v311h639v-221q-125 -125 -164 -274q-31 -102 -31 -320h-285
q0 374 218 596z" />
    <glyph glyph-name="arrowleft" unicode="&#x2190;" horiz-adv-x="1521" 
d="M582 580l272 -297l-229 -217l-611 675l611 676l229 -217l-272 -297h925v-323h-925z" />
    <glyph glyph-name="arrowup" unicode="&#x2191;" horiz-adv-x="1378" 
d="M690 1495l676 -610l-215 -232l-297 275v-928h-328v930l-299 -277l-213 232z" />
    <glyph glyph-name="arrowright" unicode="&#x2192;" horiz-adv-x="1521" 
d="M897 66l-229 217l272 297h-926v323h926l-272 297l229 217l610 -676z" />
    <glyph glyph-name="arrowdown" unicode="&#x2193;" horiz-adv-x="1378" 
d="M1151 817l215 -231l-676 -611l-676 611l213 231l299 -276v929h328v-927z" />
    <glyph glyph-name="minus" unicode="&#x2212;" 
d="M1178 565h-1112v295h1112v-295z" />
    <glyph glyph-name="commaaccent" unicode="&#xf6c3;" horiz-adv-x="1228" 
d="M547 -260h-129v199h389v-84q0 -314 -389 -314v133q118 0 129 66z" />
    <glyph glyph-name="a.1" horiz-adv-x="1159" 
d="M1071 748v-469q0 -151 16 -279h-364q-6 75 -6 80q-112 -100 -305 -100q-165 0 -275 90q-104 88 -104 231q0 307 456 356l201 29v29q0 49 -28.5 71.5t-90.5 22.5q-60 0 -91.5 -23.5t-35.5 -74.5h-374q13 186 151 290.5t367 104.5q232 0 357.5 -93t125.5 -265zM516 254
q79 0 126.5 38t47.5 103v60l-158 -23q-122 -15 -122 -96q0 -39 27.5 -60.5t78.5 -21.5z" />
    <glyph glyph-name="aogonek.1" horiz-adv-x="1159" 
d="M854 -371q-101 0 -165 52t-64 137q0 104 98 186q-6 75 -6 76q-112 -100 -305 -100q-165 0 -275 90q-104 88 -104 231q0 307 456 356l201 29v29q0 49 -28.5 71.5t-90.5 22.5q-60 0 -91.5 -23.5t-35.5 -74.5h-374q13 186 151 290.5t367 104.5q232 0 357.5 -93t125.5 -265
v-469q0 -151 16 -279h-108q-63 -35 -88 -60t-25 -51q0 -47 62 -47q28 0 82 11v-205q-69 -19 -156 -19zM516 254q79 0 126.5 38t47.5 103v60l-158 -23q-122 -15 -122 -96q0 -39 27.5 -60.5t78.5 -21.5z" />
    <glyph glyph-name="aacute.1" horiz-adv-x="1159" 
d="M731 1157h-303l100 313h453zM1071 748v-469q0 -151 16 -279h-364q-6 75 -6 80q-112 -100 -305 -100q-165 0 -275 90q-104 88 -104 231q0 307 456 356l201 29v29q0 49 -28.5 71.5t-90.5 22.5q-60 0 -91.5 -23.5t-35.5 -74.5h-374q13 186 151 290.5t367 104.5
q232 0 357.5 -93t125.5 -265zM516 254q79 0 126.5 38t47.5 103v60l-158 -23q-122 -15 -122 -96q0 -39 27.5 -60.5t78.5 -21.5z" />
    <glyph glyph-name="adieresis.1" horiz-adv-x="1159" 
d="M551 1167h-365v303h365v-303zM997 1167h-364v303h364v-303zM1071 748v-469q0 -151 16 -279h-364q-6 75 -6 80q-112 -100 -305 -100q-165 0 -275 90q-104 88 -104 231q0 307 456 356l201 29v29q0 49 -28.5 71.5t-90.5 22.5q-60 0 -91.5 -23.5t-35.5 -74.5h-374
q13 186 151 290.5t367 104.5q232 0 357.5 -93t125.5 -265zM516 254q79 0 126.5 38t47.5 103v60l-158 -23q-122 -15 -122 -96q0 -39 27.5 -60.5t78.5 -21.5z" />
    <glyph glyph-name="acircumflex.1" horiz-adv-x="1159" 
d="M401 1470h373l209 -313h-281l-114 94l-115 -94h-280zM1071 748v-469q0 -151 16 -279h-364q-6 75 -6 80q-112 -100 -305 -100q-165 0 -275 90q-104 88 -104 231q0 307 456 356l201 29v29q0 49 -28.5 71.5t-90.5 22.5q-60 0 -91.5 -23.5t-35.5 -74.5h-374q13 186 151 290.5
t367 104.5q232 0 357.5 -93t125.5 -265zM516 254q79 0 126.5 38t47.5 103v60l-158 -23q-122 -15 -122 -96q0 -39 27.5 -60.5t78.5 -21.5z" />
    <glyph glyph-name="aring.1" horiz-adv-x="1159" 
d="M575 1147q-106 0 -176.5 66.5t-70.5 164.5q0 99 71 166.5t176 67.5t176.5 -67.5t71.5 -166.5q0 -98 -71 -164.5t-177 -66.5zM575 1456q-32 0 -52.5 -22.5t-20.5 -55.5q0 -32 20.5 -53.5t52.5 -21.5t54 21.5t22 53.5t-22 55t-54 23zM1071 748v-469q0 -151 16 -279h-364
q-6 75 -6 80q-112 -100 -305 -100q-165 0 -275 90q-104 88 -104 231q0 307 456 356l201 29v29q0 49 -28.5 71.5t-90.5 22.5q-60 0 -91.5 -23.5t-35.5 -74.5h-374q13 186 151 290.5t367 104.5q232 0 357.5 -93t125.5 -265zM516 254q79 0 126.5 38t47.5 103v60l-158 -23
q-122 -15 -122 -96q0 -39 27.5 -60.5t78.5 -21.5z" />
    <glyph glyph-name="abreve.1" horiz-adv-x="1159" 
d="M586 1384q43 0 71.5 24.5t28.5 61.5h262q0 -150 -95.5 -233.5t-266.5 -83.5q-172 0 -267.5 84t-95.5 233h262q0 -37 29 -61.5t72 -24.5zM1071 748v-469q0 -151 16 -279h-364q-6 75 -6 80q-112 -100 -305 -100q-165 0 -275 90q-104 88 -104 231q0 307 456 356l201 29v29
q0 49 -28.5 71.5t-90.5 22.5q-60 0 -91.5 -23.5t-35.5 -74.5h-374q13 186 151 290.5t367 104.5q232 0 357.5 -93t125.5 -265zM516 254q79 0 126.5 38t47.5 103v60l-158 -23q-122 -15 -122 -96q0 -39 27.5 -60.5t78.5 -21.5z" />
    <glyph glyph-name="agrave.1" horiz-adv-x="1159" 
d="M664 1470l100 -313h-303l-250 313h453zM1071 748v-469q0 -151 16 -279h-364q-6 75 -6 80q-112 -100 -305 -100q-165 0 -275 90q-104 88 -104 231q0 307 456 356l201 29v29q0 49 -28.5 71.5t-90.5 22.5q-60 0 -91.5 -23.5t-35.5 -74.5h-374q13 186 151 290.5t367 104.5
q232 0 357.5 -93t125.5 -265zM516 254q79 0 126.5 38t47.5 103v60l-158 -23q-122 -15 -122 -96q0 -39 27.5 -60.5t78.5 -21.5z" />
    <glyph glyph-name="atilde.1" horiz-adv-x="1159" 
d="M457 1493q32 0 61.5 -11t71.5 -42q49 -35 80 -35q58 0 73 88h230q-5 -156 -71 -246t-181 -90q-60 0 -133 51q-49 35 -80 35q-59 0 -74 -86h-229q5 154 72.5 245t179.5 91zM1071 748v-469q0 -151 16 -279h-364q-6 75 -6 80q-112 -100 -305 -100q-165 0 -275 90
q-104 88 -104 231q0 307 456 356l201 29v29q0 49 -28.5 71.5t-90.5 22.5q-60 0 -91.5 -23.5t-35.5 -74.5h-374q13 186 151 290.5t367 104.5q232 0 357.5 -93t125.5 -265zM516 254q79 0 126.5 38t47.5 103v60l-158 -23q-122 -15 -122 -96q0 -39 27.5 -60.5t78.5 -21.5z" />
    <glyph glyph-name="amacron.1" horiz-adv-x="1159" 
d="M940 1454v-278h-700v278h700zM1071 748v-469q0 -151 16 -279h-364q-6 75 -6 80q-112 -100 -305 -100q-165 0 -275 90q-104 88 -104 231q0 307 456 356l201 29v29q0 49 -28.5 71.5t-90.5 22.5q-60 0 -91.5 -23.5t-35.5 -74.5h-374q13 186 151 290.5t367 104.5
q232 0 357.5 -93t125.5 -265zM516 254q79 0 126.5 38t47.5 103v60l-158 -23q-122 -15 -122 -96q0 -39 27.5 -60.5t78.5 -21.5z" />
    <glyph glyph-name="idotaccent" horiz-adv-x="571" 
d="M481 1167h-391v303h391v-303zM90 1081h389v-1081h-389v1081z" />
    <glyph glyph-name="ordfeminine.1" horiz-adv-x="901" 
d="M795 1233v-342q0 -145 10 -199h-252q-4 29 -6 60q-77 -74 -219 -74q-121 0 -196 64t-75 167q0 217 322 254l149 25v22q0 70 -88 70q-44 0 -66.5 -18t-27.5 -56h-262q10 133 107.5 207t261.5 74q165 0 253.5 -65.5t88.5 -188.5zM397 870q60 0 95.5 29t35.5 78v47l-116 -18
q-49 -7 -71 -25t-22 -49q0 -29 20.5 -45.5t57.5 -16.5zM799 365h-738v213h738v-213z" />
    <glyph glyph-name="a.ord" horiz-adv-x="901" 
d="M555 758q-83 -80 -227 -80q-121 0 -197 64t-76 167q0 216 324 254l151 21v12q0 82 -92 82q-87 0 -102 -82l-260 31q25 119 125.5 189.5t247.5 70.5q165 0 254.5 -72t89.5 -205v-280q0 -29 13 -38.5t44 -4.5v-193q-103 -20 -180.5 -3.5t-114.5 67.5zM397 868q60 0 96.5 29
t36.5 76v49l-120 -18q-91 -14 -91 -74q0 -29 20.5 -45.5t57.5 -16.5z" />
    <glyph glyph-name="a.1.ord" horiz-adv-x="901" 
d="M795 1233v-342q0 -145 10 -199h-252q-4 29 -6 60q-77 -74 -219 -74q-121 0 -196 64t-75 167q0 217 322 254l149 25v22q0 70 -88 70q-44 0 -66.5 -18t-27.5 -56h-262q10 133 107.5 207t261.5 74q165 0 253.5 -65.5t88.5 -188.5zM397 870q60 0 95.5 29t35.5 78v47l-116 -18
q-49 -7 -71 -25t-22 -49q0 -29 20.5 -45.5t57.5 -16.5z" />
    <glyph glyph-name="b.ord" horiz-adv-x="985" 
d="M922 1081q0 -177 -93 -293q-87 -112 -239 -112q-63 0 -117.5 24.5t-85.5 67.5v-76h-270v1057h270v-352q30 42 84.5 66t118.5 24q150 0 239 -115q93 -116 93 -291zM516 1260q-60 0 -95.5 -43.5t-35.5 -116.5v-39q0 -72 35.5 -115t95.5 -43q61 0 97 48t36 130t-36 130.5
t-97 48.5z" />
    <glyph glyph-name="c.ord" horiz-adv-x="856" 
d="M465 1268q-66 0 -102.5 -49.5t-36.5 -137.5t36.5 -137t102.5 -49q47 0 77.5 30.5t41.5 86.5l231 -82q-25 -113 -122 -183.5t-232 -70.5q-178 0 -287 112q-111 114 -111 293t111 293q110 113 287 113q135 0 232 -70t122 -182l-231 -84q-10 54 -42.5 85.5t-76.5 31.5z" />
    <glyph glyph-name="d.ord" horiz-adv-x="985" 
d="M395 676q-151 0 -241 112q-91 117 -91 293q0 174 91 291q92 115 241 115q64 0 118.5 -24t84.5 -66v352h270v-1057h-270v76q-31 -43 -85.5 -67.5t-117.5 -24.5zM600 1061v39q0 73 -35.5 116.5t-95.5 43.5q-61 0 -97 -48.5t-36 -130.5t36 -130t97 -48q60 0 95.5 43
t35.5 115z" />
    <glyph glyph-name="e.ord" horiz-adv-x="899" 
d="M465 676q-182 0 -291 112q-111 114 -111 295q0 176 113 289q115 115 287 115q171 0 273 -110.5t102 -291.5v-63h-512q12 -66 50 -101.5t95 -35.5q109 0 137 92l223 -70q-41 -106 -140 -168.5t-226 -62.5zM461 1286q-103 0 -131 -110h245q-1 49 -32.5 79.5t-81.5 30.5z
" />
    <glyph glyph-name="f.ord" horiz-adv-x="579" 
d="M442 1761q8 0 34.5 -1.5t60.5 -2.5v-203q-33 5 -54 5q-44 0 -63 -17t-19 -55v-17h136v-219h-136v-559h-268v559h-98v219h98v29q0 135 75.5 198.5t233.5 63.5z" />
    <glyph glyph-name="g.ord" horiz-adv-x="995" 
d="M879 1470v-677q0 -173 -114.5 -273t-311.5 -100q-154 0 -254 61.5t-125 173.5l256 52q12 -42 47 -65.5t86 -23.5q69 0 107 37t38 105v49q-30 -39 -86.5 -63.5t-118.5 -24.5q-151 0 -242 106t-91 277t91 277t242 106q63 0 119.5 -24.5t85.5 -65.5v73h271zM608 1090v28
q0 72 -34.5 112t-94.5 40q-63 0 -98 -44t-35 -122t35 -122t98 -44q60 0 94.5 40t34.5 112z" />
    <glyph glyph-name="h.ord" horiz-adv-x="972" 
d="M387 692h-270v1057h270v-352q37 42 93 66t118 24q119 0 190.5 -77t71.5 -204v-514h-270v438q0 55 -25 86t-69 31q-50 0 -79.5 -32t-29.5 -87v-436z" />
    <glyph glyph-name="i.ord" horiz-adv-x="501" 
d="M387 1536h-270v213h270v-213zM117 1470h270v-778h-270v778z" />
    <glyph glyph-name="j.ord" horiz-adv-x="456" 
d="M342 1536h-270v213h270v-213zM-8 627q43 0 61.5 15t18.5 50v778h268v-776q0 -133 -72.5 -201.5t-212.5 -68.5q-23 0 -67 3l-43 3v199q14 -2 47 -2z" />
    <glyph glyph-name="k.ord" horiz-adv-x="946" 
d="M117 1749h270v-526l217 247h311l-268 -284l289 -494h-303l-176 293l-70 -76v-217h-270v1057z" />
    <glyph glyph-name="l.ord" horiz-adv-x="503" 
d="M117 1749h270v-1057h-270v1057z" />
    <glyph glyph-name="m.ord" horiz-adv-x="1431" 
d="M489 1247q-45 0 -73.5 -33t-28.5 -86v-436h-270v778h270v-73q37 42 93 66t118 24q69 0 127 -28t90 -77q96 105 242 105q118 0 189 -76.5t71 -204.5v-514h-268v438q0 57 -24 87t-69 30q-48 0 -76 -32t-28 -87v-436h-268v438q0 55 -25.5 86t-69.5 31z" />
    <glyph glyph-name="n.ord" horiz-adv-x="972" 
d="M387 692h-270v778h270v-73q37 42 93 66t118 24q119 0 190.5 -77t71.5 -204v-514h-270v438q0 55 -25 86t-69 31q-50 0 -79.5 -32t-29.5 -87v-436z" />
    <glyph glyph-name="o.ord" horiz-adv-x="921" 
d="M461 1487q177 0 287 -113t110 -293t-110 -293q-109 -112 -287 -112t-287 112q-111 114 -111 293t111 293q110 113 287 113zM461 1270q-62 0 -96.5 -49.5t-34.5 -139.5t34 -138t97 -48t97 48t34 138t-34.5 139.5t-96.5 49.5z" />
    <glyph glyph-name="p.ord" horiz-adv-x="985" 
d="M922 1081q0 -177 -93 -293q-87 -112 -239 -112q-63 0 -117.5 24.5t-85.5 67.5v-332h-270v1034h270v-73q30 42 84.5 66t118.5 24q150 0 239 -115q93 -116 93 -291zM516 1260q-60 0 -95.5 -43.5t-35.5 -116.5v-39q0 -72 35.5 -115t95.5 -43q61 0 97 48t36 130t-36 130.5
t-97 48.5z" />
    <glyph glyph-name="q.ord" horiz-adv-x="985" 
d="M395 676q-151 0 -241 112q-91 117 -91 293q0 174 91 291q92 115 241 115q64 0 118.5 -24t84.5 -66v73h270v-1034h-270v332q-31 -43 -85.5 -67.5t-117.5 -24.5zM600 1061v39q0 73 -35.5 116.5t-95.5 43.5q-61 0 -97 -48.5t-36 -130.5t36 -130t97 -48q60 0 95.5 43
t35.5 115z" />
    <glyph glyph-name="r.ord" horiz-adv-x="694" 
d="M580 1475q8 0 27 -1t24 -1v-256q-31 6 -72 6q-78 0 -125 -44.5t-47 -117.5v-369h-270v778h270v-96q29 47 80.5 74t112.5 27z" />
    <glyph glyph-name="s.ord" horiz-adv-x="817" 
d="M389 676q-103 0 -203.5 31.5t-154.5 80.5l100 179q56 -43 132.5 -71t139.5 -28q97 0 97 54q0 21 -15 31.5t-57 17.5q-49 13 -96 18q-124 21 -185 60q-81 57 -81 168q0 121 97 195.5t251 74.5q100 0 190 -29.5t150 -83.5l-119 -160q-101 84 -219 84q-37 0 -58.5 -13
t-21.5 -36q0 -17 12 -26t43 -17q12 -4 43.5 -10t36.5 -6q134 -23 201 -62q94 -61 94 -176q0 -124 -104.5 -200t-272.5 -76z" />
    <glyph glyph-name="t.ord" horiz-adv-x="618" 
d="M395 686q-140 0 -203 52t-63 169v344h-94v219h94v209h266v-209h148v-219h-148v-266q0 -42 18.5 -58t67.5 -16q16 0 41 2l25 2v-219q-69 -10 -152 -10z" />
    <glyph glyph-name="u.ord" horiz-adv-x="970" 
d="M586 1470h268v-778h-268v74q-77 -90 -209 -90q-119 0 -191.5 76.5t-72.5 203.5v514h270v-450q0 -113 96 -113q45 0 76 33t31 86v444z" />
    <glyph glyph-name="v.ord" horiz-adv-x="866" 
d="M842 1470l-277 -778h-264l-278 778h274l141 -446l140 446h264z" />
    <glyph glyph-name="w.ord" horiz-adv-x="1202" 
d="M403 1047l105 423h194l107 -423l109 423h262l-238 -778h-231l-109 387l-113 -387h-231l-235 778h270z" />
    <glyph glyph-name="x.ord" horiz-adv-x="876" 
d="M856 692h-295l-129 205l-129 -205h-285l265 402l-250 376h295l114 -182l117 182h283l-250 -376z" />
    <glyph glyph-name="y.ord" horiz-adv-x="866" 
d="M842 1470l-283 -763q-56 -158 -132 -220.5t-202 -62.5q-12 0 -98 4v209q16 -1 33.5 -2.5t25.5 -1.5q75 0 95 59l14 37l-272 741h274l141 -440l140 440h264z" />
    <glyph glyph-name="z.ord" horiz-adv-x="858" 
d="M436 911h332v-219h-680v193l346 366h-342v219h672v-192z" />
    <glyph glyph-name="caron.Slovak" horiz-adv-x="1228" 
d="M635 1118h-262l37 352h401z" />
    <glyph glyph-name="commaturn" horiz-adv-x="1228" 
d="M680 1356h129v-199h-389v84q0 313 389 313v-133q-61 0 -92 -15t-37 -50z" />
    <glyph glyph-name="grave.cap" horiz-adv-x="1228" 
d="M797 1884l139 -342h-326l-317 342h504z" />
    <glyph glyph-name="acute.cap" horiz-adv-x="1228" 
d="M608 1542h-325l139 342h504z" />
    <glyph glyph-name="circumflex.cap" horiz-adv-x="1228" 
d="M424 1884h381l233 -342h-280l-144 121l-143 -121h-281z" />
    <glyph glyph-name="caron.cap" horiz-adv-x="1228" 
d="M1038 1884l-233 -342h-381l-234 342h281l143 -121l144 121h280z" />
    <glyph glyph-name="tilde.cap" horiz-adv-x="1228" 
d="M463 1925q37 0 69 -11.5t86 -45.5q58 -39 91 -39q37 0 57 22.5t27 73.5h251q-5 -178 -79 -280.5t-201 -102.5q-37 0 -69.5 12t-86.5 48q-56 38 -90 38q-35 0 -54.5 -23.5t-27.5 -74.5h-254q5 178 79.5 280.5t201.5 102.5z" />
    <glyph glyph-name="macron.cap" horiz-adv-x="1228" 
d="M1004 1829v-281h-779v281h779z" />
    <glyph glyph-name="breve.cap" horiz-adv-x="1228" 
d="M614 1788q50 0 80.5 30.5t30.5 79.5h274q0 -165 -103.5 -261.5t-281.5 -96.5t-281.5 96.5t-103.5 261.5h275q0 -50 30 -80t80 -30z" />
    <glyph glyph-name="dotaccent.cap" horiz-adv-x="1228" 
d="M811 1542h-393v326h393v-326z" />
    <glyph glyph-name="dieresis.cap" horiz-adv-x="1228" 
d="M569 1542h-362v326h362v-326zM1022 1542h-363v326h363v-326z" />
    <glyph glyph-name="ring.cap" horiz-adv-x="1228" 
d="M614 1528q-131 0 -221 84q-88 85 -88 207t88 204q90 84 221 84q132 0 222 -84q88 -82 88 -204t-88 -207q-90 -84 -222 -84zM614 1919q-43 0 -70.5 -28t-27.5 -72t27.5 -73.5t70.5 -29.5t71 29.5t28 73.5t-28 72t-71 28z" />
    <glyph glyph-name="hungarumlaut.cap" horiz-adv-x="1228" 
d="M864 1556h-289l150 342h405zM399 1556h-288l147 342h408z" />
    <glyph glyph-name="guilsinglleft.cap" horiz-adv-x="579" 
d="M528 209l-477 305v320l477 305v-357l-157 -108l157 -109v-356z" />
    <glyph glyph-name="guilsinglright.cap" horiz-adv-x="579" 
d="M528 514l-477 -305v356l158 109l-158 108v357l477 -305v-320z" />
    <glyph glyph-name="guillemotleft.cap" horiz-adv-x="1122" 
d="M528 209l-477 305v320l477 305v-357l-157 -108l157 -109v-356zM1071 209l-477 305v320l477 305v-357l-158 -108l158 -109v-356z" />
    <glyph glyph-name="guillemotright.cap" horiz-adv-x="1122" 
d="M1071 834v-320l-477 -305v356l158 109l-158 108v357zM528 834v-320l-477 -305v356l158 109l-158 108v357z" />
    <glyph glyph-name="slash.cap" horiz-adv-x="1026" 
d="M412 -137h-392l594 1712h392z" />
    <glyph glyph-name="backslash.cap" horiz-adv-x="1026" 
d="M1006 -137h-392l-594 1712h392z" />
    <glyph glyph-name="bar.cap" horiz-adv-x="606" 
d="M492 -137h-377v1712h377v-1712z" />
    <glyph glyph-name="periodcentered.cap" horiz-adv-x="600" 
d="M518 537h-436v417h436v-417z" />
    <glyph glyph-name="bullet.cap" horiz-adv-x="927" 
d="M174 1022q117 117 293 117q172 0 289 -117q112 -115 112 -293q0 -173 -114 -287t-287 -114t-291 112q-119 116 -119 289q0 179 117 293z" />
    <glyph glyph-name="hyphen.cap" horiz-adv-x="796" 
d="M715 555h-633v354h633v-354z" />
    <glyph glyph-name="endash.cap" horiz-adv-x="1110" 
d="M1028 571h-946v320h946v-320z" />
    <glyph glyph-name="emdash.cap" horiz-adv-x="1998" 
d="M1917 571h-1835v320h1835v-320z" />
    <glyph glyph-name="parenleft.cap" horiz-adv-x="790" 
d="M481 719q0 -225 81.5 -450.5t228.5 -405.5h-340q-185 179 -283 399t-98 457t98 457t283 399h340q-147 -180 -228.5 -405.5t-81.5 -450.5z" />
    <glyph glyph-name="parenright.cap" horiz-adv-x="790" 
d="M309 719q0 226 -81.5 451t-227.5 405h340q185 -179 283 -399t98 -457t-98 -457t-283 -399h-340q146 180 227.5 405t81.5 451z" />
    <glyph glyph-name="bracketleft.cap" horiz-adv-x="708" 
d="M688 1286h-237v-1136h237v-287h-606v1712h606v-289z" />
    <glyph glyph-name="bracketright.cap" horiz-adv-x="708" 
d="M258 1286h-238v289h607v-1712h-607v287h238v1136z" />
    <glyph glyph-name="braceleft.cap" horiz-adv-x="804" 
d="M137 567h-96v303h96q86 0 86 103v239q0 171 111 267t311 96h139v-289h-59q-152 0 -152 -149v-199q0 -157 -127 -219q127 -62 127 -219v-199q0 -149 152 -149h59v-289h-139q-200 0 -311 95.5t-111 266.5v240q0 102 -86 102z" />
    <glyph glyph-name="braceright.cap" horiz-adv-x="804" 
d="M764 567h-96q-86 0 -86 -102v-240q0 -171 -111 -266.5t-311 -95.5h-140v289h60q78 0 114.5 37t36.5 112v199q0 157 127 219q-127 62 -127 219v199q0 75 -36.5 112t-114.5 37h-60v289h140q200 0 311 -96t111 -267v-239q0 -103 86 -103h96v-303z" />
    <glyph glyph-name="at.cap" horiz-adv-x="1884" 
d="M1417 518q41 0 77.5 34.5t59.5 94.5q33 79 33 199q0 244 -154.5 377t-433.5 133q-146 0 -273.5 -52.5t-221.5 -150.5q-94 -97 -144.5 -225.5t-50.5 -274.5q0 -136 49 -246.5t142 -185.5q174 -145 458 -145q297 0 506 145l123 -190q-250 -193 -629 -193q-190 0 -356 53.5
t-289 153.5q-272 225 -272 608q0 191 75 365.5t212 308.5q135 129 312 197.5t374 68.5q168 0 316.5 -48t258.5 -138q124 -98 189 -235.5t65 -301.5q0 -240 -123 -403q-67 -91 -163.5 -141t-202.5 -50q-201 0 -289 117q-84 -110 -264 -110q-147 0 -242 102q-94 101 -94 266
q0 195 113 346q129 164 315 164q75 0 134 -27.5t91 -78.5l21 88h311l-92 -525q-15 -100 59 -100zM903 532q47 0 77.5 39.5t49.5 122.5q17 97 17 121q0 45 -22 71.5t-60 26.5q-67 0 -110.5 -71t-43.5 -180q0 -63 24 -96.5t68 -33.5z" />
    <glyph glyph-name="zero.dnom" horiz-adv-x="778" 
d="M387 -14q-152 0 -239 113t-87 309q0 195 87 308t239 113q153 0 240.5 -112.5t87.5 -308.5t-87.5 -309t-240.5 -113zM387 596q-61 0 -61 -188q0 -100 14.5 -144.5t46.5 -44.5q64 0 64 189q0 188 -64 188z" />
    <glyph glyph-name="one.dnom" horiz-adv-x="778" 
d="M283 231v269h-179v184l82 6q127 9 150 125h215v-584h137v-231h-582v231h177z" />
    <glyph glyph-name="two.dnom" horiz-adv-x="778" 
d="M76 0v201l264 200q53 41 74.5 70.5t21.5 60.5q0 27 -16.5 44.5t-44.5 17.5q-26 0 -44 -20t-18 -50q0 -24 13 -59h-248q-12 35 -12 76q0 127 92 207q90 81 227 81q141 0 226 -74.5t85 -197.5q0 -66 -33 -123.5t-108 -118.5l-109 -84h256v-231h-626z" />
    <glyph glyph-name="three.dnom" horiz-adv-x="778" 
d="M711 233q0 -109 -87.5 -178t-226.5 -69q-143 0 -233 69t-103 191l267 37q2 -32 20 -52t47 -20t45.5 14t16.5 39q0 26 -18.5 40.5t-51.5 14.5h-76v179h66q32 0 50.5 14.5t18.5 40.5q0 24 -14.5 37.5t-40.5 13.5t-43 -19t-22 -50l-254 16q14 125 104.5 201.5t226.5 76.5
q134 0 218 -70t84 -181q0 -53 -31 -100t-76 -66q113 -53 113 -179z" />
    <glyph glyph-name="four.dnom" horiz-adv-x="778" 
d="M643 162v-162h-242v162h-374v190l288 463h328v-448h109v-205h-109zM395 623l-166 -256h166v256z" />
    <glyph glyph-name="five.dnom" horiz-adv-x="778" 
d="M395 350q-38 0 -53 -35l-248 25l39 475h510v-219h-315l-9 -107q66 50 150 50q112 0 178 -69.5t66 -188.5q0 -129 -91.5 -212t-232.5 -83q-142 0 -232 69.5t-102 190.5l267 39q2 -33 20 -53.5t47 -20.5q31 0 49.5 19.5t18.5 50.5t-16.5 50t-45.5 19z" />
    <glyph glyph-name="six.dnom" horiz-adv-x="778" 
d="M428 829q219 0 295 -190l-213 -84q-21 59 -86 59q-44 0 -72 -31t-28 -79q0 -19 2 -27q39 51 135 51q112 0 183 -69t71 -178q0 -131 -86.5 -213t-225.5 -82q-153 0 -247 110q-95 115 -95 291q0 196 101 318q100 124 266 124zM399 193q33 0 53.5 21t20.5 56t-21 57.5
t-53 22.5t-53.5 -22.5t-21.5 -57.5t21 -56t54 -21z" />
    <glyph glyph-name="seven.dnom" horiz-adv-x="778" 
d="M449 596h-158v-92h-219v311h639v-221q-125 -125 -164 -275q-31 -102 -31 -319h-285q0 374 218 596z" />
    <glyph glyph-name="eight.dnom" horiz-adv-x="778" 
d="M92 578q0 112 83 181.5t212 69.5t212 -69.5t83 -181.5q0 -101 -92 -162q58 -25 92.5 -74.5t34.5 -110.5q0 -108 -94 -178q-91 -67 -236 -67q-143 0 -237 67q-93 72 -93 178q0 60 35 110t92 75q-92 61 -92 162zM319 569q0 -29 19 -47t49 -18t49 18t19 47q0 31 -18.5 48.5
t-49.5 17.5t-49.5 -17.5t-18.5 -48.5zM461 256q0 31 -21 50.5t-53 19.5t-53 -19.5t-21 -50.5q0 -32 20.5 -51t53.5 -19t53.5 19t20.5 51z" />
    <glyph glyph-name="nine.dnom" horiz-adv-x="778" 
d="M348 -14q-219 0 -295 190l213 84q21 -59 86 -59q44 0 72.5 31.5t28.5 78.5q0 19 -2 27q-39 -51 -136 -51q-112 0 -183 69.5t-71 178.5q0 131 86.5 212.5t225.5 81.5q155 0 248 -112q94 -110 94 -289q0 -192 -103 -319q-102 -123 -264 -123zM377 623q-33 0 -53.5 -21.5
t-20.5 -56.5t21 -57.5t53 -22.5q33 0 54.5 22.5t21.5 57.5t-21.5 56.5t-54.5 21.5z" />
    <glyph glyph-name="colon.mid" horiz-adv-x="559" 
d="M502 205h-436v418h436v-418zM502 852h-436v418h436v-418z" />
    <glyph glyph-name="commaturncmb" horiz-adv-x="0" 
d="M66 1356h129v-199h-390v84q0 313 390 313v-133q-61 0 -92 -15t-37 -50z" />
    <glyph glyph-name="commaaccentcmb" horiz-adv-x="0" 
d="M-66 -260h-129v199h390v-84q0 -314 -390 -314v133q118 0 129 66z" />
    <glyph glyph-name="g.1" horiz-adv-x="1212" 
d="M184 471q-114 99 -114 258q0 171 131 272q132 105 352 105q211 0 348 -98q49 61 134 89.5t179 14.5v-326q-51 21 -101.5 15.5t-74.5 -35.5q2 -8 2 -37q0 -166 -133 -272q-133 -103 -354 -103q-73 0 -166 19q-20 -11 -20 -35q0 -20 16 -31.5t43 -11.5h451
q154 0 240.5 -75.5t86.5 -209.5q0 -180 -175.5 -284.5t-477.5 -104.5q-272 0 -415.5 71.5t-143.5 207.5q0 63 34.5 113t100.5 79q-94 65 -94 174q0 64 40 118.5t111 86.5zM561 623q56 0 90.5 29.5t34.5 76.5q0 49 -34.5 79t-90.5 30q-57 0 -92 -30t-35 -79t34.5 -77.5
t92.5 -28.5zM358 -63q0 -78 217 -78q252 0 252 82q0 31 -17 44t-58 13h-316q-37 0 -57.5 -16t-20.5 -45z" />
    <glyph glyph-name="ae.1" horiz-adv-x="1814" 
d="M1448 399l319 -96q-55 -152 -194 -240t-318 -88q-124 0 -231 43t-182 123q-62 -78 -167.5 -121t-238.5 -43q-176 0 -293 91q-110 88 -110 235q0 171 143 269t391 98h123v45q0 49 -28.5 71.5t-90.5 22.5q-60 0 -91.5 -23.5t-35.5 -74.5h-374q13 184 149 289.5t359 105.5
q208 0 327 -119q150 119 344 119q243 0 391 -160q138 -150 138 -401v-90h-711q17 -86 68.5 -132.5t126.5 -46.5q69 0 117.5 31.5t68.5 91.5zM1247 817q-63 0 -108.5 -38t-65.5 -109h326q-2 64 -44.5 105.5t-107.5 41.5zM520 258q72 0 121 45.5t49 112.5v39h-98
q-184 0 -184 -103q0 -42 30.5 -68t81.5 -26z" />
    <glyph glyph-name="aeacute.1" horiz-adv-x="1814" 
d="M1030 1157h-303l100 313h453zM1448 399l319 -96q-55 -152 -194 -240t-318 -88q-124 0 -231 43t-182 123q-62 -78 -167.5 -121t-238.5 -43q-176 0 -293 91q-110 88 -110 235q0 171 143 269t391 98h123v45q0 49 -28.5 71.5t-90.5 22.5q-60 0 -91.5 -23.5t-35.5 -74.5h-374
q13 184 149 289.5t359 105.5q208 0 327 -119q150 119 344 119q243 0 391 -160q138 -150 138 -401v-90h-711q17 -86 68.5 -132.5t126.5 -46.5q69 0 117.5 31.5t68.5 91.5zM1247 817q-63 0 -108.5 -38t-65.5 -109h326q-2 64 -44.5 105.5t-107.5 41.5zM520 258q72 0 121 45.5
t49 112.5v39h-98q-184 0 -184 -103q0 -42 30.5 -68t81.5 -26z" />
    <glyph glyph-name="gbreve.1" horiz-adv-x="1212" 
d="M184 471q-114 99 -114 258q0 171 131 272q132 105 352 105q211 0 348 -98q49 61 134 89.5t179 14.5v-326q-51 21 -101.5 15.5t-74.5 -35.5q2 -8 2 -37q0 -166 -133 -272q-133 -103 -354 -103q-73 0 -166 19q-20 -11 -20 -35q0 -20 16 -31.5t43 -11.5h451
q154 0 240.5 -75.5t86.5 -209.5q0 -180 -175.5 -284.5t-477.5 -104.5q-272 0 -415.5 71.5t-143.5 207.5q0 63 34.5 113t100.5 79q-94 65 -94 174q0 64 40 118.5t111 86.5zM561 623q56 0 90.5 29.5t34.5 76.5q0 49 -34.5 79t-90.5 30q-57 0 -92 -30t-35 -79t34.5 -77.5
t92.5 -28.5zM358 -63q0 -78 217 -78q252 0 252 82q0 31 -17 44t-58 13h-316q-37 0 -57.5 -16t-20.5 -45zM584 1384q43 0 71.5 24.5t28.5 61.5h262q0 -150 -95.5 -233.5t-266.5 -83.5q-172 0 -267.5 84t-95.5 233h262q0 -37 29 -61.5t72 -24.5z" />
    <glyph glyph-name="gcircumflex.1" horiz-adv-x="1212" 
d="M184 471q-114 99 -114 258q0 171 131 272q132 105 352 105q211 0 348 -98q49 61 134 89.5t179 14.5v-326q-51 21 -101.5 15.5t-74.5 -35.5q2 -8 2 -37q0 -166 -133 -272q-133 -103 -354 -103q-73 0 -166 19q-20 -11 -20 -35q0 -20 16 -31.5t43 -11.5h451
q154 0 240.5 -75.5t86.5 -209.5q0 -180 -175.5 -284.5t-477.5 -104.5q-272 0 -415.5 71.5t-143.5 207.5q0 63 34.5 113t100.5 79q-94 65 -94 174q0 64 40 118.5t111 86.5zM561 623q56 0 90.5 29.5t34.5 76.5q0 49 -34.5 79t-90.5 30q-57 0 -92 -30t-35 -79t34.5 -77.5
t92.5 -28.5zM358 -63q0 -78 217 -78q252 0 252 82q0 31 -17 44t-58 13h-316q-37 0 -57.5 -16t-20.5 -45zM395 1470h373l209 -313h-281l-114 94l-115 -94h-281z" />
    <glyph glyph-name="gcommaaccent.1" horiz-adv-x="1212" 
d="M184 471q-114 99 -114 258q0 171 131 272q132 105 352 105q211 0 348 -98q49 61 134 89.5t179 14.5v-326q-51 21 -101.5 15.5t-74.5 -35.5q2 -8 2 -37q0 -166 -133 -272q-133 -103 -354 -103q-73 0 -166 19q-20 -11 -20 -35q0 -20 16 -31.5t43 -11.5h451
q154 0 240.5 -75.5t86.5 -209.5q0 -180 -175.5 -284.5t-477.5 -104.5q-272 0 -415.5 71.5t-143.5 207.5q0 63 34.5 113t100.5 79q-94 65 -94 174q0 64 40 118.5t111 86.5zM561 623q56 0 90.5 29.5t34.5 76.5q0 49 -34.5 79t-90.5 30q-57 0 -92 -30t-35 -79t34.5 -77.5
t92.5 -28.5zM358 -63q0 -78 217 -78q252 0 252 82q0 31 -17 44t-58 13h-316q-37 0 -57.5 -16t-20.5 -45zM649 1356h129v-199h-389v84q0 313 389 313v-133q-61 0 -92 -15t-37 -50z" />
    <glyph glyph-name="gdotaccent.1" horiz-adv-x="1212" 
d="M184 471q-114 99 -114 258q0 171 131 272q132 105 352 105q211 0 348 -98q49 61 134 89.5t179 14.5v-326q-51 21 -101.5 15.5t-74.5 -35.5q2 -8 2 -37q0 -166 -133 -272q-133 -103 -354 -103q-73 0 -166 19q-20 -11 -20 -35q0 -20 16 -31.5t43 -11.5h451
q154 0 240.5 -75.5t86.5 -209.5q0 -180 -175.5 -284.5t-477.5 -104.5q-272 0 -415.5 71.5t-143.5 207.5q0 63 34.5 113t100.5 79q-94 65 -94 174q0 64 40 118.5t111 86.5zM561 623q56 0 90.5 29.5t34.5 76.5q0 49 -34.5 79t-90.5 30q-57 0 -92 -30t-35 -79t34.5 -77.5
t92.5 -28.5zM358 -63q0 -78 217 -78q252 0 252 82q0 31 -17 44t-58 13h-316q-37 0 -57.5 -16t-20.5 -45zM784 1167h-393v303h393v-303z" />
    <glyph glyph-name="g.1.ord" horiz-adv-x="950" 
d="M174 1028q-84 72 -84 186q0 123 95.5 198t250.5 75q159 0 248 -74q35 47 95.5 68.5t127.5 9.5v-227q-38 14 -75 9.5t-54 -28.5q2 -8 2 -31q0 -122 -94.5 -196t-249.5 -74q-72 0 -121 14q-18 -14 -18 -30q0 -14 11.5 -22.5t31.5 -8.5h322q112 0 174.5 -55t62.5 -152
q0 -129 -125 -203.5t-340 -74.5q-197 0 -300 51t-103 149q0 91 102 142q-67 48 -67 125q0 47 28.5 85.5t79.5 63.5zM440 1133q42 0 68.5 22.5t26.5 58.5q0 38 -26 61t-69 23q-44 0 -70 -23t-26 -61q0 -37 26.5 -59t69.5 -22zM285 639q0 -31 39 -45t125 -14q182 0 182 63
q0 43 -58 43h-227q-61 0 -61 -47z" />
    <glyph glyph-name="Euro.lt" 
d="M170 477h-129v219h102v39v43h-102v221h129q56 235 197.5 365.5t343.5 130.5q196 0 329 -112.5t193 -329.5l-342 -111q-27 223 -182 223q-130 0 -183 -166h281l-39 -221h-276v-43v-39h262l-39 -219h-191q26 -84 74 -128t111 -44q155 0 182 223l342 -110
q-60 -217 -193 -330t-329 -113q-204 0 -347 132.5t-194 369.5z" />
    <glyph glyph-name="dollar.lt" 
d="M-8 233l198 279q138 -163 336 -201v295q-217 43 -319 109q-146 101 -146 293q0 183 126.5 307t338.5 153v201h230v-199q142 -17 257 -73t187 -142l-205 -262q-96 122 -239 162v-272q223 -45 317 -113q141 -97 141 -293q0 -185 -123 -310.5t-335 -160.5v-209h-230v201
q-170 13 -314.5 77t-219.5 158zM403 1044q0 -74 123 -114v235q-60 -10 -91.5 -41.5t-31.5 -79.5zM889 442q0 41 -32 69t-101 48v-250q133 27 133 133z" />
    <glyph glyph-name="cent.lt" 
d="M797 -197h-244v183q-215 38 -344 194q-127 157 -127 383t127 383q130 158 344 195v188h244v-188q135 -25 238 -103.5t163 -203.5l-248 -170q-42 117 -153 165v-532q111 48 153 166l248 -170q-60 -125 -163 -203.5t-238 -103.5v-183zM406 563q0 -92 39 -161t108 -101v524
q-69 -32 -108 -101t-39 -161z" />
    <glyph glyph-name="sterling.lt" 
d="M360 569h-225v230h105q-58 107 -58 211q0 213 148 352q139 133 362 133q220 0 355 -129q135 -126 135 -340q0 -69 -23 -164h-344q23 64 23 129q0 78 -39.5 124t-106.5 46t-109 -49t-42 -127q0 -45 24 -98q4 -11 15 -29.5t22.5 -37t13.5 -21.5h199v-230h-137v-6
q0 -89 -31 -213q63 -31 125 -31q69 0 101.5 44t33.5 141h324q0 -242 -107 -385q-105 -144 -282 -144q-180 0 -326 125q-104 -125 -240 -125q-119 0 -197.5 77.5t-78.5 199.5q0 112 78 190q79 76 194 76q50 0 103 -16q-2 16 -15 67zM276 319q-61 0 -61 -61q0 -26 14 -41.5
t37 -15.5q49 0 84 78q-43 40 -74 40z" />
    <glyph glyph-name="yen.lt" 
d="M420 342h-320v236h320v81h-320v234h219l-325 577h428l207 -415l211 415h411l-323 -577h219v-234h-320v-81h320v-236h-320v-342h-407v342z" />
    <glyph glyph-name="florin.lt" 
d="M412 627h-172v264h198l15 145q23 221 144.5 340t324.5 119q183 0 313 -102l-137 -267q-25 23 -57 37.5t-58 14.5q-53 0 -85 -38t-40 -108l-14 -141h188v-264h-215l-18 -193q-20 -221 -142.5 -340t-326.5 -119q-183 0 -314 103l138 266q54 -51 116 -51q51 0 83.5 38
t39.5 107z" />
    <glyph glyph-name="zero.lt" 
d="M623 -25q-269 0 -422 205q-154 207 -154 555t154 555q153 205 422 205q268 0 421 -205q154 -207 154 -555t-154 -555q-153 -205 -421 -205zM623 1155q-185 0 -185 -420t185 -420q184 0 184 420t-184 420z" />
    <glyph glyph-name="one.lt" 
d="M571 1475h299v-1139h293v-336h-1032v336h350v602h-334v293l138 10q127 7 193.5 62t92.5 172z" />
    <glyph glyph-name="two.lt" 
d="M78 0v279l407 339q184 152 236 222q53 71 53 143q0 76 -44.5 123t-117.5 47q-75 0 -121.5 -53t-46.5 -135q0 -62 23 -129h-381q-25 77 -25 157q0 229 172 369q78 63 180 98t212 35q239 0 383 -123q78 -63 119.5 -156t41.5 -204q0 -130 -68 -247t-220 -243l-224 -182h510
v-340h-1089z" />
    <glyph glyph-name="three.lt" 
d="M1010 84q-148 -109 -375 -109q-248 0 -406.5 123.5t-187.5 339.5l389 58q7 -86 62 -136.5t137 -50.5q78 0 126 40.5t48 109.5q0 137 -199 137h-129v301h127q91 0 134.5 31.5t43.5 97.5q0 63 -39.5 99t-111.5 36q-74 0 -124.5 -48t-62.5 -130l-366 35q12 106 61.5 197.5
t128.5 154.5q152 125 383 125q218 0 361 -106q78 -60 119.5 -145t41.5 -185q0 -99 -53.5 -183.5t-138.5 -121.5q209 -99 209 -334q0 -100 -46 -187.5t-132 -148.5z" />
    <glyph glyph-name="four.lt" 
d="M1034 322v-322h-362v322h-639v282l516 866h487v-843h183v-305h-185zM664 1141l-293 -514h293v514z" />
    <glyph glyph-name="five.lt" 
d="M633 684q-99 0 -148 -78l-366 39l69 825h906v-340h-602l-19 -204q98 67 225 67q225 0 359 -137q135 -135 135 -356q0 -235 -168 -383q-164 -142 -399 -142q-245 0 -401 122.5t-185 338.5l391 58q7 -87 60 -138t133 -51q82 0 135 52t53 132q0 86 -49.5 140.5t-128.5 54.5z
" />
    <glyph glyph-name="six.lt" 
d="M696 1495q386 0 512 -334l-309 -137q-24 70 -79.5 111t-129.5 41q-112 0 -184 -88.5t-72 -223.5q50 51 123.5 80t155.5 29q210 0 350 -131q139 -136 139 -344q0 -234 -162 -381q-151 -142 -393 -142q-287 0 -450 230q-140 204 -140 502q0 324 154 538q86 121 211 185.5
t274 64.5zM645 291q85 0 142 56t57 140q0 85 -57 141t-142 56q-84 0 -141.5 -57.5t-57.5 -139.5q0 -84 57 -140t142 -56z" />
    <glyph glyph-name="seven.lt" 
d="M807 1137h-416v-213h-338v546h1164v-342q-237 -243 -330 -518q-76 -241 -76 -610h-412q0 363 99 639.5t309 497.5z" />
    <glyph glyph-name="eight.lt" 
d="M270 1386q136 109 353 109q216 0 352 -109q158 -122 158 -325q0 -201 -181 -303q113 -42 181.5 -135t68.5 -209q0 -213 -192 -336q-151 -103 -387 -103t-387 103q-193 124 -193 336q0 116 68.5 209t181.5 135q-180 102 -180 303q0 204 157 325zM459 1055q0 -63 46 -104.5
t118 -41.5t117.5 41.5t45.5 104.5t-45.5 104t-117.5 41t-118 -41t-46 -104zM815 446q0 74 -53 119t-139 45t-139.5 -45.5t-53.5 -118.5t53.5 -118t139.5 -45t139 45t53 118z" />
    <glyph glyph-name="nine.lt" 
d="M549 -25q-386 0 -512 334l309 137q23 -70 79 -110.5t130 -40.5q112 0 184 88t72 223q-49 -51 -123 -79.5t-156 -28.5q-210 0 -350 131q-139 136 -139 344q0 234 162 381q150 141 393 141q141 0 256.5 -58.5t194.5 -170.5q139 -202 139 -502q0 -325 -154 -539
q-86 -121 -211 -185.5t-274 -64.5zM600 1180q-85 0 -142 -56t-57 -141t57 -141t142 -56q84 0 141.5 57.5t57.5 139.5q0 85 -57 141t-142 56z" />
    <glyph glyph-name="period.tab" horiz-adv-x="622" 
d="M530 0h-436v418h436v-418z" />
    <glyph glyph-name="comma.tab" horiz-adv-x="622" 
d="M256 0h-162v418h436v-363q0 -178 -116 -278.5t-320 -100.5v191q162 3 162 125v8z" />
    <glyph glyph-name="colon.tab" horiz-adv-x="567" 
d="M530 0h-436v418h436v-418zM530 647h-436v418h436v-418z" />
    <glyph glyph-name="semicolon.tab" horiz-adv-x="567" 
d="M530 647h-436v418h436v-418zM258 0h-162v418h436v-363q0 -178 -116 -278.5t-320 -100.5v191q162 3 162 125v8z" />
    <glyph glyph-name="space.tab" horiz-adv-x="622" 
 />
    <glyph glyph-name="percent.lt" 
d="M289 778q-130 0 -204.5 95.5t-74.5 261.5t74.5 262t204.5 96t203 -95t73 -263q0 -166 -73.5 -261.5t-202.5 -95.5zM283 0h-258l952 1470h258zM289 977q32 0 45.5 36t13.5 122q0 88 -13.5 124.5t-45.5 36.5q-35 0 -49.5 -37t-14.5 -124q0 -86 14.5 -122t49.5 -36zM971 692
q130 0 204 -95t74 -261t-74 -262.5t-204 -96.5q-129 0 -203 96.5t-74 262.5q0 165 74 260.5t203 95.5zM971 494q-32 0 -46 -36t-14 -122q0 -88 14 -125t46 -37q35 0 49 37.5t14 124.5t-14 122.5t-49 35.5z" />
    <glyph glyph-name="baht.lt" 
d="M508 0h-434v1470h434v199h209v-201q220 -7 335 -109.5t115 -287.5q0 -103 -51.5 -185t-140.5 -124q109 -44 171 -136t62 -210q0 -195 -128 -303t-363 -113v-203h-209v203zM403 1167v-295h105v295h-105zM856 1020q0 63 -36 101t-103 44v-291q67 7 103 45t36 101zM508 616
h-105v-311h105v311zM889 461q0 72 -45 113.5t-123 41.5h-4v-311h4q78 0 123 42t45 114z" />
    <glyph glyph-name="dong.lt" 
d="M461 92q-177 0 -289 127q-109 130 -109 332q0 201 109 328q111 129 289 129q75 0 138 -27t101 -76v170h-335v240h335v155h340v-155h162v-240h-162v-964h-340v88q-38 -51 -101 -79t-138 -28zM702 526v45q0 82 -40 129.5t-109 47.5q-73 0 -114.5 -54t-41.5 -147
q0 -91 42 -145t114 -54q69 0 109 48t40 130zM1040 -254h-897v254h897v-254z" />
    <glyph glyph-name="franc.lt" 
d="M197 217h-150v275h150v978h968v-340h-573v-202h471v-332h-471v-104h227v-275h-227v-217h-395v217z" />
    <glyph glyph-name="naira.lt" 
d="M133 463h-115v233h115v82h-115v236h115v456h334l315 -798v798h330v-456h115v-236h-115v-82h115v-233h-115v-463h-299l-352 877v-877h-328v463z" />
    <glyph glyph-name="peseta.lt" 
d="M555 328h-49v-328h-373v764h-115v270h115v436h422q235 0 382.5 -113.5t184.5 -322.5h111v-270h-111q-37 -209 -184.5 -322.5t-382.5 -113.5zM586 1186h-80v-152h260q-41 152 -180 152zM506 764v-154h80q138 0 180 154h-260z" />
    <glyph glyph-name="peso.lt" 
d="M598 422h-78v-422h-387v662h-115v233h115v82h-115v235h115v258h465q178 0 304 -66.5t188 -191.5h141v-235h-86v-31q0 -41 -2 -51h88v-233h-152q-63 -117 -186.5 -178.5t-294.5 -61.5zM520 1171v-450h88q82 0 128 59.5t46 165.5q0 109 -44.5 167t-129.5 58h-88z" />
    <glyph glyph-name="uni20BD.lt" 
d="M164 221h-117v266h117v82h-117v267h117v634h500q256 0 397 -118.5t141 -333.5t-140.5 -332t-397.5 -117h-113v-82h219v-266h-219v-221h-387v221zM551 1196v-360h117q80 0 123 46t43 132q0 88 -43 135t-123 47h-117z" />
    <glyph glyph-name="uni20B9.lt" 
d="M616 829h-538v263h538q-60 116 -227 116h-311v262h1087v-262h-264q46 -46 66 -116h198v-263h-192q-26 -109 -100.5 -192t-186.5 -131l395 -506h-458l-344 451h-201v262h311q167 0 227 116z" />
    <glyph glyph-name="uni20BA.lt" horiz-adv-x="1243" 
d="M520 336h64q139 0 206.5 91.5t67.5 277.5h356q0 -330 -157 -519q-155 -186 -439 -186h-485v446l-113 -53v254l113 53v84l-113 -53v254l113 53v432h387v-262l248 115v-254l-248 -115v-84l248 115v-254l-248 -115v-280z" />
    <glyph glyph-name="won.lt" 
d="M180 463h-168v233h140l-11 82h-129v236h101l-56 456h289l88 -886l101 641h184l100 -641l88 886h281l-55 -456h100v-236h-129l-10 -82h139v-233h-168l-55 -463h-258l-127 819l-127 -819h-262z" />
    <glyph glyph-name="zero.slash" horiz-adv-x="1345" 
d="M672 -25q-288 0 -457 205q-166 205 -166 555t166 555q169 205 457 205q290 0 456 -205t166 -555t-166 -555t-456 -205zM672 1176q-244 0 -244 -441q0 -47 2 -61l422 399q-65 103 -180 103zM672 295q246 0 246 440q0 41 -3 62l-423 -400q62 -102 180 -102z" />
    <glyph glyph-name="zero.slash.lt" 
d="M623 -25q-269 0 -422 205q-154 207 -154 555t154 555q153 205 422 205q268 0 421 -205q154 -207 154 -555t-154 -555q-153 -205 -421 -205zM623 1184q-104 0 -154.5 -110t-50.5 -339v-26l366 348q-50 127 -161 127zM623 287q104 0 154 109.5t50 338.5v25l-366 -346
q50 -127 162 -127z" />
    <glyph glyph-name="arrowNW" horiz-adv-x="1599" 
d="M410 932v-443h-310v981h981v-309h-442l946 -946l-227 -231z" />
    <glyph glyph-name="arrowNE" horiz-adv-x="1599" 
d="M1499 489h-309v443l-948 -948l-228 231l947 946h-443v309h981v-981z" />
    <glyph glyph-name="arrowSE" horiz-adv-x="1599" 
d="M1190 539v442h309v-981h-981v309h443l-947 946l228 232z" />
    <glyph glyph-name="arrowSW" horiz-adv-x="1599" 
d="M100 981h310v-442l948 948l227 -232l-946 -946h442v-309h-981v981z" />
    <glyph glyph-name="arrowupdown" horiz-adv-x="1378" 
d="M1155 459l211 -228l-676 -610l-676 610l209 228l307 -283v805l-307 -283l-209 228l676 610l676 -610l-211 -228l-307 283v-805z" />
    <glyph glyph-name="arrowleftright" horiz-adv-x="2093" 
d="M1470 1417l611 -676l-611 -675l-231 215l274 297h-933l274 -297l-229 -215l-611 675l611 676l229 -215l-274 -297h933l-274 297z" />
    </font>
</defs>
</svg>
