<?xml version="1.0" standalone="no"?>
<!DOCTYPE svg PUBLIC "-//W3C//DTD SVG 1.1//EN" "http://www.w3.org/Graphics/SVG/1.1/DTD/svg11.dtd" >
<svg xmlns="http://www.w3.org/2000/svg" xmlns:xlink="http://www.w3.org/1999/xlink" version="1.1">
<metadata>
Created by FontForge 20201107 at Mon Jan  8 01:19:53 2024
 By 
Copyright 2020, Kris Sowersby, Klim Type Foundry.
</metadata>
<defs>
<font id="Sohne-FettKursiv" horiz-adv-x="1245" >
  <font-face 
    font-family="Sohne Fett"
    font-weight="800"
    font-style="italic"
    font-stretch="normal"
    units-per-em="2048"
    panose-1="2 11 7 3 3 2 2 13 2 3"
    ascent="1638"
    descent="-410"
    x-height="1081"
    cap-height="1470"
    bbox="-532 -459.714 2210 2111"
    underline-thickness="262"
    underline-position="-257"
    slope="-12"
    unicode-range="U+000D-F6C3"
  />
<missing-glyph horiz-adv-x="1228" 
d="M102 0v1470h1229v-1470h-1229zM373 496l104 -105l240 240l241 -240l103 105l-238 241l238 240l-103 104l-241 -239l-240 239l-104 -104l239 -240z" />
    <glyph glyph-name="f_idieresis" unicode="f&#xef;" horiz-adv-x="1302" 
d="M784 1487q109 0 248 -27l-41 -284q-133 18 -203 18q-84 0 -126.5 -21.5t-53.5 -66.5l-2 -25h182l-45 -315h-182l-106 -766h-389l106 766h-131l45 315h131l4 29q58 377 563 377zM1497 1167h-350l43 303h348zM897 1081h389l-151 -1081h-390z" />
    <glyph glyph-name=".notdef" horiz-adv-x="1228" 
d="M102 0v1470h1229v-1470h-1229zM373 496l104 -105l240 240l241 -240l103 105l-238 241l238 240l-103 104l-241 -239l-240 239l-104 -104l239 -240z" />
    <glyph glyph-name=".null" horiz-adv-x="0" 
 />
    <glyph glyph-name="nonmarkingreturn" horiz-adv-x="682" 
 />
    <glyph glyph-name="NULL" horiz-adv-x="0" 
 />
    <glyph glyph-name="NULL" horiz-adv-x="0" 
 />
    <glyph glyph-name="CR" unicode="&#xd;" horiz-adv-x="395" 
 />
    <glyph glyph-name="space" unicode=" " horiz-adv-x="395" 
 />
    <glyph glyph-name="exclam" unicode="!" horiz-adv-x="552" 
d="M422 496h-303l49 974h479zM418 0h-436l57 403h436z" />
    <glyph glyph-name="quotedbl" unicode="&#x22;" horiz-adv-x="970" 
d="M422 815h-272l16 655h424zM899 815h-272l16 655h424z" />
    <glyph glyph-name="numbersign" unicode="#" horiz-adv-x="1470" 
d="M385 0h-330l129 344h-164l39 277h230l84 229h-232l39 276h297l129 344h332l-129 -344h203l129 344h329l-129 -344h164l-39 -276h-229l-84 -229h231l-38 -277h-297l-129 -344h-332l129 344h-203zM705 850l-87 -229h203l86 229h-202z" />
    <glyph glyph-name="dollar" unicode="$" horiz-adv-x="1269" 
d="M-39 260l234 262q122 -155 319 -207l41 301q-195 49 -287 111q-133 93 -133 260q0 102 44 192t126 158q148 117 373 138l27 194h235l-29 -207q139 -23 252 -84t170 -143l-237 -242q-75 105 -228 158l-39 -277q194 -46 285 -108q133 -93 133 -262q0 -104 -43 -197
t-123 -162q-150 -126 -374 -147l-29 -201h-238l29 209q-166 25 -303.5 93.5t-204.5 160.5zM489 1042q0 -70 111 -108l35 240q-68 -12 -107 -47.5t-39 -84.5zM909 440q0 79 -125 119l-34 -256q74 12 116.5 49t42.5 88z" />
    <glyph glyph-name="percent" unicode="%" horiz-adv-x="1636" 
d="M399 0h-284l1175 1470h287zM494 1493q140 0 215 -85t75 -243q0 -180 -90 -313q-106 -150 -276 -150q-137 0 -214 86.5t-77 243.5q0 178 90 311q106 150 277 150zM479 1278q-45 0 -73.5 -68t-28.5 -176q0 -114 55 -114q45 0 74 66.5t29 174.5q0 55 -15 86t-41 31z
M1272 768q140 0 216.5 -86t76.5 -244q0 -178 -90 -311q-106 -150 -277 -150q-140 0 -216.5 85t-76.5 243q0 182 90 311q51 73 123 112.5t154 39.5zM1260 551q-43 0 -73 -70t-30 -172q0 -116 55 -116q43 0 73 70.5t30 172.5q0 115 -55 115z" />
    <glyph glyph-name="ampersand" unicode="&#x26;" horiz-adv-x="1484" 
d="M1149 831l319 -69q-75 -280 -249 -475l249 -287h-450l-66 76q-197 -101 -420 -101q-242 0 -387 109q-143 107 -143 293q0 265 322 428q-93 130 -93 250q0 197 162 325q143 115 355 115q198 0 319 -100q125 -101 125 -258q0 -265 -356 -410l174 -199q103 139 139 303z
M727 1229q-61 0 -101 -40t-40 -102q0 -36 15.5 -70.5t55.5 -82.5q105 37 149 78t44 102q0 51 -34 83t-89 32zM381 428q0 -72 54 -112t151 -40q81 0 159 35l-247 285q-117 -63 -117 -168z" />
    <glyph glyph-name="quotesingle" unicode="'" horiz-adv-x="493" 
d="M422 815h-272l16 655h424z" />
    <glyph glyph-name="parenleft" unicode="(" horiz-adv-x="796" 
d="M489 498q0 -195 52.5 -380t144.5 -319h-332q-131 153 -201.5 338t-70.5 381q0 284 131 549q131 268 352 444h363q-215 -233 -327 -491t-112 -522z" />
    <glyph glyph-name="parenright" unicode=")" horiz-adv-x="796" 
d="M340 813q0 195 -52.5 379.5t-144.5 318.5h332q131 -153 202 -338t71 -380q0 -281 -132 -551q-133 -268 -352 -443h-362q215 233 326.5 491.5t111.5 522.5z" />
    <glyph glyph-name="asterisk" unicode="*" horiz-adv-x="974" 
d="M879 762l-199 -137l-137 233l-205 -233l-180 139l204 233l-264 93l97 219l262 -86l41 288h237l-41 -288l289 86l47 -224l-289 -90z" />
    <glyph glyph-name="plus" unicode="+" 
d="M1223 860l-41 -295h-410l-57 -409h-293l57 409h-409l43 295h409l56 410h292l-55 -410h408z" />
    <glyph glyph-name="comma" unicode="," horiz-adv-x="565" 
d="M152 0h-162l57 418h436l-51 -371q-29 -191 -147 -281t-340 -90l26 191q85 1 126.5 29t52.5 90z" />
    <glyph glyph-name="hyphen" unicode="-" horiz-adv-x="796" 
d="M698 426h-630l47 354h633z" />
    <glyph glyph-name="period" unicode="." horiz-adv-x="565" 
d="M426 0h-436l57 418h436z" />
    <glyph glyph-name="slash" unicode="/" horiz-adv-x="1026" 
d="M317 -201h-401l823 1712h404z" />
    <glyph glyph-name="zero" unicode="0" horiz-adv-x="1345" 
d="M635 -25q-260 0 -409.5 166.5t-149.5 460.5q0 349 164 600q94 141 229.5 217t296.5 76q260 0 408.5 -166.5t148.5 -460.5q0 -348 -162 -600q-94 -141 -229.5 -217t-296.5 -76zM524 938q-51 -142 -51 -330q0 -293 180 -293q68 0 127 58t97 162q51 142 51 327
q0 293 -180 293q-69 0 -128 -56.5t-96 -160.5z" />
    <glyph glyph-name="one" unicode="1" horiz-adv-x="860" 
d="M580 1475h307l-207 -1475h-401l129 920h-328l43 303l108 8q152 10 232 66t117 178z" />
    <glyph glyph-name="two" unicode="2" horiz-adv-x="1218" 
d="M-6 0l39 279l497 368q171 125 240 203q68 80 68 158q0 66 -40.5 105.5t-107.5 39.5q-87 0 -140.5 -67.5t-53.5 -176.5q0 -4 6 -73h-383q-8 55 -8 86q0 125 45 233t129 186q168 154 432 154q233 0 377 -123q143 -119 143 -319q0 -276 -319 -510l-277 -203h500l-47 -340
h-1100z" />
    <glyph glyph-name="three" unicode="3" horiz-adv-x="1216" 
d="M975 88q-159 -113 -400 -113q-245 0 -401 129q-158 131 -170 342l399 52q7 -84 63 -136.5t136 -52.5q75 0 126.5 44t51.5 110q0 61 -46.5 95t-131.5 34h-135l43 307h158q75 0 122.5 38t47.5 99q0 56 -41 90.5t-107 34.5q-75 0 -130.5 -47.5t-72.5 -126.5l-366 43
q47 213 209 338q165 127 399 127q203 0 346 -94q80 -56 122 -134.5t42 -172.5q0 -122 -67.5 -222.5t-178.5 -144.5q172 -78 172 -281q0 -106 -49 -199t-141 -159z" />
    <glyph glyph-name="four" unicode="4" horiz-adv-x="1282" 
d="M1030 334l-47 -334h-377l45 334h-659l41 295l639 841h518l-115 -819h203l-45 -317h-203zM756 1128l-353 -477h285z" />
    <glyph glyph-name="five" unicode="5" horiz-adv-x="1204" 
d="M631 684q-98 0 -154 -78l-358 51l184 813h905l-49 -340h-602l-45 -198q88 61 225 61q189 0 310 -121q118 -118 118 -311q0 -119 -45 -228t-129 -190q-168 -168 -424 -168q-240 0 -393 129q-155 134 -164 349l391 45q7 -86 60.5 -139.5t128.5 -53.5q82 0 138 60.5
t56 148.5q0 75 -42 122.5t-111 47.5z" />
    <glyph glyph-name="six" unicode="6" horiz-adv-x="1247" 
d="M803 1495q188 0 319 -93t174 -255l-323 -125q-17 70 -72 112t-129 42q-111 0 -194 -86q-82 -85 -103 -218q116 101 287 101q192 0 315 -123t123 -313q0 -116 -45 -221.5t-129 -182.5q-166 -158 -416 -158q-252 0 -395 162t-143 447q0 174 46.5 333t133.5 283
q100 142 242.5 218.5t308.5 76.5zM438 469q0 -78 51.5 -128t133.5 -50q92 0 152.5 62t60.5 153q0 78 -52.5 129t-134.5 51q-90 0 -150.5 -63t-60.5 -154z" />
    <glyph glyph-name="seven" unicode="7" horiz-adv-x="1204" 
d="M838 1137h-396l-28 -213h-338l76 546h1163l-47 -342q-274 -256 -404 -507q-133 -256 -182 -621h-403q51 364 186.5 640.5t372.5 496.5z" />
    <glyph glyph-name="eight" unicode="8" horiz-adv-x="1259" 
d="M354 1382q150 113 373 113q226 0 363 -113q141 -111 141 -290q0 -232 -227 -353q92 -43 143 -124t51 -185q0 -106 -52 -196.5t-149 -153.5q-164 -105 -403 -105q-221 0 -379 93q-93 56 -142.5 138t-49.5 181q0 130 79.5 235.5t214.5 155.5q-68 44 -104.5 114t-36.5 155
q0 99 46 185.5t132 149.5zM537 1044q0 -60 44 -97.5t113 -37.5q75 0 125.5 45t50.5 111q0 60 -44 97.5t-113 37.5q-75 0 -125.5 -45t-50.5 -111zM809 459q0 67 -51 109t-133 42q-88 0 -146.5 -50.5t-58.5 -125.5q0 -68 50 -109.5t132 -41.5q90 0 148.5 50t58.5 126z" />
    <glyph glyph-name="nine" unicode="9" horiz-adv-x="1247" 
d="M500 -25q-188 0 -319.5 93.5t-174.5 255.5l324 125q17 -70 71.5 -112t128.5 -42q110 0 193 86t104 217q-115 -100 -286 -100q-193 0 -316 123t-123 313q0 116 45 220.5t129 182.5q166 158 416 158q249 0 393 -164q146 -166 146 -444q0 -174 -46.5 -333.5t-133.5 -283.5
q-100 -142 -242.5 -218.5t-308.5 -76.5zM864 1001q0 78 -51.5 128.5t-132.5 50.5q-92 0 -152.5 -62t-60.5 -153q0 -78 52.5 -129.5t133.5 -51.5q90 0 150.5 63t60.5 154z" />
    <glyph glyph-name="colon" unicode=":" horiz-adv-x="565" 
d="M426 0h-436l57 418h436zM516 645h-436l57 418h436z" />
    <glyph glyph-name="semicolon" unicode=";" horiz-adv-x="565" 
d="M152 0h-162l57 418h436l-51 -371q-29 -191 -147 -281t-340 -90l26 191q85 1 126.5 29t52.5 90zM516 645h-436l57 418h436z" />
    <glyph glyph-name="less" unicode="&#x3c;" 
d="M1106 49l-1040 451l59 420l1165 450l-51 -371l-864 -297l778 -309z" />
    <glyph glyph-name="equal" unicode="=" 
d="M1217 819h-1113l39 268h1110zM1151 342h-1112l37 266h1112z" />
    <glyph glyph-name="greater" unicode="&#x3e;" 
d="M1233 924l-59 -420l-1166 -451l51 371l865 297l-779 309l48 344z" />
    <glyph glyph-name="question" unicode="?" horiz-adv-x="1191" 
d="M803 1014q0 60 -39 93.5t-105 33.5q-73 0 -124 -48.5t-70 -134.5l-395 68q56 217 221 343t397 126q242 0 389 -117q150 -114 150 -305q0 -165 -109 -289q-105 -120 -287 -155l-18 -133h-385l55 344q155 0 237.5 44.5t82.5 129.5zM768 0h-436l55 403h436z" />
    <glyph glyph-name="at" unicode="@" horiz-adv-x="1884" 
d="M1384 322q45 0 92.5 43.5t79.5 115.5q52 117 52 242q0 204 -141.5 320t-391.5 116q-160 0 -303 -54.5t-248 -156.5q-110 -104 -170.5 -244.5t-60.5 -293.5q3 -246 166 -390q163 -141 440 -141q279 0 492 139l98 -202q-239 -174 -602 -174q-175 0 -329.5 50t-268.5 146
q-125 105 -191.5 248.5t-66.5 314.5q0 204 82 391t233 326q147 136 334.5 207.5t400.5 71.5q326 0 541 -164q117 -91 178.5 -219.5t61.5 -280.5q0 -257 -144 -446q-80 -99 -186.5 -153t-224.5 -54q-91 0 -165 30.5t-118 86.5q-105 -111 -264 -111q-142 0 -225.5 89.5
t-83.5 242.5q0 208 131 370q68 85 156.5 131t185.5 46q78 0 140 -30.5t93 -84.5l35 96h311l-166 -524q-14 -47 -1.5 -73.5t48.5 -26.5zM879 336q88 0 139 151l24 72q23 72 4.5 115t-69.5 43q-67 0 -123 -86q-55 -85 -55 -189q0 -106 80 -106z" />
    <glyph glyph-name="A" unicode="A" horiz-adv-x="1536" 
d="M-70 0l758 1470h463l303 -1470h-385l-53 266h-539l-135 -266h-412zM950 588l-88 440l-223 -440h311z" />
    <glyph glyph-name="B" unicode="B" horiz-adv-x="1343" 
d="M774 0h-749l206 1470h639q225 0 351.5 -94t126.5 -260q0 -129 -70 -233q-72 -104 -178 -138q192 -82 192 -301q0 -199 -143 -321q-141 -123 -375 -123zM569 1145l-34 -250h256q78 0 124 37.5t46 99.5q0 113 -148 113h-244zM770 594h-276l-37 -266h284q78 0 127.5 41
t49.5 104q0 56 -39.5 88.5t-108.5 32.5z" />
    <glyph glyph-name="C" unicode="C" horiz-adv-x="1390" 
d="M549 983q-82 -141 -82 -317q0 -158 69.5 -250t186.5 -92q198 0 283 231l356 -141q-91 -214 -258.5 -326.5t-394.5 -112.5q-293 0 -473 189q-173 185 -173 481q0 166 55 320t158 272q109 125 255.5 191.5t312.5 66.5q241 0 402 -129t198 -352l-381 -107q-17 115 -81 177.5
t-163 62.5q-81 0 -150.5 -42.5t-119.5 -121.5z" />
    <glyph glyph-name="D" unicode="D" horiz-adv-x="1443" 
d="M639 0h-614l206 1470h504q331 0 516 -169t185 -470q0 -173 -55.5 -324.5t-159.5 -264.5q-222 -242 -582 -242zM575 1133l-110 -795h174q180 0 291 129q110 131 110 338q0 156 -84 242t-237 86h-144z" />
    <glyph glyph-name="E" unicode="E" horiz-adv-x="1236" 
d="M25 0l206 1470h1072l-50 -340h-675l-31 -219h561l-47 -331h-561l-33 -240h676l-47 -340h-1071z" />
    <glyph glyph-name="F" unicode="F" horiz-adv-x="1208" 
d="M492 514l-74 -514h-393l206 1470h1067l-49 -340h-671l-41 -284h557l-47 -332h-555z" />
    <glyph glyph-name="G" unicode="G" horiz-adv-x="1513" 
d="M1343 0h-344l17 119q-51 -68 -144 -106t-208 -38q-134 0 -249 50.5t-196 146.5q-158 185 -158 467q0 169 57.5 325t162.5 275q110 125 258.5 190.5t320.5 65.5q241 0 406 -127q159 -123 200 -342l-379 -106q-13 105 -82 166t-174 61q-82 0 -154.5 -42t-123.5 -120
q-90 -139 -90 -319q0 -164 74.5 -258.5t203.5 -94.5q92 0 166 52t109 143h-285l45 317h684z" />
    <glyph glyph-name="H" unicode="H" horiz-adv-x="1521" 
d="M1073 915l78 555h401l-206 -1470h-402l82 578h-518l-82 -578h-401l206 1470h402l-80 -555h520z" />
    <glyph glyph-name="I" unicode="I" horiz-adv-x="602" 
d="M231 1470h402l-207 -1470h-401z" />
    <glyph glyph-name="J" unicode="J" horiz-adv-x="851" 
d="M201 -10q-112 0 -232 20l47 340q85 -16 146 -16q98 0 143.5 41t59.5 141l135 954l401 3l-145 -1029q-32 -233 -167 -343.5t-388 -110.5z" />
    <glyph glyph-name="K" unicode="K" horiz-adv-x="1441" 
d="M231 1470h402l-80 -573l524 573h477l-591 -606l423 -864h-446l-274 557l-189 -190l-51 -367h-401z" />
    <glyph glyph-name="L" unicode="L" horiz-adv-x="1167" 
d="M1059 0h-1034l206 1470h402l-160 -1130h633z" />
    <glyph glyph-name="M" unicode="M" horiz-adv-x="1800" 
d="M1366 936l-410 -936h-268l-147 936l-131 -936h-385l206 1470h551l123 -845l359 845h567l-207 -1470h-389z" />
    <glyph glyph-name="N" unicode="N" horiz-adv-x="1517" 
d="M1165 1470h383l-207 -1470h-340l-471 874l-122 -874h-383l206 1470h387l431 -831z" />
    <glyph glyph-name="O" unicode="O" horiz-adv-x="1517" 
d="M244 162q-181 190 -181 487q0 166 55 320t158 272q109 124 254.5 189t315.5 65q297 0 483 -186q180 -186 180 -488q0 -166 -55 -320t-158 -272q-109 -124 -254.5 -189t-314.5 -65q-296 0 -483 187zM1020 485q86 131 86 318q0 159 -74.5 251.5t-202.5 92.5
q-170 0 -276 -162q-86 -131 -86 -317q0 -160 74 -252t202 -92q172 0 277 161z" />
    <glyph glyph-name="P" unicode="P" horiz-adv-x="1349" 
d="M815 469h-323l-66 -469h-401l206 1470h598q267 0 413.5 -118.5t146.5 -337.5q0 -119 -42.5 -222t-123.5 -176q-75 -72 -180.5 -109.5t-227.5 -37.5zM584 1135l-45 -332h245q96 0 153.5 51t57.5 131q0 70 -50.5 110t-141.5 40h-219z" />
    <glyph glyph-name="Q" unicode="Q" horiz-adv-x="1515" 
d="M244 162q-181 190 -181 487q0 166 55 320t158 272q109 124 254.5 189t315.5 65q297 0 483 -186q180 -186 180 -488q0 -210 -87 -395.5t-240 -302.5q73 -88 227 -127l-250 -275q-103 32 -184.5 105t-112.5 160q-67 -11 -135 -11q-296 0 -483 187zM1020 485q86 131 86 318
q0 159 -74.5 251.5t-202.5 92.5q-170 0 -276 -162q-86 -131 -86 -317q0 -160 74 -252t202 -92q172 0 277 161z" />
    <glyph glyph-name="R" unicode="R" horiz-adv-x="1388" 
d="M651 487h-157l-68 -487h-401l206 1470h607q256 0 403.5 -120.5t147.5 -329.5q0 -165 -92.5 -294t-252.5 -191l254 -535h-432zM584 1135l-45 -330h243q94 0 153.5 51t59.5 131q0 70 -50 109t-142 39h-219z" />
    <glyph glyph-name="S" unicode="S" horiz-adv-x="1255" 
d="M584 -25q-201 0 -375 76q-171 75 -272 203l247 272q80 -104 192.5 -162.5t233.5 -58.5q96 0 153.5 38t57.5 101q0 49 -49 79.5t-172 56.5q-252 51 -364.5 147t-112.5 260q0 113 51 212.5t145 168.5q171 127 422 127q173 0 326 -65.5t244 -178.5l-230 -254
q-69 78 -168.5 124t-201.5 46q-87 0 -137 -31.5t-50 -86.5q0 -37 25.5 -60t87.5 -43q62 -21 164 -41q428 -89 428 -393q0 -122 -52.5 -226t-150.5 -177q-175 -134 -442 -134z" />
    <glyph glyph-name="T" unicode="T" horiz-adv-x="1331" 
d="M1430 1470l-50 -340h-432l-157 -1130h-402l158 1130h-432l49 340h1266z" />
    <glyph glyph-name="U" unicode="U" horiz-adv-x="1443" 
d="M692 -23q-315 0 -479 173q-159 173 -119 475l121 845h399l-118 -858q-19 -136 37.5 -211t175.5 -75q113 0 177.5 70t84.5 216l119 858h401l-125 -888q-41 -291 -215.5 -448t-458.5 -157z" />
    <glyph glyph-name="V" unicode="V" horiz-adv-x="1488" 
d="M1614 1470l-760 -1470h-412l-305 1470h414l172 -948l467 948h424z" />
    <glyph glyph-name="W" unicode="W" horiz-adv-x="1990" 
d="M612 594l342 876h330l70 -876l344 876h418l-615 -1470h-385l-80 874l-354 -874h-385l-160 1470h406z" />
    <glyph glyph-name="X" unicode="X" horiz-adv-x="1480" 
d="M1130 1470h455l-581 -720l393 -750h-436l-224 449l-352 -449h-455l611 752l-375 718h436l203 -417z" />
    <glyph glyph-name="Y" unicode="Y" horiz-adv-x="1437" 
d="M543 1470l229 -530l373 530h434l-653 -892l-82 -578h-402l82 578l-405 892h424z" />
    <glyph glyph-name="Z" unicode="Z" horiz-adv-x="1323" 
d="M567 340h674l-49 -340h-1204l41 299l792 831h-667l47 340h1190l-41 -296z" />
    <glyph glyph-name="bracketleft" unicode="[" horiz-adv-x="708" 
d="M784 1223h-237l-160 -1137h238l-41 -287h-607l242 1712h606z" />
    <glyph glyph-name="backslash" unicode="\" horiz-adv-x="1026" 
d="M535 1511l366 -1712h-377l-366 1712h377z" />
    <glyph glyph-name="bracketright" unicode="]" horiz-adv-x="708" 
d="M195 88l159 1137h-237l41 286h606l-242 -1712h-606l41 289h238z" />
    <glyph glyph-name="asciicircum" unicode="^" horiz-adv-x="1081" 
d="M63 823l424 647h369l242 -647h-344l-115 324l-205 -324h-371z" />
    <glyph glyph-name="underscore" unicode="_" horiz-adv-x="980" 
d="M754 -393h-789l43 303h789z" />
    <glyph glyph-name="grave" unicode="`" horiz-adv-x="1228" 
d="M930 1470l71 -313h-294l-215 313h438z" />
    <glyph glyph-name="a" unicode="a" horiz-adv-x="1169" 
d="M1108 283l-39 -281q-137 -32 -247 -7t-160 97q-112 -112 -304 -112q-161 0 -261.5 84.5t-100.5 220.5q0 155 123 251.5t346 116.5l240 27l2 18q8 50 -22 78t-93 29q-55 0 -88.5 -24.5t-52.5 -78.5l-363 60q54 163 196 253.5t347 90.5q233 0 358.5 -107.5t100.5 -287.5
l-52 -375q-6 -31 11 -44t59 -9zM487 252q73 0 121.5 36.5t55.5 98.5l8 62l-158 -19q-137 -15 -137 -102q0 -76 110 -76z" />
    <glyph glyph-name="b" unicode="b" horiz-adv-x="1257" 
d="M1094 186q-72 -103 -171 -157t-214 -54q-93 0 -172 37t-117 99l-17 -111h-389l207 1470h389l-67 -489q47 60 120.5 92.5t161.5 32.5q180 0 289 -133t109 -350q0 -257 -129 -437zM676 778q-78 0 -129 -54.5t-64 -152.5l-6 -51q-13 -94 29.5 -155.5t120.5 -61.5
q88 0 145 80.5t57 202.5q0 92 -39.5 142t-113.5 50z" />
    <glyph glyph-name="c" unicode="c" horiz-adv-x="1107" 
d="M623 791q-91 0 -150 -84t-59 -213q0 -98 39.5 -150.5t111.5 -52.5q62 0 107 41t69 117l322 -113q-46 -162 -189 -262q-138 -99 -337 -99q-106 0 -198.5 36t-160.5 104q-141 138 -141 356q0 127 43 243t123 204q167 188 434 188q185 0 313 -90q144 -107 166 -275
l-352 -106q-8 75 -44 115.5t-97 40.5z" />
    <glyph glyph-name="d" unicode="d" horiz-adv-x="1257" 
d="M432 -23q-183 0 -290 131t-107 351q0 255 127 436q72 103 171 157t214 54q94 0 172 -36t119 -99l69 499h389l-206 -1470h-390l15 102q-103 -125 -283 -125zM772 510l8 51q12 97 -29.5 157t-119.5 60q-90 0 -146.5 -79t-56.5 -203q0 -92 39.5 -141.5t112.5 -49.5
q80 0 130 53.5t62 151.5z" />
    <glyph glyph-name="e" unicode="e" horiz-adv-x="1161" 
d="M561 -25q-237 0 -383 134q-141 135 -141 358q0 130 43 247.5t123 203.5q173 188 440 188q253 0 389 -168q130 -164 92 -416l-10 -65h-708q7 -88 53.5 -134.5t126.5 -46.5q67 0 117.5 32t76.5 91l301 -108q-67 -146 -207.5 -231t-312.5 -85zM627 817q-63 0 -114 -38
t-77 -107h332q5 63 -34.5 104t-106.5 41z" />
    <glyph glyph-name="f" unicode="f" horiz-adv-x="731" 
d="M846 1475l-41 -287q-98 17 -142.5 -1t-54.5 -79l-2 -27h182l-45 -315h-182l-106 -766h-389l106 766h-131l45 315h131l8 62q62 432 621 332z" />
    <glyph glyph-name="g" unicode="g" horiz-adv-x="1267" 
d="M1253 1081l-135 -956q-32 -246 -193 -375t-433 -129q-217 0 -356.5 88t-170.5 246l375 63q17 -54 65 -83t117 -29q85 0 138 49t65 139l10 58q-42 -52 -113.5 -81.5t-158.5 -29.5q-189 0 -303 123q-113 125 -113 332q0 244 133 415q72 94 169.5 144.5t209.5 50.5
q96 0 172.5 -34.5t118.5 -94.5l14 104h389zM793 551l4 41q12 90 -30 145.5t-120 55.5q-88 0 -143 -73.5t-55 -189.5q0 -86 39 -132t112 -46q78 0 128.5 52.5t64.5 146.5z" />
    <glyph glyph-name="h" unicode="h" horiz-adv-x="1224" 
d="M403 0h-389l207 1470h389l-67 -485q51 57 130 89t167 32q168 0 256 -113t63 -299l-98 -694h-389l86 612q10 72 -18.5 111t-90.5 39q-66 0 -108 -45t-54 -129z" />
    <glyph glyph-name="i" unicode="i" horiz-adv-x="571" 
d="M571 1167h-393l43 303h391zM166 1081h389l-152 -1081h-389z" />
    <glyph glyph-name="j" unicode="j" horiz-adv-x="571" 
d="M571 1167h-393l43 303h391zM18 27l148 1054h389l-149 -1069q-32 -234 -177.5 -321.5t-435.5 -46.5l41 284q101 -17 137 3.5t47 95.5z" />
    <glyph glyph-name="k" unicode="k" horiz-adv-x="1236" 
d="M221 1470h389l-100 -708l324 319h460l-430 -395l305 -686h-421l-187 406l-115 -107l-43 -299h-389z" />
    <glyph glyph-name="l" unicode="l" horiz-adv-x="571" 
d="M221 1470h389l-207 -1470h-389z" />
    <glyph glyph-name="m" unicode="m" horiz-adv-x="1865" 
d="M645 762q-60 0 -103 -43.5t-53 -116.5l-86 -602h-389l152 1081h389l-12 -94q125 119 301 119q98 0 169.5 -40t106.5 -114q72 73 166.5 113.5t194.5 40.5q169 0 258 -109q90 -109 63 -282l-100 -715h-389l86 608q11 72 -17.5 113t-89.5 41q-60 0 -101.5 -42.5
t-51.5 -115.5l-86 -604h-389l86 608q11 74 -16.5 114t-88.5 40z" />
    <glyph glyph-name="n" unicode="n" horiz-adv-x="1224" 
d="M403 0h-389l152 1081h389l-12 -96q51 57 130 89t167 32q168 0 256 -113t63 -299l-98 -694h-389l86 612q10 72 -18.5 111t-90.5 39q-66 0 -108 -45t-54 -129z" />
    <glyph glyph-name="o" unicode="o" horiz-adv-x="1187" 
d="M633 1106q237 0 377 -137q141 -138 141 -371q0 -128 -42.5 -242t-121.5 -200q-169 -181 -432 -181q-236 0 -377 138t-141 370q0 128 42.5 242.5t121.5 200.5q168 180 432 180zM623 793q-90 0 -147.5 -85.5t-57.5 -215.5q0 -96 40 -149.5t109 -53.5q90 0 147.5 85.5
t57.5 215.5q0 96 -40 149.5t-109 53.5z" />
    <glyph glyph-name="p" unicode="p" horiz-adv-x="1257" 
d="M1094 186q-72 -103 -171 -157t-214 -54q-93 0 -172 37t-117 99l-66 -465h-389l201 1435h389l-12 -100q47 60 120.5 92.5t161.5 32.5q180 0 289 -133t109 -350q0 -257 -129 -437zM676 778q-78 0 -129 -54.5t-64 -152.5l-6 -51q-13 -94 29.5 -155.5t120.5 -61.5
q88 0 145 80.5t57 202.5q0 92 -39.5 142t-113.5 50z" />
    <glyph glyph-name="q" unicode="q" horiz-adv-x="1257" 
d="M432 -23q-183 0 -290 131t-107 351q0 255 127 436q72 103 171 157t214 54q94 0 172 -36t119 -99l14 110h389l-201 -1435h-389l64 456q-103 -125 -283 -125zM772 510l8 51q12 97 -29.5 157t-119.5 60q-90 0 -146.5 -79t-56.5 -203q0 -92 39.5 -141.5t112.5 -49.5
q80 0 130 53.5t62 151.5z" />
    <glyph glyph-name="r" unicode="r" horiz-adv-x="854" 
d="M819 1087q5 0 74 -6l-51 -364q-51 10 -97 10q-113 0 -184 -61.5t-88 -173.5l-70 -492h-389l152 1081h389l-16 -123q113 129 280 129z" />
    <glyph glyph-name="s" unicode="s" horiz-adv-x="1064" 
d="M477 -23q-163 0 -305 46q-143 46 -219 122l174 254q73 -66 176.5 -104.5t202.5 -38.5q55 0 85 17.5t30 48.5q0 30 -31 44.5t-121 32.5q-201 37 -293 111t-92 199q0 92 42 170.5t120 132.5q134 94 342 94q145 0 276.5 -47t204.5 -123l-190 -231q-56 57 -136.5 91.5
t-158.5 34.5q-50 0 -79.5 -16t-29.5 -43q0 -30 33.5 -46t126.5 -34q191 -32 283 -109t92 -204q0 -199 -176 -309q-145 -93 -357 -93z" />
    <glyph glyph-name="t" unicode="t" horiz-adv-x="776" 
d="M473 -10q-213 0 -300 81t-62 255l59 440h-131l45 315h131l39 287h385l-41 -287h201l-43 -315h-201l-49 -352q-8 -56 15.5 -77.5t92.5 -21.5q45 0 86 7l-45 -316q-106 -16 -182 -16z" />
    <glyph glyph-name="u" unicode="u" horiz-adv-x="1224" 
d="M821 1081h389l-151 -1081h-389l12 96q-49 -55 -129 -87t-168 -32q-170 0 -257 113t-62 299l96 692h391l-86 -610q-10 -72 18 -110.5t90 -38.5q66 0 108 44t54 128z" />
    <glyph glyph-name="v" unicode="v" horiz-adv-x="1146" 
d="M1225 1081l-553 -1081h-383l-215 1081h383l96 -602l278 602h394z" />
    <glyph glyph-name="w" unicode="w" horiz-adv-x="1617" 
d="M508 520l237 561h275l45 -561l252 561h379l-510 -1081h-328l-65 514l-236 -514h-332l-151 1081h370z" />
    <glyph glyph-name="x" unicode="x" horiz-adv-x="1167" 
d="M1098 0h-410l-133 272l-211 -272h-424l442 555l-274 526h412l118 -245l189 245h422l-422 -526z" />
    <glyph glyph-name="y" unicode="y" horiz-adv-x="1146" 
d="M1225 1081l-535 -1048q-107 -210 -184 -287q-60 -65 -131 -93t-176 -28q-81 0 -181 17l43 295q57 -11 89 -11q50 0 81 19t52 61l20 45l-229 1030h385l106 -594l269 594h391z" />
    <glyph glyph-name="z" unicode="z" horiz-adv-x="1077" 
d="M543 315h440l-45 -315h-952l39 276l526 490h-453l45 315h942l-38 -276z" />
    <glyph glyph-name="braceleft" unicode="{" horiz-adv-x="804" 
d="M133 504h-96l41 303h96q87 0 102 102l33 242q26 177 141.5 268.5t311.5 91.5h160l-43 -288h-60q-149 0 -170 -150l-28 -199q-23 -159 -162 -221q125 -64 100 -217l-29 -198q-21 -150 127 -150h64l-41 -289h-119q-197 0 -302.5 98t-88.5 265l35 239q12 103 -72 103z" />
    <glyph glyph-name="bar" unicode="|" horiz-adv-x="606" 
d="M387 -201h-377l242 1712h377z" />
    <glyph glyph-name="braceright" unicode="}" horiz-adv-x="804" 
d="M801 807l-41 -303h-96q-88 0 -103 -103l-33 -241q-26 -177 -141 -269t-311 -92h-160l43 289h59q149 0 170 150l29 198q23 159 162 221q-125 64 -100 217l28 199q21 150 -127 150h-63l41 288h118q197 0 303 -97.5t89 -264.5l-35 -240q-12 -102 72 -102h96z" />
    <glyph glyph-name="asciitilde" unicode="~" horiz-adv-x="1112" 
d="M422 887q40 0 76.5 -12.5t89.5 -47.5q65 -39 98 -39q67 0 102 101h281q-31 -199 -123 -316.5t-219 -117.5q-71 0 -166 59q-60 41 -96 41t-63 -25.5t-40 -74.5h-280q29 197 121 314.5t219 117.5z" />
    <glyph glyph-name="uni00A0" unicode="&#xa0;" horiz-adv-x="395" 
 />
    <glyph glyph-name="exclamdown" unicode="&#xa1;" horiz-adv-x="552" 
d="M190 1470h437l-58 -403h-436zM186 975h303l-49 -975h-479z" />
    <glyph glyph-name="cent" unicode="&#xa2;" horiz-adv-x="1177" 
d="M651 -197h-245l26 191q-180 43 -285.5 181.5t-105.5 330.5q0 242 154 426q153 185 399 213l27 184l245 2l-28 -198q130 -32 224 -115.5t132 -200.5l-270 -151q-25 105 -129 157l-76 -532q114 38 178 164l229 -162q-66 -129 -183.5 -210.5t-266.5 -100.5zM365 524
q0 -153 112 -215l74 520q-86 -35 -136 -117.5t-50 -187.5z" />
    <glyph glyph-name="sterling" unicode="&#xa3;" horiz-adv-x="1382" 
d="M535 100q-128 -125 -291 -125q-123 0 -201 71.5t-78 184.5q0 122 92 205q91 82 232 82q68 0 129 -20q-3 51 -10 71h-248l30 230h125q-41 95 -41 186q0 110 49.5 209t139.5 168q160 133 407 133q210 0 351 -104q165 -125 165 -318q0 -106 -47 -211h-370q35 80 35 146
q0 69 -42.5 111t-111.5 42q-79 0 -132.5 -55t-53.5 -137q0 -32 16 -88l35 -82h231l-31 -230h-163q-9 -114 -50 -217q61 -30 132 -30q78 0 127.5 47t62.5 135h348q-32 -248 -161.5 -388.5t-327.5 -140.5q-200 0 -348 125zM274 319q-30 0 -50.5 -18.5t-20.5 -44.5
q0 -24 17 -39.5t42 -15.5q56 0 103 71q-50 47 -91 47z" />
    <glyph glyph-name="yen" unicode="&#xa5;" horiz-adv-x="1409" 
d="M473 342h-317l30 236h322l10 81h-319l32 234h203l-297 577h443l188 -415l307 415h457l-459 -577h205l-35 -234h-319l-11 -81h320l-33 -236h-321l-48 -342h-405z" />
    <glyph glyph-name="section" unicode="&#xa7;" horiz-adv-x="1105" 
d="M483 -25q-160 0 -297.5 48t-222.5 133l162 235q66 -60 176 -102q115 -41 211 -41q59 0 94 19t35 50q0 21 -25 36t-90 32l-141 33q-156 38 -225.5 104.5t-69.5 173.5q0 81 35 153.5t100 121.5q-51 63 -51 153q0 86 41.5 160t116.5 125q127 86 325 86q152 0 286 -48
t206 -128l-188 -217q-57 57 -141.5 91t-166.5 34q-49 0 -77.5 -16t-28.5 -42q0 -20 23.5 -35t86.5 -34l136 -37q154 -42 225.5 -112.5t71.5 -176.5q0 -74 -29.5 -142.5t-83.5 -117.5q43 -57 43 -139q0 -91 -47 -171.5t-133 -135.5q-145 -93 -357 -93zM418 776q0 -30 41 -51
q38 -18 207 -57q18 -4 30 -9q5 -1 35 -8q31 24 31 58q0 33 -39.5 54t-155.5 50l-98 25q-24 -7 -37.5 -24.5t-13.5 -37.5z" />
    <glyph glyph-name="dieresis" unicode="&#xa8;" horiz-adv-x="1228" 
d="M662 1167h-363l41 303h365zM1108 1167h-363l41 303h365z" />
    <glyph glyph-name="copyright" unicode="&#xa9;" horiz-adv-x="1642" 
d="M1409 1300q97 -94 148 -220.5t51 -272.5q0 -166 -61.5 -318.5t-176.5 -269.5q-116 -117 -266.5 -180.5t-315.5 -63.5q-296 0 -497 195q-98 94 -149.5 220.5t-51.5 273.5q0 166 61.5 318t176.5 269q116 117 267 180.5t316 63.5q145 0 273 -50.5t225 -144.5zM1237 350
q88 91 135 206.5t47 240.5q0 107 -38 202.5t-109 163.5q-140 146 -369 146q-127 0 -240.5 -49t-201.5 -140q-87 -91 -133.5 -206.5t-46.5 -239.5q0 -106 38 -202t107 -165q145 -145 369 -145q128 0 242 48t200 140zM825 301q-173 0 -281 107t-108 280q0 201 127 340
q64 70 149.5 108t182.5 38q141 0 239 -75t123 -200l-274 -86q-5 45 -32.5 72.5t-71.5 27.5q-66 0 -107 -56.5t-41 -147.5q0 -71 28.5 -109.5t80.5 -38.5q86 0 123 101l260 -91q-54 -128 -158.5 -199t-239.5 -71z" />
    <glyph glyph-name="ordfeminine" unicode="&#xaa;" horiz-adv-x="899" 
d="M897 889l-29 -195q-97 -23 -173 -4.5t-109 70.5q-79 -82 -219 -82q-117 0 -189 60.5t-72 160.5q0 109 87 178t245 86l178 21l2 12q6 38 -16.5 59t-69.5 23q-43 0 -69 -18.5t-39 -59.5l-250 43q38 116 138.5 180t246.5 64q166 0 255.5 -77t70.5 -204l-39 -276
q-4 -25 7 -34t44 -7zM455 868q55 0 90 27.5t41 75.5l8 49l-121 -14q-102 -15 -102 -80q0 -27 22 -42.5t62 -15.5zM813 365h-786l30 213h787z" />
    <glyph glyph-name="guillemotleft" unicode="&#xab;" horiz-adv-x="1122" 
d="M461 68l-432 305l45 319l518 305l-51 -374l-176 -109l145 -111zM1004 68l-433 305l45 319l519 305l-52 -374l-176 -109l146 -111z" />
    <glyph glyph-name="registered" unicode="&#xae;" horiz-adv-x="1069" 
d="M944 1374q125 -122 125 -305q0 -98 -38 -191t-107 -165q-151 -154 -355 -154q-186 0 -307 121q-125 122 -125 305q0 99 38.5 192t109.5 164q69 74 160.5 114t191.5 40q186 0 307 -121zM858 776q56 60 86.5 137t30.5 156q0 148 -98 242q-96 96 -242 96q-81 0 -155 -33.5
t-130 -95.5q-56 -60 -86.5 -137t-30.5 -156q0 -145 97 -242q96 -96 241 -96q167 0 287 129zM729 983l86 -184h-170l-55 143h-58l-20 -143h-160l68 471h235q81 0 131 -39.5t50 -102.5q0 -47 -28.5 -86t-78.5 -59zM666 1104q0 39 -50 39h-57l-10 -88h59q25 0 41.5 14.5
t16.5 34.5z" />
    <glyph glyph-name="overscore" unicode="&#xaf;" horiz-adv-x="1228" 
d="M1094 1454l-39 -278h-703l39 278h703z" />
    <glyph glyph-name="degree" unicode="&#xb0;" horiz-adv-x="708" 
d="M211 1389q106 106 252 106q134 0 223 -92q88 -88 88 -223q0 -148 -104 -252q-49 -51 -115 -79t-135 -28q-133 0 -223 90q-88 88 -88 224q0 149 102 254zM311 1147q0 -55 34 -91t85 -36q57 0 99 43t42 104q0 55 -33.5 91t-84.5 36q-58 0 -100 -43t-42 -104z" />
    <glyph glyph-name="twosuperior" unicode="&#xb2;" horiz-adv-x="778" 
d="M92 655l29 201l295 201q112 75 112 137q0 25 -15 40t-40 15q-32 0 -52 -22.5t-20 -59.5q0 -8 3 -24t4 -23h-242q-8 31 -8 56q0 136 98 221q98 88 248 88q129 0 208 -68t79 -180q0 -151 -152 -260l-129 -90h242l-33 -232h-627z" />
    <glyph glyph-name="threesuperior" unicode="&#xb3;" horiz-adv-x="778" 
d="M756 905q0 -110 -90 -188q-88 -76 -232 -76q-140 0 -228.5 72.5t-92.5 193.5l266 29q2 -33 19.5 -51.5t47.5 -18.5q26 0 45 16.5t19 41.5q0 24 -18.5 37.5t-51.5 13.5h-67l24 178h68q32 0 53 16t21 41q0 23 -14.5 36.5t-37.5 13.5q-29 0 -47.5 -19.5t-23.5 -50.5l-250 27
q31 125 124 196.5t226 71.5q127 0 207 -64.5t80 -163.5q0 -67 -37.5 -122.5t-95.5 -75.5q39 -21 62.5 -62.5t23.5 -91.5z" />
    <glyph glyph-name="acute" unicode="&#xb4;" horiz-adv-x="1228" 
d="M715 1157h-314l138 313h460z" />
    <glyph glyph-name="paragraph" unicode="&#xb6;" horiz-adv-x="1312" 
d="M1012 0h-338l168 1182h-125l-90 -629h-88q-196 0 -313 111.5t-117 296.5q0 224 163 372q149 137 390 137h724l-40 -288h-168z" />
    <glyph glyph-name="middot" unicode="&#xb7;" horiz-adv-x="600" 
d="M498 393h-437l58 418h436z" />
    <glyph glyph-name="cedilla" unicode="&#xb8;" horiz-adv-x="1228" 
d="M743 -193q0 -82 -73 -134t-191 -52q-152 0 -250 82l111 139q48 -48 111 -51q61 0 61 39q0 44 -119 53l66 142h159l-28 -66q72 -11 112.5 -51t40.5 -101z" />
    <glyph glyph-name="onesuperior" unicode="&#xb9;" horiz-adv-x="778" 
d="M332 887l39 268h-181l27 184l82 7q66 5 107 34.5t61 89.5h215l-82 -583h137l-32 -232h-582l33 232h176z" />
    <glyph glyph-name="ordmasculine" unicode="&#xba;" horiz-adv-x="921" 
d="M567 1487q168 0 268.5 -99t100.5 -264q0 -187 -117 -317q-125 -131 -309 -131q-168 0 -269.5 98.5t-101.5 263.5q0 188 117 318q125 131 311 131zM561 1270q-67 0 -111 -63t-44 -160q0 -152 112 -152q68 0 112 63t44 160q0 72 -29.5 112t-83.5 40zM813 365h-756l31 213
h756z" />
    <glyph glyph-name="guillemotright" unicode="&#xbb;" horiz-adv-x="1122" 
d="M1094 692l-45 -319l-519 -305l52 374l176 109l-146 111l50 335zM551 692l-45 -319l-518 -305l51 374l176 109l-145 111l49 335z" />
    <glyph glyph-name="onequarter" unicode="&#xbc;" horiz-adv-x="1804" 
d="M1679 162l-22 -162h-242l23 162h-375l27 190l342 463h340l-64 -448h111l-31 -205h-109zM1497 623l-190 -256h153zM260 0l1217 1470h286l-1214 -1470h-289zM332 887l39 268h-181l27 184l82 7q66 5 107 34.5t61 89.5h215l-82 -583h137l-32 -232h-582l33 232h176z" />
    <glyph glyph-name="onehalf" unicode="&#xbd;" horiz-adv-x="1873" 
d="M260 0l1217 1470h286l-1214 -1470h-289zM1135 0l28 201l295 200q113 76 113 138q0 25 -15 40t-40 15q-32 0 -52 -22.5t-20 -59.5q0 -8 2.5 -24.5t3.5 -22.5h-242q-8 31 -8 55q0 136 98 221q98 88 248 88q129 0 208 -67.5t79 -179.5q0 -151 -152 -260l-129 -91h242
l-33 -231h-626zM332 887l39 268h-181l27 184l82 7q66 5 107 34.5t61 89.5h215l-82 -583h137l-32 -232h-582l33 232h176z" />
    <glyph glyph-name="threequarters" unicode="&#xbe;" horiz-adv-x="1763" 
d="M1622 162l-23 -162h-241l22 162h-374l26 190l342 463h340l-63 -448h110l-30 -205h-109zM1440 623l-191 -256h154zM203 0l1216 1470h287l-1214 -1470h-289zM754 905q0 -110 -90 -188q-88 -76 -232 -76q-140 0 -228.5 72.5t-92.5 193.5l266 29q2 -33 19.5 -51.5t47.5 -18.5
q26 0 45 16.5t19 41.5q0 24 -18.5 37.5t-51.5 13.5h-67l24 178h68q32 0 53 16t21 41q0 23 -14.5 36.5t-37.5 13.5q-29 0 -47.5 -19.5t-23.5 -50.5l-250 27q31 125 124 196.5t226 71.5q127 0 207 -64.5t80 -163.5q0 -67 -37.5 -122.5t-95.5 -75.5q39 -21 62.5 -62.5
t23.5 -91.5z" />
    <glyph glyph-name="questiondown" unicode="&#xbf;" horiz-adv-x="1191" 
d="M481 1483h437l-56 -404h-436zM446 469q0 -60 39 -93.5t105 -33.5q73 0 124 48t70 134l396 -67q-56 -217 -221 -343t-398 -126q-241 0 -391 114q-147 117 -147 308q0 165 108 288q106 121 287 156l18 133h385l-55 -344q-155 0 -237.5 -44.5t-82.5 -129.5z" />
    <glyph glyph-name="Agrave" unicode="&#xc0;" horiz-adv-x="1536" 
d="M-70 0l758 1470h463l303 -1470h-385l-53 266h-539l-135 -266h-412zM950 588l-88 440l-223 -440h311zM973 1884l104 -342h-317l-281 342h494z" />
    <glyph glyph-name="Aacute" unicode="&#xc1;" horiz-adv-x="1536" 
d="M-70 0l758 1470h463l303 -1470h-385l-53 266h-539l-135 -266h-412zM950 588l-88 440l-223 -440h311zM1102 1542h-336l180 342h516z" />
    <glyph glyph-name="Acircumflex" unicode="&#xc2;" horiz-adv-x="1536" 
d="M-70 0l758 1470h463l303 -1470h-385l-53 266h-539l-135 -266h-412zM950 588l-88 440l-223 -440h311zM768 1884h381l186 -342h-272l-125 121l-160 -121h-293z" />
    <glyph glyph-name="Atilde" unicode="&#xc3;" horiz-adv-x="1536" 
d="M-70 0l758 1470h463l303 -1470h-385l-53 266h-539l-135 -266h-412zM950 588l-88 440l-223 -440h311zM801 1925q39 0 75.5 -12t90.5 -47q61 -37 92 -37q33 0 57.5 24.5t36.5 71.5h254q-23 -175 -106.5 -279t-204.5 -104q-39 0 -75.5 12.5t-90.5 47.5q-63 38 -94 38
q-33 0 -58 -25.5t-35 -72.5h-254q23 175 107 279t205 104z" />
    <glyph glyph-name="Adieresis" unicode="&#xc4;" horiz-adv-x="1536" 
d="M-70 0l758 1470h463l303 -1470h-385l-53 266h-539l-135 -266h-412zM950 588l-88 440l-223 -440h311zM870 1542h-364l47 326h362zM1323 1542h-362l45 326h364z" />
    <glyph glyph-name="Aring" unicode="&#xc5;" horiz-adv-x="1536" 
d="M627 1614q0 126 92 215q91 88 229 88q129 0 212 -78.5t83 -200.5q0 -120 -84 -204l295 -1434h-385l-53 266h-539l-135 -266h-412l748 1450q-51 76 -51 164zM938 1729q-44 0 -73 -31t-29 -78q0 -41 27.5 -67.5t68.5 -26.5q43 0 71.5 31t28.5 75q0 43 -26.5 70t-67.5 27z
M950 588l-88 440l-223 -440h311z" />
    <glyph glyph-name="AE" unicode="&#xc6;" horiz-adv-x="2148" 
d="M-70 0l963 1470h1317l-49 -340h-676l-31 -219h559l-47 -331h-559l-33 -240h676l-47 -340h-1071l39 272h-434l-179 -272h-428zM1090 1118l-345 -524h271z" />
    <glyph glyph-name="Ccedilla" unicode="&#xc7;" horiz-adv-x="1390" 
d="M850 -193q0 -82 -73 -134t-191 -52q-152 0 -250 82l110 139q48 -48 111 -51q61 0 61 39q0 44 -118 53l51 109q-227 46 -358 221q-130 177 -130 432q0 166 55 320t158 272q109 125 255.5 191.5t312.5 66.5q241 0 402 -129t198 -352l-381 -107q-17 115 -81 177.5t-163 62.5
q-81 0 -150.5 -42.5t-119.5 -121.5q-82 -141 -82 -317q0 -158 69.5 -250t186.5 -92q198 0 283 231l356 -141q-91 -214 -258.5 -326.5t-394.5 -112.5h-4l-9 -16q72 -11 113 -51t41 -101z" />
    <glyph glyph-name="Egrave" unicode="&#xc8;" horiz-adv-x="1236" 
d="M25 0l206 1470h1072l-50 -340h-675l-31 -219h561l-47 -331h-561l-33 -240h676l-47 -340h-1071zM915 1884l105 -342h-318l-280 342h493z" />
    <glyph glyph-name="Eacute" unicode="&#xc9;" horiz-adv-x="1236" 
d="M25 0l206 1470h1072l-50 -340h-675l-31 -219h561l-47 -331h-561l-33 -240h676l-47 -340h-1071zM920 1542h-336l180 342h516z" />
    <glyph glyph-name="Ecircumflex" unicode="&#xca;" horiz-adv-x="1236" 
d="M25 0l206 1470h1072l-50 -340h-675l-31 -219h561l-47 -331h-561l-33 -240h676l-47 -340h-1071zM647 1884h381l186 -342h-272l-125 121l-160 -121h-292z" />
    <glyph glyph-name="Edieresis" unicode="&#xcb;" horiz-adv-x="1236" 
d="M25 0l206 1470h1072l-50 -340h-675l-31 -219h561l-47 -331h-561l-33 -240h676l-47 -340h-1071zM737 1542h-364l47 326h362zM1190 1542h-363l45 326h365z" />
    <glyph glyph-name="Igrave" unicode="&#xcc;" horiz-adv-x="602" 
d="M231 1470h402l-207 -1470h-401zM518 1884l105 -342h-318l-280 342h493z" />
    <glyph glyph-name="Iacute" unicode="&#xcd;" horiz-adv-x="602" 
d="M231 1470h402l-207 -1470h-401zM610 1542h-336l181 342h516z" />
    <glyph glyph-name="Icircumflex" unicode="&#xce;" horiz-adv-x="602" 
d="M231 1470h402l-207 -1470h-401zM297 1884h381l186 -342h-272l-125 121l-160 -121h-293z" />
    <glyph glyph-name="Idieresis" unicode="&#xcf;" horiz-adv-x="602" 
d="M231 1470h402l-207 -1470h-401zM395 1542h-364l47 326h362zM848 1542h-363l45 326h365z" />
    <glyph glyph-name="Eth" unicode="&#xd0;" horiz-adv-x="1478" 
d="M674 0h-615l82 575h-110l47 340h110l78 555h504q331 0 515.5 -169t184.5 -470q0 -173 -55.5 -324.5t-159.5 -264.5q-222 -242 -581 -242zM532 575l-32 -237h174q180 0 291 129q110 131 110 338q0 156 -84 242t-237 86h-144l-30 -218h208l-47 -340h-209z" />
    <glyph glyph-name="Ntilde" unicode="&#xd1;" horiz-adv-x="1517" 
d="M1165 1470h383l-207 -1470h-340l-471 874l-122 -874h-383l206 1470h387l431 -831zM784 1925q40 0 76 -12t90 -47q61 -37 92 -37q33 0 58 25t37 71h254q-23 -175 -107 -279t-205 -104q-39 0 -75.5 12.5t-90.5 47.5q-63 38 -94 38q-33 0 -57.5 -25.5t-34.5 -72.5h-254
q23 175 106.5 279t204.5 104z" />
    <glyph glyph-name="Ograve" unicode="&#xd2;" horiz-adv-x="1517" 
d="M244 162q-181 190 -181 487q0 166 55 320t158 272q109 124 254.5 189t315.5 65q297 0 483 -186q180 -186 180 -488q0 -166 -55 -320t-158 -272q-109 -124 -254.5 -189t-314.5 -65q-296 0 -483 187zM1020 485q86 131 86 318q0 159 -74.5 251.5t-202.5 92.5
q-170 0 -276 -162q-86 -131 -86 -317q0 -160 74 -252t202 -92q172 0 277 161zM969 1884l104 -342h-317l-281 342h494z" />
    <glyph glyph-name="Oacute" unicode="&#xd3;" horiz-adv-x="1517" 
d="M244 162q-181 190 -181 487q0 166 55 320t158 272q109 124 254.5 189t315.5 65q297 0 483 -186q180 -186 180 -488q0 -166 -55 -320t-158 -272q-109 -124 -254.5 -189t-314.5 -65q-296 0 -483 187zM1020 485q86 131 86 318q0 159 -74.5 251.5t-202.5 92.5
q-170 0 -276 -162q-86 -131 -86 -317q0 -160 74 -252t202 -92q172 0 277 161zM1044 1542h-335l180 342h516z" />
    <glyph glyph-name="Ocircumflex" unicode="&#xd4;" horiz-adv-x="1517" 
d="M244 162q-181 190 -181 487q0 166 55 320t158 272q109 124 254.5 189t315.5 65q297 0 483 -186q180 -186 180 -488q0 -166 -55 -320t-158 -272q-109 -124 -254.5 -189t-314.5 -65q-296 0 -483 187zM1020 485q86 131 86 318q0 159 -74.5 251.5t-202.5 92.5
q-170 0 -276 -162q-86 -131 -86 -317q0 -160 74 -252t202 -92q172 0 277 161zM760 1884h381l186 -342h-272l-125 121l-160 -121h-293z" />
    <glyph glyph-name="Otilde" unicode="&#xd5;" horiz-adv-x="1517" 
d="M244 162q-181 190 -181 487q0 166 55 320t158 272q109 124 254.5 189t315.5 65q297 0 483 -186q180 -186 180 -488q0 -166 -55 -320t-158 -272q-109 -124 -254.5 -189t-314.5 -65q-296 0 -483 187zM1020 485q86 131 86 318q0 159 -74.5 251.5t-202.5 92.5
q-170 0 -276 -162q-86 -131 -86 -317q0 -160 74 -252t202 -92q172 0 277 161zM782 1925q40 0 76 -12t90 -47q61 -37 92 -37q33 0 58 25t37 71h254q-23 -175 -107 -279t-205 -104q-39 0 -75.5 12.5t-90.5 47.5q-63 38 -94 38q-33 0 -57.5 -25.5t-34.5 -72.5h-254
q23 175 106.5 279t204.5 104z" />
    <glyph glyph-name="Odieresis" unicode="&#xd6;" horiz-adv-x="1517" 
d="M244 162q-181 190 -181 487q0 166 55 320t158 272q109 124 254.5 189t315.5 65q297 0 483 -186q180 -186 180 -488q0 -166 -55 -320t-158 -272q-109 -124 -254.5 -189t-314.5 -65q-296 0 -483 187zM1020 485q86 131 86 318q0 159 -74.5 251.5t-202.5 92.5
q-170 0 -276 -162q-86 -131 -86 -317q0 -160 74 -252t202 -92q172 0 277 161zM862 1542h-364l47 326h362zM1315 1542h-363l45 326h365z" />
    <glyph glyph-name="multiply" unicode="&#xd7;" 
d="M76 395l364 326l-274 323l225 199l277 -321l366 321l187 -213l-367 -323l276 -324l-225 -201l-278 324l-367 -324z" />
    <glyph glyph-name="Oslash" unicode="&#xd8;" horiz-adv-x="1515" 
d="M164 -78l-197 182l185 185q-89 156 -89 362q0 166 57 319.5t161 270.5q109 124 254.5 189t314.5 65q224 0 395 -115l148 148l194 -182l-164 -164q86 -160 86 -363q0 -166 -56 -319.5t-159 -270.5q-109 -124 -254.5 -189t-314.5 -65q-228 0 -393 115zM545 995
q-90 -142 -90 -331q0 -6 4 -68l524 524q-68 43 -152 43q-172 0 -286 -168zM1028 477q88 136 88 330q0 13 -4 63l-520 -520q68 -43 151 -43q86 0 160 44t125 126z" />
    <glyph glyph-name="Ugrave" unicode="&#xd9;" horiz-adv-x="1443" 
d="M692 -23q-315 0 -479 173q-159 173 -119 475l121 845h399l-118 -858q-19 -136 37.5 -211t175.5 -75q113 0 177.5 70t84.5 216l119 858h401l-125 -888q-41 -291 -215.5 -448t-458.5 -157zM944 1884l105 -342h-318l-280 342h493z" />
    <glyph glyph-name="Uacute" unicode="&#xda;" horiz-adv-x="1443" 
d="M692 -23q-315 0 -479 173q-159 173 -119 475l121 845h399l-118 -858q-19 -136 37.5 -211t175.5 -75q113 0 177.5 70t84.5 216l119 858h401l-125 -888q-41 -291 -215.5 -448t-458.5 -157zM1018 1542h-336l180 342h516z" />
    <glyph glyph-name="Ucircumflex" unicode="&#xdb;" horiz-adv-x="1443" 
d="M692 -23q-315 0 -479 173q-159 173 -119 475l121 845h399l-118 -858q-19 -136 37.5 -211t175.5 -75q113 0 177.5 70t84.5 216l119 858h401l-125 -888q-41 -291 -215.5 -448t-458.5 -157zM721 1884h381l186 -342h-272l-125 121l-160 -121h-293z" />
    <glyph glyph-name="Udieresis" unicode="&#xdc;" horiz-adv-x="1443" 
d="M692 -23q-315 0 -479 173q-159 173 -119 475l121 845h399l-118 -858q-19 -136 37.5 -211t175.5 -75q113 0 177.5 70t84.5 216l119 858h401l-125 -888q-41 -291 -215.5 -448t-458.5 -157zM819 1542h-364l47 326h362zM1272 1542h-363l45 326h365z" />
    <glyph glyph-name="Yacute" unicode="&#xdd;" horiz-adv-x="1437" 
d="M543 1470l229 -530l373 530h434l-653 -892l-82 -578h-402l82 578l-405 892h424zM1018 1542h-336l180 342h516z" />
    <glyph glyph-name="Thorn" unicode="&#xde;" horiz-adv-x="1345" 
d="M1196 403q-152 -149 -399 -149h-336l-35 -254h-401l206 1470h402l-31 -215h199q269 0 413 -118.5t144 -339.5q0 -244 -162 -394zM772 922h-217l-47 -336h246q96 0 153.5 51t57.5 133q0 72 -50.5 112t-142.5 40z" />
    <glyph glyph-name="germandbls" unicode="&#xdf;" horiz-adv-x="1263" 
d="M743 1495q218 0 344.5 -104t126.5 -279q0 -109 -55 -197t-151 -131q209 -104 209 -329q0 -105 -39.5 -194t-114.5 -152q-136 -121 -363 -121q-129 0 -223 20l43 287q78 -16 129 -16q98 0 154.5 49.5t56.5 134.5q0 75 -54.5 115t-158.5 40h-80l43 306h78q78 0 124 38.5
t46 104.5q0 57 -35.5 90t-97.5 33q-81 0 -128.5 -57.5t-64.5 -176.5l-135 -956h-383l136 956q35 253 192 396t401 143z" />
    <glyph glyph-name="agrave" unicode="&#xe0;" horiz-adv-x="1169" 
d="M1108 283l-39 -281q-137 -32 -247 -7t-160 97q-112 -112 -304 -112q-161 0 -261.5 84.5t-100.5 220.5q0 155 123 251.5t346 116.5l240 27l2 18q8 50 -22 78t-93 29q-55 0 -88.5 -24.5t-52.5 -78.5l-363 60q54 163 196 253.5t347 90.5q233 0 358.5 -107.5t100.5 -287.5
l-52 -375q-6 -31 11 -44t59 -9zM487 252q73 0 121.5 36.5t55.5 98.5l8 62l-158 -19q-137 -15 -137 -102q0 -76 110 -76zM778 1470l72 -313h-295l-215 313h438z" />
    <glyph glyph-name="aacute" unicode="&#xe1;" horiz-adv-x="1169" 
d="M1108 283l-39 -281q-137 -32 -247 -7t-160 97q-112 -112 -304 -112q-161 0 -261.5 84.5t-100.5 220.5q0 155 123 251.5t346 116.5l240 27l2 18q8 50 -22 78t-93 29q-55 0 -88.5 -24.5t-52.5 -78.5l-363 60q54 163 196 253.5t347 90.5q233 0 358.5 -107.5t100.5 -287.5
l-52 -375q-6 -31 11 -44t59 -9zM487 252q73 0 121.5 36.5t55.5 98.5l8 62l-158 -19q-137 -15 -137 -102q0 -76 110 -76zM826 1157h-314l138 313h460z" />
    <glyph glyph-name="acircumflex" unicode="&#xe2;" horiz-adv-x="1169" 
d="M1108 283l-39 -281q-137 -32 -247 -7t-160 97q-112 -112 -304 -112q-161 0 -261.5 84.5t-100.5 220.5q0 155 123 251.5t346 116.5l240 27l2 18q8 50 -22 78t-93 29q-55 0 -88.5 -24.5t-52.5 -78.5l-363 60q54 163 196 253.5t347 90.5q233 0 358.5 -107.5t100.5 -287.5
l-52 -375q-6 -31 11 -44t59 -9zM487 252q73 0 121.5 36.5t55.5 98.5l8 62l-158 -19q-137 -15 -137 -102q0 -76 110 -76zM510 1470h373l166 -313h-271l-102 94l-129 -94h-289z" />
    <glyph glyph-name="atilde" unicode="&#xe3;" horiz-adv-x="1169" 
d="M1108 283l-39 -281q-137 -32 -247 -7t-160 97q-112 -112 -304 -112q-161 0 -261.5 84.5t-100.5 220.5q0 155 123 251.5t346 116.5l240 27l2 18q8 50 -22 78t-93 29q-55 0 -88.5 -24.5t-52.5 -78.5l-363 60q54 163 196 253.5t347 90.5q233 0 358.5 -107.5t100.5 -287.5
l-52 -375q-6 -31 11 -44t59 -9zM487 252q73 0 121.5 36.5t55.5 98.5l8 62l-158 -19q-137 -15 -137 -102q0 -76 110 -76zM545 1493q60 0 145 -53q49 -35 76 -35q52 0 86 88h234q-25 -156 -98 -246t-177 -90q-36 0 -67 11.5t-80 43.5q-53 33 -76 33q-57 0 -84 -88h-234
q20 152 95.5 244t179.5 92z" />
    <glyph glyph-name="adieresis" unicode="&#xe4;" horiz-adv-x="1169" 
d="M1108 283l-39 -281q-137 -32 -247 -7t-160 97q-112 -112 -304 -112q-161 0 -261.5 84.5t-100.5 220.5q0 155 123 251.5t346 116.5l240 27l2 18q8 50 -22 78t-93 29q-55 0 -88.5 -24.5t-52.5 -78.5l-363 60q54 163 196 253.5t347 90.5q233 0 358.5 -107.5t100.5 -287.5
l-52 -375q-6 -31 11 -44t59 -9zM487 252q73 0 121.5 36.5t55.5 98.5l8 62l-158 -19q-137 -15 -137 -102q0 -76 110 -76zM623 1167h-363l41 303h365zM1069 1167h-362l41 303h364z" />
    <glyph glyph-name="aring" unicode="&#xe5;" horiz-adv-x="1169" 
d="M1108 283l-39 -281q-137 -32 -247 -7t-160 97q-112 -112 -304 -112q-161 0 -261.5 84.5t-100.5 220.5q0 155 123 251.5t346 116.5l240 27l2 18q8 50 -22 78t-93 29q-55 0 -88.5 -24.5t-52.5 -78.5l-363 60q54 163 196 253.5t347 90.5q233 0 358.5 -107.5t100.5 -287.5
l-52 -375q-6 -31 11 -44t59 -9zM487 252q73 0 121.5 36.5t55.5 98.5l8 62l-158 -19q-137 -15 -137 -102q0 -76 110 -76zM676 1147q-99 0 -163 62.5t-64 156.5q0 104 73 174q78 72 185 72q99 0 163 -62.5t64 -156.5q0 -104 -76 -174q-75 -72 -182 -72zM696 1456
q-35 0 -57.5 -23.5t-22.5 -60.5q0 -31 19.5 -51.5t50.5 -20.5q35 0 57.5 24t22.5 60q0 32 -19.5 52t-50.5 20z" />
    <glyph glyph-name="ae" unicode="&#xe6;" horiz-adv-x="1804" 
d="M618 1106q205 0 320 -115q148 115 350 115q253 0 389 -168q128 -166 90 -416l-10 -67h-706q7 -87 53.5 -133t124.5 -46q67 0 117.5 32t76.5 91l301 -108q-67 -146 -207.5 -231t-312.5 -85q-273 0 -411 179q-63 -85 -165 -131t-229 -46q-182 0 -291.5 86.5t-109.5 229.5
q-2 174 150.5 275.5t416.5 101.5h135l5 28q6 50 -24 78t-91 29q-57 0 -90.5 -24.5t-50.5 -78.5l-363 60q51 162 191 253t341 91zM1270 817q-131 0 -191 -147h332q6 66 -33 106.5t-108 40.5zM375 346q0 -41 30 -64.5t80 -23.5q69 0 118.5 43t60.5 109l6 45h-117
q-84 0 -131 -29t-47 -80z" />
    <glyph glyph-name="ccedilla" unicode="&#xe7;" horiz-adv-x="1107" 
d="M707 -193q0 -82 -73.5 -134t-191.5 -52q-151 0 -249 82l110 139q48 -48 111 -51q61 0 61 39q0 44 -119 53l50 107q-168 41 -268.5 171.5t-100.5 309.5q0 127 43 243t123 204q167 188 434 188q185 0 313 -90q144 -107 166 -275l-352 -106q-8 75 -44 115.5t-97 40.5
q-91 0 -150 -84t-59 -213q0 -98 39.5 -150.5t111.5 -52.5q62 0 107 41t69 117l322 -113q-44 -160 -179 -257.5t-323 -103.5l-8 -16q72 -11 113 -51t41 -101z" />
    <glyph glyph-name="egrave" unicode="&#xe8;" horiz-adv-x="1161" 
d="M561 -25q-237 0 -383 134q-141 135 -141 358q0 130 43 247.5t123 203.5q173 188 440 188q253 0 389 -168q130 -164 92 -416l-10 -65h-708q7 -88 53.5 -134.5t126.5 -46.5q67 0 117.5 32t76.5 91l301 -108q-67 -146 -207.5 -231t-312.5 -85zM627 817q-63 0 -114 -38
t-77 -107h332q5 63 -34.5 104t-106.5 41zM778 1470l72 -313h-295l-215 313h438z" />
    <glyph glyph-name="eacute" unicode="&#xe9;" horiz-adv-x="1161" 
d="M561 -25q-237 0 -383 134q-141 135 -141 358q0 130 43 247.5t123 203.5q173 188 440 188q253 0 389 -168q130 -164 92 -416l-10 -65h-708q7 -88 53.5 -134.5t126.5 -46.5q67 0 117.5 32t76.5 91l301 -108q-67 -146 -207.5 -231t-312.5 -85zM627 817q-63 0 -114 -38
t-77 -107h332q5 63 -34.5 104t-106.5 41zM834 1157h-314l138 313h460z" />
    <glyph glyph-name="ecircumflex" unicode="&#xea;" horiz-adv-x="1161" 
d="M561 -25q-237 0 -383 134q-141 135 -141 358q0 130 43 247.5t123 203.5q173 188 440 188q253 0 389 -168q130 -164 92 -416l-10 -65h-708q7 -88 53.5 -134.5t126.5 -46.5q67 0 117.5 32t76.5 91l301 -108q-67 -146 -207.5 -231t-312.5 -85zM627 817q-63 0 -114 -38
t-77 -107h332q5 63 -34.5 104t-106.5 41zM536 1470h373l166 -313h-271l-102 94l-129 -94h-289z" />
    <glyph glyph-name="edieresis" unicode="&#xeb;" horiz-adv-x="1161" 
d="M561 -25q-237 0 -383 134q-141 135 -141 358q0 130 43 247.5t123 203.5q173 188 440 188q253 0 389 -168q130 -164 92 -416l-10 -65h-708q7 -88 53.5 -134.5t126.5 -46.5q67 0 117.5 32t76.5 91l301 -108q-67 -146 -207.5 -231t-312.5 -85zM627 817q-63 0 -114 -38
t-77 -107h332q5 63 -34.5 104t-106.5 41zM641 1167h-362l40 303h365zM1087 1167h-362l41 303h364z" />
    <glyph glyph-name="igrave" unicode="&#xec;" horiz-adv-x="571" 
d="M166 1081h389l-152 -1081h-389zM459 1470l71 -313h-294l-216 313h439z" />
    <glyph glyph-name="iacute" unicode="&#xed;" horiz-adv-x="571" 
d="M166 1081h389l-152 -1081h-389zM535 1157h-314l138 313h460z" />
    <glyph glyph-name="icircumflex" unicode="&#xee;" horiz-adv-x="571" 
d="M166 1081h389l-152 -1081h-389zM229 1470h373l166 -313h-271l-102 94l-129 -94h-289z" />
    <glyph glyph-name="idieresis" unicode="&#xef;" horiz-adv-x="571" 
d="M166 1081h389l-152 -1081h-389zM332 1167h-363l41 303h365zM778 1167h-362l41 303h364z" />
    <glyph glyph-name="eth" unicode="&#xf0;" horiz-adv-x="1187" 
d="M600 1075q83 0 137 -28q-30 65 -57 104l-399 -88l34 256l162 35q-51 41 -129 92l385 49q49 -33 84 -65l313 67l-36 -256l-90 -20q157 -232 157 -523q0 -301 -149 -501q-82 -108 -200 -165t-261 -57q-235 0 -374.5 137t-139.5 371q0 124 40.5 232t115.5 188q77 84 182 128
t225 44zM625 793q-90 0 -148.5 -85.5t-58.5 -215.5q0 -96 39 -149.5t108 -53.5q90 0 148.5 85.5t58.5 215.5q0 96 -39 149.5t-108 53.5z" />
    <glyph glyph-name="ntilde" unicode="&#xf1;" horiz-adv-x="1224" 
d="M403 0h-389l152 1081h389l-12 -96q51 57 130 89t167 32q168 0 256 -113t63 -299l-98 -694h-389l86 612q10 72 -18.5 111t-90.5 39q-66 0 -108 -45t-54 -129zM606 1493q60 0 145 -53q49 -35 76 -35q52 0 86 88h234q-25 -156 -98 -246t-177 -90q-36 0 -67 11.5t-80 43.5
q-53 33 -76 33q-57 0 -84 -88h-234q20 152 95.5 244t179.5 92z" />
    <glyph glyph-name="ograve" unicode="&#xf2;" horiz-adv-x="1187" 
d="M633 1106q237 0 377 -137q141 -138 141 -371q0 -128 -42.5 -242t-121.5 -200q-169 -181 -432 -181q-236 0 -377 138t-141 370q0 128 42.5 242.5t121.5 200.5q168 180 432 180zM623 793q-90 0 -147.5 -85.5t-57.5 -215.5q0 -96 40 -149.5t109 -53.5q90 0 147.5 85.5
t57.5 215.5q0 96 -40 149.5t-109 53.5zM764 1470l72 -313h-295l-215 313h438z" />
    <glyph glyph-name="oacute" unicode="&#xf3;" horiz-adv-x="1187" 
d="M633 1106q237 0 377 -137q141 -138 141 -371q0 -128 -42.5 -242t-121.5 -200q-169 -181 -432 -181q-236 0 -377 138t-141 370q0 128 42.5 242.5t121.5 200.5q168 180 432 180zM623 793q-90 0 -147.5 -85.5t-57.5 -215.5q0 -96 40 -149.5t109 -53.5q90 0 147.5 85.5
t57.5 215.5q0 96 -40 149.5t-109 53.5zM830 1157h-314l138 313h460z" />
    <glyph glyph-name="ocircumflex" unicode="&#xf4;" horiz-adv-x="1187" 
d="M633 1106q237 0 377 -137q141 -138 141 -371q0 -128 -42.5 -242t-121.5 -200q-169 -181 -432 -181q-236 0 -377 138t-141 370q0 128 42.5 242.5t121.5 200.5q168 180 432 180zM623 793q-90 0 -147.5 -85.5t-57.5 -215.5q0 -96 40 -149.5t109 -53.5q90 0 147.5 85.5
t57.5 215.5q0 96 -40 149.5t-109 53.5zM534 1470h373l166 -313h-271l-102 94l-129 -94h-289z" />
    <glyph glyph-name="otilde" unicode="&#xf5;" horiz-adv-x="1187" 
d="M633 1106q237 0 377 -137q141 -138 141 -371q0 -128 -42.5 -242t-121.5 -200q-169 -181 -432 -181q-236 0 -377 138t-141 370q0 128 42.5 242.5t121.5 200.5q168 180 432 180zM623 793q-90 0 -147.5 -85.5t-57.5 -215.5q0 -96 40 -149.5t109 -53.5q90 0 147.5 85.5
t57.5 215.5q0 96 -40 149.5t-109 53.5zM572 1493q60 0 145 -53q49 -35 76 -35q52 0 86 88h234q-25 -156 -98 -246t-177 -90q-36 0 -67 11.5t-80 43.5q-53 33 -76 33q-57 0 -84 -88h-234q20 152 95.5 244t179.5 92z" />
    <glyph glyph-name="odieresis" unicode="&#xf6;" horiz-adv-x="1187" 
d="M633 1106q237 0 377 -137q141 -138 141 -371q0 -128 -42.5 -242t-121.5 -200q-169 -181 -432 -181q-236 0 -377 138t-141 370q0 128 42.5 242.5t121.5 200.5q168 180 432 180zM623 793q-90 0 -147.5 -85.5t-57.5 -215.5q0 -96 40 -149.5t109 -53.5q90 0 147.5 85.5
t57.5 215.5q0 96 -40 149.5t-109 53.5zM637 1167h-363l41 303h365zM1083 1167h-362l41 303h364z" />
    <glyph glyph-name="divide" unicode="&#xf7;" 
d="M872 983h-376l49 363h379zM1184 565h-1114l43 295h1112zM745 80h-376l49 362h379z" />
    <glyph glyph-name="oslash" unicode="&#xf8;" horiz-adv-x="1187" 
d="M203 924q164 182 432 182q156 0 283 -68l118 121l164 -158l-119 -122q70 -113 70 -281q0 -127 -42.5 -241t-121.5 -201q-82 -88 -193.5 -134.5t-240.5 -46.5q-166 0 -285 70l-114 -117l-166 158l116 121q-67 125 -67 276q0 127 43 241.5t123 199.5zM627 834
q-104 0 -174 -101q-70 -98 -70 -241l319 325q-43 17 -75 17zM563 248q102 0 172 98q72 104 72 244v8l-324 -332q41 -18 80 -18z" />
    <glyph glyph-name="ugrave" unicode="&#xf9;" horiz-adv-x="1224" 
d="M821 1081h389l-151 -1081h-389l12 96q-49 -55 -129 -87t-168 -32q-170 0 -257 113t-62 299l96 692h391l-86 -610q-10 -72 18 -110.5t90 -38.5q66 0 108 44t54 128zM782 1470l72 -313h-295l-215 313h438z" />
    <glyph glyph-name="uacute" unicode="&#xfa;" horiz-adv-x="1224" 
d="M821 1081h389l-151 -1081h-389l12 96q-49 -55 -129 -87t-168 -32q-170 0 -257 113t-62 299l96 692h391l-86 -610q-10 -72 18 -110.5t90 -38.5q66 0 108 44t54 128zM854 1157h-314l138 313h460z" />
    <glyph glyph-name="ucircumflex" unicode="&#xfb;" horiz-adv-x="1224" 
d="M821 1081h389l-151 -1081h-389l12 96q-49 -55 -129 -87t-168 -32q-170 0 -257 113t-62 299l96 692h391l-86 -610q-10 -72 18 -110.5t90 -38.5q66 0 108 44t54 128zM555 1470h373l166 -313h-271l-102 94l-129 -94h-289z" />
    <glyph glyph-name="udieresis" unicode="&#xfc;" horiz-adv-x="1224" 
d="M821 1081h389l-151 -1081h-389l12 96q-49 -55 -129 -87t-168 -32q-170 0 -257 113t-62 299l96 692h391l-86 -610q-10 -72 18 -110.5t90 -38.5q66 0 108 44t54 128zM657 1167h-362l41 303h364zM1104 1167h-363l41 303h365z" />
    <glyph glyph-name="yacute" unicode="&#xfd;" horiz-adv-x="1146" 
d="M1225 1081l-535 -1048q-107 -210 -184 -287q-60 -65 -131 -93t-176 -28q-81 0 -181 17l43 295q57 -11 89 -11q50 0 81 19t52 61l20 45l-229 1030h385l106 -594l269 594h391zM821 1157h-314l138 313h460z" />
    <glyph glyph-name="thorn" unicode="&#xfe;" horiz-adv-x="1257" 
d="M1094 186q-72 -103 -171 -157t-214 -54q-93 0 -172 37t-117 99l-66 -465h-389l256 1824h389l-67 -489q47 60 120.5 92.5t161.5 32.5q180 0 289 -133t109 -350q0 -257 -129 -437zM676 778q-78 0 -129 -54.5t-64 -152.5l-6 -51q-13 -94 29.5 -155.5t120.5 -61.5
q88 0 145 80.5t57 202.5q0 92 -39.5 142t-113.5 50z" />
    <glyph glyph-name="ydieresis" unicode="&#xff;" horiz-adv-x="1146" 
d="M1225 1081l-535 -1048q-107 -210 -184 -287q-60 -65 -131 -93t-176 -28q-81 0 -181 17l43 295q57 -11 89 -11q50 0 81 19t52 61l20 45l-229 1030h385l106 -594l269 594h391zM631 1167h-363l41 303h365zM1077 1167h-363l41 303h365z" />
    <glyph glyph-name="Amacron" unicode="&#x100;" horiz-adv-x="1536" 
d="M-70 0l758 1470h463l303 -1470h-385l-53 266h-539l-135 -266h-412zM950 588l-88 440l-223 -440h311zM1346 1829l-41 -281h-779l39 281h781z" />
    <glyph glyph-name="amacron" unicode="&#x101;" horiz-adv-x="1169" 
d="M1108 283l-39 -281q-137 -32 -247 -7t-160 97q-112 -112 -304 -112q-161 0 -261.5 84.5t-100.5 220.5q0 155 123 251.5t346 116.5l240 27l2 18q8 50 -22 78t-93 29q-55 0 -88.5 -24.5t-52.5 -78.5l-363 60q54 163 196 253.5t347 90.5q233 0 358.5 -107.5t100.5 -287.5
l-52 -375q-6 -31 11 -44t59 -9zM487 252q73 0 121.5 36.5t55.5 98.5l8 62l-158 -19q-137 -15 -137 -102q0 -76 110 -76zM1053 1454l-39 -278h-703l39 278h703z" />
    <glyph glyph-name="Abreve" unicode="&#x102;" horiz-adv-x="1536" 
d="M-70 0l758 1470h463l303 -1470h-385l-53 266h-539l-135 -266h-412zM950 588l-88 440l-223 -440h311zM958 1788q47 0 80 30t41 80h273q-23 -172 -129 -265t-279 -93q-169 0 -272 92q-54 50 -78 119t-14 147h276q0 -50 27.5 -80t74.5 -30z" />
    <glyph glyph-name="abreve" unicode="&#x103;" horiz-adv-x="1169" 
d="M1108 283l-39 -281q-137 -32 -247 -7t-160 97q-112 -112 -304 -112q-161 0 -261.5 84.5t-100.5 220.5q0 155 123 251.5t346 116.5l240 27l2 18q8 50 -22 78t-93 29q-55 0 -88.5 -24.5t-52.5 -78.5l-363 60q54 163 196 253.5t347 90.5q233 0 358.5 -107.5t100.5 -287.5
l-52 -375q-6 -31 11 -44t59 -9zM487 252q73 0 121.5 36.5t55.5 98.5l8 62l-158 -19q-137 -15 -137 -102q0 -76 110 -76zM708 1384q41 0 70 23.5t37 62.5h262q-20 -154 -117.5 -235.5t-261.5 -81.5q-170 0 -261.5 84t-84.5 233h260q2 -38 28.5 -62t67.5 -24z" />
    <glyph glyph-name="Aogonek" unicode="&#x104;" horiz-adv-x="1536" 
d="M1085 -371q-103 0 -165 48.5t-62 129.5q0 72 51 136.5t148 113.5l-41 209h-539l-135 -266h-412l758 1470h463l303 -1470h-215q-131 -55 -131 -115q0 -47 66 -47q24 0 73 12l-28 -204q-83 -17 -134 -17zM950 588l-88 440l-223 -440h311z" />
    <glyph glyph-name="aogonek" unicode="&#x105;" horiz-adv-x="1169" 
d="M864 -371q-103 0 -165 48.5t-62 129.5q0 116 127 205q-61 23 -102 80q-112 -112 -304 -112q-161 0 -261.5 84.5t-100.5 220.5q0 155 123 251.5t346 116.5l240 27l2 18q8 50 -22 78t-93 29q-55 0 -88.5 -24.5t-52.5 -78.5l-363 60q54 163 196 253.5t347 90.5
q233 0 358.5 -107.5t100.5 -287.5l-52 -375q-6 -31 11 -44t59 -9l-39 -281q-7 -2 -78 -14q-104 -47 -104 -103q0 -47 65 -47q25 0 74 12l-29 -204q-83 -17 -133 -17zM487 252q73 0 121.5 36.5t55.5 98.5l8 62l-158 -19q-137 -15 -137 -102q0 -76 110 -76z" />
    <glyph glyph-name="Cacute" unicode="&#x106;" horiz-adv-x="1390" 
d="M549 983q-82 -141 -82 -317q0 -158 69.5 -250t186.5 -92q198 0 283 231l356 -141q-91 -214 -258.5 -326.5t-394.5 -112.5q-293 0 -473 189q-173 185 -173 481q0 166 55 320t158 272q109 125 255.5 191.5t312.5 66.5q241 0 402 -129t198 -352l-381 -107q-17 115 -81 177.5
t-163 62.5q-81 0 -150.5 -42.5t-119.5 -121.5zM1049 1542h-336l180 342h516z" />
    <glyph glyph-name="cacute" unicode="&#x107;" horiz-adv-x="1107" 
d="M623 791q-91 0 -150 -84t-59 -213q0 -98 39.5 -150.5t111.5 -52.5q62 0 107 41t69 117l322 -113q-46 -162 -189 -262q-138 -99 -337 -99q-106 0 -198.5 36t-160.5 104q-141 138 -141 356q0 127 43 243t123 204q167 188 434 188q185 0 313 -90q144 -107 166 -275
l-352 -106q-8 75 -44 115.5t-97 40.5zM821 1157h-313l137 313h461z" />
    <glyph glyph-name="Ccircumflex" unicode="&#x108;" horiz-adv-x="1390" 
d="M549 983q-82 -141 -82 -317q0 -158 69.5 -250t186.5 -92q198 0 283 231l356 -141q-91 -214 -258.5 -326.5t-394.5 -112.5q-293 0 -473 189q-173 185 -173 481q0 166 55 320t158 272q109 125 255.5 191.5t312.5 66.5q241 0 402 -129t198 -352l-381 -107q-17 115 -81 177.5
t-163 62.5q-81 0 -150.5 -42.5t-119.5 -121.5zM750 1884h380l187 -342h-273l-124 121l-160 -121h-293z" />
    <glyph glyph-name="ccircumflex" unicode="&#x109;" horiz-adv-x="1107" 
d="M623 791q-91 0 -150 -84t-59 -213q0 -98 39.5 -150.5t111.5 -52.5q62 0 107 41t69 117l322 -113q-46 -162 -189 -262q-138 -99 -337 -99q-106 0 -198.5 36t-160.5 104q-141 138 -141 356q0 127 43 243t123 204q167 188 434 188q185 0 313 -90q144 -107 166 -275
l-352 -106q-8 75 -44 115.5t-97 40.5zM530 1470h373l166 -313h-271l-102 94l-129 -94h-289z" />
    <glyph glyph-name="Cdotaccent" unicode="&#x10a;" horiz-adv-x="1390" 
d="M549 983q-82 -141 -82 -317q0 -158 69.5 -250t186.5 -92q198 0 283 231l356 -141q-91 -214 -258.5 -326.5t-394.5 -112.5q-293 0 -473 189q-173 185 -173 481q0 166 55 320t158 272q109 125 255.5 191.5t312.5 66.5q241 0 402 -129t198 -352l-381 -107q-17 115 -81 177.5
t-163 62.5q-81 0 -150.5 -42.5t-119.5 -121.5zM1087 1542h-395l47 326h394z" />
    <glyph glyph-name="cdotaccent" unicode="&#x10b;" horiz-adv-x="1107" 
d="M623 791q-91 0 -150 -84t-59 -213q0 -98 39.5 -150.5t111.5 -52.5q62 0 107 41t69 117l322 -113q-46 -162 -189 -262q-138 -99 -337 -99q-106 0 -198.5 36t-160.5 104q-141 138 -141 356q0 127 43 243t123 204q167 188 434 188q185 0 313 -90q144 -107 166 -275
l-352 -106q-8 75 -44 115.5t-97 40.5zM868 1167h-391l41 303h393z" />
    <glyph glyph-name="Ccaron" unicode="&#x10c;" horiz-adv-x="1390" 
d="M549 983q-82 -141 -82 -317q0 -158 69.5 -250t186.5 -92q198 0 283 231l356 -141q-91 -214 -258.5 -326.5t-394.5 -112.5q-293 0 -473 189q-173 185 -173 481q0 166 55 320t158 272q109 125 255.5 191.5t312.5 66.5q241 0 402 -129t198 -352l-381 -107q-17 115 -81 177.5
t-163 62.5q-81 0 -150.5 -42.5t-119.5 -121.5zM1362 1884l-281 -342h-383l-184 342h272l125 -121l160 121h291z" />
    <glyph glyph-name="ccaron" unicode="&#x10d;" horiz-adv-x="1107" 
d="M623 791q-91 0 -150 -84t-59 -213q0 -98 39.5 -150.5t111.5 -52.5q62 0 107 41t69 117l322 -113q-46 -162 -189 -262q-138 -99 -337 -99q-106 0 -198.5 36t-160.5 104q-141 138 -141 356q0 127 43 243t123 204q167 188 434 188q185 0 313 -90q144 -107 166 -275
l-352 -106q-8 75 -44 115.5t-97 40.5zM1116 1470l-252 -313h-375l-163 313h270l100 -94l131 94h289z" />
    <glyph glyph-name="Dcaron" unicode="&#x10e;" horiz-adv-x="1443" 
d="M639 0h-614l206 1470h504q331 0 516 -169t185 -470q0 -173 -55.5 -324.5t-159.5 -264.5q-222 -242 -582 -242zM575 1133l-110 -795h174q180 0 291 129q110 131 110 338q0 156 -84 242t-237 86h-144zM1278 1884l-281 -342h-383l-184 342h272l125 -121l160 121h291z" />
    <glyph glyph-name="dcaron" unicode="&#x10f;" horiz-adv-x="1626" 
d="M432 -23q-183 0 -290 131t-107 351q0 255 127 436q72 103 171 157t214 54q94 0 172 -36t119 -99l69 499h389l-206 -1470h-390l15 102q-103 -125 -283 -125zM772 510l8 51q12 97 -29.5 157t-119.5 60q-90 0 -146.5 -79t-56.5 -203q0 -92 39.5 -141.5t112.5 -49.5
q80 0 130 53.5t62 151.5zM1585 1118h-266l84 352h401z" />
    <glyph glyph-name="Dcroat" unicode="&#x110;" horiz-adv-x="1478" 
d="M674 0h-615l82 575h-110l47 340h110l78 555h504q331 0 515.5 -169t184.5 -470q0 -173 -55.5 -324.5t-159.5 -264.5q-222 -242 -581 -242zM532 575l-32 -237h174q180 0 291 129q110 131 110 338q0 156 -84 242t-237 86h-144l-30 -218h208l-47 -340h-209z" />
    <glyph glyph-name="dslash" unicode="&#x111;" horiz-adv-x="1261" 
d="M432 -23q-183 0 -290 131t-107 351q0 255 127 436q72 103 171 157t214 54q94 0 172 -36t119 -99l24 178h-217l37 242h215l10 79h389l-10 -79h94l-34 -242h-95l-161 -1149h-390l15 102q-103 -125 -283 -125zM772 510l8 51q12 97 -29.5 157t-119.5 60q-90 0 -146.5 -79
t-56.5 -203q0 -92 39.5 -141.5t112.5 -49.5q80 0 130 53.5t62 151.5z" />
    <glyph glyph-name="Emacron" unicode="&#x112;" horiz-adv-x="1236" 
d="M25 0l206 1470h1072l-50 -340h-675l-31 -219h561l-47 -331h-561l-33 -240h676l-47 -340h-1071zM1212 1829l-41 -281h-778l39 281h780z" />
    <glyph glyph-name="emacron" unicode="&#x113;" horiz-adv-x="1161" 
d="M561 -25q-237 0 -383 134q-141 135 -141 358q0 130 43 247.5t123 203.5q173 188 440 188q253 0 389 -168q130 -164 92 -416l-10 -65h-708q7 -88 53.5 -134.5t126.5 -46.5q67 0 117.5 32t76.5 91l301 -108q-67 -146 -207.5 -231t-312.5 -85zM627 817q-63 0 -114 -38
t-77 -107h332q5 63 -34.5 104t-106.5 41zM1077 1454l-39 -278h-702l39 278h702z" />
    <glyph glyph-name="Ebreve" unicode="&#x114;" horiz-adv-x="1236" 
d="M25 0l206 1470h1072l-50 -340h-675l-31 -219h561l-47 -331h-561l-33 -240h676l-47 -340h-1071zM829 1788q47 0 80 30t41 80h273q-23 -172 -129 -265t-279 -93q-169 0 -272 92q-54 50 -78 119t-14 147h276q0 -50 27.5 -80t74.5 -30z" />
    <glyph glyph-name="ebreve" unicode="&#x115;" horiz-adv-x="1161" 
d="M561 -25q-237 0 -383 134q-141 135 -141 358q0 130 43 247.5t123 203.5q173 188 440 188q253 0 389 -168q130 -164 92 -416l-10 -65h-708q7 -88 53.5 -134.5t126.5 -46.5q67 0 117.5 32t76.5 91l301 -108q-67 -146 -207.5 -231t-312.5 -85zM627 817q-63 0 -114 -38
t-77 -107h332q5 63 -34.5 104t-106.5 41zM716 1384q41 0 70 23.5t37 62.5h262q-20 -154 -117.5 -235.5t-261.5 -81.5q-170 0 -261.5 84t-84.5 233h260q2 -38 28.5 -62t67.5 -24z" />
    <glyph glyph-name="Edotaccent" unicode="&#x116;" horiz-adv-x="1236" 
d="M25 0l206 1470h1072l-50 -340h-675l-31 -219h561l-47 -331h-561l-33 -240h676l-47 -340h-1071zM987 1542h-395l47 326h393z" />
    <glyph glyph-name="edotaccent" unicode="&#x117;" horiz-adv-x="1161" 
d="M561 -25q-237 0 -383 134q-141 135 -141 358q0 130 43 247.5t123 203.5q173 188 440 188q253 0 389 -168q130 -164 92 -416l-10 -65h-708q7 -88 53.5 -134.5t126.5 -46.5q67 0 117.5 32t76.5 91l301 -108q-67 -146 -207.5 -231t-312.5 -85zM627 817q-63 0 -114 -38
t-77 -107h332q5 63 -34.5 104t-106.5 41zM872 1167h-391l41 303h393z" />
    <glyph glyph-name="Eogonek" unicode="&#x118;" horiz-adv-x="1236" 
d="M805 -371q-103 0 -165 48.5t-62 129.5q0 107 108 193h-661l206 1470h1072l-50 -340h-675l-31 -219h561l-47 -331h-561l-33 -240h676l-47 -340h-138q-131 -55 -131 -115q0 -47 66 -47q25 0 74 12l-29 -204q-83 -17 -133 -17z" />
    <glyph glyph-name="eogonek" unicode="&#x119;" horiz-adv-x="1161" 
d="M569 -371q-103 0 -165 48.5t-62 129.5q0 99 92 179q-186 35 -291.5 163t-105.5 318q0 130 43 247.5t123 203.5q173 188 440 188q253 0 389 -168q130 -164 92 -416l-10 -65h-708q7 -88 53.5 -134.5t126.5 -46.5q67 0 117.5 32t76.5 91l301 -108q-54 -113 -151.5 -190.5
t-224.5 -108.5q-55 -24 -84 -52t-29 -55q0 -47 65 -47q25 0 74 12l-29 -204q-83 -17 -133 -17zM627 817q-63 0 -114 -38t-77 -107h332q5 63 -34.5 104t-106.5 41z" />
    <glyph glyph-name="Ecaron" unicode="&#x11a;" horiz-adv-x="1236" 
d="M25 0l206 1470h1072l-50 -340h-675l-31 -219h561l-47 -331h-561l-33 -240h676l-47 -340h-1071zM1264 1884l-281 -342h-383l-184 342h272l125 -121l160 121h291z" />
    <glyph glyph-name="ecaron" unicode="&#x11b;" horiz-adv-x="1161" 
d="M561 -25q-237 0 -383 134q-141 135 -141 358q0 130 43 247.5t123 203.5q173 188 440 188q253 0 389 -168q130 -164 92 -416l-10 -65h-708q7 -88 53.5 -134.5t126.5 -46.5q67 0 117.5 32t76.5 91l301 -108q-67 -146 -207.5 -231t-312.5 -85zM627 817q-63 0 -114 -38
t-77 -107h332q5 63 -34.5 104t-106.5 41zM1120 1470l-252 -313h-374l-164 313h270l100 -94l131 94h289z" />
    <glyph glyph-name="Gcircumflex" unicode="&#x11c;" horiz-adv-x="1513" 
d="M1343 0h-344l17 119q-51 -68 -144 -106t-208 -38q-134 0 -249 50.5t-196 146.5q-158 185 -158 467q0 169 57.5 325t162.5 275q110 125 258.5 190.5t320.5 65.5q241 0 406 -127q159 -123 200 -342l-379 -106q-13 105 -82 166t-174 61q-82 0 -154.5 -42t-123.5 -120
q-90 -139 -90 -319q0 -164 74.5 -258.5t203.5 -94.5q92 0 166 52t109 143h-285l45 317h684zM750 1884h380l187 -342h-273l-124 121l-160 -121h-293z" />
    <glyph glyph-name="gcircumflex" unicode="&#x11d;" horiz-adv-x="1267" 
d="M1253 1081l-135 -956q-32 -246 -193 -375t-433 -129q-217 0 -356.5 88t-170.5 246l375 63q17 -54 65 -83t117 -29q85 0 138 49t65 139l10 58q-42 -52 -113.5 -81.5t-158.5 -29.5q-189 0 -303 123q-113 125 -113 332q0 244 133 415q72 94 169.5 144.5t209.5 50.5
q96 0 172.5 -34.5t118.5 -94.5l14 104h389zM793 551l4 41q12 90 -30 145.5t-120 55.5q-88 0 -143 -73.5t-55 -189.5q0 -86 39 -132t112 -46q78 0 128.5 52.5t64.5 146.5zM602 1470h373l166 -313h-271l-102 94l-129 -94h-289z" />
    <glyph glyph-name="Gbreve" unicode="&#x11e;" horiz-adv-x="1513" 
d="M1343 0h-344l17 119q-51 -68 -144 -106t-208 -38q-134 0 -249 50.5t-196 146.5q-158 185 -158 467q0 169 57.5 325t162.5 275q110 125 258.5 190.5t320.5 65.5q241 0 406 -127q159 -123 200 -342l-379 -106q-13 105 -82 166t-174 61q-82 0 -154.5 -42t-123.5 -120
q-90 -139 -90 -319q0 -164 74.5 -258.5t203.5 -94.5q92 0 166 52t109 143h-285l45 317h684zM936 1788q47 0 80 30t41 80h272q-23 -172 -128.5 -265t-278.5 -93q-170 0 -273 92q-54 50 -78 119t-14 147h277q0 -50 27.5 -80t74.5 -30z" />
    <glyph glyph-name="gbreve" unicode="&#x11f;" horiz-adv-x="1267" 
d="M1253 1081l-135 -956q-32 -246 -193 -375t-433 -129q-217 0 -356.5 88t-170.5 246l375 63q17 -54 65 -83t117 -29q85 0 138 49t65 139l10 58q-42 -52 -113.5 -81.5t-158.5 -29.5q-189 0 -303 123q-113 125 -113 332q0 244 133 415q72 94 169.5 144.5t209.5 50.5
q96 0 172.5 -34.5t118.5 -94.5l14 104h389zM793 551l4 41q12 90 -30 145.5t-120 55.5q-88 0 -143 -73.5t-55 -189.5q0 -86 39 -132t112 -46q78 0 128.5 52.5t64.5 146.5zM784 1384q41 0 70 23.5t37 62.5h262q-20 -154 -117.5 -235.5t-261.5 -81.5q-170 0 -261.5 84
t-84.5 233h260q2 -38 28.5 -62t67.5 -24z" />
    <glyph glyph-name="Gdotaccent" unicode="&#x120;" horiz-adv-x="1513" 
d="M1343 0h-344l17 119q-51 -68 -144 -106t-208 -38q-134 0 -249 50.5t-196 146.5q-158 185 -158 467q0 169 57.5 325t162.5 275q110 125 258.5 190.5t320.5 65.5q241 0 406 -127q159 -123 200 -342l-379 -106q-13 105 -82 166t-174 61q-82 0 -154.5 -42t-123.5 -120
q-90 -139 -90 -319q0 -164 74.5 -258.5t203.5 -94.5q92 0 166 52t109 143h-285l45 317h684zM1087 1542h-395l47 326h394z" />
    <glyph glyph-name="gdotaccent" unicode="&#x121;" horiz-adv-x="1267" 
d="M1253 1081l-135 -956q-32 -246 -193 -375t-433 -129q-217 0 -356.5 88t-170.5 246l375 63q17 -54 65 -83t117 -29q85 0 138 49t65 139l10 58q-42 -52 -113.5 -81.5t-158.5 -29.5q-189 0 -303 123q-113 125 -113 332q0 244 133 415q72 94 169.5 144.5t209.5 50.5
q96 0 172.5 -34.5t118.5 -94.5l14 104h389zM793 551l4 41q12 90 -30 145.5t-120 55.5q-88 0 -143 -73.5t-55 -189.5q0 -86 39 -132t112 -46q78 0 128.5 52.5t64.5 146.5zM948 1167h-391l41 303h393z" />
    <glyph glyph-name="Gcommaaccent" unicode="&#x122;" horiz-adv-x="1513" 
d="M1343 0h-344l17 119q-51 -68 -144 -106t-208 -38q-134 0 -249 50.5t-196 146.5q-158 185 -158 467q0 169 57.5 325t162.5 275q110 125 258.5 190.5t320.5 65.5q241 0 406 -127q159 -123 200 -342l-379 -106q-13 105 -82 166t-174 61q-82 0 -154.5 -42t-123.5 -120
q-90 -139 -90 -319q0 -164 74.5 -258.5t203.5 -94.5q92 0 166 52t109 143h-285l45 317h684zM567 -260h-129l29 199h387l-14 -113q-40 -300 -430 -285l18 133q124 -3 139 66z" />
    <glyph glyph-name="gcommaaccent" unicode="&#x123;" horiz-adv-x="1267" 
d="M1253 1081l-135 -956q-32 -246 -193 -375t-433 -129q-217 0 -356.5 88t-170.5 246l375 63q17 -54 65 -83t117 -29q85 0 138 49t65 139l10 58q-42 -52 -113.5 -81.5t-158.5 -29.5q-189 0 -303 123q-113 125 -113 332q0 244 133 415q72 94 169.5 144.5t209.5 50.5
q96 0 172.5 -34.5t118.5 -94.5l14 104h389zM793 551l4 41q12 90 -30 145.5t-120 55.5q-88 0 -143 -73.5t-55 -189.5q0 -86 39 -132t112 -46q78 0 128.5 52.5t64.5 146.5zM840 1356h129l-29 -199h-387l14 113q40 299 430 284l-18 -133q-125 3 -139 -65z" />
    <glyph glyph-name="Hcircumflex" unicode="&#x124;" horiz-adv-x="1521" 
d="M1073 915l78 555h401l-206 -1470h-402l82 578h-518l-82 -578h-401l206 1470h402l-80 -555h520zM762 1884h381l186 -342h-272l-125 121l-160 -121h-293z" />
    <glyph glyph-name="hcircumflex" unicode="&#x125;" horiz-adv-x="1224" 
d="M403 0h-389l207 1470h389l-67 -485q51 57 130 89t167 32q168 0 256 -113t63 -299l-98 -694h-389l86 612q10 72 -18.5 111t-90.5 39q-66 0 -108 -45t-54 -129zM618 1909h381l187 -342h-273l-125 121l-159 -121h-293z" />
    <glyph glyph-name="Hbar" unicode="&#x126;" horiz-adv-x="1562" 
d="M1636 1241l-49 -338h-94l-127 -903h-401l55 397h-518l-56 -397h-401l127 903h-96l49 338h94l33 229h401l-32 -229h518l32 229h402l-33 -229h96zM573 903l-24 -168h518l25 168h-519z" />
    <glyph glyph-name="hbar" unicode="&#x127;" horiz-adv-x="1230" 
d="M410 0h-390l162 1149h-94l35 242h94l10 79h389l-10 -79h215l-35 -242h-215l-22 -164q51 57 130 89t167 32q168 0 256 -113t63 -299l-98 -694h-389l86 612q10 72 -18.5 111t-90.5 39q-66 0 -107.5 -44.5t-53.5 -129.5z" />
    <glyph glyph-name="Itilde" unicode="&#x128;" horiz-adv-x="602" 
d="M231 1470h402l-207 -1470h-401zM319 1925q39 0 75.5 -12t90.5 -47q61 -37 93 -37q33 0 57.5 24.5t36.5 71.5h254q-23 -175 -107 -279t-205 -104q-39 0 -74.5 12.5t-90.5 47.5q-63 38 -95 38q-33 0 -57.5 -25.5t-34.5 -72.5h-254q23 175 106.5 279t204.5 104z" />
    <glyph glyph-name="itilde" unicode="&#x129;" horiz-adv-x="571" 
d="M166 1081h389l-152 -1081h-389zM262 1493q60 0 145 -53q49 -35 76 -35q52 0 86 88h234q-25 -156 -98 -246t-177 -90q-36 0 -67 11.5t-80 43.5q-53 33 -76 33q-57 0 -84 -88h-234q20 152 95.5 244t179.5 92z" />
    <glyph glyph-name="Imacron" unicode="&#x12a;" horiz-adv-x="602" 
d="M231 1470h402l-207 -1470h-401zM870 1829l-41 -281h-778l39 281h780z" />
    <glyph glyph-name="imacron" unicode="&#x12b;" horiz-adv-x="571" 
d="M166 1081h389l-152 -1081h-389zM764 1454l-39 -278h-702l38 278h703z" />
    <glyph glyph-name="Ibreve" unicode="&#x12c;" horiz-adv-x="602" 
d="M231 1470h402l-207 -1470h-401zM483 1788q47 0 80 30t41 80h273q-23 -172 -129 -265t-279 -93q-169 0 -272 92q-54 50 -78.5 119.5t-14.5 146.5h277q0 -50 27.5 -80t74.5 -30z" />
    <glyph glyph-name="ibreve" unicode="&#x12d;" horiz-adv-x="571" 
d="M166 1081h389l-152 -1081h-389zM409 1384q41 0 70 23.5t37 62.5h262q-20 -154 -117.5 -235.5t-261.5 -81.5q-170 0 -261.5 84t-84.5 233h260q2 -38 28.5 -62t67.5 -24z" />
    <glyph glyph-name="Iogonek" unicode="&#x12e;" horiz-adv-x="602" 
d="M236 -371q-103 0 -165.5 48.5t-62.5 129.5q0 107 109 193h-92l206 1470h402l-207 -1470h-37q-131 -55 -131 -115q0 -47 66 -47q24 0 73 12l-28 -204q-83 -17 -133 -17z" />
    <glyph glyph-name="iogonek" unicode="&#x12f;" horiz-adv-x="571" 
d="M571 1167h-393l43 303h391zM217 -371q-103 0 -165 48.5t-62 129.5q0 107 108 193h-84l152 1081h389l-152 -1081h-32q-131 -55 -131 -115q0 -47 65 -47q25 0 74 12l-29 -204q-83 -17 -133 -17z" />
    <glyph glyph-name="Idot" unicode="&#x130;" horiz-adv-x="602" 
d="M231 1470h402l-207 -1470h-401zM637 1542h-395l47 326h393z" />
    <glyph glyph-name="dotlessi" unicode="&#x131;" horiz-adv-x="571" 
d="M166 1081h389l-152 -1081h-389z" />
    <glyph glyph-name="Jcircumflex" unicode="&#x134;" horiz-adv-x="851" 
d="M201 -10q-112 0 -232 20l47 340q85 -16 146 -16q98 0 143.5 41t59.5 141l135 954l401 3l-145 -1029q-32 -233 -167 -343.5t-388 -110.5zM559 1884h381l186 -342h-272l-125 121l-160 -121h-293z" />
    <glyph glyph-name="jcircumflex" unicode="&#x135;" horiz-adv-x="571" 
d="M18 27l148 1054h389l-149 -1069q-32 -239 -180.5 -328t-432.5 -40l41 284q101 -17 137 3.5t47 95.5zM221 1470h373l166 -313h-271l-102 94l-129 -94h-289z" />
    <glyph glyph-name="Kcommaaccent" unicode="&#x136;" horiz-adv-x="1441" 
d="M231 1470h402l-80 -573l524 573h477l-591 -606l423 -864h-446l-274 557l-189 -190l-51 -367h-401zM565 -260h-129l29 199h387l-14 -113q-40 -300 -430 -285l18 133q124 -3 139 66z" />
    <glyph glyph-name="kcommaaccent" unicode="&#x137;" horiz-adv-x="1236" 
d="M221 1470h389l-100 -708l324 319h460l-430 -395l305 -686h-421l-187 406l-115 -107l-43 -299h-389zM432 -260h-129l29 199h387l-14 -113q-40 -300 -431 -285l19 133q124 -3 139 66z" />
    <glyph glyph-name="kgreenlandic" unicode="&#x138;" horiz-adv-x="1236" 
d="M166 1081h389l-45 -319l324 319h460l-430 -395l305 -686h-421l-187 406l-117 -107l-41 -299h-389z" />
    <glyph glyph-name="Lacute" unicode="&#x139;" horiz-adv-x="1167" 
d="M1059 0h-1034l206 1470h402l-160 -1130h633zM614 1542h-335l180 342h516z" />
    <glyph glyph-name="lacute" unicode="&#x13a;" horiz-adv-x="563" 
d="M590 1542h-336l180 342h516zM221 1470h389l-207 -1470h-389z" />
    <glyph glyph-name="Lcommaaccent" unicode="&#x13b;" horiz-adv-x="1167" 
d="M1059 0h-1034l206 1470h402l-160 -1130h633zM449 -260h-130l29 199h387l-14 -113q-40 -300 -430 -285l18 133q125 -3 140 66z" />
    <glyph glyph-name="lcommaaccent" unicode="&#x13c;" horiz-adv-x="571" 
d="M221 1470h389l-207 -1470h-389zM109 -260h-129l28 199h387l-14 -113q-40 -300 -430 -285l18 133q125 -3 140 66z" />
    <glyph glyph-name="Lcaron" unicode="&#x13d;" horiz-adv-x="1167" 
d="M1059 0h-1034l206 1470h402l-160 -1130h633zM1018 1118h-266l84 352h401z" />
    <glyph glyph-name="lcaron" unicode="&#x13e;" horiz-adv-x="940" 
d="M221 1470h389l-207 -1470h-389zM899 1118h-266l84 352h401z" />
    <glyph glyph-name="Ldot" unicode="&#x13f;" horiz-adv-x="1167" 
d="M1059 0h-1034l206 1470h402l-160 -1130h633zM1096 641h-391l40 303h394z" />
    <glyph glyph-name="ldot" unicode="&#x140;" horiz-adv-x="1024" 
d="M221 1470h389l-207 -1470h-389zM983 522h-391l41 303h393z" />
    <glyph glyph-name="Lslash" unicode="&#x141;" horiz-adv-x="1187" 
d="M1079 0h-1034l66 463l-101 -35l49 346l101 35l92 661h401l-71 -512l295 105l-50 -346l-295 -105l-38 -272h632z" />
    <glyph glyph-name="lslash" unicode="&#x142;" horiz-adv-x="653" 
d="M721 1104l-45 -318l-131 -69l-101 -717h-389l74 530l-127 -67l45 317l127 68l88 622h389l-61 -436z" />
    <glyph glyph-name="Nacute" unicode="&#x143;" horiz-adv-x="1517" 
d="M1165 1470h383l-207 -1470h-340l-471 874l-122 -874h-383l206 1470h387l431 -831zM1010 1542h-336l180 342h516z" />
    <glyph glyph-name="nacute" unicode="&#x144;" horiz-adv-x="1224" 
d="M403 0h-389l152 1081h389l-12 -96q51 57 130 89t167 32q168 0 256 -113t63 -299l-98 -694h-389l86 612q10 72 -18.5 111t-90.5 39q-66 0 -108 -45t-54 -129zM821 1157h-314l138 313h460z" />
    <glyph glyph-name="Ncommaaccent" unicode="&#x145;" horiz-adv-x="1517" 
d="M1165 1470h383l-207 -1470h-340l-471 874l-122 -874h-383l206 1470h387l431 -831zM582 -260h-129l28 199h387l-14 -113q-40 -300 -430 -285l18 133q125 -3 140 66z" />
    <glyph glyph-name="ncommaaccent" unicode="&#x146;" horiz-adv-x="1224" 
d="M403 0h-389l152 1081h389l-12 -96q51 57 130 89t167 32q168 0 256 -113t63 -299l-98 -694h-389l86 612q10 72 -18.5 111t-90.5 39q-66 0 -108 -45t-54 -129zM446 -260h-129l29 199h387l-14 -113q-40 -300 -430 -285l18 133q124 -3 139 66z" />
    <glyph glyph-name="Ncaron" unicode="&#x147;" horiz-adv-x="1517" 
d="M1165 1470h383l-207 -1470h-340l-471 874l-122 -874h-383l206 1470h387l431 -831zM1364 1884l-281 -342h-383l-184 342h272l125 -121l160 121h291z" />
    <glyph glyph-name="ncaron" unicode="&#x148;" horiz-adv-x="1224" 
d="M403 0h-389l152 1081h389l-12 -96q51 57 130 89t167 32q168 0 256 -113t63 -299l-98 -694h-389l86 612q10 72 -18.5 111t-90.5 39q-66 0 -108 -45t-54 -129zM1143 1470l-252 -313h-375l-164 313h271l100 -94l131 94h289z" />
    <glyph glyph-name="Eng" unicode="&#x14a;" horiz-adv-x="1517" 
d="M1051 657l112 813h385l-205 -1458q-29 -199 -135.5 -292t-308.5 -93q-76 0 -170 17l39 278q34 -10 76 -10q51 0 76.5 21.5t31.5 70.5l11 64l-435 796l-120 -864h-383l206 1470h385z" />
    <glyph glyph-name="eng" unicode="&#x14b;" horiz-adv-x="1224" 
d="M676 27l82 585q10 72 -18.5 111t-90.5 39q-66 0 -108 -45t-54 -129l-84 -588h-389l152 1081h389l-12 -96q51 57 130 89t167 32q168 0 256 -113t63 -299l-96 -682q-32 -239 -180 -328t-432 -40l41 284q101 -17 137 3.5t47 95.5z" />
    <glyph glyph-name="Omacron" unicode="&#x14c;" horiz-adv-x="1517" 
d="M244 162q-181 190 -181 487q0 166 55 320t158 272q109 124 254.5 189t315.5 65q297 0 483 -186q180 -186 180 -488q0 -166 -55 -320t-158 -272q-109 -124 -254.5 -189t-314.5 -65q-296 0 -483 187zM1020 485q86 131 86 318q0 159 -74.5 251.5t-202.5 92.5
q-170 0 -276 -162q-86 -131 -86 -317q0 -160 74 -252t202 -92q172 0 277 161zM1337 1829l-41 -281h-778l39 281h780z" />
    <glyph glyph-name="omacron" unicode="&#x14d;" horiz-adv-x="1187" 
d="M633 1106q237 0 377 -137q141 -138 141 -371q0 -128 -42.5 -242t-121.5 -200q-169 -181 -432 -181q-236 0 -377 138t-141 370q0 128 42.5 242.5t121.5 200.5q168 180 432 180zM623 793q-90 0 -147.5 -85.5t-57.5 -215.5q0 -96 40 -149.5t109 -53.5q90 0 147.5 85.5
t57.5 215.5q0 96 -40 149.5t-109 53.5zM1065 1454l-39 -278h-702l38 278h703z" />
    <glyph glyph-name="Obreve" unicode="&#x14e;" horiz-adv-x="1517" 
d="M244 162q-181 190 -181 487q0 166 55 320t158 272q109 124 254.5 189t315.5 65q297 0 483 -186q180 -186 180 -488q0 -166 -55 -320t-158 -272q-109 -124 -254.5 -189t-314.5 -65q-296 0 -483 187zM1020 485q86 131 86 318q0 159 -74.5 251.5t-202.5 92.5
q-170 0 -276 -162q-86 -131 -86 -317q0 -160 74 -252t202 -92q172 0 277 161zM950 1788q47 0 80 30t41 80h272q-23 -172 -128.5 -265t-278.5 -93q-169 0 -272 92q-54 50 -78.5 119.5t-14.5 146.5h277q0 -50 27.5 -80t74.5 -30z" />
    <glyph glyph-name="obreve" unicode="&#x14f;" horiz-adv-x="1187" 
d="M633 1106q237 0 377 -137q141 -138 141 -371q0 -128 -42.5 -242t-121.5 -200q-169 -181 -432 -181q-236 0 -377 138t-141 370q0 128 42.5 242.5t121.5 200.5q168 180 432 180zM623 793q-90 0 -147.5 -85.5t-57.5 -215.5q0 -96 40 -149.5t109 -53.5q90 0 147.5 85.5
t57.5 215.5q0 96 -40 149.5t-109 53.5zM719 1384q41 0 70 23.5t37 62.5h262q-20 -154 -117.5 -235.5t-261.5 -81.5q-170 0 -261.5 84t-84.5 233h260q2 -38 28.5 -62t67.5 -24z" />
    <glyph glyph-name="Ohungarumlaut" unicode="&#x150;" horiz-adv-x="1517" 
d="M244 162q-181 190 -181 487q0 166 55 320t158 272q109 124 254.5 189t315.5 65q297 0 483 -186q180 -186 180 -488q0 -166 -55 -320t-158 -272q-109 -124 -254.5 -189t-314.5 -65q-296 0 -483 187zM1020 485q86 131 86 318q0 159 -74.5 251.5t-202.5 92.5
q-170 0 -276 -162q-86 -131 -86 -317q0 -160 74 -252t202 -92q172 0 277 161zM1264 1556h-295l202 342h408zM799 1556h-295l203 342h407z" />
    <glyph glyph-name="ohungarumlaut" unicode="&#x151;" horiz-adv-x="1187" 
d="M633 1106q237 0 377 -137q141 -138 141 -371q0 -128 -42.5 -242t-121.5 -200q-169 -181 -432 -181q-236 0 -377 138t-141 370q0 128 42.5 242.5t121.5 200.5q168 180 432 180zM623 793q-90 0 -147.5 -85.5t-57.5 -215.5q0 -96 40 -149.5t109 -53.5q90 0 147.5 85.5
t57.5 215.5q0 96 -40 149.5t-109 53.5zM1022 1157h-289l160 313h401zM575 1157h-288l159 313h402z" />
    <glyph glyph-name="OE" unicode="&#x152;" horiz-adv-x="2091" 
d="M63 641q0 178 55.5 330.5t160.5 263.5q218 235 585 235h1288l-49 -340h-676l-30 -219h561l-47 -331h-561l-33 -240h676l-47 -340h-1182q-328 0 -516 170q-185 173 -185 471zM924 338l110 795h-172q-182 0 -293 -129q-108 -126 -108 -334q0 -156 83 -244t232 -88h148z" />
    <glyph glyph-name="oe" unicode="&#x153;" horiz-adv-x="1904" 
d="M1305 -25q-233 0 -375 127q-60 -52 -135 -82q-107 -45 -240 -45q-236 0 -377 138t-141 370q0 128 42.5 242.5t121.5 200.5q168 180 432 180q232 0 371 -133q70 57 139 84q113 49 243 49q254 0 390 -168q130 -164 92 -416l-10 -65h-709q7 -88 53.5 -134.5t126.5 -46.5
q67 0 118 32t77 91l301 -108q-67 -146 -207.5 -231t-312.5 -85zM623 793q-90 0 -147.5 -85.5t-57.5 -215.5q0 -96 40 -149.5t109 -53.5q90 0 147.5 85.5t57.5 215.5q0 96 -40 149.5t-109 53.5zM1370 817q-63 0 -113.5 -38t-76.5 -107h331q5 63 -34.5 104t-106.5 41z" />
    <glyph glyph-name="Racute" unicode="&#x154;" horiz-adv-x="1388" 
d="M651 487h-157l-68 -487h-401l206 1470h607q256 0 403.5 -120.5t147.5 -329.5q0 -165 -92.5 -294t-252.5 -191l254 -535h-432zM584 1135l-45 -330h243q94 0 153.5 51t59.5 131q0 70 -50 109t-142 39h-219zM928 1542h-336l180 342h516z" />
    <glyph glyph-name="racute" unicode="&#x155;" horiz-adv-x="854" 
d="M819 1087q5 0 74 -6l-51 -364q-51 10 -97 10q-113 0 -184 -61.5t-88 -173.5l-70 -492h-389l152 1081h389l-16 -123q113 129 280 129zM672 1157h-314l138 313h460z" />
    <glyph glyph-name="Rcommaaccent" unicode="&#x156;" horiz-adv-x="1388" 
d="M651 487h-157l-68 -487h-401l206 1470h607q256 0 403.5 -120.5t147.5 -329.5q0 -165 -92.5 -294t-252.5 -191l254 -535h-432zM584 1135l-45 -330h243q94 0 153.5 51t59.5 131q0 70 -50 109t-142 39h-219zM516 -260h-129l29 199h387l-15 -113q-40 -300 -430 -285l19 133
q124 -3 139 66z" />
    <glyph glyph-name="rcommaaccent" unicode="&#x157;" horiz-adv-x="854" 
d="M819 1087q5 0 74 -6l-51 -364q-51 10 -97 10q-113 0 -184 -61.5t-88 -173.5l-70 -492h-389l152 1081h389l-16 -123q113 129 280 129zM111 -260h-129l28 199h387l-14 -113q-40 -300 -430 -285l18 133q125 -3 140 66z" />
    <glyph glyph-name="Rcaron" unicode="&#x158;" horiz-adv-x="1388" 
d="M651 487h-157l-68 -487h-401l206 1470h607q256 0 403.5 -120.5t147.5 -329.5q0 -165 -92.5 -294t-252.5 -191l254 -535h-432zM584 1135l-45 -330h243q94 0 153.5 51t59.5 131q0 70 -50 109t-142 39h-219zM1270 1884l-281 -342h-383l-184 342h272l125 -121l160 121h291z
" />
    <glyph glyph-name="rcaron" unicode="&#x159;" horiz-adv-x="854" 
d="M819 1087q5 0 74 -6l-51 -364q-51 10 -97 10q-113 0 -184 -61.5t-88 -173.5l-70 -492h-389l152 1081h389l-16 -123q113 129 280 129zM999 1470l-251 -313h-375l-164 313h270l101 -94l131 94h288z" />
    <glyph glyph-name="Sacute" unicode="&#x15a;" horiz-adv-x="1255" 
d="M584 -25q-201 0 -375 76q-171 75 -272 203l247 272q80 -104 192.5 -162.5t233.5 -58.5q96 0 153.5 38t57.5 101q0 49 -49 79.5t-172 56.5q-252 51 -364.5 147t-112.5 260q0 113 51 212.5t145 168.5q171 127 422 127q173 0 326 -65.5t244 -178.5l-230 -254
q-69 78 -168.5 124t-201.5 46q-87 0 -137 -31.5t-50 -86.5q0 -37 25.5 -60t87.5 -43q62 -21 164 -41q428 -89 428 -393q0 -122 -52.5 -226t-150.5 -177q-175 -134 -442 -134zM958 1542h-335l180 342h516z" />
    <glyph glyph-name="sacute" unicode="&#x15b;" horiz-adv-x="1060" 
d="M477 -23q-163 0 -305 46q-143 46 -219 122l174 254q73 -66 176.5 -104.5t202.5 -38.5q55 0 85 17.5t30 48.5q0 30 -31 44.5t-121 32.5q-201 37 -293 111t-92 199q0 92 42 170.5t120 132.5q134 94 342 94q145 0 276.5 -47t204.5 -123l-190 -231q-56 57 -136.5 91.5
t-158.5 34.5q-50 0 -79.5 -16t-29.5 -43q0 -30 33.5 -46t126.5 -34q191 -32 283 -109t92 -204q0 -199 -176 -309q-145 -93 -357 -93zM793 1157h-314l137 313h461z" />
    <glyph glyph-name="Scircumflex" unicode="&#x15c;" horiz-adv-x="1255" 
d="M584 -25q-201 0 -375 76q-171 75 -272 203l247 272q80 -104 192.5 -162.5t233.5 -58.5q96 0 153.5 38t57.5 101q0 49 -49 79.5t-172 56.5q-252 51 -364.5 147t-112.5 260q0 113 51 212.5t145 168.5q171 127 422 127q173 0 326 -65.5t244 -178.5l-230 -254
q-69 78 -168.5 124t-201.5 46q-87 0 -137 -31.5t-50 -86.5q0 -37 25.5 -60t87.5 -43q62 -21 164 -41q428 -89 428 -393q0 -122 -52.5 -226t-150.5 -177q-175 -134 -442 -134zM657 1884h381l187 -342h-273l-125 121l-159 -121h-293z" />
    <glyph glyph-name="scircumflex" unicode="&#x15d;" horiz-adv-x="1060" 
d="M477 -23q-163 0 -305 46q-143 46 -219 122l174 254q73 -66 176.5 -104.5t202.5 -38.5q55 0 85 17.5t30 48.5q0 30 -31 44.5t-121 32.5q-201 37 -293 111t-92 199q0 92 42 170.5t120 132.5q134 94 342 94q145 0 276.5 -47t204.5 -123l-190 -231q-56 57 -136.5 91.5
t-158.5 34.5q-50 0 -79.5 -16t-29.5 -43q0 -30 33.5 -46t126.5 -34q191 -32 283 -109t92 -204q0 -199 -176 -309q-145 -93 -357 -93zM494 1470h372l166 -313h-270l-103 94l-129 -94h-288z" />
    <glyph glyph-name="Scedilla" unicode="&#x15e;" horiz-adv-x="1255" 
d="M-63 254l247 272q80 -104 192.5 -162.5t233.5 -58.5q96 0 153.5 38t57.5 101q0 49 -49 79.5t-172 56.5q-252 51 -364.5 147t-112.5 260q0 113 51 212.5t145 168.5q171 127 422 127q173 0 326 -65.5t244 -178.5l-230 -254q-69 78 -168.5 124t-201.5 46q-87 0 -137 -31.5
t-50 -86.5q0 -37 25.5 -60t87.5 -43q62 -21 164 -41q428 -89 428 -393q0 -118 -51.5 -221.5t-145.5 -177.5q-173 -135 -432 -138l-8 -16q72 -11 112.5 -51t40.5 -101q0 -82 -73 -134t-191 -52q-152 0 -250 82l111 139q48 -48 111 -51q61 0 61 39q0 44 -119 53l47 103
q-161 25 -294 95.5t-211 172.5z" />
    <glyph glyph-name="scedilla" unicode="&#x15f;" horiz-adv-x="1060" 
d="M-47 145l174 254q73 -66 176.5 -104.5t202.5 -38.5q55 0 85 17.5t30 48.5q0 30 -31 44.5t-121 32.5q-201 37 -293 111t-92 199q0 92 42 170.5t120 132.5q134 94 342 94q145 0 276.5 -47t204.5 -123l-190 -231q-56 57 -136.5 91.5t-158.5 34.5q-50 0 -79.5 -16t-29.5 -43
q0 -30 33.5 -46t126.5 -34q191 -32 283 -109t92 -204q0 -199 -176 -309q-145 -93 -357 -93h-4l-8 -18q72 -11 112.5 -51t40.5 -101q0 -82 -73 -134t-191 -52q-152 0 -250 82l111 139q48 -48 111 -51q61 0 61 39q0 44 -119 53l49 107q-119 19 -214 59.5t-150 95.5z" />
    <glyph glyph-name="Scaron" unicode="&#x160;" horiz-adv-x="1255" 
d="M584 -25q-201 0 -375 76q-171 75 -272 203l247 272q80 -104 192.5 -162.5t233.5 -58.5q96 0 153.5 38t57.5 101q0 49 -49 79.5t-172 56.5q-252 51 -364.5 147t-112.5 260q0 113 51 212.5t145 168.5q171 127 422 127q173 0 326 -65.5t244 -178.5l-230 -254
q-69 78 -168.5 124t-201.5 46q-87 0 -137 -31.5t-50 -86.5q0 -37 25.5 -60t87.5 -43q62 -21 164 -41q428 -89 428 -393q0 -122 -52.5 -226t-150.5 -177q-175 -134 -442 -134zM1278 1884l-281 -342h-383l-184 342h272l125 -121l160 121h291z" />
    <glyph glyph-name="scaron" unicode="&#x161;" horiz-adv-x="1060" 
d="M477 -23q-163 0 -305 46q-143 46 -219 122l174 254q73 -66 176.5 -104.5t202.5 -38.5q55 0 85 17.5t30 48.5q0 30 -31 44.5t-121 32.5q-201 37 -293 111t-92 199q0 92 42 170.5t120 132.5q134 94 342 94q145 0 276.5 -47t204.5 -123l-190 -231q-56 57 -136.5 91.5
t-158.5 34.5q-50 0 -79.5 -16t-29.5 -43q0 -30 33.5 -46t126.5 -34q191 -32 283 -109t92 -204q0 -199 -176 -309q-145 -93 -357 -93zM1073 1470l-252 -313h-375l-163 313h270l100 -94l131 94h289z" />
    <glyph glyph-name="Tcommaaccent" unicode="&#x162;" horiz-adv-x="1331" 
d="M797 -193q0 -82 -73.5 -134t-191.5 -52q-151 0 -249 82l110 139q48 -48 111 -51q61 0 61 39q0 44 -119 53l54 117h-111l158 1130h-432l49 340h1266l-50 -340h-432l-157 -1130h-129l-19 -41q72 -11 113 -51t41 -101z" />
    <glyph glyph-name="tcommaaccent" unicode="&#x163;" horiz-adv-x="776" 
d="M592 -193q0 -82 -73 -134t-191 -52q-152 0 -250 82l110 139q48 -48 111 -51q61 0 61 39q0 44 -118 53l57 125q-80 18 -127 62q-85 82 -61 256l59 440h-131l45 315h131l39 287h385l-41 -287h201l-43 -315h-201l-49 -352q-8 -56 15.5 -77.5t92.5 -21.5q45 0 86 7l-45 -316
q-106 -16 -182 -16h-22l-13 -31q72 -11 113 -51t41 -101z" />
    <glyph glyph-name="Tcaron" unicode="&#x164;" horiz-adv-x="1331" 
d="M1430 1470l-50 -340h-432l-157 -1130h-402l158 1130h-432l49 340h1266zM1276 1884l-281 -342h-383l-184 342h272l125 -121l160 121h291z" />
    <glyph glyph-name="tcaron" unicode="&#x165;" horiz-adv-x="776" 
d="M473 -10q-213 0 -300 81t-62 255l59 440h-131l45 315h131l39 287h385l-41 -287h201l-43 -315h-201l-49 -352q-8 -56 15.5 -77.5t92.5 -21.5q45 0 86 7l-45 -316q-106 -16 -182 -16zM940 1147h-266l84 352h401z" />
    <glyph glyph-name="Tbar" unicode="&#x166;" horiz-adv-x="1331" 
d="M1083 887l-47 -338h-170l-75 -549h-402l76 549h-168l47 338h168l35 243h-432l49 340h1266l-50 -340h-432l-35 -243h170z" />
    <glyph glyph-name="tbar" unicode="&#x167;" horiz-adv-x="813" 
d="M500 -10q-215 0 -304.5 83t-64.5 261l16 117h-151l37 272h151l13 86h-152l39 272h152l38 287h385l-41 -287h220l-39 -272h-217l-13 -86h217l-36 -272h-220l-4 -23q-7 -60 18.5 -84.5t94.5 -24.5q15 0 50 3t48 4l-45 -320q-101 -16 -192 -16z" />
    <glyph glyph-name="Utilde" unicode="&#x168;" horiz-adv-x="1443" 
d="M692 -23q-315 0 -479 173q-159 173 -119 475l121 845h399l-118 -858q-19 -136 37.5 -211t175.5 -75q113 0 177.5 70t84.5 216l119 858h401l-125 -888q-41 -291 -215.5 -448t-458.5 -157zM743 1925q39 0 75.5 -12t90.5 -47q61 -37 92 -37q33 0 58 25t37 71h254
q-23 -175 -107 -279t-205 -104q-39 0 -75.5 12.5t-90.5 47.5q-63 38 -94 38q-33 0 -57.5 -25.5t-34.5 -72.5h-254q23 175 106.5 279t204.5 104z" />
    <glyph glyph-name="utilde" unicode="&#x169;" horiz-adv-x="1224" 
d="M821 1081h389l-151 -1081h-389l12 96q-49 -55 -129 -87t-168 -32q-170 0 -257 113t-62 299l96 692h391l-86 -610q-10 -72 18 -110.5t90 -38.5q66 0 108 44t54 128zM588 1493q60 0 145 -53q49 -35 76 -35q52 0 86 88h234q-25 -156 -98 -246t-177 -90q-36 0 -67 11.5
t-80 43.5q-53 33 -76 33q-57 0 -84 -88h-234q20 152 95.5 244t179.5 92z" />
    <glyph glyph-name="Umacron" unicode="&#x16a;" horiz-adv-x="1443" 
d="M692 -23q-315 0 -479 173q-159 173 -119 475l121 845h399l-118 -858q-19 -136 37.5 -211t175.5 -75q113 0 177.5 70t84.5 216l119 858h401l-125 -888q-41 -291 -215.5 -448t-458.5 -157zM1294 1829l-41 -281h-778l39 281h780z" />
    <glyph glyph-name="umacron" unicode="&#x16b;" horiz-adv-x="1224" 
d="M821 1081h389l-151 -1081h-389l12 96q-49 -55 -129 -87t-168 -32q-170 0 -257 113t-62 299l96 692h391l-86 -610q-10 -72 18 -110.5t90 -38.5q66 0 108 44t54 128zM1090 1454l-39 -278h-703l39 278h703z" />
    <glyph glyph-name="Ubreve" unicode="&#x16c;" horiz-adv-x="1443" 
d="M692 -23q-315 0 -479 173q-159 173 -119 475l121 845h399l-118 -858q-19 -136 37.5 -211t175.5 -75q113 0 177.5 70t84.5 216l119 858h401l-125 -888q-41 -291 -215.5 -448t-458.5 -157zM903 1788q47 0 80 30t41 80h272q-23 -172 -128.5 -265t-278.5 -93q-170 0 -273 92
q-54 50 -78 119t-14 147h277q0 -50 27.5 -80t74.5 -30z" />
    <glyph glyph-name="ubreve" unicode="&#x16d;" horiz-adv-x="1224" 
d="M821 1081h389l-151 -1081h-389l12 96q-49 -55 -129 -87t-168 -32q-170 0 -257 113t-62 299l96 692h391l-86 -610q-10 -72 18 -110.5t90 -38.5q66 0 108 44t54 128zM735 1384q41 0 70 23.5t37 62.5h262q-20 -154 -117.5 -235.5t-261.5 -81.5q-170 0 -261.5 84t-84.5 233
h260q2 -38 28.5 -62t67.5 -24z" />
    <glyph glyph-name="Uring" unicode="&#x16e;" horiz-adv-x="1443" 
d="M692 -23q-315 0 -479 173q-159 173 -119 475l121 845h399l-118 -858q-19 -136 37.5 -211t175.5 -75q113 0 177.5 70t84.5 216l119 858h401l-125 -888q-41 -291 -215.5 -448t-458.5 -157zM872 1485q-130 0 -212 77t-82 199q0 126 92 215q91 88 229 88q129 0 212 -78
t83 -200q0 -124 -92 -213q-91 -88 -230 -88zM889 1876q-44 0 -73.5 -31t-29.5 -78q0 -41 27.5 -67.5t69.5 -26.5t71 31t29 76q0 43 -26.5 69.5t-67.5 26.5z" />
    <glyph glyph-name="uring" unicode="&#x16f;" horiz-adv-x="1224" 
d="M821 1081h389l-151 -1081h-389l12 96q-49 -55 -129 -87t-168 -32q-170 0 -257 113t-62 299l96 692h391l-86 -610q-10 -72 18 -110.5t90 -38.5q66 0 108 44t54 128zM713 1147q-99 0 -163.5 62.5t-64.5 156.5q0 103 74 174q78 72 184 72q99 0 163.5 -62.5t64.5 -156.5
q0 -104 -76 -174q-75 -72 -182 -72zM733 1456q-35 0 -57.5 -23.5t-22.5 -60.5q0 -31 19.5 -51.5t50.5 -20.5q35 0 57.5 24t22.5 60q0 32 -19.5 52t-50.5 20z" />
    <glyph glyph-name="Uhungarumlaut" unicode="&#x170;" horiz-adv-x="1443" 
d="M692 -23q-315 0 -479 173q-159 173 -119 475l121 845h399l-118 -858q-19 -136 37.5 -211t175.5 -75q113 0 177.5 70t84.5 216l119 858h401l-125 -888q-41 -291 -215.5 -448t-458.5 -157zM1243 1556h-295l203 342h408zM778 1556h-295l203 342h408z" />
    <glyph glyph-name="uhungarumlaut" unicode="&#x171;" horiz-adv-x="1224" 
d="M821 1081h389l-151 -1081h-389l12 96q-49 -55 -129 -87t-168 -32q-170 0 -257 113t-62 299l96 692h391l-86 -610q-10 -72 18 -110.5t90 -38.5q66 0 108 44t54 128zM1042 1157h-288l159 313h402zM596 1157h-289l160 313h401z" />
    <glyph glyph-name="Uogonek" unicode="&#x172;" horiz-adv-x="1443" 
d="M735 -371q-103 0 -165 48.5t-62 129.5q0 96 88 175q-275 26 -407.5 196t-94.5 447l121 845h399l-118 -858q-19 -136 37.5 -211t175.5 -75q113 0 177.5 70t84.5 216l119 858h401l-125 -888q-32 -235 -155 -385t-324 -197q-129 -54 -129 -115q0 -47 65 -47q25 0 74 12
l-29 -204q-83 -17 -133 -17z" />
    <glyph glyph-name="uogonek" unicode="&#x173;" horiz-adv-x="1224" 
d="M762 -371q-103 0 -165 48.5t-62 129.5q0 123 137 213l10 76q-49 -55 -129 -87t-168 -32q-170 0 -257 113t-62 299l96 692h391l-86 -610q-10 -72 18 -110.5t90 -38.5q66 0 108 44t54 128l84 587h389l-151 -1081h-144q-131 -55 -131 -115q0 -47 66 -47q24 0 74 12l-29 -204
q-83 -17 -133 -17z" />
    <glyph glyph-name="Wcircumflex" unicode="&#x174;" horiz-adv-x="1990" 
d="M612 594l342 876h330l70 -876l344 876h418l-615 -1470h-385l-80 874l-354 -874h-385l-160 1470h406zM993 1884h381l187 -342h-273l-125 121l-159 -121h-293z" />
    <glyph glyph-name="wcircumflex" unicode="&#x175;" horiz-adv-x="1617" 
d="M508 520l237 561h275l45 -561l252 561h379l-510 -1081h-328l-65 514l-236 -514h-332l-151 1081h370zM780 1470h373l166 -313h-270l-103 94l-129 -94h-289z" />
    <glyph glyph-name="Ycircumflex" unicode="&#x176;" horiz-adv-x="1437" 
d="M543 1470l229 -530l373 530h434l-653 -892l-82 -578h-402l82 578l-405 892h424zM713 1884h381l186 -342h-272l-125 121l-160 -121h-293z" />
    <glyph glyph-name="ycircumflex" unicode="&#x177;" horiz-adv-x="1146" 
d="M1225 1081l-535 -1048q-107 -210 -184 -287q-60 -65 -131 -93t-176 -28q-81 0 -181 17l43 295q57 -11 89 -11q50 0 81 19t52 61l20 45l-229 1030h385l106 -594l269 594h391zM526 1470h373l166 -313h-271l-102 94l-129 -94h-289z" />
    <glyph glyph-name="Ydieresis" unicode="&#x178;" horiz-adv-x="1437" 
d="M543 1470l229 -530l373 530h434l-653 -892l-82 -578h-402l82 578l-405 892h424zM813 1542h-364l47 326h362zM1266 1542h-363l45 326h365z" />
    <glyph glyph-name="Zacute" unicode="&#x179;" horiz-adv-x="1323" 
d="M567 340h674l-49 -340h-1204l41 299l792 831h-667l47 340h1190l-41 -296zM942 1542h-336l180 342h517z" />
    <glyph glyph-name="zacute" unicode="&#x17a;" horiz-adv-x="1077" 
d="M543 315h440l-45 -315h-952l39 276l526 490h-453l45 315h942l-38 -276zM748 1157h-314l138 313h460z" />
    <glyph glyph-name="Zdotaccent" unicode="&#x17b;" horiz-adv-x="1323" 
d="M567 340h674l-49 -340h-1204l41 299l792 831h-667l47 340h1190l-41 -296zM1012 1542h-396l48 326h393z" />
    <glyph glyph-name="zdotaccent" unicode="&#x17c;" horiz-adv-x="1077" 
d="M543 315h440l-45 -315h-952l39 276l526 490h-453l45 315h942l-38 -276zM815 1167h-391l41 303h393z" />
    <glyph glyph-name="Zcaron" unicode="&#x17d;" horiz-adv-x="1323" 
d="M567 340h674l-49 -340h-1204l41 299l792 831h-667l47 340h1190l-41 -296zM1292 1884l-280 -342h-383l-185 342h273l125 -121l159 121h291z" />
    <glyph glyph-name="zcaron" unicode="&#x17e;" horiz-adv-x="1077" 
d="M543 315h440l-45 -315h-952l39 276l526 490h-453l45 315h942l-38 -276zM1061 1470l-252 -313h-375l-164 313h271l100 -94l131 94h289z" />
    <glyph glyph-name="florin" unicode="&#x192;" horiz-adv-x="1218" 
d="M406 627h-170l36 264h199l35 145q54 226 180.5 342.5t317.5 116.5q95 0 181 -28.5t148 -82.5l-172 -258q-49 52 -106 52q-50 0 -88.5 -39t-57.5 -107l-35 -141h191l-37 -264h-215l-47 -193q-51 -225 -179 -342t-321 -117q-187 0 -329 107l174 260q49 -49 110 -49
q49 0 85.5 38t53.5 107z" />
    <glyph glyph-name="AEacute" unicode="&#x1fc;" horiz-adv-x="2148" 
d="M-70 0l963 1470h1317l-49 -340h-676l-31 -219h559l-47 -331h-559l-33 -240h676l-47 -340h-1071l39 272h-434l-179 -272h-428zM1090 1118l-345 -524h271zM1688 1542h-336l180 342h516z" />
    <glyph glyph-name="aeacute" unicode="&#x1fd;" horiz-adv-x="1804" 
d="M618 1106q205 0 320 -115q148 115 350 115q253 0 389 -168q128 -166 90 -416l-10 -67h-706q7 -87 53.5 -133t124.5 -46q67 0 117.5 32t76.5 91l301 -108q-67 -146 -207.5 -231t-312.5 -85q-273 0 -411 179q-63 -85 -165 -131t-229 -46q-182 0 -291.5 86.5t-109.5 229.5
q-2 174 150.5 275.5t416.5 101.5h135l5 28q6 50 -24 78t-91 29q-57 0 -90.5 -24.5t-50.5 -78.5l-363 60q51 162 191 253t341 91zM1270 817q-131 0 -191 -147h332q6 66 -33 106.5t-108 40.5zM375 346q0 -41 30 -64.5t80 -23.5q69 0 118.5 43t60.5 109l6 45h-117
q-84 0 -131 -29t-47 -80zM1112 1157h-314l138 313h460z" />
    <glyph glyph-name="Oslashacute" unicode="&#x1fe;" horiz-adv-x="1515" 
d="M164 -78l-197 182l185 185q-89 156 -89 362q0 166 57 319.5t161 270.5q109 124 254.5 189t314.5 65q224 0 395 -115l148 148l194 -182l-164 -164q86 -160 86 -363q0 -166 -56 -319.5t-159 -270.5q-109 -124 -254.5 -189t-314.5 -65q-228 0 -393 115zM545 995
q-90 -142 -90 -331q0 -6 4 -68l524 524q-68 43 -152 43q-172 0 -286 -168zM1028 477q88 136 88 330q0 13 -4 63l-520 -520q68 -43 151 -43q86 0 160 44t125 126zM1044 1542h-335l180 342h516z" />
    <glyph glyph-name="oslashacute" unicode="&#x1ff;" horiz-adv-x="1187" 
d="M203 924q164 182 432 182q156 0 283 -68l118 121l164 -158l-119 -122q70 -113 70 -281q0 -127 -42.5 -241t-121.5 -201q-82 -88 -193.5 -134.5t-240.5 -46.5q-166 0 -285 70l-114 -117l-166 158l116 121q-67 125 -67 276q0 127 43 241.5t123 199.5zM627 834
q-104 0 -174 -101q-70 -98 -70 -241l319 325q-43 17 -75 17zM563 248q102 0 172 98q72 104 72 244v8l-324 -332q41 -18 80 -18zM830 1157h-314l138 313h460z" />
    <glyph glyph-name="Scommaaccent" unicode="&#x218;" horiz-adv-x="1255" 
d="M584 -25q-201 0 -375 76q-171 75 -272 203l247 272q80 -104 192.5 -162.5t233.5 -58.5q96 0 153.5 38t57.5 101q0 49 -49 79.5t-172 56.5q-252 51 -364.5 147t-112.5 260q0 113 51 212.5t145 168.5q171 127 422 127q173 0 326 -65.5t244 -178.5l-230 -254
q-69 78 -168.5 124t-201.5 46q-87 0 -137 -31.5t-50 -86.5q0 -37 25.5 -60t87.5 -43q62 -21 164 -41q428 -89 428 -393q0 -122 -52.5 -226t-150.5 -177q-175 -134 -442 -134zM465 -260h-129l29 199h387l-15 -113q-40 -300 -430 -285l19 133q124 -3 139 66z" />
    <glyph glyph-name="scommaaccent" unicode="&#x219;" horiz-adv-x="1060" 
d="M477 -23q-163 0 -305 46q-143 46 -219 122l174 254q73 -66 176.5 -104.5t202.5 -38.5q55 0 85 17.5t30 48.5q0 30 -31 44.5t-121 32.5q-201 37 -293 111t-92 199q0 92 42 170.5t120 132.5q134 94 342 94q145 0 276.5 -47t204.5 -123l-190 -231q-56 57 -136.5 91.5
t-158.5 34.5q-50 0 -79.5 -16t-29.5 -43q0 -30 33.5 -46t126.5 -34q191 -32 283 -109t92 -204q0 -199 -176 -309q-145 -93 -357 -93zM350 -260h-129l29 199h387l-14 -113q-40 -300 -430 -285l18 133q124 -3 139 66z" />
    <glyph glyph-name="uni021A" unicode="&#x21a;" horiz-adv-x="1331" 
d="M1430 1470l-50 -340h-432l-157 -1130h-402l158 1130h-432l49 340h1266zM485 -260h-129l29 199h387l-14 -113q-40 -300 -430 -285l18 133q124 -3 139 66z" />
    <glyph glyph-name="uni021B" unicode="&#x21b;" horiz-adv-x="776" 
d="M473 -10q-213 0 -300 81t-62 255l59 440h-131l45 315h131l39 287h385l-41 -287h201l-43 -315h-201l-49 -352q-8 -56 15.5 -77.5t92.5 -21.5q45 0 86 7l-45 -316q-106 -16 -182 -16zM262 -260h-129l29 199h387l-14 -113q-40 -300 -431 -285l19 133q124 -3 139 66z" />
    <glyph glyph-name="uni0237" unicode="&#x237;" horiz-adv-x="571" 
d="M18 27l148 1054h389l-149 -1069q-32 -239 -180.5 -328t-432.5 -40l41 284q101 -17 137 3.5t47 95.5z" />
    <glyph glyph-name="circumflex" unicode="&#x2c6;" horiz-adv-x="1228" 
d="M559 1470h373l166 -313h-271l-102 94l-129 -94h-289z" />
    <glyph glyph-name="caron" unicode="&#x2c7;" horiz-adv-x="1228" 
d="M1141 1470l-252 -313h-375l-164 313h271l100 -94l131 94h289z" />
    <glyph glyph-name="breve" unicode="&#x2d8;" horiz-adv-x="1228" 
d="M739 1384q41 0 70 23.5t37 62.5h262q-20 -154 -117.5 -235.5t-261.5 -81.5q-170 0 -261.5 84t-84.5 233h260q2 -38 28.5 -62t67.5 -24z" />
    <glyph glyph-name="dotaccent" unicode="&#x2d9;" horiz-adv-x="1228" 
d="M899 1167h-391l41 303h393z" />
    <glyph glyph-name="ring" unicode="&#x2da;" horiz-adv-x="1228" 
d="M717 1147q-99 0 -163.5 62.5t-64.5 156.5q0 103 74 174q78 72 185 72q99 0 163 -62.5t64 -156.5q0 -104 -76 -174q-75 -72 -182 -72zM737 1456q-35 0 -57.5 -23.5t-22.5 -60.5q0 -31 19.5 -51.5t50.5 -20.5q35 0 57.5 24t22.5 60q0 32 -19.5 52t-50.5 20z" />
    <glyph glyph-name="ogonek" unicode="&#x2db;" horiz-adv-x="1228" 
d="M539 -371q-103 0 -165.5 48.5t-62.5 129.5q0 92 84 170t240 132l63 -107q-137 -53 -137 -117q0 -47 66 -47q23 0 73 12l-28 -204q-83 -17 -133 -17z" />
    <glyph glyph-name="tilde" unicode="&#x2dc;" horiz-adv-x="1228" 
d="M592 1493q60 0 145 -53q49 -35 76 -35q52 0 86 88h234q-25 -156 -98 -246t-177 -90q-36 0 -67 11.5t-80 43.5q-53 33 -76 33q-57 0 -84 -88h-234q20 152 95.5 244t179.5 92z" />
    <glyph glyph-name="hungarumlaut" unicode="&#x2dd;" horiz-adv-x="1228" 
d="M946 1157h-289l160 313h402zM500 1157h-289l160 313h401z" />
    <glyph glyph-name="gravecmb" unicode="&#x300;" horiz-adv-x="0" 
d="M184 1470l72 -313h-295l-215 313h438z" />
    <glyph glyph-name="acutecmb" unicode="&#x301;" horiz-adv-x="0" 
d="M14 1157h-313l137 313h461z" />
    <glyph glyph-name="circumflexcmb" unicode="&#x302;" horiz-adv-x="0" 
d="M-143 1470h372l166 -313h-270l-102 94l-129 -94h-289z" />
    <glyph glyph-name="tildecmb" unicode="&#x303;" horiz-adv-x="0" 
d="M-133 1493q60 0 145 -53q49 -35 76 -35q52 0 86 88h234q-25 -156 -98 -246t-177 -90q-36 0 -67 11.5t-80 43.5q-53 33 -76 33q-57 0 -84 -88h-234q20 152 95.5 244t179.5 92z" />
    <glyph glyph-name="macroncmb" unicode="&#x304;" horiz-adv-x="0" 
d="M375 1454l-39 -278h-703l39 278h703z" />
    <glyph glyph-name="brevecmb" unicode="&#x306;" horiz-adv-x="0" 
d="M-8 1384q41 0 69.5 23.5t36.5 62.5h262q-20 -154 -117 -235.5t-261 -81.5q-170 0 -262 84t-85 233h261q2 -38 28.5 -62t67.5 -24z" />
    <glyph glyph-name="dotaccentcmb" unicode="&#x307;" horiz-adv-x="0" 
d="M174 1167h-391l41 303h393z" />
    <glyph glyph-name="dieresiscmb" unicode="&#x308;" horiz-adv-x="0" 
d="M-63 1167h-363l41 303h365zM383 1167h-363l41 303h365z" />
    <glyph glyph-name="ringcmb" unicode="&#x30a;" horiz-adv-x="0" 
d="M-16 1147q-99 0 -163.5 62.5t-64.5 156.5q0 103 74 174q78 72 184 72q99 0 163.5 -62.5t64.5 -156.5q0 -104 -76 -174q-75 -72 -182 -72zM4 1456q-35 0 -57.5 -23.5t-22.5 -60.5q0 -31 19.5 -51.5t50.5 -20.5q35 0 57.5 24t22.5 60q0 32 -19.5 52t-50.5 20z" />
    <glyph glyph-name="hungarumlautcmb" unicode="&#x30b;" horiz-adv-x="0" 
d="M231 1157h-288l159 313h402zM-215 1157h-289l160 313h401z" />
    <glyph glyph-name="caroncmb" unicode="&#x30c;" horiz-adv-x="0" 
d="M395 1470l-252 -313h-374l-164 313h270l100 -94l131 94h289z" />
    <glyph glyph-name="commaaboverightcmb" unicode="&#x315;" horiz-adv-x="0" 
d="M23 1118h-267l84 352h402z" />
    <glyph glyph-name="cedillacmb" unicode="&#x327;" horiz-adv-x="0" 
d="M256 -193q0 -82 -73 -134t-191 -52q-152 0 -250 82l111 139q48 -48 110 -51q62 0 62 39q0 44 -119 53l65 142h160l-29 -66q72 -11 113 -51t41 -101z" />
    <glyph glyph-name="ogonekcmb" unicode="&#x328;" horiz-adv-x="0" 
d="M33 -371q-103 0 -165.5 48.5t-62.5 129.5q0 92 84 170t240 132l64 -107q-138 -54 -138 -117q0 -47 66 -47q25 0 74 12l-29 -204q-83 -17 -133 -17z" />
    <glyph glyph-name="baht" unicode="&#xe3f;" horiz-adv-x="1363" 
d="M502 0h-477l206 1470h476l28 199h236l-29 -199q200 -4 311 -98t111 -256q0 -124 -65.5 -221.5t-172.5 -136.5q86 -44 134.5 -128t48.5 -190q0 -194 -150 -317t-391 -123h-31l-28 -203h-236zM518 1161l-41 -282h148l39 282h-146zM1044 1032q0 62 -37 95.5t-104 33.5h-4
l-39 -282h10q79 0 126.5 42.5t47.5 110.5zM588 610h-148l-43 -299h148zM1001 477q0 63 -40 98t-113 35h-25l-43 -299h45q79 0 127.5 46.5t48.5 119.5z" />
    <glyph glyph-name="Wgrave" unicode="&#x1e80;" horiz-adv-x="1990" 
d="M612 594l342 876h330l70 -876l344 876h418l-615 -1470h-385l-80 874l-354 -874h-385l-160 1470h406zM1188 1884l104 -342h-317l-281 342h494z" />
    <glyph glyph-name="wgrave" unicode="&#x1e81;" horiz-adv-x="1617" 
d="M508 520l237 561h275l45 -561l252 561h379l-510 -1081h-328l-65 514l-236 -514h-332l-151 1081h370zM963 1470l71 -313h-294l-215 313h438z" />
    <glyph glyph-name="Wacute" unicode="&#x1e82;" horiz-adv-x="1990" 
d="M612 594l342 876h330l70 -876l344 876h418l-615 -1470h-385l-80 874l-354 -874h-385l-160 1470h406zM1311 1542h-336l180 342h516z" />
    <glyph glyph-name="wacute" unicode="&#x1e83;" horiz-adv-x="1617" 
d="M508 520l237 561h275l45 -561l252 561h379l-510 -1081h-328l-65 514l-236 -514h-332l-151 1081h370zM1098 1157h-314l138 313h460z" />
    <glyph glyph-name="Wdieresis" unicode="&#x1e84;" horiz-adv-x="1990" 
d="M612 594l342 876h330l70 -876l344 876h418l-615 -1470h-385l-80 874l-354 -874h-385l-160 1470h406zM1092 1542h-365l47 326h363zM1544 1542h-362l45 326h364z" />
    <glyph glyph-name="wdieresis" unicode="&#x1e85;" horiz-adv-x="1617" 
d="M508 520l237 561h275l45 -561l252 561h379l-510 -1081h-328l-65 514l-236 -514h-332l-151 1081h370zM883 1167h-363l41 303h365zM1329 1167h-362l41 303h364z" />
    <glyph glyph-name="Germandbls" unicode="&#x1e9e;" horiz-adv-x="1544" 
d="M1520 489q0 -222 -158 -368t-399 -146q-146 0 -262 53.5t-191 153.5l207 264q106 -143 248 -143q82 0 136 49t54 123q0 78 -67.5 120t-194.5 42h-133l37 258l247 248h-458l-160 -1143h-401l206 1470h1301l-45 -311l-256 -260q141 -51 215 -156t74 -254z" />
    <glyph glyph-name="Ygrave" unicode="&#x1ef2;" horiz-adv-x="1437" 
d="M543 1470l229 -530l373 530h434l-653 -892l-82 -578h-402l82 578l-405 892h424zM942 1884l105 -342h-318l-280 342h493z" />
    <glyph glyph-name="ygrave" unicode="&#x1ef3;" horiz-adv-x="1146" 
d="M1225 1081l-535 -1048q-107 -210 -184 -287q-60 -65 -131 -93t-176 -28q-81 0 -181 17l43 295q57 -11 89 -11q50 0 81 19t52 61l20 45l-229 1030h385l106 -594l269 594h391zM760 1470l71 -313h-294l-215 313h438z" />
    <glyph glyph-name="thinspace" unicode="&#x2009;" horiz-adv-x="204" 
 />
    <glyph glyph-name="endash" unicode="&#x2013;" horiz-adv-x="1110" 
d="M1016 442h-946l45 320h946z" />
    <glyph glyph-name="emdash" unicode="&#x2014;" horiz-adv-x="1998" 
d="M1905 442h-1835l45 320h1835z" />
    <glyph glyph-name="quoteleft" unicode="&#x2018;" horiz-adv-x="540" 
d="M420 1151h153l-53 -385h-436l51 367q25 172 143.5 254.5t339.5 82.5l-26 -190q-81 -2 -122 -29t-48 -86z" />
    <glyph glyph-name="quoteright" unicode="&#x2019;" horiz-adv-x="540" 
d="M285 1085h-154l53 385h437l-52 -366q-25 -172 -143.5 -255t-339.5 -83l27 190q81 2 122 29t48 86z" />
    <glyph glyph-name="quotesinglbase" unicode="&#x201a;" horiz-adv-x="540" 
d="M135 25h-153l53 385h436l-51 -367q-25 -172 -143.5 -255t-339.5 -83l26 191q81 2 122 28.5t48 85.5z" />
    <glyph glyph-name="quotedblleft" unicode="&#x201c;" horiz-adv-x="1067" 
d="M420 1151h153l-53 -385h-436l51 367q25 172 143.5 254.5t339.5 82.5l-26 -190q-81 -2 -122 -29t-48 -86zM946 1151h154l-53 -385h-437l52 367q25 172 143.5 254.5t339.5 82.5l-27 -190q-81 -2 -122 -29t-48 -86z" />
    <glyph glyph-name="quotedblright" unicode="&#x201d;" horiz-adv-x="1067" 
d="M811 1085h-154l54 385h436l-51 -366q-25 -172 -144 -255t-340 -83l27 190q81 2 122 29t48 86zM285 1085h-154l53 385h437l-52 -366q-25 -172 -143.5 -255t-339.5 -83l27 190q81 2 122 29t48 86z" />
    <glyph glyph-name="quotedblbase" unicode="&#x201e;" horiz-adv-x="1067" 
d="M662 25h-154l53 385h436l-51 -367q-25 -172 -143.5 -255t-339.5 -83l26 191q81 2 122 28.5t48 85.5zM135 25h-153l53 385h436l-51 -367q-25 -172 -143.5 -255t-339.5 -83l26 191q81 2 122 28.5t48 85.5z" />
    <glyph glyph-name="dagger" unicode="&#x2020;" horiz-adv-x="874" 
d="M571 559h-262l62 434h-267l37 267h267l34 251h265l-35 -251h262l-37 -267h-264z" />
    <glyph glyph-name="daggerdbl" unicode="&#x2021;" horiz-adv-x="874" 
d="M580 559h-279l23 162h-256l34 248h256l21 135h-258l35 248h258l22 159h277l-23 -159h258l-37 -248h-256l-18 -135h256l-35 -248h-256z" />
    <glyph glyph-name="bullet" unicode="&#x2022;" horiz-adv-x="927" 
d="M756 334q-126 -135 -310 -135q-162 0 -270 102t-108 260q0 88 32.5 170.5t92.5 145.5q130 133 311 133q162 0 266 -101q111 -105 111 -262q0 -88 -32.5 -170t-92.5 -143z" />
    <glyph glyph-name="ellipsis" unicode="&#x2026;" horiz-adv-x="1679" 
d="M426 0h-436l57 418h436zM983 0h-436l57 418h436zM1540 0h-436l57 418h436z" />
    <glyph glyph-name="guilsinglleft" unicode="&#x2039;" horiz-adv-x="579" 
d="M461 68l-432 305l45 319l518 305l-51 -374l-176 -109l145 -111z" />
    <glyph glyph-name="guilsinglright" unicode="&#x203a;" horiz-adv-x="579" 
d="M551 692l-45 -319l-518 -305l51 374l176 109l-145 111l49 335z" />
    <glyph glyph-name="fraction" unicode="&#x2044;" horiz-adv-x="382" 
d="M-532 0l1216 1470h287l-1215 -1470h-288z" />
    <glyph glyph-name="uni2070" unicode="&#x2070;" horiz-adv-x="778" 
d="M424 641q-137 0 -213 88.5t-76 251.5q0 222 101 362q103 142 266 142q137 0 213 -88.5t76 -251.5q0 -221 -103 -363q-102 -141 -264 -141zM487 1251q-40 0 -67 -94q-29 -101 -29 -192t47 -91q41 0 68 95q29 101 29 192q0 90 -48 90z" />
    <glyph glyph-name="uni2074" unicode="&#x2074;" horiz-adv-x="778" 
d="M682 817l-23 -162h-241l22 162h-374l26 191l342 462h340l-63 -448h110l-30 -205h-109zM500 1278l-191 -256h154z" />
    <glyph glyph-name="uni2075" unicode="&#x2075;" horiz-adv-x="778" 
d="M459 1006q-45 0 -60 -35l-239 24l104 475h510l-31 -219h-315l-25 -100q60 43 150 43q100 0 158.5 -60.5t58.5 -164.5q0 -147 -100 -236q-98 -92 -242 -92q-134 0 -223 71.5t-99 188.5l269 37q5 -32 23 -52t44 -20q31 0 51.5 22t20.5 54q0 29 -15 46.5t-40 17.5z" />
    <glyph glyph-name="uni2076" unicode="&#x2076;" horiz-adv-x="778" 
d="M547 1485q108 0 184 -54t96 -145l-217 -78q-16 62 -84 62q-50 0 -82 -36t-36 -97q57 45 133 45q103 0 167 -63.5t64 -166.5q0 -130 -94 -221q-96 -90 -234 -90q-146 0 -228.5 92t-82.5 252q0 199 109 338q57 78 135.5 120t169.5 42zM530 936q0 31 -20 50.5t-51 19.5
q-33 0 -56.5 -26t-23.5 -62q0 -32 19.5 -52t50.5 -20q35 0 58 26.5t23 63.5z" />
    <glyph glyph-name="uni2077" unicode="&#x2077;" horiz-adv-x="778" 
d="M541 1251h-152l-10 -92h-219l43 311h639l-31 -221q-121 -112 -188 -250q-61 -130 -88 -344h-279q26 189 96 334.5t189 261.5z" />
    <glyph glyph-name="uni2078" unicode="&#x2078;" horiz-adv-x="778" 
d="M193 1225q0 108 88 184t219 76q123 0 201.5 -65t78.5 -165q0 -128 -116 -194q48 -25 74 -67.5t26 -96.5q0 -107 -96 -182q-95 -74 -242 -74q-140 0 -228.5 64.5t-88.5 166.5q0 72 42.5 130.5t110.5 78.5q-69 48 -69 144zM414 1221q0 -27 18 -44.5t47 -17.5
q31 0 51.5 20.5t20.5 51.5q0 26 -18.5 42.5t-45.5 16.5q-31 0 -52 -19.5t-21 -49.5zM514 915q0 29 -19.5 47.5t-50.5 18.5q-32 0 -54.5 -21.5t-22.5 -52.5q0 -29 19 -46t50 -17q33 0 55.5 20.5t22.5 50.5z" />
    <glyph glyph-name="uni2079" unicode="&#x2079;" horiz-adv-x="778" 
d="M377 641q-109 0 -185 54t-96 145l217 78q16 -62 84 -62q50 0 82.5 36t36.5 97q-57 -45 -133 -45q-103 0 -167 63.5t-64 166.5q0 131 94 219q95 92 233 92q146 0 229 -92t83 -252q0 -199 -109 -338q-57 -78 -135.5 -120t-169.5 -42zM393 1190q0 -31 20.5 -50.5t51.5 -19.5
q33 0 56.5 26t23.5 62q0 32 -19.5 52t-50.5 20q-35 0 -58.5 -26.5t-23.5 -63.5z" />
    <glyph glyph-name="uni2080" unicode="&#x2080;" horiz-adv-x="778" 
d="M297 -260q-137 0 -213 88.5t-76 251.5q0 222 101 362q103 142 266 142q137 0 213 -88.5t76 -251.5q0 -221 -103 -363q-102 -141 -264 -141zM360 350q-40 0 -67 -94q-29 -102 -29 -193q0 -90 47 -90q41 0 68 95q29 102 29 192t-48 90z" />
    <glyph glyph-name="uni2081" unicode="&#x2081;" horiz-adv-x="778" 
d="M205 -14l39 268h-181l27 184l82 6q129 9 168 125h215l-82 -583h137l-32 -232h-582l33 232h176z" />
    <glyph glyph-name="uni2082" unicode="&#x2082;" horiz-adv-x="778" 
d="M-35 -246l29 201l295 201q112 75 112 137q0 25 -15 40t-40 15q-32 0 -52 -22.5t-20 -59.5q0 -8 3 -24t4 -23h-242q-8 31 -8 55q0 137 98 222q98 88 248 88q129 0 208 -68t79 -180q0 -151 -152 -260l-129 -90h242l-33 -232h-627z" />
    <glyph glyph-name="uni2083" unicode="&#x2083;" horiz-adv-x="778" 
d="M629 4q0 -110 -90 -188q-88 -76 -232 -76q-140 0 -228.5 72.5t-92.5 193.5l266 29q2 -33 19.5 -51.5t47.5 -18.5q26 0 45 16.5t19 41.5q0 24 -18.5 37.5t-51.5 13.5h-67l24 178h68q32 0 53 16t21 41q0 23 -14 36t-38 13q-29 0 -47.5 -19t-23.5 -50l-250 26
q31 125 124 197t226 72q127 0 207 -64.5t80 -163.5q0 -67 -37.5 -122.5t-95.5 -75.5q39 -21 62.5 -62.5t23.5 -91.5z" />
    <glyph glyph-name="uni2084" unicode="&#x2084;" horiz-adv-x="778" 
d="M555 -84l-23 -162h-241l22 162h-374l26 190l342 463h340l-63 -448h110l-30 -205h-109zM373 377l-191 -256h154z" />
    <glyph glyph-name="uni2085" unicode="&#x2085;" horiz-adv-x="778" 
d="M332 104q-45 0 -60 -34l-239 24l104 475h510l-31 -219h-315l-25 -100q60 43 150 43q100 0 158.5 -60.5t58.5 -164.5q0 -147 -100 -236q-98 -92 -242 -92q-134 0 -222.5 71.5t-98.5 188.5l268 37q5 -32 23 -52t44 -20q31 0 51.5 22t20.5 54q0 29 -15 46t-40 17z" />
    <glyph glyph-name="uni2086" unicode="&#x2086;" horiz-adv-x="778" 
d="M420 584q108 0 184 -54t96 -145l-217 -78q-16 62 -84 62q-50 0 -82 -36t-36 -97q57 45 133 45q103 0 167 -63.5t64 -166.5q0 -130 -94 -221q-96 -90 -234 -90q-146 0 -228.5 92t-82.5 252q0 199 109 338q57 78 135.5 120t169.5 42zM403 35q0 31 -20 50t-51 19
q-33 0 -56.5 -26t-23.5 -62q0 -32 19.5 -51.5t50.5 -19.5q35 0 58 26.5t23 63.5z" />
    <glyph glyph-name="uni2087" unicode="&#x2087;" horiz-adv-x="778" 
d="M414 350h-152l-10 -92h-219l43 311h639l-31 -221q-121 -112 -188 -250q-61 -130 -88 -344h-279q26 189 96 334.5t189 261.5z" />
    <glyph glyph-name="uni2088" unicode="&#x2088;" horiz-adv-x="778" 
d="M66 324q0 108 88 184t219 76q123 0 201.5 -65t78.5 -165q0 -128 -116 -194q48 -25 74 -67.5t26 -96.5q0 -107 -96 -182q-95 -74 -242 -74q-140 0 -228.5 64.5t-88.5 166.5q0 72 42.5 130.5t110.5 78.5q-69 48 -69 144zM287 319q0 -27 18 -44t47 -17q31 0 51.5 20.5
t20.5 51.5q0 26 -18.5 42.5t-45.5 16.5q-31 0 -52 -20t-21 -50zM387 14q0 29 -19.5 47.5t-50.5 18.5q-32 0 -54.5 -21.5t-22.5 -52.5q0 -29 19 -46t50 -17q33 0 55.5 20.5t22.5 50.5z" />
    <glyph glyph-name="uni2089" unicode="&#x2089;" horiz-adv-x="778" 
d="M250 -260q-109 0 -185 54t-96 145l217 77q16 -61 84 -61q50 0 82.5 36t36.5 97q-57 -45 -133 -45q-103 0 -167 63t-64 166q0 132 94 220q95 92 233 92q146 0 229 -92t83 -252q0 -199 -109 -338q-57 -78 -135.5 -120t-169.5 -42zM266 289q0 -31 20.5 -50.5t51.5 -19.5
q33 0 56.5 26t23.5 62q0 32 -19.5 52t-50.5 20q-35 0 -58.5 -26.5t-23.5 -63.5z" />
    <glyph glyph-name="franc" unicode="&#x20a3;" horiz-adv-x="1312" 
d="M174 238h-176l39 276h176l135 956h1053l-47 -340h-660l-28 -202h557l-47 -332h-558l-12 -82h299l-39 -276h-297l-32 -238h-396z" />
    <glyph glyph-name="naira" unicode="&#x20a6;" horiz-adv-x="1673" 
d="M242 463h-211l32 233h211l11 82h-209l30 236h213l64 456h377l315 -808l109 808h368l-63 -456h209l-31 -236h-213l-10 -82h211l-33 -233h-211l-65 -463h-332l-350 868l-119 -868h-369z" />
    <glyph glyph-name="peseta" unicode="&#x20a7;" horiz-adv-x="1660" 
d="M788 328h-184l-47 -328h-387l106 764h-202l37 270h204l62 436h549q231 0 373.5 -116t162.5 -320h228l-37 -270h-215q-60 -207 -230 -321.5t-420 -114.5zM899 1186h-174l-23 -152h396q-39 152 -199 152zM666 764l-23 -154h197q73 0 132.5 40t94.5 114h-401z" />
    <glyph glyph-name="won" unicode="&#x20a9;" horiz-adv-x="1927" 
d="M324 481h-291l33 236h239l-8 82h-219l33 233h168l-37 438h379l41 -862l280 862h303l39 -862l275 862h389l-160 -438h168l-33 -233h-221l-29 -82h240l-35 -236h-291l-176 -481h-344l-41 905l-299 -905h-362z" />
    <glyph glyph-name="dong" unicode="&#x20ab;" horiz-adv-x="1228" 
d="M387 92q-156 0 -248 111q-90 113 -90 286q0 216 127 367q128 152 318 152q78 0 141 -27.5t100 -77.5l25 172h-336l35 240h334l22 155h340l-22 -155h178l-35 -240h-176l-137 -964h-340l12 86q-44 -50 -109.5 -77.5t-138.5 -27.5zM561 748q-79 0 -129.5 -67.5t-50.5 -170.5
q0 -78 34 -120t97 -42q79 0 130.5 67.5t51.5 170.5q0 78 -35 120t-98 42zM911 -254h-895l37 254h895z" />
    <glyph glyph-name="Euro" unicode="&#x20ac;" horiz-adv-x="1357" 
d="M180 477h-151l32 219h115q1 18 8 82h-110l30 221h134q82 234 248.5 365t385.5 131q214 0 357 -125q141 -120 176 -332l-354 -98q-11 106 -63.5 165.5t-137.5 59.5q-72 0 -132.5 -43t-103.5 -123h312l-74 -221h-309q-7 -64 -8 -82h290l-73 -219h-203q47 -172 192 -172
q80 0 143 56.5t101 164.5l340 -114q-85 -216 -237 -326.5t-365 -110.5q-229 0 -371.5 131.5t-171.5 370.5z" />
    <glyph glyph-name="peso" unicode="&#x20b1;" horiz-adv-x="1566" 
d="M268 662h-211l35 233h209l12 82h-211l33 235h211l37 258h506q170 0 291 -66.5t178 -191.5h262l-31 -235h-186q0 -15 -3 -47.5t-3 -34.5h180l-33 -233h-239q-80 -117 -215.5 -178.5t-313.5 -61.5h-151l-60 -422h-389zM729 1171l-63 -450h135q110 0 178 72.5t68 185.5
q0 91 -51 141.5t-142 50.5h-125z" />
    <glyph glyph-name="uni20B9" unicode="&#x20b9;" horiz-adv-x="1265" 
d="M674 829h-545l37 263h541q-50 116 -220 116h-305l37 262h1102l-37 -262h-303q44 -56 59 -116h228l-37 -263h-209q-38 -115 -126 -202t-210 -131l318 -496h-443l-282 451h-203l37 262h309q168 0 252 116z" />
    <glyph glyph-name="uni20BA" unicode="&#x20ba;" horiz-adv-x="1437" 
d="M604 336h92q162 0 246.5 88t110.5 285h374q-82 -709 -741 -709h-516l53 381l-219 -96l41 286l219 99l12 88l-219 -99l43 287l217 96l60 428h387l-37 -264l305 135l-41 -288l-305 -133l-12 -91l305 136l-43 -287l-303 -133z" />
    <glyph glyph-name="uni20BD" unicode="&#x20bd;" horiz-adv-x="1374" 
d="M207 221h-209l37 266h209l12 82h-211l37 267h211l90 634h532q239 0 372.5 -110t133.5 -307q0 -221 -164 -353q-162 -131 -444 -131h-170l-12 -82h260l-37 -266h-260l-31 -221h-387zM731 1196l-51 -360h149q105 0 167.5 54.5t62.5 145.5q0 76 -48.5 118t-138.5 42h-141z
" />
    <glyph glyph-name="trademark" unicode="&#x2122;" horiz-adv-x="1689" 
d="M598 1239l-70 -489h-262l70 489h-197l33 231h655l-32 -231h-197zM1462 1137l-178 -387h-135l-70 387l-53 -387h-227l102 720h316l51 -340l147 340h324l-103 -720h-227z" />
    <glyph glyph-name="uni2153" unicode="&#x2153;" horiz-adv-x="1857" 
d="M1798 250q0 -111 -90 -189q-87 -75 -231 -75q-140 0 -229 72.5t-93 193.5l266 29q2 -32 19.5 -51t48.5 -19q27 0 45 16t18 41q0 51 -69 51h-68l25 179h67q32 0 53 16t21 41q0 23 -14 36t-37 13q-29 0 -48 -19t-24 -50l-250 26q31 125 124.5 196.5t226.5 71.5
q127 0 206.5 -64t79.5 -163q0 -67 -37.5 -123t-95.5 -76q39 -21 62.5 -62t23.5 -91zM260 0l1217 1470h286l-1214 -1470h-289zM332 887l39 268h-181l27 184l82 7q66 5 107 34.5t61 89.5h215l-82 -583h137l-32 -232h-582l33 232h176z" />
    <glyph glyph-name="uni2154" unicode="&#x2154;" horiz-adv-x="1878" 
d="M1812 250q0 -111 -90 -189q-87 -75 -231 -75q-140 0 -229 72.5t-93 193.5l267 29q2 -33 19.5 -51.5t47.5 -18.5q27 0 45.5 16.5t18.5 40.5t-18.5 37.5t-51.5 13.5h-67l24 179h68q32 0 52.5 16t20.5 41q0 23 -14 36t-37 13q-29 0 -47.5 -19t-23.5 -50l-250 26
q31 125 124 196.5t226 71.5q127 0 207 -64t80 -163q0 -67 -38 -123t-96 -76q39 -21 62.5 -62t23.5 -91zM274 0l1217 1470h287l-1215 -1470h-289zM92 655l29 201l295 201q112 75 112 137q0 25 -15 40t-40 15q-32 0 -52 -22.5t-20 -59.5q0 -8 3 -24t4 -23h-242q-8 31 -8 56
q0 136 98 221q98 88 248 88q129 0 208 -68t79 -180q0 -151 -152 -260l-129 -90h242l-33 -232h-627z" />
    <glyph glyph-name="uni215B" unicode="&#x215b;" horiz-adv-x="1830" 
d="M1214 569q0 108 89 185q87 75 219 75q123 0 201.5 -64.5t78.5 -164.5q0 -128 -116 -194q48 -25 74 -67.5t26 -96.5q0 -108 -96 -183q-94 -73 -242 -73q-140 0 -229 64.5t-89 166.5q0 72 43 130.5t111 78.5q-70 49 -70 143zM1436 565q0 -27 18 -44t47 -17q31 0 51.5 20
t20.5 51q0 26 -18.5 43t-45.5 17q-31 0 -52 -20t-21 -50zM1536 260q0 29 -19.5 47.5t-50.5 18.5q-32 0 -54.5 -21.5t-22.5 -52.5q0 -29 19 -46.5t50 -17.5q32 0 55 20.5t23 51.5zM262 0l1217 1470h286l-1214 -1470h-289zM332 887l39 268h-181l27 184l82 7q66 5 107 34.5
t61 89.5h215l-82 -583h137l-32 -232h-582l33 232h176z" />
    <glyph glyph-name="uni215C" unicode="&#x215c;" horiz-adv-x="1794" 
d="M1163 569q0 109 88 185q87 75 219 75q123 0 202 -64.5t79 -164.5q0 -128 -117 -194q48 -25 74.5 -67.5t26.5 -96.5q0 -108 -97 -183q-94 -73 -241 -73q-140 0 -229 64.5t-89 166.5q0 72 43 130.5t111 78.5q-70 49 -70 143zM1384 565q0 -26 18.5 -43.5t47.5 -17.5
q31 0 51.5 20t20.5 51q0 26 -18.5 43t-45.5 17q-31 0 -52.5 -20t-21.5 -50zM1485 260q0 29 -19.5 47.5t-50.5 18.5q-32 0 -55 -21.5t-23 -52.5q0 -29 19.5 -46.5t50.5 -17.5q32 0 55 20.5t23 51.5zM205 0l1216 1470h287l-1214 -1470h-289zM756 905q0 -110 -90 -188
q-88 -76 -232 -76q-140 0 -228.5 72.5t-92.5 193.5l266 29q2 -33 19.5 -51.5t47.5 -18.5q26 0 45 16.5t19 41.5q0 24 -18.5 37.5t-51.5 13.5h-67l24 178h68q32 0 53 16t21 41q0 23 -14.5 36.5t-37.5 13.5q-29 0 -47.5 -19.5t-23.5 -50.5l-250 27q31 125 124 196.5t226 71.5
q127 0 207 -64.5t80 -163.5q0 -67 -37.5 -122.5t-95.5 -75.5q39 -21 62.5 -62.5t23.5 -91.5z" />
    <glyph glyph-name="uni215D" unicode="&#x215d;" horiz-adv-x="1794" 
d="M1163 569q0 109 88 185q87 75 219 75q123 0 202 -64.5t79 -164.5q0 -128 -117 -194q48 -25 74.5 -67.5t26.5 -96.5q0 -108 -97 -183q-94 -73 -241 -73q-140 0 -229 64.5t-89 166.5q0 72 43 130.5t111 78.5q-70 49 -70 143zM1384 565q0 -26 18.5 -43.5t47.5 -17.5
q31 0 51.5 20t20.5 51q0 26 -18.5 43t-45.5 17q-31 0 -52.5 -20t-21.5 -50zM1485 260q0 29 -19.5 47.5t-50.5 18.5q-32 0 -55 -21.5t-23 -52.5q0 -29 19.5 -46.5t50.5 -17.5q32 0 55 20.5t23 51.5zM205 0l1216 1470h287l-1214 -1470h-289zM459 1006q-45 0 -60 -35l-239 24
l104 475h510l-31 -219h-315l-25 -100q60 43 150 43q100 0 158.5 -60.5t58.5 -164.5q0 -147 -100 -236q-98 -92 -242 -92q-134 0 -223 71.5t-99 188.5l269 37q5 -32 23 -52t44 -20q31 0 51.5 22t20.5 54q0 29 -15 46.5t-40 17.5z" />
    <glyph glyph-name="uni215E" unicode="&#x215e;" horiz-adv-x="1712" 
d="M1116 569q0 109 88 185q87 75 219 75q123 0 202 -64.5t79 -164.5q0 -128 -117 -194q48 -25 74.5 -67.5t26.5 -96.5q0 -108 -97 -183q-94 -73 -241 -73q-140 0 -229 64.5t-89 166.5q0 72 43 130.5t111 78.5q-70 49 -70 143zM1337 565q0 -26 18.5 -43.5t47.5 -17.5
q31 0 51.5 20t20.5 51q0 26 -18.5 43t-45.5 17q-31 0 -52.5 -20t-21.5 -50zM1438 260q0 29 -19.5 47.5t-50.5 18.5q-32 0 -55 -21.5t-23 -52.5q0 -29 19.5 -46.5t50.5 -17.5q32 0 55 20.5t23 51.5zM158 0l1216 1470h287l-1215 -1470h-288zM541 1251h-152l-10 -92h-219
l43 311h639l-31 -221q-121 -112 -188 -250q-61 -130 -88 -344h-279q26 189 96 334.5t189 261.5z" />
    <glyph glyph-name="arrowleft" unicode="&#x2190;" horiz-adv-x="1544" 
d="M610 580l273 -297l-230 -217l-610 675l610 676l230 -217l-273 -297h926v-323h-926z" />
    <glyph glyph-name="arrowup" unicode="&#x2191;" horiz-adv-x="1378" 
d="M586 1495l676 -610l-213 -232l-299 275v-928h-328v928l-299 -275l-213 232z" />
    <glyph glyph-name="arrowright" unicode="&#x2192;" horiz-adv-x="1544" 
d="M948 66l-229 217l272 297h-925v323h925l-272 297l229 217l611 -676z" />
    <glyph glyph-name="arrowdown" unicode="&#x2193;" horiz-adv-x="1378" 
d="M1159 817l213 -231l-676 -611l-676 611l213 231l299 -274v927h328v-927z" />
    <glyph glyph-name="minus" unicode="&#x2212;" 
d="M1182 565h-1112l43 295h1110z" />
    <glyph glyph-name="commaaccent" unicode="&#xf6c3;" horiz-adv-x="1228" 
d="M434 -260h-129l29 199h387l-14 -113q-40 -300 -431 -285l19 133q124 -3 139 66z" />
    <glyph glyph-name="a.1" horiz-adv-x="1153" 
d="M1092 721l-62 -442q-22 -154 -22 -279h-363q-1 11 2 80q-114 -100 -303 -100q-155 0 -251.5 84t-96.5 219q0 161 132.5 261t375.5 120l201 20l4 31q6 47 -22 70.5t-91 23.5q-113 0 -133 -98h-373q31 189 171.5 292t367.5 103q234 0 360 -105q127 -106 103 -280zM489 254
q72 0 119.5 36.5t57.5 102.5l8 60l-162 -19q-135 -15 -135 -102q0 -37 29 -57.5t83 -20.5z" />
    <glyph glyph-name="aogonek.1" horiz-adv-x="1155" 
d="M756 -371q-103 0 -165.5 48.5t-62.5 129.5q0 108 117 199q-1 10 2 74q-114 -100 -303 -100q-155 0 -251.5 84t-96.5 219q0 161 132.5 261t375.5 120l201 20l4 31q6 47 -22 70.5t-91 23.5q-113 0 -133 -98h-373q31 189 171.5 292t367.5 103q234 0 360 -105
q127 -106 103 -280l-62 -442q-22 -154 -22 -279h-99q-131 -55 -131 -115q0 -47 66 -47q24 0 74 12l-29 -204q-83 -17 -133 -17zM489 254q72 0 119.5 36.5t57.5 102.5l8 60l-162 -19q-135 -15 -135 -102q0 -37 29 -57.5t83 -20.5z" />
    <glyph glyph-name="aacute.1" horiz-adv-x="1153" 
d="M827 1157h-313l137 313h461zM1092 721l-62 -442q-22 -154 -22 -279h-363q-1 11 2 80q-114 -100 -303 -100q-155 0 -251.5 84t-96.5 219q0 161 132.5 261t375.5 120l201 20l4 31q6 47 -22 70.5t-91 23.5q-113 0 -133 -98h-373q31 189 171.5 292t367.5 103q234 0 360 -105
q127 -106 103 -280zM489 254q72 0 119.5 36.5t57.5 102.5l8 60l-162 -19q-135 -15 -135 -102q0 -37 29 -57.5t83 -20.5z" />
    <glyph glyph-name="adieresis.1" horiz-adv-x="1153" 
d="M631 1167h-363l41 303h365zM1077 1167h-362l41 303h364zM1092 721l-62 -442q-22 -154 -22 -279h-363q-1 11 2 80q-114 -100 -303 -100q-155 0 -251.5 84t-96.5 219q0 161 132.5 261t375.5 120l201 20l4 31q6 47 -22 70.5t-91 23.5q-113 0 -133 -98h-373q31 189 171.5 292
t367.5 103q234 0 360 -105q127 -106 103 -280zM489 254q72 0 119.5 36.5t57.5 102.5l8 60l-162 -19q-135 -15 -135 -102q0 -37 29 -57.5t83 -20.5z" />
    <glyph glyph-name="acircumflex.1" horiz-adv-x="1153" 
d="M514 1470h373l166 -313h-271l-102 94l-129 -94h-289zM1092 721l-62 -442q-22 -154 -22 -279h-363q-1 11 2 80q-114 -100 -303 -100q-155 0 -251.5 84t-96.5 219q0 161 132.5 261t375.5 120l201 20l4 31q6 47 -22 70.5t-91 23.5q-113 0 -133 -98h-373q31 189 171.5 292
t367.5 103q234 0 360 -105q127 -106 103 -280zM489 254q72 0 119.5 36.5t57.5 102.5l8 60l-162 -19q-135 -15 -135 -102q0 -37 29 -57.5t83 -20.5z" />
    <glyph glyph-name="aring.1" horiz-adv-x="1153" 
d="M678 1147q-99 0 -163 62.5t-64 156.5q0 104 73 174q78 72 185 72q99 0 163 -62.5t64 -156.5q0 -104 -76 -174q-75 -72 -182 -72zM698 1456q-35 0 -57.5 -23.5t-22.5 -60.5q0 -31 19.5 -51.5t50.5 -20.5q35 0 57.5 24t22.5 60q0 32 -19.5 52t-50.5 20zM1092 721l-62 -442
q-22 -154 -22 -279h-363q-1 11 2 80q-114 -100 -303 -100q-155 0 -251.5 84t-96.5 219q0 161 132.5 261t375.5 120l201 20l4 31q6 47 -22 70.5t-91 23.5q-113 0 -133 -98h-373q31 189 171.5 292t367.5 103q234 0 360 -105q127 -106 103 -280zM489 254q72 0 119.5 36.5
t57.5 102.5l8 60l-162 -19q-135 -15 -135 -102q0 -37 29 -57.5t83 -20.5z" />
    <glyph glyph-name="abreve.1" horiz-adv-x="1153" 
d="M711 1384q41 0 69.5 23.5t36.5 62.5h262q-20 -154 -117.5 -235.5t-261.5 -81.5q-170 0 -261.5 84t-84.5 233h260q1 -38 28.5 -62t68.5 -24zM1092 721l-62 -442q-22 -154 -22 -279h-363q-1 11 2 80q-114 -100 -303 -100q-155 0 -251.5 84t-96.5 219q0 161 132.5 261
t375.5 120l201 20l4 31q6 47 -22 70.5t-91 23.5q-113 0 -133 -98h-373q31 189 171.5 292t367.5 103q234 0 360 -105q127 -106 103 -280zM489 254q72 0 119.5 36.5t57.5 102.5l8 60l-162 -19q-135 -15 -135 -102q0 -37 29 -57.5t83 -20.5z" />
    <glyph glyph-name="agrave.1" horiz-adv-x="1153" 
d="M780 1470l72 -313h-295l-215 313h438zM1092 721l-62 -442q-22 -154 -22 -279h-363q-1 11 2 80q-114 -100 -303 -100q-155 0 -251.5 84t-96.5 219q0 161 132.5 261t375.5 120l201 20l4 31q6 47 -22 70.5t-91 23.5q-113 0 -133 -98h-373q31 189 171.5 292t367.5 103
q234 0 360 -105q127 -106 103 -280zM489 254q72 0 119.5 36.5t57.5 102.5l8 60l-162 -19q-135 -15 -135 -102q0 -37 29 -57.5t83 -20.5z" />
    <glyph glyph-name="atilde.1" horiz-adv-x="1153" 
d="M553 1493q60 0 145 -53q49 -35 76 -35q52 0 86 88h234q-25 -156 -98 -246t-177 -90q-36 0 -67 11.5t-80 43.5q-53 33 -76 33q-57 0 -84 -88h-233q20 152 95 244t179 92zM1092 721l-62 -442q-22 -154 -22 -279h-363q-1 11 2 80q-114 -100 -303 -100q-155 0 -251.5 84
t-96.5 219q0 161 132.5 261t375.5 120l201 20l4 31q6 47 -22 70.5t-91 23.5q-113 0 -133 -98h-373q31 189 171.5 292t367.5 103q234 0 360 -105q127 -106 103 -280zM489 254q72 0 119.5 36.5t57.5 102.5l8 60l-162 -19q-135 -15 -135 -102q0 -37 29 -57.5t83 -20.5z" />
    <glyph glyph-name="amacron.1" horiz-adv-x="1153" 
d="M1057 1454l-39 -278h-703l39 278h703zM1092 721l-62 -442q-22 -154 -22 -279h-363q-1 11 2 80q-114 -100 -303 -100q-155 0 -251.5 84t-96.5 219q0 161 132.5 261t375.5 120l201 20l4 31q6 47 -22 70.5t-91 23.5q-113 0 -133 -98h-373q31 189 171.5 292t367.5 103
q234 0 360 -105q127 -106 103 -280zM489 254q72 0 119.5 36.5t57.5 102.5l8 60l-162 -19q-135 -15 -135 -102q0 -37 29 -57.5t83 -20.5z" />
    <glyph glyph-name="idotaccent" horiz-adv-x="571" 
d="M571 1167h-393l43 303h391zM166 1081h389l-152 -1081h-389z" />
    <glyph glyph-name="ordfeminine.1" horiz-adv-x="901" 
d="M887 1214l-43 -323q-19 -160 -19 -199h-250q-1 4 3 58q-75 -72 -218 -72q-112 0 -181.5 60t-69.5 157q0 115 93 186t265 88l151 17l5 24q9 70 -86 70q-86 0 -101 -74h-258q23 135 121.5 208t259.5 73q168 0 257.5 -74.5t70.5 -198.5zM459 870q55 0 89 26.5t42 76.5l6 49
l-121 -14q-102 -12 -102 -80q0 -27 22.5 -42.5t63.5 -15.5zM772 365h-737l31 213h737z" />
    <glyph glyph-name="a.ord" horiz-adv-x="899" 
d="M897 889l-29 -195q-97 -23 -173 -4.5t-109 70.5q-79 -82 -219 -82q-117 0 -189 60.5t-72 160.5q0 109 87 178t245 86l178 21l2 12q6 38 -16.5 59t-69.5 23q-43 0 -69 -18.5t-39 -59.5l-250 43q38 116 138.5 180t246.5 64q166 0 255.5 -77t70.5 -204l-39 -276
q-4 -25 7 -34t44 -7zM455 868q55 0 90 27.5t41 75.5l8 49l-121 -14q-102 -15 -102 -80q0 -27 22 -42.5t62 -15.5z" />
    <glyph glyph-name="a.1.ord" horiz-adv-x="901" 
d="M887 1214l-43 -323q-19 -160 -19 -199h-250q-1 4 3 58q-75 -72 -218 -72q-112 0 -181.5 60t-69.5 157q0 115 93 186t265 88l151 17l5 24q9 70 -86 70q-86 0 -101 -74h-258q23 135 121.5 208t259.5 73q168 0 257.5 -74.5t70.5 -198.5zM459 870q55 0 89 26.5t42 76.5l6 49
l-121 -14q-102 -12 -102 -80q0 -27 22.5 -42.5t63.5 -15.5z" />
    <glyph glyph-name="b.ord" horiz-adv-x="985" 
d="M907 827q-105 -151 -278 -151q-68 0 -124 26.5t-87 71.5l-10 -82h-269l148 1057h270l-49 -352q32 43 86 66.5t117 23.5q133 0 210.5 -93.5t77.5 -252.5q0 -183 -92 -314zM610 1260q-60 0 -99 -41.5t-46 -114.5l-6 -39q-8 -73 23 -117.5t91 -44.5q67 0 110.5 60t43.5 153
q0 68 -31 106t-86 38z" />
    <glyph glyph-name="c.ord" horiz-adv-x="860" 
d="M559 1268q-69 0 -114.5 -62.5t-45.5 -156.5q0 -73 30.5 -113.5t86.5 -40.5q99 0 135 117l221 -82q-35 -118 -135 -186t-239 -68q-158 0 -258 100q-101 101 -101 256q0 187 117 320q123 135 313 135q138 0 232 -72.5t108 -185.5l-239 -76q-6 55 -35 85t-76 30z" />
    <glyph glyph-name="d.ord" horiz-adv-x="985" 
d="M424 678q-130 0 -208.5 94t-78.5 250q0 184 92 315q105 152 279 152q68 0 124 -26.5t85 -73.5l51 360h268l-147 -1057h-268l8 74q-73 -88 -205 -88zM672 1061l4 37q11 69 -21 115.5t-92 46.5q-67 0 -110 -59.5t-43 -153.5q0 -68 29.5 -106t84.5 -38q62 0 101.5 41.5
t46.5 116.5z" />
    <glyph glyph-name="e.ord" horiz-adv-x="901" 
d="M514 676q-170 0 -272.5 97t-102.5 257q0 190 121 324q121 133 313 133q181 0 275 -117q94 -114 67 -299l-6 -49h-512q12 -137 135 -137q104 0 146 92l209 -78q-51 -104 -150.5 -163.5t-222.5 -59.5zM561 1286q-48 0 -85.5 -28.5t-57.5 -81.5h252q4 49 -26.5 79.5
t-82.5 30.5z" />
    <glyph glyph-name="f.ord" horiz-adv-x="579" 
d="M707 1753l-29 -199q-72 12 -104.5 -2t-38.5 -61l-3 -21h134l-31 -219h-135l-76 -559h-270l77 559h-96l31 219h96l6 46q47 308 439 237z" />
    <glyph glyph-name="g.ord" horiz-adv-x="995" 
d="M1008 1470l-97 -690q-25 -174 -140 -267t-306 -93q-155 0 -253.5 62t-121.5 175l258 48q13 -41 50.5 -64t88.5 -23q62 0 102 37.5t50 104.5l6 43q-63 -82 -199 -82q-135 0 -217 90t-82 238q0 176 97 299q105 139 274 139q68 0 123 -24.5t86 -67.5l12 75h269zM686 1090
l4 26q11 68 -20.5 111t-91.5 43q-67 0 -109.5 -55t-42.5 -142q0 -66 30 -100.5t87 -34.5t95 40t48 112z" />
    <glyph glyph-name="h.ord" horiz-adv-x="972" 
d="M408 692h-269l148 1057h270l-49 -348q35 41 92 63.5t121 22.5q122 0 185 -81t44 -216l-69 -498h-269l62 443q15 112 -84 112q-50 0 -83 -34t-40 -95z" />
    <glyph glyph-name="i.ord" horiz-adv-x="501" 
d="M526 1536h-270l29 213h272zM246 1470h270l-108 -778h-271z" />
    <glyph glyph-name="j.ord" horiz-adv-x="456" 
d="M481 1536h-272l31 213h272zM94 707l107 763h270l-109 -776q-25 -168 -128.5 -230.5t-303.5 -27.5l27 199q74 -11 102 3.5t35 68.5z" />
    <glyph glyph-name="k.ord" horiz-adv-x="952" 
d="M287 1749h270l-74 -516l244 237h320l-312 -286l221 -492h-292l-140 297l-86 -78l-30 -219h-269z" />
    <glyph glyph-name="l.ord" horiz-adv-x="503" 
d="M287 1749h270l-149 -1057h-269z" />
    <glyph glyph-name="m.ord" horiz-adv-x="1431" 
d="M586 1247q-45 0 -77.5 -32.5t-39.5 -86.5l-61 -436h-269l109 778h268l-8 -69q86 86 215 86q148 0 199 -111q111 111 258 111q122 0 186.5 -78.5t44.5 -202.5l-72 -514h-268l62 438q8 56 -12.5 86.5t-67.5 30.5t-78 -31.5t-39 -87.5l-64 -436h-268l62 438q15 117 -80 117z
" />
    <glyph glyph-name="n.ord" horiz-adv-x="972" 
d="M408 692h-269l109 778h268l-8 -69q35 41 92 63.5t121 22.5q122 0 185 -81t44 -216l-69 -498h-269l62 443q15 112 -84 112q-50 0 -83 -34t-40 -95z" />
    <glyph glyph-name="o.ord" horiz-adv-x="923" 
d="M567 1487q168 0 268.5 -99t100.5 -264q0 -187 -117 -317q-125 -131 -309 -131q-168 0 -269.5 98.5t-101.5 263.5q0 188 117 318q125 131 311 131zM561 1270q-67 0 -111 -63t-44 -160q0 -152 112 -152q68 0 112 63t44 160q0 72 -29.5 112t-83.5 40z" />
    <glyph glyph-name="p.ord" horiz-adv-x="985" 
d="M907 827q-105 -151 -278 -151q-68 0 -124 26.5t-87 71.5l-47 -338h-269l146 1034h268l-8 -73q32 43 86 66.5t117 23.5q133 0 210.5 -93.5t77.5 -252.5q0 -183 -92 -314zM610 1260q-60 0 -99 -41.5t-46 -114.5l-6 -39q-8 -73 23 -117.5t91 -44.5q67 0 110.5 60t43.5 153
q0 68 -31 106t-86 38z" />
    <glyph glyph-name="q.ord" horiz-adv-x="985" 
d="M424 678q-130 0 -208.5 94t-78.5 250q0 184 92 315q105 152 279 152q68 0 124 -26.5t85 -73.5l12 81h268l-145 -1034h-268l45 330q-73 -88 -205 -88zM672 1061l4 37q11 69 -21 115.5t-92 46.5q-67 0 -110 -59.5t-43 -153.5q0 -68 29.5 -106t84.5 -38q62 0 101.5 41.5
t46.5 116.5z" />
    <glyph glyph-name="r.ord" horiz-adv-x="694" 
d="M709 1475q8 0 27 -2t26 -3l-37 -253q-47 8 -68 8q-84 0 -135.5 -45t-62.5 -127l-51 -361h-269l109 778h268l-12 -92q79 97 205 97z" />
    <glyph glyph-name="s.ord" horiz-adv-x="817" 
d="M444 676q-106 0 -213 37q-104 36 -161 90l118 178q54 -49 130.5 -80t144.5 -31q90 0 90 56q0 24 -24.5 36t-88.5 23q-146 26 -210 78.5t-64 146.5q0 123 99 200t259 77q102 0 195 -35.5t143 -91.5l-131 -156q-37 41 -96.5 67.5t-116.5 26.5q-82 0 -82 -51
q0 -23 24.5 -35.5t88.5 -23.5q140 -25 205 -79t65 -146q0 -128 -104 -207.5t-271 -79.5z" />
    <glyph glyph-name="t.ord" horiz-adv-x="618" 
d="M440 686q-150 0 -211.5 57t-44.5 181l45 327h-96l31 219h96l29 209h266l-29 -209h146l-33 -219h-143l-39 -268q-5 -39 14 -55.5t68 -16.5q30 0 61 4l-31 -219q-59 -10 -129 -10z" />
    <glyph glyph-name="u.ord" horiz-adv-x="972" 
d="M717 1470h268l-108 -778h-271l10 70q-75 -84 -213 -84q-123 0 -185.5 80.5t-43.5 214.5l68 497h270l-61 -442q-15 -113 81 -113q51 0 83.5 34t39.5 95z" />
    <glyph glyph-name="v.ord" horiz-adv-x="864" 
d="M973 1470l-398 -778h-266l-155 778h266l72 -446l208 446h273z" />
    <glyph glyph-name="w.ord" horiz-adv-x="1202" 
d="M459 1057l176 413h192l35 -413l182 413h265l-367 -778h-225l-49 383l-174 -383h-232l-108 778h260z" />
    <glyph glyph-name="x.ord" horiz-adv-x="878" 
d="M881 692h-285l-100 205l-158 -205h-295l319 402l-198 376h285l90 -182l141 182h295l-305 -376z" />
    <glyph glyph-name="y.ord" horiz-adv-x="864" 
d="M973 1470l-389 -763q-82 -163 -158 -226q-69 -57 -190 -57q-59 0 -123 10l28 205q54 -6 64 -6q70 0 96 59l18 37l-165 741h266l82 -440l198 440h273z" />
    <glyph glyph-name="z.ord" horiz-adv-x="858" 
d="M494 911h325l-28 -219h-682l28 193l387 366h-331l28 219h674l-29 -192z" />
    <glyph glyph-name="caron.Slovak" horiz-adv-x="1228" 
d="M723 1118h-266l84 352h401z" />
    <glyph glyph-name="commaturn" horiz-adv-x="1228" 
d="M795 1356h129l-29 -199h-387l14 113q40 299 430 284l-18 -133q-125 3 -139 -65z" />
    <glyph glyph-name="grave.cap" horiz-adv-x="1228" 
d="M973 1884l104 -342h-317l-281 342h494z" />
    <glyph glyph-name="acute.cap" horiz-adv-x="1228" 
d="M760 1542h-336l180 342h516z" />
    <glyph glyph-name="circumflex.cap" horiz-adv-x="1228" 
d="M612 1884h381l187 -342h-273l-125 121l-159 -121h-293z" />
    <glyph glyph-name="caron.cap" horiz-adv-x="1228" 
d="M1227 1884l-281 -342h-383l-184 342h272l125 -121l160 121h291z" />
    <glyph glyph-name="tilde.cap" horiz-adv-x="1228" 
d="M635 1925q39 0 75.5 -12t90.5 -47q61 -37 92 -37q33 0 57.5 24.5t36.5 71.5h254q-23 -175 -106.5 -279t-204.5 -104q-39 0 -75.5 12.5t-90.5 47.5q-63 38 -94 38q-33 0 -57.5 -25.5t-34.5 -72.5h-254q23 175 106.5 279t204.5 104z" />
    <glyph glyph-name="macron.cap" horiz-adv-x="1228" 
d="M1186 1829l-41 -281h-778l39 281h780z" />
    <glyph glyph-name="breve.cap" horiz-adv-x="1228" 
d="M799 1788q47 0 80 30t41 80h272q-23 -172 -129 -265t-279 -93q-169 0 -272 92q-54 50 -78 119t-14 147h276q0 -50 28 -80t75 -30z" />
    <glyph glyph-name="dotaccent.cap" horiz-adv-x="1228" 
d="M952 1542h-395l47 326h393z" />
    <glyph glyph-name="dieresis.cap" horiz-adv-x="1228" 
d="M711 1542h-365l47 326h363zM1163 1542h-362l45 326h364z" />
    <glyph glyph-name="ring.cap" horiz-adv-x="1228" 
d="M780 1532q-130 0 -212.5 77t-82.5 199q0 125 93 215q91 88 229 88q129 0 212 -78t83 -200q0 -124 -92 -213q-91 -88 -230 -88zM797 1923q-44 0 -73.5 -30.5t-29.5 -77.5q0 -41 28 -68t69 -27q42 0 71 31t29 76q0 43 -26.5 69.5t-67.5 26.5z" />
    <glyph glyph-name="hungarumlaut.cap" horiz-adv-x="1228" 
d="M1014 1556h-295l203 342h407zM549 1556h-295l203 342h407z" />
    <glyph glyph-name="guilsinglleft.cap" horiz-adv-x="579" 
d="M481 209l-432 305l45 320l518 305l-51 -375l-176 -109l145 -110z" />
    <glyph glyph-name="guilsinglright.cap" horiz-adv-x="579" 
d="M137 1139l432 -305l-45 -320l-518 -305l51 375l176 108l-145 111z" />
    <glyph glyph-name="guillemotleft.cap" horiz-adv-x="1122" 
d="M479 209l-432 305l45 320l518 305l-51 -375l-176 -109l145 -110zM1022 209l-432 305l45 320l518 305l-51 -375l-176 -109l145 -110z" />
    <glyph glyph-name="guillemotright.cap" horiz-adv-x="1122" 
d="M1112 834l-45 -320l-518 -305l51 375l176 108l-145 111l49 336zM569 834l-45 -320l-518 -305l51 375l176 108l-145 111l49 336z" />
    <glyph glyph-name="slash.cap" horiz-adv-x="1026" 
d="M326 -137h-402l824 1712h403z" />
    <glyph glyph-name="backslash.cap" horiz-adv-x="1026" 
d="M543 1575l366 -1712h-377l-366 1712h377z" />
    <glyph glyph-name="bar.cap" horiz-adv-x="606" 
d="M395 -137h-377l242 1712h377z" />
    <glyph glyph-name="periodcentered.cap" horiz-adv-x="600" 
d="M518 537h-436l57 417h436z" />
    <glyph glyph-name="bullet.cap" horiz-adv-x="927" 
d="M772 463q-126 -135 -309 -135q-162 0 -270 102q-109 103 -109 260q0 88 32.5 170.5t92.5 145.5q130 133 311 133q162 0 266 -101q111 -105 111 -262q0 -88 -32.5 -170t-92.5 -143z" />
    <glyph glyph-name="hyphen.cap" horiz-adv-x="796" 
d="M715 555h-631l47 354h633z" />
    <glyph glyph-name="endash.cap" horiz-adv-x="1110" 
d="M1032 571h-946l45 320h946z" />
    <glyph glyph-name="emdash.cap" horiz-adv-x="1998" 
d="M1921 571h-1835l45 320h1835z" />
    <glyph glyph-name="parenleft.cap" horiz-adv-x="796" 
d="M498 561q0 -195 52 -380t144 -318h-332q-131 153 -201.5 338t-70.5 381q0 283 131 548q132 270 352 445h363q-215 -233 -326.5 -491.5t-111.5 -522.5z" />
    <glyph glyph-name="parenright.cap" horiz-adv-x="796" 
d="M756 856q0 -283 -131 -551q-131 -266 -353 -442h-362q215 233 326.5 491.5t111.5 522.5q0 195 -52 380t-144 318h331q131 -153 202 -338.5t71 -380.5z" />
    <glyph glyph-name="bracketleft.cap" horiz-adv-x="708" 
d="M793 1286h-238l-160 -1136h238l-41 -287h-606l241 1712h607z" />
    <glyph glyph-name="bracketright.cap" horiz-adv-x="708" 
d="M-33 152h238l160 1136h-238l41 287h606l-242 -1712h-606z" />
    <glyph glyph-name="braceleft.cap" horiz-adv-x="804" 
d="M141 567h-96l41 303h96q88 0 103 103l32 241q26 177 141.5 269t311.5 92h160l-43 -289h-60q-149 0 -170 -149l-28 -199q-23 -159 -162 -221q125 -64 100 -217l-28 -199q-21 -149 127 -149h63l-41 -289h-119q-197 0 -302.5 97.5t-88.5 264.5l35 240q12 102 -72 102z" />
    <glyph glyph-name="braceright.cap" horiz-adv-x="804" 
d="M713 870h96l-41 -303h-96q-88 0 -103 -102l-32 -242q-26 -177 -141.5 -268.5t-311.5 -91.5h-160l43 289h60q149 0 170 149l28 199q23 159 162 221q-125 64 -100 217l28 199q21 149 -127 149h-63l41 289h119q197 0 302.5 -98t88.5 -265l-35 -239q-12 -103 72 -103z" />
    <glyph glyph-name="at.cap" horiz-adv-x="1884" 
d="M1409 502q45 0 92.5 43.5t79.5 116.5q51 114 51 241q0 204 -141 320t-391 116q-160 0 -303 -54.5t-248 -156.5q-111 -105 -171.5 -245t-60.5 -293q3 -245 166 -389q165 -142 441 -142q277 0 491 140l98 -203q-239 -174 -602 -174q-175 0 -329.5 50t-268.5 146
q-125 105 -191.5 249t-66.5 315q0 203 82 390t234 326q147 136 334.5 207.5t400.5 71.5q326 0 541 -164q117 -90 178 -218.5t61 -281.5q0 -258 -143 -446q-80 -99 -187 -153t-225 -54q-90 0 -164 30.5t-118 86.5q-105 -111 -265 -111q-142 0 -225.5 89.5t-83.5 242.5
q0 100 34 196.5t97 174.5q67 85 156 130.5t186 45.5q78 0 140.5 -30.5t93.5 -84.5l35 96h311l-166 -524q-14 -47 -1.5 -73.5t48.5 -26.5zM903 516q43 0 78.5 39t60.5 113l25 71q23 72 4.5 115t-70.5 43q-66 0 -122 -86t-56 -188q0 -107 80 -107z" />
    <glyph glyph-name="zero.dnom" horiz-adv-x="778" 
d="M332 -14q-137 0 -213 88.5t-76 251.5q0 224 100 362q102 141 267 141q137 0 212.5 -88.5t75.5 -251.5q0 -221 -102 -362t-264 -141zM395 596q-40 0 -67 -94q-29 -102 -29 -193q0 -90 47 -90q41 0 68 94q28 98 28 193q0 90 -47 90z" />
    <glyph glyph-name="one.dnom" horiz-adv-x="778" 
d="M240 231l39 269h-181l27 184l82 6q129 9 168 125h215l-82 -584h137l-33 -231h-581l32 231h177z" />
    <glyph glyph-name="two.dnom" horiz-adv-x="778" 
d="M0 0l29 201l295 200q112 75 112 138q0 25 -15 40t-40 15q-32 0 -52 -22.5t-20 -59.5q0 -8 2.5 -24.5t3.5 -22.5h-241q-8 31 -8 55q0 136 98 221q98 88 248 88q129 0 207.5 -67.5t78.5 -179.5q0 -151 -151 -260l-129 -91h241l-32 -231h-627z" />
    <glyph glyph-name="three.dnom" horiz-adv-x="778" 
d="M664 250q0 -110 -91 -189q-87 -75 -231 -75q-140 0 -229 72.5t-93 193.5l267 29q2 -33 19.5 -51.5t47.5 -18.5q27 0 45.5 16.5t18.5 40.5t-18.5 37.5t-51.5 13.5h-67l24 179h68q32 0 52.5 16t20.5 41q0 23 -14 36t-37 13q-29 0 -47.5 -19t-23.5 -50l-250 26
q31 125 124 196.5t226 71.5q127 0 207 -64t80 -163q0 -67 -37.5 -123t-95.5 -76q39 -21 62.5 -62t23.5 -91z" />
    <glyph glyph-name="four.dnom" horiz-adv-x="778" 
d="M590 162l-23 -162h-241l22 162h-375l27 190l342 463h340l-64 -448h111l-31 -205h-108zM408 623l-191 -256h154z" />
    <glyph glyph-name="five.dnom" horiz-adv-x="778" 
d="M367 350q-45 0 -60 -35l-239 25l104 475h510l-31 -219h-315l-25 -100q60 43 150 43q100 0 158.5 -61t58.5 -165q0 -146 -100 -235q-98 -92 -242 -92q-134 0 -223 71.5t-99 188.5l269 37q5 -32 23 -52t44 -20q31 0 51.5 22t20.5 54q0 29 -15 46t-40 17z" />
    <glyph glyph-name="six.dnom" horiz-adv-x="778" 
d="M455 829q109 0 184.5 -53.5t95.5 -144.5l-217 -78q-16 61 -84 61q-50 0 -82.5 -36t-36.5 -97q57 45 134 45q103 0 167 -63t64 -166q0 -130 -94 -221q-96 -90 -234 -90q-146 0 -228.5 92t-82.5 252q0 199 109 338q118 161 305 161zM438 281q0 31 -20 50t-51 19
q-33 0 -56.5 -26t-23.5 -62q0 -32 19 -52t50 -20q35 0 58.5 27t23.5 64z" />
    <glyph glyph-name="seven.dnom" horiz-adv-x="778" 
d="M449 596h-152l-10 -92h-219l43 311h639l-31 -221q-122 -114 -189 -250q-61 -130 -88 -344h-278q26 189 96 334.5t189 261.5z" />
    <glyph glyph-name="eight.dnom" horiz-adv-x="778" 
d="M100 569q0 109 88 185q87 75 220 75q123 0 201.5 -64.5t78.5 -164.5q0 -128 -117 -194q48 -25 74.5 -67.5t26.5 -96.5q0 -108 -97 -183q-94 -73 -241 -73q-140 0 -229 64.5t-89 166.5q0 72 43 130.5t111 78.5q-70 49 -70 143zM322 565q0 -27 18 -44t47 -17q31 0 51.5 20
t20.5 51q0 26 -18.5 43t-45.5 17q-31 0 -52 -20t-21 -50zM422 260q0 29 -19.5 47.5t-50.5 18.5q-32 0 -55 -21.5t-23 -52.5q0 -29 19.5 -46.5t50.5 -17.5q32 0 55 20.5t23 51.5z" />
    <glyph glyph-name="nine.dnom" horiz-adv-x="778" 
d="M285 -14q-109 0 -185 53.5t-96 144.5l217 78q16 -61 84 -61q50 0 82.5 36t36.5 97q-57 -45 -133 -45q-103 0 -167.5 63.5t-64.5 165.5q0 130 95 219q95 92 233 92q146 0 228.5 -92t82.5 -252q0 -200 -108 -338q-118 -161 -305 -161zM301 535q0 -31 20.5 -50.5t51.5 -19.5
q33 0 56.5 26t23.5 62q0 32 -19.5 52t-50.5 20q-35 0 -58.5 -26.5t-23.5 -63.5z" />
    <glyph glyph-name="colon.mid" horiz-adv-x="540" 
d="M457 207h-437l58 418h436zM549 854h-436l57 418h436z" />
    <glyph glyph-name="commaturncmb" horiz-adv-x="0" 
d="M66 1356h129l-29 -199h-387l14 113q40 299 430 284l-18 -133q-125 3 -139 -65z" />
    <glyph glyph-name="commaaccentcmb" horiz-adv-x="0" 
d="M-66 -260h-129l29 199h387l-14 -113q-40 -300 -430 -285l18 133q124 -3 139 66z" />
    <glyph glyph-name="g.1" horiz-adv-x="1218" 
d="M266 1012q134 94 342 94q224 0 353 -107q44 55 114 86t150 31q42 0 78 -8l-46 -317q-44 14 -75 14q-71 0 -107 -45v-6q0 -91 -42 -169t-120 -134q-135 -97 -340 -97q-103 0 -196 27q-33 -14 -33 -45q0 -20 15.5 -31.5t41.5 -11.5h351q182 0 279 -69t97 -197
q0 -105 -59.5 -189.5t-171.5 -138.5q-162 -78 -416 -78q-268 0 -421.5 74t-153.5 203q0 74 45 131.5t129 89.5q-37 20 -57.5 58t-20.5 85q0 72 52.5 132t140.5 91q-89 92 -89 224q0 91 42 169.5t118 133.5zM723 739q0 44 -34 71.5t-89 27.5q-61 0 -97 -32.5t-36 -84.5
q0 -44 33 -71t88 -27q62 0 98.5 31t36.5 85zM279 -63q0 -80 215 -80q256 0 256 94q0 47 -80 47h-297q-44 0 -69 -16t-25 -45z" />
    <glyph glyph-name="ae.1" horiz-adv-x="1804" 
d="M625 1106q205 0 315 -113q153 113 348 113q253 0 389 -168q128 -166 90 -416l-10 -67h-706q7 -87 53.5 -133t124.5 -46q67 0 117.5 32t76.5 91l301 -108q-67 -146 -207.5 -231t-312.5 -85q-273 0 -411 179q-63 -85 -165 -131t-229 -46q-182 0 -291.5 86.5t-109.5 229.5
q-2 174 150.5 275.5t416.5 101.5h135l7 45q6 47 -21 70.5t-90 23.5q-111 0 -131 -98h-375q32 189 172 292t363 103zM1270 817q-131 0 -191 -147h332q6 66 -33 106.5t-108 40.5zM375 346q0 -41 30 -64.5t80 -23.5q69 0 118.5 43t60.5 109l6 45h-117q-84 0 -131 -29t-47 -80z
" />
    <glyph glyph-name="aeacute.1" horiz-adv-x="1804" 
d="M625 1106q205 0 315 -113q153 113 348 113q253 0 389 -168q128 -166 90 -416l-10 -67h-706q7 -87 53.5 -133t124.5 -46q67 0 117.5 32t76.5 91l301 -108q-67 -146 -207.5 -231t-312.5 -85q-273 0 -411 179q-63 -85 -165 -131t-229 -46q-182 0 -291.5 86.5t-109.5 229.5
q-2 174 150.5 275.5t416.5 101.5h135l7 45q6 47 -21 70.5t-90 23.5q-111 0 -131 -98h-375q32 189 172 292t363 103zM1270 817q-131 0 -191 -147h332q6 66 -33 106.5t-108 40.5zM375 346q0 -41 30 -64.5t80 -23.5q69 0 118.5 43t60.5 109l6 45h-117q-84 0 -131 -29t-47 -80z
M1112 1157h-313l137 313h461z" />
    <glyph glyph-name="gbreve.1" horiz-adv-x="1218" 
d="M266 1012q134 94 342 94q224 0 353 -107q44 55 114 86t150 31q42 0 78 -8l-46 -317q-44 14 -75 14q-71 0 -107 -45v-6q0 -91 -42 -169t-120 -134q-135 -97 -340 -97q-103 0 -196 27q-33 -14 -33 -45q0 -20 15.5 -31.5t41.5 -11.5h351q182 0 279 -69t97 -197
q0 -105 -59.5 -189.5t-171.5 -138.5q-162 -78 -416 -78q-268 0 -421.5 74t-153.5 203q0 74 45 131.5t129 89.5q-37 20 -57.5 58t-20.5 85q0 72 52.5 132t140.5 91q-89 92 -89 224q0 91 42 169.5t118 133.5zM723 739q0 44 -34 71.5t-89 27.5q-61 0 -97 -32.5t-36 -84.5
q0 -44 33 -71t88 -27q62 0 98.5 31t36.5 85zM279 -63q0 -80 215 -80q256 0 256 94q0 47 -80 47h-297q-44 0 -69 -16t-25 -45zM709 1384q41 0 69.5 23.5t36.5 62.5h262q-20 -154 -117.5 -235.5t-261.5 -81.5q-170 0 -261.5 84t-84.5 233h260q1 -38 28.5 -62t68.5 -24z" />
    <glyph glyph-name="gcircumflex.1" horiz-adv-x="1218" 
d="M266 1012q134 94 342 94q224 0 353 -107q44 55 114 86t150 31q42 0 78 -8l-46 -317q-44 14 -75 14q-71 0 -107 -45v-6q0 -91 -42 -169t-120 -134q-135 -97 -340 -97q-103 0 -196 27q-33 -14 -33 -45q0 -20 15.5 -31.5t41.5 -11.5h351q182 0 279 -69t97 -197
q0 -105 -59.5 -189.5t-171.5 -138.5q-162 -78 -416 -78q-268 0 -421.5 74t-153.5 203q0 74 45 131.5t129 89.5q-37 20 -57.5 58t-20.5 85q0 72 52.5 132t140.5 91q-89 92 -89 224q0 91 42 169.5t118 133.5zM723 739q0 44 -34 71.5t-89 27.5q-61 0 -97 -32.5t-36 -84.5
q0 -44 33 -71t88 -27q62 0 98.5 31t36.5 85zM279 -63q0 -80 215 -80q256 0 256 94q0 47 -80 47h-297q-44 0 -69 -16t-25 -45zM526 1470h373l166 -313h-270l-103 94l-129 -94h-289z" />
    <glyph glyph-name="gcommaaccent.1" horiz-adv-x="1218" 
d="M266 1012q134 94 342 94q224 0 353 -107q44 55 114 86t150 31q42 0 78 -8l-46 -317q-44 14 -75 14q-71 0 -107 -45v-6q0 -91 -42 -169t-120 -134q-135 -97 -340 -97q-103 0 -196 27q-33 -14 -33 -45q0 -20 15.5 -31.5t41.5 -11.5h351q182 0 279 -69t97 -197
q0 -105 -59.5 -189.5t-171.5 -138.5q-162 -78 -416 -78q-268 0 -421.5 74t-153.5 203q0 74 45 131.5t129 89.5q-37 20 -57.5 58t-20.5 85q0 72 52.5 132t140.5 91q-89 92 -89 224q0 91 42 169.5t118 133.5zM723 739q0 44 -34 71.5t-89 27.5q-61 0 -97 -32.5t-36 -84.5
q0 -44 33 -71t88 -27q62 0 98.5 31t36.5 85zM279 -63q0 -80 215 -80q256 0 256 94q0 47 -80 47h-297q-44 0 -69 -16t-25 -45zM764 1356h129l-29 -199h-387l15 113q40 299 430 284l-19 -133q-125 3 -139 -65z" />
    <glyph glyph-name="gdotaccent.1" horiz-adv-x="1218" 
d="M266 1012q134 94 342 94q224 0 353 -107q44 55 114 86t150 31q42 0 78 -8l-46 -317q-44 14 -75 14q-71 0 -107 -45v-6q0 -91 -42 -169t-120 -134q-135 -97 -340 -97q-103 0 -196 27q-33 -14 -33 -45q0 -20 15.5 -31.5t41.5 -11.5h351q182 0 279 -69t97 -197
q0 -105 -59.5 -189.5t-171.5 -138.5q-162 -78 -416 -78q-268 0 -421.5 74t-153.5 203q0 74 45 131.5t129 89.5q-37 20 -57.5 58t-20.5 85q0 72 52.5 132t140.5 91q-89 92 -89 224q0 91 42 169.5t118 133.5zM723 739q0 44 -34 71.5t-89 27.5q-61 0 -97 -32.5t-36 -84.5
q0 -44 33 -71t88 -27q62 0 98.5 31t36.5 85zM279 -63q0 -80 215 -80q256 0 256 94q0 47 -80 47h-297q-44 0 -69 -16t-25 -45zM872 1167h-391l41 303h393z" />
    <glyph glyph-name="g.1.ord" horiz-adv-x="950" 
d="M186 1198q0 128 100 208.5t259 80.5q162 0 252 -78q67 86 188 86q41 0 55 -6l-32 -221q-33 10 -52 10q-46 0 -79 -33v-12q0 -128 -99 -208.5t-258 -80.5q-82 0 -141 21q-29 -13 -29 -37q0 -14 11.5 -22.5t31.5 -8.5h254q128 0 197 -50t69 -142q0 -136 -122 -214.5
t-338 -78.5q-191 0 -299.5 53t-108.5 147q0 51 32.5 92t90.5 64q-55 36 -55 102q0 53 37 98.5t98 69.5q-62 62 -62 160zM633 1223q0 35 -25.5 55t-68.5 20q-44 0 -72.5 -25.5t-28.5 -64.5q0 -35 24.5 -55t67.5 -20q47 0 75 24.5t28 65.5zM301 639q0 -59 160 -59
q186 0 186 71q0 35 -61 35h-213q-72 0 -72 -47z" />
    <glyph glyph-name="Euro.lt" 
d="M168 477h-137l32 219h105l10 82h-104l30 221h127q82 232 243 364t364 132q200 0 320 -119.5t140 -337.5l-337 -98q-15 225 -156 225q-62 0 -118 -43.5t-97 -122.5h278l-73 -221h-275q-7 -64 -8 -82h254l-74 -219h-172q34 -172 170 -172q146 0 203 221l324 -114
q-74 -214 -213 -325.5t-334 -111.5q-223 0 -351 128t-151 374z" />
    <glyph glyph-name="dollar.lt" 
d="M-43 260l225 262q127 -164 312 -215l43 311q-194 47 -277 113q-125 94 -125 260q0 100 41 189t119 155q136 118 362 140l27 194h231l-28 -207q135 -23 244.5 -83t164.5 -142l-231 -242q-82 113 -221 164l-41 -285q195 -51 274 -114q123 -99 123 -262q0 -99 -41.5 -190.5
t-116.5 -160.5q-144 -128 -362 -149l-29 -201h-229l29 207q-161 25 -294.5 94t-199.5 162zM477 1042q0 -70 105 -108l32 242q-62 -12 -99.5 -49t-37.5 -85zM872 438q0 77 -114 121l-37 -262q72 14 111.5 50.5t39.5 90.5z" />
    <glyph glyph-name="cent.lt" 
d="M694 -197h-245l26 191q-180 43 -285.5 181.5t-105.5 330.5q0 242 154 426q153 185 399 213l27 184l245 2l-28 -198q130 -32 224 -115.5t132 -200.5l-270 -151q-25 105 -129 157l-76 -532q114 38 178 164l227 -162q-66 -129 -182.5 -210t-265.5 -101zM408 524
q0 -153 112 -215l74 520q-86 -35 -136 -117.5t-50 -187.5z" />
    <glyph glyph-name="sterling.lt" horiz-adv-x="1243" 
d="M467 92q-123 -117 -256 -117q-113 0 -182.5 68t-69.5 178q0 129 82 211q83 86 215 86q68 0 113 -18q0 9 -9 69h-223l31 230h111q-35 95 -35 178q0 105 43 203t121 170q151 145 387 145q207 0 330.5 -112t123.5 -302q0 -96 -49 -219h-338q41 84 41 158q0 66 -35.5 103.5
t-97.5 37.5q-72 0 -121 -56.5t-49 -141.5q0 -41 14 -84l31 -80h205l-31 -230h-141q-3 -91 -45 -217q62 -33 121 -33q69 0 107 45.5t50 139.5h314q-35 -251 -158 -390t-311 -139q-166 0 -289 117zM231 319q-26 0 -42.5 -18t-16.5 -45q0 -25 16 -40t41 -15q47 0 88 63
q-47 55 -86 55z" />
    <glyph glyph-name="yen.lt" 
d="M391 342h-317l32 236h320l10 81h-319l35 234h217l-244 577h416l149 -415l268 415h424l-405 -577h219l-33 -234h-319l-10 -81h317l-33 -236h-319l-47 -342h-408z" />
    <glyph glyph-name="florin.lt" 
d="M424 627h-170l37 264h198l35 145q54 226 180 342.5t316 116.5q202 0 332 -111l-172 -258q-49 52 -107 52q-51 0 -88.5 -38.5t-56.5 -107.5l-35 -141h190l-39 -264h-213l-47 -193q-51 -226 -178.5 -342.5t-322.5 -116.5q-186 0 -328 107l172 260q49 -49 113 -49
q49 0 84.5 37.5t54.5 107.5z" />
    <glyph glyph-name="zero.lt" 
d="M575 -25q-236 0 -368 164q-133 165 -133 451q0 354 147 596q91 150 221 229.5t285 79.5q237 0 369 -164q133 -165 133 -450q0 -352 -148 -596q-91 -150 -221 -230t-285 -80zM502 924q-47 -146 -47 -330q0 -279 139 -279q63 0 118.5 61t90.5 171q47 139 47 330
q0 136 -36 207t-105 71q-63 0 -117.5 -60.5t-89.5 -170.5z" />
    <glyph glyph-name="one.lt" 
d="M705 1475h296l-159 -1139h293l-48 -336h-1032l47 336h353l84 602h-336l41 293l139 10q128 7 203 61.5t119 172.5z" />
    <glyph glyph-name="two.lt" 
d="M2 0l39 279l498 368q160 118 227.5 200t67.5 161q0 67 -39 106t-107 39q-88 0 -139 -65.5t-51 -178.5q0 -4 6 -73h-377q-6 81 -6 86q0 125 45 233t129 186q168 154 430 154q234 0 371 -119q139 -121 139 -319q0 -295 -305 -514l-279 -203h488l-49 -340h-1088z" />
    <glyph glyph-name="three.lt" 
d="M993 92q-154 -117 -387 -117q-246 0 -405 129q-160 130 -172 342l397 52q10 -92 62 -140.5t139 -48.5q73 0 121.5 44t48.5 110q0 63 -45 98t-125 35h-138l43 299h158q73 0 118.5 39t45.5 102q0 56 -39 90.5t-102 34.5q-74 0 -129 -47.5t-72 -126.5l-369 43
q50 216 211 340.5t394 124.5q206 0 337 -98q75 -54 116.5 -132.5t41.5 -170.5q0 -122 -67.5 -222.5t-178.5 -144.5q172 -78 172 -281q0 -107 -45.5 -199.5t-130.5 -154.5z" />
    <glyph glyph-name="four.lt" 
d="M1006 319l-45 -319h-355l45 319h-649l41 285l625 866h499l-116 -843h180l-43 -308h-182zM760 1153l-367 -526h293z" />
    <glyph glyph-name="five.lt" 
d="M655 684q-93 0 -155 -78l-357 51l183 813h905l-49 -340h-600l-47 -198q88 61 225 61q188 0 309 -121q119 -119 119 -311q0 -120 -45 -229.5t-129 -190.5q-171 -166 -424 -166q-235 0 -383 121q-79 63 -123 154.5t-49 202.5l389 45q7 -86 60 -139.5t128 -53.5
q82 0 139.5 61.5t57.5 147.5q0 75 -42.5 122.5t-111.5 47.5z" />
    <glyph glyph-name="six.lt" 
d="M809 1495q184 0 309.5 -91t169.5 -257l-323 -125q-17 72 -68.5 114t-124.5 42q-109 0 -190.5 -86t-100.5 -220q113 101 281 101q189 0 309 -123q121 -121 121 -313q0 -116 -44 -221t-126 -183q-161 -158 -414 -158q-247 0 -388.5 162.5t-141.5 446.5q0 174 46.5 333
t133.5 283q100 142 242.5 218.5t308.5 76.5zM444 469q0 -80 49 -129t128 -49q90 0 148 61t58 154q0 80 -49.5 130t-128.5 50q-90 0 -147.5 -61.5t-57.5 -155.5z" />
    <glyph glyph-name="seven.lt" 
d="M868 1137h-393l-29 -213h-337l75 546h1164l-50 -342q-259 -241 -387 -491q-128 -256 -180 -637h-403q54 376 183.5 650t356.5 487z" />
    <glyph glyph-name="eight.lt" 
d="M356 1380q148 115 367 115q216 0 350 -113q137 -110 137 -290q0 -113 -57.5 -203t-167.5 -150q91 -43 142 -124t51 -185q0 -106 -50.5 -196t-142.5 -152q-167 -107 -397 -107q-226 0 -371 95q-90 55 -138 137.5t-48 181.5q0 129 80 234t215 155q-67 44 -103.5 114
t-36.5 155q0 98 44 185t126 148zM530 1044q0 -60 44.5 -97.5t113.5 -37.5q75 0 125.5 45t50.5 111q0 60 -43 97.5t-112 37.5q-77 0 -128 -45t-51 -111zM801 461q0 67 -48 108t-128 41q-90 0 -149.5 -51t-59.5 -127q0 -67 48 -108t128 -41q90 0 149.5 51t59.5 127z" />
    <glyph glyph-name="nine.lt" 
d="M492 -25q-184 0 -310 91.5t-170 257.5l324 125q17 -73 68 -114.5t124 -41.5q109 0 190.5 85.5t100.5 219.5q-112 -100 -280 -100q-192 0 -312 120q-118 121 -118 316q0 116 44 220.5t126 182.5q161 158 413 158q248 0 389.5 -162t141.5 -446q0 -174 -46.5 -333.5
t-134.5 -283.5q-100 -142 -242 -218.5t-308 -76.5zM856 1001q0 80 -48.5 129.5t-127.5 49.5q-90 0 -148.5 -61t-58.5 -154q0 -80 49.5 -130.5t128.5 -50.5q90 0 147.5 61.5t57.5 155.5z" />
    <glyph glyph-name="period.tab" horiz-adv-x="622" 
d="M455 0h-437l58 418h436z" />
    <glyph glyph-name="comma.tab" horiz-adv-x="622" 
d="M180 0h-162l58 418h436l-51 -371q-29 -191 -147.5 -281t-340.5 -90l27 191q84 1 125.5 29t52.5 90z" />
    <glyph glyph-name="colon.tab" horiz-adv-x="548" 
d="M430 0h-436l57 418h436zM520 645h-436l57 418h437z" />
    <glyph glyph-name="semicolon.tab" horiz-adv-x="548" 
d="M545 645h-436l57 418h436zM180 0h-162l58 418h436l-51 -371q-29 -191 -147.5 -281t-340.5 -90l27 191q84 1 125.5 29t52.5 90z" />
    <glyph glyph-name="space.tab" horiz-adv-x="622" 
 />
    <glyph glyph-name="percent.lt" 
d="M217 0h-268l1149 1470h268zM338 778q-117 0 -180.5 77t-63.5 218q0 180 86 301q88 119 226 119q117 0 181 -76t64 -217q0 -184 -88 -303t-225 -119zM350 977q37 0 64.5 65t27.5 156q0 98 -47 98q-38 0 -65 -64.5t-27 -158.5q0 -96 47 -96zM977 692q117 0 181.5 -76
t64.5 -217q0 -184 -88 -303q-85 -119 -224 -119q-117 0 -181 77t-64 218q0 180 86 301q88 119 225 119zM967 494q-37 0 -65 -65.5t-28 -156.5q0 -98 48 -98q38 0 65 64.5t27 158.5q0 97 -47 97z" />
    <glyph glyph-name="baht.lt" 
d="M442 0h-444l207 1470h442l29 199h207l-29 -203q184 -17 287.5 -111t103.5 -243q0 -124 -70.5 -224.5t-181.5 -137.5q93 -37 145 -118.5t52 -189.5q0 -189 -146 -317q-143 -125 -380 -125h-15l-28 -203h-207zM485 1169l-41 -297h119l43 297h-121zM936 1036q0 57 -31.5 91
t-91.5 40l-41 -295q75 6 119.5 51t44.5 113zM528 618h-118l-45 -313h120zM891 477q0 63 -42.5 102t-113.5 39l-43 -313h13q84 0 135 48.5t51 123.5z" />
    <glyph glyph-name="dong.lt" 
d="M408 92q-157 0 -252 109q-95 112 -95 284q0 214 132 367q132 156 317 156q75 0 138.5 -29t101.5 -80l24 176h-334l33 240h336l22 155h340l-22 -155h164l-35 -240h-162l-137 -964h-340l12 88q-38 -50 -103 -78.5t-140 -28.5zM711 592q0 156 -136 156q-79 0 -129.5 -68.5
t-50.5 -173.5q0 -76 34 -117t99 -41q81 0 132 69.5t51 174.5zM928 -254h-895l35 254h897z" />
    <glyph glyph-name="franc.lt" 
d="M152 217h-150l39 275h149l138 978h968l-47 -340h-575l-29 -202h473l-47 -332h-473l-14 -104h227l-39 -275h-225l-31 -217h-395z" />
    <glyph glyph-name="naira.lt" 
d="M123 463h-117l35 233h115l10 82h-115l33 236h117l63 456h334l201 -811l114 811h330l-63 -456h114l-32 -236h-117l-10 -82h114l-32 -233h-115l-66 -463h-299l-227 891l-125 -891h-328z" />
    <glyph glyph-name="peseta.lt" 
d="M563 328h-86l-47 -328h-373l107 764h-115l39 270h115l61 436h414q223 0 357 -114.5t151 -321.5h117l-37 -270h-107q-60 -203 -218.5 -319.5t-377.5 -116.5zM659 1186h-61l-20 -152h260q-12 75 -58 113.5t-121 38.5zM539 764l-21 -154h82q63 0 116 40.5t85 113.5h-262z
" />
    <glyph glyph-name="peso.lt" 
d="M602 422h-98l-60 -422h-387l93 662h-115l35 233h112l13 82h-115l33 235h114l37 258h461q165 0 278.5 -66.5t163.5 -191.5h158l-33 -235h-94l-10 -82h92l-33 -233h-151q-78 -116 -205.5 -178t-288.5 -62zM608 1171l-61 -450h90q87 0 146 70.5t67 181.5q6 94 -35 146
t-121 52h-86z" />
    <glyph glyph-name="uni20BD.lt" 
d="M119 221h-115l37 266h115l12 82h-117l37 267h117l90 634h491q225 0 352.5 -111t127.5 -306q0 -217 -152 -351q-151 -133 -405 -133h-154l-12 -82h221l-39 -266h-219l-31 -221h-387zM641 1196l-49 -360h125q85 0 137.5 57.5t52.5 148.5q0 74 -40 114t-115 40h-111z" />
    <glyph glyph-name="uni20B9.lt" 
d="M670 829h-551l37 263h546q-50 116 -219 116h-311l37 262h1087l-36 -262h-281q39 -48 59 -116h203l-35 -263h-186q-38 -116 -124.5 -202.5t-207.5 -130.5l318 -496h-441l-284 451h-215l36 262h316q168 0 252 116z" />
    <glyph glyph-name="uni20BA.lt" horiz-adv-x="1243" 
d="M492 336h67q272 0 324 369h356q-43 -350 -211 -527.5t-455 -177.5h-516l62 442l-121 -55l39 260l119 53l12 88l-119 -53l39 262l117 54l59 419h387l-35 -251l267 116l-37 -260l-266 -117l-13 -88l264 115l-36 -260l-265 -117z" />
    <glyph glyph-name="won.lt" 
d="M168 463h-166l33 233h139v82h-127l31 236h102l8 456h283l-37 -886l191 641h182l10 -641l213 886h289l-119 -456h98l-30 -236h-131l-21 -82h139l-32 -233h-168l-121 -463h-254l-12 819l-244 -819h-264z" />
    <glyph glyph-name="zero.slash" horiz-adv-x="1345" 
d="M76 602q0 389 192 639q193 254 498 254q260 0 408.5 -166.5t148.5 -460.5q0 -387 -193 -641q-190 -252 -495 -252q-260 0 -409.5 166.5t-149.5 460.5zM750 1180q-123 0 -209 -142q-87 -144 -99 -364l480 403q-53 103 -172 103zM649 291q125 0 211 141q86 142 98 365
l-479 -402q50 -104 170 -104z" />
    <glyph glyph-name="zero.slash.lt" 
d="M74 594q0 389 182 645t471 256q235 0 368.5 -165.5t133.5 -455.5q0 -389 -182 -645q-181 -254 -472 -254q-234 0 -367.5 165t-133.5 454zM715 1188q-109 0 -191 -135q-79 -134 -100 -351l438 365q-41 121 -147 121zM586 283q108 0 190 135q82 137 103 352l-439 -364
q38 -123 146 -123z" />
    <glyph glyph-name="arrowleftright" horiz-adv-x="2093" 
d="M1499 1417l610 -676l-610 -675l-231 215l274 297h-934l275 -297l-230 -215l-610 675l610 676l230 -215l-275 -297h934l-274 297z" />
    <glyph glyph-name="arrowupdown" horiz-adv-x="1476" 
d="M1210 459l209 -228l-676 -610l-675 610l208 228l308 -283v805l-308 -283l-208 228l675 610l676 -610l-209 -228l-307 283v-805z" />
    <glyph glyph-name="arrowNW" horiz-adv-x="1775" 
d="M541 932v-443h-310v981h983v-309h-444l948 -946l-229 -231z" />
    <glyph glyph-name="arrowNE" horiz-adv-x="1560" 
d="M1454 489h-309v443l-948 -948l-230 231l948 946h-444v309h983v-981z" />
    <glyph glyph-name="arrowSE" horiz-adv-x="1775" 
d="M1141 539v442h309v-981h-983v309h444l-948 946l230 232z" />
    <glyph glyph-name="arrowSW" horiz-adv-x="1560" 
d="M162 981h309v-442l948 948l230 -232l-949 -946h445v-309h-983v981z" />
    </font>
</defs>
</svg>
