<?xml version="1.0" standalone="no"?>
<!DOCTYPE svg PUBLIC "-//W3C//DTD SVG 1.1//EN" "http://www.w3.org/Graphics/SVG/1.1/DTD/svg11.dtd" >
<svg xmlns="http://www.w3.org/2000/svg" xmlns:xlink="http://www.w3.org/1999/xlink" version="1.1">
<metadata>
Created by FontForge 20201107 at Mon Jan  8 01:19:54 2024
 By 
Copyright 2020, Kris Sowersby, Klim Type Foundry.
</metadata>
<defs>
<font id="SohneMono-Buch" horiz-adv-x="1228" >
  <font-face 
    font-family="Sohne Mono Buch"
    font-weight="400"
    font-stretch="normal"
    units-per-em="2048"
    panose-1="2 11 5 9 3 2 2 6 2 3"
    ascent="1638"
    descent="-410"
    x-height="1071"
    cap-height="1470"
    bbox="-606 -391 2286 1999"
    underline-thickness="153"
    underline-position="-384"
    unicode-range="U+000D-F6C3"
  />
<missing-glyph 
d="M0 0v1470h1229v-1470h-1229zM270 496l105 -105l239 240l242 -240l102 105l-237 241l237 240l-102 104l-242 -239l-239 239l-105 -104l240 -240z" />
    <glyph glyph-name=".notdef" 
d="M0 0v1470h1229v-1470h-1229zM270 496l105 -105l239 240l242 -240l102 105l-237 241l237 240l-102 104l-242 -239l-239 239l-105 -104l240 -240z" />
    <glyph glyph-name=".null" horiz-adv-x="0" 
 />
    <glyph glyph-name="nonmarkingreturn" horiz-adv-x="682" 
 />
    <glyph glyph-name="NULL" horiz-adv-x="0" 
 />
    <glyph glyph-name="NULL" horiz-adv-x="0" 
 />
    <glyph glyph-name="CR" unicode="&#xd;" 
 />
    <glyph glyph-name="space" unicode=" " 
 />
    <glyph glyph-name="exclam" unicode="!" 
d="M684 436h-137l-47 1034h231zM731 0h-233v242h233v-242z" />
    <glyph glyph-name="quotedbl" unicode="&#x22;" 
d="M477 813h-127l-45 657h219zM877 813h-127l-45 657h219z" />
    <glyph glyph-name="numbersign" unicode="#" 
d="M287 0h-168l100 424h-170v149h207l76 324h-209v150h246l100 423h170l-102 -423h303l102 423h168l-100 -423h170v-150h-205l-78 -324h211v-149h-246l-100 -424h-172l102 424h-303zM502 897l-78 -324h303l78 324h-303z" />
    <glyph glyph-name="dollar" unicode="$" 
d="M37 301l147 123q124 -244 373 -279v535q-206 44 -309 108q-142 98 -142 279q0 170 125 283q127 115 326 133v194h150v-196q156 -17 272.5 -89.5t173.5 -187.5l-139 -121q-100 201 -307 240v-492q268 -59 360 -151q98 -94 98 -254q0 -176 -127 -297q-124 -118 -331 -139
v-199h-150v197q-173 13 -312.5 97.5t-207.5 215.5zM283 1083q0 -85 61.5 -135.5t212.5 -85.5v465q-124 -12 -199 -79t-75 -165zM985 412q0 89 -63.5 144t-214.5 91v-502q129 19 203.5 90t74.5 177z" />
    <glyph glyph-name="percent" unicode="%" 
d="M291 782q-118 0 -186 95t-68 260q0 164 68.5 260t185.5 96q118 0 187 -96t69 -260q0 -162 -69 -258.5t-187 -96.5zM1018 1470h174l-981 -1470h-174zM291 1366q-60 0 -91.5 -60t-31.5 -169t31.5 -168.5t91.5 -59.5q121 0 121 228q0 111 -30.5 170t-90.5 59zM938 688
q117 0 185.5 -96t68.5 -258t-69 -259.5t-185 -97.5q-118 0 -187 96.5t-69 260.5t68.5 259t187.5 95zM938 561q-60 0 -91.5 -58.5t-31.5 -168.5q0 -111 31.5 -170.5t91.5 -59.5q57 0 89 60.5t32 169.5q0 108 -32 167.5t-89 59.5z" />
    <glyph glyph-name="ampersand" unicode="&#x26;" 
d="M997 764l162 -29q-22 -265 -162 -469l232 -266h-211l-127 143q-178 -166 -414 -166q-184 0 -311 115q-123 114 -123 291q0 130 64.5 229t209.5 189q-143 176 -143 332q0 151 102 253q105 105 259 105q155 0 248.5 -90.5t93.5 -237.5q0 -117 -72 -207q-73 -92 -250 -184
l334 -383q93 167 108 375zM535 1343q-81 0 -136 -58t-55 -148q0 -60 26.5 -118.5t92.5 -139.5q145 74 196 131q54 60 54 147q0 79 -50.5 132.5t-127.5 53.5zM221 399q0 -108 78 -186q79 -76 193 -76q173 0 296 123l-378 430q-189 -121 -189 -291z" />
    <glyph glyph-name="quotesingle" unicode="'" 
d="M678 813h-127l-45 657h219z" />
    <glyph glyph-name="parenleft" unicode="(" 
d="M563 655q0 -232 88 -457t244 -399h-193q-168 181 -258 400.5t-90 455.5t90 455.5t258 400.5h193q-159 -177 -245.5 -400t-86.5 -456z" />
    <glyph glyph-name="parenright" unicode=")" 
d="M666 655q0 233 -86.5 456t-245.5 400h192q168 -181 258 -400.5t90 -455.5t-90 -455.5t-258 -400.5h-192q156 174 244 399t88 457z" />
    <glyph glyph-name="asterisk" unicode="*" 
d="M909 821l-114 -82l-181 248l-180 -248l-115 82l181 248l-293 96l45 133l293 -94v307h139v-307l295 94l43 -133l-295 -96z" />
    <glyph glyph-name="plus" unicode="+" 
d="M1135 782v-164h-439v-438h-164v438h-438v164h438v441h164v-441h439z" />
    <glyph glyph-name="comma" unicode="," 
d="M604 0h-131v293h283v-309q0 -147 -86 -234t-234 -92v127q168 9 168 195v20z" />
    <glyph glyph-name="hyphen" unicode="-" 
d="M895 514h-561v166h561v-166z" />
    <glyph glyph-name="period" unicode="." 
d="M756 0h-283v291h283v-291z" />
    <glyph glyph-name="slash" unicode="/" 
d="M354 -201h-190l710 1712h191z" />
    <glyph glyph-name="zero" unicode="0" 
d="M614 -23q-249 0 -397 207q-147 205 -147 551q0 345 147 551q148 207 397 207q250 0 398 -207q147 -206 147 -551q0 -346 -147 -551q-148 -207 -398 -207zM614 1323q-164 0 -258 -158.5t-94 -429.5t94 -429.5t258 -158.5t258.5 158.5t94.5 429.5t-94.5 429.5t-258.5 158.5
z" />
    <glyph glyph-name="one" unicode="1" 
d="M625 1479h147v-1315h354v-164h-944v164h400v917h-383v144l184 10q127 7 180.5 61.5t61.5 182.5z" />
    <glyph glyph-name="two" unicode="2" 
d="M111 0v162l434 360q213 177 284 283q72 110 72 217q0 136 -81 219.5t-214 83.5q-130 0 -213 -86q-84 -87 -84 -217q0 -76 31 -160h-184q-31 80 -31 170q0 195 139 328q142 133 346 133q220 0 353 -127t133 -332q0 -145 -84 -282q-81 -132 -301 -310l-330 -270h743v-172
h-1013z" />
    <glyph glyph-name="three" unicode="3" 
d="M1137 410q0 -188 -142 -312q-142 -121 -362 -121q-222 0 -370.5 119.5t-180.5 327.5l190 41q20 -149 118 -236.5t241 -87.5t229 77t86 204q0 122 -87.5 192t-237.5 70h-158v162h162q131 0 209.5 63.5t78.5 169.5q0 113 -75.5 180.5t-202.5 67.5q-129 0 -217 -76
t-117 -211l-180 29q34 189 176 307q141 117 344 117q209 0 334 -113q125 -110 125 -293q0 -109 -65.5 -194.5t-176.5 -124.5q130 -37 204.5 -131.5t74.5 -226.5z" />
    <glyph glyph-name="four" unicode="4" 
d="M920 385v-385h-179v385h-696v152l631 933h248v-923h270v-162h-274zM739 1284l-495 -737h495v737z" />
    <glyph glyph-name="five" unicode="5" 
d="M629 809q-85 0 -154.5 -32.5t-112.5 -92.5l-178 31l64 755h801v-172h-650l-41 -444q118 115 293 115q208 0 342 -140q133 -139 133 -352q0 -212 -147 -356q-144 -144 -365 -144q-213 0 -352 115t-176 320l188 39q23 -143 114 -226.5t226 -83.5q139 0 234 95q94 94 94 237
q0 146 -88 240q-90 96 -225 96z" />
    <glyph glyph-name="six" unicode="6" 
d="M674 1493q177 0 295 -87t168 -253l-160 -68q-35 119 -114 181.5t-195 62.5q-174 0 -289 -158q-113 -155 -113 -409v-21q56 106 163 169t235 63q203 0 342 -142q137 -137 137 -348q0 -215 -148 -360q-146 -146 -362 -146q-259 0 -404 201q-143 198 -143 543t164 557
q164 215 424 215zM633 139q136 0 233 97t97 237q0 145 -95 240q-94 98 -233 98q-142 0 -236 -98q-96 -96 -96 -240q0 -143 94 -237q97 -97 236 -97z" />
    <glyph glyph-name="seven" unicode="7" 
d="M969 1300h-705v-251h-172v421h1086v-170q-250 -280 -357 -573q-106 -290 -106 -727h-199q0 408 110 724.5t343 575.5z" />
    <glyph glyph-name="eight" unicode="8" 
d="M147 1100q0 174 132 282q132 111 335 111q204 0 336 -111q131 -107 131 -282q0 -111 -59.5 -194t-169.5 -126q141 -43 224 -143.5t83 -230.5q0 -189 -151 -310q-149 -116 -394 -116q-244 0 -393 116q-151 121 -151 310q0 130 83 230.5t224 143.5q-110 43 -170 126.5
t-60 193.5zM324 1098q0 -109 79.5 -174.5t210.5 -65.5t211 66t80 174t-80 173.5t-211 65.5q-129 0 -209.5 -66.5t-80.5 -172.5zM967 418q0 123 -99 200.5t-254 77.5t-253.5 -77.5t-98.5 -200.5q0 -125 98.5 -204t253.5 -79t254 79.5t99 203.5z" />
    <glyph glyph-name="nine" unicode="9" 
d="M555 -23q-177 0 -295 87t-168 253l160 68q35 -119 114 -181.5t195 -62.5q174 0 289 158q113 155 113 410v20q-56 -106 -163 -168.5t-235 -62.5q-203 0 -342 139q-137 140 -137 350q0 216 145 361q148 145 365 145q256 0 401 -201q146 -202 146 -542q0 -345 -164 -560
q-165 -213 -424 -213zM596 1331q-140 0 -236 -96q-94 -94 -94 -238q0 -143 94 -241q97 -97 234 -97q138 0 235 97q97 102 97 241q0 143 -95 238q-96 96 -235 96z" />
    <glyph glyph-name="colon" unicode=":" 
d="M756 0h-283v291h283v-291zM756 745h-283v291h283v-291z" />
    <glyph glyph-name="semicolon" unicode=";" 
d="M604 0h-131v293h283v-309q0 -147 -86 -234t-234 -92v127q168 9 168 195v20zM756 745h-283v291h283v-291z" />
    <glyph glyph-name="less" unicode="&#x3c;" 
d="M1067 158l-905 442v207l905 440v-180l-752 -365l752 -364v-180z" />
    <glyph glyph-name="equal" unicode="=" 
d="M1120 834h-1011v161h1011v-161zM1120 403h-1011v162h1011v-162z" />
    <glyph glyph-name="greater" unicode="&#x3e;" 
d="M1073 807v-207l-905 -442v180l752 364l-752 365v180z" />
    <glyph glyph-name="question" unicode="?" 
d="M920 1051q0 123 -80 198.5t-209 75.5q-135 0 -222.5 -82.5t-107.5 -228.5l-186 30q27 199 170 324t356 125q209 0 342 -121t133 -311q0 -169 -112 -287q-114 -120 -285 -141v-197h-180v328q177 0 279 77t102 210zM745 0h-233v242h233v-242z" />
    <glyph glyph-name="at" unicode="@" 
d="M899 217q60 0 100 113q41 115 41 288q0 279 -99.5 429.5t-283.5 150.5q-209 0 -338 -209t-129 -538q0 -309 117 -481.5t326 -172.5q182 0 319 137l78 -100q-160 -168 -397 -168q-275 0 -434 211q-158 211 -158 574q0 380 172 628q176 250 444 250q243 0 387 -190
q144 -191 144 -512q0 -243 -86 -394q-85 -149 -217 -149q-62 0 -103.5 36.5t-54.5 102.5q-29 -69 -79.5 -107t-112.5 -38q-100 0 -162 98.5t-62 261.5q0 214 82 357t211 143q60 0 102.5 -34.5t59.5 -94.5l14 113h140l-72 -572q-8 -63 5.5 -98t45.5 -35zM569 213
q51 0 88.5 62.5t49.5 166.5l20 160q10 86 -17.5 143.5t-78.5 57.5q-72 0 -121 -107q-47 -109 -47 -256q0 -106 28.5 -166.5t77.5 -60.5z" />
    <glyph glyph-name="A" unicode="A" 
d="M41 0l459 1470h227l461 -1470h-199l-119 387h-518l-119 -387h-192zM817 559l-207 676l-207 -676h414z" />
    <glyph glyph-name="B" unicode="B" 
d="M676 0h-539v1470h496q232 0 354.5 -98.5t122.5 -284.5q0 -118 -59 -201t-168 -120q131 -35 203.5 -130t72.5 -230q0 -190 -128.5 -298t-354.5 -108zM328 1305v-465h290q150 0 228 58t78 173t-78 174.5t-228 59.5h-290zM668 672h-340v-506h340q141 0 222 68t81 186
q0 117 -81 184.5t-222 67.5z" />
    <glyph glyph-name="C" unicode="C" 
d="M662 1319q-175 0 -285 -162q-111 -163 -111 -422t111 -422q109 -161 285 -161q121 0 207.5 78t121.5 219l185 -62q-60 -195 -195 -302.5t-319 -107.5q-257 0 -420 211q-164 212 -164 547q0 333 164 545q165 213 420 213q184 0 319 -107.5t195 -302.5l-185 -61
q-35 141 -121.5 219t-207.5 78z" />
    <glyph glyph-name="D" unicode="D" 
d="M451 0h-314v1470h314q327 0 514 -196q188 -197 188 -539q0 -341 -188 -538t-514 -197zM330 1300v-1130h121q244 0 375.5 147t131.5 418t-132 418t-377 147h-119z" />
    <glyph glyph-name="E" unicode="E" 
d="M137 0v1470h981v-172h-788v-452h669v-172h-669v-502h788v-172h-981z" />
    <glyph glyph-name="F" unicode="F" 
d="M377 653v-653h-195v1470h951v-172h-756v-473h639v-172h-639z" />
    <glyph glyph-name="G" unicode="G" 
d="M1133 0h-160v219q-42 -111 -135 -176.5t-215 -65.5q-241 0 -394 211q-151 213 -151 543q0 334 160 547q159 215 405 215q180 0 304 -105.5t175 -302.5l-178 -63q-32 143 -110.5 220t-190.5 77q-163 0 -268 -164q-103 -165 -103 -422q0 -265 101 -422q103 -157 266 -157
q141 0 227 120.5t88 317.5h-338v172h517v-764z" />
    <glyph glyph-name="H" unicode="H" 
d="M895 846v624h197v-1470h-197v674h-561v-674h-197v1470h197v-624h561z" />
    <glyph glyph-name="I" unicode="I" 
d="M713 172h415v-172h-1028v172h416v1126h-416v172h1028v-172h-415v-1126z" />
    <glyph glyph-name="J" unicode="J" 
d="M449 -18q-144 0 -275 28v195q134 -35 264 -35q213 0 314.5 87t101.5 267v774h-590v172h787v-968q0 -253 -154.5 -386.5t-447.5 -133.5z" />
    <glyph glyph-name="K" unicode="K" 
d="M137 1470h197v-692l620 692h236l-582 -636l598 -834h-231l-502 686l-139 -154v-532h-197v1470z" />
    <glyph glyph-name="L" unicode="L" 
d="M1128 0h-929v1470h196v-1298h733v-172z" />
    <glyph glyph-name="M" unicode="M" 
d="M942 1190l-268 -1190h-119l-268 1190v-1190h-170v1470h264l235 -1058l238 1058h258v-1470h-170v1190z" />
    <glyph glyph-name="N" unicode="N" 
d="M907 1470h185v-1470h-185l-585 1155v-1155h-185v1470h203l567 -1105v1105z" />
    <glyph glyph-name="O" unicode="O" 
d="M614 -23q-239 0 -389 209q-147 212 -147 549q0 339 147 547q150 211 389 211q240 0 390 -211q149 -207 149 -547q0 -339 -149 -549q-150 -209 -390 -209zM614 152q159 0 254 157q95 160 95 426q0 267 -95 424q-95 160 -254 160t-254 -160q-92 -157 -92 -424
q0 -266 92 -426q95 -157 254 -157z" />
    <glyph glyph-name="P" unicode="P" 
d="M670 616h-336v-616h-197v1470h533q241 0 374.5 -111.5t133.5 -314.5q0 -202 -134 -315t-374 -113zM334 1300v-514h323q158 0 243 67t85 191q0 125 -84 190.5t-244 65.5h-323z" />
    <glyph glyph-name="Q" unicode="Q" 
d="M614 -23q-239 0 -389 209q-147 212 -147 549q0 339 147 547q150 211 389 211q240 0 390 -211q149 -207 149 -547q0 -207 -59 -372t-168 -265q43 -63 122.5 -114t172.5 -76l-115 -141q-99 30 -190.5 97t-135.5 144q-69 -31 -166 -31zM614 152q159 0 254 157q95 160 95 426
q0 267 -95 424q-95 160 -254 160t-254 -160q-92 -157 -92 -424q0 -266 92 -426q95 -157 254 -157z" />
    <glyph glyph-name="R" unicode="R" 
d="M592 616h-258v-616h-197v1470h516q241 0 374.5 -111.5t133.5 -314.5q0 -167 -93 -275t-265 -140l409 -629h-225zM334 1300v-514h307q158 0 243 67t85 191q0 125 -84 190.5t-244 65.5h-307z" />
    <glyph glyph-name="S" unicode="S" 
d="M618 -23q-193 0 -360 89q-163 88 -238 235l154 125q69 -131 189 -206t262 -75q150 0 243 72t93 193q0 133 -144 192q-35 15 -67 25q-56 16 -183 47q-129 31 -196.5 55t-116.5 55q-148 98 -148 283t144 305q145 121 360 121q179 0 317 -75.5t212 -211.5l-150 -116
q-123 237 -385 237q-135 0 -221 -69t-86 -175q0 -61 29.5 -102t95.5 -72q69 -27 221 -63q141 -33 236 -64q50 -16 110 -51q164 -99 164 -305q0 -197 -154 -324q-149 -125 -381 -125z" />
    <glyph glyph-name="T" unicode="T" 
d="M1184 1470v-172h-471v-1298h-197v1298h-473v172h1141z" />
    <glyph glyph-name="U" unicode="U" 
d="M614 -20q-240 0 -366.5 148t-126.5 429v913h196v-905q0 -405 297 -405t297 405v905h197v-913q0 -281 -127 -429t-367 -148z" />
    <glyph glyph-name="V" unicode="V" 
d="M1188 1470l-465 -1470h-217l-465 1470h205l370 -1216l373 1216h199z" />
    <glyph glyph-name="W" unicode="W" 
d="M358 369l185 1101h149l182 -1101l160 1101h174l-233 -1470h-166l-195 1141l-194 -1141h-166l-234 1470h179z" />
    <glyph glyph-name="X" unicode="X" 
d="M965 1470h204l-450 -704l489 -766h-211l-385 602l-387 -602h-205l488 762l-455 708h211l350 -542z" />
    <glyph glyph-name="Y" unicode="Y" 
d="M219 1470l397 -675l398 675h207l-508 -852v-618h-197v618l-510 852h213z" />
    <glyph glyph-name="Z" unicode="Z" 
d="M319 172h838v-172h-1079v152l829 1146h-821v172h1063v-151z" />
    <glyph glyph-name="bracketleft" unicode="[" 
d="M940 1358h-422v-1407h422v-152h-608v1712h608v-153z" />
    <glyph glyph-name="backslash" unicode="\" 
d="M164 1511h190l711 -1712h-191z" />
    <glyph glyph-name="bracketright" unicode="]" 
d="M289 1511h608v-1712h-608v152h422v1407h-422v153z" />
    <glyph glyph-name="asciicircum" unicode="^" 
d="M188 854l336 616h181l335 -616h-194l-232 436l-233 -436h-193z" />
    <glyph glyph-name="underscore" unicode="_" 
d="M950 -274h-671v157h671v-157z" />
    <glyph glyph-name="grave" unicode="`" 
d="M682 1470l121 -284h-146l-206 284h231z" />
    <glyph glyph-name="a" unicode="a" 
d="M827 125q-55 -67 -147 -105t-201 -38q-156 0 -260 84q-100 84 -100 223q0 137 99 222t312 126l287 55v45q0 94 -58.5 144.5t-168.5 50.5q-100 0 -167.5 -48t-96.5 -139l-172 46q43 140 161.5 220.5t282.5 80.5q192 0 295.5 -90.5t103.5 -256.5v-516q0 -109 131 -82v-147
q-135 -17 -208.5 14t-92.5 111zM506 131q128 0 219 70q92 71 92 170v178l-239 -45q-147 -29 -210 -77.5t-63 -129.5q0 -78 53.5 -122t147.5 -44z" />
    <glyph glyph-name="b" unicode="b" 
d="M1120 535q0 -247 -125 -402q-123 -156 -323 -156q-102 0 -184 47t-132 134v-158h-184v1470h184v-557q49 86 131 132.5t185 46.5q200 0 325 -158q123 -156 123 -399zM635 930q-126 0 -204.5 -98.5t-78.5 -262.5v-73q0 -160 79.5 -258.5t203.5 -98.5q139 0 219 106.5
t80 289.5t-80 289t-219 106z" />
    <glyph glyph-name="c" unicode="c" 
d="M664 932q-160 0 -255.5 -107.5t-95.5 -289.5q0 -180 95.5 -288t255.5 -108q115 0 191.5 59.5t105.5 168.5l155 -76q-43 -143 -165.5 -228.5t-288.5 -85.5q-231 0 -381 156q-148 157 -148 402q0 244 148 401q147 156 381 156q166 0 286.5 -83t165.5 -225l-153 -79
q-29 109 -106.5 168t-190.5 59z" />
    <glyph glyph-name="d" unicode="d" 
d="M557 -23q-200 0 -326 156q-122 155 -122 402q0 244 122 399q125 158 326 158q103 0 184 -46.5t131 -132.5v557h185v-1470h-185v158q-50 -87 -131.5 -134t-183.5 -47zM877 496v73q0 164 -78.5 262.5t-204.5 98.5q-139 0 -219 -106t-80 -289t80 -289.5t219 -106.5
q124 0 203.5 98.5t79.5 258.5z" />
    <glyph glyph-name="e" unicode="e" 
d="M641 -23q-228 0 -373 154q-143 155 -143 404q0 244 143 399q146 158 365 158q216 0 342 -144q127 -145 127 -381v-61h-799q8 -167 100 -268t238 -101q112 0 189.5 54t103.5 151l160 -57q-51 -146 -171 -227t-282 -81zM633 934q-124 0 -209 -76t-111 -211h602
q-5 132 -79.5 209.5t-202.5 77.5z" />
    <glyph glyph-name="f" unicode="f" 
d="M1042 158v-158h-923v158h330v755h-330v158h330q0 200 116 311t324 111q102 0 231 -29v-161q-130 26 -225 26q-134 0 -199 -64t-65 -194h485v-158h-485v-755h411z" />
    <glyph glyph-name="g" unicode="g" 
d="M1057 1071v-975q0 -224 -135 -356q-131 -131 -363 -131q-179 0 -300.5 79.5t-164.5 225.5l172 66q26 -102 104 -160t189 -58q154 0 233.5 81t79.5 239v121q-44 -84 -129.5 -131t-191.5 -47q-203 0 -328 149t-125 385q0 234 125 383q126 150 328 150q106 0 191.5 -47.5
t129.5 -131.5v158h185zM874 537v38q0 160 -80 257.5t-206 97.5q-142 0 -222.5 -98.5t-80.5 -272.5q0 -173 81 -273t222 -100q126 0 206 96.5t80 254.5z" />
    <glyph glyph-name="h" unicode="h" 
d="M375 0h-185v1470h185v-544q55 79 137.5 122.5t181.5 43.5q164 0 260.5 -104t96.5 -281v-707h-185v657q0 128 -57 195.5t-166 67.5q-110 0 -190 -80q-78 -78 -78 -201v-639z" />
    <glyph glyph-name="i" unicode="i" 
d="M754 1257h-201v213h201v-213zM1141 0h-975v158h395v755h-395v158h579v-913h396v-158z" />
    <glyph glyph-name="j" unicode="j" 
d="M932 1257h-199v213h199v-213zM434 -221q305 0 305 250v884h-534v158h721v-1063q0 -183 -130 -289t-347 -106q-160 0 -261 37v166q119 -37 246 -37z" />
    <glyph glyph-name="k" unicode="k" 
d="M207 1470h184v-919l496 520h229l-418 -422l453 -649h-215l-367 518l-178 -180v-338h-184v1470z" />
    <glyph glyph-name="l" unicode="l" 
d="M1141 0h-975v158h395v1155h-395v157h579v-1312h396v-158z" />
    <glyph glyph-name="m" unicode="m" 
d="M416 922q-63 0 -101.5 -54.5t-38.5 -146.5v-721h-167v1073h167v-117q31 63 83.5 99.5t115.5 36.5q139 0 199 -148q30 64 91.5 106t129.5 42q108 0 170.5 -82.5t62.5 -223.5v-786h-170v733q0 100 -27 144.5t-87 44.5q-63 0 -102.5 -55.5t-39.5 -145.5v-721h-170v733
q0 99 -28 144t-88 45z" />
    <glyph glyph-name="n" unicode="n" 
d="M375 0h-185v1071h185v-145q55 79 137.5 122.5t181.5 43.5q164 0 260.5 -104t96.5 -281v-707h-185v657q0 128 -57 195.5t-166 67.5q-110 0 -190 -80q-78 -78 -78 -201v-639z" />
    <glyph glyph-name="o" unicode="o" 
d="M614 1092q221 0 359 -156q139 -154 139 -401t-139 -404q-139 -154 -359 -154q-221 0 -360 154q-137 155 -137 404t137 401q138 156 360 156zM614 936q-142 0 -226.5 -108.5t-84.5 -292.5q0 -183 85 -291.5t226 -108.5t226.5 109t85.5 291q0 184 -85 292.5t-227 108.5z
" />
    <glyph glyph-name="p" unicode="p" 
d="M1120 535q0 -247 -125 -402q-123 -156 -323 -156q-102 0 -184 47t-132 134v-527h-184v1440h184v-158q49 86 131 132.5t185 46.5q200 0 325 -158q123 -156 123 -399zM635 930q-126 0 -204.5 -98.5t-78.5 -262.5v-73q0 -160 79.5 -258.5t203.5 -98.5q139 0 219 106.5
t80 289.5t-80 289t-219 106z" />
    <glyph glyph-name="q" unicode="q" 
d="M557 -23q-200 0 -326 156q-122 155 -122 402q0 244 122 399q125 158 326 158q103 0 184 -46.5t131 -132.5v158h185v-1440h-185v527q-50 -87 -131.5 -134t-183.5 -47zM877 496v73q0 164 -78.5 262.5t-204.5 98.5q-139 0 -219 -106t-80 -289t80 -289.5t219 -106.5
q124 0 203.5 98.5t79.5 258.5z" />
    <glyph glyph-name="r" unicode="r" 
d="M1012 0h-889v158h301v755h-301v158h483v-197q54 101 157.5 159.5t229.5 58.5q100 0 166 -27v-182q-92 28 -184 28q-155 0 -262 -94q-107 -91 -107 -231v-428h406v-158z" />
    <glyph glyph-name="s" unicode="s" 
d="M623 -23q-173 0 -313.5 69t-203.5 187l152 101q47 -92 149.5 -147.5t225.5 -55.5q116 0 189 45.5t73 120.5q0 51 -29 82t-96 51q-19 7 -59 14q-37 10 -138 27q-194 39 -264 76q-135 72 -135 221q0 142 123 231q125 93 313 93q152 0 274.5 -61.5t178.5 -164.5l-141 -100
q-47 85 -131 129.5t-197 44.5q-106 0 -172 -43t-66 -115q0 -51 47 -86q45 -29 238 -67q184 -41 201 -47q47 -14 86 -33q153 -72 153 -232q0 -151 -131 -245q-133 -95 -327 -95z" />
    <glyph glyph-name="t" unicode="t" 
d="M803 -12q-197 0 -302.5 91.5t-105.5 264.5v569h-315v158h315v313h180v-313h494v-158h-494v-555q0 -105 61.5 -154.5t194.5 -49.5q126 0 244 36v-165q-129 -37 -272 -37z" />
    <glyph glyph-name="u" unicode="u" 
d="M854 1071h184v-1071h-184v147q-56 -82 -137.5 -126t-179.5 -44q-166 0 -262.5 104t-96.5 281v709h184v-670q0 -125 57 -189.5t167 -64.5q112 0 190 78q78 81 78 201v645z" />
    <glyph glyph-name="v" unicode="v" 
d="M1147 1071l-442 -1071h-183l-442 1071h194l342 -850l338 850h193z" />
    <glyph glyph-name="w" unicode="w" 
d="M371 274l172 797h149l170 -797l162 797h174l-233 -1071h-164l-187 825l-186 -825h-164l-233 1071h178z" />
    <glyph glyph-name="x" unicode="x" 
d="M1126 0h-208l-308 434l-305 -434h-201l398 559l-365 512h209l270 -389l273 389h203l-365 -512z" />
    <glyph glyph-name="y" unicode="y" 
d="M1147 1071l-506 -1188q-59 -145 -137.5 -204.5t-202.5 -59.5q-53 0 -100 8v160q41 -10 88 -10q66 0 106 30.5t72 104.5l53 123l-440 1036h194l342 -823l338 823h193z" />
    <glyph glyph-name="z" unicode="z" 
d="M371 158h702v-158h-934v139l709 774h-701v158h920v-141z" />
    <glyph glyph-name="braceleft" unicode="{" 
d="M303 580h-94v151h94q62 0 94.5 41.5t32.5 120.5v274q0 161 97.5 252.5t269.5 91.5h231v-153h-201q-117 0 -171 -55.5t-54 -176.5v-233q0 -91 -34 -149t-107 -89q73 -31 107 -88.5t34 -148.5v-234q0 -121 54 -176t171 -55h201v-154h-231q-172 0 -269.5 91.5t-97.5 252.5
v275q0 79 -32.5 120.5t-94.5 41.5z" />
    <glyph glyph-name="bar" unicode="|" 
d="M705 -201h-181v1712h181v-1712z" />
    <glyph glyph-name="braceright" unicode="}" 
d="M926 580q-62 0 -94.5 -41.5t-32.5 -120.5v-275q0 -161 -97.5 -252.5t-269.5 -91.5h-231v154h200q117 0 171.5 55t54.5 176v234q0 91 34 148.5t107 88.5q-73 31 -107 89t-34 149v233q0 121 -54.5 176.5t-171.5 55.5h-200v153h231q172 0 269.5 -91.5t97.5 -252.5v-274
q0 -79 32.5 -120.5t94.5 -41.5h94v-151h-94z" />
    <glyph glyph-name="asciitilde" unicode="~" 
d="M469 803q37 0 72 -16t90 -62q43 -37 66.5 -49t47.5 -12q49 0 75 32.5t38 108.5h146q-11 -155 -75 -243.5t-167 -88.5q-38 0 -73 16.5t-89 63.5q-42 37 -66 49t-49 12q-47 0 -73.5 -33t-38.5 -108h-148q12 154 77 242t167 88z" />
    <glyph glyph-name="uni00A0" unicode="&#xa0;" 
 />
    <glyph glyph-name="exclamdown" unicode="&#xa1;" 
d="M731 0h-231l47 1034h137zM731 1229h-233v241h233v-241z" />
    <glyph glyph-name="cent" unicode="&#xa2;" 
d="M717 -217h-144v201q-197 30 -319 182q-119 152 -119 379q0 226 119 375q121 154 319 184v219h144v-215q145 -12 250.5 -95.5t148.5 -219.5l-151 -80q-25 103 -89.5 165t-158.5 74v-817q94 12 158.5 74.5t89.5 165.5l151 -80q-43 -136 -148.5 -219.5t-250.5 -95.5v-197z
M311 545q0 -160 69.5 -266.5t192.5 -137.5v805q-123 -31 -192.5 -137t-69.5 -264z" />
    <glyph glyph-name="sterling" unicode="&#xa3;" 
d="M395 604h-239v148h161q-49 91 -67.5 151t-18.5 121q0 203 136 336t346 133q203 0 329 -129q127 -127 127 -330q0 -80 -28 -172h-180q32 68 32 162q0 137 -76 221t-204 84q-133 0 -215 -86.5t-82 -226.5q0 -57 17.5 -111t70.5 -153h323v-148h-256q31 -80 31 -180
q0 -55 -16 -133q103 -87 164 -115q56 -26 120 -26q92 0 138.5 58t50.5 181h162q0 -189 -88.5 -300.5t-237.5 -111.5q-94 0 -178 38.5t-187 131.5q-103 -170 -266 -170q-109 0 -176 64.5t-65 167.5q0 100 73 165.5t183 65.5q87 0 165 -47v21q0 83 -49 190zM281 309
q-49 0 -79 -27t-30 -71q0 -41 27.5 -67.5t68.5 -26.5q98 0 150 133q-75 59 -137 59z" />
    <glyph glyph-name="yen" unicode="&#xa5;" 
d="M532 387h-368v141h368v168h-368v142h291l-406 632h211l367 -598l366 598h205l-405 -632h292v-142h-370v-168h370v-141h-370v-387h-183v387z" />
    <glyph glyph-name="section" unicode="&#xa7;" 
d="M586 -23q-161 0 -289.5 67t-185.5 183l143 105q41 -91 132 -146t200 -55t173 44t64 122q0 50 -24.5 80.5t-79.5 50.5q-15 6 -53 14q-10 3 -127 29q-112 25 -161.5 41t-84.5 39q-117 69 -117 217q0 130 107 215q-78 72 -78 186q0 144 110 232q112 92 285 92
q139 0 252.5 -61.5t163.5 -161.5l-133 -105q-41 84 -116.5 129t-174.5 45q-94 0 -150.5 -41.5t-56.5 -113.5q0 -56 41 -86q45 -31 207 -68q82 -18 178 -45q37 -11 88 -39q129 -72 129 -229q0 -131 -94 -213q74 -71 74 -187q0 -151 -119 -245q-121 -95 -303 -95zM354 782
q0 -55 39 -84q40 -30 209 -67l129 -31l62 -18q55 44 55 114q0 50 -23 80.5t-77 50.5q-21 9 -48 15q-27 9 -129 30q-70 14 -141 35q-76 -42 -76 -125z" />
    <glyph glyph-name="dieresis" unicode="&#xa8;" 
d="M541 1249h-205v213h205v-213zM893 1249h-205v213h205v-213z" />
    <glyph glyph-name="copyright" unicode="&#xa9;" 
d="M614 1493q255 0 408 -209q154 -210 154 -549q0 -337 -156 -549q-153 -209 -406 -209q-251 0 -407 209q-154 213 -154 549q0 339 154 549q153 209 407 209zM614 88q206 0 326 176q121 180 121 471q0 294 -121 471q-120 176 -326 176q-205 0 -325 -176q-121 -177 -121 -471
q0 -291 121 -471q120 -176 325 -176zM627 307q-135 0 -215 116.5t-80 313.5t80 313.5t215 116.5q93 0 160 -65t90 -178l-150 -45q-25 141 -102 141q-61 0 -96 -76t-35 -207q0 -133 34.5 -207.5t96.5 -74.5q77 0 102 141l150 -45q-23 -116 -88.5 -180t-161.5 -64z" />
    <glyph glyph-name="ordfeminine" unicode="&#xaa;" 
d="M748 786q-41 -47 -105.5 -72.5t-138.5 -25.5q-116 0 -188 61.5t-72 161.5q0 103 77 165t236 87l178 31v29q0 57 -36 87.5t-103 30.5q-127 0 -162 -114l-168 28q30 105 120 168.5t216 63.5q148 0 227.5 -66.5t79.5 -189.5v-340q0 -36 20.5 -48.5t63.5 -4.5v-136
q-99 -17 -162.5 5t-82.5 79zM543 821q80 0 136 44.5t56 107.5v100l-149 -24q-92 -19 -130 -48t-38 -79q0 -45 34.5 -73t90.5 -28zM993 432h-731v131h731v-131z" />
    <glyph glyph-name="guillemotleft" unicode="&#xab;" 
d="M584 172l-396 281v184l396 281v-191l-260 -182l260 -183v-190zM1038 172l-395 281v184l395 281v-191l-260 -182l260 -183v-190z" />
    <glyph glyph-name="registered" unicode="&#xae;" 
d="M614 1493q185 0 312 -127q129 -126 129 -313q0 -189 -127 -316q-125 -125 -314 -125q-188 0 -313 125q-127 127 -127 316q0 186 127 313q130 127 313 127zM614 672q159 0 267 108q108 111 108 273t-108 270q-108 111 -267 111q-158 0 -266 -111q-108 -108 -108 -270
t108 -273q108 -108 266 -108zM702 1020l121 -182h-114l-107 159h-70v-159h-104v442h207q80 0 125 -35.5t45 -101.5q0 -87 -103 -123zM698 1137q0 29 -21 45t-59 16h-86v-123h86q80 0 80 62z" />
    <glyph glyph-name="overscore" unicode="&#xaf;" 
d="M895 1389v-148h-561v148h561z" />
    <glyph glyph-name="degree" unicode="&#xb0;" horiz-adv-x="1230" 
d="M326 1204q0 121 84 205q87 84 204 84q121 0 205 -84t84 -205q0 -122 -84 -209q-84 -84 -205 -84q-118 0 -204 86q-84 87 -84 207zM457 1204q0 -66 45.5 -113t111.5 -47q67 0 112.5 46t45.5 114q0 66 -46 112t-112 46q-65 0 -111 -47t-46 -111z" />
    <glyph glyph-name="twosuperior" unicode="&#xb2;" 
d="M319 655v125l277 219q77 61 108 109t31 104q0 60 -36.5 95.5t-96.5 35.5t-96.5 -37.5t-36.5 -97.5q0 -55 20 -88h-151q-19 66 -19 99q0 112 82 188t205 76q128 0 204.5 -71t76.5 -189q0 -85 -45 -158t-148 -152l-159 -122h370v-136h-586z" />
    <glyph glyph-name="threesuperior" unicode="&#xb3;" 
d="M909 885q0 -105 -80.5 -173.5t-207.5 -68.5q-129 0 -213 67t-103 185l158 25q7 -66 49.5 -105t105.5 -39t101.5 34t38.5 91q0 54 -40 85.5t-106 31.5h-84v112h82q60 0 97.5 30t37.5 79q0 50 -34.5 80.5t-89.5 30.5q-57 0 -97.5 -35.5t-50.5 -95.5l-147 16
q17 111 99 179.5t202 68.5q122 0 196 -64.5t74 -169.5q0 -61 -40.5 -110.5t-100.5 -61.5q72 -20 112.5 -70t40.5 -122z" />
    <glyph glyph-name="acute" unicode="&#xb4;" 
d="M571 1186h-145l121 284h231z" />
    <glyph glyph-name="paragraph" unicode="&#xb6;" 
d="M969 0h-187v1303h-147v-562h-139q-185 0 -295.5 98.5t-110.5 262.5q0 166 116 267t306 101h621v-167h-164v-1303z" />
    <glyph glyph-name="middot" unicode="&#xb7;" 
d="M756 475h-283v291h283v-291z" />
    <glyph glyph-name="cedilla" unicode="&#xb8;" 
d="M823 -217q0 -75 -64 -123.5t-161 -48.5q-63 0 -117 21t-86 59l70 96q54 -66 127 -66q45 0 70.5 18t25.5 50q0 36 -38.5 55t-123.5 25l45 151h101l-23 -75q82 -11 128 -53t46 -109z" />
    <glyph glyph-name="onesuperior" unicode="&#xb9;" 
d="M565 791v440h-205v106l86 4q78 5 113 33.5t45 100.5h117v-684h174v-136h-530v136h200z" />
    <glyph glyph-name="ordmasculine" unicode="&#xba;" 
d="M983 1085q0 -177 -102 -288t-269 -111q-164 0 -266 111q-100 109 -100 288q0 180 100 289q101 113 266 113q167 0 269 -111t102 -291zM612 1339q-88 0 -139 -68.5t-51 -185.5q0 -115 51.5 -183t138.5 -68q88 0 140.5 67.5t52.5 183.5q0 117 -52.5 185.5t-140.5 68.5z
M956 432h-684v131h684v-131z" />
    <glyph glyph-name="guillemotright" unicode="&#xbb;" 
d="M643 362l260 183l-260 182v191l395 -281v-184l-395 -281v190zM188 362l261 183l-261 182v191l396 -281v-184l-396 -281v190z" />
    <glyph glyph-name="onequarter" unicode="&#xbc;" horiz-adv-x="2457" 
d="M565 791v440h-205v106l86 4q78 5 113 33.5t45 100.5h117v-684h174v-136h-530v136h200zM623 0l1048 1470h162l-1047 -1470h-163zM2005 201v-201h-145v201h-385v112l335 502h195v-493h141v-121h-141zM1858 688l-252 -366h252v366z" />
    <glyph glyph-name="onehalf" unicode="&#xbd;" horiz-adv-x="2457" 
d="M565 791v440h-205v106l86 4q78 5 113 33.5t45 100.5h117v-684h174v-136h-530v136h200zM623 0l1048 1470h162l-1047 -1470h-163zM1548 0v125l277 219q77 61 108 109t31 104q0 60 -36.5 95.5t-96.5 35.5t-96.5 -37.5t-36.5 -97.5q0 -55 20 -88h-151q-19 67 -19 98
q0 113 82 189q81 75 205 75q128 0 204.5 -71t76.5 -189q0 -85 -45 -157.5t-148 -151.5l-160 -123h371v-135h-586z" />
    <glyph glyph-name="threequarters" unicode="&#xbe;" horiz-adv-x="2457" 
d="M909 885q0 -105 -80.5 -173.5t-207.5 -68.5q-129 0 -213 67t-103 185l158 25q7 -66 49.5 -105t105.5 -39t101.5 34t38.5 91q0 54 -40 85.5t-106 31.5h-84v112h82q60 0 97.5 30t37.5 79q0 50 -34.5 80.5t-89.5 30.5q-57 0 -97.5 -35.5t-50.5 -95.5l-147 16
q17 111 99 179.5t202 68.5q122 0 196 -64.5t74 -169.5q0 -61 -40.5 -110.5t-100.5 -61.5q72 -20 112.5 -70t40.5 -122zM623 0l1048 1470h162l-1047 -1470h-163zM1993 201v-201h-146v201h-385v112l336 502h195v-493h141v-121h-141zM1845 688l-252 -366h252v366z" />
    <glyph glyph-name="questiondown" unicode="&#xbf;" 
d="M309 434q0 -123 80 -198.5t209 -75.5q135 0 222.5 82.5t107.5 228.5l186 -31q-27 -198 -172 -325q-141 -123 -354 -123q-211 0 -344 121q-131 119 -131 311q0 169 112 287q114 120 285 141v197h180v-328q-177 0 -279 -77t-102 -210zM483 1485h234v-242h-234v242z" />
    <glyph glyph-name="Agrave" unicode="&#xc0;" 
d="M41 0l459 1470h227l461 -1470h-199l-119 387h-518l-119 -387h-192zM817 559l-207 676l-207 -676h414zM489 1864l207 -297h-147l-318 297h258z" />
    <glyph glyph-name="Aacute" unicode="&#xc1;" 
d="M41 0l459 1470h227l461 -1470h-199l-119 387h-518l-119 -387h-192zM817 559l-207 676l-207 -676h414zM676 1567h-148l207 297h258z" />
    <glyph glyph-name="Acircumflex" unicode="&#xc2;" 
d="M41 0l459 1470h227l461 -1470h-199l-119 387h-518l-119 -387h-192zM817 559l-207 676l-207 -676h414zM504 1864h221l240 -297h-150l-201 178l-200 -178h-150z" />
    <glyph glyph-name="Atilde" unicode="&#xc3;" 
d="M41 0l459 1470h227l461 -1470h-199l-119 387h-518l-119 -387h-192zM817 559l-207 676l-207 -676h414zM469 1853q39 0 75 -15t93 -60q70 -56 113 -56q42 0 66.5 32.5t35.5 100.5h129q-11 -134 -69.5 -210t-151.5 -76q-37 0 -74 16t-96 60q-41 34 -65 45.5t-46 11.5
q-42 0 -66.5 -32.5t-35.5 -100.5h-129q8 134 66 209t155 75z" />
    <glyph glyph-name="Adieresis" unicode="&#xc4;" 
d="M41 0l459 1470h227l461 -1470h-199l-119 387h-518l-119 -387h-192zM817 559l-207 676l-207 -676h414zM535 1575h-205v213h205v-213zM899 1575h-205v213h205v-213z" />
    <glyph glyph-name="Aring" unicode="&#xc5;" 
d="M385 1612q0 93 66.5 157t162.5 64q98 0 164 -64t66 -157q0 -58 -27 -108.5t-76 -80.5l447 -1423h-199l-119 387h-518l-119 -387h-192l444 1425q-47 29 -73.5 79t-26.5 108zM614 1724q-44 0 -77 -34t-33 -78q0 -47 33 -81t77 -34q45 0 78 34t33 81q0 44 -33.5 78t-77.5 34
zM817 559l-207 676l-207 -676h414z" />
    <glyph glyph-name="AE" unicode="&#xc6;" 
d="M0 0l492 1470h702v-170h-377v-456h313v-168h-313v-506h377v-170h-569v403h-301l-134 -403h-190zM625 1321l-246 -750h246v750z" />
    <glyph glyph-name="Ccedilla" unicode="&#xc7;" 
d="M662 1319q-175 0 -285 -162q-111 -163 -111 -422t111 -422q109 -161 285 -161q121 0 207.5 78t121.5 219l185 -62q-57 -191 -189.5 -300t-312.5 -110l-10 -32q82 -11 128 -53t46 -109q0 -75 -64.5 -123.5t-161.5 -48.5q-63 0 -116.5 21t-85.5 59l69 96q54 -66 127 -66
q45 0 70.5 18t25.5 50q0 36 -38 55t-123 25l34 115q-225 38 -362 241q-135 205 -135 510q0 333 164 545q165 213 420 213q184 0 319 -107.5t195 -302.5l-185 -61q-35 141 -121.5 219t-207.5 78z" />
    <glyph glyph-name="Egrave" unicode="&#xc8;" 
d="M137 0v1470h981v-172h-788v-452h669v-172h-669v-502h788v-172h-981zM561 1864l207 -297h-147l-318 297h258z" />
    <glyph glyph-name="Eacute" unicode="&#xc9;" 
d="M137 0v1470h981v-172h-788v-452h669v-172h-669v-502h788v-172h-981zM629 1567h-148l207 297h258z" />
    <glyph glyph-name="Ecircumflex" unicode="&#xca;" 
d="M137 0v1470h981v-172h-788v-452h669v-172h-669v-502h788v-172h-981zM522 1864h221l240 -297h-149l-201 178l-201 -178h-149z" />
    <glyph glyph-name="Edieresis" unicode="&#xcb;" 
d="M137 0v1470h981v-172h-788v-452h669v-172h-669v-502h788v-172h-981zM545 1575h-205v213h205v-213zM909 1575h-204v213h204v-213z" />
    <glyph glyph-name="Igrave" unicode="&#xcc;" 
d="M713 172h415v-172h-1028v172h416v1126h-416v172h1028v-172h-415v-1126zM508 1864l207 -297h-148l-317 297h258z" />
    <glyph glyph-name="Iacute" unicode="&#xcd;" 
d="M713 172h415v-172h-1028v172h416v1126h-416v172h1028v-172h-415v-1126zM672 1567h-148l207 297h258z" />
    <glyph glyph-name="Icircumflex" unicode="&#xce;" 
d="M713 172h415v-172h-1028v172h416v1126h-416v172h1028v-172h-415v-1126zM504 1864h221l240 -297h-150l-201 178l-200 -178h-150z" />
    <glyph glyph-name="Idieresis" unicode="&#xcf;" 
d="M713 172h415v-172h-1028v172h416v1126h-416v172h1028v-172h-415v-1126zM535 1575h-205v213h205v-213zM899 1575h-205v213h205v-213z" />
    <glyph glyph-name="Eth" unicode="&#xd0;" 
d="M451 0h-314v672h-112v172h112v626h314q327 0 514 -196q188 -197 188 -539q0 -341 -188 -538t-514 -197zM330 672v-502h121q244 0 375.5 147t131.5 418t-132 418t-377 147h-119v-456h317v-172h-317z" />
    <glyph glyph-name="Ntilde" unicode="&#xd1;" 
d="M907 1470h185v-1470h-185l-585 1155v-1155h-185v1470h203l567 -1105v1105zM467 1853q39 0 75 -15t93 -60q70 -56 113 -56q42 0 66.5 32.5t35.5 100.5h129q-11 -134 -69.5 -210t-151.5 -76q-37 0 -74 16t-96 60q-41 34 -65 45.5t-46 11.5q-42 0 -66.5 -32.5t-35.5 -100.5
h-129q8 134 66 209t155 75z" />
    <glyph glyph-name="Ograve" unicode="&#xd2;" 
d="M614 -23q-239 0 -389 209q-147 212 -147 549q0 339 147 547q150 211 389 211q240 0 390 -211q149 -207 149 -547q0 -339 -149 -549q-150 -209 -390 -209zM614 152q159 0 254 157q95 160 95 426q0 267 -95 424q-95 160 -254 160t-254 -160q-92 -157 -92 -424
q0 -266 92 -426q95 -157 254 -157zM524 1864l207 -297h-147l-318 297h258z" />
    <glyph glyph-name="Oacute" unicode="&#xd3;" 
d="M614 -23q-239 0 -389 209q-147 212 -147 549q0 339 147 547q150 211 389 211q240 0 390 -211q149 -207 149 -547q0 -339 -149 -549q-150 -209 -390 -209zM614 152q159 0 254 157q95 160 95 426q0 267 -95 424q-95 160 -254 160t-254 -160q-92 -157 -92 -424
q0 -266 92 -426q95 -157 254 -157zM680 1567h-148l207 297h258z" />
    <glyph glyph-name="Ocircumflex" unicode="&#xd4;" 
d="M614 -23q-239 0 -389 209q-147 212 -147 549q0 339 147 547q150 211 389 211q240 0 390 -211q149 -207 149 -547q0 -339 -149 -549q-150 -209 -390 -209zM614 152q159 0 254 157q95 160 95 426q0 267 -95 424q-95 160 -254 160t-254 -160q-92 -157 -92 -424
q0 -266 92 -426q95 -157 254 -157zM504 1864h221l240 -297h-150l-201 178l-200 -178h-150z" />
    <glyph glyph-name="Otilde" unicode="&#xd5;" 
d="M614 -23q-239 0 -389 209q-147 212 -147 549q0 339 147 547q150 211 389 211q240 0 390 -211q149 -207 149 -547q0 -339 -149 -549q-150 -209 -390 -209zM614 152q159 0 254 157q95 160 95 426q0 267 -95 424q-95 160 -254 160t-254 -160q-92 -157 -92 -424
q0 -266 92 -426q95 -157 254 -157zM469 1853q39 0 75 -15t93 -60q70 -56 113 -56q42 0 66.5 32.5t35.5 100.5h129q-11 -134 -69.5 -210t-151.5 -76q-37 0 -74 16t-96 60q-41 34 -65 45.5t-46 11.5q-42 0 -66.5 -32.5t-35.5 -100.5h-129q8 134 66 209t155 75z" />
    <glyph glyph-name="Odieresis" unicode="&#xd6;" 
d="M614 -23q-239 0 -389 209q-147 212 -147 549q0 339 147 547q150 211 389 211q240 0 390 -211q149 -207 149 -547q0 -339 -149 -549q-150 -209 -390 -209zM614 152q159 0 254 157q95 160 95 426q0 267 -95 424q-95 160 -254 160t-254 -160q-92 -157 -92 -424
q0 -266 92 -426q95 -157 254 -157zM535 1575h-205v213h205v-213zM899 1575h-205v213h205v-213z" />
    <glyph glyph-name="multiply" unicode="&#xd7;" 
d="M150 346l352 354l-352 353l114 114l352 -354l351 352l114 -112l-350 -353l350 -352l-114 -115l-351 353l-352 -355z" />
    <glyph glyph-name="Oslash" unicode="&#xd8;" 
d="M184 -39l-104 76l123 186q-125 203 -125 512q0 339 147 547q150 211 389 211q193 0 330 -137l100 153l105 -75l-121 -187q125 -203 125 -512q0 -339 -149 -549q-150 -209 -390 -209q-190 0 -327 140zM614 1323q-163 0 -258 -160q-94 -155 -94 -428q0 -201 53 -340
l529 809q-88 119 -230 119zM614 147q161 0 256 160q97 163 97 428q0 192 -54 340l-528 -809q88 -119 229 -119z" />
    <glyph glyph-name="Ugrave" unicode="&#xd9;" 
d="M614 -20q-240 0 -366.5 148t-126.5 429v913h196v-905q0 -405 297 -405t297 405v905h197v-913q0 -281 -127 -429t-367 -148zM543 1864l207 -297h-148l-317 297h258z" />
    <glyph glyph-name="Uacute" unicode="&#xda;" 
d="M614 -20q-240 0 -366.5 148t-126.5 429v913h196v-905q0 -405 297 -405t297 405v905h197v-913q0 -281 -127 -429t-367 -148zM635 1567h-148l207 297h258z" />
    <glyph glyph-name="Ucircumflex" unicode="&#xdb;" 
d="M614 -20q-240 0 -366.5 148t-126.5 429v913h196v-905q0 -405 297 -405t297 405v905h197v-913q0 -281 -127 -429t-367 -148zM504 1864h221l240 -297h-150l-201 178l-200 -178h-150z" />
    <glyph glyph-name="Udieresis" unicode="&#xdc;" 
d="M614 -20q-240 0 -366.5 148t-126.5 429v913h196v-905q0 -405 297 -405t297 405v905h197v-913q0 -281 -127 -429t-367 -148zM535 1575h-205v213h205v-213zM899 1575h-205v213h205v-213z" />
    <glyph glyph-name="Yacute" unicode="&#xdd;" 
d="M219 1470l397 -675l398 675h207l-508 -852v-618h-197v618l-510 852h213zM645 1567h-147l207 297h258z" />
    <glyph glyph-name="Thorn" unicode="&#xde;" 
d="M1178 766q0 -202 -134 -314t-374 -112h-336v-340h-197v1470h197v-276h336q242 0 375 -112t133 -316zM657 1028h-323v-522h323q156 0 242 68t86 192q0 127 -84.5 194.5t-243.5 67.5z" />
    <glyph glyph-name="germandbls" unicode="&#xdf;" horiz-adv-x="1230" 
d="M635 1493q185 0 297 -100q115 -100 115 -254q0 -109 -58 -188.5t-162 -116.5q152 -37 235 -139.5t83 -256.5q0 -203 -135 -329q-132 -123 -340 -123q-100 0 -185 18v158q83 -21 160 -21q147 0 232.5 78t85.5 217q0 146 -95 224.5t-268 78.5h-108v162h92q129 0 203.5 61
t74.5 164q0 96 -63 153.5t-168 57.5q-131 0 -205 -90t-74 -248v-999h-184v999q0 223 127 359q126 135 340 135z" />
    <glyph glyph-name="agrave" unicode="&#xe0;" 
d="M827 125q-55 -67 -147 -105t-201 -38q-156 0 -260 84q-100 84 -100 223q0 137 99 222t312 126l287 55v45q0 94 -58.5 144.5t-168.5 50.5q-100 0 -167.5 -48t-96.5 -139l-172 46q43 140 161.5 220.5t282.5 80.5q192 0 295.5 -90.5t103.5 -256.5v-516q0 -109 131 -82v-147
q-135 -17 -208.5 14t-92.5 111zM506 131q128 0 219 70q92 71 92 170v178l-239 -45q-147 -29 -210 -77.5t-63 -129.5q0 -78 53.5 -122t147.5 -44zM561 1470l121 -284h-145l-207 284h231z" />
    <glyph glyph-name="aacute" unicode="&#xe1;" 
d="M827 125q-55 -67 -147 -105t-201 -38q-156 0 -260 84q-100 84 -100 223q0 137 99 222t312 126l287 55v45q0 94 -58.5 144.5t-168.5 50.5q-100 0 -167.5 -48t-96.5 -139l-172 46q43 140 161.5 220.5t282.5 80.5q192 0 295.5 -90.5t103.5 -256.5v-516q0 -109 131 -82v-147
q-135 -17 -208.5 14t-92.5 111zM506 131q128 0 219 70q92 71 92 170v178l-239 -45q-147 -29 -210 -77.5t-63 -129.5q0 -78 53.5 -122t147.5 -44zM673 1186h-145l121 284h231z" />
    <glyph glyph-name="acircumflex" unicode="&#xe2;" 
d="M827 125q-55 -67 -147 -105t-201 -38q-156 0 -260 84q-100 84 -100 223q0 137 99 222t312 126l287 55v45q0 94 -58.5 144.5t-168.5 50.5q-100 0 -167.5 -48t-96.5 -139l-172 46q43 140 161.5 220.5t282.5 80.5q192 0 295.5 -90.5t103.5 -256.5v-516q0 -109 131 -82v-147
q-135 -17 -208.5 14t-92.5 111zM506 131q128 0 219 70q92 71 92 170v178l-239 -45q-147 -29 -210 -77.5t-63 -129.5q0 -78 53.5 -122t147.5 -44zM498 1470h201l200 -284h-143l-158 160l-157 -160h-144z" />
    <glyph glyph-name="atilde" unicode="&#xe3;" 
d="M827 125q-55 -67 -147 -105t-201 -38q-156 0 -260 84q-100 84 -100 223q0 137 99 222t312 126l287 55v45q0 94 -58.5 144.5t-168.5 50.5q-100 0 -167.5 -48t-96.5 -139l-172 46q43 140 161.5 220.5t282.5 80.5q192 0 295.5 -90.5t103.5 -256.5v-516q0 -109 131 -82v-147
q-135 -17 -208.5 14t-92.5 111zM506 131q128 0 219 70q92 71 92 170v178l-239 -45q-147 -29 -210 -77.5t-63 -129.5q0 -78 53.5 -122t147.5 -44zM469 1473q33 0 66.5 -16.5t83.5 -59.5q37 -34 56 -45t38 -11q38 0 59 30t31 102h121q-11 -130 -63 -203.5t-136 -73.5
q-35 0 -68 15.5t-81 60.5q-38 32 -56.5 42.5t-37.5 10.5q-38 0 -59.5 -31t-28.5 -98h-121q8 131 59 204t137 73z" />
    <glyph glyph-name="adieresis" unicode="&#xe4;" 
d="M827 125q-55 -67 -147 -105t-201 -38q-156 0 -260 84q-100 84 -100 223q0 137 99 222t312 126l287 55v45q0 94 -58.5 144.5t-168.5 50.5q-100 0 -167.5 -48t-96.5 -139l-172 46q43 140 161.5 220.5t282.5 80.5q192 0 295.5 -90.5t103.5 -256.5v-516q0 -109 131 -82v-147
q-135 -17 -208.5 14t-92.5 111zM506 131q128 0 219 70q92 71 92 170v178l-239 -45q-147 -29 -210 -77.5t-63 -129.5q0 -78 53.5 -122t147.5 -44zM526 1249h-204v213h204v-213zM879 1249h-205v213h205v-213z" />
    <glyph glyph-name="aring" unicode="&#xe5;" 
d="M827 125q-55 -67 -147 -105t-201 -38q-156 0 -260 84q-100 84 -100 223q0 137 99 222t312 126l287 55v45q0 94 -58.5 144.5t-168.5 50.5q-100 0 -167.5 -48t-96.5 -139l-172 46q43 140 161.5 220.5t282.5 80.5q192 0 295.5 -90.5t103.5 -256.5v-516q0 -109 131 -82v-147
q-135 -17 -208.5 14t-92.5 111zM506 131q128 0 219 70q92 71 92 170v178l-239 -45q-147 -29 -210 -77.5t-63 -129.5q0 -78 53.5 -122t147.5 -44zM594 1157q-88 0 -147.5 58t-59.5 143t59.5 143t147.5 58t147.5 -58t59.5 -143t-59.5 -143t-147.5 -58zM594 1462
q-43 0 -72.5 -30.5t-29.5 -73.5t30 -74t72 -31t72 31t30 74t-29.5 73.5t-72.5 30.5z" />
    <glyph glyph-name="ae" unicode="&#xe6;" 
d="M16 293q0 167 119 260.5t330 93.5h41v90q0 92 -37 142.5t-104 50.5q-72 0 -120.5 -50.5t-58.5 -136.5l-147 43q15 132 106 220q92 86 217 86q175 0 246 -146q100 146 256 146q160 0 254 -144q94 -143 94 -381v-61h-557q6 -170 65.5 -269.5t153.5 -99.5q69 0 119.5 55.5
t67.5 151.5l145 -59q-32 -142 -123.5 -225t-214.5 -83q-88 0 -162.5 46.5t-121.5 132.5q-43 -84 -115.5 -129t-165.5 -45q-126 0 -206.5 86.5t-80.5 224.5zM864 934q-81 0 -133 -74.5t-69 -212.5h385q-2 132 -50.5 209.5t-132.5 77.5zM180 305q0 -79 37 -125.5t100 -46.5
q85 0 137 65t52 171v137h-35q-291 0 -291 -201z" />
    <glyph glyph-name="ccedilla" unicode="&#xe7;" 
d="M664 932q-160 0 -255.5 -107.5t-95.5 -289.5q0 -180 95.5 -288t255.5 -108q115 0 191.5 59.5t105.5 168.5l155 -76q-43 -143 -165 -228.5t-287 -85.5l-11 -32q82 -11 128 -53t46 -109q0 -75 -64 -123.5t-161 -48.5q-63 0 -117 21t-86 59l70 96q54 -66 127 -66
q45 0 70.5 18t25.5 50q0 36 -38.5 55t-123.5 25l35 117q-197 35 -315 182q-117 150 -117 367q0 244 148 401q147 156 381 156q166 0 286.5 -83t165.5 -225l-153 -79q-29 109 -106.5 168t-190.5 59z" />
    <glyph glyph-name="egrave" unicode="&#xe8;" 
d="M641 -23q-228 0 -373 154q-143 155 -143 404q0 244 143 399q146 158 365 158q216 0 342 -144q127 -145 127 -381v-61h-799q8 -167 100 -268t238 -101q112 0 189.5 54t103.5 151l160 -57q-51 -146 -171 -227t-282 -81zM633 934q-124 0 -209 -76t-111 -211h602
q-5 132 -79.5 209.5t-202.5 77.5zM606 1470l121 -284h-145l-207 284h231z" />
    <glyph glyph-name="eacute" unicode="&#xe9;" 
d="M641 -23q-228 0 -373 154q-143 155 -143 404q0 244 143 399q146 158 365 158q216 0 342 -144q127 -145 127 -381v-61h-799q8 -167 100 -268t238 -101q112 0 189.5 54t103.5 151l160 -57q-51 -146 -171 -227t-282 -81zM633 934q-124 0 -209 -76t-111 -211h602
q-5 132 -79.5 209.5t-202.5 77.5zM702 1186h-145l121 284h231z" />
    <glyph glyph-name="ecircumflex" unicode="&#xea;" 
d="M641 -23q-228 0 -373 154q-143 155 -143 404q0 244 143 399q146 158 365 158q216 0 342 -144q127 -145 127 -381v-61h-799q8 -167 100 -268t238 -101q112 0 189.5 54t103.5 151l160 -57q-51 -146 -171 -227t-282 -81zM633 934q-124 0 -209 -76t-111 -211h602
q-5 132 -79.5 209.5t-202.5 77.5zM537 1470h201l200 -284h-143l-158 160l-157 -160h-144z" />
    <glyph glyph-name="edieresis" unicode="&#xeb;" 
d="M641 -23q-228 0 -373 154q-143 155 -143 404q0 244 143 399q146 158 365 158q216 0 342 -144q127 -145 127 -381v-61h-799q8 -167 100 -268t238 -101q112 0 189.5 54t103.5 151l160 -57q-51 -146 -171 -227t-282 -81zM633 934q-124 0 -209 -76t-111 -211h602
q-5 132 -79.5 209.5t-202.5 77.5zM565 1249h-205v213h205v-213zM918 1249h-205v213h205v-213z" />
    <glyph glyph-name="igrave" unicode="&#xec;" 
d="M1141 0h-975v158h395v755h-395v158h579v-913h396v-158zM600 1470l121 -284h-146l-206 284h231z" />
    <glyph glyph-name="iacute" unicode="&#xed;" 
d="M1141 0h-975v158h395v755h-395v158h579v-913h396v-158zM727 1186h-145l121 284h231z" />
    <glyph glyph-name="icircumflex" unicode="&#xee;" 
d="M1141 0h-975v158h395v755h-395v158h579v-913h396v-158zM549 1470h201l200 -284h-143l-158 160l-157 -160h-144z" />
    <glyph glyph-name="idieresis" unicode="&#xef;" 
d="M1141 0h-975v158h395v755h-395v158h579v-913h396v-158zM575 1249h-204v213h204v-213zM928 1249h-205v213h205v-213z" />
    <glyph glyph-name="eth" unicode="&#xf0;" 
d="M614 1085q69 0 130 -25.5t98 -68.5q-53 115 -195 232l-340 -101v133l209 62q-88 57 -221 119l192 55q90 -41 211 -119l265 78v-133l-144 -43q293 -271 293 -705q0 -268 -137 -430t-361 -162q-221 0 -360 154q-137 155 -137 404q0 248 137 397q138 153 360 153zM614 936
q-142 0 -226.5 -108.5t-84.5 -292.5q0 -183 85 -291.5t226 -108.5t226.5 109t85.5 291q0 184 -85 292.5t-227 108.5z" />
    <glyph glyph-name="ntilde" unicode="&#xf1;" 
d="M375 0h-185v1071h185v-145q55 79 137.5 122.5t181.5 43.5q164 0 260.5 -104t96.5 -281v-707h-185v657q0 128 -57 195.5t-166 67.5q-110 0 -190 -80q-78 -78 -78 -201v-639zM501 1473q33 0 66.5 -16.5t83.5 -59.5q37 -34 56 -45t38 -11q38 0 59 30t31 102h121
q-11 -130 -63 -203.5t-136 -73.5q-35 0 -68 15.5t-81 60.5q-38 32 -56.5 42.5t-37.5 10.5q-38 0 -59.5 -31t-28.5 -98h-121q8 131 59 204t137 73z" />
    <glyph glyph-name="ograve" unicode="&#xf2;" 
d="M614 1092q221 0 359 -156q139 -154 139 -401t-139 -404q-139 -154 -359 -154q-221 0 -360 154q-137 155 -137 404t137 401q138 156 360 156zM614 936q-142 0 -226.5 -108.5t-84.5 -292.5q0 -183 85 -291.5t226 -108.5t226.5 109t85.5 291q0 184 -85 292.5t-227 108.5z
M586 1470l121 -284h-146l-207 284h232z" />
    <glyph glyph-name="oacute" unicode="&#xf3;" 
d="M614 1092q221 0 359 -156q139 -154 139 -401t-139 -404q-139 -154 -359 -154q-221 0 -360 154q-137 155 -137 404t137 401q138 156 360 156zM614 936q-142 0 -226.5 -108.5t-84.5 -292.5q0 -183 85 -291.5t226 -108.5t226.5 109t85.5 291q0 184 -85 292.5t-227 108.5z
M675 1186h-145l121 284h231z" />
    <glyph glyph-name="ocircumflex" unicode="&#xf4;" 
d="M614 1092q221 0 359 -156q139 -154 139 -401t-139 -404q-139 -154 -359 -154q-221 0 -360 154q-137 155 -137 404t137 401q138 156 360 156zM614 936q-142 0 -226.5 -108.5t-84.5 -292.5q0 -183 85 -291.5t226 -108.5t226.5 109t85.5 291q0 184 -85 292.5t-227 108.5z
M514 1470h201l200 -284h-143l-158 160l-157 -160h-144z" />
    <glyph glyph-name="otilde" unicode="&#xf5;" 
d="M614 1092q221 0 359 -156q139 -154 139 -401t-139 -404q-139 -154 -359 -154q-221 0 -360 154q-137 155 -137 404t137 401q138 156 360 156zM614 936q-142 0 -226.5 -108.5t-84.5 -292.5q0 -183 85 -291.5t226 -108.5t226.5 109t85.5 291q0 184 -85 292.5t-227 108.5z
M462 1473q33 0 66.5 -16.5t83.5 -59.5q37 -34 56 -45t38 -11q38 0 59 30t31 102h121q-11 -130 -63 -203.5t-136 -73.5q-35 0 -68 15.5t-81 60.5q-38 32 -56.5 42.5t-37.5 10.5q-38 0 -59.5 -31t-28.5 -98h-121q8 131 59 204t137 73z" />
    <glyph glyph-name="odieresis" unicode="&#xf6;" 
d="M614 1092q221 0 359 -156q139 -154 139 -401t-139 -404q-139 -154 -359 -154q-221 0 -360 154q-137 155 -137 404t137 401q138 156 360 156zM614 936q-142 0 -226.5 -108.5t-84.5 -292.5q0 -183 85 -291.5t226 -108.5t226.5 109t85.5 291q0 184 -85 292.5t-227 108.5z
M541 1249h-205v213h205v-213zM893 1249h-205v213h205v-213z" />
    <glyph glyph-name="divide" unicode="&#xf7;" 
d="M725 1006h-225v221h225v-221zM1135 618h-1041v164h1041v-164zM725 176h-225v221h225v-221z" />
    <glyph glyph-name="oslash" unicode="&#xf8;" 
d="M117 535q0 249 137 401q138 156 360 156q163 0 289 -91l88 111l109 -84l-99 -125q111 -151 111 -368q0 -247 -139 -404q-139 -154 -359 -154q-156 0 -284 89l-92 -117l-109 84l102 129q-114 148 -114 373zM614 940q-143 0 -229 -110.5t-86 -294.5q0 -134 47 -230l455 569
q-75 66 -187 66zM614 131q143 0 229.5 110t86.5 294q0 134 -45 225l-453 -567q77 -62 182 -62z" />
    <glyph glyph-name="ugrave" unicode="&#xf9;" 
d="M854 1071h184v-1071h-184v147q-56 -82 -137.5 -126t-179.5 -44q-166 0 -262.5 104t-96.5 281v709h184v-670q0 -125 57 -189.5t167 -64.5q112 0 190 78q78 81 78 201v645zM573 1470l121 -284h-145l-207 284h231z" />
    <glyph glyph-name="uacute" unicode="&#xfa;" 
d="M854 1071h184v-1071h-184v147q-56 -82 -137.5 -126t-179.5 -44q-166 0 -262.5 104t-96.5 281v709h184v-670q0 -125 57 -189.5t167 -64.5q112 0 190 78q78 81 78 201v645zM669 1186h-145l121 284h231z" />
    <glyph glyph-name="ucircumflex" unicode="&#xfb;" 
d="M854 1071h184v-1071h-184v147q-56 -82 -137.5 -126t-179.5 -44q-166 0 -262.5 104t-96.5 281v709h184v-670q0 -125 57 -189.5t167 -64.5q112 0 190 78q78 81 78 201v645zM506 1470h201l200 -284h-143l-158 160l-157 -160h-144z" />
    <glyph glyph-name="udieresis" unicode="&#xfc;" 
d="M854 1071h184v-1071h-184v147q-56 -82 -137.5 -126t-179.5 -44q-166 0 -262.5 104t-96.5 281v709h184v-670q0 -125 57 -189.5t167 -64.5q112 0 190 78q78 81 78 201v645zM532 1249h-204v213h204v-213zM885 1249h-205v213h205v-213z" />
    <glyph glyph-name="yacute" unicode="&#xfd;" 
d="M1147 1071l-506 -1188q-59 -145 -137.5 -204.5t-202.5 -59.5q-53 0 -100 8v160q41 -10 88 -10q66 0 106 30.5t72 104.5l53 123l-440 1036h194l342 -823l338 823h193zM677 1186h-145l121 284h231z" />
    <glyph glyph-name="thorn" unicode="&#xfe;" 
d="M1120 535q0 -247 -125 -402q-123 -156 -323 -156q-102 0 -184 47t-132 134v-527h-184v1839h184v-557q49 86 131 132.5t185 46.5q200 0 325 -158q123 -156 123 -399zM635 930q-126 0 -204.5 -98.5t-78.5 -262.5v-73q0 -160 79.5 -258.5t203.5 -98.5q139 0 219 106.5
t80 289.5t-80 289t-219 106z" />
    <glyph glyph-name="ydieresis" unicode="&#xff;" 
d="M1147 1071l-506 -1188q-59 -145 -137.5 -204.5t-202.5 -59.5q-53 0 -100 8v160q41 -10 88 -10q66 0 106 30.5t72 104.5l53 123l-440 1036h194l342 -823l338 823h193zM541 1249h-205v213h205v-213zM893 1249h-205v213h205v-213z" />
    <glyph glyph-name="Amacron" unicode="&#x100;" 
d="M41 0l459 1470h227l461 -1470h-199l-119 387h-518l-119 -387h-192zM817 559l-207 676l-207 -676h414zM934 1751v-154h-639v154h639z" />
    <glyph glyph-name="amacron" unicode="&#x101;" 
d="M827 125q-55 -67 -147 -105t-201 -38q-156 0 -260 84q-100 84 -100 223q0 137 99 222t312 126l287 55v45q0 94 -58.5 144.5t-168.5 50.5q-100 0 -167.5 -48t-96.5 -139l-172 46q43 140 161.5 220.5t282.5 80.5q192 0 295.5 -90.5t103.5 -256.5v-516q0 -109 131 -82v-147
q-135 -17 -208.5 14t-92.5 111zM506 131q128 0 219 70q92 71 92 170v178l-239 -45q-147 -29 -210 -77.5t-63 -129.5q0 -78 53.5 -122t147.5 -44zM887 1389v-148h-561v148h561z" />
    <glyph glyph-name="Abreve" unicode="&#x102;" 
d="M41 0l459 1470h227l461 -1470h-199l-119 387h-518l-119 -387h-192zM817 559l-207 676l-207 -676h414zM614 1690q78 0 127.5 48t49.5 126h139q0 -136 -86.5 -218.5t-229.5 -82.5t-229 82.5t-86 218.5h139q0 -78 49 -126t127 -48z" />
    <glyph glyph-name="abreve" unicode="&#x103;" 
d="M827 125q-55 -67 -147 -105t-201 -38q-156 0 -260 84q-100 84 -100 223q0 137 99 222t312 126l287 55v45q0 94 -58.5 144.5t-168.5 50.5q-100 0 -167.5 -48t-96.5 -139l-172 46q43 140 161.5 220.5t282.5 80.5q192 0 295.5 -90.5t103.5 -256.5v-516q0 -109 131 -82v-147
q-135 -17 -208.5 14t-92.5 111zM506 131q128 0 219 70q92 71 92 170v178l-239 -45q-147 -29 -210 -77.5t-63 -129.5q0 -78 53.5 -122t147.5 -44zM598 1309q66 0 106 43.5t40 117.5h129q0 -136 -73.5 -215t-201.5 -79q-127 0 -200.5 78.5t-73.5 215.5h129q0 -75 39.5 -118
t105.5 -43z" />
    <glyph glyph-name="Aogonek" unicode="&#x104;" 
d="M983 -381q-80 0 -132 46t-52 118q0 70 39.5 129t136.5 133l-105 342h-518l-119 -387h-192l459 1470h227l461 -1470h-119q-77 -66 -106 -107.5t-29 -80.5q0 -32 22.5 -52t59.5 -20q32 0 82 12v-119q-55 -14 -115 -14zM817 559l-207 676l-207 -676h414z" />
    <glyph glyph-name="aogonek" unicode="&#x105;" 
d="M1128 147v-147q-85 -32 -136.5 -83t-51.5 -103q0 -35 22 -54.5t60 -19.5q32 0 82 12v-119q-49 -14 -115 -14q-78 0 -131 47t-53 119q0 127 135 221q-98 28 -113 119q-55 -67 -147 -105t-201 -38q-156 0 -260 84q-100 84 -100 223q0 137 99 222t312 126l287 55v45
q0 94 -58.5 144.5t-168.5 50.5q-100 0 -167.5 -48t-96.5 -139l-172 46q43 140 161.5 220.5t282.5 80.5q192 0 295.5 -90.5t103.5 -256.5v-516q0 -109 131 -82zM506 131q128 0 219 70q92 71 92 170v178l-239 -45q-147 -29 -210 -77.5t-63 -129.5q0 -78 53.5 -122t147.5 -44z
" />
    <glyph glyph-name="Cacute" unicode="&#x106;" 
d="M662 1319q-175 0 -285 -162q-111 -163 -111 -422t111 -422q109 -161 285 -161q121 0 207.5 78t121.5 219l185 -62q-60 -195 -195 -302.5t-319 -107.5q-257 0 -420 211q-164 212 -164 547q0 333 164 545q165 213 420 213q184 0 319 -107.5t195 -302.5l-185 -61
q-35 141 -121.5 219t-207.5 78zM715 1567h-148l207 297h258z" />
    <glyph glyph-name="cacute" unicode="&#x107;" 
d="M664 932q-160 0 -255.5 -107.5t-95.5 -289.5q0 -180 95.5 -288t255.5 -108q115 0 191.5 59.5t105.5 168.5l155 -76q-43 -143 -165.5 -228.5t-288.5 -85.5q-231 0 -381 156q-148 157 -148 402q0 244 148 401q147 156 381 156q166 0 286.5 -83t165.5 -225l-153 -79
q-29 109 -106.5 168t-190.5 59zM719 1186h-146l121 284h232z" />
    <glyph glyph-name="Ccircumflex" unicode="&#x108;" 
d="M662 1319q-175 0 -285 -162q-111 -163 -111 -422t111 -422q109 -161 285 -161q121 0 207.5 78t121.5 219l185 -62q-60 -195 -195 -302.5t-319 -107.5q-257 0 -420 211q-164 212 -164 547q0 333 164 545q165 213 420 213q184 0 319 -107.5t195 -302.5l-185 -61
q-35 141 -121.5 219t-207.5 78zM563 1864h221l240 -297h-150l-200 178l-201 -178h-149z" />
    <glyph glyph-name="ccircumflex" unicode="&#x109;" 
d="M664 932q-160 0 -255.5 -107.5t-95.5 -289.5q0 -180 95.5 -288t255.5 -108q115 0 191.5 59.5t105.5 168.5l155 -76q-43 -143 -165.5 -228.5t-288.5 -85.5q-231 0 -381 156q-148 157 -148 402q0 244 148 401q147 156 381 156q166 0 286.5 -83t165.5 -225l-153 -79
q-29 109 -106.5 168t-190.5 59zM555 1470h201l200 -284h-143l-158 160l-157 -160h-144z" />
    <glyph glyph-name="Cdotaccent" unicode="&#x10a;" 
d="M662 1319q-175 0 -285 -162q-111 -163 -111 -422t111 -422q109 -161 285 -161q121 0 207.5 78t121.5 219l185 -62q-60 -195 -195 -302.5t-319 -107.5q-257 0 -420 211q-164 212 -164 547q0 333 164 545q165 213 420 213q184 0 319 -107.5t195 -302.5l-185 -61
q-35 141 -121.5 219t-207.5 78zM778 1575h-205v213h205v-213z" />
    <glyph glyph-name="cdotaccent" unicode="&#x10b;" 
d="M664 932q-160 0 -255.5 -107.5t-95.5 -289.5q0 -180 95.5 -288t255.5 -108q115 0 191.5 59.5t105.5 168.5l155 -76q-43 -143 -165.5 -228.5t-288.5 -85.5q-231 0 -381 156q-148 157 -148 402q0 244 148 401q147 156 381 156q166 0 286.5 -83t165.5 -225l-153 -79
q-29 109 -106.5 168t-190.5 59zM756 1257h-201v213h201v-213z" />
    <glyph glyph-name="Ccaron" unicode="&#x10c;" 
d="M662 1319q-175 0 -285 -162q-111 -163 -111 -422t111 -422q109 -161 285 -161q121 0 207.5 78t121.5 219l185 -62q-60 -195 -195 -302.5t-319 -107.5q-257 0 -420 211q-164 212 -164 547q0 333 164 545q165 213 420 213q184 0 319 -107.5t195 -302.5l-185 -61
q-35 141 -121.5 219t-207.5 78zM1026 1866l-240 -297h-221l-239 297h149l201 -178l201 178h149z" />
    <glyph glyph-name="ccaron" unicode="&#x10d;" 
d="M664 932q-160 0 -255.5 -107.5t-95.5 -289.5q0 -180 95.5 -288t255.5 -108q115 0 191.5 59.5t105.5 168.5l155 -76q-43 -143 -165.5 -228.5t-288.5 -85.5q-231 0 -381 156q-148 157 -148 402q0 244 148 401q147 156 381 156q166 0 286.5 -83t165.5 -225l-153 -79
q-29 109 -106.5 168t-190.5 59zM965 1470l-201 -284h-201l-201 284h144l158 -159l157 159h144z" />
    <glyph glyph-name="Dcaron" unicode="&#x10e;" 
d="M451 0h-314v1470h314q327 0 514 -196q188 -197 188 -539q0 -341 -188 -538t-514 -197zM330 1300v-1130h121q244 0 375.5 147t131.5 418t-132 418t-377 147h-119zM1001 1866l-239 -297h-221l-240 297h150l200 -178l201 178h149z" />
    <glyph glyph-name="dcaron" unicode="&#x10f;" 
d="M502 -23q-194 0 -314 156q-118 153 -118 402q0 248 118 401q120 156 314 156q196 0 299 -179v557h184v-1470h-184v158q-102 -181 -299 -181zM1231 1063h-121l35 407h203zM805 496v73q0 164 -74 262.5t-192 98.5q-131 0 -207 -106t-76 -289t76 -289.5t207 -106.5
q117 0 191.5 98.5t74.5 258.5z" />
    <glyph glyph-name="Dcroat" unicode="&#x110;" 
d="M451 0h-314v672h-112v172h112v626h314q327 0 514 -196q188 -197 188 -539q0 -341 -188 -538t-514 -197zM330 672v-502h121q244 0 375.5 147t131.5 418t-132 418t-377 147h-119v-456h317v-172h-317z" />
    <glyph glyph-name="dslash" unicode="&#x111;" 
d="M557 -23q-200 0 -326 156q-122 155 -122 402q0 244 122 399q125 158 326 158q103 0 184 -46.5t131 -132.5v267h-276v147h276v143h185v-143h125v-147h-125v-1180h-185v158q-50 -87 -131.5 -134t-183.5 -47zM877 496v73q0 164 -78.5 262.5t-204.5 98.5q-139 0 -219 -106
t-80 -289t80 -289.5t219 -106.5q124 0 203.5 98.5t79.5 258.5z" />
    <glyph glyph-name="Emacron" unicode="&#x112;" 
d="M137 0v1470h981v-172h-788v-452h669v-172h-669v-502h788v-172h-981zM940 1751v-154h-639v154h639z" />
    <glyph glyph-name="emacron" unicode="&#x113;" 
d="M641 -23q-228 0 -373 154q-143 155 -143 404q0 244 143 399q146 158 365 158q216 0 342 -144q127 -145 127 -381v-61h-799q8 -167 100 -268t238 -101q112 0 189.5 54t103.5 151l160 -57q-51 -146 -171 -227t-282 -81zM633 934q-124 0 -209 -76t-111 -211h602
q-5 132 -79.5 209.5t-202.5 77.5zM913 1389v-148h-561v148h561z" />
    <glyph glyph-name="Ebreve" unicode="&#x114;" 
d="M137 0v1470h981v-172h-788v-452h669v-172h-669v-502h788v-172h-981zM633 1690q78 0 127 48t49 126h139q0 -136 -86 -218.5t-229 -82.5t-229.5 82.5t-86.5 218.5h140q0 -78 49 -126t127 -48z" />
    <glyph glyph-name="ebreve" unicode="&#x115;" 
d="M641 -23q-228 0 -373 154q-143 155 -143 404q0 244 143 399q146 158 365 158q216 0 342 -144q127 -145 127 -381v-61h-799q8 -167 100 -268t238 -101q112 0 189.5 54t103.5 151l160 -57q-51 -146 -171 -227t-282 -81zM633 934q-124 0 -209 -76t-111 -211h602
q-5 132 -79.5 209.5t-202.5 77.5zM632 1309q66 0 106 43.5t40 117.5h129q0 -136 -73.5 -215t-201.5 -79q-127 0 -200.5 78.5t-73.5 215.5h129q0 -75 39.5 -118t105.5 -43z" />
    <glyph glyph-name="Edotaccent" unicode="&#x116;" 
d="M137 0v1470h981v-172h-788v-452h669v-172h-669v-502h788v-172h-981zM733 1575h-205v213h205v-213z" />
    <glyph glyph-name="edotaccent" unicode="&#x117;" 
d="M641 -23q-228 0 -373 154q-143 155 -143 404q0 244 143 399q146 158 365 158q216 0 342 -144q127 -145 127 -381v-61h-799q8 -167 100 -268t238 -101q112 0 189.5 54t103.5 151l160 -57q-51 -146 -171 -227t-282 -81zM633 934q-124 0 -209 -76t-111 -211h602
q-5 132 -79.5 209.5t-202.5 77.5zM733 1257h-201v213h201v-213z" />
    <glyph glyph-name="Eogonek" unicode="&#x118;" 
d="M911 -381q-80 0 -132 46t-52 118q0 59 27.5 109t91.5 108h-709v1470h981v-172h-788v-452h669v-172h-669v-502h788v-172h-121q-77 -66 -106 -107.5t-29 -80.5q0 -32 22.5 -52t59.5 -20q33 0 82 12v-119q-55 -14 -115 -14z" />
    <glyph glyph-name="eogonek" unicode="&#x119;" 
d="M723 -381q-78 0 -130 46t-52 118q0 108 92 194q-228 3 -369 156q-139 157 -139 402q0 244 143 399q146 158 365 158q216 0 342 -144q127 -145 127 -381v-61h-799q8 -167 100 -268t238 -101q112 0 189.5 54t103.5 151l160 -57q-62 -173 -217 -254q-96 -47 -149.5 -104
t-53.5 -111q0 -32 23.5 -54t58.5 -22q36 0 82 12v-119q-49 -14 -115 -14zM633 934q-124 0 -209 -76t-111 -211h602q-5 132 -79.5 209.5t-202.5 77.5z" />
    <glyph glyph-name="Ecaron" unicode="&#x11a;" 
d="M137 0v1470h981v-172h-788v-452h669v-172h-669v-502h788v-172h-981zM985 1866l-240 -297h-221l-239 297h149l201 -178l201 178h149z" />
    <glyph glyph-name="ecaron" unicode="&#x11b;" 
d="M641 -23q-228 0 -373 154q-143 155 -143 404q0 244 143 399q146 158 365 158q216 0 342 -144q127 -145 127 -381v-61h-799q8 -167 100 -268t238 -101q112 0 189.5 54t103.5 151l160 -57q-51 -146 -171 -227t-282 -81zM633 934q-124 0 -209 -76t-111 -211h602
q-5 132 -79.5 209.5t-202.5 77.5zM940 1470l-201 -284h-200l-201 284h143l158 -159l158 159h143z" />
    <glyph glyph-name="Gcircumflex" unicode="&#x11c;" 
d="M1133 0h-160v219q-42 -111 -135 -176.5t-215 -65.5q-241 0 -394 211q-151 213 -151 543q0 334 160 547q159 215 405 215q180 0 304 -105.5t175 -302.5l-178 -63q-32 143 -110.5 220t-190.5 77q-163 0 -268 -164q-103 -165 -103 -422q0 -265 101 -422q103 -157 266 -157
q141 0 227 120.5t88 317.5h-338v172h517v-764zM535 1864h221l239 -297h-149l-201 178l-201 -178h-149z" />
    <glyph glyph-name="gcircumflex" unicode="&#x11d;" 
d="M1057 1071v-975q0 -224 -135 -356q-131 -131 -363 -131q-179 0 -300.5 79.5t-164.5 225.5l172 66q26 -102 104 -160t189 -58q154 0 233.5 81t79.5 239v121q-44 -84 -129.5 -131t-191.5 -47q-203 0 -328 149t-125 385q0 234 125 383q126 150 328 150q106 0 191.5 -47.5
t129.5 -131.5v158h185zM874 537v38q0 160 -80 257.5t-206 97.5q-142 0 -222.5 -98.5t-80.5 -272.5q0 -173 81 -273t222 -100q126 0 206 96.5t80 254.5zM516 1470h201l201 -284h-144l-158 160l-157 -160h-144z" />
    <glyph glyph-name="Gbreve" unicode="&#x11e;" 
d="M1133 0h-160v219q-42 -111 -135 -176.5t-215 -65.5q-241 0 -394 211q-151 213 -151 543q0 334 160 547q159 215 405 215q180 0 304 -105.5t175 -302.5l-178 -63q-32 143 -110.5 220t-190.5 77q-163 0 -268 -164q-103 -165 -103 -422q0 -265 101 -422q103 -157 266 -157
q141 0 227 120.5t88 317.5h-338v172h517v-764zM645 1690q78 0 127 48t49 126h140q0 -136 -86.5 -218.5t-229.5 -82.5t-229 82.5t-86 218.5h139q0 -78 49 -126t127 -48z" />
    <glyph glyph-name="gbreve" unicode="&#x11f;" 
d="M1057 1071v-975q0 -224 -135 -356q-131 -131 -363 -131q-179 0 -300.5 79.5t-164.5 225.5l172 66q26 -102 104 -160t189 -58q154 0 233.5 81t79.5 239v121q-44 -84 -129.5 -131t-191.5 -47q-203 0 -328 149t-125 385q0 234 125 383q126 150 328 150q106 0 191.5 -47.5
t129.5 -131.5v158h185zM874 537v38q0 160 -80 257.5t-206 97.5q-142 0 -222.5 -98.5t-80.5 -272.5q0 -173 81 -273t222 -100q126 0 206 96.5t80 254.5zM616 1309q66 0 106 43.5t40 117.5h129q0 -136 -73.5 -215t-201.5 -79q-127 0 -200.5 78.5t-73.5 215.5h129
q0 -75 39.5 -118t105.5 -43z" />
    <glyph glyph-name="Gdotaccent" unicode="&#x120;" 
d="M1133 0h-160v219q-42 -111 -135 -176.5t-215 -65.5q-241 0 -394 211q-151 213 -151 543q0 334 160 547q159 215 405 215q180 0 304 -105.5t175 -302.5l-178 -63q-32 143 -110.5 220t-190.5 77q-163 0 -268 -164q-103 -165 -103 -422q0 -265 101 -422q103 -157 266 -157
q141 0 227 120.5t88 317.5h-338v172h517v-764zM748 1575h-205v213h205v-213z" />
    <glyph glyph-name="gdotaccent" unicode="&#x121;" 
d="M1057 1071v-975q0 -224 -135 -356q-131 -131 -363 -131q-179 0 -300.5 79.5t-164.5 225.5l172 66q26 -102 104 -160t189 -58q154 0 233.5 81t79.5 239v121q-44 -84 -129.5 -131t-191.5 -47q-203 0 -328 149t-125 385q0 234 125 383q126 150 328 150q106 0 191.5 -47.5
t129.5 -131.5v158h185zM874 537v38q0 160 -80 257.5t-206 97.5q-142 0 -222.5 -98.5t-80.5 -272.5q0 -173 81 -273t222 -100q126 0 206 96.5t80 254.5zM711 1257h-201v213h201v-213z" />
    <glyph glyph-name="Gcommaaccent" unicode="&#x122;" 
d="M1133 0h-160v219q-42 -111 -135 -176.5t-215 -65.5q-241 0 -394 211q-151 213 -151 543q0 334 160 547q159 215 405 215q180 0 304 -105.5t175 -302.5l-178 -63q-32 143 -110.5 220t-190.5 77q-163 0 -268 -164q-103 -165 -103 -422q0 -265 101 -422q103 -157 266 -157
q141 0 227 120.5t88 317.5h-338v172h517v-764zM623 -223h-80v147h198v-125q0 -86 -60.5 -138t-160.5 -52v84q51 2 76.5 22t26.5 62z" />
    <glyph glyph-name="gcommaaccent" unicode="&#x123;" 
d="M1057 1071v-975q0 -224 -135 -356q-131 -131 -363 -131q-179 0 -300.5 79.5t-164.5 225.5l172 66q26 -102 104 -160t189 -58q154 0 233.5 81t79.5 239v121q-44 -84 -129.5 -131t-191.5 -47q-203 0 -328 149t-125 385q0 234 125 383q126 150 328 150q106 0 191.5 -47.5
t129.5 -131.5v158h185zM874 537v38q0 160 -80 257.5t-206 97.5q-142 0 -222.5 -98.5t-80.5 -272.5q0 -173 81 -273t222 -100q126 0 206 96.5t80 254.5zM633 1333h80v-147h-199v125q0 86 60.5 138t160.5 52v-84q-51 -2 -76 -22t-26 -62z" />
    <glyph glyph-name="Hcircumflex" unicode="&#x124;" 
d="M895 846v624h197v-1470h-197v674h-561v-674h-197v1470h197v-624h561zM504 1864h221l240 -297h-150l-201 178l-200 -178h-150z" />
    <glyph glyph-name="hcircumflex" unicode="&#x125;" 
d="M375 0h-185v1470h185v-544q55 79 137.5 122.5t181.5 43.5q164 0 260.5 -104t96.5 -281v-707h-185v657q0 128 -57 195.5t-166 67.5q-110 0 -190 -80q-78 -78 -78 -201v-639zM506 1901h221l240 -297h-150l-201 178l-200 -178h-150z" />
    <glyph glyph-name="Hbar" unicode="&#x126;" 
d="M1214 1161v-168h-127v-993h-196v565h-553v-565h-197v993h-127v168h127v309h197v-309h553v309h196v-309h127zM338 993v-258h553v258h-553z" />
    <glyph glyph-name="hbar" unicode="&#x127;" 
d="M375 0h-185v1180h-143v147h143v143h185v-143h260v-147h-260v-254q55 79 137.5 122.5t181.5 43.5q164 0 260.5 -104t96.5 -281v-707h-185v657q0 128 -57 195.5t-166 67.5q-110 0 -190 -80q-78 -78 -78 -201v-639z" />
    <glyph glyph-name="Itilde" unicode="&#x128;" 
d="M713 172h415v-172h-1028v172h416v1126h-416v172h1028v-172h-415v-1126zM469 1853q39 0 75 -15t93 -60q70 -56 113 -56q42 0 66.5 32.5t35.5 100.5h129q-11 -134 -69.5 -210t-151.5 -76q-37 0 -74 16t-96 60q-41 34 -65 45.5t-46 11.5q-42 0 -66.5 -32.5t-35.5 -100.5
h-129q8 134 66 209t155 75z" />
    <glyph glyph-name="itilde" unicode="&#x129;" 
d="M1141 0h-975v158h395v755h-395v158h579v-913h396v-158zM522 1473q33 0 66.5 -16.5t83.5 -59.5q37 -34 56 -45t38 -11q38 0 59 30t31 102h121q-11 -130 -63 -203.5t-136 -73.5q-35 0 -68 15.5t-81 60.5q-38 32 -56.5 42.5t-37.5 10.5q-38 0 -59.5 -31t-28.5 -98h-121
q8 131 59 204t137 73z" />
    <glyph glyph-name="Imacron" unicode="&#x12a;" 
d="M713 172h415v-172h-1028v172h416v1126h-416v172h1028v-172h-415v-1126zM934 1751v-154h-639v154h639z" />
    <glyph glyph-name="imacron" unicode="&#x12b;" 
d="M1141 0h-975v158h395v755h-395v158h579v-913h396v-158zM930 1389v-148h-561v148h561z" />
    <glyph glyph-name="Ibreve" unicode="&#x12c;" 
d="M713 172h415v-172h-1028v172h416v1126h-416v172h1028v-172h-415v-1126zM614 1690q78 0 127.5 48t49.5 126h139q0 -136 -86.5 -218.5t-229.5 -82.5t-229 82.5t-86 218.5h139q0 -78 49 -126t127 -48z" />
    <glyph glyph-name="ibreve" unicode="&#x12d;" 
d="M1141 0h-975v158h395v755h-395v158h579v-913h396v-158zM649 1309q66 0 106 43.5t40 117.5h129q0 -136 -73.5 -215t-201.5 -79q-127 0 -200.5 78.5t-73.5 215.5h129q0 -75 39.5 -118t105.5 -43z" />
    <glyph glyph-name="Iogonek" unicode="&#x12e;" 
d="M610 -381q-80 0 -132 46t-52 118q0 59 27.5 109t91.5 108h-445v172h416v1126h-416v172h1028v-172h-415v-1126h415v-172h-432q-77 -66 -106 -107.5t-29 -80.5q0 -32 22.5 -52t59.5 -20q33 0 82 12v-119q-55 -14 -115 -14z" />
    <glyph glyph-name="iogonek" unicode="&#x12f;" 
d="M754 1257h-201v213h201v-213zM573 0h-407v158h395v755h-395v158h579v-913h396v-158h-416q-77 -66 -106 -107.5t-29 -80.5q0 -32 22.5 -52t59.5 -20q32 0 82 12v-119q-55 -14 -115 -14q-80 0 -132 46t-52 118q0 60 27.5 110t90.5 107z" />
    <glyph glyph-name="Idot" unicode="&#x130;" 
d="M713 172h415v-172h-1028v172h416v1126h-416v172h1028v-172h-415v-1126zM717 1575h-205v213h205v-213z" />
    <glyph glyph-name="dotlessi" unicode="&#x131;" 
d="M1141 0h-975v158h395v755h-395v158h579v-913h396v-158z" />
    <glyph glyph-name="Jcircumflex" unicode="&#x134;" 
d="M449 -18q-144 0 -275 28v195q134 -35 264 -35q213 0 314.5 87t101.5 267v774h-590v172h787v-968q0 -253 -154.5 -386.5t-447.5 -133.5zM827 1864h222l239 -297h-149l-201 178l-201 -178h-149z" />
    <glyph glyph-name="jcircumflex" unicode="&#x135;" 
d="M434 -221q305 0 305 250v884h-534v158h721v-1063q0 -183 -130 -289t-347 -106q-160 0 -261 37v166q119 -37 246 -37zM731 1470h201l201 -284h-144l-158 160l-157 -160h-144z" />
    <glyph glyph-name="Kcommaaccent" unicode="&#x136;" 
d="M137 1470h197v-692l620 692h236l-582 -636l598 -834h-231l-502 686l-139 -154v-532h-197v1470zM623 -223h-80v147h198v-125q0 -86 -60.5 -138t-160.5 -52v84q51 2 76.5 22t26.5 62z" />
    <glyph glyph-name="kcommaaccent" unicode="&#x137;" 
d="M207 1470h184v-919l496 520h229l-418 -422l453 -649h-215l-367 518l-178 -180v-338h-184v1470zM641 -223h-80v147h199v-125q0 -86 -60.5 -138t-160.5 -52v84q51 2 76 22t26 62z" />
    <glyph glyph-name="kgreenlandic" unicode="&#x138;" 
d="M207 1071h184v-520l496 520h229l-418 -422l453 -649h-215l-367 518l-178 -180v-338h-184v1071z" />
    <glyph glyph-name="Lacute" unicode="&#x139;" 
d="M1128 0h-929v1470h196v-1298h733v-172zM371 1567h-148l207 297h258z" />
    <glyph glyph-name="lacute" unicode="&#x13a;" 
d="M1141 0h-975v158h395v1155h-395v157h579v-1312h396v-158zM711 1638h-148l207 297h258z" />
    <glyph glyph-name="Lcommaaccent" unicode="&#x13b;" 
d="M1128 0h-929v1470h196v-1298h733v-172zM631 -223h-80v147h199v-125q0 -86 -61 -138t-161 -52v84q51 2 76.5 22t26.5 62z" />
    <glyph glyph-name="lcommaaccent" unicode="&#x13c;" 
d="M1141 0h-975v158h395v1155h-395v157h579v-1312h396v-158zM631 -223h-80v147h199v-125q0 -86 -61 -138t-161 -52v84q51 2 76.5 22t26.5 62z" />
    <glyph glyph-name="Lcaron" unicode="&#x13d;" 
d="M1128 0h-929v1470h196v-1298h733v-172zM844 1063h-127l35 407h209z" />
    <glyph glyph-name="lcaron" unicode="&#x13e;" 
d="M1141 0h-975v158h395v1155h-395v157h579v-1312h396v-158zM985 1063h-127l35 407h209z" />
    <glyph glyph-name="Ldot" unicode="&#x13f;" 
d="M1128 0h-929v1470h196v-1298h733v-172zM1012 676h-201v213h201v-213z" />
    <glyph glyph-name="ldot" unicode="&#x140;" 
d="M1141 0h-975v158h395v1155h-395v157h579v-1312h396v-158zM1366 647h-201v213h201v-213z" />
    <glyph glyph-name="Lslash" unicode="&#x141;" 
d="M1128 0h-929v543l-158 -70v168l158 70v759h196v-673l328 143v-168l-328 -143v-457h733v-172z" />
    <glyph glyph-name="lslash" unicode="&#x142;" 
d="M1155 0h-975v158h395v524l-235 -121v174l235 121v457h-395v157h580v-518l235 121v-174l-235 -121v-620h395v-158z" />
    <glyph glyph-name="Nacute" unicode="&#x143;" 
d="M907 1470h185v-1470h-185l-585 1155v-1155h-185v1470h203l567 -1105v1105zM612 1567h-147l207 297h258z" />
    <glyph glyph-name="nacute" unicode="&#x144;" 
d="M375 0h-185v1071h185v-145q55 79 137.5 122.5t181.5 43.5q164 0 260.5 -104t96.5 -281v-707h-185v657q0 128 -57 195.5t-166 67.5q-110 0 -190 -80q-78 -78 -78 -201v-639zM688 1186h-145l121 284h231z" />
    <glyph glyph-name="Ncommaaccent" unicode="&#x145;" 
d="M907 1470h185v-1470h-185l-585 1155v-1155h-185v1470h203l567 -1105v1105zM592 -223h-80v147h199v-125q0 -86 -61 -138t-161 -52v84q51 2 76.5 22t26.5 62z" />
    <glyph glyph-name="ncommaaccent" unicode="&#x146;" 
d="M375 0h-185v1071h185v-145q55 79 137.5 122.5t181.5 43.5q164 0 260.5 -104t96.5 -281v-707h-185v657q0 128 -57 195.5t-166 67.5q-110 0 -190 -80q-78 -78 -78 -201v-639zM610 -223h-80v147h199v-125q0 -86 -60.5 -138t-160.5 -52v84q51 2 76 22t26 62z" />
    <glyph glyph-name="Ncaron" unicode="&#x147;" 
d="M907 1470h185v-1470h-185l-585 1155v-1155h-185v1470h203l567 -1105v1105zM965 1866l-240 -297h-221l-240 297h150l200 -178l201 178h150z" />
    <glyph glyph-name="ncaron" unicode="&#x148;" 
d="M375 0h-185v1071h185v-145q55 79 137.5 122.5t181.5 43.5q164 0 260.5 -104t96.5 -281v-707h-185v657q0 128 -57 195.5t-166 67.5q-110 0 -190 -80q-78 -78 -78 -201v-639zM946 1470l-201 -284h-200l-201 284h143l158 -159l158 159h143z" />
    <glyph glyph-name="Eng" unicode="&#x14a;" 
d="M1092 1470v-1462q0 -185 -131 -289q-130 -106 -345 -106q-167 0 -262 37v166q122 -37 248 -37q143 0 222 60.5t79 170.5l-581 1145v-1155h-185v1470h203l567 -1105v1105h185z" />
    <glyph glyph-name="eng" unicode="&#x14b;" 
d="M694 1092q164 0 260.5 -104t96.5 -281v-699q0 -185 -131 -289q-130 -106 -345 -106q-161 0 -262 37v166q119 -37 246 -37q152 0 229.5 63.5t77.5 186.5v628q0 128 -57 195.5t-166 67.5q-110 0 -190 -80q-78 -78 -78 -201v-639h-185v1071h185v-145q55 79 137.5 122.5
t181.5 43.5z" />
    <glyph glyph-name="Omacron" unicode="&#x14c;" 
d="M614 -23q-239 0 -389 209q-147 212 -147 549q0 339 147 547q150 211 389 211q240 0 390 -211q149 -207 149 -547q0 -339 -149 -549q-150 -209 -390 -209zM614 152q159 0 254 157q95 160 95 426q0 267 -95 424q-95 160 -254 160t-254 -160q-92 -157 -92 -424
q0 -266 92 -426q95 -157 254 -157zM934 1751v-154h-639v154h639z" />
    <glyph glyph-name="omacron" unicode="&#x14d;" 
d="M614 1092q221 0 359 -156q139 -154 139 -401t-139 -404q-139 -154 -359 -154q-221 0 -360 154q-137 155 -137 404t137 401q138 156 360 156zM614 936q-142 0 -226.5 -108.5t-84.5 -292.5q0 -183 85 -291.5t226 -108.5t226.5 109t85.5 291q0 184 -85 292.5t-227 108.5z
M895 1389v-148h-561v148h561z" />
    <glyph glyph-name="Obreve" unicode="&#x14e;" 
d="M614 -23q-239 0 -389 209q-147 212 -147 549q0 339 147 547q150 211 389 211q240 0 390 -211q149 -207 149 -547q0 -339 -149 -549q-150 -209 -390 -209zM614 152q159 0 254 157q95 160 95 426q0 267 -95 424q-95 160 -254 160t-254 -160q-92 -157 -92 -424
q0 -266 92 -426q95 -157 254 -157zM614 1690q78 0 127.5 48t49.5 126h139q0 -136 -86.5 -218.5t-229.5 -82.5t-229 82.5t-86 218.5h139q0 -78 49 -126t127 -48z" />
    <glyph glyph-name="obreve" unicode="&#x14f;" 
d="M614 1092q221 0 359 -156q139 -154 139 -401t-139 -404q-139 -154 -359 -154q-221 0 -360 154q-137 155 -137 404t137 401q138 156 360 156zM614 936q-142 0 -226.5 -108.5t-84.5 -292.5q0 -183 85 -291.5t226 -108.5t226.5 109t85.5 291q0 184 -85 292.5t-227 108.5z
M614 1309q66 0 106 43.5t40 117.5h129q0 -136 -73.5 -215t-201.5 -79q-127 0 -200.5 78.5t-73.5 215.5h129q0 -75 39.5 -118t105.5 -43z" />
    <glyph glyph-name="Ohungarumlaut" unicode="&#x150;" 
d="M614 -23q-239 0 -389 209q-147 212 -147 549q0 339 147 547q150 211 389 211q240 0 390 -211q149 -207 149 -547q0 -339 -149 -549q-150 -209 -390 -209zM614 152q159 0 254 157q95 160 95 426q0 267 -95 424q-95 160 -254 160t-254 -160q-92 -157 -92 -424
q0 -266 92 -426q95 -157 254 -157zM864 1567h-145l186 297h223zM487 1567h-147l188 297h224z" />
    <glyph glyph-name="ohungarumlaut" unicode="&#x151;" 
d="M614 1092q221 0 359 -156q139 -154 139 -401t-139 -404q-139 -154 -359 -154q-221 0 -360 154q-137 155 -137 404t137 401q138 156 360 156zM614 936q-142 0 -226.5 -108.5t-84.5 -292.5q0 -183 85 -291.5t226 -108.5t226.5 109t85.5 291q0 184 -85 292.5t-227 108.5z
M834 1186h-134l125 284h209zM514 1186h-131l125 284h209z" />
    <glyph glyph-name="OE" unicode="&#x152;" 
d="M27 735q0 339 149 537t406 198h616v-172h-395v-452h313v-172h-313v-502h395v-172h-616q-256 0 -406 199q-149 198 -149 536zM610 168v1135h-28q-167 0 -266 -154t-99 -414q0 -265 98 -416q100 -151 267 -151h28z" />
    <glyph glyph-name="oe" unicode="&#x153;" 
d="M1036 344l164 -59q-31 -140 -120.5 -224t-207.5 -84q-80 0 -148 43.5t-112 122.5q-87 -166 -254 -166q-158 0 -246.5 149t-88.5 409t88.5 408.5t246.5 148.5q167 0 254 -166q47 81 114.5 123.5t147.5 42.5q155 0 243.5 -143t88.5 -394v-49h-510q4 -177 51 -274t127 -97
q61 0 103 54.5t59 154.5zM203 535q0 -196 40 -299t115 -103q79 0 120.5 102.5t41.5 299.5t-41.5 300t-120.5 103q-75 0 -115 -103.5t-40 -299.5zM874 938q-69 0 -115 -76.5t-59 -216.5h326q-5 140 -44 216.5t-108 76.5z" />
    <glyph glyph-name="Racute" unicode="&#x154;" 
d="M592 616h-258v-616h-197v1470h516q241 0 374.5 -111.5t133.5 -314.5q0 -167 -93 -275t-265 -140l409 -629h-225zM334 1300v-514h307q158 0 243 67t85 191q0 125 -84 190.5t-244 65.5h-307zM643 1567h-147l206 297h259z" />
    <glyph glyph-name="racute" unicode="&#x155;" 
d="M1012 0h-889v158h301v755h-301v158h483v-197q54 101 157.5 159.5t229.5 58.5q100 0 166 -27v-182q-92 28 -184 28q-155 0 -262 -94q-107 -91 -107 -231v-428h406v-158zM766 1186h-145l120 284h232z" />
    <glyph glyph-name="Rcommaaccent" unicode="&#x156;" 
d="M592 616h-258v-616h-197v1470h516q241 0 374.5 -111.5t133.5 -314.5q0 -167 -93 -275t-265 -140l409 -629h-225zM334 1300v-514h307q158 0 243 67t85 191q0 125 -84 190.5t-244 65.5h-307zM631 -223h-80v147h199v-125q0 -86 -61 -138t-161 -52v84q51 2 76.5 22t26.5 62z
" />
    <glyph glyph-name="rcommaaccent" unicode="&#x157;" 
d="M1012 0h-889v158h301v755h-301v158h483v-197q54 101 157.5 159.5t229.5 58.5q100 0 166 -27v-182q-92 28 -184 28q-155 0 -262 -94q-107 -91 -107 -231v-428h406v-158zM496 -223h-80v147h198v-125q0 -86 -60.5 -138t-160.5 -52v84q51 2 76.5 22t26.5 62z" />
    <glyph glyph-name="Rcaron" unicode="&#x158;" 
d="M592 616h-258v-616h-197v1470h516q241 0 374.5 -111.5t133.5 -314.5q0 -167 -93 -275t-265 -140l409 -629h-225zM334 1300v-514h307q158 0 243 67t85 191q0 125 -84 190.5t-244 65.5h-307zM999 1866l-239 -297h-221l-240 297h150l200 -178l201 178h149z" />
    <glyph glyph-name="rcaron" unicode="&#x159;" 
d="M1012 0h-889v158h301v755h-301v158h483v-197q54 101 157.5 159.5t229.5 58.5q100 0 166 -27v-182q-92 28 -184 28q-155 0 -262 -94q-107 -91 -107 -231v-428h406v-158zM1022 1470l-201 -284h-200l-201 284h143l158 -159l158 159h143z" />
    <glyph glyph-name="Sacute" unicode="&#x15a;" 
d="M618 -23q-193 0 -360 89q-163 88 -238 235l154 125q69 -131 189 -206t262 -75q150 0 243 72t93 193q0 133 -144 192q-35 15 -67 25q-56 16 -183 47q-129 31 -196.5 55t-116.5 55q-148 98 -148 283t144 305q145 121 360 121q179 0 317 -75.5t212 -211.5l-150 -116
q-123 237 -385 237q-135 0 -221 -69t-86 -175q0 -61 29.5 -102t95.5 -72q69 -27 221 -63q141 -33 236 -64q50 -16 110 -51q164 -99 164 -305q0 -197 -154 -324q-149 -125 -381 -125zM674 1567h-148l207 297h258z" />
    <glyph glyph-name="sacute" unicode="&#x15b;" 
d="M623 -23q-173 0 -313.5 69t-203.5 187l152 101q47 -92 149.5 -147.5t225.5 -55.5q116 0 189 45.5t73 120.5q0 51 -29 82t-96 51q-19 7 -59 14q-37 10 -138 27q-194 39 -264 76q-135 72 -135 221q0 142 123 231q125 93 313 93q152 0 274.5 -61.5t178.5 -164.5l-141 -100
q-47 85 -131 129.5t-197 44.5q-106 0 -172 -43t-66 -115q0 -51 47 -86q45 -29 238 -67q184 -41 201 -47q47 -14 86 -33q153 -72 153 -232q0 -151 -131 -245q-133 -95 -327 -95zM667 1186h-145l121 284h231z" />
    <glyph glyph-name="Scircumflex" unicode="&#x15c;" 
d="M618 -23q-193 0 -360 89q-163 88 -238 235l154 125q69 -131 189 -206t262 -75q150 0 243 72t93 193q0 133 -144 192q-35 15 -67 25q-56 16 -183 47q-129 31 -196.5 55t-116.5 55q-148 98 -148 283t144 305q145 121 360 121q179 0 317 -75.5t212 -211.5l-150 -116
q-123 237 -385 237q-135 0 -221 -69t-86 -175q0 -61 29.5 -102t95.5 -72q69 -27 221 -63q141 -33 236 -64q50 -16 110 -51q164 -99 164 -305q0 -197 -154 -324q-149 -125 -381 -125zM524 1864h221l240 -297h-149l-201 178l-201 -178h-149z" />
    <glyph glyph-name="scircumflex" unicode="&#x15d;" 
d="M623 -23q-173 0 -313.5 69t-203.5 187l152 101q47 -92 149.5 -147.5t225.5 -55.5q116 0 189 45.5t73 120.5q0 51 -29 82t-96 51q-19 7 -59 14q-37 10 -138 27q-194 39 -264 76q-135 72 -135 221q0 142 123 231q125 93 313 93q152 0 274.5 -61.5t178.5 -164.5l-141 -100
q-47 85 -131 129.5t-197 44.5q-106 0 -172 -43t-66 -115q0 -51 47 -86q45 -29 238 -67q184 -41 201 -47q47 -14 86 -33q153 -72 153 -232q0 -151 -131 -245q-133 -95 -327 -95zM512 1470h201l200 -284h-143l-158 160l-157 -160h-144z" />
    <glyph glyph-name="Scedilla" unicode="&#x15e;" 
d="M20 301l154 125q69 -131 189 -206t262 -75q150 0 243 72t93 193q0 133 -144 192q-35 15 -67 25q-56 16 -183 47q-129 31 -196.5 55t-116.5 55q-148 98 -148 283t144 305q145 121 360 121q179 0 317 -75.5t212 -211.5l-150 -116q-123 237 -385 237q-135 0 -221 -69
t-86 -175q0 -61 29.5 -102t95.5 -72q69 -27 221 -63q141 -33 236 -64q50 -16 110 -51q164 -99 164 -305q0 -196 -152 -324q-149 -125 -374 -125l-11 -32q82 -11 128.5 -53t46.5 -109q0 -75 -64.5 -123.5t-161.5 -48.5q-63 0 -117 21t-86 59l70 96q54 -66 127 -66
q45 0 70.5 18t25.5 50q0 36 -38 55t-123 25l34 115q-170 19 -306 104t-202 213z" />
    <glyph glyph-name="scedilla" unicode="&#x15f;" 
d="M106 233l152 101q47 -92 149.5 -147.5t225.5 -55.5q116 0 189 45.5t73 120.5q0 51 -29 82t-96 51q-19 7 -59 14q-37 10 -138 27q-194 39 -264 76q-135 72 -135 221q0 142 123 231q125 93 313 93q152 0 274.5 -61.5t178.5 -164.5l-141 -100q-47 85 -131 129.5t-197 44.5
q-106 0 -172 -43t-66 -115q0 -51 47 -86q45 -29 238 -67q184 -41 201 -47q47 -14 86 -33q153 -72 153 -232q0 -151 -131 -245q-133 -95 -327 -95h-11l-10 -32q82 -11 128 -53t46 -109q0 -75 -64 -123.5t-161 -48.5q-63 0 -117 21t-86 59l70 96q54 -66 127 -66q45 0 70.5 18
t25.5 50q0 36 -38.5 55t-123.5 25l35 117q-139 19 -245.5 83.5t-162.5 163.5z" />
    <glyph glyph-name="Scaron" unicode="&#x160;" 
d="M618 -23q-193 0 -360 89q-163 88 -238 235l154 125q69 -131 189 -206t262 -75q150 0 243 72t93 193q0 133 -144 192q-35 15 -67 25q-56 16 -183 47q-129 31 -196.5 55t-116.5 55q-148 98 -148 283t144 305q145 121 360 121q179 0 317 -75.5t212 -211.5l-150 -116
q-123 237 -385 237q-135 0 -221 -69t-86 -175q0 -61 29.5 -102t95.5 -72q69 -27 221 -63q141 -33 236 -64q50 -16 110 -51q164 -99 164 -305q0 -197 -154 -324q-149 -125 -381 -125zM985 1866l-240 -297h-221l-239 297h149l201 -178l201 178h149z" />
    <glyph glyph-name="scaron" unicode="&#x161;" 
d="M623 -23q-173 0 -313.5 69t-203.5 187l152 101q47 -92 149.5 -147.5t225.5 -55.5q116 0 189 45.5t73 120.5q0 51 -29 82t-96 51q-19 7 -59 14q-37 10 -138 27q-194 39 -264 76q-135 72 -135 221q0 142 123 231q125 93 313 93q152 0 274.5 -61.5t178.5 -164.5l-141 -100
q-47 85 -131 129.5t-197 44.5q-106 0 -172 -43t-66 -115q0 -51 47 -86q45 -29 238 -67q184 -41 201 -47q47 -14 86 -33q153 -72 153 -232q0 -151 -131 -245q-133 -95 -327 -95zM919 1470l-200 -284h-201l-201 284h144l157 -159l158 159h143z" />
    <glyph glyph-name="Tcommaaccent" unicode="&#x162;" 
d="M817 -217q0 -75 -64 -123.5t-161 -48.5q-63 0 -117 21t-86 59l70 96q54 -66 127 -66q45 0 70.5 18t25.5 50q0 36 -38.5 55t-123.5 25l39 131h-43v1298h-473v172h1141v-172h-471v-1298h-54l-16 -55q82 -11 128 -53t46 -109z" />
    <glyph glyph-name="tcommaaccent" unicode="&#x163;" 
d="M395 344v569h-315v158h315v313h180v-313h494v-158h-494v-555q0 -105 61.5 -154.5t194.5 -49.5q126 0 244 36v-165q-129 -37 -272 -37q-7 0 -16 0.5t-25.5 1.5t-32.5 2l-14 -47q82 -11 128 -53t46 -109q0 -75 -64 -123.5t-161 -48.5q-63 0 -117 21t-86 59l69 96
q54 -66 127 -66q45 0 71 18t26 50q0 36 -38.5 55t-123.5 25l41 141q-238 72 -238 334z" />
    <glyph glyph-name="Tcaron" unicode="&#x164;" 
d="M1184 1470v-172h-471v-1298h-197v1298h-473v172h1141zM965 1866l-240 -297h-221l-240 297h150l200 -178l201 178h150z" />
    <glyph glyph-name="tcaron" unicode="&#x165;" 
d="M803 -12q-197 0 -302.5 91.5t-105.5 264.5v569h-315v158h315v313h180v-313h494v-158h-494v-555q0 -105 61.5 -154.5t194.5 -49.5q126 0 244 36v-165q-129 -37 -272 -37zM795 1163h-127l34 408h209z" />
    <glyph glyph-name="Tbar" unicode="&#x166;" 
d="M944 844v-172h-231v-672h-197v672h-233v172h233v454h-473v172h1141v-172h-471v-454h231z" />
    <glyph glyph-name="tbar" unicode="&#x167;" 
d="M803 -12q-197 0 -302.5 91.5t-105.5 264.5v182h-315v158h315v229h-315v158h315v313h180v-313h494v-158h-494v-229h494v-158h-494v-168q0 -105 61.5 -154.5t194.5 -49.5q126 0 244 36v-165q-129 -37 -272 -37z" />
    <glyph glyph-name="Utilde" unicode="&#x168;" 
d="M614 -20q-240 0 -366.5 148t-126.5 429v913h196v-905q0 -405 297 -405t297 405v905h197v-913q0 -281 -127 -429t-367 -148zM469 1853q39 0 75 -15t93 -60q70 -56 113 -56q42 0 66.5 32.5t35.5 100.5h129q-11 -134 -69.5 -210t-151.5 -76q-37 0 -74 16t-96 60
q-41 34 -65 45.5t-46 11.5q-42 0 -66.5 -32.5t-35.5 -100.5h-129q8 134 66 209t155 75z" />
    <glyph glyph-name="utilde" unicode="&#x169;" 
d="M854 1071h184v-1071h-184v147q-56 -82 -137.5 -126t-179.5 -44q-166 0 -262.5 104t-96.5 281v709h184v-670q0 -125 57 -189.5t167 -64.5q112 0 190 78q78 81 78 201v645zM477 1473q33 0 66.5 -16.5t83.5 -59.5q37 -34 56 -45t38 -11q38 0 59 30t31 102h121
q-11 -130 -63 -203.5t-136 -73.5q-35 0 -68 15.5t-81 60.5q-38 32 -56.5 42.5t-37.5 10.5q-38 0 -59.5 -31t-28.5 -98h-121q8 131 59 204t137 73z" />
    <glyph glyph-name="Umacron" unicode="&#x16a;" 
d="M614 -20q-240 0 -366.5 148t-126.5 429v913h196v-905q0 -405 297 -405t297 405v905h197v-913q0 -281 -127 -429t-367 -148zM934 1751v-154h-639v154h639z" />
    <glyph glyph-name="umacron" unicode="&#x16b;" 
d="M854 1071h184v-1071h-184v147q-56 -82 -137.5 -126t-179.5 -44q-166 0 -262.5 104t-96.5 281v709h184v-670q0 -125 57 -189.5t167 -64.5q112 0 190 78q78 81 78 201v645zM887 1389v-148h-561v148h561z" />
    <glyph glyph-name="Ubreve" unicode="&#x16c;" 
d="M614 -20q-240 0 -366.5 148t-126.5 429v913h196v-905q0 -405 297 -405t297 405v905h197v-913q0 -281 -127 -429t-367 -148zM614 1690q78 0 127.5 48t49.5 126h139q0 -136 -86.5 -218.5t-229.5 -82.5t-229 82.5t-86 218.5h139q0 -78 49 -126t127 -48z" />
    <glyph glyph-name="ubreve" unicode="&#x16d;" 
d="M854 1071h184v-1071h-184v147q-56 -82 -137.5 -126t-179.5 -44q-166 0 -262.5 104t-96.5 281v709h184v-670q0 -125 57 -189.5t167 -64.5q112 0 190 78q78 81 78 201v645zM606 1309q66 0 106 43.5t40 117.5h129q0 -136 -73.5 -215t-201.5 -79q-127 0 -200.5 78.5
t-73.5 215.5h129q0 -75 39.5 -118t105.5 -43z" />
    <glyph glyph-name="Uring" unicode="&#x16e;" 
d="M614 -20q-240 0 -366.5 148t-126.5 429v913h196v-905q0 -405 297 -405t297 405v905h197v-913q0 -281 -127 -429t-367 -148zM614 1552q-94 0 -163 66q-66 66 -66 160q0 93 66.5 157t162.5 64q98 0 164 -64t66 -157q0 -94 -66 -160t-164 -66zM614 1890q-44 0 -77 -34
t-33 -78q0 -47 33 -81t77 -34q45 0 78 34t33 81q0 44 -33.5 78t-77.5 34z" />
    <glyph glyph-name="uring" unicode="&#x16f;" 
d="M854 1071h184v-1071h-184v147q-56 -82 -137.5 -126t-179.5 -44q-166 0 -262.5 104t-96.5 281v709h184v-670q0 -125 57 -189.5t167 -64.5q112 0 190 78q78 81 78 201v645zM606 1157q-88 0 -147.5 58t-59.5 143t59.5 143t147.5 58t147.5 -58t59.5 -143t-59.5 -143
t-147.5 -58zM606 1462q-43 0 -72.5 -30.5t-29.5 -73.5t30 -74t72 -31q43 0 73 31t30 74t-30 73.5t-73 30.5z" />
    <glyph glyph-name="Uhungarumlaut" unicode="&#x170;" 
d="M614 -20q-240 0 -366.5 148t-126.5 429v913h196v-905q0 -405 297 -405t297 405v905h197v-913q0 -281 -127 -429t-367 -148zM848 1567h-146l187 297h223zM471 1567h-147l188 297h223z" />
    <glyph glyph-name="uhungarumlaut" unicode="&#x171;" 
d="M854 1071h184v-1071h-184v147q-56 -82 -137.5 -126t-179.5 -44q-166 0 -262.5 104t-96.5 281v709h184v-670q0 -125 57 -189.5t167 -64.5q112 0 190 78q78 81 78 201v645zM834 1186h-134l125 284h209zM514 1186h-131l125 284h209z" />
    <glyph glyph-name="Uogonek" unicode="&#x172;" 
d="M705 -381q-79 0 -131 46t-52 118q0 101 99 197h-7q-240 0 -366.5 148t-126.5 429v913h196v-905q0 -405 297 -405t297 405v905h197v-913q0 -413 -272 -539q-81 -38 -130 -95t-49 -111q0 -32 21.5 -52t58.5 -20q35 0 84 12v-119q-55 -14 -116 -14z" />
    <glyph glyph-name="uogonek" unicode="&#x173;" 
d="M907 -381q-80 0 -132 46t-52 118q0 62 30 115t101 112v137q-56 -82 -137.5 -126t-179.5 -44q-166 0 -262.5 104t-96.5 281v709h184v-670q0 -125 57 -189.5t167 -64.5q112 0 190 78q78 81 78 201v645h184v-1071h-45q-77 -66 -106 -107.5t-29 -80.5q0 -32 22.5 -52
t59.5 -20q32 0 82 12v-119q-55 -14 -115 -14z" />
    <glyph glyph-name="Wcircumflex" unicode="&#x174;" 
d="M358 369l185 1101h149l182 -1101l160 1101h174l-233 -1470h-166l-195 1141l-194 -1141h-166l-234 1470h179zM504 1864h221l240 -297h-150l-201 178l-200 -178h-150z" />
    <glyph glyph-name="wcircumflex" unicode="&#x175;" 
d="M371 274l172 797h149l170 -797l162 797h174l-233 -1071h-164l-187 825l-186 -825h-164l-233 1071h178zM514 1470h201l200 -284h-143l-158 160l-157 -160h-144z" />
    <glyph glyph-name="Ycircumflex" unicode="&#x176;" 
d="M219 1470l397 -675l398 675h207l-508 -852v-618h-197v618l-510 852h213zM504 1864h221l240 -297h-150l-201 178l-200 -178h-150z" />
    <glyph glyph-name="ycircumflex" unicode="&#x177;" 
d="M1147 1071l-506 -1188q-59 -145 -137.5 -204.5t-202.5 -59.5q-53 0 -100 8v160q41 -10 88 -10q66 0 106 30.5t72 104.5l53 123l-440 1036h194l342 -823l338 823h193zM514 1470h201l200 -284h-143l-158 160l-157 -160h-144z" />
    <glyph glyph-name="Ydieresis" unicode="&#x178;" 
d="M219 1470l397 -675l398 675h207l-508 -852v-618h-197v618l-510 852h213zM535 1575h-205v213h205v-213zM899 1575h-205v213h205v-213z" />
    <glyph glyph-name="Zacute" unicode="&#x179;" 
d="M319 172h838v-172h-1079v152l829 1146h-821v172h1063v-151zM621 1567h-148l207 297h258z" />
    <glyph glyph-name="zacute" unicode="&#x17a;" 
d="M371 158h702v-158h-934v139l709 774h-701v158h920v-141zM657 1186h-145l121 284h231z" />
    <glyph glyph-name="Zdotaccent" unicode="&#x17b;" 
d="M319 172h838v-172h-1079v152l829 1146h-821v172h1063v-151zM717 1575h-205v213h205v-213z" />
    <glyph glyph-name="zdotaccent" unicode="&#x17c;" 
d="M371 158h702v-158h-934v139l709 774h-701v158h920v-141zM709 1257h-201v213h201v-213z" />
    <glyph glyph-name="Zcaron" unicode="&#x17d;" 
d="M319 172h838v-172h-1079v152l829 1146h-821v172h1063v-151zM971 1866l-240 -297h-221l-240 297h150l201 -178l200 178h150z" />
    <glyph glyph-name="zcaron" unicode="&#x17e;" 
d="M371 158h702v-158h-934v139l709 774h-701v158h920v-141zM917 1470l-200 -284h-201l-201 284h144l157 -159l158 159h143z" />
    <glyph glyph-name="florin" unicode="&#x192;" 
d="M731 735l-57 -370q-25 -189 -120.5 -288.5t-250.5 -99.5q-68 0 -131 25t-106 68l75 135q26 -32 65 -52t77 -20q160 0 198 236l56 366h-213v135h233l35 236q29 190 123.5 288.5t249.5 98.5q143 0 235 -92l-74 -135q-56 69 -141 69q-80 0 -131 -59t-68 -174l-34 -232h245
v-135h-266z" />
    <glyph glyph-name="AEacute" unicode="&#x1fc;" 
d="M0 0l492 1470h702v-170h-377v-456h313v-168h-313v-506h377v-170h-569v403h-301l-134 -403h-190zM625 1321l-246 -750h246v750zM836 1567h-148l207 297h258z" />
    <glyph glyph-name="aeacute" unicode="&#x1fd;" 
d="M16 293q0 167 119 260.5t330 93.5h41v90q0 92 -37 142.5t-104 50.5q-72 0 -120.5 -50.5t-58.5 -136.5l-147 43q15 132 106 220q92 86 217 86q175 0 246 -146q100 146 256 146q160 0 254 -144q94 -143 94 -381v-61h-557q6 -170 65.5 -269.5t153.5 -99.5q69 0 119.5 55.5
t67.5 151.5l145 -59q-32 -142 -123.5 -225t-214.5 -83q-88 0 -162.5 46.5t-121.5 132.5q-43 -84 -115.5 -129t-165.5 -45q-126 0 -206.5 86.5t-80.5 224.5zM864 934q-81 0 -133 -74.5t-69 -212.5h385q-2 132 -50.5 209.5t-132.5 77.5zM180 305q0 -79 37 -125.5t100 -46.5
q85 0 137 65t52 171v137h-35q-291 0 -291 -201zM657 1186h-145l121 284h231z" />
    <glyph glyph-name="Oslashacute" unicode="&#x1fe;" 
d="M184 -39l-104 76l123 186q-125 203 -125 512q0 339 147 547q150 211 389 211q193 0 330 -137l100 153l105 -75l-121 -187q125 -203 125 -512q0 -339 -149 -549q-150 -209 -390 -209q-190 0 -327 140zM614 1323q-163 0 -258 -160q-94 -155 -94 -428q0 -201 53 -340
l529 809q-88 119 -230 119zM614 147q161 0 256 160q97 163 97 428q0 192 -54 340l-528 -809q88 -119 229 -119zM680 1567h-148l207 297h258z" />
    <glyph glyph-name="oslashacute" unicode="&#x1ff;" 
d="M117 535q0 249 137 401q138 156 360 156q163 0 289 -91l88 111l109 -84l-99 -125q111 -151 111 -368q0 -247 -139 -404q-139 -154 -359 -154q-156 0 -284 89l-92 -117l-109 84l102 129q-114 148 -114 373zM614 940q-143 0 -229 -110.5t-86 -294.5q0 -134 47 -230l455 569
q-75 66 -187 66zM614 131q143 0 229.5 110t86.5 294q0 134 -45 225l-453 -567q77 -62 182 -62zM675 1186h-145l121 284h231z" />
    <glyph glyph-name="Scommaaccent" unicode="&#x218;" 
d="M618 -23q-193 0 -360 89q-163 88 -238 235l154 125q69 -131 189 -206t262 -75q150 0 243 72t93 193q0 133 -144 192q-35 15 -67 25q-56 16 -183 47q-129 31 -196.5 55t-116.5 55q-148 98 -148 283t144 305q145 121 360 121q179 0 317 -75.5t212 -211.5l-150 -116
q-123 237 -385 237q-135 0 -221 -69t-86 -175q0 -61 29.5 -102t95.5 -72q69 -27 221 -63q141 -33 236 -64q50 -16 110 -51q164 -99 164 -305q0 -197 -154 -324q-149 -125 -381 -125zM602 -223h-80v147h199v-125q0 -86 -60.5 -138t-160.5 -52v84q51 2 76 22t26 62z" />
    <glyph glyph-name="scommaaccent" unicode="&#x219;" 
d="M623 -23q-173 0 -313.5 69t-203.5 187l152 101q47 -92 149.5 -147.5t225.5 -55.5q116 0 189 45.5t73 120.5q0 51 -29 82t-96 51q-19 7 -59 14q-37 10 -138 27q-194 39 -264 76q-135 72 -135 221q0 142 123 231q125 93 313 93q152 0 274.5 -61.5t178.5 -164.5l-141 -100
q-47 85 -131 129.5t-197 44.5q-106 0 -172 -43t-66 -115q0 -51 47 -86q45 -29 238 -67q184 -41 201 -47q47 -14 86 -33q153 -72 153 -232q0 -151 -131 -245q-133 -95 -327 -95zM596 -223h-80v147h199v-125q0 -86 -60.5 -138t-160.5 -52v84q51 2 76 22t26 62z" />
    <glyph glyph-name="uni021A" unicode="&#x21a;" 
d="M1184 1470v-172h-471v-1298h-197v1298h-473v172h1141zM596 -223h-80v147h199v-125q0 -86 -60.5 -138t-160.5 -52v84q51 2 76 22t26 62z" />
    <glyph glyph-name="uni021B" unicode="&#x21b;" 
d="M803 -12q-197 0 -302.5 91.5t-105.5 264.5v569h-315v158h315v313h180v-313h494v-158h-494v-555q0 -105 61.5 -154.5t194.5 -49.5q126 0 244 36v-165q-129 -37 -272 -37zM688 -223h-80v147h199v-125q0 -86 -60.5 -138t-160.5 -52v84q51 2 76 22t26 62z" />
    <glyph glyph-name="uni0237" unicode="&#x237;" 
d="M434 -221q305 0 305 250v884h-534v158h721v-1063q0 -183 -130 -289t-347 -106q-160 0 -261 37v166q119 -37 246 -37z" />
    <glyph glyph-name="circumflex" unicode="&#x2c6;" 
d="M514 1470h201l200 -284h-143l-158 160l-157 -160h-144z" />
    <glyph glyph-name="caron" unicode="&#x2c7;" 
d="M915 1470l-200 -284h-201l-201 284h144l157 -159l158 159h143z" />
    <glyph glyph-name="breve" unicode="&#x2d8;" 
d="M614 1309q66 0 106 43.5t40 117.5h129q0 -136 -73.5 -215t-201.5 -79q-127 0 -200.5 78.5t-73.5 215.5h129q0 -75 39.5 -118t105.5 -43z" />
    <glyph glyph-name="dotaccent" unicode="&#x2d9;" 
d="M715 1257h-201v213h201v-213z" />
    <glyph glyph-name="ring" unicode="&#x2da;" 
d="M614 1157q-88 0 -147 58t-59 143t59 143t147 58t147.5 -58t59.5 -143t-59.5 -143t-147.5 -58zM614 1462q-43 0 -72.5 -30.5t-29.5 -73.5t30 -74t72 -31q43 0 73 31t30 74t-30 73.5t-73 30.5z" />
    <glyph glyph-name="ogonek" unicode="&#x2db;" 
d="M641 -381q-80 0 -132 46t-52 118q0 77 45 139q46 64 180 160l57 -72q-87 -74 -117 -115t-30 -83q0 -32 22.5 -52t59.5 -20q32 0 82 12v-119q-55 -14 -115 -14z" />
    <glyph glyph-name="tilde" unicode="&#x2dc;" 
d="M485 1473q33 0 66.5 -16.5t83.5 -59.5q37 -34 56 -45t38 -11q38 0 59 30t31 102h121q-11 -130 -63 -203.5t-136 -73.5q-35 0 -68 15.5t-81 60.5q-38 32 -56.5 42.5t-37.5 10.5q-38 0 -59.5 -31t-28.5 -98h-121q8 131 59 204t137 73z" />
    <glyph glyph-name="hungarumlaut" unicode="&#x2dd;" 
d="M735 1186h-133l125 284h209zM416 1186h-131l125 284h208z" />
    <glyph glyph-name="gravecmb" unicode="&#x300;" horiz-adv-x="0" 
d="M55 1470l121 -284h-145l-207 284h231z" />
    <glyph glyph-name="acutecmb" unicode="&#x301;" horiz-adv-x="0" 
d="M-31 1186h-145l121 284h231z" />
    <glyph glyph-name="circumflexcmb" unicode="&#x302;" horiz-adv-x="0" 
d="M-100 1470h200l201 -284h-143l-158 160l-158 -160h-143z" />
    <glyph glyph-name="tildecmb" unicode="&#x303;" horiz-adv-x="0" 
d="M-129 1473q33 0 66 -16.5t83 -59.5q37 -34 56 -45t39 -11q38 0 59 30t31 102h121q-11 -130 -63 -203.5t-136 -73.5q-35 0 -68.5 15.5t-81.5 60.5q-38 32 -56.5 42.5t-37.5 10.5q-38 0 -59.5 -31t-28.5 -98h-121q8 131 59.5 204t137.5 73z" />
    <glyph glyph-name="macroncmb" unicode="&#x304;" horiz-adv-x="0" 
d="M281 1389v-148h-562v148h562z" />
    <glyph glyph-name="brevecmb" unicode="&#x306;" horiz-adv-x="0" 
d="M0 1309q66 0 105.5 43t39.5 118h129q0 -137 -73.5 -215.5t-200.5 -78.5t-200.5 78.5t-73.5 215.5h129q0 -75 39.5 -118t105.5 -43z" />
    <glyph glyph-name="dotaccentcmb" unicode="&#x307;" horiz-adv-x="0" 
d="M100 1257h-200v213h200v-213z" />
    <glyph glyph-name="dieresiscmb" unicode="&#x308;" horiz-adv-x="0" 
d="M-74 1249h-205v213h205v-213zM279 1249h-205v213h205v-213z" />
    <glyph glyph-name="ringcmb" unicode="&#x30a;" horiz-adv-x="0" 
d="M0 1157q-88 0 -147.5 58t-59.5 143t59.5 143t147.5 58t147.5 -58t59.5 -143t-59.5 -143t-147.5 -58zM0 1462q-43 0 -72.5 -30.5t-29.5 -73.5t30 -74t72 -31t72 31t30 74t-29.5 73.5t-72.5 30.5z" />
    <glyph glyph-name="hungarumlautcmb" unicode="&#x30b;" horiz-adv-x="0" 
d="M125 1186h-133l125 284h209zM-195 1186h-131l125 284h209z" />
    <glyph glyph-name="caroncmb" unicode="&#x30c;" horiz-adv-x="0" 
d="M301 1470l-201 -284h-200l-201 284h143l158 -159l158 159h143z" />
    <glyph glyph-name="commaturncmb" unicode="&#x312;" horiz-adv-x="0" 
d="M8 1333h80v-147h-199v125q0 86 61 138t161 52v-84q-51 -2 -76.5 -22t-26.5 -62z" />
    <glyph glyph-name="commaaccentcmb" unicode="&#x326;" horiz-adv-x="0" 
d="M-8 -223h-80v147h199v-125q0 -86 -61 -138t-161 -52v84q51 2 76.5 22t26.5 62z" />
    <glyph glyph-name="cedillacmb" unicode="&#x327;" horiz-adv-x="0" 
d="M213 -217q0 -75 -64 -123.5t-161 -48.5q-63 0 -117 21t-86 59l70 96q54 -66 127 -66q45 0 70.5 18t25.5 50q0 36 -38.5 55t-123.5 25l45 151h100l-22 -75q82 -11 128 -53t46 -109z" />
    <glyph glyph-name="ogonekcmb" unicode="&#x328;" horiz-adv-x="0" 
d="M35 -381q-80 0 -132.5 46t-52.5 118q0 75 46 139t180 160l57 -72q-87 -74 -117 -115t-30 -83q0 -32 22.5 -52t59.5 -20q33 0 82 12v-119q-55 -14 -115 -14z" />
    <glyph glyph-name="baht" unicode="&#xe3f;" 
d="M522 0h-397v1470h397v207h150v-209q207 -7 316.5 -105.5t109.5 -275.5q0 -118 -58.5 -201t-167.5 -120q130 -35 203.5 -130.5t73.5 -229.5q0 -189 -128 -297.5t-349 -108.5v-209h-150v209zM307 1307v-469h215v469h-215zM920 1071q0 105 -62.5 164.5t-185.5 69.5v-465
q122 11 185 69.5t63 161.5zM522 674h-215v-510h215v510zM967 420q0 117 -79.5 185.5t-215.5 68.5v-510q139 1 217 69.5t78 186.5z" />
    <glyph glyph-name="Wgrave" unicode="&#x1e80;" 
d="M358 369l185 1101h149l182 -1101l160 1101h174l-233 -1470h-166l-195 1141l-194 -1141h-166l-234 1470h179zM494 1864l206 -297h-147l-317 297h258z" />
    <glyph glyph-name="wgrave" unicode="&#x1e81;" 
d="M371 274l172 797h149l170 -797l162 797h174l-233 -1071h-164l-187 825l-186 -825h-164l-233 1071h178zM553 1470l121 -284h-146l-206 284h231z" />
    <glyph glyph-name="Wacute" unicode="&#x1e82;" 
d="M358 369l185 1101h149l182 -1101l160 1101h174l-233 -1470h-166l-195 1141l-194 -1141h-166l-234 1470h179zM670 1567h-148l207 297h258z" />
    <glyph glyph-name="wacute" unicode="&#x1e83;" 
d="M371 274l172 797h149l170 -797l162 797h174l-233 -1071h-164l-187 825l-186 -825h-164l-233 1071h178zM704 1186h-145l121 284h231z" />
    <glyph glyph-name="Wdieresis" unicode="&#x1e84;" 
d="M358 369l185 1101h149l182 -1101l160 1101h174l-233 -1470h-166l-195 1141l-194 -1141h-166l-234 1470h179zM535 1575h-205v213h205v-213zM899 1575h-205v213h205v-213z" />
    <glyph glyph-name="wdieresis" unicode="&#x1e85;" 
d="M371 274l172 797h149l170 -797l162 797h174l-233 -1071h-164l-187 825l-186 -825h-164l-233 1071h178zM541 1249h-205v213h205v-213zM893 1249h-205v213h205v-213z" />
    <glyph glyph-name="Germandbls" unicode="&#x1e9e;" 
d="M727 141q123 0 198.5 81t75.5 214q0 147 -104 228t-289 81h-71v129l356 426h-545v-1300h-196v1470h972v-159l-346 -414q196 -35 304 -154t108 -301q0 -205 -131 -336q-129 -129 -326 -129q-144 0 -278 82v187q136 -105 272 -105z" />
    <glyph glyph-name="Ygrave" unicode="&#x1ef2;" 
d="M219 1470l397 -675l398 675h207l-508 -852v-618h-197v618l-510 852h213zM539 1864l206 -297h-147l-317 297h258z" />
    <glyph glyph-name="ygrave" unicode="&#x1ef3;" 
d="M1147 1071l-506 -1188q-59 -145 -137.5 -204.5t-202.5 -59.5q-53 0 -100 8v160q41 -10 88 -10q66 0 106 30.5t72 104.5l53 123l-440 1036h194l342 -823l338 823h193zM535 1470l120 -284h-145l-207 284h232z" />
    <glyph glyph-name="endash" unicode="&#x2013;" 
d="M1051 522h-873v152h873v-152z" />
    <glyph glyph-name="emdash" unicode="&#x2014;" 
d="M1229 522h-1229v152h1229v-152z" />
    <glyph glyph-name="quoteleft" unicode="&#x2018;" 
d="M625 1128h131v-292h-283v309q0 147 86 233.5t234 91.5v-127q-168 -9 -168 -194v-21z" />
    <glyph glyph-name="quoteright" unicode="&#x2019;" 
d="M606 1178h-131v292h283v-309q0 -147 -86 -233.5t-234 -91.5v127q168 9 168 194v21z" />
    <glyph glyph-name="quotesinglbase" unicode="&#x201a;" 
d="M604 0h-131v293h283v-309q0 -147 -86 -234t-234 -92v127q168 9 168 195v20z" />
    <glyph glyph-name="quotedblleft" unicode="&#x201c;" 
d="M383 1128h131v-292h-283v309q0 147 86 233.5t234 91.5v-127q-168 -9 -168 -194v-21zM864 1128h131v-292h-282v309q0 147 85.5 233.5t233.5 91.5v-127q-168 -9 -168 -194v-21z" />
    <glyph glyph-name="quotedblright" unicode="&#x201d;" 
d="M846 1178h-131v292h282v-309q0 -147 -85.5 -233.5t-233.5 -91.5v127q168 9 168 194v21zM365 1178h-132v292h283v-309q0 -147 -85.5 -233.5t-233.5 -91.5v127q168 9 168 194v21z" />
    <glyph glyph-name="quotedblbase" unicode="&#x201e;" 
d="M836 0h-131v293h282v-309q0 -147 -85.5 -234t-233.5 -92v127q168 9 168 195v20zM354 0h-131v293h283v-309q0 -147 -86 -234t-234 -92v127q168 9 168 195v20z" />
    <glyph glyph-name="dagger" unicode="&#x2020;" 
d="M688 604h-147v502h-267v149h267v256h147v-256h266v-149h-266v-502z" />
    <glyph glyph-name="daggerdbl" unicode="&#x2021;" 
d="M688 604h-147v215h-267v142h267v196h-267v141h267v213h147v-213h266v-141h-266v-196h266v-142h-266v-215z" />
    <glyph glyph-name="bullet" unicode="&#x2022;" 
d="M303 596q0 133 90 223t223 90q130 0 220 -90t90 -223q0 -131 -90 -221q-88 -88 -220 -88q-135 0 -223 88q-90 90 -90 221z" />
    <glyph glyph-name="ellipsis" unicode="&#x2026;" 
d="M375 0h-264v276h264v-276zM748 0h-265v276h265v-276zM1118 0h-262v276h262v-276z" />
    <glyph glyph-name="guilsinglleft" unicode="&#x2039;" 
d="M811 172l-395 281v184l395 281v-191l-260 -182l260 -183v-190z" />
    <glyph glyph-name="guilsinglright" unicode="&#x203a;" 
d="M813 637v-184l-395 -281v190l260 183l-260 182v191z" />
    <glyph glyph-name="fraction" unicode="&#x2044;" horiz-adv-x="0" 
d="M-606 0l1048 1470h162l-1046 -1470h-164z" />
    <glyph glyph-name="uni2070" unicode="&#x2070;" 
d="M612 643q-141 0 -225 114.5t-84 305.5t84 305.5t225 114.5t225.5 -114.5t84.5 -305.5t-84.5 -305.5t-225.5 -114.5zM612 1346q-72 0 -113.5 -76t-41.5 -207t41.5 -207t113.5 -76q73 0 115.5 76t42.5 207t-42.5 207t-115.5 76z" />
    <glyph glyph-name="uni2074" unicode="&#x2074;" 
d="M811 856v-201h-145v201h-385v113l335 501h195v-493h141v-121h-141zM664 1343l-252 -366h252v366z" />
    <glyph glyph-name="uni2075" unicode="&#x2075;" 
d="M618 1073q-80 0 -118 -59l-146 20l37 436h463v-131h-346l-21 -217q77 68 168 68q112 0 182 -73.5t70 -190.5q0 -120 -86 -203q-83 -80 -211 -80q-125 0 -206.5 65.5t-98.5 180.5l156 26q8 -63 48 -101t101 -38q63 0 105.5 42.5t42.5 105.5q0 64 -39.5 106.5t-100.5 42.5z
" />
    <glyph glyph-name="uni2076" unicode="&#x2076;" 
d="M651 1483q100 0 169 -49t100 -142l-127 -49q-35 113 -144 113q-82 0 -132 -67t-50 -179q0 -41 2 -51q17 58 68.5 93.5t119.5 35.5q113 0 188 -74t75 -186q0 -123 -82 -205q-83 -80 -209 -80q-145 0 -230.5 111t-85.5 297q0 190 95 311t243 121zM627 766q63 0 106 44.5
t43 111.5t-42 111t-105 44q-66 0 -109 -44t-43 -111q0 -68 42 -112t108 -44z" />
    <glyph glyph-name="uni2077" unicode="&#x2077;" 
d="M768 1341h-324v-124h-131v253h611v-129q-130 -142 -183 -292q-53 -154 -53 -394h-166q0 210 60.5 378t185.5 308z" />
    <glyph glyph-name="uni2078" unicode="&#x2078;" 
d="M344 1255q0 100 75.5 164t192.5 64t194 -64.5t77 -163.5q0 -57 -31 -102.5t-88 -71.5q74 -23 117 -76t43 -122q0 -105 -88 -172.5t-224 -67.5q-135 0 -223 67.5t-88 172.5q0 67 43.5 120t116.5 78q-56 26 -86.5 71.5t-30.5 102.5zM481 1251q0 -51 35.5 -82.5t95.5 -31.5
t96.5 31.5t36.5 82.5t-36.5 83t-96.5 32t-95.5 -32t-35.5 -83zM772 895q0 57 -45.5 95t-114.5 38t-114 -38t-45 -95q0 -60 43.5 -95.5t115.5 -35.5t116 35.5t44 95.5z" />
    <glyph glyph-name="uni2079" unicode="&#x2079;" 
d="M575 643q-100 0 -168.5 48.5t-99.5 142.5l127 49q13 -55 50.5 -84t93.5 -29q82 0 132 67t50 179q0 39 -2 49q-19 -57 -70.5 -92t-118.5 -35q-113 0 -187.5 74t-74.5 186q0 124 82 203q82 82 209 82q145 0 230 -111t85 -297q0 -191 -96 -313q-94 -119 -242 -119zM600 1360
q-63 0 -106 -44.5t-43 -111.5t42 -112t105 -45q66 0 109 44.5t43 112.5t-42 112t-108 44z" />
    <glyph glyph-name="uni2080" unicode="&#x2080;" 
d="M612 -258q-141 0 -225 114.5t-84 305.5t84 305.5t225 114.5t225.5 -114.5t84.5 -305.5t-84.5 -305.5t-225.5 -114.5zM612 444q-72 0 -113.5 -75.5t-41.5 -206.5t41.5 -207t113.5 -76q73 0 115.5 76t42.5 207t-42.5 206.5t-115.5 75.5z" />
    <glyph glyph-name="uni2081" unicode="&#x2081;" 
d="M565 -111v441h-205v106l86 4q79 5 113.5 33.5t44.5 99.5h117v-684h174v-135h-530v135h200z" />
    <glyph glyph-name="uni2082" unicode="&#x2082;" 
d="M319 -246v125l277 219q77 61 108 109t31 104q0 60 -36.5 95.5t-96.5 35.5t-96.5 -37.5t-36.5 -97.5q0 -55 20 -88h-151q-19 66 -19 98q0 113 82 189t205 76q128 0 204.5 -71t76.5 -189q0 -85 -45 -158t-148 -152l-159 -123h370v-135h-586z" />
    <glyph glyph-name="uni2083" unicode="&#x2083;" 
d="M909 -16q0 -105 -80.5 -173.5t-207.5 -68.5q-129 0 -213 67t-103 185l158 24q7 -66 49.5 -104.5t105.5 -38.5t101.5 34t38.5 91q0 54 -40 85.5t-106 31.5h-84v112h82q60 0 97.5 30t37.5 79q0 50 -34.5 80.5t-89.5 30.5q-57 0 -97 -36t-51 -96l-147 17q17 111 99 179.5
t202 68.5q122 0 196 -64.5t74 -169.5q0 -61 -40.5 -110.5t-100.5 -61.5q72 -20 112.5 -70t40.5 -122z" />
    <glyph glyph-name="uni2084" unicode="&#x2084;" 
d="M811 -45v-201h-145v201h-385v113l335 501h195v-493h141v-121h-141zM664 442l-252 -366h252v366z" />
    <glyph glyph-name="uni2085" unicode="&#x2085;" 
d="M618 172q-80 0 -118 -59l-146 20l37 436h463v-131h-346l-21 -217q77 68 168 68q112 0 182 -73.5t70 -190.5q0 -120 -86 -203q-83 -80 -211 -80q-125 0 -206.5 65.5t-98.5 180.5l156 26q8 -63 48 -101t101 -38q63 0 105.5 42.5t42.5 105.5q0 64 -39.5 106.5t-100.5 42.5z
" />
    <glyph glyph-name="uni2086" unicode="&#x2086;" 
d="M651 582q100 0 169 -49t100 -142l-127 -49q-35 113 -144 113q-82 0 -132 -67t-50 -179q0 -41 2 -51q17 58 68.5 93.5t119.5 35.5q113 0 188 -74t75 -186q0 -123 -82 -205q-83 -80 -209 -80q-145 0 -230.5 111t-85.5 297q0 190 95 311t243 121zM627 -135q63 0 106 44
t43 111t-42 111.5t-105 44.5q-66 0 -109 -44t-43 -112t42 -111.5t108 -43.5z" />
    <glyph glyph-name="uni2087" unicode="&#x2087;" 
d="M768 440h-324v-125h-131v254h611v-129q-129 -141 -183 -293q-53 -154 -53 -393h-166q0 210 60.5 378t185.5 308z" />
    <glyph glyph-name="uni2088" unicode="&#x2088;" 
d="M344 354q0 100 75.5 164t192.5 64t194 -64.5t77 -163.5q0 -57 -31 -102.5t-88 -71.5q74 -23 117 -76t43 -122q0 -105 -88 -172.5t-224 -67.5q-135 0 -223 67.5t-88 172.5q0 67 43.5 120t116.5 78q-56 26 -86.5 71.5t-30.5 102.5zM481 350q0 -51 35.5 -82.5t95.5 -31.5
t96.5 31.5t36.5 82.5t-36.5 83t-96.5 32t-95.5 -32t-35.5 -83zM772 -6q0 57 -45.5 95t-114.5 38t-114 -38t-45 -95q0 -60 43.5 -95.5t115.5 -35.5t116 35.5t44 95.5z" />
    <glyph glyph-name="uni2089" unicode="&#x2089;" 
d="M575 -258q-100 0 -168.5 48.5t-99.5 141.5l127 50q13 -55 50.5 -84t93.5 -29q82 0 132 67t50 179q0 39 -2 49q-19 -57 -70.5 -92t-118.5 -35q-113 0 -187.5 74t-74.5 186q0 124 82 203q82 82 209 82q145 0 230 -111t85 -297q0 -191 -96 -313q-94 -119 -242 -119zM600 459
q-63 0 -106 -44.5t-43 -111.5q0 -68 42 -113t105 -45q66 0 109 45t43 113t-42 112t-108 44z" />
    <glyph glyph-name="franc" unicode="&#x20a3;" 
d="M258 330h-205v159h205v981h901v-172h-708v-419h591v-172h-591v-218h323v-159h-323v-330h-193v330z" />
    <glyph glyph-name="naira" unicode="&#x20a6;" 
d="M182 512h-157v141h157v176h-157v140h157v501h209l471 -1036v1036h182v-501h158v-140h-158v-176h160v-141h-160v-512h-167l-510 1124v-1124h-185v512z" />
    <glyph glyph-name="peseta" unicode="&#x20a7;" 
d="M539 461h-148v-461h-196v891h-158v149h158v430h344q229 0 368 -113t162 -317h156v-149h-156q-23 -202 -163.5 -316t-366.5 -114zM535 1317h-144v-277h498q-19 133 -111.5 205t-242.5 72zM391 891v-277h144q148 0 240 72t112 205h-496z" />
    <glyph glyph-name="won" unicode="&#x20a9;" 
d="M217 512h-211v141h195l-23 176h-172v140h154l-64 501h158l131 -1177l168 932h129l168 -932l129 1177h154l-64 -501h154v-140h-172l-23 -176h195v-141h-211l-66 -512h-145l-187 1022l-186 -1022h-145z" />
    <glyph glyph-name="dong" unicode="&#x20ab;" 
d="M510 164q-174 0 -283 121q-106 118 -106 309q0 193 106 311q109 121 283 121q87 0 157.5 -34.5t108.5 -96.5v244h-338v143h338v188h180v-188h191v-143h-191v-959h-180v115q-38 -62 -108.5 -96.5t-157.5 -34.5zM780 567v54q0 118 -65 189t-170 71q-112 0 -176 -76.5
t-64 -210.5q0 -131 64 -208t176 -77q105 0 170 70t65 188zM956 -143h-766v143h766v-143z" />
    <glyph glyph-name="Euro" unicode="&#x20ac;" 
d="M203 512h-160v141h143q-2 18 -2 82q0 10 0.5 21.5t1.5 32t2 40.5h-145v140h162q47 247 188 385.5t344 138.5q173 0 294.5 -93t176.5 -270l-170 -69q-43 140 -114.5 203t-186.5 63q-131 0 -220 -92.5t-126 -265.5h463l-33 -140h-448q-1 -20 -2 -40.5t-1.5 -32t-0.5 -21.5
q0 -64 2 -82h415l-30 -141h-367q35 -179 125 -274t223 -95q115 0 186.5 63.5t114.5 203.5l170 -70q-55 -177 -176.5 -270t-294.5 -93q-204 0 -345.5 141.5t-188.5 393.5z" />
    <glyph glyph-name="peso" unicode="&#x20b1;" 
d="M522 489h-131v-489h-196v737h-158v142h158v176h-158v139h158v276h327q183 0 312 -71.5t184 -204.5h184v-139h-149q4 -70 4 -74q0 -61 -8 -102h155v-142h-200q-62 -119 -187 -183.5t-295 -64.5zM391 1317v-674h127q168 0 262 89.5t94 250.5q0 160 -93 247t-263 87h-127z
" />
    <glyph glyph-name="uni20B9" unicode="&#x20b9;" 
d="M725 922h-623v157h623q-23 113 -107 174.5t-217 61.5h-299v155h1024v-155h-364q112 -77 141 -236h223v-157h-223q-20 -129 -101 -222.5t-210 -136.5l469 -563h-225l-441 530h-12h-281v158h299q133 0 217 61.5t107 172.5z" />
    <glyph glyph-name="uni20BA" unicode="&#x20ba;" 
d="M397 176h144q227 0 338.5 123.5t111.5 374.5h174q0 -320 -164 -497t-460 -177h-326v494l-176 -86v163l176 86v179l-176 -86v161l176 88v471h182v-395l344 168v-164l-344 -168v-178l344 168v-164l-344 -168v-393z" />
    <glyph glyph-name="uni20BD" unicode="&#x20bd;" 
d="M209 334h-158v139h158v176h-158v142h158v679h453q238 0 368.5 -108t130.5 -305q0 -194 -131.5 -301t-367.5 -107h-256v-176h282v-139h-282v-334h-197v334zM406 1309v-518h241q154 0 239 68.5t85 191.5q0 124 -84 191t-240 67h-241z" />
    <glyph glyph-name="trademark" unicode="&#x2122;" 
d="M354 1343v-516h-147v516h-164v127h475v-127h-164zM1071 1298l-133 -473h-84l-131 473v-471h-131v643h186l121 -440l121 440h180v-643h-129v471z" />
    <glyph glyph-name="uni2153" unicode="&#x2153;" horiz-adv-x="2457" 
d="M565 791v440h-205v106l86 4q78 5 113 33.5t45 100.5h117v-684h174v-136h-530v136h200zM623 0l1048 1470h162l-1047 -1470h-163zM2138 229q0 -105 -81 -173t-208 -68q-129 0 -212.5 67t-102.5 185l158 24q7 -66 49.5 -104.5t105.5 -38.5t101.5 34t38.5 91q0 54 -40 85
t-106 31h-84v113h82q60 0 97.5 30t37.5 79t-34.5 79.5t-90.5 30.5q-57 0 -96.5 -35.5t-50.5 -95.5l-148 17q17 111 99 179t202 68q123 0 197 -64t74 -169q0 -61 -40.5 -110.5t-100.5 -61.5q72 -20 112.5 -70.5t40.5 -122.5z" />
    <glyph glyph-name="uni2154" unicode="&#x2154;" horiz-adv-x="2457" 
d="M319 655v125l277 219q77 61 108 109t31 104q0 60 -36.5 95.5t-96.5 35.5t-96.5 -37.5t-36.5 -97.5q0 -55 20 -88h-151q-19 66 -19 99q0 112 82 188t205 76q128 0 204.5 -71t76.5 -189q0 -85 -45 -158t-148 -152l-159 -122h370v-136h-586zM623 0l1048 1470h162
l-1047 -1470h-163zM2138 229q0 -105 -81 -173t-208 -68q-129 0 -212.5 67t-102.5 185l158 24q7 -66 49.5 -104.5t105.5 -38.5t101.5 34t38.5 91q0 54 -40 85t-106 31h-84v113h82q60 0 97.5 30t37.5 79t-34.5 79.5t-90.5 30.5q-57 0 -96.5 -35.5t-50.5 -95.5l-148 17
q17 111 99 179t202 68q123 0 197 -64t74 -169q0 -61 -40.5 -110.5t-100.5 -61.5q72 -20 112.5 -70.5t40.5 -122.5z" />
    <glyph glyph-name="uni215B" unicode="&#x215b;" horiz-adv-x="2457" 
d="M565 791v440h-205v106l86 4q78 5 113 33.5t45 100.5h117v-684h174v-136h-530v136h200zM623 0l1048 1470h162l-1047 -1470h-163zM1573 600q0 100 75.5 163.5t192.5 63.5t193.5 -64t76.5 -163q0 -57 -30.5 -102.5t-87.5 -71.5q74 -23 116.5 -76.5t42.5 -122.5
q0 -105 -87.5 -172t-223.5 -67t-223.5 67t-87.5 172q0 67 43.5 120.5t116.5 78.5q-56 26 -86.5 71.5t-30.5 102.5zM1710 596q0 -51 35.5 -83t95.5 -32t96.5 32t36.5 83t-36.5 83t-96.5 32t-95.5 -32t-35.5 -83zM2001 240q0 57 -45.5 95t-114.5 38t-114.5 -38t-45.5 -95
q0 -60 44 -95.5t116 -35.5t116 35.5t44 95.5z" />
    <glyph glyph-name="uni215C" unicode="&#x215c;" horiz-adv-x="2457" 
d="M909 885q0 -105 -80.5 -173.5t-207.5 -68.5q-129 0 -213 67t-103 185l158 25q7 -66 49.5 -105t105.5 -39t101.5 34t38.5 91q0 54 -40 85.5t-106 31.5h-84v112h82q60 0 97.5 30t37.5 79q0 50 -34.5 80.5t-89.5 30.5q-57 0 -97.5 -35.5t-50.5 -95.5l-147 16
q17 111 99 179.5t202 68.5q122 0 196 -64.5t74 -169.5q0 -61 -40.5 -110.5t-100.5 -61.5q72 -20 112.5 -70t40.5 -122zM623 0l1048 1470h162l-1047 -1470h-163zM1573 600q0 100 75.5 163.5t192.5 63.5t193.5 -64t76.5 -163q0 -57 -30.5 -102.5t-87.5 -71.5
q74 -23 116.5 -76.5t42.5 -122.5q0 -105 -87.5 -172t-223.5 -67t-223.5 67t-87.5 172q0 67 43.5 120.5t116.5 78.5q-56 26 -86.5 71.5t-30.5 102.5zM1710 596q0 -51 35.5 -83t95.5 -32t96.5 32t36.5 83t-36.5 83t-96.5 32t-95.5 -32t-35.5 -83zM2001 240q0 57 -45.5 95
t-114.5 38t-114.5 -38t-45.5 -95q0 -60 44 -95.5t116 -35.5t116 35.5t44 95.5z" />
    <glyph glyph-name="uni215D" unicode="&#x215d;" horiz-adv-x="2457" 
d="M618 1073q-80 0 -118 -59l-146 20l37 436h463v-131h-346l-21 -217q77 68 168 68q112 0 182 -73.5t70 -190.5q0 -120 -86 -203q-83 -80 -211 -80q-125 0 -206.5 65.5t-98.5 180.5l156 26q8 -63 48 -101t101 -38q63 0 105.5 42.5t42.5 105.5q0 64 -39.5 106.5t-100.5 42.5z
M623 0l1048 1470h162l-1047 -1470h-163zM1573 600q0 100 75.5 163.5t192.5 63.5t193.5 -64t76.5 -163q0 -57 -30.5 -102.5t-87.5 -71.5q74 -23 116.5 -76.5t42.5 -122.5q0 -105 -87.5 -172t-223.5 -67t-223.5 67t-87.5 172q0 67 43.5 120.5t116.5 78.5q-56 26 -86.5 71.5
t-30.5 102.5zM1710 596q0 -51 35.5 -83t95.5 -32t96.5 32t36.5 83t-36.5 83t-96.5 32t-95.5 -32t-35.5 -83zM2001 240q0 57 -45.5 95t-114.5 38t-114.5 -38t-45.5 -95q0 -60 44 -95.5t116 -35.5t116 35.5t44 95.5z" />
    <glyph glyph-name="uni215E" unicode="&#x215e;" horiz-adv-x="2457" 
d="M823 1341h-323v-124h-131v253h610v-129q-128 -140 -182 -292q-54 -157 -54 -394h-165q0 210 60 378t185 308zM623 0l1048 1470h162l-1047 -1470h-163zM1573 600q0 100 75.5 163.5t192.5 63.5t193.5 -64t76.5 -163q0 -57 -30.5 -102.5t-87.5 -71.5q74 -23 116.5 -76.5
t42.5 -122.5q0 -105 -87.5 -172t-223.5 -67t-223.5 67t-87.5 172q0 67 43.5 120.5t116.5 78.5q-56 26 -86.5 71.5t-30.5 102.5zM1710 596q0 -51 35.5 -83t95.5 -32t96.5 32t36.5 83t-36.5 83t-96.5 32t-95.5 -32t-35.5 -83zM2001 240q0 57 -45.5 95t-114.5 38t-114.5 -38
t-45.5 -95q0 -60 44 -95.5t116 -35.5t116 35.5t44 95.5z" />
    <glyph glyph-name="arrowleft" unicode="&#x2190;" 
d="M358 649l328 -358l-133 -123l-522 573l522 574l133 -123l-328 -358h840v-185h-840z" />
    <glyph glyph-name="arrowup" unicode="&#x2191;" 
d="M707 1155v-1155h-185v1155l-323 -297l-131 139l546 496l547 -496l-133 -139z" />
    <glyph glyph-name="arrowright" unicode="&#x2192;" 
d="M31 649v185h839l-327 358l133 123l522 -574l-522 -573l-133 123l327 358h-839z" />
    <glyph glyph-name="arrowdown" unicode="&#x2193;" 
d="M1028 612l133 -139l-547 -496l-546 496l131 139l323 -297v1155h185v-1155z" />
    <glyph glyph-name="minus" unicode="&#x2212;" 
d="M1135 618h-1041v164h1041v-164z" />
    <glyph glyph-name="commaaccent" unicode="&#xf6c3;" 
d="M602 -223h-80v147h199v-125q0 -86 -60.5 -138t-160.5 -52v84q51 2 76 22t26 62z" />
    <glyph glyph-name="a.1" 
d="M1006 786v-553q0 -124 16 -233h-182q-9 99 -9 111q-54 -61 -138.5 -95t-184.5 -34q-151 0 -254 86q-100 84 -100 223q0 140 97 224.5t310 125.5l264 53v66q0 84 -55 127t-160 43q-212 0 -233 -174h-180q12 159 124.5 247.5t299.5 88.5q180 0 282.5 -81.5t102.5 -224.5z
M532 131q123 0 207 66q86 68 86 168v186l-215 -45q-152 -30 -212 -77t-60 -130q0 -78 53 -123t141 -45z" />
    <glyph glyph-name="aogonek.1" 
d="M899 -381q-80 0 -132 46t-52 118q0 60 29.5 111.5t95.5 105.5q-9 99 -9 111q-54 -61 -138.5 -95t-184.5 -34q-151 0 -254 86q-100 84 -100 223q0 140 97 224.5t310 125.5l264 53v66q0 84 -55 127t-160 43q-212 0 -233 -174h-180q12 159 124.5 247.5t299.5 88.5
q180 0 282.5 -81.5t102.5 -224.5v-553q0 -124 16 -233q-84 -42 -128 -91t-44 -97q0 -32 22.5 -52t59.5 -20q32 0 82 12v-119q-55 -14 -115 -14zM532 131q123 0 207 66q86 68 86 168v186l-215 -45q-152 -30 -212 -77t-60 -130q0 -78 53 -123t141 -45z" />
    <glyph glyph-name="aacute.1" 
d="M1006 786v-553q0 -124 16 -233h-182q-9 99 -9 111q-54 -61 -138.5 -95t-184.5 -34q-151 0 -254 86q-100 84 -100 223q0 140 97 224.5t310 125.5l264 53v66q0 84 -55 127t-160 43q-212 0 -233 -174h-180q12 159 124.5 247.5t299.5 88.5q180 0 282.5 -81.5t102.5 -224.5z
M532 131q123 0 207 66q86 68 86 168v186l-215 -45q-152 -30 -212 -77t-60 -130q0 -78 53 -123t141 -45zM688 1186h-145l121 284h231z" />
    <glyph glyph-name="adieresis.1" 
d="M1006 786v-553q0 -124 16 -233h-182q-9 99 -9 111q-54 -61 -138.5 -95t-184.5 -34q-151 0 -254 86q-100 84 -100 223q0 140 97 224.5t310 125.5l264 53v66q0 84 -55 127t-160 43q-212 0 -233 -174h-180q12 159 124.5 247.5t299.5 88.5q180 0 282.5 -81.5t102.5 -224.5z
M532 131q123 0 207 66q86 68 86 168v186l-215 -45q-152 -30 -212 -77t-60 -130q0 -78 53 -123t141 -45zM537 1249h-205v213h205v-213zM889 1249h-205v213h205v-213z" />
    <glyph glyph-name="acircumflex.1" 
d="M1006 786v-553q0 -124 16 -233h-182q-9 99 -9 111q-54 -61 -138.5 -95t-184.5 -34q-151 0 -254 86q-100 84 -100 223q0 140 97 224.5t310 125.5l264 53v66q0 84 -55 127t-160 43q-212 0 -233 -174h-180q12 159 124.5 247.5t299.5 88.5q180 0 282.5 -81.5t102.5 -224.5z
M532 131q123 0 207 66q86 68 86 168v186l-215 -45q-152 -30 -212 -77t-60 -130q0 -78 53 -123t141 -45zM512 1470h201l200 -284h-143l-158 160l-157 -160h-144z" />
    <glyph glyph-name="aring.1" 
d="M1006 786v-553q0 -124 16 -233h-182q-9 99 -9 111q-54 -61 -138.5 -95t-184.5 -34q-151 0 -254 86q-100 84 -100 223q0 140 97 224.5t310 125.5l264 53v66q0 84 -55 127t-160 43q-212 0 -233 -174h-180q12 159 124.5 247.5t299.5 88.5q180 0 282.5 -81.5t102.5 -224.5z
M532 131q123 0 207 66q86 68 86 168v186l-215 -45q-152 -30 -212 -77t-60 -130q0 -78 53 -123t141 -45zM606 1157q-88 0 -147.5 58t-59.5 143t59.5 143t147.5 58t147.5 -58t59.5 -143t-59.5 -143t-147.5 -58zM606 1462q-43 0 -72.5 -30.5t-29.5 -73.5t30 -74t72 -31
q43 0 73 31t30 74t-30 73.5t-73 30.5z" />
    <glyph glyph-name="abreve.1" 
d="M1006 786v-553q0 -124 16 -233h-182q-9 99 -9 111q-54 -61 -138.5 -95t-184.5 -34q-151 0 -254 86q-100 84 -100 223q0 140 97 224.5t310 125.5l264 53v66q0 84 -55 127t-160 43q-212 0 -233 -174h-180q12 159 124.5 247.5t299.5 88.5q180 0 282.5 -81.5t102.5 -224.5z
M532 131q123 0 207 66q86 68 86 168v186l-215 -45q-152 -30 -212 -77t-60 -130q0 -78 53 -123t141 -45zM612 1309q66 0 106 43.5t40 117.5h129q0 -136 -73.5 -215t-201.5 -79q-127 0 -200.5 78.5t-73.5 215.5h129q0 -75 39.5 -118t105.5 -43z" />
    <glyph glyph-name="agrave.1" 
d="M1006 786v-553q0 -124 16 -233h-182q-9 99 -9 111q-54 -61 -138.5 -95t-184.5 -34q-151 0 -254 86q-100 84 -100 223q0 140 97 224.5t310 125.5l264 53v66q0 84 -55 127t-160 43q-212 0 -233 -174h-180q12 159 124.5 247.5t299.5 88.5q180 0 282.5 -81.5t102.5 -224.5z
M532 131q123 0 207 66q86 68 86 168v186l-215 -45q-152 -30 -212 -77t-60 -130q0 -78 53 -123t141 -45zM573 1470l121 -284h-145l-207 284h231z" />
    <glyph glyph-name="atilde.1" 
d="M1006 786v-553q0 -124 16 -233h-182q-9 99 -9 111q-54 -61 -138.5 -95t-184.5 -34q-151 0 -254 86q-100 84 -100 223q0 140 97 224.5t310 125.5l264 53v66q0 84 -55 127t-160 43q-212 0 -233 -174h-180q12 159 124.5 247.5t299.5 88.5q180 0 282.5 -81.5t102.5 -224.5z
M532 131q123 0 207 66q86 68 86 168v186l-215 -45q-152 -30 -212 -77t-60 -130q0 -78 53 -123t141 -45zM481 1473q33 0 66.5 -16.5t83.5 -59.5q37 -34 56 -45t38 -11q38 0 59 30t31 102h121q-11 -130 -63 -203.5t-136 -73.5q-35 0 -68 15.5t-81 60.5q-38 32 -56.5 42.5
t-37.5 10.5q-38 0 -59.5 -31t-28.5 -98h-121q8 131 59 204t137 73z" />
    <glyph glyph-name="amacron.1" 
d="M1006 786v-553q0 -124 16 -233h-182q-9 99 -9 111q-54 -61 -138.5 -95t-184.5 -34q-151 0 -254 86q-100 84 -100 223q0 140 97 224.5t310 125.5l264 53v66q0 84 -55 127t-160 43q-212 0 -233 -174h-180q12 159 124.5 247.5t299.5 88.5q180 0 282.5 -81.5t102.5 -224.5z
M532 131q123 0 207 66q86 68 86 168v186l-215 -45q-152 -30 -212 -77t-60 -130q0 -78 53 -123t141 -45zM895 1389v-148h-561v148h561z" />
    <glyph glyph-name="idotaccent" 
d="M754 1257h-201v213h201v-213zM1141 0h-975v158h395v755h-395v158h579v-913h396v-158z" />
    <glyph glyph-name="ordfeminine.1" 
d="M915 1253v-376q0 -95 13 -175h-172q-4 54 -4 76q-37 -43 -98.5 -66.5t-133.5 -23.5q-113 0 -185.5 62.5t-72.5 160.5q0 105 75 166.5t236 87.5l168 31v39q0 106 -133 106q-131 0 -143 -108h-174q10 118 97 186t228 68t220 -62t79 -172zM559 823q78 0 130 41.5t52 104.5
v106l-135 -24q-92 -17 -130 -46.5t-38 -80.5q0 -45 33 -73t88 -28zM928 432h-666v131h666v-131z" />
    <glyph glyph-name="a.ord" 
d="M748 786q-41 -47 -105.5 -72.5t-138.5 -25.5q-116 0 -188 61.5t-72 161.5q0 103 77 165t236 87l178 31v29q0 57 -36 87.5t-103 30.5q-127 0 -162 -114l-168 28q30 105 120 168.5t216 63.5q148 0 227.5 -66.5t79.5 -189.5v-340q0 -36 20.5 -48.5t63.5 -4.5v-136
q-99 -17 -162.5 5t-82.5 79zM543 821q80 0 136 44.5t56 107.5v100l-149 -24q-92 -19 -130 -48t-38 -79q0 -45 34.5 -73t90.5 -28z" />
    <glyph glyph-name="a.1.ord" 
d="M915 1253v-376q0 -95 13 -175h-172q-4 54 -4 76q-37 -43 -98.5 -66.5t-133.5 -23.5q-113 0 -185.5 62.5t-72.5 160.5q0 105 75 166.5t236 87.5l168 31v39q0 106 -133 106q-131 0 -143 -108h-174q10 118 97 186t228 68t220 -62t79 -172zM559 823q78 0 130 41.5t52 104.5
v106l-135 -24q-92 -17 -130 -46.5t-38 -80.5q0 -45 33 -73t88 -28z" />
    <glyph glyph-name="b.ord" 
d="M991 1085q0 -175 -88 -288q-86 -111 -229 -111q-69 0 -127 32t-90 89v-105h-178v1051h178v-387q32 57 90 89t127 32q144 0 229 -113q88 -113 88 -289zM629 1333q-76 0 -125 -61t-49 -162v-49q0 -99 49 -160t125 -61q86 0 135 66t49 179q0 116 -49 182t-135 66z" />
    <glyph glyph-name="c.ord" 
d="M645 1337q-100 0 -158.5 -68t-58.5 -184q0 -115 58.5 -182t158.5 -67q71 0 119 38.5t65 108.5l156 -59q-26 -106 -120 -172t-222 -66q-172 0 -283 111q-108 114 -108 288q0 178 108 289q110 113 283 113q128 0 221 -65t119 -171l-154 -61q-17 70 -65 108.5t-119 38.5z
" />
    <glyph glyph-name="d.ord" 
d="M555 686q-143 0 -231 111q-86 115 -86 288q0 174 86 289q88 113 231 113q69 0 127 -32t90 -89v387h178v-1051h-178v105q-32 -57 -90 -89t-127 -32zM774 1061v49q0 101 -49 162t-125 61q-86 0 -135 -66t-49 -182q0 -113 49 -179t135 -66q76 0 125 61t49 160z" />
    <glyph glyph-name="e.ord" 
d="M631 686q-170 0 -275 111q-104 110 -104 290q0 174 104 287q107 113 271 113q159 0 253.5 -105.5t94.5 -279.5v-49h-551q7 -103 64 -163.5t145 -60.5q72 0 119.5 34.5t66.5 97.5l150 -50q-37 -105 -127 -165t-211 -60zM627 1346q-75 0 -127.5 -47.5t-69.5 -129.5h369
q-5 80 -51.5 128.5t-120.5 48.5z" />
    <glyph glyph-name="f.ord" 
d="M930 702h-686v148h229v467h-229v147h229q0 146 89 225.5t249 79.5q76 0 178 -20v-139q-91 16 -166 16q-172 0 -172 -162h336v-147h-336v-467h279v-148z" />
    <glyph glyph-name="g.ord" 
d="M948 1470v-688q0 -166 -100.5 -260t-274.5 -94q-135 0 -226.5 58.5t-117.5 162.5l168 45q13 -61 62 -95t119 -34q94 0 143 51t49 148v78q-29 -54 -88 -85.5t-131 -31.5q-147 0 -234 106q-88 107 -88 273q0 167 88 274q89 109 234 109q72 0 131 -32.5t88 -88.5v104h178z
M772 1087v33q0 97 -50 157t-126 60q-87 0 -136.5 -62t-49.5 -169q0 -109 49.5 -171.5t136.5 -62.5q76 0 126 59t50 156z" />
    <glyph glyph-name="h.ord" 
d="M465 702h-178v1051h178v-381q37 54 96.5 84.5t128.5 30.5q118 0 187 -75.5t69 -203.5v-506h-178v459q0 78 -35.5 121t-101.5 43q-70 0 -118 -50t-48 -124v-449z" />
    <glyph glyph-name="i.ord" 
d="M735 1583h-186v170h186v-170zM997 702h-727v148h283v473h-274v147h452v-620h266v-148z" />
    <glyph glyph-name="j.ord" 
d="M856 1583h-188v170h188v-170zM473 584q201 0 201 164v575h-361v147h539v-745q0 -139 -95.5 -218t-260.5 -79q-120 0 -193 27v153q74 -24 170 -24z" />
    <glyph glyph-name="k.ord" 
d="M297 1753h178v-620l311 337h207l-282 -299l301 -469h-201l-225 338l-111 -116v-222h-178v1051z" />
    <glyph glyph-name="l.ord" 
d="M997 702h-727v148h283v756h-274v147h452v-903h266v-148z" />
    <glyph glyph-name="m.ord" 
d="M471 1339q-41 0 -63.5 -33t-22.5 -94v-510h-145v768h145v-73q50 88 141 88q90 0 138 -96q24 43 66 69.5t91 26.5q79 0 125.5 -59.5t46.5 -159.5v-564h-145v515q0 66 -17.5 94t-56.5 28q-41 0 -63.5 -33.5t-22.5 -93.5v-510h-145v515q0 68 -16.5 95t-55.5 27z" />
    <glyph glyph-name="n.ord" 
d="M465 702h-178v768h178v-98q37 54 96.5 84.5t128.5 30.5q118 0 187 -75.5t69 -203.5v-506h-178v459q0 78 -35.5 121t-101.5 43q-70 0 -118 -50t-48 -124v-449z" />
    <glyph glyph-name="o.ord" 
d="M612 1487q167 0 269 -111t102 -291q0 -177 -102 -288t-269 -111q-164 0 -266 111q-100 109 -100 288q0 180 100 289q101 113 266 113zM612 1339q-88 0 -139 -68.5t-51 -185.5q0 -115 51.5 -183t138.5 -68q88 0 140.5 67.5t52.5 183.5q0 117 -52.5 185.5t-140.5 68.5z" />
    <glyph glyph-name="p.ord" 
d="M991 1085q0 -175 -88 -288q-86 -111 -229 -111q-69 0 -127 32t-90 89v-365h-178v1028h178v-104q32 57 90 89t127 32q144 0 229 -113q88 -113 88 -289zM629 1333q-76 0 -125 -61t-49 -162v-49q0 -99 49 -160t125 -61q86 0 135 66t49 179q0 116 -49 182t-135 66z" />
    <glyph glyph-name="q.ord" 
d="M573 686q-141 0 -229 111q-86 115 -86 288q0 174 86 289q88 113 229 113q72 0 130 -32t90 -89v104h178v-1028h-178v365q-32 -57 -90 -89t-130 -32zM793 1061v49q0 101 -48 162t-124 61q-86 0 -135.5 -66t-49.5 -182q0 -113 49.5 -179t135.5 -66q76 0 124 61t48 160z" />
    <glyph glyph-name="r.ord" 
d="M901 702h-653v148h209v473h-209v147h379v-133q39 68 110.5 107t161.5 39q45 0 107 -15v-172q-70 17 -123 17q-109 0 -182.5 -62t-73.5 -155v-246h274v-148z" />
    <glyph glyph-name="s.ord" 
d="M608 686q-119 0 -220 42.5t-148 113.5l100 110q42 -60 119 -95.5t159 -35.5q72 0 117 27.5t45 71.5q0 42 -32 61q-35 21 -183 45q-160 25 -221 74.5t-61 140.5q0 108 92 176q94 70 237 70q106 0 195.5 -39.5t136.5 -106.5l-102 -100q-82 111 -234 111q-68 0 -107.5 -24.5
t-39.5 -67.5q0 -35 26 -52q28 -19 162 -43q193 -39 248 -88q61 -49 61 -137q0 -112 -98 -183t-252 -71z" />
    <glyph glyph-name="t.ord" 
d="M745 692q-148 0 -227.5 67.5t-79.5 192.5v371h-215v147h215v228h176v-228h347v-147h-347v-342q0 -69 41 -101t129 -32q95 0 181 24v-151q-107 -29 -220 -29z" />
    <glyph glyph-name="u.ord" 
d="M762 1470h178v-768h-178v99q-39 -55 -97 -85t-126 -30q-119 0 -188.5 75t-69.5 202v507h178v-466q0 -75 36 -116.5t103 -41.5q70 0 117 49t47 123v452z" />
    <glyph glyph-name="v.ord" 
d="M1010 1470l-310 -768h-174l-309 768h186l213 -550l213 550h181z" />
    <glyph glyph-name="w.ord" 
d="M446 958l107 512h125l108 -512l99 512h153l-159 -768h-148l-119 543l-118 -543h-144l-160 768h156z" />
    <glyph glyph-name="x.ord" 
d="M997 702h-198l-189 275l-188 -275h-191l277 400l-256 368h197l167 -245l170 245h191l-258 -368z" />
    <glyph glyph-name="y.ord" 
d="M1010 1470l-338 -813q-54 -126 -115 -175.5t-160 -49.5q-57 0 -84 6v146q35 -9 62 -9q44 0 71 20t46 67l30 69l-305 739h184l215 -536l213 536h181z" />
    <glyph glyph-name="z.ord" 
d="M496 850h460v-148h-694v129l467 492h-463v147h686v-131z" />
    <glyph glyph-name="caron.Slovak" 
d="M616 1063h-127l35 407h209z" />
    <glyph glyph-name="commaturn" 
d="M625 1333h80v-147h-199v125q0 86 60.5 138t160.5 52v-84q-51 -2 -76 -22t-26 -62z" />
    <glyph glyph-name="grave.cap" 
d="M639 1864l207 -297h-148l-317 297h258z" />
    <glyph glyph-name="acute.cap" 
d="M489 1567h-147l207 297h258z" />
    <glyph glyph-name="circumflex.cap" 
d="M504 1864h221l240 -297h-150l-201 178l-200 -178h-150z" />
    <glyph glyph-name="caron.cap" 
d="M965 1866l-240 -297h-221l-240 297h150l200 -178l201 178h150z" />
    <glyph glyph-name="tilde.cap" 
d="M469 1853q39 0 75 -15t93 -60q70 -56 113 -56q42 0 66.5 32.5t35.5 100.5h129q-11 -134 -69.5 -210t-151.5 -76q-37 0 -74 16t-96 60q-41 34 -65 45.5t-46 11.5q-42 0 -66.5 -32.5t-35.5 -100.5h-129q8 134 66 209t155 75z" />
    <glyph glyph-name="macron.cap" 
d="M934 1751v-154h-639v154h639z" />
    <glyph glyph-name="breve.cap" 
d="M614 1690q78 0 127.5 48t49.5 126h139q0 -136 -86.5 -218.5t-229.5 -82.5t-229 82.5t-86 218.5h139q0 -78 49 -126t127 -48z" />
    <glyph glyph-name="dotaccent.cap" 
d="M717 1575h-205v213h205v-213z" />
    <glyph glyph-name="dieresis.cap" 
d="M535 1575h-205v213h205v-213zM899 1575h-205v213h205v-213z" />
    <glyph glyph-name="ring.cap" 
d="M614 1552q-94 0 -163 66q-66 66 -66 160q0 93 66.5 157t162.5 64q98 0 164 -64t66 -157q0 -94 -66 -160t-164 -66zM614 1890q-44 0 -77 -34t-33 -78q0 -47 33 -81t77 -34q45 0 78 34t33 81q0 44 -33.5 78t-77.5 34z" />
    <glyph glyph-name="hungarumlaut.cap" 
d="M758 1567h-146l187 297h223zM381 1567h-148l189 297h223z" />
    <glyph glyph-name="guilsinglleft.cap" 
d="M811 377l-395 280v185l395 280v-190l-260 -182l260 -183v-190z" />
    <glyph glyph-name="guilsinglright.cap" 
d="M813 842v-185l-395 -280v190l260 183l-260 182v190z" />
    <glyph glyph-name="guillemotleft.cap" 
d="M584 377l-396 280v185l396 280v-190l-260 -182l260 -183v-190zM1038 377l-395 280v185l395 280v-190l-260 -182l260 -183v-190z" />
    <glyph glyph-name="guillemotright.cap" 
d="M643 567l260 183l-260 182v190l395 -280v-185l-395 -280v190zM188 567l261 183l-261 182v190l396 -280v-185l-396 -280v190z" />
    <glyph glyph-name="slash.cap" 
d="M354 -119h-190l710 1712h191z" />
    <glyph glyph-name="backslash.cap" 
d="M164 1593h190l711 -1712h-191z" />
    <glyph glyph-name="bar.cap" 
d="M705 -119h-181v1712h181v-1712z" />
    <glyph glyph-name="periodcentered.cap" 
d="M756 567h-283v291h283v-291z" />
    <glyph glyph-name="bullet.cap" 
d="M303 688q0 133 90 223t223 90q130 0 220 -90t90 -223q0 -131 -90 -221q-88 -88 -220 -88q-135 0 -223 88q-90 90 -90 221z" />
    <glyph glyph-name="hyphen.cap" 
d="M895 606h-561v166h561v-166z" />
    <glyph glyph-name="endash.cap" 
d="M1051 614h-873v152h873v-152z" />
    <glyph glyph-name="emdash.cap" 
d="M1229 614h-1229v152h1229v-152z" />
    <glyph glyph-name="parenleft.cap" 
d="M563 737q0 -232 88 -457t244 -399h-193q-168 181 -258 400.5t-90 455.5t90 455.5t258 400.5h193q-159 -177 -245.5 -400t-86.5 -456z" />
    <glyph glyph-name="parenright.cap" 
d="M666 737q0 233 -86.5 456t-245.5 400h192q168 -181 258 -400.5t90 -455.5t-90 -455.5t-258 -400.5h-192q156 174 244 399t88 457z" />
    <glyph glyph-name="bracketleft.cap" 
d="M940 1440h-422v-1407h422v-152h-608v1712h608v-153z" />
    <glyph glyph-name="bracketright.cap" 
d="M289 1593h608v-1712h-608v152h422v1407h-422v153z" />
    <glyph glyph-name="braceleft.cap" 
d="M303 662h-94v151h94q62 0 94.5 41.5t32.5 120.5v274q0 161 97.5 252.5t269.5 91.5h231v-153h-201q-117 0 -171 -55.5t-54 -176.5v-233q0 -91 -34 -149t-107 -89q73 -31 107 -88.5t34 -148.5v-234q0 -121 54 -176t171 -55h201v-154h-231q-172 0 -269.5 91.5t-97.5 252.5
v275q0 79 -32.5 120.5t-94.5 41.5z" />
    <glyph glyph-name="braceright.cap" 
d="M926 662q-62 0 -94.5 -41.5t-32.5 -120.5v-275q0 -161 -97.5 -252.5t-269.5 -91.5h-231v154h200q117 0 171.5 55t54.5 176v234q0 91 34 148.5t107 88.5q-73 31 -107 89t-34 149v233q0 121 -54.5 176.5t-171.5 55.5h-200v153h231q172 0 269.5 -91.5t97.5 -252.5v-274
q0 -79 32.5 -120.5t94.5 -41.5h94v-151h-94z" />
    <glyph glyph-name="at.cap" 
d="M899 424q60 0 100 113q41 115 41 288q0 279 -99.5 429.5t-283.5 150.5q-209 0 -338 -209q-129 -208 -129 -539q0 -309 117 -481t326 -172q182 0 319 137l78 -100q-160 -168 -397 -168q-275 0 -434 211q-158 211 -158 573q0 381 172 629q176 250 444 250q243 0 387 -190
t144 -512q0 -243 -86 -394q-85 -149 -217 -149q-62 0 -103.5 36.5t-54.5 102.5q-29 -69 -79.5 -107t-112.5 -38q-100 0 -162 98.5t-62 261.5q0 213 82 356q83 144 211 144q60 0 102.5 -34.5t59.5 -94.5l14 112h140l-72 -571q-8 -63 5.5 -98t45.5 -35zM569 420
q51 0 88.5 62.5t49.5 166.5l20 160q10 86 -17.5 143.5t-78.5 57.5q-72 0 -121 -107q-47 -109 -47 -256q0 -106 28.5 -166.5t77.5 -60.5z" />
    <glyph glyph-name="zero.dnom" 
d="M612 -12q-141 0 -225 114.5t-84 305.5t84 305t225 114t225.5 -114t84.5 -305t-84.5 -305.5t-225.5 -114.5zM612 690q-72 0 -113.5 -75.5t-41.5 -206.5t41.5 -207t113.5 -76q73 0 115.5 76t42.5 207t-42.5 206.5t-115.5 75.5z" />
    <glyph glyph-name="one.dnom" 
d="M565 135v440h-205v107l86 4q79 5 113.5 33.5t44.5 99.5h117v-684h174v-135h-530v135h200z" />
    <glyph glyph-name="two.dnom" 
d="M319 0v125l277 219q77 61 108 109t31 104q0 60 -36.5 95.5t-96.5 35.5t-96.5 -37.5t-36.5 -97.5q0 -55 20 -88h-151q-19 67 -19 98q0 113 82 189q81 75 205 75q128 0 204.5 -71t76.5 -189q0 -85 -45 -157.5t-148 -151.5l-159 -123h370v-135h-586z" />
    <glyph glyph-name="three.dnom" 
d="M909 229q0 -105 -80.5 -173t-207.5 -68q-129 0 -213 67t-103 185l158 24q7 -66 49.5 -104.5t105.5 -38.5t101.5 34t38.5 91q0 54 -40 85t-106 31h-84v113h82q60 0 97.5 30t37.5 79t-34 79.5t-90 30.5q-57 0 -97.5 -35.5t-50.5 -95.5l-147 17q17 111 99 179t202 68
q122 0 196 -64t74 -169q0 -61 -40.5 -110.5t-100.5 -61.5q72 -20 112.5 -70.5t40.5 -122.5z" />
    <glyph glyph-name="four.dnom" 
d="M811 201v-201h-145v201h-385v112l335 502h195v-493h141v-121h-141zM664 688l-252 -366h252v366z" />
    <glyph glyph-name="five.dnom" 
d="M618 418q-80 0 -118 -60l-146 21l37 436h463v-131h-346l-21 -217q77 68 168 68q112 0 182 -74t70 -191q0 -119 -86 -202q-83 -80 -211 -80q-125 0 -206.5 65t-98.5 180l156 27q8 -63 48 -101t101 -38q63 0 105.5 42t42.5 105q0 64 -39.5 107t-100.5 43z" />
    <glyph glyph-name="six.dnom" 
d="M651 827q100 0 169 -48.5t100 -141.5l-127 -49q-35 112 -144 112q-82 0 -132 -66.5t-50 -178.5q0 -42 2 -52q17 58 68.5 93.5t119.5 35.5q113 0 188 -74t75 -186q0 -122 -82 -204q-83 -80 -209 -80q-146 0 -231 111t-85 296q0 191 95 312q94 120 243 120zM627 111
q63 0 106 44t43 111t-42 111.5t-105 44.5q-66 0 -109 -44t-43 -112t42 -111.5t108 -43.5z" />
    <glyph glyph-name="seven.dnom" 
d="M768 686h-324v-125h-131v254h611v-129q-129 -141 -183 -293q-53 -154 -53 -393h-166q0 210 60.5 378t185.5 308z" />
    <glyph glyph-name="eight.dnom" 
d="M344 600q0 100 75.5 163.5t192.5 63.5t194 -64t77 -163q0 -57 -31 -102.5t-88 -71.5q74 -23 117 -76.5t43 -122.5q0 -105 -88 -172t-224 -67t-223.5 67t-87.5 172q0 67 43.5 120.5t116.5 78.5q-56 26 -86.5 71.5t-30.5 102.5zM481 596q0 -51 35.5 -83t95.5 -32t96.5 32
t36.5 83t-36.5 83t-96.5 32t-95.5 -32t-35.5 -83zM772 240q0 57 -45.5 95t-114.5 38t-114 -38t-45 -95q0 -60 43.5 -95.5t115.5 -35.5t116 35.5t44 95.5z" />
    <glyph glyph-name="nine.dnom" 
d="M575 -12q-100 0 -168.5 48.5t-99.5 141.5l127 49q27 -112 144 -112q82 0 132 66.5t50 178.5q0 40 -2 50q-19 -57 -70.5 -92t-118.5 -35q-113 0 -187.5 74t-74.5 186q0 123 82 202q82 82 209 82q145 0 230 -110.5t85 -296.5q0 -192 -96 -314q-93 -118 -242 -118zM600 705
q-63 0 -106 -44.5t-43 -111.5q0 -68 42 -113t105 -45q66 0 109 45t43 113t-42 112t-108 44z" />
    <glyph glyph-name="colon.mid" 
d="M756 227h-283v291h283v-291zM756 973h-283v291h283v-291z" />
    <glyph glyph-name="commaaboverightcmb" horiz-adv-x="0" 
d="M6 1063h-127l35 407h209z" />
    <glyph glyph-name="_222" horiz-adv-x="0" 
 />
    <glyph glyph-name="g.1.ord" 
d="M360 1036q-84 72 -84 187q0 117 86.5 190.5t223.5 73.5q151 0 239 -88q26 51 82 74.5t119 11.5v-162q-43 19 -83 5.5t-52 -54.5q1 -10 2 -21t1.5 -17.5t0.5 -12.5q0 -117 -86 -189.5t-223 -72.5q-68 0 -129 20q-43 -13 -43 -51q0 -23 17 -37t46 -14h293
q110 0 169.5 -49.5t59.5 -141.5q0 -123 -112 -193.5t-305 -70.5q-174 0 -270.5 53.5t-96.5 151.5q0 100 111 151q-64 39 -64 117q0 44 26.5 81.5t71.5 57.5zM588 1092q66 0 104.5 35.5t38.5 95.5t-38.5 95.5t-104.5 35.5t-106 -35.5t-40 -95.5t40 -95.5t106 -35.5zM381 651
q0 -104 209 -104q116 0 178.5 29t62.5 83q0 39 -25 56.5t-81 17.5h-240q-49 0 -76.5 -22t-27.5 -60z" />
    <glyph glyph-name="ae.1" 
d="M1059 342l147 -57q-32 -142 -123.5 -225t-214.5 -83q-88 0 -162.5 46.5t-121.5 132.5q-43 -84 -115.5 -129t-165.5 -45q-126 0 -206.5 86.5t-80.5 224.5q0 167 119 260.5t330 93.5h41v90q0 92 -38.5 142.5t-107.5 50.5q-72 0 -117.5 -46t-52.5 -128h-159
q10 149 102 242.5t227 93.5q175 0 246 -146q49 71 115.5 108.5t142.5 37.5q160 0 254 -144q94 -143 94 -381v-61h-557q6 -170 65.5 -269.5t153.5 -99.5q70 0 121 56t64 149zM864 934q-81 0 -133 -74.5t-69 -212.5h385q-2 132 -50.5 209.5t-132.5 77.5zM317 133q85 0 137 65
t52 171v137h-35q-291 0 -291 -201q0 -79 37 -125.5t100 -46.5z" />
    <glyph glyph-name="dcaron.1" 
d="M557 -23q-200 0 -326 156q-122 155 -122 402q0 244 122 399q125 158 326 158q103 0 184 -46.5t131 -132.5v557h185v-1470h-185v158q-50 -87 -131.5 -134t-183.5 -47zM877 496v73q0 164 -78.5 262.5t-204.5 98.5q-139 0 -219 -106t-80 -289t80 -289.5t219 -106.5
q124 0 203.5 98.5t79.5 258.5zM1296 1063h-127l35 407h209z" />
    <glyph glyph-name="g.1" 
d="M285 465q-119 106 -119 264q0 157 115 260q118 103 299 103q103 0 190 -35.5t143 -98.5q31 74 108 110t165 19v-186q-67 32 -125.5 6t-71.5 -98q8 -31 8 -80q0 -162 -118 -262q-115 -100 -299 -100q-87 0 -179 30q-38 -6 -64 -31t-26 -57q0 -36 29 -59t74 -23h397
q160 0 244 -65.5t84 -192.5q0 -167 -151.5 -262.5t-414.5 -95.5q-232 0 -362.5 75.5t-130.5 211.5q0 151 153 217q-83 59 -83 161q0 62 36 112.5t99 76.5zM580 510q109 0 174 59.5t65 159.5t-65 159.5t-174 59.5q-106 0 -171 -60t-65 -159t65 -159t171 -60zM256 -68
q0 -172 328 -172q181 0 282 49.5t101 139.5q0 63 -42 92t-134 29h-361q-81 0 -127.5 -37.5t-46.5 -100.5z" />
    <glyph glyph-name="gdotaccent.1" 
d="M285 465q-119 106 -119 264q0 157 115 260q118 103 299 103q103 0 190 -35.5t143 -98.5q31 74 108 110t165 19v-186q-67 32 -125.5 6t-71.5 -98q8 -31 8 -80q0 -162 -118 -262q-115 -100 -299 -100q-87 0 -179 30q-38 -6 -64 -31t-26 -57q0 -36 29 -59t74 -23h397
q160 0 244 -65.5t84 -192.5q0 -167 -151.5 -262.5t-414.5 -95.5q-232 0 -362.5 75.5t-130.5 211.5q0 151 153 217q-83 59 -83 161q0 62 36 112.5t99 76.5zM580 510q109 0 174 59.5t65 159.5t-65 159.5t-174 59.5q-106 0 -171 -60t-65 -159t65 -159t171 -60zM256 -68
q0 -172 328 -172q181 0 282 49.5t101 139.5q0 63 -42 92t-134 29h-361q-81 0 -127.5 -37.5t-46.5 -100.5zM711 1257h-201v213h201v-213z" />
    <glyph glyph-name="gcommaaccent.1" 
d="M285 465q-119 106 -119 264q0 157 115 260q118 103 299 103q103 0 190 -35.5t143 -98.5q31 74 108 110t165 19v-186q-67 32 -125.5 6t-71.5 -98q8 -31 8 -80q0 -162 -118 -262q-115 -100 -299 -100q-87 0 -179 30q-38 -6 -64 -31t-26 -57q0 -36 29 -59t74 -23h397
q160 0 244 -65.5t84 -192.5q0 -167 -151.5 -262.5t-414.5 -95.5q-232 0 -362.5 75.5t-130.5 211.5q0 151 153 217q-83 59 -83 161q0 62 36 112.5t99 76.5zM580 510q109 0 174 59.5t65 159.5t-65 159.5t-174 59.5q-106 0 -171 -60t-65 -159t65 -159t171 -60zM256 -68
q0 -172 328 -172q181 0 282 49.5t101 139.5q0 63 -42 92t-134 29h-361q-81 0 -127.5 -37.5t-46.5 -100.5zM633 1333h80v-147h-199v125q0 86 60.5 138t160.5 52v-84q-51 -2 -76 -22t-26 -62z" />
    <glyph glyph-name="aeacute.1" 
d="M657 1186h-145l121 284h231zM1059 342l147 -57q-32 -142 -123.5 -225t-214.5 -83q-88 0 -162.5 46.5t-121.5 132.5q-43 -84 -115.5 -129t-165.5 -45q-126 0 -206.5 86.5t-80.5 224.5q0 167 119 260.5t330 93.5h41v90q0 92 -38.5 142.5t-107.5 50.5q-72 0 -117.5 -46
t-52.5 -128h-159q10 149 102 242.5t227 93.5q175 0 246 -146q49 71 115.5 108.5t142.5 37.5q160 0 254 -144q94 -143 94 -381v-61h-557q6 -170 65.5 -269.5t153.5 -99.5q70 0 121 56t64 149zM864 934q-81 0 -133 -74.5t-69 -212.5h385q-2 132 -50.5 209.5t-132.5 77.5z
M317 133q85 0 137 65t52 171v137h-35q-291 0 -291 -201q0 -79 37 -125.5t100 -46.5z" />
    <glyph glyph-name="gbreve.1" 
d="M285 465q-119 106 -119 264q0 157 115 260q118 103 299 103q103 0 190 -35.5t143 -98.5q31 74 108 110t165 19v-186q-67 32 -125.5 6t-71.5 -98q8 -31 8 -80q0 -162 -118 -262q-115 -100 -299 -100q-87 0 -179 30q-38 -6 -64 -31t-26 -57q0 -36 29 -59t74 -23h397
q160 0 244 -65.5t84 -192.5q0 -167 -151.5 -262.5t-414.5 -95.5q-232 0 -362.5 75.5t-130.5 211.5q0 151 153 217q-83 59 -83 161q0 62 36 112.5t99 76.5zM580 510q109 0 174 59.5t65 159.5t-65 159.5t-174 59.5q-106 0 -171 -60t-65 -159t65 -159t171 -60zM256 -68
q0 -172 328 -172q181 0 282 49.5t101 139.5q0 63 -42 92t-134 29h-361q-81 0 -127.5 -37.5t-46.5 -100.5zM616 1309q66 0 106 43.5t40 117.5h129q0 -136 -73.5 -215t-201.5 -79q-127 0 -200.5 78.5t-73.5 215.5h129q0 -75 39.5 -118t105.5 -43z" />
    <glyph glyph-name="gcircumflex.1" 
d="M285 465q-119 106 -119 264q0 157 115 260q118 103 299 103q103 0 190 -35.5t143 -98.5q31 74 108 110t165 19v-186q-67 32 -125.5 6t-71.5 -98q8 -31 8 -80q0 -162 -118 -262q-115 -100 -299 -100q-87 0 -179 30q-38 -6 -64 -31t-26 -57q0 -36 29 -59t74 -23h397
q160 0 244 -65.5t84 -192.5q0 -167 -151.5 -262.5t-414.5 -95.5q-232 0 -362.5 75.5t-130.5 211.5q0 151 153 217q-83 59 -83 161q0 62 36 112.5t99 76.5zM580 510q109 0 174 59.5t65 159.5t-65 159.5t-174 59.5q-106 0 -171 -60t-65 -159t65 -159t171 -60zM256 -68
q0 -172 328 -172q181 0 282 49.5t101 139.5q0 63 -42 92t-134 29h-361q-81 0 -127.5 -37.5t-46.5 -100.5zM516 1470h201l201 -284h-144l-158 160l-157 -160h-144z" />
    <glyph glyph-name="zero.slash" 
d="M614 -23q-249 0 -397 207q-147 205 -147 551q0 345 147 551q148 207 397 207q250 0 398 -207q147 -206 147 -551q0 -346 -147 -551q-148 -207 -398 -207zM614 1331q-168 0 -262 -162q-96 -162 -96 -434q0 -126 18 -211l635 580q-97 227 -295 227zM614 139q168 0 263 160
q96 166 96 436q0 121 -19 211l-635 -579q98 -228 295 -228z" />
    <glyph glyph-name="arrowNW" 
d="M254 381h-180v850h850v-180h-537l770 -770l-133 -131l-770 770v-539z" />
    <glyph glyph-name="arrowNE" 
d="M975 920l-770 -770l-133 131l770 770h-537v180h850v-850h-180v539z" />
    <glyph glyph-name="arrowSE" 
d="M975 973h180v-850h-850v180h537l-770 770l133 131l770 -770v539z" />
    <glyph glyph-name="arrowSW" 
d="M254 434l770 770l133 -131l-770 -770h537v-180h-850v850h180v-539z" />
    <glyph glyph-name="arrowupdown" 
d="M1028 244l133 -140l-547 -495l-546 495l131 140l323 -297v1249l-323 -297l-131 139l546 496l547 -496l-133 -139l-321 297v-1249z" />
    <glyph glyph-name="arrowleftright" horiz-adv-x="2457" 
d="M1763 1315l523 -574l-523 -573l-133 123l328 358h-1458l327 -358l-133 -123l-522 573l522 574l133 -123l-327 -358h1458l-328 358z" />
  </font>
</defs>
</svg>
