<svg width="auto" height="auto" viewBox="0 0 573 532" fill="none" xmlns="http://www.w3.org/2000/svg">
<g clip-path="url(#clip0_104_3)">
<path d="M340.954 172.789H335.963V357.511H340.954C347.386 357.511 352.34 355.406 355.778 351.194C359.216 346.982 360.953 341.219 360.953 333.867V196.397C360.953 189.082 359.216 183.318 355.778 179.07C352.34 174.858 347.386 172.752 340.954 172.752V172.789Z" fill="#779F9D"/>
<path d="M0 0V435.538L95.9313 532H477.106L573.037 435.538V0H0ZM148.462 176.114H115.155V399.111H65.2111V176.114H31.9032V132.852H148.462V176.114ZM274.375 399.111H231.085L202.768 265.963H199.441L204.432 399.111H157.815V132.852H201.105L229.422 266H232.749L227.758 132.852H274.375V399.148V399.111ZM410.933 289.275C410.933 327.217 404.39 354.999 391.267 372.659C378.18 390.318 359.179 399.111 334.299 399.111H287.683V132.852H334.299C359.179 132.852 378.143 141.682 391.267 159.304C404.353 176.964 410.933 204.746 410.933 242.688V289.275ZM541.171 221.039H496.218C494.887 217.27 494.222 212.283 494.222 206.076V183.762C494.222 178.663 493.113 174.71 490.895 171.939C488.677 169.169 485.793 167.765 482.244 167.765C478.473 167.765 475.368 169.206 472.928 172.087C470.488 174.969 469.269 179.07 469.269 184.39V189.377C469.269 196.914 471.228 204.266 475.109 211.359C478.991 218.452 485.386 227.578 494.259 238.661L504.24 251.296C516.439 266.85 525.385 280.926 531.042 293.561C536.698 306.196 539.544 320.308 539.544 335.825C539.544 356.255 534.221 372.437 523.537 384.407C512.89 396.377 498.436 402.399 480.248 402.399C460.027 402.399 444.796 396.118 434.445 383.594C424.131 371.07 418.955 353.041 418.955 329.508C418.955 321.084 418.29 314.878 416.959 310.888V307.562H462.577C463.908 310.222 464.574 315.21 464.574 322.525V347.167C464.574 352.265 465.683 356.366 467.901 359.469C470.119 362.573 473.113 364.124 476.884 364.124C480.876 364.124 483.982 362.61 486.2 359.617C488.418 356.625 489.527 352.672 489.527 347.795V342.808C489.527 334.606 487.087 326.072 482.207 317.168C477.327 308.301 470.23 297.772 460.877 285.544L451.228 272.909C439.472 257.577 431.192 244.24 426.423 232.787C421.654 221.371 419.251 208.551 419.251 194.328C419.251 175.006 424.685 159.378 435.554 147.408C446.422 135.438 461.21 129.416 479.841 129.416C498.473 129.416 513.297 135.586 523.648 147.889C533.999 160.191 539.138 177.001 539.138 198.318C539.138 206.963 539.803 213.428 541.134 217.64V220.965L541.171 221.039Z" fill="#779F9D"/>
</g>
<defs>
<clipPath id="clip0_104_3">
<rect width="573" height="532" fill="white"/>
</clipPath>
</defs>
</svg>
